  0
SECTION
  2
HEADER
  9
$ACADVER
  1
AC1015
  9
$ACADMAINTVER
 70
     6
  9
$DWGCODEPAGE
  3
ANSI_1252
  9
$INSBASE
 10
0.0
 20
0.0
 30
0.0
  9
$EXTMIN
 10
0.0
 20
0.0
 30
0.0
  9
$EXTMAX
 10
10.0
 20
10.0
 30
0.0
  9
$LIMMIN
 10
0.0
 20
0.0
  9
$LIMMAX
 10
10.0
 20
10.0
  9
$ORTHOMODE
 70
     0
  9
$REGENMODE
 70
     1
  9
$FILLMODE
 70
     1
  9
$QTEXTMODE
 70
     0
  9
$MIRRTEXT
 70
     1
  9
$LTSCALE
 40
1.0
  9
$ATTMODE
 70
     1
  9
$TEXTSIZE
 40
3.5
  9
$TRACEWID
 40
1.0
  9
$TEXTSTYLE
  7
Standard
  9
$CLAYER
  8
0
  9
$CELTYPE
  6
ByLayer
  9
$CECOLOR
 62
   256
  9
$CELTSCALE
 40
1.0
  9
$DISPSILH
 70
     0
  9
$DIMSCALE
 40
1.0
  9
$DIMASZ
 40
3.302
  9
$DIMEXO
 40
1.0
  9
$DIMDLI
 40
3.75
  9
$DIMRND
 40
0.0
  9
$DIMDLE
 40
0.0
  9
$DIMEXE
 40
1.0
  9
$DIMTP
 40
0.0
  9
$DIMTM
 40
0.0
  9
$DIMTXT
 40
3.5
  9
$DIMCEN
 40
2.5
  9
$DIMTSZ
 40
0.0
  9
$DIMTOL
 70
     0
  9
$DIMLIM
 70
     0
  9
$DIMTIH
 70
     1
  9
$DIMTOH
 70
     1
  9
$DIMSE1
 70
     0
  9
$DIMSE2
 70
     0
  9
$DIMTAD
 70
     1
  9
$DIMZIN
 70
     1
  9
$DIMBLK
  1

  9
$DIMASO
 70
     1
  9
$DIMSHO
 70
     1
  9
$DIMPOST
  1

  9
$DIMAPOST
  1

  9
$DIMALT
 70
     0
  9
$DIMALTD
 70
     3
  9
$DIMALTF
 40
0.0393700787
  9
$DIMLFAC
 40
1.0
  9
$DIMTOFL
 70
     1
  9
$DIMTVP
 40
0.0
  9
$DIMTIX
 70
     0
  9
$DIMSOXD
 70
     0
  9
$DIMSAH
 70
     0
  9
$DIMBLK1
  1

  9
$DIMBLK2
  1

  9
$DIMSTYLE
  2
ISO-25
  9
$DIMCLRD
 70
     0
  9
$DIMCLRE
 70
     0
  9
$DIMCLRT
 70
     0
  9
$DIMTFAC
 40
1.0
  9
$DIMGAP
 40
1.524
  9
$DIMJUST
 70
     0
  9
$DIMSD1
 70
     0
  9
$DIMSD2
 70
     0
  9
$DIMTOLJ
 70
     0
  9
$DIMTZIN
 70
     1
  9
$DIMALTZ
 70
     0
  9
$DIMALTTZ
 70
     0
  9
$DIMUPT
 70
     0
  9
$DIMDEC
 70
     4
  9
$DIMTDEC
 70
     4
  9
$DIMALTU
 70
     2
  9
$DIMALTTD
 70
     3
  9
$DIMTXSTY
  7
Standard
  9
$DIMAUNIT
 70
     0
  9
$DIMADEC
 70
     0
  9
$DIMALTRND
 40
0.0
  9
$DIMAZIN
 70
     0
  9
$DIMDSEP
 70
    44
  9
$DIMATFIT
 70
     3
  9
$DIMFRAC
 70
     0
  9
$DIMLDRBLK
  1

  9
$DIMLUNIT
 70
     2
  9
$DIMLWD
 70
    -2
  9
$DIMLWE
 70
    -2
  9
$DIMTMOVE
 70
     0
  9
$LUNITS
 70
     2
  9
$LUPREC
 70
     4
  9
$SKETCHINC
 40
1.0
  9
$FILLETRAD
 40
0.0
  9
$AUNITS
 70
     0
  9
$AUPREC
 70
     0
  9
$MENU
  1
.
  9
$ELEVATION
 40
0.0
  9
$PELEVATION
 40
0.0
  9
$THICKNESS
 40
0.0
  9
$LIMCHECK
 70
     0
  9
$CHAMFERA
 40
0.0
  9
$CHAMFERB
 40
0.0
  9
$CHAMFERC
 40
0.0
  9
$CHAMFERD
 40
0.0
  9
$SKPOLY
 70
     0
  9
$TDCREATE
 40
2460419.711231273
  9
$TDUCREATE
 40
2460419.669564607
  9
$TDUPDATE
 40
2460419.711231586
  9
$TDUUPDATE
 40
2460419.669564919
  9
$TDINDWG
 40
0.0000000116
  9
$TDUSRTIMER
 40
0.0000000116
  9
$USRTIMER
 70
     1
  9
$ANGBASE
 50
0.0
  9
$ANGDIR
 70
     0
  9
$PDMODE
 70
     0
  9
$PDSIZE
 40
-1.0
  9
$PLINEWID
 40
0.0
  9
$SPLFRAME
 70
     0
  9
$SPLINETYPE
 70
     6
  9
$SPLINESEGS
 70
     8
  9
$HANDSEED
  5
CD
  9
$SURFTAB1
 70
     6
  9
$SURFTAB2
 70
     6
  9
$SURFTYPE
 70
     6
  9
$SURFU
 70
     6
  9
$SURFV
 70
     6
  9
$UCSBASE
  2

  9
$UCSNAME
  2

  9
$UCSORG
 10
0.0
 20
0.0
 30
0.0
  9
$UCSXDIR
 10
1.0
 20
0.0
 30
0.0
  9
$UCSYDIR
 10
0.0
 20
1.0
 30
0.0
  9
$UCSORTHOREF
  2

  9
$UCSORTHOVIEW
 70
     0
  9
$UCSORGTOP
 10
0.0
 20
0.0
 30
0.0
  9
$UCSORGBOTTOM
 10
0.0
 20
0.0
 30
0.0
  9
$UCSORGLEFT
 10
0.0
 20
0.0
 30
0.0
  9
$UCSORGRIGHT
 10
0.0
 20
0.0
 30
0.0
  9
$UCSORGFRONT
 10
0.0
 20
0.0
 30
0.0
  9
$UCSORGBACK
 10
0.0
 20
0.0
 30
0.0
  9
$PUCSBASE
  2

  9
$PUCSNAME
  2

  9
$PUCSORG
 10
0.0
 20
0.0
 30
0.0
  9
$PUCSXDIR
 10
1.0
 20
0.0
 30
0.0
  9
$PUCSYDIR
 10
0.0
 20
1.0
 30
0.0
  9
$PUCSORTHOREF
  2

  9
$PUCSORTHOVIEW
 70
     0
  9
$PUCSORGTOP
 10
0.0
 20
0.0
 30
0.0
  9
$PUCSORGBOTTOM
 10
0.0
 20
0.0
 30
0.0
  9
$PUCSORGLEFT
 10
0.0
 20
0.0
 30
0.0
  9
$PUCSORGRIGHT
 10
0.0
 20
0.0
 30
0.0
  9
$PUCSORGFRONT
 10
0.0
 20
0.0
 30
0.0
  9
$PUCSORGBACK
 10
0.0
 20
0.0
 30
0.0
  9
$USERI1
 70
     0
  9
$USERI2
 70
     0
  9
$USERI3
 70
     0
  9
$USERI4
 70
     0
  9
$USERI5
 70
     0
  9
$USERR1
 40
0.0
  9
$USERR2
 40
0.0
  9
$USERR3
 40
0.0
  9
$USERR4
 40
0.0
  9
$USERR5
 40
0.0
  9
$WORLDVIEW
 70
     1
  9
$SHADEDGE
 70
     3
  9
$SHADEDIF
 70
    70
  9
$TILEMODE
 70
     1
  9
$MAXACTVP
 70
    64
  9
$PINSBASE
 10
0.0
 20
0.0
 30
0.0
  9
$PLIMCHECK
 70
     0
  9
$PEXTMIN
 10
1.0000000000E+20
 20
1.0000000000E+20
 30
1.0000000000E+20
  9
$PEXTMAX
 10
-1.0000000000E+20
 20
-1.0000000000E+20
 30
-1.0000000000E+20
  9
$PLIMMIN
 10
0.0
 20
0.0
  9
$PLIMMAX
 10
420.0
 20
297.0
  9
$UNITMODE
 70
     0
  9
$VISRETAIN
 70
     1
  9
$PLINEGEN
 70
     0
  9
$PSLTSCALE
 70
     1
  9
$TREEDEPTH
 70
  3020
  9
$CMLSTYLE
  2
Standard
  9
$CMLJUST
 70
     0
  9
$CMLSCALE
 40
20.0
  9
$PROXYGRAPHICS
 70
     1
  9
$MEASUREMENT
 70
     1
  9
$CELWEIGHT
370
    -1
  9
$ENDCAPS
280
     0
  9
$JOINSTYLE
280
     0
  9
$LWDISPLAY
290
     1
  9
$INSUNITS
 70
     4
  9
$HYPERLINKBASE
  1

  9
$STYLESHEET
  1

  9
$XEDIT
290
     1
  9
$CEPSNTYPE
380
     0
  9
$PSTYLEMODE
290
     1
  9
$FINGERPRINTGUID
  2
{06dc66c2-08e8-49fc-9b15-a9da4eb4c2fc}
  9
$VERSIONGUID
  2
{FAEB1C32-E019-11D5-929B-00C0DF256EC4}
  9
$EXTNAMES
290
     1
  9
$PSVPSCALE
 40
0.0
  9
$OLESTARTUP
290
     0
  0
ENDSEC
  0
SECTION
  2
CLASSES
  0
CLASS
  1
ACDBDICTIONARYWDFLT
  2
AcDbDictionaryWithDefault
  3
ObjectDBX Classes
 90
        0
280
     0
281
     0
  0
CLASS
  1
VISUALSTYLE
  2
AcDbVisualStyle
  3
ObjectDBX Classes
 90
     4095
280
     0
281
     0
  0
CLASS
  1
MATERIAL
  2
AcDbMaterial
  3
ObjectDBX Classes
 90
     1153
280
     0
281
     0
  0
CLASS
  1
SCALE
  2
AcDbScale
  3
ObjectDBX Classes
 90
     1153
280
     0
281
     0
  0
CLASS
  1
TABLESTYLE
  2
AcDbTableStyle
  3
ObjectDBX Classes
 90
     4095
280
     0
281
     0
  0
CLASS
  1
MLEADERSTYLE
  2
AcDbMLeaderStyle
  3
ACDB_MLEADERSTYLE_CLASS
 90
     4095
280
     0
281
     0
  0
CLASS
  1
SUN
  2
AcDbSun
  3
SCENEOE
 90
     1153
280
     0
281
     0
  0
CLASS
  1
ACDBPLACEHOLDER
  2
AcDbPlaceHolder
  3
ObjectDBX Classes
 90
        0
280
     0
281
     0
  0
CLASS
  1
LAYOUT
  2
AcDbLayout
  3
ObjectDBX Classes
 90
        0
280
     0
281
     0
  0
ENDSEC
  0
SECTION
  2
TABLES
  0
TABLE
  2
VPORT
  5
8
330
0
100
AcDbSymbolTable
 70
     1
  0
VPORT
  5
29
330
8
100
AcDbSymbolTableRecord
100
AcDbViewportTableRecord
  2
*Active
 70
     0
 10
0.0
 20
0.0
 11
1.0
 21
1.0
 12
5.0
 22
5.0
 13
0.0
 23
0.0
 14
10.0
 24
10.0
 15
10.0
 25
10.0
 16
0.0
 26
0.0
 36
1.0
 17
0.0
 27
0.0
 37
0.0
 40
10.0
 41
1.0
 42
50.0
 43
0.0
 44
0.0
 50
0.0
 51
0.0
 71
     0
 72
  2000
 73
     1
 74
     3
 75
     0
 76
     0
 77
     0
 78
     0
281
     0
 65
     1
110
0.0
120
0.0
130
0.0
111
1.0
121
0.0
131
0.0
112
0.0
122
1.0
132
0.0
 79
     0
146
0.0
  0
ENDTAB
  0
TABLE
  2
LTYPE
  5
5
330
0
100
AcDbSymbolTable
 70
     6
  0
LTYPE
  5
14
330
5
100
AcDbSymbolTableRecord
100
AcDbLinetypeTableRecord
  2
ByBlock
 70
     0
  3

 72
    65
 73
     0
 40
0.0
  0
LTYPE
  5
15
330
5
100
AcDbSymbolTableRecord
100
AcDbLinetypeTableRecord
  2
ByLayer
 70
     0
  3

 72
    65
 73
     0
 40
0.0
  0
LTYPE
  5
16
330
5
100
AcDbSymbolTableRecord
100
AcDbLinetypeTableRecord
  2
Continuous
 70
     0
  3
Solid line
 72
    65
 73
     0
 40
0.0
  0
LTYPE
  5
5E
330
5
100
AcDbSymbolTableRecord
100
AcDbLinetypeTableRecord
  2
HIDDEN
 70
     0
  3
Hidden __ __ __ __ __ __ __ __ __ __ __ __ __ __
 72
    65
 73
     2
 40
1.905
 49
1.27
 74
     0
 49
-0.635
 74
     0
  0
LTYPE
  5
5F
330
5
100
AcDbSymbolTableRecord
100
AcDbLinetypeTableRecord
  2
PHANTOM
 70
     0
  3
Phantom ______  __  __  ______  __  __  ______
 72
    65
 73
     6
 40
12.7
 49
6.35
 74
     0
 49
-1.27
 74
     0
 49
1.27
 74
     0
 49
-1.27
 74
     0
 49
1.27
 74
     0
 49
-1.27
 74
     0
  0
LTYPE
  5
60
330
5
100
AcDbSymbolTableRecord
100
AcDbLinetypeTableRecord
  2
CENTER
 70
     0
  3
Center ____ _ ____ _ ____ _ ____ _ ____ _ ____
 72
    65
 73
     4
 40
10.16
 49
6.35
 74
     0
 49
-1.27
 74
     0
 49
1.27
 74
     0
 49
-1.27
 74
     0
  0
LTYPE
  5
61
330
5
100
AcDbSymbolTableRecord
100
AcDbLinetypeTableRecord
  2
CENTERX2
 70
     0
  3
Center (2x) ________  __  ________  __  _____
 72
    65
 73
     4
 40
20.32
 49
12.7
 74
     0
 49
-2.54
 74
     0
 49
2.54
 74
     0
 49
-2.54
 74
     0
  0
LTYPE
  5
62
330
5
100
AcDbSymbolTableRecord
100
AcDbLinetypeTableRecord
  2
DOT2
 70
     0
  3
Dot (.5x) ........................................
 72
    65
 73
     2
 40
0.635
 49
0.0
 74
     0
 49
-0.635
 74
     0
  0
ENDTAB
  0
TABLE
  2
LAYER
  5
2
330
0
100
AcDbSymbolTable
 70
     5
  0
LAYER
  5
10
330
2
100
AcDbSymbolTableRecord
100
AcDbLayerTableRecord
  2
0
 70
     0
 62
     7
  6
Continuous
370
    -3
390
F
  0
LAYER
  5
63
330
2
100
AcDbSymbolTableRecord
100
AcDbLayerTableRecord
  2
SLD-0
 70
     0
 62
   179
  6
Continuous
370
    -3
390
F
  0
LAYER
  5
64
330
2
100
AcDbSymbolTableRecord
100
AcDbLayerTableRecord
  2
SPUR_GEAR_(5_TEETH)_SKETCH1
 70
     0
 62
  -179
  6
Continuous
290
     0
370
    -3
390
F
  0
LAYER
  5
65
330
2
100
AcDbSymbolTableRecord
100
AcDbLayerTableRecord
  2
SPUR_GEAR_(5_TEETH)_SKETCH2
 70
     0
 62
  -179
  6
Continuous
290
     0
370
    -3
390
F
  0
LAYER
  5
66
330
2
100
AcDbSymbolTableRecord
100
AcDbLayerTableRecord
  2
SPUR_GEAR_(5_TEETH)_SKETCH3
 70
     0
 62
  -179
  6
Continuous
290
     0
370
    -3
390
F
  0
ENDTAB
  0
TABLE
  2
STYLE
  5
3
330
0
100
AcDbSymbolTable
 70
     2
  0
STYLE
  5
11
330
3
100
AcDbSymbolTableRecord
100
AcDbTextStyleTableRecord
  2
Standard
 70
     0
 40
0.0
 41
1.0
 50
0.0
 71
     0
 42
3.5
  3
txt
  4

  0
STYLE
  5
C9
330
3
100
AcDbSymbolTableRecord
100
AcDbTextStyleTableRecord
  2
SLDTEXTSTYLE0
 70
     0
 40
0.0
 41
0.7
 50
0.0
 71
     0
 42
3.5
  3
TXT
  4

  0
ENDTAB
  0
TABLE
  2
VIEW
  5
6
330
0
100
AcDbSymbolTable
 70
     0
  0
ENDTAB
  0
TABLE
  2
UCS
  5
7
330
0
100
AcDbSymbolTable
 70
     0
  0
ENDTAB
  0
TABLE
  2
APPID
  5
9
330
0
100
AcDbSymbolTable
 70
     1
  0
APPID
  5
12
330
9
100
AcDbSymbolTableRecord
100
AcDbRegAppTableRecord
  2
ACAD
 70
     0
  0
ENDTAB
  0
TABLE
  2
DIMSTYLE
  5
A
330
0
100
AcDbSymbolTable
 70
     1
100
AcDbDimStyleTable
  0
DIMSTYLE
105
27
330
A
100
AcDbSymbolTableRecord
100
AcDbDimStyleTableRecord
  2
ISO-25
 70
     0
 41
2.5
 42
0.625
 43
3.75
 44
1.25
 73
     0
 74
     0
 77
     1
 78
     8
140
2.5
141
2.5
143
0.0393700787
147
0.625
171
     3
172
     1
178
     0
271
     2
272
     2
274
     3
278
    44
283
     0
284
     8
340
11
  0
ENDTAB
  0
TABLE
  2
BLOCK_RECORD
  5
1
330
0
100
AcDbSymbolTable
 70
     2
  0
BLOCK_RECORD
  5
1F
330
1
100
AcDbSymbolTableRecord
100
AcDbBlockTableRecord
  2
*Model_Space
340
22
  0
BLOCK_RECORD
  5
1B
330
1
100
AcDbSymbolTableRecord
100
AcDbBlockTableRecord
  2
*Paper_Space
340
1E
  0
BLOCK_RECORD
  5
23
330
1
100
AcDbSymbolTableRecord
100
AcDbBlockTableRecord
  2
*Paper_Space0
340
26
  0
BLOCK_RECORD
  5
67
330
1
100
AcDbSymbolTableRecord
100
AcDbBlockTableRecord
  2
SPURGEAR(5TEETH)
340
0
102
{BLKREFS
331
C8
102
}
  0
ENDTAB
  0
ENDSEC
  0
SECTION
  2
BLOCKS
  0
BLOCK
  5
20
330
1F
100
AcDbEntity
  8
0
100
AcDbBlockBegin
  2
*Model_Space
 70
     0
 10
0.0
 20
0.0
 30
0.0
  3
*Model_Space
  1

  0
ENDBLK
  5
21
330
1F
100
AcDbEntity
  8
0
100
AcDbBlockEnd
  0
BLOCK
  5
1C
330
1B
100
AcDbEntity
 67
     1
  8
0
100
AcDbBlockBegin
  2
*Paper_Space
 70
     0
 10
0.0
 20
0.0
 30
0.0
  3
*Paper_Space
  1

  0
ENDBLK
  5
1D
330
1B
100
AcDbEntity
 67
     1
  8
0
100
AcDbBlockEnd
  0
BLOCK
  5
24
330
23
100
AcDbEntity
  8
0
100
AcDbBlockBegin
  2
*Paper_Space0
 70
     0
 10
0.0
 20
0.0
 30
0.0
  3
*Paper_Space0
  1

  0
ENDBLK
  5
25
330
23
100
AcDbEntity
  8
0
100
AcDbBlockEnd
  0
BLOCK
  5
68
330
67
100
AcDbEntity
  8
0
100
AcDbBlockBegin
  2
SPURGEAR(5TEETH)
 70
     0
 10
0.0
 20
0.0
 30
0.0
  3
SPURGEAR(5TEETH)
  1

  0
ARC
  5
6A
330
67
100
AcDbEntity
  8
SLD-0
370
    18
100
AcDbCircle
 10
0.5997035615
 20
-0.5350150532
 30
0.0
 40
0.1587499999999998
100
AcDbArc
 50
138.2628098982
 51
216.8209345926
  0
ARC
  5
6B
330
67
100
AcDbEntity
  8
SLD-0
370
    18
100
AcDbCircle
 10
0.5997035615
 20
-0.5350150532
 30
0.0
 40
0.1587499999999998
100
AcDbArc
 50
138.2628098982
 51
216.8209345926
  0
ARC
  5
6C
330
67
100
AcDbEntity
  8
SLD-0
370
    18
100
AcDbCircle
 10
-0.1706964148
 20
-0.7853331795
 30
0.0
 40
0.1587500000000004
100
AcDbArc
 50
359.1790654074
 51
77.7371901018
  0
ARC
  5
6D
330
67
100
AcDbEntity
  8
SLD-0
370
    18
100
AcDbCircle
 10
-0.1706964148
 20
-0.7853331795
 30
0.0
 40
0.1587500000000004
100
AcDbArc
 50
359.1790654074
 51
77.7371901018
  0
ARC
  5
6E
330
67
100
AcDbEntity
  8
SLD-0
370
    18
100
AcDbCircle
 10
-0.3235109606
 20
-0.7356807237
 30
0.0
 40
0.1587500000000006
100
AcDbArc
 50
66.2628098982
 51
144.8209345926
  0
ARC
  5
6F
330
67
100
AcDbEntity
  8
SLD-0
370
    18
100
AcDbCircle
 10
-0.3235109606
 20
-0.7356807237
 30
0.0
 40
0.1587500000000006
100
AcDbArc
 50
66.2628098982
 51
144.8209345926
  0
ARC
  5
70
330
67
100
AcDbEntity
  8
SLD-0
370
    18
100
AcDbCircle
 10
-0.7996443309
 20
-0.0803393611
 30
0.0
 40
0.1587499999999999
100
AcDbArc
 50
287.1790654074
 51
5.7371901018
  0
ARC
  5
71
330
67
100
AcDbEntity
  8
SLD-0
370
    18
100
AcDbCircle
 10
-0.7996443309
 20
-0.0803393611
 30
0.0
 40
0.1587499999999999
100
AcDbArc
 50
287.1790654074
 51
5.7371901018
  0
ARC
  5
72
330
67
100
AcDbEntity
  8
SLD-0
370
    18
100
AcDbCircle
 10
-0.7996443309
 20
0.0803393611
 30
0.0
 40
0.1587500000000004
100
AcDbArc
 50
354.2628098982
 51
72.8209345926
  0
ARC
  5
73
330
67
100
AcDbEntity
  8
SLD-0
370
    18
100
AcDbCircle
 10
-0.7996443309
 20
0.0803393611
 30
0.0
 40
0.1587500000000004
100
AcDbArc
 50
354.2628098982
 51
72.8209345926
  0
ARC
  5
74
330
67
100
AcDbEntity
  8
SLD-0
370
    18
100
AcDbCircle
 10
-0.3235109606
 20
0.7356807237
 30
0.0
 40
0.1587500000000006
100
AcDbArc
 50
215.1790654074
 51
293.7371901018
  0
ARC
  5
75
330
67
100
AcDbEntity
  8
SLD-0
370
    18
100
AcDbCircle
 10
-0.3235109606
 20
0.7356807237
 30
0.0
 40
0.1587500000000006
100
AcDbArc
 50
215.1790654074
 51
293.7371901018
  0
ARC
  5
76
330
67
100
AcDbEntity
  8
SLD-0
370
    18
100
AcDbCircle
 10
-0.1706964148
 20
0.7853331795
 30
0.0
 40
0.15875
100
AcDbArc
 50
282.2628098982
 51
0.8209345926
  0
ARC
  5
77
330
67
100
AcDbEntity
  8
SLD-0
370
    18
100
AcDbCircle
 10
-0.1706964148
 20
0.7853331795
 30
0.0
 40
0.15875
100
AcDbArc
 50
282.2628098982
 51
0.8209345926
  0
ARC
  5
78
330
67
100
AcDbEntity
  8
SLD-0
370
    18
100
AcDbCircle
 10
0.5997035615
 20
0.5350150532
 30
0.0
 40
0.1587500000000001
100
AcDbArc
 50
143.1790654074
 51
221.7371901018
  0
ARC
  5
79
330
67
100
AcDbEntity
  8
SLD-0
370
    18
100
AcDbCircle
 10
0.5997035615
 20
0.5350150532
 30
0.0
 40
0.1587500000000001
100
AcDbArc
 50
143.1790654074
 51
221.7371901018
  0
ARC
  5
7A
330
67
100
AcDbEntity
  8
SLD-0
100
AcDbCircle
 10
0.0
 20
0.0
 30
0.0
 40
1.749999999999913
100
AcDbArc
 50
284.5826580091
 51
291.4173419909
  0
ARC
  5
7B
330
67
100
AcDbEntity
  8
SLD-0
100
AcDbCircle
 10
0.0
 20
0.0
 30
0.0
 40
1.749999999999913
100
AcDbArc
 50
284.5826580091
 51
291.4173419909
  0
ARC
  5
7C
330
67
100
AcDbEntity
  8
SLD-0
100
AcDbCircle
 10
0.0
 20
0.0
 30
0.0
 40
1.749999999999977
100
AcDbArc
 50
212.5826580091
 51
219.4173419909
  0
ARC
  5
7D
330
67
100
AcDbEntity
  8
SLD-0
100
AcDbCircle
 10
0.0
 20
0.0
 30
0.0
 40
1.749999999999977
100
AcDbArc
 50
212.5826580091
 51
219.4173419909
  0
ARC
  5
7E
330
67
100
AcDbEntity
  8
SLD-0
100
AcDbCircle
 10
0.0
 20
0.0
 30
0.0
 40
1.750000000000073
100
AcDbArc
 50
140.5826580091
 51
147.4173419909
  0
ARC
  5
7F
330
67
100
AcDbEntity
  8
SLD-0
100
AcDbCircle
 10
0.0
 20
0.0
 30
0.0
 40
1.750000000000073
100
AcDbArc
 50
140.5826580091
 51
147.4173419909
  0
ARC
  5
80
330
67
100
AcDbEntity
  8
SLD-0
100
AcDbCircle
 10
0.0
 20
0.0
 30
0.0
 40
1.750000000000074
100
AcDbArc
 50
68.5826580091
 51
75.4173419909
  0
ARC
  5
81
330
67
100
AcDbEntity
  8
SLD-0
100
AcDbCircle
 10
0.0
 20
0.0
 30
0.0
 40
1.750000000000074
100
AcDbArc
 50
68.5826580091
 51
75.4173419909
  0
CIRCLE
  5
82
330
67
100
AcDbEntity
  8
SLD-0
100
AcDbCircle
 10
0.0
 20
0.0
 30
0.0
 40
0.399999999999974
  0
ARC
  5
83
330
67
100
AcDbEntity
  8
SLD-0
100
AcDbCircle
 10
0.0
 20
0.0
 30
0.0
 40
0.6449200000000342
100
AcDbArc
 50
174.2628098982
 51
185.7371901018
  0
ARC
  5
84
330
67
100
AcDbEntity
  8
SLD-0
100
AcDbCircle
 10
0.0
 20
0.0
 30
0.0
 40
0.6449200000000869
100
AcDbArc
 50
102.2628098982
 51
113.7371901018
  0
ARC
  5
85
330
67
100
AcDbEntity
  8
SLD-0
100
AcDbCircle
 10
0.0
 20
0.0
 30
0.0
 40
0.6449200000000361
100
AcDbArc
 50
30.2628098982
 51
41.7371901018
  0
ARC
  5
86
330
67
100
AcDbEntity
  8
SLD-0
100
AcDbCircle
 10
0.6941481448
 20
0.4050232364
 30
0.0
 40
0.15875
100
AcDbArc
 50
210.2628098982
 51
288.8209345926
  0
ARC
  5
87
330
67
100
AcDbEntity
  8
SLD-0
100
AcDbCircle
 10
0.0
 20
0.0
 30
0.0
 40
1.749999999999979
100
AcDbArc
 50
356.5826580091
 51
3.4173419909
  0
ARC
  5
88
330
67
100
AcDbEntity
  8
SLD-0
100
AcDbCircle
 10
0.6941481448
 20
-0.4050232364
 30
0.0
 40
0.1587500000000003
100
AcDbArc
 50
71.1790654074
 51
149.7371901018
  0
ARC
  5
89
330
67
100
AcDbEntity
  8
SLD-0
100
AcDbCircle
 10
0.0
 20
0.0
 30
0.0
 40
0.6449199999999357
100
AcDbArc
 50
318.2628098982
 51
329.7371901018
  0
ARC
  5
8A
330
67
100
AcDbEntity
  8
SLD-0
100
AcDbCircle
 10
0.0
 20
0.0
 30
0.0
 40
0.6449199999999343
100
AcDbArc
 50
246.2628098982
 51
257.7371901018
  0
ARC
  5
8B
330
67
100
AcDbEntity
  8
SLD-0
100
AcDbCircle
 10
0.0
 20
0.0
 30
0.0
 40
0.6449200000000361
100
AcDbArc
 50
30.2628098982
 51
41.7371901018
  0
ARC
  5
8C
330
67
100
AcDbEntity
  8
SLD-0
100
AcDbCircle
 10
0.0
 20
0.0
 30
0.0
 40
0.6449200000000869
100
AcDbArc
 50
102.2628098982
 51
113.7371901018
  0
ARC
  5
8D
330
67
100
AcDbEntity
  8
SLD-0
100
AcDbCircle
 10
0.0
 20
0.0
 30
0.0
 40
0.6449200000000342
100
AcDbArc
 50
174.2628098982
 51
185.7371901018
  0
ARC
  5
8E
330
67
100
AcDbEntity
  8
SLD-0
100
AcDbCircle
 10
0.0
 20
0.0
 30
0.0
 40
0.6449199999999343
100
AcDbArc
 50
246.2628098982
 51
257.7371901018
  0
ARC
  5
8F
330
67
100
AcDbEntity
  8
SLD-0
100
AcDbCircle
 10
0.6941481448
 20
0.4050232364
 30
0.0
 40
0.15875
100
AcDbArc
 50
210.2628098982
 51
288.8209345926
  0
ARC
  5
90
330
67
100
AcDbEntity
  8
SLD-0
100
AcDbCircle
 10
0.6941481448
 20
-0.4050232364
 30
0.0
 40
0.1587500000000003
100
AcDbArc
 50
71.1790654074
 51
149.7371901018
  0
ARC
  5
91
330
67
100
AcDbEntity
  8
SLD-0
100
AcDbCircle
 10
0.0
 20
0.0
 30
0.0
 40
1.749999999999979
100
AcDbArc
 50
356.5826580091
 51
3.4173419909
  0
ARC
  5
92
330
67
100
AcDbEntity
  8
SLD-0
100
AcDbCircle
 10
0.0
 20
0.0
 30
0.0
 40
0.6449199999999357
100
AcDbArc
 50
318.2628098982
 51
329.7371901018
  0
CIRCLE
  5
93
330
67
100
AcDbEntity
  8
SLD-0
100
AcDbCircle
 10
0.0
 20
0.0
 30
0.0
 40
0.399999999999974
  0
CIRCLE
  5
94
330
67
100
AcDbEntity
  8
SPUR_GEAR_(5_TEETH)_SKETCH1
100
AcDbCircle
 10
0.0
 20
0.0
 30
0.0
 40
0.399999999999974
  0
CIRCLE
  5
95
330
67
100
AcDbEntity
  8
SPUR_GEAR_(5_TEETH)_SKETCH1
100
AcDbCircle
 10
0.0
 20
0.0
 30
0.0
 40
0.6449199999999742
  0
ARC
  5
96
330
67
100
AcDbEntity
  8
SPUR_GEAR_(5_TEETH)_SKETCH2
100
AcDbCircle
 10
0.0
 20
0.0
 30
0.0
 40
1.749999999999979
100
AcDbArc
 50
356.5826580091
 51
3.4173419909
  0
CIRCLE
  5
97
330
67
100
AcDbEntity
  8
SPUR_GEAR_(5_TEETH)_SKETCH3
100
AcDbCircle
 10
0.0
 20
0.0
 30
0.0
 40
1.249999999999974
  0
LINE
  5
98
330
67
100
AcDbEntity
  8
SLD-0
370
    18
100
AcDbLine
 10
0.7045080213
 20
-0.9398886472
 30
0.0
 11
0.4726222105
 21
-0.6301564885
 31
0.0
  0
LINE
  5
99
330
67
100
AcDbEntity
  8
SLD-0
370
    18
100
AcDbLine
 10
0.4726222105
 20
-0.6301564885
 30
0.0
 11
0.7045080213
 21
-0.9398886472
 31
0.0
  0
LINE
  5
9A
330
67
100
AcDbEntity
  8
SLD-0
370
    18
100
AcDbLine
 10
-0.0119627096
 20
-0.7876076735
 30
0.0
 11
-0.0175062763
 21
-1.1744853134
 31
0.0
  0
LINE
  5
9B
330
67
100
AcDbEntity
  8
SLD-0
370
    18
100
AcDbLine
 10
-0.0119627096
 20
-0.7876076735
 30
0.0
 11
-0.0175062763
 21
-1.1744853134
 31
0.0
  0
LINE
  5
9C
330
67
100
AcDbEntity
  8
SLD-0
370
    18
100
AcDbLine
 10
-0.6761822713
 20
-0.9604685092
 30
0.0
 11
-0.4532661397
 21
-0.6442194971
 31
0.0
  0
LINE
  5
9D
330
67
100
AcDbEntity
  8
SLD-0
370
    18
100
AcDbLine
 10
-0.4532661397
 20
-0.6442194971
 30
0.0
 11
-0.6761822713
 21
-0.9604685092
 31
0.0
  0
LINE
  5
9E
330
67
100
AcDbEntity
  8
SLD-0
370
    18
100
AcDbLine
 10
-0.7527560908
 20
-0.2320069431
 30
0.0
 11
-1.1224116475
 21
-0.3462864634
 31
0.0
  0
LINE
  5
9F
330
67
100
AcDbEntity
  8
SLD-0
370
    18
100
AcDbLine
 10
-0.7527560908
 20
-0.2320069431
 30
0.0
 11
-1.1224116475
 21
-0.3462864634
 31
0.0
  0
LINE
  5
A0
330
67
100
AcDbEntity
  8
SLD-0
370
    18
100
AcDbLine
 10
-1.1224116475
 20
0.3462864634
 30
0.0
 11
-0.7527560908
 21
0.2320069431
 31
0.0
  0
LINE
  5
A1
330
67
100
AcDbEntity
  8
SLD-0
370
    18
100
AcDbLine
 10
-0.7527560908
 20
0.2320069431
 30
0.0
 11
-1.1224116475
 21
0.3462864634
 31
0.0
  0
LINE
  5
A2
330
67
100
AcDbEntity
  8
SLD-0
370
    18
100
AcDbLine
 10
-0.4532661397
 20
0.6442194971
 30
0.0
 11
-0.6761822713
 21
0.9604685092
 31
0.0
  0
LINE
  5
A3
330
67
100
AcDbEntity
  8
SLD-0
370
    18
100
AcDbLine
 10
-0.4532661397
 20
0.6442194971
 30
0.0
 11
-0.6761822713
 21
0.9604685092
 31
0.0
  0
LINE
  5
A4
330
67
100
AcDbEntity
  8
SLD-0
370
    18
100
AcDbLine
 10
-0.0175062763
 20
1.1744853134
 30
0.0
 11
-0.0119627096
 21
0.7876076735
 31
0.0
  0
LINE
  5
A5
330
67
100
AcDbEntity
  8
SLD-0
370
    18
100
AcDbLine
 10
-0.0119627096
 20
0.7876076735
 30
0.0
 11
-0.0175062763
 21
1.1744853134
 31
0.0
  0
LINE
  5
A6
330
67
100
AcDbEntity
  8
SLD-0
370
    18
100
AcDbLine
 10
0.4726222105
 20
0.6301564885
 30
0.0
 11
0.7045080213
 21
0.9398886472
 31
0.0
  0
LINE
  5
A7
330
67
100
AcDbEntity
  8
SLD-0
370
    18
100
AcDbLine
 10
0.4726222105
 20
0.6301564885
 30
0.0
 11
0.7045080213
 21
0.9398886472
 31
0.0
  0
LINE
  5
A8
330
67
100
AcDbEntity
  8
SLD-0
100
AcDbLine
 10
0.7453627296
 20
0.2547613689
 30
0.0
 11
1.1115921738
 21
0.3795853796
 31
0.0
  0
LINE
  5
A9
330
67
100
AcDbEntity
  8
SLD-0
100
AcDbLine
 10
0.7453627296
 20
-0.2547613689
 30
0.0
 11
1.1115921738
 21
-0.3795853796
 31
0.0
  0
LINE
  5
AA
330
67
100
AcDbEntity
  8
SLD-0
100
AcDbLine
 10
1.1115921738
 20
0.3795853796
 30
0.0
 11
0.7453627296
 21
0.2547613689
 31
0.0
  0
LINE
  5
AB
330
67
100
AcDbEntity
  8
SLD-0
100
AcDbLine
 10
0.7453627296
 20
-0.2547613689
 30
0.0
 11
1.1115921738
 21
-0.3795853796
 31
0.0
  0
LINE
  5
AC
330
67
100
AcDbEntity
  8
SPUR_GEAR_(5_TEETH)_SKETCH2
100
AcDbLine
 10
0.6093706956
 20
-0.2084104505
 30
0.0
 11
0.6093706956
 21
0.2084104505
 31
0.0
  0
LINE
  5
AD
330
67
100
AcDbEntity
  8
SPUR_GEAR_(5_TEETH)_SKETCH2
100
AcDbLine
 10
0.6093706956
 20
-0.2084104505
 30
0.0
 11
1.1115921738
 21
-0.3795853796
 31
0.0
  0
LINE
  5
AE
330
67
100
AcDbEntity
  8
SPUR_GEAR_(5_TEETH)_SKETCH2
100
AcDbLine
 10
0.6093706956
 20
0.2084104505
 30
0.0
 11
1.1115921738
 21
0.3795853796
 31
0.0
  0
POINT
  5
AF
330
67
100
AcDbEntity
  8
SPUR_GEAR_(5_TEETH)_SKETCH1
100
AcDbPoint
 10
0.0
 20
0.0
 30
0.0
  0
POINT
  5
B0
330
67
100
AcDbEntity
  8
SPUR_GEAR_(5_TEETH)_SKETCH2
100
AcDbPoint
 10
0.0
 20
0.0
 30
0.0
  0
POINT
  5
B1
330
67
100
AcDbEntity
  8
SPUR_GEAR_(5_TEETH)_SKETCH3
100
AcDbPoint
 10
0.0
 20
0.0
 30
0.0
  0
SPLINE
  5
B2
330
67
100
AcDbEntity
  8
SLD-0
  6
Continuous
100
AcDbSpline
210
0.0
220
0.0
230
1.0
 70
    12
 71
     5
 72
    28
 73
    22
 74
     0
 42
0.00000001
 43
0.00000001
 40
0.0
 40
0.0
 40
0.0
 40
0.0
 40
0.0
 40
0.0
 40
0.0571428571428571
 40
0.0714285714285714
 40
0.1285714285714286
 40
0.1571428571428572
 40
0.2
 40
0.2714285714285715
 40
0.3285714285714286
 40
0.3857142857142858
 40
0.4285714285714287
 40
0.4857142857142858
 40
0.557142857142857
 40
0.6428571428571425
 40
0.7142857142857136
 40
0.799999999999999
 40
0.8714285714285702
 40
0.9428571428571414
 40
1.0
 40
1.0
 40
1.0
 40
1.0
 40
1.0
 40
1.0
 10
0.7045080212766452
 20
-0.9398886472043211
 30
0.0
 41
1.0
 10
0.7088301432292348
 20
-0.9456617480155343
 30
0.0
 41
1.0
 10
0.7135029388030089
 20
-0.9533166255566169
 30
0.0
 41
1.0
 10
0.7202691079009464
 20
-0.9680835738326354
 30
0.0
 41
1.0
 10
0.7268843883745448
 20
-0.9871513689951112
 30
0.0
 41
1.0
 10
0.7351348139288832
 20
-1.011522845794413
 30
0.0
 41
1.0
 10
0.7423980618083501
 20
-1.03846123789343
 30
0.0
 41
1.0
 10
0.748296935175093
 20
-1.072180626519516
 30
0.0
 41
1.0
 10
0.7529891241052646
 20
-1.106324060140845
 30
0.0
 41
1.0
 10
0.7554239864047754
 20
-1.143363411942958
 30
0.0
 41
1.0
 10
0.755917510084767
 20
-1.182986750732434
 30
0.0
 41
1.0
 10
0.7545251060276403
 20
-1.223105702224454
 30
0.0
 41
1.0
 10
0.75069762693827
 20
-1.267787599694312
 30
0.0
 41
1.0
 10
0.7442441893984026
 20
-1.314920438215752
 30
0.0
 41
1.0
 10
0.7337903795364394
 20
-1.368639389898591
 30
0.0
 41
1.0
 10
0.7195619315217231
 20
-1.424644052928188
 30
0.0
 41
1.0
 10
0.7019515310315
 20
-1.48073078732406
 30
0.0
 41
1.0
 10
0.6827927254990634
 20
-1.532539111441868
 30
0.0
 41
1.0
 10
0.6653031167035328
 20
-1.573818302927914
 30
0.0
 41
1.0
 10
0.6520387914287054
 20
-1.602559717046556
 30
0.0
 41
1.0
 10
0.6430887057999688
 20
-1.620979388243868
 30
0.0
 41
1.0
 10
0.6390275058821079
 20
-1.629154334839426
 30
0.0
 41
1.0
  0
SPLINE
  5
B3
330
67
100
AcDbEntity
  8
SLD-0
  6
Continuous
100
AcDbSpline
210
0.0
220
0.0
230
1.0
 70
    12
 71
     5
 72
    25
 73
    19
 74
     0
 42
0.00000001
 43
0.00000001
 40
-1.0
 40
-1.0
 40
-1.0
 40
-1.0
 40
-1.0
 40
-1.0
 40
-0.799999999999999
 40
-0.7285714285714279
 40
-0.6428571428571425
 40
-0.5142857142857143
 40
-0.4714285714285715
 40
-0.4000000000000001
 40
-0.3428571428571429
 40
-0.2714285714285715
 40
-0.2
 40
-0.1428571428571429
 40
-0.1285714285714286
 40
-0.0714285714285714
 40
-0.0571428571428571
 40
0.0
 40
0.0
 40
0.0
 40
0.0
 40
0.0
 40
0.0
 10
0.6390275058821079
 20
-1.629154334839426
 30
0.0
 41
1.0
 10
0.6532417055946215
 20
-1.600542021754977
 30
0.0
 41
1.0
 10
0.6711461448267871
 20
-1.561518608730355
 30
0.0
 41
1.0
 10
0.6922277264458725
 20
-1.509790182100543
 30
0.0
 41
1.0
 10
0.7162754422661176
 20
-1.439186138775308
 30
0.0
 41
1.0
 10
0.735403491235108
 20
-1.362394122890735
 30
0.0
 41
1.0
 10
0.7461432446751264
 20
-1.304605625931365
 30
0.0
 41
1.0
 10
0.7527802037061689
 20
-1.249401390263255
 30
0.0
 41
1.0
 10
0.755820565374398
 20
-1.196925569433758
 30
0.0
 41
1.0
 10
0.7559193005819463
 20
-1.153166949249023
 30
0.0
 41
1.0
 10
0.7533658575992956
 20
-1.108175861082902
 30
0.0
 41
1.0
 10
0.7483602786881177
 20
-1.072157223114589
 30
0.0
 41
1.0
 10
0.7420356410398554
 20
-1.036601694050946
 30
0.0
 41
1.0
 10
0.7345483867928804
 20
-1.009780255936908
 30
0.0
 41
1.0
 10
0.7262858627837511
 20
-0.9854162750853553
 30
0.0
 41
1.0
 10
0.7202669278344934
 20
-0.9680848316989943
 30
0.0
 41
1.0
 10
0.713502938803008
 20
-0.953316625556617
 30
0.0
 41
1.0
 10
0.708830143229235
 20
-0.9456617480155345
 30
0.0
 41
1.0
 10
0.7045080212766452
 20
-0.9398886472043211
 30
0.0
 41
1.0
  0
SPLINE
  5
B4
330
67
100
AcDbEntity
  8
SLD-0
  6
Continuous
100
AcDbSpline
210
0.0
220
0.0
230
1.0
 70
    12
 71
     5
 72
    28
 73
    22
 74
     0
 42
0.00000001
 43
0.00000001
 40
0.0
 40
0.0
 40
0.0
 40
0.0
 40
0.0
 40
0.0
 40
0.0571428571428571
 40
0.0714285714285714
 40
0.1285714285714286
 40
0.1571428571428572
 40
0.2
 40
0.2714285714285715
 40
0.3285714285714286
 40
0.3857142857142858
 40
0.4285714285714287
 40
0.4857142857142858
 40
0.557142857142857
 40
0.6428571428571425
 40
0.7142857142857136
 40
0.799999999999999
 40
0.8714285714285702
 40
0.9428571428571414
 40
1.0
 40
1.0
 40
1.0
 40
1.0
 40
1.0
 40
1.0
 10
-0.0175062762624504
 20
-1.174485313436539
 30
0.0
 41
1.0
 10
-0.0176096028570275
 20
-1.181696329645392
 30
0.0
 41
1.0
 10
-0.0168905497606959
 20
-1.190635855991225
 30
0.0
 41
1.0
 10
-0.0136847011297351
 20
-1.206559622511872
 30
0.0
 41
1.0
 10
-0.0078288066651934
 20
-1.225874157145727
 30
0.0
 41
1.0
 10
-0.0001783465102629
 20
-1.25044057452036
 30
0.0
 41
1.0
 10
0.0097795521171655
 20
-1.276503421516891
 30
0.0
 41
1.0
 10
0.0248270226665357
 20
-1.307250250725447
 30
0.0
 41
1.0
 10
0.041099968826454
 20
-1.337630868225532
 30
0.0
 41
1.0
 10
0.0609013085909403
 20
-1.369027509445097
 30
0.0
 41
1.0
 10
0.0837920537337444
 20
-1.401373549840412
 30
0.0
 41
1.0
 10
0.1084998603034431
 20
-1.433012028823947
 30
0.0
 41
1.0
 10
0.137859716309583
 20
-1.466910707455795
 30
0.0
 41
1.0
 10
0.1707846443330582
 20
-1.50124873940024
 30
0.0
 41
1.0
 10
0.2108171617351408
 20
-1.538563688964536
 30
0.0
 41
1.0
 10
0.2552469329710286
 20
-1.57550914121366
 30
0.0
 41
1.0
 10
0.3024610015725129
 20
-1.610533128803803
 30
0.0
 41
1.0
 10
0.3484129697026092
 20
-1.641185680121685
 30
0.0
 41
1.0
 10
0.3868256604252183
 20
-1.664301113429579
 30
0.0
 41
1.0
 10
0.4144505043404399
 20
-1.679756831115781
 30
0.0
 41
1.0
 10
0.4325180867970554
 20
-1.689397929805869
 30
0.0
 41
1.0
 10
0.4406087795953061
 20
-1.693624487111454
 30
0.0
 41
1.0
  0
SPLINE
  5
B5
330
67
100
AcDbEntity
  8
SLD-0
  6
Continuous
100
AcDbSpline
210
0.0
220
0.0
230
1.0
 70
    12
 71
     5
 72
    28
 73
    22
 74
     0
 42
0.00000001
 43
0.00000001
 40
0.0
 40
0.0
 40
0.0
 40
0.0
 40
0.0
 40
0.0
 40
0.0571428571428571
 40
0.0714285714285714
 40
0.1285714285714286
 40
0.1571428571428572
 40
0.2
 40
0.2714285714285715
 40
0.3285714285714286
 40
0.3857142857142858
 40
0.4285714285714287
 40
0.4857142857142858
 40
0.557142857142857
 40
0.6428571428571425
 40
0.7142857142857136
 40
0.799999999999999
 40
0.8714285714285702
 40
0.9428571428571414
 40
1.0
 40
1.0
 40
1.0
 40
1.0
 40
1.0
 40
1.0
 10
-0.0175062762624504
 20
-1.174485313436539
 30
0.0
 41
1.0
 10
-0.0176096028570275
 20
-1.181696329645392
 30
0.0
 41
1.0
 10
-0.0168905497606959
 20
-1.190635855991225
 30
0.0
 41
1.0
 10
-0.0136847011297351
 20
-1.206559622511872
 30
0.0
 41
1.0
 10
-0.0078288066651934
 20
-1.225874157145727
 30
0.0
 41
1.0
 10
-0.0001783465102629
 20
-1.25044057452036
 30
0.0
 41
1.0
 10
0.0097795521171655
 20
-1.276503421516891
 30
0.0
 41
1.0
 10
0.0248270226665357
 20
-1.307250250725447
 30
0.0
 41
1.0
 10
0.041099968826454
 20
-1.337630868225532
 30
0.0
 41
1.0
 10
0.0609013085909403
 20
-1.369027509445097
 30
0.0
 41
1.0
 10
0.0837920537337444
 20
-1.401373549840412
 30
0.0
 41
1.0
 10
0.1084998603034431
 20
-1.433012028823947
 30
0.0
 41
1.0
 10
0.137859716309583
 20
-1.466910707455795
 30
0.0
 41
1.0
 10
0.1707846443330582
 20
-1.50124873940024
 30
0.0
 41
1.0
 10
0.2108171617351408
 20
-1.538563688964536
 30
0.0
 41
1.0
 10
0.2552469329710286
 20
-1.57550914121366
 30
0.0
 41
1.0
 10
0.3024610015725129
 20
-1.610533128803803
 30
0.0
 41
1.0
 10
0.3484129697026092
 20
-1.641185680121685
 30
0.0
 41
1.0
 10
0.3868256604252183
 20
-1.664301113429579
 30
0.0
 41
1.0
 10
0.4144505043404399
 20
-1.679756831115781
 30
0.0
 41
1.0
 10
0.4325180867970554
 20
-1.689397929805869
 30
0.0
 41
1.0
 10
0.4406087795953061
 20
-1.693624487111454
 30
0.0
 41
1.0
  0
SPLINE
  5
B6
330
67
100
AcDbEntity
  8
SLD-0
  6
Continuous
100
AcDbSpline
210
0.0
220
0.0
230
1.0
 70
    12
 71
     5
 72
    28
 73
    22
 74
     0
 42
0.00000001
 43
0.00000001
 40
0.0
 40
0.0
 40
0.0
 40
0.0
 40
0.0
 40
0.0
 40
0.0571428571428571
 40
0.0714285714285714
 40
0.1285714285714286
 40
0.1571428571428572
 40
0.2
 40
0.2714285714285715
 40
0.3285714285714286
 40
0.3857142857142858
 40
0.4285714285714287
 40
0.4857142857142858
 40
0.557142857142857
 40
0.6428571428571425
 40
0.7142857142857136
 40
0.799999999999999
 40
0.8714285714285702
 40
0.9428571428571414
 40
1.0
 40
1.0
 40
1.0
 40
1.0
 40
1.0
 40
1.0
 10
-0.6761822712675556
 20
-0.9604685092235731
 30
0.0
 41
1.0
 10
-0.6803372072781779
 20
-0.9663630777317098
 30
0.0
 41
1.0
 10
-0.6861734552015304
 20
-0.9731726576615197
 30
0.0
 41
1.0
 10
-0.698126796347153
 20
-0.9841709048448091
 30
0.0
 41
1.0
 10
-0.7142171130989083
 20
-0.996354683196813
 30
0.0
 41
1.0
 10
-0.7348462432135046
 20
-1.011732504691474
 30
0.0
 41
1.0
 10
-0.7582217095286757
 20
-1.026964684876439
 30
0.0
 41
1.0
 10
-0.7884679016890129
 20
-1.042994710956074
 30
0.0
 41
1.0
 10
-0.8194902706030287
 20
-1.058008149049106
 30
0.0
 41
1.0
 10
-0.8539643736642669
 20
-1.071769629872823
 30
0.0
 41
1.0
 10
-0.8914959010131226
 20
-1.084483283844447
 30
0.0
 41
1.0
 10
-0.9300815677732277
 20
-1.095556466700139
 30
0.0
 41
1.0
 10
-0.9737593336065961
 20
-1.105723783430317
 30
0.0
 41
1.0
 10
-1.020579548685855
 20
-1.114151047701781
 30
0.0
 41
1.0
 10
-1.074899712635682
 20
-1.120808952702449
 30
0.0
 41
1.0
 10
-1.132560144593014
 20
-1.124583287141671
 30
0.0
 41
1.0
 10
-1.191343711847162
 20
-1.125166555088201
 30
0.0
 41
1.0
 10
-1.246536752599172
 20
-1.12295510084463
 30
0.0
 41
1.0
 10
-1.291200182992162
 20
-1.119077466115434
 30
0.0
 41
1.0
 10
-1.32263379410608
 20
-1.115343928533585
 30
0.0
 41
1.0
 10
-1.342917670986681
 20
-1.112523882705738
 30
0.0
 41
1.0
 10
-1.351947487008925
 20
-1.111187649486015
 30
0.0
 41
1.0
  0
SPLINE
  5
B7
330
67
100
AcDbEntity
  8
SLD-0
  6
Continuous
100
AcDbSpline
210
0.0
220
0.0
230
1.0
 70
    12
 71
     5
 72
    25
 73
    19
 74
     0
 42
0.00000001
 43
0.00000001
 40
-1.0
 40
-1.0
 40
-1.0
 40
-1.0
 40
-1.0
 40
-1.0
 40
-0.799999999999999
 40
-0.7285714285714279
 40
-0.6428571428571425
 40
-0.5142857142857143
 40
-0.4714285714285715
 40
-0.4000000000000001
 40
-0.3428571428571429
 40
-0.2714285714285715
 40
-0.2
 40
-0.1428571428571429
 40
-0.1285714285714286
 40
-0.0714285714285714
 40
-0.0571428571428571
 40
0.0
 40
0.0
 40
0.0
 40
0.0
 40
0.0
 40
0.0
 10
-1.351947487008925
 20
-1.111187649486015
 30
0.0
 41
1.0
 10
-1.320343130931071
 20
-1.115864465755043
 30
0.0
 41
1.0
 10
-1.277696883688565
 20
-1.120833701554421
 30
0.0
 41
1.0
 10
-1.221985659475773
 20
-1.124898514205924
 30
0.0
 41
1.0
 10
-1.147406071130341
 20
-1.125951401779925
 30
0.0
 41
1.0
 10
-1.068461631823086
 20
-1.120413219455077
 30
0.0
 41
1.0
 10
-1.010182738894683
 20
-1.112769704307871
 30
0.0
 41
1.0
 10
-0.9556294577038469
 20
-1.102022780459765
 30
0.0
 41
1.0
 10
-0.9047824629314961
 20
-1.088698415806159
 30
0.0
 41
1.0
 10
-0.863135031203634
 20
-1.075270161281184
 30
0.0
 41
1.0
 10
-0.8211350209038516
 20
-1.058938681854818
 30
0.0
 41
1.0
 10
-0.7884260695062437
 20
-1.043047722167051
 30
0.0
 41
1.0
 10
-0.7565651724165239
 20
-1.026045371593808
 30
0.0
 41
1.0
 10
-0.733370157725282
 20
-1.010636289462251
 30
0.0
 41
1.0
 10
-0.712751895308775
 20
-0.9952492780285671
 30
0.0
 41
1.0
 10
-0.6981286663267325
 20
-0.9841692201804865
 30
0.0
 41
1.0
 10
-0.6861734552015301
 20
-0.9731726576615203
 30
0.0
 41
1.0
 10
-0.6803372072781781
 20
-0.9663630777317096
 30
0.0
 41
1.0
 10
-0.6761822712675556
 20
-0.9604685092235731
 30
0.0
 41
1.0
  0
SPLINE
  5
B8
330
67
100
AcDbEntity
  8
SLD-0
  6
Continuous
100
AcDbSpline
210
0.0
220
0.0
230
1.0
 70
    12
 71
     5
 72
    28
 73
    22
 74
     0
 42
0.00000001
 43
0.00000001
 40
0.0
 40
0.0
 40
0.0
 40
0.0
 40
0.0
 40
0.0
 40
0.0571428571428571
 40
0.0714285714285714
 40
0.1285714285714286
 40
0.1571428571428572
 40
0.2
 40
0.2714285714285715
 40
0.3285714285714286
 40
0.3857142857142858
 40
0.4285714285714287
 40
0.4857142857142858
 40
0.557142857142857
 40
0.6428571428571425
 40
0.7142857142857136
 40
0.799999999999999
 40
0.8714285714285702
 40
0.9428571428571414
 40
1.0
 40
1.0
 40
1.0
 40
1.0
 40
1.0
 40
1.0
 10
-1.122411647510096
 20
-0.3462864633802109
 30
0.0
 41
1.0
 10
-1.129301661138332
 20
-0.3484165205043813
 30
0.0
 41
1.0
 10
-1.137581456295504
 20
-0.3518628461997318
 30
0.0
 41
1.0
 10
-1.151735196500566
 20
-0.3598325038998041
 30
0.0
 41
1.0
 10
-1.168294839616495
 20
-0.3713703099293476
 30
0.0
 41
1.0
 10
-1.189294768740003
 20
-0.3862377703720202
 30
0.0
 41
1.0
 10
-1.211004849305121
 20
-0.403762157393966
 30
0.0
 41
1.0
 10
-1.235596897457216
 20
-0.4275744450622905
 30
0.0
 41
1.0
 10
-1.259461964787781
 20
-0.4524390636541307
 30
0.0
 41
1.0
 10
-1.283202994510809
 20
-0.4809733525716606
 30
0.0
 41
1.0
 10
-1.306892277742089
 20
-0.5127392210854667
 30
0.0
 41
1.0
 10
-1.329347127221283
 20
-0.5460145692090242
 30
0.0
 41
1.0
 10
-1.352513991969596
 20
-0.584412719365249
 30
0.0
 41
1.0
 10
-1.374997038709289
 20
-0.626337222134744
 30
0.0
 41
1.0
 10
-1.398114936442783
 20
-0.6759413622333087
 30
0.0
 41
1.0
 10
-1.419522595183704
 20
-0.7296133582945459
 30
0.0
 41
1.0
 10
-1.438242437236502
 20
-0.7853396132749291
 30
0.0
 41
1.0
 10
-1.453194806831273
 20
-0.8385146912798184
 30
0.0
 41
1.0
 10
-1.463308716072774
 20
-0.8821903928244655
 30
0.0
 41
1.0
 10
-1.469471430855495
 20
-0.9132392600669781
 30
0.0
 41
1.0
 10
-1.473057470562586
 20
-0.9334018154357198
 30
0.0
 41
1.0
 10
-1.474577003858631
 20
-0.9424025995779647
 30
0.0
 41
1.0
  0
SPLINE
  5
B9
330
67
100
AcDbEntity
  8
SLD-0
  6
Continuous
100
AcDbSpline
210
0.0
220
0.0
230
1.0
 70
    12
 71
     5
 72
    28
 73
    22
 74
     0
 42
0.00000001
 43
0.00000001
 40
0.0
 40
0.0
 40
0.0
 40
0.0
 40
0.0
 40
0.0
 40
0.0571428571428571
 40
0.0714285714285714
 40
0.1285714285714286
 40
0.1571428571428572
 40
0.2
 40
0.2714285714285715
 40
0.3285714285714286
 40
0.3857142857142858
 40
0.4285714285714287
 40
0.4857142857142858
 40
0.557142857142857
 40
0.6428571428571425
 40
0.7142857142857136
 40
0.799999999999999
 40
0.8714285714285702
 40
0.9428571428571414
 40
1.0
 40
1.0
 40
1.0
 40
1.0
 40
1.0
 40
1.0
 10
-1.122411647510096
 20
-0.3462864633802109
 30
0.0
 41
1.0
 10
-1.129301661138332
 20
-0.3484165205043813
 30
0.0
 41
1.0
 10
-1.137581456295504
 20
-0.3518628461997318
 30
0.0
 41
1.0
 10
-1.151735196500566
 20
-0.3598325038998041
 30
0.0
 41
1.0
 10
-1.168294839616495
 20
-0.3713703099293476
 30
0.0
 41
1.0
 10
-1.189294768740003
 20
-0.3862377703720202
 30
0.0
 41
1.0
 10
-1.211004849305121
 20
-0.403762157393966
 30
0.0
 41
1.0
 10
-1.235596897457216
 20
-0.4275744450622905
 30
0.0
 41
1.0
 10
-1.259461964787781
 20
-0.4524390636541307
 30
0.0
 41
1.0
 10
-1.283202994510809
 20
-0.4809733525716606
 30
0.0
 41
1.0
 10
-1.306892277742089
 20
-0.5127392210854667
 30
0.0
 41
1.0
 10
-1.329347127221283
 20
-0.5460145692090242
 30
0.0
 41
1.0
 10
-1.352513991969596
 20
-0.584412719365249
 30
0.0
 41
1.0
 10
-1.374997038709289
 20
-0.626337222134744
 30
0.0
 41
1.0
 10
-1.398114936442783
 20
-0.6759413622333087
 30
0.0
 41
1.0
 10
-1.419522595183704
 20
-0.7296133582945459
 30
0.0
 41
1.0
 10
-1.438242437236502
 20
-0.7853396132749291
 30
0.0
 41
1.0
 10
-1.453194806831273
 20
-0.8385146912798184
 30
0.0
 41
1.0
 10
-1.463308716072774
 20
-0.8821903928244655
 30
0.0
 41
1.0
 10
-1.469471430855495
 20
-0.9132392600669781
 30
0.0
 41
1.0
 10
-1.473057470562586
 20
-0.9334018154357198
 30
0.0
 41
1.0
 10
-1.474577003858631
 20
-0.9424025995779647
 30
0.0
 41
1.0
  0
SPLINE
  5
BA
330
67
100
AcDbEntity
  8
SLD-0
  6
Continuous
100
AcDbSpline
210
0.0
220
0.0
230
1.0
 70
    12
 71
     5
 72
    28
 73
    22
 74
     0
 42
0.00000001
 43
0.00000001
 40
0.0
 40
0.0
 40
0.0
 40
0.0
 40
0.0
 40
0.0
 40
0.0571428571428571
 40
0.0714285714285714
 40
0.1285714285714286
 40
0.1571428571428572
 40
0.2
 40
0.2714285714285715
 40
0.3285714285714286
 40
0.3857142857142858
 40
0.4285714285714287
 40
0.4857142857142858
 40
0.557142857142857
 40
0.6428571428571425
 40
0.7142857142857136
 40
0.799999999999999
 40
0.8714285714285702
 40
0.9428571428571414
 40
1.0
 40
1.0
 40
1.0
 40
1.0
 40
1.0
 40
1.0
 10
-1.122411647510096
 20
0.346286463380211
 30
0.0
 41
1.0
 10
-1.129301661138331
 20
0.348416520504381
 30
0.0
 41
1.0
 10
-1.137581456295511
 20
0.3518628461997348
 30
0.0
 41
1.0
 10
-1.151735196500563
 20
0.3598325038998033
 30
0.0
 41
1.0
 10
-1.168294839616497
 20
0.3713703099293484
 30
0.0
 41
1.0
 10
-1.189294768740002
 20
0.3862377703720211
 30
0.0
 41
1.0
 10
-1.211004849305121
 20
0.4037621573939651
 30
0.0
 41
1.0
 10
-1.235596897457216
 20
0.4275744450622903
 30
0.0
 41
1.0
 10
-1.259461964787784
 20
0.4524390636541332
 30
0.0
 41
1.0
 10
-1.283202994510807
 20
0.4809733525716596
 30
0.0
 41
1.0
 10
-1.306892277742091
 20
0.5127392210854655
 30
0.0
 41
1.0
 10
-1.32934712722128
 20
0.5460145692090268
 30
0.0
 41
1.0
 10
-1.352513991969597
 20
0.5844127193652475
 30
0.0
 41
1.0
 10
-1.374997038709286
 20
0.6263372221347444
 30
0.0
 41
1.0
 10
-1.398114936442787
 20
0.6759413622333098
 30
0.0
 41
1.0
 10
-1.419522595183697
 20
0.7296133582945448
 30
0.0
 41
1.0
 10
-1.4382424372365
 20
0.7853396132749342
 30
0.0
 41
1.0
 10
-1.453194806831273
 20
0.8385146912798142
 30
0.0
 41
1.0
 10
-1.463308716072773
 20
0.8821903928244673
 30
0.0
 41
1.0
 10
-1.469471430855492
 20
0.9132392600669833
 30
0.0
 41
1.0
 10
-1.473057470562586
 20
0.9334018154357193
 30
0.0
 41
1.0
 10
-1.474577003858631
 20
0.942402599577965
 30
0.0
 41
1.0
  0
SPLINE
  5
BB
330
67
100
AcDbEntity
  8
SLD-0
  6
Continuous
100
AcDbSpline
210
0.0
220
0.0
230
1.0
 70
    12
 71
     5
 72
    25
 73
    19
 74
     0
 42
0.00000001
 43
0.00000001
 40
-1.0
 40
-1.0
 40
-1.0
 40
-1.0
 40
-1.0
 40
-1.0
 40
-0.799999999999999
 40
-0.7285714285714279
 40
-0.6428571428571425
 40
-0.5142857142857143
 40
-0.4714285714285715
 40
-0.4000000000000001
 40
-0.3428571428571429
 40
-0.2714285714285715
 40
-0.2
 40
-0.1428571428571429
 40
-0.1285714285714286
 40
-0.0714285714285714
 40
-0.0571428571428571
 40
0.0
 40
0.0
 40
0.0
 40
0.0
 40
0.0
 40
0.0
 10
-1.474577003858631
 20
0.942402599577965
 30
0.0
 41
1.0
 10
-1.469258637322476
 20
0.9108998550801077
 30
0.0
 41
1.0
 10
-1.460806246266101
 20
0.8688052854335516
 30
0.0
 41
1.0
 10
-1.447456397766876
 20
0.8145646664268669
 30
0.0
 41
1.0
 10
-1.425411393122632
 20
0.7433099027948776
 30
0.0
 41
1.0
 10
-1.395749095376963
 20
0.6699406718227093
 30
0.0
 41
1.0
 10
-1.370470512160491
 20
0.6168761270179706
 30
0.0
 41
1.0
 10
-1.343391689217778
 20
0.5683138555624374
 30
0.0
 41
1.0
 10
-1.315006879890901
 20
0.5240729449673984
 30
0.0
 41
1.0
 10
-1.289366086746493
 20
0.4886134424886555
 30
0.0
 41
1.0
 10
-1.260855209870733
 20
0.4537157636946252
 30
0.0
 41
1.0
 10
-1.235634387259466
 20
0.4275182789271911
 30
0.0
 41
1.0
 10
-1.20961863229769
 20
0.4024707804064555
 30
0.0
 41
1.0
 10
-1.187796070601976
 20
0.3851726787851615
 30
0.0
 41
1.0
 10
-1.166790759630479
 20
0.3703183939849071
 30
0.0
 41
1.0
 10
-1.151734172145051
 20
0.3598348029459746
 30
0.0
 41
1.0
 10
-1.13758145629551
 20
0.351862846199735
 30
0.0
 41
1.0
 10
-1.129301661138331
 20
0.348416520504381
 30
0.0
 41
1.0
 10
-1.122411647510096
 20
0.346286463380211
 30
0.0
 41
1.0
  0
SPLINE
  5
BC
330
67
100
AcDbEntity
  8
SLD-0
  6
Continuous
100
AcDbSpline
210
0.0
220
0.0
230
1.0
 70
    12
 71
     5
 72
    28
 73
    22
 74
     0
 42
0.00000001
 43
0.00000001
 40
0.0
 40
0.0
 40
0.0
 40
0.0
 40
0.0
 40
0.0
 40
0.0571428571428571
 40
0.0714285714285714
 40
0.1285714285714286
 40
0.1571428571428572
 40
0.2
 40
0.2714285714285715
 40
0.3285714285714286
 40
0.3857142857142858
 40
0.4285714285714287
 40
0.4857142857142858
 40
0.557142857142857
 40
0.6428571428571425
 40
0.7142857142857136
 40
0.799999999999999
 40
0.8714285714285702
 40
0.9428571428571414
 40
1.0
 40
1.0
 40
1.0
 40
1.0
 40
1.0
 40
1.0
 10
-0.6761822712675554
 20
0.960468509223573
 30
0.0
 41
1.0
 10
-0.6803372072781774
 20
0.9663630777317104
 30
0.0
 41
1.0
 10
-0.686173455201533
 20
0.9731726576615165
 30
0.0
 41
1.0
 10
-0.698126796347151
 20
0.9841709048448098
 30
0.0
 41
1.0
 10
-0.7142171130989104
 20
0.9963546831968139
 30
0.0
 41
1.0
 10
-0.7348462432135047
 20
1.011732504691472
 30
0.0
 41
1.0
 10
-0.758221709528675
 20
1.02696468487644
 30
0.0
 41
1.0
 10
-0.7884679016890134
 20
1.042994710956073
 30
0.0
 41
1.0
 10
-0.8194902706030267
 20
1.058008149049105
 30
0.0
 41
1.0
 10
-0.8539643736642634
 20
1.071769629872821
 30
0.0
 41
1.0
 10
-0.8914959010131235
 20
1.08448328384445
 30
0.0
 41
1.0
 10
-0.9300815677732275
 20
1.095556466700137
 30
0.0
 41
1.0
 10
-0.9737593336065938
 20
1.105723783430317
 30
0.0
 41
1.0
 10
-1.020579548685854
 20
1.114151047701774
 30
0.0
 41
1.0
 10
-1.07489971263568
 20
1.120808952702454
 30
0.0
 41
1.0
 10
-1.132560144593018
 20
1.124583287141673
 30
0.0
 41
1.0
 10
-1.191343711847156
 20
1.125166555088196
 30
0.0
 41
1.0
 10
-1.246536752599169
 20
1.122955100844631
 30
0.0
 41
1.0
 10
-1.29120018299216
 20
1.119077466115434
 30
0.0
 41
1.0
 10
-1.322633794106087
 20
1.115343928533588
 30
0.0
 41
1.0
 10
-1.34291767098668
 20
1.112523882705738
 30
0.0
 41
1.0
 10
-1.351947487008925
 20
1.111187649486015
 30
0.0
 41
1.0
  0
SPLINE
  5
BD
330
67
100
AcDbEntity
  8
SLD-0
  6
Continuous
100
AcDbSpline
210
0.0
220
0.0
230
1.0
 70
    12
 71
     5
 72
    28
 73
    22
 74
     0
 42
0.00000001
 43
0.00000001
 40
0.0
 40
0.0
 40
0.0
 40
0.0
 40
0.0
 40
0.0
 40
0.0571428571428571
 40
0.0714285714285714
 40
0.1285714285714286
 40
0.1571428571428572
 40
0.2
 40
0.2714285714285715
 40
0.3285714285714286
 40
0.3857142857142858
 40
0.4285714285714287
 40
0.4857142857142858
 40
0.557142857142857
 40
0.6428571428571425
 40
0.7142857142857136
 40
0.799999999999999
 40
0.8714285714285702
 40
0.9428571428571414
 40
1.0
 40
1.0
 40
1.0
 40
1.0
 40
1.0
 40
1.0
 10
-0.6761822712675554
 20
0.960468509223573
 30
0.0
 41
1.0
 10
-0.6803372072781774
 20
0.9663630777317104
 30
0.0
 41
1.0
 10
-0.686173455201533
 20
0.9731726576615165
 30
0.0
 41
1.0
 10
-0.698126796347151
 20
0.9841709048448098
 30
0.0
 41
1.0
 10
-0.7142171130989104
 20
0.9963546831968139
 30
0.0
 41
1.0
 10
-0.7348462432135047
 20
1.011732504691472
 30
0.0
 41
1.0
 10
-0.758221709528675
 20
1.02696468487644
 30
0.0
 41
1.0
 10
-0.7884679016890134
 20
1.042994710956073
 30
0.0
 41
1.0
 10
-0.8194902706030267
 20
1.058008149049105
 30
0.0
 41
1.0
 10
-0.8539643736642634
 20
1.071769629872821
 30
0.0
 41
1.0
 10
-0.8914959010131235
 20
1.08448328384445
 30
0.0
 41
1.0
 10
-0.9300815677732275
 20
1.095556466700137
 30
0.0
 41
1.0
 10
-0.9737593336065938
 20
1.105723783430317
 30
0.0
 41
1.0
 10
-1.020579548685854
 20
1.114151047701774
 30
0.0
 41
1.0
 10
-1.07489971263568
 20
1.120808952702454
 30
0.0
 41
1.0
 10
-1.132560144593018
 20
1.124583287141673
 30
0.0
 41
1.0
 10
-1.191343711847156
 20
1.125166555088196
 30
0.0
 41
1.0
 10
-1.246536752599169
 20
1.122955100844631
 30
0.0
 41
1.0
 10
-1.29120018299216
 20
1.119077466115434
 30
0.0
 41
1.0
 10
-1.322633794106087
 20
1.115343928533588
 30
0.0
 41
1.0
 10
-1.34291767098668
 20
1.112523882705738
 30
0.0
 41
1.0
 10
-1.351947487008925
 20
1.111187649486015
 30
0.0
 41
1.0
  0
SPLINE
  5
BE
330
67
100
AcDbEntity
  8
SLD-0
  6
Continuous
100
AcDbSpline
210
0.0
220
0.0
230
1.0
 70
    12
 71
     5
 72
    28
 73
    22
 74
     0
 42
0.00000001
 43
0.00000001
 40
0.0
 40
0.0
 40
0.0
 40
0.0
 40
0.0
 40
0.0
 40
0.0571428571428571
 40
0.0714285714285714
 40
0.1285714285714286
 40
0.1571428571428572
 40
0.2
 40
0.2714285714285715
 40
0.3285714285714286
 40
0.3857142857142858
 40
0.4285714285714287
 40
0.4857142857142858
 40
0.557142857142857
 40
0.6428571428571425
 40
0.7142857142857136
 40
0.799999999999999
 40
0.8714285714285702
 40
0.9428571428571414
 40
1.0
 40
1.0
 40
1.0
 40
1.0
 40
1.0
 40
1.0
 10
-0.0175062762624502
 20
1.174485313436539
 30
0.0
 41
1.0
 10
-0.0176096028570268
 20
1.181696329645392
 30
0.0
 41
1.0
 10
-0.016890549760698
 20
1.19063585599123
 30
0.0
 41
1.0
 10
-0.0136847011297335
 20
1.206559622511867
 30
0.0
 41
1.0
 10
-0.0078288066651945
 20
1.225874157145732
 30
0.0
 41
1.0
 10
-0.0001783465102617
 20
1.250440574520359
 30
0.0
 41
1.0
 10
0.0097795521171648
 20
1.276503421516893
 30
0.0
 41
1.0
 10
0.0248270226665372
 20
1.307250250725444
 30
0.0
 41
1.0
 10
0.041099968826453
 20
1.337630868225533
 30
0.0
 41
1.0
 10
0.0609013085909413
 20
1.369027509445096
 30
0.0
 41
1.0
 10
0.0837920537337444
 20
1.40137354984041
 30
0.0
 41
1.0
 10
0.1084998603034437
 20
1.43301202882395
 30
0.0
 41
1.0
 10
0.1378597163095842
 20
1.46691070745579
 30
0.0
 41
1.0
 10
0.1707846443330564
 20
1.501248739400243
 30
0.0
 41
1.0
 10
0.2108171617351432
 20
1.538563688964537
 30
0.0
 41
1.0
 10
0.2552469329710259
 20
1.57550914121366
 30
0.0
 41
1.0
 10
0.3024610015725162
 20
1.6105331288038
 30
0.0
 41
1.0
 10
0.3484129697026073
 20
1.641185680121684
 30
0.0
 41
1.0
 10
0.3868256604252197
 20
1.664301113429575
 30
0.0
 41
1.0
 10
0.4144505043404429
 20
1.679756831115776
 30
0.0
 41
1.0
 10
0.432518086797055
 20
1.689397929805869
 30
0.0
 41
1.0
 10
0.4406087795953065
 20
1.693624487111454
 30
0.0
 41
1.0
  0
SPLINE
  5
BF
330
67
100
AcDbEntity
  8
SLD-0
  6
Continuous
100
AcDbSpline
210
0.0
220
0.0
230
1.0
 70
    12
 71
     5
 72
    25
 73
    19
 74
     0
 42
0.00000001
 43
0.00000001
 40
-1.0
 40
-1.0
 40
-1.0
 40
-1.0
 40
-1.0
 40
-1.0
 40
-0.799999999999999
 40
-0.7285714285714279
 40
-0.6428571428571425
 40
-0.5142857142857143
 40
-0.4714285714285715
 40
-0.4000000000000001
 40
-0.3428571428571429
 40
-0.2714285714285715
 40
-0.2
 40
-0.1428571428571429
 40
-0.1285714285714286
 40
-0.0714285714285714
 40
-0.0571428571428571
 40
0.0
 40
0.0
 40
0.0
 40
0.0
 40
0.0
 40
0.0
 10
0.4406087795953065
 20
1.693624487111454
 30
0.0
 41
1.0
 10
0.4122913548014261
 20
1.678831536541905
 30
0.0
 41
1.0
 10
0.374868972517933
 20
1.657784897557875
 30
0.0
 41
1.0
 10
0.3274084084223634
 20
1.628327164092476
 30
0.0
 41
1.0
 10
0.2664533822292099
 20
1.585342185881518
 30
0.0
 41
1.0
 10
0.2058412511132082
 20
1.534459325087463
 30
0.0
 41
1.0
 10
0.1631853818000226
 20
1.494020117653367
 30
0.0
 41
1.0
 10
0.1253677335631206
 20
1.45326005947485
 30
0.0
 41
1.0
 10
0.0920635157189686
 20
1.412593308380264
 30
0.0
 41
1.0
 10
0.0662629656528567
 20
1.377249876099266
 30
0.0
 41
1.0
 10
0.0418836463113555
 20
1.339350445049708
 30
0.0
 41
1.0
 10
0.0247620205117452
 20
1.307268549355912
 30
0.0
 41
1.0
 10
0.0089797442313879
 20
1.274785993363693
 30
0.0
 41
1.0
 10
-0.000728185610308
 20
1.248686096489324
 30
0.0
 41
1.0
 10
-0.0083644519021706
 20
1.224118632170514
 30
0.0
 41
1.0
 10
-0.01368219806363
 20
1.20655935873622
 30
0.0
 41
1.0
 10
-0.016890549760698
 20
1.19063585599123
 30
0.0
 41
1.0
 10
-0.0176096028570268
 20
1.181696329645392
 30
0.0
 41
1.0
 10
-0.0175062762624502
 20
1.174485313436539
 30
0.0
 41
1.0
  0
SPLINE
  5
C0
330
67
100
AcDbEntity
  8
SLD-0
  6
Continuous
100
AcDbSpline
210
0.0
220
0.0
230
1.0
 70
    12
 71
     5
 72
    28
 73
    22
 74
     0
 42
0.00000001
 43
0.00000001
 40
0.0
 40
0.0
 40
0.0
 40
0.0
 40
0.0
 40
0.0
 40
0.0571428571428571
 40
0.0714285714285714
 40
0.1285714285714286
 40
0.1571428571428572
 40
0.2
 40
0.2714285714285715
 40
0.3285714285714286
 40
0.3857142857142858
 40
0.4285714285714287
 40
0.4857142857142858
 40
0.557142857142857
 40
0.6428571428571425
 40
0.7142857142857136
 40
0.799999999999999
 40
0.8714285714285702
 40
0.9428571428571414
 40
1.0
 40
1.0
 40
1.0
 40
1.0
 40
1.0
 40
1.0
 10
0.7045080212766454
 20
0.9398886472043206
 30
0.0
 41
1.0
 10
0.7088301432292353
 20
0.9456617480155344
 30
0.0
 41
1.0
 10
0.7135029388030072
 20
0.9533166255566169
 30
0.0
 41
1.0
 10
0.7202691079009476
 20
0.9680835738326345
 30
0.0
 41
1.0
 10
0.7268843883745436
 20
0.9871513689951117
 30
0.0
 41
1.0
 10
0.7351348139288832
 20
1.011522845794413
 30
0.0
 41
1.0
 10
0.7423980618083503
 20
1.03846123789343
 30
0.0
 41
1.0
 10
0.7482969351750931
 20
1.072180626519515
 30
0.0
 41
1.0
 10
0.7529891241052651
 20
1.106324060140844
 30
0.0
 41
1.0
 10
0.7554239864047764
 20
1.143363411942956
 30
0.0
 41
1.0
 10
0.7559175100847676
 20
1.182986750732434
 30
0.0
 41
1.0
 10
0.7545251060276406
 20
1.223105702224455
 30
0.0
 41
1.0
 10
0.7506976269382695
 20
1.267787599694306
 30
0.0
 41
1.0
 10
0.7442441893984039
 20
1.314920438215753
 30
0.0
 41
1.0
 10
0.7337903795364383
 20
1.368639389898593
 30
0.0
 41
1.0
 10
0.7195619315217248
 20
1.424644052928191
 30
0.0
 41
1.0
 10
0.701951531031495
 20
1.480730787324059
 30
0.0
 41
1.0
 10
0.6827927254990667
 20
1.532539111441872
 30
0.0
 41
1.0
 10
0.6653031167035326
 20
1.573818302927913
 30
0.0
 41
1.0
 10
0.6520387914287122
 20
1.602559717046563
 30
0.0
 41
1.0
 10
0.6430887057999679
 20
1.620979388243867
 30
0.0
 41
1.0
 10
0.6390275058821082
 20
1.629154334839426
 30
0.0
 41
1.0
  0
SPLINE
  5
C1
330
67
100
AcDbEntity
  8
SLD-0
  6
Continuous
100
AcDbSpline
210
0.0
220
0.0
230
1.0
 70
    12
 71
     5
 72
    28
 73
    22
 74
     0
 42
0.00000001
 43
0.00000001
 40
0.0
 40
0.0
 40
0.0
 40
0.0
 40
0.0
 40
0.0
 40
0.0571428571428571
 40
0.0714285714285714
 40
0.1285714285714286
 40
0.1571428571428572
 40
0.2
 40
0.2714285714285715
 40
0.3285714285714286
 40
0.3857142857142858
 40
0.4285714285714287
 40
0.4857142857142858
 40
0.557142857142857
 40
0.6428571428571425
 40
0.7142857142857136
 40
0.799999999999999
 40
0.8714285714285702
 40
0.9428571428571414
 40
1.0
 40
1.0
 40
1.0
 40
1.0
 40
1.0
 40
1.0
 10
0.7045080212766454
 20
0.9398886472043206
 30
0.0
 41
1.0
 10
0.7088301432292353
 20
0.9456617480155344
 30
0.0
 41
1.0
 10
0.7135029388030072
 20
0.9533166255566169
 30
0.0
 41
1.0
 10
0.7202691079009476
 20
0.9680835738326345
 30
0.0
 41
1.0
 10
0.7268843883745436
 20
0.9871513689951117
 30
0.0
 41
1.0
 10
0.7351348139288832
 20
1.011522845794413
 30
0.0
 41
1.0
 10
0.7423980618083503
 20
1.03846123789343
 30
0.0
 41
1.0
 10
0.7482969351750931
 20
1.072180626519515
 30
0.0
 41
1.0
 10
0.7529891241052651
 20
1.106324060140844
 30
0.0
 41
1.0
 10
0.7554239864047764
 20
1.143363411942956
 30
0.0
 41
1.0
 10
0.7559175100847676
 20
1.182986750732434
 30
0.0
 41
1.0
 10
0.7545251060276406
 20
1.223105702224455
 30
0.0
 41
1.0
 10
0.7506976269382695
 20
1.267787599694306
 30
0.0
 41
1.0
 10
0.7442441893984039
 20
1.314920438215753
 30
0.0
 41
1.0
 10
0.7337903795364383
 20
1.368639389898593
 30
0.0
 41
1.0
 10
0.7195619315217248
 20
1.424644052928191
 30
0.0
 41
1.0
 10
0.701951531031495
 20
1.480730787324059
 30
0.0
 41
1.0
 10
0.6827927254990667
 20
1.532539111441872
 30
0.0
 41
1.0
 10
0.6653031167035326
 20
1.573818302927913
 30
0.0
 41
1.0
 10
0.6520387914287122
 20
1.602559717046563
 30
0.0
 41
1.0
 10
0.6430887057999679
 20
1.620979388243867
 30
0.0
 41
1.0
 10
0.6390275058821082
 20
1.629154334839426
 30
0.0
 41
1.0
  0
SPLINE
  5
C2
330
67
100
AcDbEntity
  8
SLD-0
  6
Continuous
100
AcDbSpline
210
0.0
220
0.0
230
1.0
 70
    12
 71
     5
 72
    28
 73
    22
 74
     0
 42
0.00000001
 43
0.00000001
 40
0.0
 40
0.0
 40
0.0
 40
0.0
 40
0.0
 40
0.0
 40
0.0571428571428571
 40
0.0714285714285714
 40
0.1285714285714286
 40
0.1571428571428572
 40
0.2
 40
0.2714285714285715
 40
0.3285714285714286
 40
0.3857142857142858
 40
0.4285714285714287
 40
0.4857142857142858
 40
0.557142857142857
 40
0.6428571428571425
 40
0.7142857142857136
 40
0.799999999999999
 40
0.8714285714285702
 40
0.9428571428571414
 40
1.0
 40
1.0
 40
1.0
 40
1.0
 40
1.0
 40
1.0
 10
1.111592173763456
 20
0.3795853796111437
 30
0.0
 41
1.0
 10
1.118418328044301
 20
0.3819119755974715
 30
0.0
 41
1.0
 10
1.127142522454727
 20
0.3839905810271715
 30
0.0
 41
1.0
 10
1.143277586076502
 20
0.3858623522657736
 30
0.0
 41
1.0
 10
1.163456371006057
 20
0.3862615851168441
 30
0.0
 41
1.0
 10
1.189184544534884
 20
0.3865770055935067
 30
0.0
 41
1.0
 10
1.217048944908281
 20
0.3851603438590093
 30
0.0
 41
1.0
 10
1.250940841304597
 20
0.3803506416878553
 30
0.0
 41
1.0
 10
1.284863142459095
 20
0.37426227731028
 30
0.0
 41
1.0
 10
1.320842073179354
 20
0.3651321797990266
 30
0.0
 41
1.0
 10
1.358678614936701
 20
0.3533572636510036
 30
0.0
 41
1.0
 10
1.396403728663427
 20
0.3396355708916178
 30
0.0
 41
1.0
 10
1.437715982328332
 20
0.3221879563035859
 30
0.0
 41
1.0
 10
1.480547753663682
 20
0.3014855243825368
 30
0.0
 41
1.0
 10
1.528407107806885
 20
0.2749432914031977
 30
0.0
 41
1.0
 10
1.577273875283966
 20
0.2441048405616512
 30
0.0
 41
1.0
 10
1.625173616479651
 20
0.2100246003335329
 30
0.0
 41
1.0
 10
1.668525864228772
 20
0.1757938408849948
 30
0.0
 41
1.0
 10
1.702380121936183
 20
0.1464042627893052
 30
0.0
 41
1.0
 10
1.725615929192417
 20
0.1249075543973937
 30
0.0
 41
1.0
 10
1.740368348952243
 20
0.110703525708016
 30
0.0
 41
1.0
 10
1.746888205390141
 20
0.1043148976360222
 30
0.0
 41
1.0
  0
SPLINE
  5
C3
330
67
100
AcDbEntity
  8
SLD-0
  6
Continuous
100
AcDbSpline
210
0.0
220
0.0
230
1.0
 70
    12
 71
     5
 72
    28
 73
    22
 74
     0
 42
0.00000001
 43
0.00000001
 40
0.0
 40
0.0
 40
0.0
 40
0.0
 40
0.0
 40
0.0
 40
0.0571428571428571
 40
0.0714285714285714
 40
0.1285714285714286
 40
0.1571428571428572
 40
0.2
 40
0.2714285714285715
 40
0.3285714285714286
 40
0.3857142857142858
 40
0.4285714285714287
 40
0.4857142857142858
 40
0.557142857142857
 40
0.6428571428571425
 40
0.7142857142857136
 40
0.799999999999999
 40
0.8714285714285702
 40
0.9428571428571414
 40
1.0
 40
1.0
 40
1.0
 40
1.0
 40
1.0
 40
1.0
 10
1.111592173763456
 20
-0.3795853796111437
 30
0.0
 41
1.0
 10
1.118418328044301
 20
-0.3819119755974715
 30
0.0
 41
1.0
 10
1.127142522454727
 20
-0.3839905810271715
 30
0.0
 41
1.0
 10
1.143277586076502
 20
-0.3858623522657736
 30
0.0
 41
1.0
 10
1.163456371006057
 20
-0.3862615851168441
 30
0.0
 41
1.0
 10
1.189184544534884
 20
-0.3865770055935067
 30
0.0
 41
1.0
 10
1.217048944908281
 20
-0.3851603438590093
 30
0.0
 41
1.0
 10
1.250940841304597
 20
-0.3803506416878553
 30
0.0
 41
1.0
 10
1.284863142459095
 20
-0.37426227731028
 30
0.0
 41
1.0
 10
1.320842073179354
 20
-0.3651321797990266
 30
0.0
 41
1.0
 10
1.358678614936701
 20
-0.3533572636510036
 30
0.0
 41
1.0
 10
1.396403728663427
 20
-0.3396355708916178
 30
0.0
 41
1.0
 10
1.437715982328332
 20
-0.3221879563035859
 30
0.0
 41
1.0
 10
1.480547753663682
 20
-0.3014855243825368
 30
0.0
 41
1.0
 10
1.528407107806885
 20
-0.2749432914031977
 30
0.0
 41
1.0
 10
1.577273875283966
 20
-0.2441048405616512
 30
0.0
 41
1.0
 10
1.625173616479651
 20
-0.2100246003335329
 30
0.0
 41
1.0
 10
1.668525864228772
 20
-0.1757938408849948
 30
0.0
 41
1.0
 10
1.702380121936183
 20
-0.1464042627893052
 30
0.0
 41
1.0
 10
1.725615929192417
 20
-0.1249075543973937
 30
0.0
 41
1.0
 10
1.740368348952243
 20
-0.110703525708016
 30
0.0
 41
1.0
 10
1.746888205390141
 20
-0.1043148976360222
 30
0.0
 41
1.0
  0
SPLINE
  5
C4
330
67
100
AcDbEntity
  8
SLD-0
  6
Continuous
100
AcDbSpline
210
0.0
220
0.0
230
1.0
 70
    12
 71
     5
 72
    25
 73
    19
 74
     0
 42
0.00000001
 43
0.00000001
 40
-1.0
 40
-1.0
 40
-1.0
 40
-1.0
 40
-1.0
 40
-1.0
 40
-0.799999999999999
 40
-0.7285714285714279
 40
-0.6428571428571425
 40
-0.5142857142857143
 40
-0.4714285714285715
 40
-0.4000000000000001
 40
-0.3428571428571429
 40
-0.2714285714285715
 40
-0.2
 40
-0.1428571428571429
 40
-0.1285714285714286
 40
-0.0714285714285714
 40
-0.0571428571428571
 40
0.0
 40
0.0
 40
0.0
 40
0.0
 40
0.0
 40
0.0
 10
1.746888205390141
 20
0.1043148976360222
 30
0.0
 41
1.0
 10
1.724068707857496
 20
0.1266750958880001
 30
0.0
 41
1.0
 10
1.692488012609996
 20
0.155762127293479
 30
0.0
 41
1.0
 10
1.649805922374364
 20
0.1917968657870142
 30
0.0
 41
1.0
 10
1.590088639757677
 20
0.2364854518789511
 30
0.0
 41
1.0
 10
1.522965984851708
 20
0.278407345435568
 30
0.0
 41
1.0
 10
1.471324624580044
 20
0.3064790855679275
 30
0.0
 41
1.0
 10
1.420873209652322
 20
0.3298502556857135
 30
0.0
 41
1.0
 10
1.37190526172904
 20
0.3489577318922661
 30
0.0
 41
1.0
 10
1.330318851715322
 20
0.3625737919422723
 30
0.0
 41
1.0
 10
1.286740726863935
 20
0.3740483341933926
 30
0.0
 41
1.0
 10
1.250938157565844
 20
0.380418116998532
 30
0.0
 41
1.0
 10
1.215168419442971
 20
0.3853902918746047
 30
0.0
 41
1.0
 10
1.187346027144686
 20
0.3865577701246727
 30
0.0
 41
1.0
 10
1.161621244057675
 20
0.386228526958501
 30
0.0
 41
1.0
 10
1.143278108700917
 20
0.3858598901972866
 30
0.0
 41
1.0
 10
1.127142522454726
 20
0.3839905810271713
 30
0.0
 41
1.0
 10
1.118418328044301
 20
0.3819119755974715
 30
0.0
 41
1.0
 10
1.111592173763456
 20
0.3795853796111437
 30
0.0
 41
1.0
  0
SPLINE
  5
C5
330
67
100
AcDbEntity
  8
SLD-0
  6
Continuous
100
AcDbSpline
210
0.0
220
0.0
230
1.0
 70
    12
 71
     5
 72
    28
 73
    22
 74
     0
 42
0.00000001
 43
0.00000001
 40
0.0
 40
0.0
 40
0.0
 40
0.0
 40
0.0
 40
0.0
 40
0.0571428571428571
 40
0.0714285714285714
 40
0.1285714285714286
 40
0.1571428571428572
 40
0.2
 40
0.2714285714285715
 40
0.3285714285714286
 40
0.3857142857142858
 40
0.4285714285714287
 40
0.4857142857142858
 40
0.557142857142857
 40
0.6428571428571425
 40
0.7142857142857136
 40
0.799999999999999
 40
0.8714285714285702
 40
0.9428571428571414
 40
1.0
 40
1.0
 40
1.0
 40
1.0
 40
1.0
 40
1.0
 10
1.111592173763456
 20
-0.3795853796111437
 30
0.0
 41
1.0
 10
1.118418328044301
 20
-0.3819119755974715
 30
0.0
 41
1.0
 10
1.127142522454727
 20
-0.3839905810271715
 30
0.0
 41
1.0
 10
1.143277586076502
 20
-0.3858623522657736
 30
0.0
 41
1.0
 10
1.163456371006057
 20
-0.3862615851168441
 30
0.0
 41
1.0
 10
1.189184544534884
 20
-0.3865770055935067
 30
0.0
 41
1.0
 10
1.217048944908281
 20
-0.3851603438590093
 30
0.0
 41
1.0
 10
1.250940841304597
 20
-0.3803506416878553
 30
0.0
 41
1.0
 10
1.284863142459095
 20
-0.37426227731028
 30
0.0
 41
1.0
 10
1.320842073179354
 20
-0.3651321797990266
 30
0.0
 41
1.0
 10
1.358678614936701
 20
-0.3533572636510036
 30
0.0
 41
1.0
 10
1.396403728663427
 20
-0.3396355708916178
 30
0.0
 41
1.0
 10
1.437715982328332
 20
-0.3221879563035859
 30
0.0
 41
1.0
 10
1.480547753663682
 20
-0.3014855243825368
 30
0.0
 41
1.0
 10
1.528407107806885
 20
-0.2749432914031977
 30
0.0
 41
1.0
 10
1.577273875283966
 20
-0.2441048405616512
 30
0.0
 41
1.0
 10
1.625173616479651
 20
-0.2100246003335329
 30
0.0
 41
1.0
 10
1.668525864228772
 20
-0.1757938408849948
 30
0.0
 41
1.0
 10
1.702380121936183
 20
-0.1464042627893052
 30
0.0
 41
1.0
 10
1.725615929192417
 20
-0.1249075543973937
 30
0.0
 41
1.0
 10
1.740368348952243
 20
-0.110703525708016
 30
0.0
 41
1.0
 10
1.746888205390141
 20
-0.1043148976360222
 30
0.0
 41
1.0
  0
SPLINE
  5
C6
330
67
100
AcDbEntity
  8
SPUR_GEAR_(5_TEETH)_SKETCH2
100
AcDbSpline
210
0.0
220
0.0
230
1.0
 70
    12
 71
     5
 72
    28
 73
    22
 74
     0
 42
0.00000001
 43
0.00000001
 40
0.0
 40
0.0
 40
0.0
 40
0.0
 40
0.0
 40
0.0
 40
0.0571428571428571
 40
0.0714285714285714
 40
0.1285714285714286
 40
0.1571428571428572
 40
0.2
 40
0.2714285714285714
 40
0.3285714285714286
 40
0.3857142857142858
 40
0.4285714285714287
 40
0.4857142857142859
 40
0.557142857142857
 40
0.6428571428571425
 40
0.7142857142857137
 40
0.799999999999999
 40
0.8714285714285702
 40
0.9428571428571414
 40
1.0
 40
1.0
 40
1.0
 40
1.0
 40
1.0
 40
1.0
 10
1.111592173763456
 20
0.3795853796111437
 30
0.0
 41
1.0
 10
1.1184183280443
 20
0.3819119755974717
 30
0.0
 41
1.0
 10
1.127142522454724
 20
0.3839905810271704
 30
0.0
 41
1.0
 10
1.143277586076499
 20
0.385862352265774
 30
0.0
 41
1.0
 10
1.163456371006061
 20
0.3862615851168437
 30
0.0
 41
1.0
 10
1.18918454453488
 20
0.3865770055935071
 30
0.0
 41
1.0
 10
1.21704894490828
 20
0.3851603438590095
 30
0.0
 41
1.0
 10
1.250940841304597
 20
0.3803506416878548
 30
0.0
 41
1.0
 10
1.284863142459101
 20
0.3742622773102805
 30
0.0
 41
1.0
 10
1.320842073179351
 20
0.3651321797990273
 30
0.0
 41
1.0
 10
1.358678614936699
 20
0.3533572636510036
 30
0.0
 41
1.0
 10
1.396403728663431
 20
0.3396355708916187
 30
0.0
 41
1.0
 10
1.437715982328328
 20
0.3221879563035853
 30
0.0
 41
1.0
 10
1.480547753663696
 20
0.3014855243825364
 30
0.0
 41
1.0
 10
1.528407107806878
 20
0.2749432914031993
 30
0.0
 41
1.0
 10
1.577273875283969
 20
0.2441048405616493
 30
0.0
 41
1.0
 10
1.625173616479639
 20
0.2100246003335343
 30
0.0
 41
1.0
 10
1.668525864228782
 20
0.1757938408849942
 30
0.0
 41
1.0
 10
1.702380121936181
 20
0.1464042627893053
 30
0.0
 41
1.0
 10
1.725615929192386
 20
0.1249075543973931
 30
0.0
 41
1.0
 10
1.740368348952245
 20
0.1107035257080161
 30
0.0
 41
1.0
 10
1.74688820539014
 20
0.1043148976360222
 30
0.0
 41
1.0
  0
SPLINE
  5
C7
330
67
100
AcDbEntity
  8
SPUR_GEAR_(5_TEETH)_SKETCH2
100
AcDbSpline
210
0.0
220
0.0
230
1.0
 70
    12
 71
     5
 72
    28
 73
    22
 74
     0
 42
0.00000001
 43
0.00000001
 40
0.0
 40
0.0
 40
0.0
 40
0.0
 40
0.0
 40
0.0
 40
0.0571428571428571
 40
0.0714285714285714
 40
0.1285714285714286
 40
0.1571428571428572
 40
0.2
 40
0.2714285714285714
 40
0.3285714285714286
 40
0.3857142857142858
 40
0.4285714285714287
 40
0.4857142857142859
 40
0.557142857142857
 40
0.6428571428571425
 40
0.7142857142857137
 40
0.799999999999999
 40
0.8714285714285702
 40
0.9428571428571414
 40
1.0
 40
1.0
 40
1.0
 40
1.0
 40
1.0
 40
1.0
 10
1.111592173763456
 20
-0.3795853796111437
 30
0.0
 41
1.0
 10
1.1184183280443
 20
-0.3819119755974717
 30
0.0
 41
1.0
 10
1.127142522454724
 20
-0.3839905810271704
 30
0.0
 41
1.0
 10
1.143277586076499
 20
-0.385862352265774
 30
0.0
 41
1.0
 10
1.163456371006061
 20
-0.3862615851168437
 30
0.0
 41
1.0
 10
1.18918454453488
 20
-0.3865770055935071
 30
0.0
 41
1.0
 10
1.21704894490828
 20
-0.3851603438590095
 30
0.0
 41
1.0
 10
1.250940841304597
 20
-0.3803506416878548
 30
0.0
 41
1.0
 10
1.284863142459101
 20
-0.3742622773102805
 30
0.0
 41
1.0
 10
1.320842073179351
 20
-0.3651321797990273
 30
0.0
 41
1.0
 10
1.358678614936699
 20
-0.3533572636510036
 30
0.0
 41
1.0
 10
1.396403728663431
 20
-0.3396355708916187
 30
0.0
 41
1.0
 10
1.437715982328328
 20
-0.3221879563035853
 30
0.0
 41
1.0
 10
1.480547753663696
 20
-0.3014855243825364
 30
0.0
 41
1.0
 10
1.528407107806878
 20
-0.2749432914031993
 30
0.0
 41
1.0
 10
1.577273875283969
 20
-0.2441048405616493
 30
0.0
 41
1.0
 10
1.625173616479639
 20
-0.2100246003335343
 30
0.0
 41
1.0
 10
1.668525864228782
 20
-0.1757938408849942
 30
0.0
 41
1.0
 10
1.702380121936181
 20
-0.1464042627893053
 30
0.0
 41
1.0
 10
1.725615929192386
 20
-0.1249075543973931
 30
0.0
 41
1.0
 10
1.740368348952245
 20
-0.1107035257080161
 30
0.0
 41
1.0
 10
1.74688820539014
 20
-0.1043148976360222
 30
0.0
 41
1.0
  0
ENDBLK
  5
69
330
67
100
AcDbEntity
  8
0
100
AcDbBlockEnd
  0
ENDSEC
  0
SECTION
  2
ENTITIES
  0
INSERT
  5
C8
330
1F
100
AcDbEntity
  8
0
  6
Continuous
 62
     7
100
AcDbBlockReference
  2
SPURGEAR(5TEETH)
 10
1.5
 20
3.5
 30
0.0
  0
MTEXT
  5
CA
330
1F
100
AcDbEntity
  8
0
  6
Continuous
 62
     7
100
AcDbMText
 10
0.0
 20
0.482508719
 30
0.0
 40
0.173
 41
0.0
 71
     1
 72
     1
  1
SOLIDWORKS Educational Product.
  7
SLDTEXTSTYLE0
 73
     1
 44
1.0
  0
MTEXT
  5
CB
330
1F
100
AcDbEntity
  8
0
  6
Continuous
 62
     7
100
AcDbMText
 10
0.0
 20
0.223008719
 30
0.0
 40
0.173
 41
0.0
 71
     1
 72
     1
  1
For Instructional Use Only.
  7
SLDTEXTSTYLE0
 73
     1
 44
1.0
  0
ENDSEC
  0
SECTION
  2
OBJECTS
  0
DICTIONARY
  5
C
330
0
100
AcDbDictionary
281
     1
  3
ACAD_GROUP
350
D
  3
ACAD_LAYOUT
350
1A
  3
ACAD_MLINESTYLE
350
17
  3
ACAD_PLOTSETTINGS
350
19
  3
ACAD_PLOTSTYLENAME
350
E
  3
ACAD_SCALELIST
350
47
  3
DWGPROPS
350
CC
  0
DICTIONARY
  5
D
102
{ACAD_REACTORS
330
C
102
}
330
C
100
AcDbDictionary
281
     1
  0
DICTIONARY
  5
1A
102
{ACAD_REACTORS
330
C
102
}
330
C
100
AcDbDictionary
281
     1
  3
Layout1
350
1E
  3
Layout2
350
26
  3
Model
350
22
  0
DICTIONARY
  5
17
102
{ACAD_REACTORS
330
C
102
}
330
C
100
AcDbDictionary
281
     1
  3
Standard
350
18
  0
DICTIONARY
  5
19
102
{ACAD_REACTORS
330
C
102
}
330
C
100
AcDbDictionary
281
     1
  0
ACDBDICTIONARYWDFLT
  5
E
102
{ACAD_REACTORS
330
C
102
}
330
C
100
AcDbDictionary
281
     1
  3
Normal
350
F
100
AcDbDictionaryWithDefault
340
F
  0
DICTIONARY
  5
47
102
{ACAD_REACTORS
330
C
102
}
330
C
100
AcDbDictionary
281
     1
  3
A0
350
48
  3
A1
350
49
  3
A2
350
4A
  3
A3
350
4B
  3
A4
350
4C
  3
A5
350
4D
  3
A6
350
4E
  3
A7
350
4F
  3
A8
350
50
  3
A9
350
51
  3
B0
350
52
  3
B1
350
53
  3
B2
350
54
  3
B3
350
55
  3
B4
350
56
  3
B5
350
57
  3
B6
350
58
  0
XRECORD
  5
CC
102
{ACAD_REACTORS
330
C
102
}
330
C
100
AcDbXrecord
280
     1
  1
DWGPROPS COOKIE
  2

  3

  4

  6

  7

  8
Gursager Singh
  9

300
=
301
=
302
=
303
=
304
=
305
=
306
=
307
=
308
=
309
=
 40
0.0
 41
2460419.669564607
 42
2460419.669564919
  1

 90
        0
  0
LAYOUT
  5
1E
102
{ACAD_REACTORS
330
1A
102
}
330
1A
100
AcDbPlotSettings
  1

  2
none_device
  4

  6

 40
0.0
 41
0.0
 42
0.0
 43
0.0
 44
0.0
 45
0.0
 46
0.0
 47
0.0
 48
0.0
 49
0.0
140
0.0
141
0.0
142
1.0
143
1.0
 70
   688
 72
     1
 73
     0
 74
     5
  7

 75
    16
147
1.0
148
0.0
149
0.0
100
AcDbLayout
  1
Layout1
 70
     1
 71
     1
 10
0.0
 20
0.0
 11
420.0
 21
297.0
 12
0.0
 22
0.0
 32
0.0
 14
1.0000000000E+20
 24
1.0000000000E+20
 34
1.0000000000E+20
 15
-1.0000000000E+20
 25
-1.0000000000E+20
 35
-1.0000000000E+20
146
0.0
 13
0.0
 23
0.0
 33
0.0
 16
1.0
 26
0.0
 36
0.0
 17
0.0
 27
1.0
 37
0.0
 76
     0
330
1B
  0
LAYOUT
  5
26
102
{ACAD_REACTORS
330
1A
102
}
330
1A
100
AcDbPlotSettings
  1

  2
none_device
  4

  6

 40
0.0
 41
0.0
 42
0.0
 43
0.0
 44
0.0
 45
0.0
 46
0.0
 47
0.0
 48
0.0
 49
0.0
140
0.0
141
0.0
142
1.0
143
1.0
 70
   688
 72
     1
 73
     0
 74
     5
  7

 75
    16
147
1.0
148
0.0
149
0.0
100
AcDbLayout
  1
Layout2
 70
     1
 71
     2
 10
0.0
 20
0.0
 11
0.0
 21
0.0
 12
0.0
 22
0.0
 32
0.0
 14
0.0
 24
0.0
 34
0.0
 15
0.0
 25
0.0
 35
0.0
146
0.0
 13
0.0
 23
0.0
 33
0.0
 16
1.0
 26
0.0
 36
0.0
 17
0.0
 27
1.0
 37
0.0
 76
     0
330
23
  0
LAYOUT
  5
22
102
{ACAD_REACTORS
330
1A
102
}
330
1A
100
AcDbPlotSettings
  1

  2
none_device
  4
Letter_(8.50_x_11.00_Inches)
  6

 40
6.35
 41
6.35
 42
6.35000508
 43
6.35000508
 44
215.9
 45
279.4
 46
0.0
 47
0.0
 48
0.0
 49
0.0
140
0.0
141
0.0
142
1.0
143
1.0
 70
  1712
 72
     1
 73
     0
 74
     0
  7

 75
     0
147
1.0
148
0.0
149
0.0
100
AcDbLayout
  1
Model
 70
     1
 71
     0
 10
0.0
 20
0.0
 11
10.0
 21
10.0
 12
0.0
 22
0.0
 32
0.0
 14
0.0
 24
0.0
 34
0.0
 15
10.0
 25
10.0
 35
0.0
146
0.0
 13
0.0
 23
0.0
 33
0.0
 16
1.0
 26
0.0
 36
0.0
 17
0.0
 27
1.0
 37
0.0
 76
     0
330
1F
331
29
  0
MLINESTYLE
  5
18
102
{ACAD_REACTORS
330
17
102
}
330
17
100
AcDbMlineStyle
  2
Standard
 70
     0
  3

 62
   256
 51
90.0
 52
90.0
 71
     2
 49
0.5
 62
   256
  6
BYLAYER
 49
-0.5
 62
   256
  6
BYLAYER
  0
ACDBPLACEHOLDER
  5
F
102
{ACAD_REACTORS
330
E
102
}
330
E
  0
SCALE
  5
48
102
{ACAD_REACTORS
330
47
102
}
330
47
100
AcDbScale
 70
     0
300
1:1
140
1.0
141
1.0
290
     1
  0
SCALE
  5
49
102
{ACAD_REACTORS
330
47
102
}
330
47
100
AcDbScale
 70
     0
300
1:2
140
1.0
141
2.0
290
     0
  0
SCALE
  5
4A
102
{ACAD_REACTORS
330
47
102
}
330
47
100
AcDbScale
 70
     0
300
1:4
140
1.0
141
4.0
290
     0
  0
SCALE
  5
4B
102
{ACAD_REACTORS
330
47
102
}
330
47
100
AcDbScale
 70
     0
300
1:5
140
1.0
141
5.0
290
     0
  0
SCALE
  5
4C
102
{ACAD_REACTORS
330
47
102
}
330
47
100
AcDbScale
 70
     0
300
1:8
140
1.0
141
8.0
290
     0
  0
SCALE
  5
4D
102
{ACAD_REACTORS
330
47
102
}
330
47
100
AcDbScale
 70
     0
300
1:10
140
1.0
141
10.0
290
     0
  0
SCALE
  5
4E
102
{ACAD_REACTORS
330
47
102
}
330
47
100
AcDbScale
 70
     0
300
1:16
140
1.0
141
16.0
290
     0
  0
SCALE
  5
4F
102
{ACAD_REACTORS
330
47
102
}
330
47
100
AcDbScale
 70
     0
300
1:20
140
1.0
141
20.0
290
     0
  0
SCALE
  5
50
102
{ACAD_REACTORS
330
47
102
}
330
47
100
AcDbScale
 70
     0
300
1:30
140
1.0
141
30.0
290
     0
  0
SCALE
  5
51
102
{ACAD_REACTORS
330
47
102
}
330
47
100
AcDbScale
 70
     0
300
1:40
140
1.0
141
40.0
290
     0
  0
SCALE
  5
52
102
{ACAD_REACTORS
330
47
102
}
330
47
100
AcDbScale
 70
     0
300
1:50
140
1.0
141
50.0
290
     0
  0
SCALE
  5
53
102
{ACAD_REACTORS
330
47
102
}
330
47
100
AcDbScale
 70
     0
300
1:100
140
1.0
141
100.0
290
     0
  0
SCALE
  5
54
102
{ACAD_REACTORS
330
47
102
}
330
47
100
AcDbScale
 70
     0
300
2:1
140
2.0
141
1.0
290
     0
  0
SCALE
  5
55
102
{ACAD_REACTORS
330
47
102
}
330
47
100
AcDbScale
 70
     0
300
4:1
140
4.0
141
1.0
290
     0
  0
SCALE
  5
56
102
{ACAD_REACTORS
330
47
102
}
330
47
100
AcDbScale
 70
     0
300
8:1
140
8.0
141
1.0
290
     0
  0
SCALE
  5
57
102
{ACAD_REACTORS
330
47
102
}
330
47
100
AcDbScale
 70
     0
300
10:1
140
10.0
141
1.0
290
     0
  0
SCALE
  5
58
102
{ACAD_REACTORS
330
47
102
}
330
47
100
AcDbScale
 70
     0
300
100:1
140
100.0
141
1.0
290
     0
  0
ENDSEC
  0
EOF
