  0
SECTION
  2
HEADER
  9
$ACADVER
  1
AC1015
  9
$ACADMAINTVER
 70
     6
  9
$DWGCODEPAGE
  3
ANSI_1252
  9
$INSBASE
 10
0.0
 20
0.0
 30
0.0
  9
$EXTMIN
 10
0.0
 20
0.0
 30
0.0
  9
$EXTMAX
 10
10.0
 20
10.0
 30
0.0
  9
$LIMMIN
 10
0.0
 20
0.0
  9
$LIMMAX
 10
10.0
 20
10.0
  9
$ORTHOMODE
 70
     0
  9
$REGENMODE
 70
     1
  9
$FILLMODE
 70
     1
  9
$QTEXTMODE
 70
     0
  9
$MIRRTEXT
 70
     1
  9
$LTSCALE
 40
1.0
  9
$ATTMODE
 70
     1
  9
$TEXTSIZE
 40
3.5
  9
$TRACEWID
 40
1.0
  9
$TEXTSTYLE
  7
Standard
  9
$CLAYER
  8
0
  9
$CELTYPE
  6
ByLayer
  9
$CECOLOR
 62
   256
  9
$CELTSCALE
 40
1.0
  9
$DISPSILH
 70
     0
  9
$DIMSCALE
 40
1.0
  9
$DIMASZ
 40
3.302
  9
$DIMEXO
 40
1.0
  9
$DIMDLI
 40
3.75
  9
$DIMRND
 40
0.0
  9
$DIMDLE
 40
0.0
  9
$DIMEXE
 40
1.0
  9
$DIMTP
 40
0.0
  9
$DIMTM
 40
0.0
  9
$DIMTXT
 40
3.5
  9
$DIMCEN
 40
2.5
  9
$DIMTSZ
 40
0.0
  9
$DIMTOL
 70
     0
  9
$DIMLIM
 70
     0
  9
$DIMTIH
 70
     1
  9
$DIMTOH
 70
     1
  9
$DIMSE1
 70
     0
  9
$DIMSE2
 70
     0
  9
$DIMTAD
 70
     1
  9
$DIMZIN
 70
     1
  9
$DIMBLK
  1

  9
$DIMASO
 70
     1
  9
$DIMSHO
 70
     1
  9
$DIMPOST
  1

  9
$DIMAPOST
  1

  9
$DIMALT
 70
     0
  9
$DIMALTD
 70
     3
  9
$DIMALTF
 40
0.0393700787
  9
$DIMLFAC
 40
1.0
  9
$DIMTOFL
 70
     1
  9
$DIMTVP
 40
0.0
  9
$DIMTIX
 70
     0
  9
$DIMSOXD
 70
     0
  9
$DIMSAH
 70
     0
  9
$DIMBLK1
  1

  9
$DIMBLK2
  1

  9
$DIMSTYLE
  2
ISO-25
  9
$DIMCLRD
 70
     0
  9
$DIMCLRE
 70
     0
  9
$DIMCLRT
 70
     0
  9
$DIMTFAC
 40
1.0
  9
$DIMGAP
 40
1.524
  9
$DIMJUST
 70
     0
  9
$DIMSD1
 70
     0
  9
$DIMSD2
 70
     0
  9
$DIMTOLJ
 70
     0
  9
$DIMTZIN
 70
     1
  9
$DIMALTZ
 70
     0
  9
$DIMALTTZ
 70
     0
  9
$DIMUPT
 70
     0
  9
$DIMDEC
 70
     0
  9
$DIMTDEC
 70
     4
  9
$DIMALTU
 70
     2
  9
$DIMALTTD
 70
     3
  9
$DIMTXSTY
  7
Standard
  9
$DIMAUNIT
 70
     0
  9
$DIMADEC
 70
     0
  9
$DIMALTRND
 40
0.0
  9
$DIMAZIN
 70
     0
  9
$DIMDSEP
 70
    44
  9
$DIMATFIT
 70
     3
  9
$DIMFRAC
 70
     0
  9
$DIMLDRBLK
  1

  9
$DIMLUNIT
 70
     2
  9
$DIMLWD
 70
    -2
  9
$DIMLWE
 70
    -2
  9
$DIMTMOVE
 70
     0
  9
$LUNITS
 70
     2
  9
$LUPREC
 70
     4
  9
$SKETCHINC
 40
1.0
  9
$FILLETRAD
 40
0.0
  9
$AUNITS
 70
     0
  9
$AUPREC
 70
     0
  9
$MENU
  1
.
  9
$ELEVATION
 40
0.0
  9
$PELEVATION
 40
0.0
  9
$THICKNESS
 40
0.0
  9
$LIMCHECK
 70
     0
  9
$CHAMFERA
 40
0.0
  9
$CHAMFERB
 40
0.0
  9
$CHAMFERC
 40
0.0
  9
$CHAMFERD
 40
0.0
  9
$SKPOLY
 70
     0
  9
$TDCREATE
 40
2460390.966773172
  9
$TDUCREATE
 40
2460390.966773172
  9
$TDUPDATE
 40
2460390.966773739
  9
$TDUUPDATE
 40
2460390.966773739
  9
$TDINDWG
 40
0.0000000116
  9
$TDUSRTIMER
 40
0.0000000116
  9
$USRTIMER
 70
     1
  9
$ANGBASE
 50
0.0
  9
$ANGDIR
 70
     0
  9
$PDMODE
 70
     0
  9
$PDSIZE
 40
-1.0
  9
$PLINEWID
 40
0.0
  9
$SPLFRAME
 70
     0
  9
$SPLINETYPE
 70
     6
  9
$SPLINESEGS
 70
     8
  9
$HANDSEED
  5
10E
  9
$SURFTAB1
 70
     6
  9
$SURFTAB2
 70
     6
  9
$SURFTYPE
 70
     6
  9
$SURFU
 70
     6
  9
$SURFV
 70
     6
  9
$UCSBASE
  2

  9
$UCSNAME
  2

  9
$UCSORG
 10
0.0
 20
0.0
 30
0.0
  9
$UCSXDIR
 10
1.0
 20
0.0
 30
0.0
  9
$UCSYDIR
 10
0.0
 20
1.0
 30
0.0
  9
$UCSORTHOREF
  2

  9
$UCSORTHOVIEW
 70
     0
  9
$UCSORGTOP
 10
0.0
 20
0.0
 30
0.0
  9
$UCSORGBOTTOM
 10
0.0
 20
0.0
 30
0.0
  9
$UCSORGLEFT
 10
0.0
 20
0.0
 30
0.0
  9
$UCSORGRIGHT
 10
0.0
 20
0.0
 30
0.0
  9
$UCSORGFRONT
 10
0.0
 20
0.0
 30
0.0
  9
$UCSORGBACK
 10
0.0
 20
0.0
 30
0.0
  9
$PUCSBASE
  2

  9
$PUCSNAME
  2

  9
$PUCSORG
 10
0.0
 20
0.0
 30
0.0
  9
$PUCSXDIR
 10
1.0
 20
0.0
 30
0.0
  9
$PUCSYDIR
 10
0.0
 20
1.0
 30
0.0
  9
$PUCSORTHOREF
  2

  9
$PUCSORTHOVIEW
 70
     0
  9
$PUCSORGTOP
 10
0.0
 20
0.0
 30
0.0
  9
$PUCSORGBOTTOM
 10
0.0
 20
0.0
 30
0.0
  9
$PUCSORGLEFT
 10
0.0
 20
0.0
 30
0.0
  9
$PUCSORGRIGHT
 10
0.0
 20
0.0
 30
0.0
  9
$PUCSORGFRONT
 10
0.0
 20
0.0
 30
0.0
  9
$PUCSORGBACK
 10
0.0
 20
0.0
 30
0.0
  9
$USERI1
 70
     0
  9
$USERI2
 70
     0
  9
$USERI3
 70
     0
  9
$USERI4
 70
     0
  9
$USERI5
 70
     0
  9
$USERR1
 40
0.0
  9
$USERR2
 40
0.0
  9
$USERR3
 40
0.0
  9
$USERR4
 40
0.0
  9
$USERR5
 40
0.0
  9
$WORLDVIEW
 70
     1
  9
$SHADEDGE
 70
     3
  9
$SHADEDIF
 70
    70
  9
$TILEMODE
 70
     1
  9
$MAXACTVP
 70
    64
  9
$PINSBASE
 10
0.0
 20
0.0
 30
0.0
  9
$PLIMCHECK
 70
     0
  9
$PEXTMIN
 10
1.0000000000E+20
 20
1.0000000000E+20
 30
1.0000000000E+20
  9
$PEXTMAX
 10
-1.0000000000E+20
 20
-1.0000000000E+20
 30
-1.0000000000E+20
  9
$PLIMMIN
 10
0.0
 20
0.0
  9
$PLIMMAX
 10
420.0
 20
297.0
  9
$UNITMODE
 70
     0
  9
$VISRETAIN
 70
     1
  9
$PLINEGEN
 70
     0
  9
$PSLTSCALE
 70
     1
  9
$TREEDEPTH
 70
  3020
  9
$CMLSTYLE
  2
Standard
  9
$CMLJUST
 70
     0
  9
$CMLSCALE
 40
20.0
  9
$PROXYGRAPHICS
 70
     1
  9
$MEASUREMENT
 70
     1
  9
$CELWEIGHT
370
    -1
  9
$ENDCAPS
280
     0
  9
$JOINSTYLE
280
     0
  9
$LWDISPLAY
290
     1
  9
$INSUNITS
 70
     4
  9
$HYPERLINKBASE
  1

  9
$STYLESHEET
  1

  9
$XEDIT
290
     1
  9
$CEPSNTYPE
380
     0
  9
$PSTYLEMODE
290
     1
  9
$FINGERPRINTGUID
  2
{b1c9ef61-2bf9-49a3-ae12-c7e81fd42032}
  9
$VERSIONGUID
  2
{FAEB1C32-E019-11D5-929B-00C0DF256EC4}
  9
$EXTNAMES
290
     1
  9
$PSVPSCALE
 40
0.0
  9
$OLESTARTUP
290
     0
  0
ENDSEC
  0
SECTION
  2
CLASSES
  0
CLASS
  1
ACDBDICTIONARYWDFLT
  2
AcDbDictionaryWithDefault
  3
ObjectDBX Classes
 90
        0
280
     0
281
     0
  0
CLASS
  1
VISUALSTYLE
  2
AcDbVisualStyle
  3
ObjectDBX Classes
 90
     4095
280
     0
281
     0
  0
CLASS
  1
MATERIAL
  2
AcDbMaterial
  3
ObjectDBX Classes
 90
     1153
280
     0
281
     0
  0
CLASS
  1
SCALE
  2
AcDbScale
  3
ObjectDBX Classes
 90
     1153
280
     0
281
     0
  0
CLASS
  1
TABLESTYLE
  2
AcDbTableStyle
  3
ObjectDBX Classes
 90
     4095
280
     0
281
     0
  0
CLASS
  1
MLEADERSTYLE
  2
AcDbMLeaderStyle
  3
ACDB_MLEADERSTYLE_CLASS
 90
     4095
280
     0
281
     0
  0
CLASS
  1
SUN
  2
AcDbSun
  3
SCENEOE
 90
     1153
280
     0
281
     0
  0
CLASS
  1
ACDBPLACEHOLDER
  2
AcDbPlaceHolder
  3
ObjectDBX Classes
 90
        0
280
     0
281
     0
  0
CLASS
  1
LAYOUT
  2
AcDbLayout
  3
ObjectDBX Classes
 90
        0
280
     0
281
     0
  0
ENDSEC
  0
SECTION
  2
TABLES
  0
TABLE
  2
VPORT
  5
8
330
0
100
AcDbSymbolTable
 70
     1
  0
VPORT
  5
29
330
8
100
AcDbSymbolTableRecord
100
AcDbViewportTableRecord
  2
*Active
 70
     0
 10
0.0
 20
0.0
 11
1.0
 21
1.0
 12
5.0
 22
5.0
 13
0.0
 23
0.0
 14
10.0
 24
10.0
 15
10.0
 25
10.0
 16
0.0
 26
0.0
 36
1.0
 17
0.0
 27
0.0
 37
0.0
 40
10.0
 41
1.0
 42
50.0
 43
0.0
 44
0.0
 50
0.0
 51
0.0
 71
     0
 72
  2000
 73
     1
 74
     3
 75
     0
 76
     0
 77
     0
 78
     0
281
     0
 65
     1
110
0.0
120
0.0
130
0.0
111
1.0
121
0.0
131
0.0
112
0.0
122
1.0
132
0.0
 79
     0
146
0.0
  0
ENDTAB
  0
TABLE
  2
LTYPE
  5
5
330
0
100
AcDbSymbolTable
 70
     6
  0
LTYPE
  5
14
330
5
100
AcDbSymbolTableRecord
100
AcDbLinetypeTableRecord
  2
ByBlock
 70
     0
  3

 72
    65
 73
     0
 40
0.0
  0
LTYPE
  5
15
330
5
100
AcDbSymbolTableRecord
100
AcDbLinetypeTableRecord
  2
ByLayer
 70
     0
  3

 72
    65
 73
     0
 40
0.0
  0
LTYPE
  5
16
330
5
100
AcDbSymbolTableRecord
100
AcDbLinetypeTableRecord
  2
Continuous
 70
     0
  3
Solid line
 72
    65
 73
     0
 40
0.0
  0
LTYPE
  5
5E
330
5
100
AcDbSymbolTableRecord
100
AcDbLinetypeTableRecord
  2
HIDDEN
 70
     0
  3
Hidden __ __ __ __ __ __ __ __ __ __ __ __ __ __
 72
    65
 73
     2
 40
1.905
 49
1.27
 74
     0
 49
-0.635
 74
     0
  0
LTYPE
  5
5F
330
5
100
AcDbSymbolTableRecord
100
AcDbLinetypeTableRecord
  2
PHANTOM
 70
     0
  3
Phantom ______  __  __  ______  __  __  ______
 72
    65
 73
     6
 40
12.7
 49
6.35
 74
     0
 49
-1.27
 74
     0
 49
1.27
 74
     0
 49
-1.27
 74
     0
 49
1.27
 74
     0
 49
-1.27
 74
     0
  0
LTYPE
  5
60
330
5
100
AcDbSymbolTableRecord
100
AcDbLinetypeTableRecord
  2
CENTER
 70
     0
  3
Center ____ _ ____ _ ____ _ ____ _ ____ _ ____
 72
    65
 73
     4
 40
10.16
 49
6.35
 74
     0
 49
-1.27
 74
     0
 49
1.27
 74
     0
 49
-1.27
 74
     0
  0
LTYPE
  5
61
330
5
100
AcDbSymbolTableRecord
100
AcDbLinetypeTableRecord
  2
CENTERX2
 70
     0
  3
Center (2x) ________  __  ________  __  _____
 72
    65
 73
     4
 40
20.32
 49
12.7
 74
     0
 49
-2.54
 74
     0
 49
2.54
 74
     0
 49
-2.54
 74
     0
  0
LTYPE
  5
62
330
5
100
AcDbSymbolTableRecord
100
AcDbLinetypeTableRecord
  2
DOT2
 70
     0
  3
Dot (.5x) ........................................
 72
    65
 73
     2
 40
0.635
 49
0.0
 74
     0
 49
-0.635
 74
     0
  0
ENDTAB
  0
TABLE
  2
LAYER
  5
2
330
0
100
AcDbSymbolTable
 70
     2
  0
LAYER
  5
10
330
2
100
AcDbSymbolTableRecord
100
AcDbLayerTableRecord
  2
0
 70
     0
 62
     7
  6
Continuous
370
    -3
390
F
  0
LAYER
  5
63
330
2
100
AcDbSymbolTableRecord
100
AcDbLayerTableRecord
  2
SLD-0
 70
     0
 62
   179
  6
Continuous
370
    -3
390
F
  0
ENDTAB
  0
TABLE
  2
STYLE
  5
3
330
0
100
AcDbSymbolTable
 70
     2
  0
STYLE
  5
11
330
3
100
AcDbSymbolTableRecord
100
AcDbTextStyleTableRecord
  2
Standard
 70
     0
 40
0.0
 41
1.0
 50
0.0
 71
     0
 42
3.5
  3
txt
  4

  0
STYLE
  5
10A
330
3
100
AcDbSymbolTableRecord
100
AcDbTextStyleTableRecord
  2
SLDTEXTSTYLE0
 70
     0
 40
0.0
 41
0.7
 50
0.0
 71
     0
 42
3.5
  3
TXT
  4

  0
ENDTAB
  0
TABLE
  2
VIEW
  5
6
330
0
100
AcDbSymbolTable
 70
     0
  0
ENDTAB
  0
TABLE
  2
UCS
  5
7
330
0
100
AcDbSymbolTable
 70
     0
  0
ENDTAB
  0
TABLE
  2
APPID
  5
9
330
0
100
AcDbSymbolTable
 70
     1
  0
APPID
  5
12
330
9
100
AcDbSymbolTableRecord
100
AcDbRegAppTableRecord
  2
ACAD
 70
     0
  0
ENDTAB
  0
TABLE
  2
DIMSTYLE
  5
A
330
0
100
AcDbSymbolTable
 70
     1
100
AcDbDimStyleTable
  0
DIMSTYLE
105
27
330
A
100
AcDbSymbolTableRecord
100
AcDbDimStyleTableRecord
  2
ISO-25
 70
     0
 41
2.5
 42
0.625
 43
3.75
 44
1.25
 73
     0
 74
     0
 77
     1
 78
     8
140
2.5
141
2.5
143
0.0393700787
147
0.625
171
     3
172
     1
178
     0
271
     2
272
     2
274
     3
278
    44
283
     0
284
     8
340
11
  0
ENDTAB
  0
TABLE
  2
BLOCK_RECORD
  5
1
330
0
100
AcDbSymbolTable
 70
     2
  0
BLOCK_RECORD
  5
1F
330
1
100
AcDbSymbolTableRecord
100
AcDbBlockTableRecord
  2
*Model_Space
340
22
  0
BLOCK_RECORD
  5
1B
330
1
100
AcDbSymbolTableRecord
100
AcDbBlockTableRecord
  2
*Paper_Space
340
1E
  0
BLOCK_RECORD
  5
23
330
1
100
AcDbSymbolTableRecord
100
AcDbBlockTableRecord
  2
*Paper_Space0
340
26
  0
BLOCK_RECORD
  5
64
330
1
100
AcDbSymbolTableRecord
100
AcDbBlockTableRecord
  2
SPURGEAR(10TEETH)
340
0
102
{BLKREFS
331
109
102
}
  0
ENDTAB
  0
ENDSEC
  0
SECTION
  2
BLOCKS
  0
BLOCK
  5
20
330
1F
100
AcDbEntity
  8
0
100
AcDbBlockBegin
  2
*Model_Space
 70
     0
 10
0.0
 20
0.0
 30
0.0
  3
*Model_Space
  1

  0
ENDBLK
  5
21
330
1F
100
AcDbEntity
  8
0
100
AcDbBlockEnd
  0
BLOCK
  5
1C
330
1B
100
AcDbEntity
 67
     1
  8
0
100
AcDbBlockBegin
  2
*Paper_Space
 70
     0
 10
0.0
 20
0.0
 30
0.0
  3
*Paper_Space
  1

  0
ENDBLK
  5
1D
330
1B
100
AcDbEntity
 67
     1
  8
0
100
AcDbBlockEnd
  0
BLOCK
  5
24
330
23
100
AcDbEntity
  8
0
100
AcDbBlockBegin
  2
*Paper_Space0
 70
     0
 10
0.0
 20
0.0
 30
0.0
  3
*Paper_Space0
  1

  0
ENDBLK
  5
25
330
23
100
AcDbEntity
  8
0
100
AcDbBlockEnd
  0
BLOCK
  5
65
330
64
100
AcDbEntity
  8
0
100
AcDbBlockBegin
  2
SPURGEAR(10TEETH)
 70
     0
 10
0.0
 20
0.0
 30
0.0
  3
SPURGEAR(10TEETH)
  1

  0
ARC
  5
67
330
64
100
AcDbEntity
  8
SLD-0
370
    18
100
AcDbCircle
 10
1.9080058705
 20
-0.7596539126
 30
0.0
 40
0.1587499999999999
100
AcDbArc
 50
158.2905084144
 51
243.8327389415
  0
ARC
  5
68
330
64
100
AcDbEntity
  8
SLD-0
370
    18
100
AcDbCircle
 10
1.9080058705
 20
-0.7596539126
 30
0.0
 40
0.1587499999999999
100
AcDbArc
 50
158.2905084144
 51
243.8327389415
  0
ARC
  5
69
330
64
100
AcDbEntity
  8
SLD-0
370
    18
100
AcDbCircle
 10
1.312080043
 20
-1.5798754475
 30
0.0
 40
0.1587499999999999
100
AcDbArc
 50
44.1672610585
 51
129.7094915856
  0
ARC
  5
6A
330
64
100
AcDbEntity
  8
SLD-0
370
    18
100
AcDbCircle
 10
1.312080043
 20
-1.5798754475
 30
0.0
 40
0.1587499999999999
100
AcDbArc
 50
44.1672610585
 51
129.7094915856
  0
ARC
  5
6B
330
64
100
AcDbEntity
  8
SLD-0
370
    18
100
AcDbCircle
 10
1.097095808
 20
-1.7360706371
 30
0.0
 40
0.1587500000000006
100
AcDbArc
 50
122.2905084144
 51
207.8327389415
  0
ARC
  5
6C
330
64
100
AcDbEntity
  8
SLD-0
370
    18
100
AcDbCircle
 10
1.097095808
 20
-1.7360706371
 30
0.0
 40
0.1587500000000006
100
AcDbArc
 50
122.2905084144
 51
207.8327389415
  0
ARC
  5
6D
330
64
100
AcDbEntity
  8
SLD-0
370
    18
100
AcDbCircle
 10
0.1328675643
 20
-2.0493673851
 30
0.0
 40
0.1587499999999999
100
AcDbArc
 50
8.1672610585
 51
93.7094915856
  0
ARC
  5
6E
330
64
100
AcDbEntity
  8
SLD-0
370
    18
100
AcDbCircle
 10
0.1328675643
 20
-2.0493673851
 30
0.0
 40
0.1587499999999999
100
AcDbArc
 50
8.1672610585
 51
93.7094915856
  0
ARC
  5
6F
330
64
100
AcDbEntity
  8
SLD-0
370
    18
100
AcDbCircle
 10
-0.1328675643
 20
-2.0493673851
 30
0.0
 40
0.1587499999999999
100
AcDbArc
 50
86.2905084144
 51
171.8327389415
  0
ARC
  5
70
330
64
100
AcDbEntity
  8
SLD-0
370
    18
100
AcDbCircle
 10
-0.1328675643
 20
-2.0493673851
 30
0.0
 40
0.1587499999999999
100
AcDbArc
 50
86.2905084144
 51
171.8327389415
  0
ARC
  5
71
330
64
100
AcDbEntity
  8
SLD-0
370
    18
100
AcDbCircle
 10
-1.097095808
 20
-1.7360706371
 30
0.0
 40
0.1587500000000004
100
AcDbArc
 50
332.1672610585
 51
57.7094915856
  0
ARC
  5
72
330
64
100
AcDbEntity
  8
SLD-0
370
    18
100
AcDbCircle
 10
-1.097095808
 20
-1.7360706371
 30
0.0
 40
0.1587500000000004
100
AcDbArc
 50
332.1672610585
 51
57.7094915856
  0
ARC
  5
73
330
64
100
AcDbEntity
  8
SLD-0
370
    18
100
AcDbCircle
 10
-1.312080043
 20
-1.5798754475
 30
0.0
 40
0.1587499999999995
100
AcDbArc
 50
50.2905084144
 51
135.8327389415
  0
ARC
  5
74
330
64
100
AcDbEntity
  8
SLD-0
370
    18
100
AcDbCircle
 10
-1.312080043
 20
-1.5798754475
 30
0.0
 40
0.1587499999999995
100
AcDbArc
 50
50.2905084144
 51
135.8327389415
  0
ARC
  5
75
330
64
100
AcDbEntity
  8
SLD-0
370
    18
100
AcDbCircle
 10
-1.9080058705
 20
-0.7596539126
 30
0.0
 40
0.1587500000000008
100
AcDbArc
 50
296.1672610585
 51
21.7094915856
  0
ARC
  5
76
330
64
100
AcDbEntity
  8
SLD-0
370
    18
100
AcDbCircle
 10
-1.9080058705
 20
-0.7596539126
 30
0.0
 40
0.1587500000000008
100
AcDbArc
 50
296.1672610585
 51
21.7094915856
  0
ARC
  5
77
330
64
100
AcDbEntity
  8
SLD-0
370
    18
100
AcDbCircle
 10
-1.9901225413
 20
-0.5069247869
 30
0.0
 40
0.1587500000000012
100
AcDbArc
 50
14.2905084144
 51
99.8327389415
  0
ARC
  5
78
330
64
100
AcDbEntity
  8
SLD-0
370
    18
100
AcDbCircle
 10
-1.9901225413
 20
-0.5069247869
 30
0.0
 40
0.1587500000000012
100
AcDbArc
 50
14.2905084144
 51
99.8327389415
  0
ARC
  5
79
330
64
100
AcDbEntity
  8
SLD-0
370
    18
100
AcDbCircle
 10
-1.9901225413
 20
0.5069247869
 30
0.0
 40
0.1587499999999997
100
AcDbArc
 50
260.1672610585
 51
345.7094915856
  0
ARC
  5
7A
330
64
100
AcDbEntity
  8
SLD-0
370
    18
100
AcDbCircle
 10
-1.9901225413
 20
0.5069247869
 30
0.0
 40
0.1587499999999997
100
AcDbArc
 50
260.1672610585
 51
345.7094915856
  0
ARC
  5
7B
330
64
100
AcDbEntity
  8
SLD-0
370
    18
100
AcDbCircle
 10
-1.9080058705
 20
0.7596539126
 30
0.0
 40
0.1587499999999999
100
AcDbArc
 50
338.2905084144
 51
63.8327389415
  0
ARC
  5
7C
330
64
100
AcDbEntity
  8
SLD-0
370
    18
100
AcDbCircle
 10
-1.9080058705
 20
0.7596539126
 30
0.0
 40
0.1587499999999999
100
AcDbArc
 50
338.2905084144
 51
63.8327389415
  0
ARC
  5
7D
330
64
100
AcDbEntity
  8
SLD-0
370
    18
100
AcDbCircle
 10
-1.312080043
 20
1.5798754475
 30
0.0
 40
0.1587500000000004
100
AcDbArc
 50
224.1672610585
 51
309.7094915856
  0
ARC
  5
7E
330
64
100
AcDbEntity
  8
SLD-0
370
    18
100
AcDbCircle
 10
-1.312080043
 20
1.5798754475
 30
0.0
 40
0.1587500000000004
100
AcDbArc
 50
224.1672610585
 51
309.7094915856
  0
ARC
  5
7F
330
64
100
AcDbEntity
  8
SLD-0
370
    18
100
AcDbCircle
 10
-1.097095808
 20
1.7360706371
 30
0.0
 40
0.1587499999999998
100
AcDbArc
 50
302.2905084144
 51
27.8327389415
  0
ARC
  5
80
330
64
100
AcDbEntity
  8
SLD-0
370
    18
100
AcDbCircle
 10
-1.097095808
 20
1.7360706371
 30
0.0
 40
0.1587499999999998
100
AcDbArc
 50
302.2905084144
 51
27.8327389415
  0
ARC
  5
81
330
64
100
AcDbEntity
  8
SLD-0
370
    18
100
AcDbCircle
 10
-0.1328675643
 20
2.0493673851
 30
0.0
 40
0.1587499999999999
100
AcDbArc
 50
188.1672610585
 51
273.7094915856
  0
ARC
  5
82
330
64
100
AcDbEntity
  8
SLD-0
370
    18
100
AcDbCircle
 10
-0.1328675643
 20
2.0493673851
 30
0.0
 40
0.1587499999999999
100
AcDbArc
 50
188.1672610585
 51
273.7094915856
  0
ARC
  5
83
330
64
100
AcDbEntity
  8
SLD-0
370
    18
100
AcDbCircle
 10
0.1328675643
 20
2.0493673851
 30
0.0
 40
0.1587499999999999
100
AcDbArc
 50
266.2905084144
 51
351.8327389415
  0
ARC
  5
84
330
64
100
AcDbEntity
  8
SLD-0
370
    18
100
AcDbCircle
 10
0.1328675643
 20
2.0493673851
 30
0.0
 40
0.1587499999999999
100
AcDbArc
 50
266.2905084144
 51
351.8327389415
  0
ARC
  5
85
330
64
100
AcDbEntity
  8
SLD-0
370
    18
100
AcDbCircle
 10
1.097095808
 20
1.7360706371
 30
0.0
 40
0.1587499999999997
100
AcDbArc
 50
152.1672610585
 51
237.7094915856
  0
ARC
  5
86
330
64
100
AcDbEntity
  8
SLD-0
370
    18
100
AcDbCircle
 10
1.097095808
 20
1.7360706371
 30
0.0
 40
0.1587499999999997
100
AcDbArc
 50
152.1672610585
 51
237.7094915856
  0
ARC
  5
87
330
64
100
AcDbEntity
  8
SLD-0
370
    18
100
AcDbCircle
 10
1.312080043
 20
1.5798754475
 30
0.0
 40
0.1587499999999991
100
AcDbArc
 50
230.2905084144
 51
315.8327389415
  0
ARC
  5
88
330
64
100
AcDbEntity
  8
SLD-0
370
    18
100
AcDbCircle
 10
1.312080043
 20
1.5798754475
 30
0.0
 40
0.1587499999999991
100
AcDbArc
 50
230.2905084144
 51
315.8327389415
  0
ARC
  5
89
330
64
100
AcDbEntity
  8
SLD-0
370
    18
100
AcDbCircle
 10
1.9080058705
 20
0.7596539126
 30
0.0
 40
0.1587500000000004
100
AcDbArc
 50
116.1672610585
 51
201.7094915856
  0
ARC
  5
8A
330
64
100
AcDbEntity
  8
SLD-0
370
    18
100
AcDbCircle
 10
1.9080058705
 20
0.7596539126
 30
0.0
 40
0.1587500000000004
100
AcDbArc
 50
116.1672610585
 51
201.7094915856
  0
ARC
  5
8B
330
64
100
AcDbEntity
  8
SLD-0
100
AcDbCircle
 10
0.0
 20
0.0
 30
0.0
 40
2.999999999999579
100
AcDbArc
 50
321.193878142
 51
326.806121858
  0
ARC
  5
8C
330
64
100
AcDbEntity
  8
SLD-0
100
AcDbCircle
 10
0.0
 20
0.0
 30
0.0
 40
2.999999999999579
100
AcDbArc
 50
321.193878142
 51
326.806121858
  0
ARC
  5
8D
330
64
100
AcDbEntity
  8
SLD-0
100
AcDbCircle
 10
0.0
 20
0.0
 30
0.0
 40
2.999999999999677
100
AcDbArc
 50
285.193878142
 51
290.806121858
  0
ARC
  5
8E
330
64
100
AcDbEntity
  8
SLD-0
100
AcDbCircle
 10
0.0
 20
0.0
 30
0.0
 40
2.999999999999677
100
AcDbArc
 50
285.193878142
 51
290.806121858
  0
ARC
  5
8F
330
64
100
AcDbEntity
  8
SLD-0
100
AcDbCircle
 10
0.0
 20
0.0
 30
0.0
 40
2.999999999999897
100
AcDbArc
 50
249.193878142
 51
254.806121858
  0
ARC
  5
90
330
64
100
AcDbEntity
  8
SLD-0
100
AcDbCircle
 10
0.0
 20
0.0
 30
0.0
 40
2.999999999999897
100
AcDbArc
 50
249.193878142
 51
254.806121858
  0
ARC
  5
91
330
64
100
AcDbEntity
  8
SLD-0
100
AcDbCircle
 10
0.0
 20
0.0
 30
0.0
 40
3.000000000000157
100
AcDbArc
 50
213.193878142
 51
218.806121858
  0
ARC
  5
92
330
64
100
AcDbEntity
  8
SLD-0
100
AcDbCircle
 10
0.0
 20
0.0
 30
0.0
 40
3.000000000000157
100
AcDbArc
 50
213.193878142
 51
218.806121858
  0
ARC
  5
93
330
64
100
AcDbEntity
  8
SLD-0
100
AcDbCircle
 10
0.0
 20
0.0
 30
0.0
 40
3.000000000000357
100
AcDbArc
 50
177.193878142
 51
182.806121858
  0
ARC
  5
94
330
64
100
AcDbEntity
  8
SLD-0
100
AcDbCircle
 10
0.0
 20
0.0
 30
0.0
 40
3.000000000000357
100
AcDbArc
 50
177.193878142
 51
182.806121858
  0
ARC
  5
95
330
64
100
AcDbEntity
  8
SLD-0
100
AcDbCircle
 10
0.0
 20
0.0
 30
0.0
 40
3.000000000000422
100
AcDbArc
 50
141.193878142
 51
146.806121858
  0
ARC
  5
96
330
64
100
AcDbEntity
  8
SLD-0
100
AcDbCircle
 10
0.0
 20
0.0
 30
0.0
 40
3.000000000000422
100
AcDbArc
 50
141.193878142
 51
146.806121858
  0
ARC
  5
97
330
64
100
AcDbEntity
  8
SLD-0
100
AcDbCircle
 10
0.0
 20
0.0
 30
0.0
 40
3.000000000000349
100
AcDbArc
 50
105.193878142
 51
110.806121858
  0
ARC
  5
98
330
64
100
AcDbEntity
  8
SLD-0
100
AcDbCircle
 10
0.0
 20
0.0
 30
0.0
 40
3.000000000000349
100
AcDbArc
 50
105.193878142
 51
110.806121858
  0
ARC
  5
99
330
64
100
AcDbEntity
  8
SLD-0
100
AcDbCircle
 10
0.0
 20
0.0
 30
0.0
 40
3.000000000000143
100
AcDbArc
 50
69.193878142
 51
74.806121858
  0
ARC
  5
9A
330
64
100
AcDbEntity
  8
SLD-0
100
AcDbCircle
 10
0.0
 20
0.0
 30
0.0
 40
3.000000000000143
100
AcDbArc
 50
69.193878142
 51
74.806121858
  0
ARC
  5
9B
330
64
100
AcDbEntity
  8
SLD-0
100
AcDbCircle
 10
0.0
 20
0.0
 30
0.0
 40
2.999999999999883
100
AcDbArc
 50
33.193878142
 51
38.806121858
  0
ARC
  5
9C
330
64
100
AcDbEntity
  8
SLD-0
100
AcDbCircle
 10
0.0
 20
0.0
 30
0.0
 40
2.999999999999883
100
AcDbArc
 50
33.193878142
 51
38.806121858
  0
CIRCLE
  5
9D
330
64
100
AcDbEntity
  8
SLD-0
100
AcDbCircle
 10
0.0
 20
0.0
 30
0.0
 40
0.3999999999996545
  0
ARC
  5
9E
330
64
100
AcDbEntity
  8
SLD-0
100
AcDbCircle
 10
0.0
 20
0.0
 30
0.0
 40
1.894919999999781
100
AcDbArc
 50
266.2905084144
 51
273.7094915856
  0
ARC
  5
9F
330
64
100
AcDbEntity
  8
SLD-0
100
AcDbCircle
 10
0.0
 20
0.0
 30
0.0
 40
1.894920000000035
100
AcDbArc
 50
230.2905084144
 51
237.7094915856
  0
ARC
  5
A0
330
64
100
AcDbEntity
  8
SLD-0
100
AcDbCircle
 10
0.0
 20
0.0
 30
0.0
 40
1.894920000000275
100
AcDbArc
 50
194.2905084144
 51
201.7094915856
  0
ARC
  5
A1
330
64
100
AcDbEntity
  8
SLD-0
100
AcDbCircle
 10
0.0
 20
0.0
 30
0.0
 40
1.894920000000411
100
AcDbArc
 50
158.2905084144
 51
165.7094915856
  0
ARC
  5
A2
330
64
100
AcDbEntity
  8
SLD-0
100
AcDbCircle
 10
0.0
 20
0.0
 30
0.0
 40
1.894920000000407
100
AcDbArc
 50
122.2905084144
 51
129.7094915856
  0
ARC
  5
A3
330
64
100
AcDbEntity
  8
SLD-0
100
AcDbCircle
 10
0.0
 20
0.0
 30
0.0
 40
1.894920000000264
100
AcDbArc
 50
86.2905084144
 51
93.7094915856
  0
ARC
  5
A4
330
64
100
AcDbEntity
  8
SLD-0
100
AcDbCircle
 10
0.0
 20
0.0
 30
0.0
 40
1.89492000000002
100
AcDbArc
 50
50.2905084144
 51
57.7094915856
  0
ARC
  5
A5
330
64
100
AcDbEntity
  8
SLD-0
100
AcDbCircle
 10
0.0
 20
0.0
 30
0.0
 40
1.894919999999768
100
AcDbArc
 50
14.2905084144
 51
21.7094915856
  0
ARC
  5
A6
330
64
100
AcDbEntity
  8
SLD-0
100
AcDbCircle
 10
1.9901225413
 20
0.5069247869
 30
0.0
 40
0.1587499999999998
100
AcDbArc
 50
194.2905084144
 51
279.8327389415
  0
ARC
  5
A7
330
64
100
AcDbEntity
  8
SLD-0
100
AcDbCircle
 10
0.0
 20
0.0
 30
0.0
 40
2.999999999999667
100
AcDbArc
 50
357.193878142
 51
2.806121858
  0
ARC
  5
A8
330
64
100
AcDbEntity
  8
SLD-0
100
AcDbCircle
 10
1.9901225413
 20
-0.5069247869
 30
0.0
 40
0.1587499999999998
100
AcDbArc
 50
80.1672610585
 51
165.7094915856
  0
ARC
  5
A9
330
64
100
AcDbEntity
  8
SLD-0
100
AcDbCircle
 10
0.0
 20
0.0
 30
0.0
 40
1.894919999999605
100
AcDbArc
 50
338.2905084144
 51
345.7094915856
  0
ARC
  5
AA
330
64
100
AcDbEntity
  8
SLD-0
100
AcDbCircle
 10
0.0
 20
0.0
 30
0.0
 40
1.894919999999611
100
AcDbArc
 50
302.2905084144
 51
309.7094915856
  0
ARC
  5
AB
330
64
100
AcDbEntity
  8
SLD-0
100
AcDbCircle
 10
0.0
 20
0.0
 30
0.0
 40
1.894919999999768
100
AcDbArc
 50
14.2905084144
 51
21.7094915856
  0
ARC
  5
AC
330
64
100
AcDbEntity
  8
SLD-0
100
AcDbCircle
 10
0.0
 20
0.0
 30
0.0
 40
1.89492000000002
100
AcDbArc
 50
50.2905084144
 51
57.7094915856
  0
ARC
  5
AD
330
64
100
AcDbEntity
  8
SLD-0
100
AcDbCircle
 10
0.0
 20
0.0
 30
0.0
 40
1.894920000000264
100
AcDbArc
 50
86.2905084144
 51
93.7094915856
  0
ARC
  5
AE
330
64
100
AcDbEntity
  8
SLD-0
100
AcDbCircle
 10
0.0
 20
0.0
 30
0.0
 40
1.894920000000407
100
AcDbArc
 50
122.2905084144
 51
129.7094915856
  0
ARC
  5
AF
330
64
100
AcDbEntity
  8
SLD-0
100
AcDbCircle
 10
0.0
 20
0.0
 30
0.0
 40
1.894920000000411
100
AcDbArc
 50
158.2905084144
 51
165.7094915856
  0
ARC
  5
B0
330
64
100
AcDbEntity
  8
SLD-0
100
AcDbCircle
 10
0.0
 20
0.0
 30
0.0
 40
1.894920000000275
100
AcDbArc
 50
194.2905084144
 51
201.7094915856
  0
ARC
  5
B1
330
64
100
AcDbEntity
  8
SLD-0
100
AcDbCircle
 10
0.0
 20
0.0
 30
0.0
 40
1.894920000000035
100
AcDbArc
 50
230.2905084144
 51
237.7094915856
  0
ARC
  5
B2
330
64
100
AcDbEntity
  8
SLD-0
100
AcDbCircle
 10
0.0
 20
0.0
 30
0.0
 40
1.894919999999781
100
AcDbArc
 50
266.2905084144
 51
273.7094915856
  0
ARC
  5
B3
330
64
100
AcDbEntity
  8
SLD-0
100
AcDbCircle
 10
0.0
 20
0.0
 30
0.0
 40
1.894919999999611
100
AcDbArc
 50
302.2905084144
 51
309.7094915856
  0
ARC
  5
B4
330
64
100
AcDbEntity
  8
SLD-0
100
AcDbCircle
 10
1.9901225413
 20
0.5069247869
 30
0.0
 40
0.1587499999999998
100
AcDbArc
 50
194.2905084144
 51
279.8327389415
  0
ARC
  5
B5
330
64
100
AcDbEntity
  8
SLD-0
100
AcDbCircle
 10
1.9901225413
 20
-0.5069247869
 30
0.0
 40
0.1587499999999998
100
AcDbArc
 50
80.1672610585
 51
165.7094915856
  0
ARC
  5
B6
330
64
100
AcDbEntity
  8
SLD-0
100
AcDbCircle
 10
0.0
 20
0.0
 30
0.0
 40
2.999999999999667
100
AcDbArc
 50
357.193878142
 51
2.806121858
  0
ARC
  5
B7
330
64
100
AcDbEntity
  8
SLD-0
100
AcDbCircle
 10
0.0
 20
0.0
 30
0.0
 40
1.894919999999605
100
AcDbArc
 50
338.2905084144
 51
345.7094915856
  0
CIRCLE
  5
B8
330
64
100
AcDbEntity
  8
SLD-0
100
AcDbCircle
 10
0.0
 20
0.0
 30
0.0
 40
0.3999999999996545
  0
LINE
  5
B9
330
64
100
AcDbEntity
  8
SLD-0
370
    18
100
AcDbLine
 10
2.1088435199
 20
-1.035213936
 30
0.0
 11
1.8379982183
 21
-0.9021337046
 31
0.0
  0
LINE
  5
BA
330
64
100
AcDbEntity
  8
SLD-0
370
    18
100
AcDbLine
 10
1.8379982183
 20
-0.9021337046
 30
0.0
 11
2.1088435199
 21
-1.035213936
 31
0.0
  0
LINE
  5
BB
330
64
100
AcDbEntity
  8
SLD-0
370
    18
100
AcDbLine
 10
1.4259528234
 20
-1.4692655365
 30
0.0
 11
1.6362154458
 21
-1.6857306724
 31
0.0
  0
LINE
  5
BC
330
64
100
AcDbEntity
  8
SLD-0
370
    18
100
AcDbLine
 10
1.4259528234
 20
-1.4692655365
 30
0.0
 11
1.6362154458
 21
-1.6857306724
 31
0.0
  0
LINE
  5
BD
330
64
100
AcDbEntity
  8
SLD-0
370
    18
100
AcDbLine
 10
1.0976067615
 20
-2.0770527875
 30
0.0
 11
0.9567109071
 21
-1.8101897446
 31
0.0
  0
LINE
  5
BE
330
64
100
AcDbEntity
  8
SLD-0
370
    18
100
AcDbLine
 10
0.9567109071
 20
-1.8101897446
 30
0.0
 11
1.0976067615
 21
-2.0770527875
 31
0.0
  0
LINE
  5
BF
330
64
100
AcDbEntity
  8
SLD-0
370
    18
100
AcDbLine
 10
0.2900074532
 20
-2.0268148283
 30
0.0
 11
0.3328784735
 21
-2.3255280705
 31
0.0
  0
LINE
  5
C0
330
64
100
AcDbEntity
  8
SLD-0
370
    18
100
AcDbLine
 10
0.2900074532
 20
-2.0268148283
 30
0.0
 11
0.3328784735
 21
-2.3255280705
 31
0.0
  0
LINE
  5
C1
330
64
100
AcDbEntity
  8
SLD-0
370
    18
100
AcDbLine
 10
-0.3328784735
 20
-2.3255280705
 30
0.0
 11
-0.2900074532
 21
-2.0268148283
 31
0.0
  0
LINE
  5
C2
330
64
100
AcDbEntity
  8
SLD-0
370
    18
100
AcDbLine
 10
-0.2900074532
 20
-2.0268148283
 30
0.0
 11
-0.3328784735
 21
-2.3255280705
 31
0.0
  0
LINE
  5
C3
330
64
100
AcDbEntity
  8
SLD-0
370
    18
100
AcDbLine
 10
-0.9567109071
 20
-1.8101897446
 30
0.0
 11
-1.0976067615
 21
-2.0770527875
 31
0.0
  0
LINE
  5
C4
330
64
100
AcDbEntity
  8
SLD-0
370
    18
100
AcDbLine
 10
-0.9567109071
 20
-1.8101897446
 30
0.0
 11
-1.0976067615
 21
-2.0770527875
 31
0.0
  0
LINE
  5
C5
330
64
100
AcDbEntity
  8
SLD-0
370
    18
100
AcDbLine
 10
-1.6362154458
 20
-1.6857306724
 30
0.0
 11
-1.4259528234
 21
-1.4692655365
 31
0.0
  0
LINE
  5
C6
330
64
100
AcDbEntity
  8
SLD-0
370
    18
100
AcDbLine
 10
-1.4259528234
 20
-1.4692655365
 30
0.0
 11
-1.6362154458
 21
-1.6857306724
 31
0.0
  0
LINE
  5
C7
330
64
100
AcDbEntity
  8
SLD-0
370
    18
100
AcDbLine
 10
-1.8379982183
 20
-0.9021337046
 30
0.0
 11
-2.1088435199
 21
-1.035213936
 31
0.0
  0
LINE
  5
C8
330
64
100
AcDbEntity
  8
SLD-0
370
    18
100
AcDbLine
 10
-1.8379982183
 20
-0.9021337046
 30
0.0
 11
-2.1088435199
 21
-1.035213936
 31
0.0
  0
LINE
  5
C9
330
64
100
AcDbEntity
  8
SLD-0
370
    18
100
AcDbLine
 10
-2.3145737306
 20
-0.4020414533
 30
0.0
 11
-2.0172326813
 21
-0.3505067482
 31
0.0
  0
LINE
  5
CA
330
64
100
AcDbEntity
  8
SLD-0
370
    18
100
AcDbLine
 10
-2.0172326813
 20
-0.3505067482
 30
0.0
 11
-2.3145737306
 21
-0.4020414533
 31
0.0
  0
LINE
  5
CB
330
64
100
AcDbEntity
  8
SLD-0
370
    18
100
AcDbLine
 10
-2.0172326813
 20
0.3505067482
 30
0.0
 11
-2.3145737306
 21
0.4020414533
 31
0.0
  0
LINE
  5
CC
330
64
100
AcDbEntity
  8
SLD-0
370
    18
100
AcDbLine
 10
-2.0172326813
 20
0.3505067482
 30
0.0
 11
-2.3145737306
 21
0.4020414533
 31
0.0
  0
LINE
  5
CD
330
64
100
AcDbEntity
  8
SLD-0
370
    18
100
AcDbLine
 10
-2.1088435199
 20
1.035213936
 30
0.0
 11
-1.8379982183
 21
0.9021337046
 31
0.0
  0
LINE
  5
CE
330
64
100
AcDbEntity
  8
SLD-0
370
    18
100
AcDbLine
 10
-1.8379982183
 20
0.9021337046
 30
0.0
 11
-2.1088435199
 21
1.035213936
 31
0.0
  0
LINE
  5
CF
330
64
100
AcDbEntity
  8
SLD-0
370
    18
100
AcDbLine
 10
-1.4259528234
 20
1.4692655365
 30
0.0
 11
-1.6362154458
 21
1.6857306724
 31
0.0
  0
LINE
  5
D0
330
64
100
AcDbEntity
  8
SLD-0
370
    18
100
AcDbLine
 10
-1.4259528234
 20
1.4692655365
 30
0.0
 11
-1.6362154458
 21
1.6857306724
 31
0.0
  0
LINE
  5
D1
330
64
100
AcDbEntity
  8
SLD-0
370
    18
100
AcDbLine
 10
-1.0976067615
 20
2.0770527875
 30
0.0
 11
-0.9567109071
 21
1.8101897446
 31
0.0
  0
LINE
  5
D2
330
64
100
AcDbEntity
  8
SLD-0
370
    18
100
AcDbLine
 10
-0.9567109071
 20
1.8101897446
 30
0.0
 11
-1.0976067615
 21
2.0770527875
 31
0.0
  0
LINE
  5
D3
330
64
100
AcDbEntity
  8
SLD-0
370
    18
100
AcDbLine
 10
-0.2900074532
 20
2.0268148283
 30
0.0
 11
-0.3328784735
 21
2.3255280705
 31
0.0
  0
LINE
  5
D4
330
64
100
AcDbEntity
  8
SLD-0
370
    18
100
AcDbLine
 10
-0.2900074532
 20
2.0268148283
 30
0.0
 11
-0.3328784735
 21
2.3255280705
 31
0.0
  0
LINE
  5
D5
330
64
100
AcDbEntity
  8
SLD-0
370
    18
100
AcDbLine
 10
0.3328784735
 20
2.3255280705
 30
0.0
 11
0.2900074532
 21
2.0268148283
 31
0.0
  0
LINE
  5
D6
330
64
100
AcDbEntity
  8
SLD-0
370
    18
100
AcDbLine
 10
0.2900074532
 20
2.0268148283
 30
0.0
 11
0.3328784735
 21
2.3255280705
 31
0.0
  0
LINE
  5
D7
330
64
100
AcDbEntity
  8
SLD-0
370
    18
100
AcDbLine
 10
0.9567109071
 20
1.8101897446
 30
0.0
 11
1.0976067615
 21
2.0770527875
 31
0.0
  0
LINE
  5
D8
330
64
100
AcDbEntity
  8
SLD-0
370
    18
100
AcDbLine
 10
0.9567109071
 20
1.8101897446
 30
0.0
 11
1.0976067615
 21
2.0770527875
 31
0.0
  0
LINE
  5
D9
330
64
100
AcDbEntity
  8
SLD-0
370
    18
100
AcDbLine
 10
1.6362154458
 20
1.6857306724
 30
0.0
 11
1.4259528234
 21
1.4692655365
 31
0.0
  0
LINE
  5
DA
330
64
100
AcDbEntity
  8
SLD-0
370
    18
100
AcDbLine
 10
1.4259528234
 20
1.4692655365
 30
0.0
 11
1.6362154458
 21
1.6857306724
 31
0.0
  0
LINE
  5
DB
330
64
100
AcDbEntity
  8
SLD-0
370
    18
100
AcDbLine
 10
1.8379982183
 20
0.9021337046
 30
0.0
 11
2.1088435199
 21
1.035213936
 31
0.0
  0
LINE
  5
DC
330
64
100
AcDbEntity
  8
SLD-0
370
    18
100
AcDbLine
 10
1.8379982183
 20
0.9021337046
 30
0.0
 11
2.1088435199
 21
1.035213936
 31
0.0
  0
LINE
  5
DD
330
64
100
AcDbEntity
  8
SLD-0
100
AcDbLine
 10
2.0172326813
 20
0.3505067482
 30
0.0
 11
2.3145737306
 21
0.4020414533
 31
0.0
  0
LINE
  5
DE
330
64
100
AcDbEntity
  8
SLD-0
100
AcDbLine
 10
2.0172326813
 20
-0.3505067482
 30
0.0
 11
2.3145737306
 21
-0.4020414533
 31
0.0
  0
LINE
  5
DF
330
64
100
AcDbEntity
  8
SLD-0
100
AcDbLine
 10
2.3145737306
 20
0.4020414533
 30
0.0
 11
2.0172326813
 21
0.3505067482
 31
0.0
  0
LINE
  5
E0
330
64
100
AcDbEntity
  8
SLD-0
100
AcDbLine
 10
2.0172326813
 20
-0.3505067482
 30
0.0
 11
2.3145737306
 21
-0.4020414533
 31
0.0
  0
SPLINE
  5
E1
330
64
100
AcDbEntity
  8
SLD-0
  6
Continuous
100
AcDbSpline
210
0.0
220
0.0
230
1.0
 70
    12
 71
     5
 72
    26
 73
    20
 74
     0
 42
0.00000001
 43
0.00000001
 40
0.0
 40
0.0
 40
0.0
 40
0.0
 40
0.0
 40
0.0
 40
0.0714285714285714
 40
0.1
 40
0.1428571428571429
 40
0.1857142857142857
 40
0.2142857142857143
 40
0.2714285714285715
 40
0.3571428571428572
 40
0.4142857142857144
 40
0.4857142857142858
 40
0.5714285714285713
 40
0.6571428571428567
 40
0.7428571428571421
 40
0.8285714285714275
 40
0.9142857142857129
 40
1.0
 40
1.0
 40
1.0
 40
1.0
 40
1.0
 40
1.0
 10
2.108843519888689
 20
-1.035213936039452
 30
0.0
 41
1.0
 10
2.117662914191377
 20
-1.039547358211732
 30
0.0
 41
1.0
 10
2.129407528263118
 20
-1.046635387283686
 30
0.0
 41
1.0
 10
2.144985535544242
 20
-1.058795298936805
 30
0.0
 41
1.0
 10
2.164989553015439
 20
-1.075077324806136
 30
0.0
 41
1.0
 10
2.18761719702909
 20
-1.094579505189273
 30
0.0
 41
1.0
 10
2.207878611083825
 20
-1.114104439749409
 30
0.0
 41
1.0
 10
2.233020171672419
 20
-1.140541287140235
 30
0.0
 41
1.0
 10
2.258803123484411
 20
-1.169439935557903
 30
0.0
 41
1.0
 10
2.285934543337192
 20
-1.203230660593495
 30
0.0
 41
1.0
 10
2.316854322093098
 20
-1.24508945832257
 30
0.0
 41
1.0
 10
2.348383392274833
 20
-1.292471812234626
 30
0.0
 41
1.0
 10
2.378224890852173
 20
-1.341638279855968
 30
0.0
 41
1.0
 10
2.408219892157283
 20
-1.396527563571474
 30
0.0
 41
1.0
 10
2.437129914016535
 20
-1.455253076449569
 30
0.0
 41
1.0
 10
2.463874247979204
 20
-1.515865771772397
 30
0.0
 41
1.0
 10
2.483582076384199
 20
-1.565699333878838
 30
0.0
 41
1.0
 10
2.497395334102193
 20
-1.603795541737219
 30
0.0
 41
1.0
 10
2.506181327798647
 20
-1.629495088160109
 30
0.0
 41
1.0
 10
2.510468441819071
 20
-1.642421444888775
 30
0.0
 41
1.0
  0
SPLINE
  5
E2
330
64
100
AcDbEntity
  8
SLD-0
  6
Continuous
100
AcDbSpline
210
0.0
220
0.0
230
1.0
 70
    12
 71
     5
 72
    25
 73
    19
 74
     0
 42
0.00000001
 43
0.00000001
 40
-1.0
 40
-1.0
 40
-1.0
 40
-1.0
 40
-1.0
 40
-1.0
 40
-0.7857142857142848
 40
-0.6857142857142852
 40
-0.5714285714285713
 40
-0.4714285714285715
 40
-0.4142857142857144
 40
-0.3428571428571429
 40
-0.2857142857142858
 40
-0.2428571428571429
 40
-0.2
 40
-0.1428571428571429
 40
-0.1142857142857143
 40
-0.0714285714285714
 40
-0.0428571428571429
 40
0.0
 40
0.0
 40
0.0
 40
0.0
 40
0.0
 40
0.0
 10
2.510468441819071
 20
-1.642421444888775
 30
0.0
 41
1.0
 10
2.49975065676802
 20
-1.610105553067109
 30
0.0
 41
1.0
 10
2.483060646104709
 20
-1.563410927303236
 30
0.0
 41
1.0
 10
2.458345091669926
 20
-1.501126041056047
 30
0.0
 41
1.0
 10
2.424586955043534
 20
-1.426999409961627
 30
0.0
 41
1.0
 10
2.382647065145549
 20
-1.34892524895316
 30
0.0
 41
1.0
 10
2.348500948347115
 20
-1.29234312154151
 30
0.0
 41
1.0
 10
2.315615623138153
 20
-1.243415898535838
 30
0.0
 41
1.0
 10
2.287111256816316
 20
-1.204974733716218
 30
0.0
 41
1.0
 10
2.262661598351003
 20
-1.174292048858899
 30
0.0
 41
1.0
 10
2.237126016936968
 20
-1.14505630440682
 30
0.0
 41
1.0
 10
2.214925296689219
 20
-1.121363644811195
 30
0.0
 41
1.0
 10
2.193562487256388
 20
-1.099918375054497
 30
0.0
 41
1.0
 10
2.172584216235234
 20
-1.081496605536256
 30
0.0
 41
1.0
 10
2.151127926085211
 20
-1.063824541830745
 30
0.0
 41
1.0
 10
2.135703996058053
 20
-1.051388553587254
 30
0.0
 41
1.0
 10
2.122696320222127
 20
-1.042585084956855
 30
0.0
 41
1.0
 10
2.114135156470301
 20
-1.03781398934282
 30
0.0
 41
1.0
 10
2.108843519888689
 20
-1.035213936039452
 30
0.0
 41
1.0
  0
SPLINE
  5
E3
330
64
100
AcDbEntity
  8
SLD-0
  6
Continuous
100
AcDbSpline
210
0.0
220
0.0
230
1.0
 70
    12
 71
     5
 72
    26
 73
    20
 74
     0
 42
0.00000001
 43
0.00000001
 40
0.0
 40
0.0
 40
0.0
 40
0.0
 40
0.0
 40
0.0
 40
0.0714285714285714
 40
0.1
 40
0.1428571428571429
 40
0.1857142857142857
 40
0.2142857142857143
 40
0.2714285714285715
 40
0.3571428571428572
 40
0.4142857142857144
 40
0.4857142857142858
 40
0.5714285714285713
 40
0.6571428571428567
 40
0.7428571428571421
 40
0.8285714285714275
 40
0.9142857142857129
 40
1.0
 40
1.0
 40
1.0
 40
1.0
 40
1.0
 40
1.0
 10
1.636215445752961
 20
-1.685730672386976
 30
0.0
 41
1.0
 10
1.643062117867392
 20
-1.692779313713289
 30
0.0
 41
1.0
 10
1.65343251944448
 20
-1.70175878401772
 30
0.0
 41
1.0
 10
1.669811151648161
 20
-1.712816730002436
 30
0.0
 41
1.0
 10
1.691477859804013
 20
-1.726810258474009
 30
0.0
 41
1.0
 10
1.717017862082266
 20
-1.742303921595854
 30
0.0
 41
1.0
 10
1.741848299598892
 20
-1.755540134868817
 30
0.0
 41
1.0
 10
1.774760405067225
 20
-1.771281744774969
 30
0.0
 41
1.0
 10
1.810212023232016
 20
-1.786872615629567
 30
0.0
 41
1.0
 10
1.850732982283487
 20
-1.802234220988625
 30
0.0
 41
1.0
 10
1.9000978017259
 20
-1.818705598194465
 30
0.0
 41
1.0
 10
1.954904116674363
 20
-1.834049573251216
 30
0.0
 41
1.0
 10
2.010885736286866
 20
-1.847237250880833
 30
0.0
 41
1.0
 10
2.072357512388851
 20
-1.858802470851173
 30
0.0
 41
1.0
 10
2.137142482146572
 20
-1.86815035404392
 30
0.0
 41
1.0
 10
2.203053034701305
 20
-1.874855374203494
 30
0.0
 41
1.0
 10
2.256537622572183
 20
-1.878199215248947
 30
0.0
 41
1.0
 10
2.297037800684621
 20
-1.879564028363419
 30
0.0
 41
1.0
 10
2.324194543140565
 20
-1.879978408328169
 30
0.0
 41
1.0
 10
2.337813030028457
 20
-1.880061232148881
 30
0.0
 41
1.0
  0
SPLINE
  5
E4
330
64
100
AcDbEntity
  8
SLD-0
  6
Continuous
100
AcDbSpline
210
0.0
220
0.0
230
1.0
 70
    12
 71
     5
 72
    26
 73
    20
 74
     0
 42
0.00000001
 43
0.00000001
 40
0.0
 40
0.0
 40
0.0
 40
0.0
 40
0.0
 40
0.0
 40
0.0714285714285714
 40
0.1
 40
0.1428571428571429
 40
0.1857142857142857
 40
0.2142857142857143
 40
0.2714285714285715
 40
0.3571428571428572
 40
0.4142857142857144
 40
0.4857142857142858
 40
0.5714285714285713
 40
0.6571428571428567
 40
0.7428571428571421
 40
0.8285714285714275
 40
0.9142857142857129
 40
1.0
 40
1.0
 40
1.0
 40
1.0
 40
1.0
 40
1.0
 10
1.636215445752961
 20
-1.685730672386976
 30
0.0
 41
1.0
 10
1.643062117867392
 20
-1.692779313713289
 30
0.0
 41
1.0
 10
1.65343251944448
 20
-1.70175878401772
 30
0.0
 41
1.0
 10
1.669811151648161
 20
-1.712816730002436
 30
0.0
 41
1.0
 10
1.691477859804013
 20
-1.726810258474009
 30
0.0
 41
1.0
 10
1.717017862082266
 20
-1.742303921595854
 30
0.0
 41
1.0
 10
1.741848299598892
 20
-1.755540134868817
 30
0.0
 41
1.0
 10
1.774760405067225
 20
-1.771281744774969
 30
0.0
 41
1.0
 10
1.810212023232016
 20
-1.786872615629567
 30
0.0
 41
1.0
 10
1.850732982283487
 20
-1.802234220988625
 30
0.0
 41
1.0
 10
1.9000978017259
 20
-1.818705598194465
 30
0.0
 41
1.0
 10
1.954904116674363
 20
-1.834049573251216
 30
0.0
 41
1.0
 10
2.010885736286866
 20
-1.847237250880833
 30
0.0
 41
1.0
 10
2.072357512388851
 20
-1.858802470851173
 30
0.0
 41
1.0
 10
2.137142482146572
 20
-1.86815035404392
 30
0.0
 41
1.0
 10
2.203053034701305
 20
-1.874855374203494
 30
0.0
 41
1.0
 10
2.256537622572183
 20
-1.878199215248947
 30
0.0
 41
1.0
 10
2.297037800684621
 20
-1.879564028363419
 30
0.0
 41
1.0
 10
2.324194543140565
 20
-1.879978408328169
 30
0.0
 41
1.0
 10
2.337813030028457
 20
-1.880061232148881
 30
0.0
 41
1.0
  0
SPLINE
  5
E5
330
64
100
AcDbEntity
  8
SLD-0
  6
Continuous
100
AcDbSpline
210
0.0
220
0.0
230
1.0
 70
    12
 71
     5
 72
    26
 73
    20
 74
     0
 42
0.00000001
 43
0.00000001
 40
0.0
 40
0.0
 40
0.0
 40
0.0
 40
0.0
 40
0.0
 40
0.0714285714285714
 40
0.1
 40
0.1428571428571429
 40
0.1857142857142857
 40
0.2142857142857143
 40
0.2714285714285715
 40
0.3571428571428572
 40
0.4142857142857144
 40
0.4857142857142858
 40
0.5714285714285713
 40
0.6571428571428567
 40
0.7428571428571421
 40
0.8285714285714275
 40
0.9142857142857129
 40
1.0
 40
1.0
 40
1.0
 40
1.0
 40
1.0
 40
1.0
 10
1.097606761495798
 20
-2.077052787452816
 30
0.0
 41
1.0
 10
1.102194679721943
 20
-2.085742509539267
 30
0.0
 41
1.0
 10
1.107530033142047
 20
-2.098380156460312
 30
0.0
 41
1.0
 10
1.112985489032081
 20
-2.11737425457777
 30
0.0
 41
1.0
 10
1.119598744438624
 20
-2.142304756665057
 30
0.0
 41
1.0
 10
1.126441798971574
 20
-2.171382547467744
 30
0.0
 41
1.0
 10
1.1313571586855
 20
-2.199087911712911
 30
0.0
 41
1.0
 10
1.136157919453343
 20
-2.235253609063384
 30
0.0
 41
1.0
 10
1.140030566283314
 20
-2.273787945583394
 30
0.0
 41
1.0
 10
1.142118656185524
 20
-2.317072664852659
 30
0.0
 41
1.0
 10
1.142529298677543
 20
-2.369111333536459
 30
0.0
 41
1.0
 10
1.14018620342299
 20
-2.425976785556116
 30
0.0
 41
1.0
 10
1.13542915833453
 20
-2.483293686185231
 30
0.0
 41
1.0
 10
1.127432512659791
 20
-2.54533066892978
 30
0.0
 41
1.0
 10
1.11630322124863
 20
-2.609833491343864
 30
0.0
 41
1.0
 10
1.102312593515206
 20
-2.67459011702056
 30
0.0
 41
1.0
 10
1.088965128741709
 20
-2.726490286546078
 30
0.0
 41
1.0
 10
1.077747899835823
 20
-2.765429995297511
 30
0.0
 41
1.0
 10
1.069750103670741
 20
-2.791385642622844
 30
0.0
 41
1.0
 10
1.065620529919105
 20
-2.804363187287789
 30
0.0
 41
1.0
  0
SPLINE
  5
E6
330
64
100
AcDbEntity
  8
SLD-0
  6
Continuous
100
AcDbSpline
210
0.0
220
0.0
230
1.0
 70
    12
 71
     5
 72
    25
 73
    19
 74
     0
 42
0.00000001
 43
0.00000001
 40
-1.0
 40
-1.0
 40
-1.0
 40
-1.0
 40
-1.0
 40
-1.0
 40
-0.7857142857142848
 40
-0.6857142857142852
 40
-0.5714285714285713
 40
-0.4714285714285715
 40
-0.4142857142857144
 40
-0.3428571428571429
 40
-0.2857142857142858
 40
-0.2428571428571429
 40
-0.2
 40
-0.1428571428571429
 40
-0.1142857142857143
 40
-0.0714285714285714
 40
-0.0428571428571429
 40
0.0
 40
0.0
 40
0.0
 40
0.0
 40
0.0
 40
0.0
 10
1.065620529919105
 20
-2.804363187287789
 30
0.0
 41
1.0
 10
1.075944464298191
 20
-2.77191932562543
 30
0.0
 41
1.0
 10
1.0898883744209
 20
-2.724332437708147
 30
0.0
 41
1.0
 10
1.106503208433944
 20
-2.659415467842059
 30
0.0
 41
1.0
 10
1.122762842764787
 20
-2.579603228697473
 30
0.0
 41
1.0
 10
1.134723599520606
 20
-2.491788256854983
 30
0.0
 41
1.0
 10
1.140356950774824
 20
-2.425941770323996
 30
0.0
 41
1.0
 10
1.142510863933515
 20
-2.367029306250127
 30
0.0
 41
1.0
 10
1.142045496927212
 20
-2.319175304477587
 30
0.0
 41
1.0
 10
1.140300137381962
 20
-2.279981342325459
 30
0.0
 41
1.0
 10
1.136825757485499
 20
-2.241319690056643
 30
0.0
 41
1.0
 10
1.132791193415593
 20
-2.209102669849942
 30
0.0
 41
1.0
 10
1.128113530831265
 20
-2.17919633783567
 30
0.0
 41
1.0
 10
1.121969797506496
 20
-2.151962094904118
 30
0.0
 41
1.0
 10
1.114998672562563
 20
-2.125053404121598
 30
0.0
 41
1.0
 10
1.109830141537748
 20
-2.105926519688408
 30
0.0
 41
1.0
 10
1.10448125975913
 20
-2.091158643934001
 30
0.0
 41
1.0
 10
1.100359512431485
 20
-2.082266620704686
 30
0.0
 41
1.0
 10
1.097606761495798
 20
-2.077052787452816
 30
0.0
 41
1.0
  0
SPLINE
  5
E7
330
64
100
AcDbEntity
  8
SLD-0
  6
Continuous
100
AcDbSpline
210
0.0
220
0.0
230
1.0
 70
    12
 71
     5
 72
    26
 73
    20
 74
     0
 42
0.00000001
 43
0.00000001
 40
0.0
 40
0.0
 40
0.0
 40
0.0
 40
0.0
 40
0.0
 40
0.0714285714285714
 40
0.1
 40
0.1428571428571429
 40
0.1857142857142857
 40
0.2142857142857143
 40
0.2714285714285715
 40
0.3571428571428572
 40
0.4142857142857144
 40
0.4857142857142858
 40
0.5714285714285713
 40
0.6571428571428567
 40
0.7428571428571421
 40
0.8285714285714275
 40
0.9142857142857129
 40
1.0
 40
1.0
 40
1.0
 40
1.0
 40
1.0
 40
1.0
 10
0.3328784735067863
 20
-2.325528070486916
 30
0.0
 41
1.0
 10
0.3342744601819685
 20
-2.3352549140033
 30
0.0
 41
1.0
 10
0.3373862910779848
 20
-2.34861502718745
 30
0.0
 41
1.0
 10
0.3441371853049129
 20
-2.367188211873982
 30
0.0
 41
1.0
 10
0.353440730752036
 20
-2.391244585738511
 30
0.0
 41
1.0
 10
0.3649960799445107
 20
-2.418791259191864
 30
0.0
 41
1.0
 10
0.3773042749151777
 20
-2.444094545651112
 30
0.0
 41
1.0
 10
0.3946780414095445
 20
-2.476175025800185
 30
0.0
 41
1.0
 10
0.4141949190242256
 20
-2.509626243605831
 30
0.0
 41
1.0
 10
0.4379477384436385
 20
-2.545871665541398
 30
0.0
 41
1.0
 10
0.4682030836902684
 20
-2.588213202472009
 30
0.0
 41
1.0
 10
0.5035233616327297
 20
-2.632841082713384
 30
0.0
 41
1.0
 10
0.5410619208492183
 20
-2.676415308439761
 30
0.0
 41
1.0
 10
0.5839957666520362
 20
-2.721903971364419
 30
0.0
 41
1.0
 10
0.6309133602852649
 20
-2.767546217522602
 30
0.0
 41
1.0
 10
0.6802950054445542
 20
-2.811711943541421
 30
0.0
 41
1.0
 10
0.7215994855167092
 20
-2.84585461974913
 30
0.0
 41
1.0
 10
0.7535626008640557
 20
-2.870764184162579
 30
0.0
 41
1.0
 10
0.775289300590661
 20
-2.887061757312121
 30
0.0
 41
1.0
 10
0.7862582053002831
 20
-2.895133508941856
 30
0.0
 41
1.0
  0
SPLINE
  5
E8
330
64
100
AcDbEntity
  8
SLD-0
  6
Continuous
100
AcDbSpline
210
0.0
220
0.0
230
1.0
 70
    12
 71
     5
 72
    26
 73
    20
 74
     0
 42
0.00000001
 43
0.00000001
 40
0.0
 40
0.0
 40
0.0
 40
0.0
 40
0.0
 40
0.0
 40
0.0714285714285714
 40
0.1
 40
0.1428571428571429
 40
0.1857142857142857
 40
0.2142857142857143
 40
0.2714285714285715
 40
0.3571428571428572
 40
0.4142857142857144
 40
0.4857142857142858
 40
0.5714285714285713
 40
0.6571428571428567
 40
0.7428571428571421
 40
0.8285714285714275
 40
0.9142857142857129
 40
1.0
 40
1.0
 40
1.0
 40
1.0
 40
1.0
 40
1.0
 10
0.3328784735067863
 20
-2.325528070486916
 30
0.0
 41
1.0
 10
0.3342744601819685
 20
-2.3352549140033
 30
0.0
 41
1.0
 10
0.3373862910779848
 20
-2.34861502718745
 30
0.0
 41
1.0
 10
0.3441371853049129
 20
-2.367188211873982
 30
0.0
 41
1.0
 10
0.353440730752036
 20
-2.391244585738511
 30
0.0
 41
1.0
 10
0.3649960799445107
 20
-2.418791259191864
 30
0.0
 41
1.0
 10
0.3773042749151777
 20
-2.444094545651112
 30
0.0
 41
1.0
 10
0.3946780414095445
 20
-2.476175025800185
 30
0.0
 41
1.0
 10
0.4141949190242256
 20
-2.509626243605831
 30
0.0
 41
1.0
 10
0.4379477384436385
 20
-2.545871665541398
 30
0.0
 41
1.0
 10
0.4682030836902684
 20
-2.588213202472009
 30
0.0
 41
1.0
 10
0.5035233616327297
 20
-2.632841082713384
 30
0.0
 41
1.0
 10
0.5410619208492183
 20
-2.676415308439761
 30
0.0
 41
1.0
 10
0.5839957666520362
 20
-2.721903971364419
 30
0.0
 41
1.0
 10
0.6309133602852649
 20
-2.767546217522602
 30
0.0
 41
1.0
 10
0.6802950054445542
 20
-2.811711943541421
 30
0.0
 41
1.0
 10
0.7215994855167092
 20
-2.84585461974913
 30
0.0
 41
1.0
 10
0.7535626008640557
 20
-2.870764184162579
 30
0.0
 41
1.0
 10
0.775289300590661
 20
-2.887061757312121
 30
0.0
 41
1.0
 10
0.7862582053002831
 20
-2.895133508941856
 30
0.0
 41
1.0
  0
SPLINE
  5
E9
330
64
100
AcDbEntity
  8
SLD-0
  6
Continuous
100
AcDbSpline
210
0.0
220
0.0
230
1.0
 70
    12
 71
     5
 72
    26
 73
    20
 74
     0
 42
0.00000001
 43
0.00000001
 40
0.0
 40
0.0
 40
0.0
 40
0.0
 40
0.0
 40
0.0
 40
0.0714285714285714
 40
0.1
 40
0.1428571428571429
 40
0.1857142857142857
 40
0.2142857142857143
 40
0.2714285714285715
 40
0.3571428571428572
 40
0.4142857142857144
 40
0.4857142857142858
 40
0.5714285714285713
 40
0.6571428571428567
 40
0.7428571428571421
 40
0.8285714285714275
 40
0.9142857142857129
 40
1.0
 40
1.0
 40
1.0
 40
1.0
 40
1.0
 40
1.0
 10
-0.3328784735067869
 20
-2.325528070486916
 30
0.0
 41
1.0
 10
-0.3342744601819698
 20
-2.335254914003303
 30
0.0
 41
1.0
 10
-0.3373862910779797
 20
-2.348615027187432
 30
0.0
 41
1.0
 10
-0.3441371853049169
 20
-2.367188211873997
 30
0.0
 41
1.0
 10
-0.3534407307520341
 20
-2.391244585738503
 30
0.0
 41
1.0
 10
-0.3649960799445106
 20
-2.418791259191869
 30
0.0
 41
1.0
 10
-0.377304274915176
 20
-2.444094545651109
 30
0.0
 41
1.0
 10
-0.394678041409548
 20
-2.47617502580019
 30
0.0
 41
1.0
 10
-0.4141949190242231
 20
-2.509626243605826
 30
0.0
 41
1.0
 10
-0.4379477384436429
 20
-2.545871665541401
 30
0.0
 41
1.0
 10
-0.4682030836902671
 20
-2.588213202472009
 30
0.0
 41
1.0
 10
-0.5035233616327394
 20
-2.632841082713395
 30
0.0
 41
1.0
 10
-0.5410619208492143
 20
-2.676415308439753
 30
0.0
 41
1.0
 10
-0.5839957666520463
 20
-2.721903971364423
 30
0.0
 41
1.0
 10
-0.6309133602852584
 20
-2.767546217522608
 30
0.0
 41
1.0
 10
-0.6802950054445595
 20
-2.811711943541417
 30
0.0
 41
1.0
 10
-0.7215994855167104
 20
-2.845854619749137
 30
0.0
 41
1.0
 10
-0.7535626008640696
 20
-2.8707641841626
 30
0.0
 41
1.0
 10
-0.7752893005906619
 20
-2.887061757312121
 30
0.0
 41
1.0
 10
-0.7862582053002838
 20
-2.895133508941856
 30
0.0
 41
1.0
  0
SPLINE
  5
EA
330
64
100
AcDbEntity
  8
SLD-0
  6
Continuous
100
AcDbSpline
210
0.0
220
0.0
230
1.0
 70
    12
 71
     5
 72
    25
 73
    19
 74
     0
 42
0.00000001
 43
0.00000001
 40
-1.0
 40
-1.0
 40
-1.0
 40
-1.0
 40
-1.0
 40
-1.0
 40
-0.7857142857142848
 40
-0.6857142857142852
 40
-0.5714285714285713
 40
-0.4714285714285715
 40
-0.4142857142857144
 40
-0.3428571428571429
 40
-0.2857142857142858
 40
-0.2428571428571429
 40
-0.2
 40
-0.1428571428571429
 40
-0.1142857142857143
 40
-0.0714285714285714
 40
-0.0428571428571429
 40
0.0
 40
0.0
 40
0.0
 40
0.0
 40
0.0
 40
0.0
 10
-0.7862582053002838
 20
-2.895133508941856
 30
0.0
 41
1.0
 10
-0.7588359435262307
 20
-2.874954129867511
 30
0.0
 41
1.0
 10
-0.7195842123489204
 20
-2.844651553562537
 30
0.0
 41
1.0
 10
-0.6679852917622946
 20
-2.801898576119514
 30
0.0
 41
1.0
 10
-0.6079185141452357
 20
-2.746886291559941
 30
0.0
 41
1.0
 10
-0.5466257132843352
 20
-2.682872843406023
 30
0.0
 41
1.0
 10
-0.5033646426863642
 20
-2.632913117570836
 30
0.0
 41
1.0
 10
-0.4669942127776613
 20
-2.586517971343931
 30
0.0
 41
1.0
 10
-0.439242826089351
 20
-2.547529734797914
 30
0.0
 41
1.0
 10
-0.4176172186907975
 20
-2.514795256739299
 30
0.0
 41
1.0
 10
-0.3977033020390966
 20
-2.48147513375921
 30
0.0
 41
1.0
 10
-0.3820306435862275
 20
-2.453039559644148
 30
0.0
 41
1.0
 10
-0.3682364512027543
 20
-2.426095367722914
 30
0.0
 41
1.0
 10
-0.3571989495188826
 20
-2.400451206520036
 30
0.0
 41
1.0
 10
-0.3470221764679715
 20
-2.374584093946665
 30
0.0
 41
1.0
 10
-0.3399611053108697
 20
-2.356072133078368
 30
0.0
 41
1.0
 10
-0.3356081019945454
 20
-2.3409806767965
 30
0.0
 41
1.0
 10
-0.3337160655118968
 20
-2.331364176596749
 30
0.0
 41
1.0
 10
-0.3328784735067869
 20
-2.325528070486916
 30
0.0
 41
1.0
  0
SPLINE
  5
EB
330
64
100
AcDbEntity
  8
SLD-0
  6
Continuous
100
AcDbSpline
210
0.0
220
0.0
230
1.0
 70
    12
 71
     5
 72
    26
 73
    20
 74
     0
 42
0.00000001
 43
0.00000001
 40
0.0
 40
0.0
 40
0.0
 40
0.0
 40
0.0
 40
0.0
 40
0.0714285714285714
 40
0.1
 40
0.1428571428571429
 40
0.1857142857142857
 40
0.2142857142857143
 40
0.2714285714285715
 40
0.3571428571428572
 40
0.4142857142857144
 40
0.4857142857142858
 40
0.5714285714285713
 40
0.6571428571428567
 40
0.7428571428571421
 40
0.8285714285714275
 40
0.9142857142857129
 40
1.0
 40
1.0
 40
1.0
 40
1.0
 40
1.0
 40
1.0
 10
-1.097606761495799
 20
-2.077052787452816
 30
0.0
 41
1.0
 10
-1.102194679721945
 20
-2.085742509539266
 30
0.0
 41
1.0
 10
-1.107530033142031
 20
-2.098380156460318
 30
0.0
 41
1.0
 10
-1.112985489032092
 20
-2.117374254577767
 30
0.0
 41
1.0
 10
-1.119598744438618
 20
-2.14230475666506
 30
0.0
 41
1.0
 10
-1.126441798971577
 20
-2.171382547467743
 30
0.0
 41
1.0
 10
-1.1313571586855
 20
-2.199087911712912
 30
0.0
 41
1.0
 10
-1.136157919453343
 20
-2.235253609063383
 30
0.0
 41
1.0
 10
-1.140030566283315
 20
-2.273787945583395
 30
0.0
 41
1.0
 10
-1.142118656185531
 20
-2.317072664852658
 30
0.0
 41
1.0
 10
-1.142529298677542
 20
-2.369111333536462
 30
0.0
 41
1.0
 10
-1.140186203422992
 20
-2.425976785556112
 30
0.0
 41
1.0
 10
-1.13542915833453
 20
-2.483293686185241
 30
0.0
 41
1.0
 10
-1.127432512659786
 20
-2.545330668929777
 30
0.0
 41
1.0
 10
-1.116303221248627
 20
-2.60983349134385
 30
0.0
 41
1.0
 10
-1.1023125935152
 20
-2.674590117020569
 30
0.0
 41
1.0
 10
-1.088965128741711
 20
-2.726490286546063
 30
0.0
 41
1.0
 10
-1.077747899835824
 20
-2.76542999529749
 30
0.0
 41
1.0
 10
-1.069750103670742
 20
-2.791385642622844
 30
0.0
 41
1.0
 10
-1.065620529919106
 20
-2.804363187287789
 30
0.0
 41
1.0
  0
SPLINE
  5
EC
330
64
100
AcDbEntity
  8
SLD-0
  6
Continuous
100
AcDbSpline
210
0.0
220
0.0
230
1.0
 70
    12
 71
     5
 72
    26
 73
    20
 74
     0
 42
0.00000001
 43
0.00000001
 40
0.0
 40
0.0
 40
0.0
 40
0.0
 40
0.0
 40
0.0
 40
0.0714285714285714
 40
0.1
 40
0.1428571428571429
 40
0.1857142857142857
 40
0.2142857142857143
 40
0.2714285714285715
 40
0.3571428571428572
 40
0.4142857142857144
 40
0.4857142857142858
 40
0.5714285714285713
 40
0.6571428571428567
 40
0.7428571428571421
 40
0.8285714285714275
 40
0.9142857142857129
 40
1.0
 40
1.0
 40
1.0
 40
1.0
 40
1.0
 40
1.0
 10
-1.097606761495799
 20
-2.077052787452816
 30
0.0
 41
1.0
 10
-1.102194679721945
 20
-2.085742509539266
 30
0.0
 41
1.0
 10
-1.107530033142031
 20
-2.098380156460318
 30
0.0
 41
1.0
 10
-1.112985489032092
 20
-2.117374254577767
 30
0.0
 41
1.0
 10
-1.119598744438618
 20
-2.14230475666506
 30
0.0
 41
1.0
 10
-1.126441798971577
 20
-2.171382547467743
 30
0.0
 41
1.0
 10
-1.1313571586855
 20
-2.199087911712912
 30
0.0
 41
1.0
 10
-1.136157919453343
 20
-2.235253609063383
 30
0.0
 41
1.0
 10
-1.140030566283315
 20
-2.273787945583395
 30
0.0
 41
1.0
 10
-1.142118656185531
 20
-2.317072664852658
 30
0.0
 41
1.0
 10
-1.142529298677542
 20
-2.369111333536462
 30
0.0
 41
1.0
 10
-1.140186203422992
 20
-2.425976785556112
 30
0.0
 41
1.0
 10
-1.13542915833453
 20
-2.483293686185241
 30
0.0
 41
1.0
 10
-1.127432512659786
 20
-2.545330668929777
 30
0.0
 41
1.0
 10
-1.116303221248627
 20
-2.60983349134385
 30
0.0
 41
1.0
 10
-1.1023125935152
 20
-2.674590117020569
 30
0.0
 41
1.0
 10
-1.088965128741711
 20
-2.726490286546063
 30
0.0
 41
1.0
 10
-1.077747899835824
 20
-2.76542999529749
 30
0.0
 41
1.0
 10
-1.069750103670742
 20
-2.791385642622844
 30
0.0
 41
1.0
 10
-1.065620529919106
 20
-2.804363187287789
 30
0.0
 41
1.0
  0
SPLINE
  5
ED
330
64
100
AcDbEntity
  8
SLD-0
  6
Continuous
100
AcDbSpline
210
0.0
220
0.0
230
1.0
 70
    12
 71
     5
 72
    26
 73
    20
 74
     0
 42
0.00000001
 43
0.00000001
 40
0.0
 40
0.0
 40
0.0
 40
0.0
 40
0.0
 40
0.0
 40
0.0714285714285714
 40
0.1
 40
0.1428571428571429
 40
0.1857142857142857
 40
0.2142857142857143
 40
0.2714285714285715
 40
0.3571428571428572
 40
0.4142857142857144
 40
0.4857142857142858
 40
0.5714285714285713
 40
0.6571428571428567
 40
0.7428571428571421
 40
0.8285714285714275
 40
0.9142857142857129
 40
1.0
 40
1.0
 40
1.0
 40
1.0
 40
1.0
 40
1.0
 10
-1.636215445752961
 20
-1.685730672386976
 30
0.0
 41
1.0
 10
-1.643062117867393
 20
-1.692779313713287
 30
0.0
 41
1.0
 10
-1.653432519444478
 20
-1.701758784017731
 30
0.0
 41
1.0
 10
-1.669811151648161
 20
-1.712816730002427
 30
0.0
 41
1.0
 10
-1.691477859804014
 20
-1.726810258474013
 30
0.0
 41
1.0
 10
-1.717017862082266
 20
-1.742303921595851
 30
0.0
 41
1.0
 10
-1.741848299598892
 20
-1.75554013486882
 30
0.0
 41
1.0
 10
-1.774760405067225
 20
-1.771281744774964
 30
0.0
 41
1.0
 10
-1.810212023232012
 20
-1.786872615629567
 30
0.0
 41
1.0
 10
-1.850732982283492
 20
-1.802234220988626
 30
0.0
 41
1.0
 10
-1.9000978017259
 20
-1.818705598194464
 30
0.0
 41
1.0
 10
-1.954904116674359
 20
-1.834049573251212
 30
0.0
 41
1.0
 10
-2.010885736286864
 20
-1.847237250880827
 30
0.0
 41
1.0
 10
-2.072357512388853
 20
-1.858802470851162
 30
0.0
 41
1.0
 10
-2.137142482146579
 20
-1.868150354043939
 30
0.0
 41
1.0
 10
-2.2030530347013
 20
-1.874855374203473
 30
0.0
 41
1.0
 10
-2.256537622572186
 20
-1.878199215248949
 30
0.0
 41
1.0
 10
-2.297037800684624
 20
-1.879564028363416
 30
0.0
 41
1.0
 10
-2.324194543140567
 20
-1.879978408328167
 30
0.0
 41
1.0
 10
-2.337813030028457
 20
-1.880061232148881
 30
0.0
 41
1.0
  0
SPLINE
  5
EE
330
64
100
AcDbEntity
  8
SLD-0
  6
Continuous
100
AcDbSpline
210
0.0
220
0.0
230
1.0
 70
    12
 71
     5
 72
    25
 73
    19
 74
     0
 42
0.00000001
 43
0.00000001
 40
-1.0
 40
-1.0
 40
-1.0
 40
-1.0
 40
-1.0
 40
-1.0
 40
-0.7857142857142848
 40
-0.6857142857142852
 40
-0.5714285714285713
 40
-0.4714285714285715
 40
-0.4142857142857144
 40
-0.3428571428571429
 40
-0.2857142857142858
 40
-0.2428571428571429
 40
-0.2
 40
-0.1428571428571429
 40
-0.1142857142857143
 40
-0.0714285714285714
 40
-0.0428571428571429
 40
0.0
 40
0.0
 40
0.0
 40
0.0
 40
0.0
 40
0.0
 10
-2.337813030028457
 20
-1.880061232148881
 30
0.0
 41
1.0
 10
-2.303766812808729
 20
-1.879854172597103
 30
0.0
 41
1.0
 10
-2.25420008776915
 20
-1.878410462105795
 30
0.0
 41
1.0
 10
-2.187326114490482
 20
-1.874151661349736
 30
0.0
 41
1.0
 10
-2.106395661042004
 20
-1.864952154277247
 30
0.0
 41
1.0
 10
-2.019182582739351
 20
-1.849191191270206
 30
0.0
 41
1.0
 10
-1.954818051376289
 20
-1.834201143330964
 30
0.0
 41
1.0
 10
-1.898123372757283
 20
-1.818044683896837
 30
0.0
 41
1.0
 10
-1.852755318854331
 20
-1.802814393776413
 30
0.0
 41
1.0
 10
-1.816018991510881
 20
-1.789042857825754
 30
0.0
 41
1.0
 10
-1.780323217622815
 20
-1.773791418603446
 30
0.0
 41
1.0
 10
-1.750929759482108
 20
-1.759998713402365
 30
0.0
 41
1.0
 10
-1.723932624773963
 20
-1.746308427088679
 30
0.0
 41
1.0
 10
-1.699929838573806
 20
-1.732049545580993
 30
0.0
 41
1.0
 10
-1.676492348937706
 20
-1.717104369028978
 30
0.0
 41
1.0
 10
-1.659898764783717
 20
-1.706278271578854
 30
0.0
 41
1.0
 10
-1.647506575686143
 20
-1.696627658129477
 30
0.0
 41
1.0
 10
-1.640323449021621
 20
-1.689959857182763
 30
0.0
 41
1.0
 10
-1.636215445752961
 20
-1.685730672386976
 30
0.0
 41
1.0
  0
SPLINE
  5
EF
330
64
100
AcDbEntity
  8
SLD-0
  6
Continuous
100
AcDbSpline
210
0.0
220
0.0
230
1.0
 70
    12
 71
     5
 72
    26
 73
    20
 74
     0
 42
0.00000001
 43
0.00000001
 40
0.0
 40
0.0
 40
0.0
 40
0.0
 40
0.0
 40
0.0
 40
0.0714285714285714
 40
0.1
 40
0.1428571428571429
 40
0.1857142857142857
 40
0.2142857142857143
 40
0.2714285714285715
 40
0.3571428571428572
 40
0.4142857142857144
 40
0.4857142857142858
 40
0.5714285714285713
 40
0.6571428571428567
 40
0.7428571428571421
 40
0.8285714285714275
 40
0.9142857142857129
 40
1.0
 40
1.0
 40
1.0
 40
1.0
 40
1.0
 40
1.0
 10
-2.108843519888689
 20
-1.035213936039451
 30
0.0
 41
1.0
 10
-2.117662914191377
 20
-1.039547358211732
 30
0.0
 41
1.0
 10
-2.129407528263118
 20
-1.046635387283677
 30
0.0
 41
1.0
 10
-2.144985535544245
 20
-1.058795298936814
 30
0.0
 41
1.0
 10
-2.164989553015436
 20
-1.075077324806128
 30
0.0
 41
1.0
 10
-2.187617197029091
 20
-1.094579505189277
 30
0.0
 41
1.0
 10
-2.207878611083828
 20
-1.114104439749407
 30
0.0
 41
1.0
 10
-2.233020171672418
 20
-1.140541287140237
 30
0.0
 41
1.0
 10
-2.258803123484414
 20
-1.169439935557896
 30
0.0
 41
1.0
 10
-2.285934543337183
 20
-1.203230660593495
 30
0.0
 41
1.0
 10
-2.316854322093106
 20
-1.245089458322568
 30
0.0
 41
1.0
 10
-2.348383392274833
 20
-1.292471812234625
 30
0.0
 41
1.0
 10
-2.378224890852166
 20
-1.341638279855971
 30
0.0
 41
1.0
 10
-2.408219892157292
 20
-1.396527563571472
 30
0.0
 41
1.0
 10
-2.437129914016519
 20
-1.455253076449561
 30
0.0
 41
1.0
 10
-2.463874247979219
 20
-1.515865771772401
 30
0.0
 41
1.0
 10
-2.483582076384192
 20
-1.565699333878836
 30
0.0
 41
1.0
 10
-2.497395334102231
 20
-1.60379554173724
 30
0.0
 41
1.0
 10
-2.506181327798646
 20
-1.629495088160108
 30
0.0
 41
1.0
 10
-2.510468441819071
 20
-1.642421444888774
 30
0.0
 41
1.0
  0
SPLINE
  5
F0
330
64
100
AcDbEntity
  8
SLD-0
  6
Continuous
100
AcDbSpline
210
0.0
220
0.0
230
1.0
 70
    12
 71
     5
 72
    26
 73
    20
 74
     0
 42
0.00000001
 43
0.00000001
 40
0.0
 40
0.0
 40
0.0
 40
0.0
 40
0.0
 40
0.0
 40
0.0714285714285714
 40
0.1
 40
0.1428571428571429
 40
0.1857142857142857
 40
0.2142857142857143
 40
0.2714285714285715
 40
0.3571428571428572
 40
0.4142857142857144
 40
0.4857142857142858
 40
0.5714285714285713
 40
0.6571428571428567
 40
0.7428571428571421
 40
0.8285714285714275
 40
0.9142857142857129
 40
1.0
 40
1.0
 40
1.0
 40
1.0
 40
1.0
 40
1.0
 10
-2.108843519888689
 20
-1.035213936039451
 30
0.0
 41
1.0
 10
-2.117662914191377
 20
-1.039547358211732
 30
0.0
 41
1.0
 10
-2.129407528263118
 20
-1.046635387283677
 30
0.0
 41
1.0
 10
-2.144985535544245
 20
-1.058795298936814
 30
0.0
 41
1.0
 10
-2.164989553015436
 20
-1.075077324806128
 30
0.0
 41
1.0
 10
-2.187617197029091
 20
-1.094579505189277
 30
0.0
 41
1.0
 10
-2.207878611083828
 20
-1.114104439749407
 30
0.0
 41
1.0
 10
-2.233020171672418
 20
-1.140541287140237
 30
0.0
 41
1.0
 10
-2.258803123484414
 20
-1.169439935557896
 30
0.0
 41
1.0
 10
-2.285934543337183
 20
-1.203230660593495
 30
0.0
 41
1.0
 10
-2.316854322093106
 20
-1.245089458322568
 30
0.0
 41
1.0
 10
-2.348383392274833
 20
-1.292471812234625
 30
0.0
 41
1.0
 10
-2.378224890852166
 20
-1.341638279855971
 30
0.0
 41
1.0
 10
-2.408219892157292
 20
-1.396527563571472
 30
0.0
 41
1.0
 10
-2.437129914016519
 20
-1.455253076449561
 30
0.0
 41
1.0
 10
-2.463874247979219
 20
-1.515865771772401
 30
0.0
 41
1.0
 10
-2.483582076384192
 20
-1.565699333878836
 30
0.0
 41
1.0
 10
-2.497395334102231
 20
-1.60379554173724
 30
0.0
 41
1.0
 10
-2.506181327798646
 20
-1.629495088160108
 30
0.0
 41
1.0
 10
-2.510468441819071
 20
-1.642421444888774
 30
0.0
 41
1.0
  0
SPLINE
  5
F1
330
64
100
AcDbEntity
  8
SLD-0
  6
Continuous
100
AcDbSpline
210
0.0
220
0.0
230
1.0
 70
    12
 71
     5
 72
    26
 73
    20
 74
     0
 42
0.00000001
 43
0.00000001
 40
0.0
 40
0.0
 40
0.0
 40
0.0
 40
0.0
 40
0.0
 40
0.0714285714285714
 40
0.1
 40
0.1428571428571429
 40
0.1857142857142857
 40
0.2142857142857143
 40
0.2714285714285715
 40
0.3571428571428572
 40
0.4142857142857144
 40
0.4857142857142858
 40
0.5714285714285713
 40
0.6571428571428567
 40
0.7428571428571421
 40
0.8285714285714275
 40
0.9142857142857129
 40
1.0
 40
1.0
 40
1.0
 40
1.0
 40
1.0
 40
1.0
 10
-2.314573730639065
 20
-0.4020414533134242
 30
0.0
 41
1.0
 10
-2.32425589215486
 20
-0.4037195510375195
 30
0.0
 41
1.0
 10
-2.337923723487545
 20
-0.4048885260069285
 30
0.0
 41
1.0
 10
-2.357674012855422
 20
-0.4042074737693951
 30
0.0
 41
1.0
 10
-2.383427937628782
 20
-0.4027931045944344
 30
0.0
 41
1.0
 10
-2.413197180195279
 20
-0.4003157046824514
 30
0.0
 41
1.0
 10
-2.441065477082037
 20
-0.3964290611812123
 30
0.0
 41
1.0
 10
-2.476944615876759
 20
-0.3898190408979244
 30
0.0
 41
1.0
 10
-2.514789661408895
 20
-0.3815943820492326
 30
0.0
 41
1.0
 10
-2.556601130991506
 20
-0.3702045597063911
 30
0.0
 41
1.0
 10
-2.6062197414512
 20
-0.3545142709363486
 30
0.0
 41
1.0
 10
-2.659577943893467
 20
-0.334713463859315
 30
0.0
 41
1.0
 10
-2.712619547955299
 20
-0.3124773487703383
 30
0.0
 41
1.0
 10
-2.76914912523429
 20
-0.2857016048450549
 30
0.0
 41
1.0
 10
-2.827055814629233
 20
-0.2551845514156259
 30
0.0
 41
1.0
 10
-2.884319683720736
 20
-0.2218677759102111
 30
0.0
 41
1.0
 10
-2.929555084697975
 20
-0.1931355481670408
 30
0.0
 41
1.0
 10
-2.963122634086941
 20
-0.1704342977610967
 30
0.0
 41
1.0
 10
-2.985336466677813
 20
-0.1548072054787819
 30
0.0
 41
1.0
 10
-2.996402736628139
 20
-0.1468694656060399
 30
0.0
 41
1.0
  0
SPLINE
  5
F2
330
64
100
AcDbEntity
  8
SLD-0
  6
Continuous
100
AcDbSpline
210
0.0
220
0.0
230
1.0
 70
    12
 71
     5
 72
    25
 73
    19
 74
     0
 42
0.00000001
 43
0.00000001
 40
-1.0
 40
-1.0
 40
-1.0
 40
-1.0
 40
-1.0
 40
-1.0
 40
-0.7857142857142848
 40
-0.6857142857142852
 40
-0.5714285714285713
 40
-0.4714285714285715
 40
-0.4142857142857144
 40
-0.3428571428571429
 40
-0.2857142857142858
 40
-0.2428571428571429
 40
-0.2
 40
-0.1428571428571429
 40
-0.1142857142857143
 40
-0.0714285714285714
 40
-0.0428571428571429
 40
0.0
 40
0.0
 40
0.0
 40
0.0
 40
0.0
 40
0.0
 10
-2.996402736628139
 20
-0.1468694656060399
 30
0.0
 41
1.0
 10
-2.968737061752318
 20
-0.1667138152878948
 30
0.0
 41
1.0
 10
-2.927788147104353
 20
-0.1946804189484224
 30
0.0
 41
1.0
 10
-2.871182705963804
 20
-0.2305425120159556
 30
0.0
 41
1.0
 10
-2.800301259175811
 20
-0.2706696814534008
 30
0.0
 41
1.0
 10
-2.720480335079842
 20
-0.3091813557658918
 30
0.0
 41
1.0
 10
-2.659597406262256
 20
-0.3348866745426847
 30
0.0
 41
1.0
 10
-2.604233919184233
 20
-0.3551401202671581
 30
0.0
 41
1.0
 10
-2.558578252654102
 20
-0.3694852297398875
 30
0.0
 41
1.0
 10
-2.520763233789106
 20
-0.3799368945530064
 30
0.0
 41
1.0
 10
-2.482920175035201
 20
-0.3885796704940617
 30
0.0
 41
1.0
 10
-2.451033219169501
 20
-0.3946981787969644
 30
0.0
 41
1.0
 10
-2.421145129996336
 20
-0.3994910221469358
 30
0.0
 41
1.0
 10
-2.393345307783658
 20
-0.4020638284288211
 30
0.0
 41
1.0
 10
-2.365599425992383
 20
-0.403749137373164
 30
0.0
 41
1.0
 10
-2.345811513993153
 20
-0.4047441046016425
 30
0.0
 41
1.0
 10
-2.330113534154582
 20
-0.4042205403101233
 30
0.0
 41
1.0
 10
-2.320383027548542
 20
-0.4030483119478814
 30
0.0
 41
1.0
 10
-2.314573730639065
 20
-0.4020414533134242
 30
0.0
 41
1.0
  0
SPLINE
  5
F3
330
64
100
AcDbEntity
  8
SLD-0
  6
Continuous
100
AcDbSpline
210
0.0
220
0.0
230
1.0
 70
    12
 71
     5
 72
    26
 73
    20
 74
     0
 42
0.00000001
 43
0.00000001
 40
0.0
 40
0.0
 40
0.0
 40
0.0
 40
0.0
 40
0.0
 40
0.0714285714285714
 40
0.1
 40
0.1428571428571429
 40
0.1857142857142857
 40
0.2142857142857143
 40
0.2714285714285715
 40
0.3571428571428572
 40
0.4142857142857144
 40
0.4857142857142858
 40
0.5714285714285713
 40
0.6571428571428567
 40
0.7428571428571421
 40
0.8285714285714275
 40
0.9142857142857129
 40
1.0
 40
1.0
 40
1.0
 40
1.0
 40
1.0
 40
1.0
 10
-2.314573730639065
 20
0.4020414533134249
 30
0.0
 41
1.0
 10
-2.324255892154857
 20
0.4037195510375203
 30
0.0
 41
1.0
 10
-2.337923723487576
 20
0.4048885260069271
 30
0.0
 41
1.0
 10
-2.357674012855401
 20
0.4042074737693966
 30
0.0
 41
1.0
 10
-2.383427937628797
 20
0.4027931045944344
 30
0.0
 41
1.0
 10
-2.413197180195272
 20
0.4003157046824521
 30
0.0
 41
1.0
 10
-2.441065477082041
 20
0.3964290611812124
 30
0.0
 41
1.0
 10
-2.476944615876756
 20
0.3898190408979257
 30
0.0
 41
1.0
 10
-2.5147896614089
 20
0.3815943820492311
 30
0.0
 41
1.0
 10
-2.556601130991492
 20
0.3702045597063953
 30
0.0
 41
1.0
 10
-2.606219741451208
 20
0.3545142709363453
 30
0.0
 41
1.0
 10
-2.65957794389346
 20
0.334713463859323
 30
0.0
 41
1.0
 10
-2.712619547955304
 20
0.3124773487703343
 30
0.0
 41
1.0
 10
-2.769149125234292
 20
0.285701604845053
 30
0.0
 41
1.0
 10
-2.82705581462925
 20
0.2551845514156184
 30
0.0
 41
1.0
 10
-2.884319683720729
 20
0.221867775910218
 30
0.0
 41
1.0
 10
-2.929555084697972
 20
0.1931355481670409
 30
0.0
 41
1.0
 10
-2.963122634086941
 20
0.1704342977611006
 30
0.0
 41
1.0
 10
-2.985336466677813
 20
0.1548072054787839
 30
0.0
 41
1.0
 10
-2.996402736628139
 20
0.1468694656060405
 30
0.0
 41
1.0
  0
SPLINE
  5
F4
330
64
100
AcDbEntity
  8
SLD-0
  6
Continuous
100
AcDbSpline
210
0.0
220
0.0
230
1.0
 70
    12
 71
     5
 72
    26
 73
    20
 74
     0
 42
0.00000001
 43
0.00000001
 40
0.0
 40
0.0
 40
0.0
 40
0.0
 40
0.0
 40
0.0
 40
0.0714285714285714
 40
0.1
 40
0.1428571428571429
 40
0.1857142857142857
 40
0.2142857142857143
 40
0.2714285714285715
 40
0.3571428571428572
 40
0.4142857142857144
 40
0.4857142857142858
 40
0.5714285714285713
 40
0.6571428571428567
 40
0.7428571428571421
 40
0.8285714285714275
 40
0.9142857142857129
 40
1.0
 40
1.0
 40
1.0
 40
1.0
 40
1.0
 40
1.0
 10
-2.314573730639065
 20
0.4020414533134249
 30
0.0
 41
1.0
 10
-2.324255892154857
 20
0.4037195510375203
 30
0.0
 41
1.0
 10
-2.337923723487576
 20
0.4048885260069271
 30
0.0
 41
1.0
 10
-2.357674012855401
 20
0.4042074737693966
 30
0.0
 41
1.0
 10
-2.383427937628797
 20
0.4027931045944344
 30
0.0
 41
1.0
 10
-2.413197180195272
 20
0.4003157046824521
 30
0.0
 41
1.0
 10
-2.441065477082041
 20
0.3964290611812124
 30
0.0
 41
1.0
 10
-2.476944615876756
 20
0.3898190408979257
 30
0.0
 41
1.0
 10
-2.5147896614089
 20
0.3815943820492311
 30
0.0
 41
1.0
 10
-2.556601130991492
 20
0.3702045597063953
 30
0.0
 41
1.0
 10
-2.606219741451208
 20
0.3545142709363453
 30
0.0
 41
1.0
 10
-2.65957794389346
 20
0.334713463859323
 30
0.0
 41
1.0
 10
-2.712619547955304
 20
0.3124773487703343
 30
0.0
 41
1.0
 10
-2.769149125234292
 20
0.285701604845053
 30
0.0
 41
1.0
 10
-2.82705581462925
 20
0.2551845514156184
 30
0.0
 41
1.0
 10
-2.884319683720729
 20
0.221867775910218
 30
0.0
 41
1.0
 10
-2.929555084697972
 20
0.1931355481670409
 30
0.0
 41
1.0
 10
-2.963122634086941
 20
0.1704342977611006
 30
0.0
 41
1.0
 10
-2.985336466677813
 20
0.1548072054787839
 30
0.0
 41
1.0
 10
-2.996402736628139
 20
0.1468694656060405
 30
0.0
 41
1.0
  0
SPLINE
  5
F5
330
64
100
AcDbEntity
  8
SLD-0
  6
Continuous
100
AcDbSpline
210
0.0
220
0.0
230
1.0
 70
    12
 71
     5
 72
    26
 73
    20
 74
     0
 42
0.00000001
 43
0.00000001
 40
0.0
 40
0.0
 40
0.0
 40
0.0
 40
0.0
 40
0.0
 40
0.0714285714285714
 40
0.1
 40
0.1428571428571429
 40
0.1857142857142857
 40
0.2142857142857143
 40
0.2714285714285715
 40
0.3571428571428572
 40
0.4142857142857144
 40
0.4857142857142858
 40
0.5714285714285713
 40
0.6571428571428567
 40
0.7428571428571421
 40
0.8285714285714275
 40
0.9142857142857129
 40
1.0
 40
1.0
 40
1.0
 40
1.0
 40
1.0
 40
1.0
 10
-2.108843519888689
 20
1.035213936039452
 30
0.0
 41
1.0
 10
-2.117662914191377
 20
1.039547358211732
 30
0.0
 41
1.0
 10
-2.129407528263118
 20
1.046635387283686
 30
0.0
 41
1.0
 10
-2.144985535544238
 20
1.058795298936805
 30
0.0
 41
1.0
 10
-2.164989553015441
 20
1.075077324806133
 30
0.0
 41
1.0
 10
-2.187617197029089
 20
1.094579505189273
 30
0.0
 41
1.0
 10
-2.207878611083826
 20
1.114104439749408
 30
0.0
 41
1.0
 10
-2.233020171672419
 20
1.140541287140238
 30
0.0
 41
1.0
 10
-2.25880312348441
 20
1.169439935557895
 30
0.0
 41
1.0
 10
-2.28593454333719
 20
1.203230660593494
 30
0.0
 41
1.0
 10
-2.316854322093093
 20
1.245089458322572
 30
0.0
 41
1.0
 10
-2.348383392274846
 20
1.292471812234631
 30
0.0
 41
1.0
 10
-2.378224890852163
 20
1.341638279855961
 30
0.0
 41
1.0
 10
-2.408219892157288
 20
1.396527563571479
 30
0.0
 41
1.0
 10
-2.437129914016524
 20
1.455253076449553
 30
0.0
 41
1.0
 10
-2.463874247979215
 20
1.515865771772404
 30
0.0
 41
1.0
 10
-2.483582076384196
 20
1.56569933387883
 30
0.0
 41
1.0
 10
-2.497395334102242
 20
1.603795541737275
 30
0.0
 41
1.0
 10
-2.506181327798646
 20
1.629495088160106
 30
0.0
 41
1.0
 10
-2.510468441819071
 20
1.642421444888775
 30
0.0
 41
1.0
  0
SPLINE
  5
F6
330
64
100
AcDbEntity
  8
SLD-0
  6
Continuous
100
AcDbSpline
210
0.0
220
0.0
230
1.0
 70
    12
 71
     5
 72
    25
 73
    19
 74
     0
 42
0.00000001
 43
0.00000001
 40
-1.0
 40
-1.0
 40
-1.0
 40
-1.0
 40
-1.0
 40
-1.0
 40
-0.7857142857142848
 40
-0.6857142857142852
 40
-0.5714285714285713
 40
-0.4714285714285715
 40
-0.4142857142857144
 40
-0.3428571428571429
 40
-0.2857142857142858
 40
-0.2428571428571429
 40
-0.2
 40
-0.1428571428571429
 40
-0.1142857142857143
 40
-0.0714285714285714
 40
-0.0428571428571429
 40
0.0
 40
0.0
 40
0.0
 40
0.0
 40
0.0
 40
0.0
 10
-2.510468441819071
 20
1.642421444888775
 30
0.0
 41
1.0
 10
-2.499750656768013
 20
1.610105553067102
 30
0.0
 41
1.0
 10
-2.483060646105014
 20
1.563410927303459
 30
0.0
 41
1.0
 10
-2.458345091669538
 20
1.501126041055726
 30
0.0
 41
1.0
 10
-2.42458695504385
 20
1.426999409961887
 30
0.0
 41
1.0
 10
-2.382647065145411
 20
1.348925248953056
 30
0.0
 41
1.0
 10
-2.348500948347175
 20
1.292343121541552
 30
0.0
 41
1.0
 10
-2.315615623138119
 20
1.243415898535816
 30
0.0
 41
1.0
 10
-2.28711125681633
 20
1.204974733716224
 30
0.0
 41
1.0
 10
-2.262661598350999
 20
1.174292048858899
 30
0.0
 41
1.0
 10
-2.237126016936972
 20
1.14505630440682
 30
0.0
 41
1.0
 10
-2.214925296689217
 20
1.121363644811195
 30
0.0
 41
1.0
 10
-2.193562487256389
 20
1.099918375054498
 30
0.0
 41
1.0
 10
-2.172584216235234
 20
1.081496605536256
 30
0.0
 41
1.0
 10
-2.151127926085211
 20
1.063824541830747
 30
0.0
 41
1.0
 10
-2.135703996058052
 20
1.051388553587253
 30
0.0
 41
1.0
 10
-2.122696320222127
 20
1.042585084956855
 30
0.0
 41
1.0
 10
-2.114135156470301
 20
1.03781398934282
 30
0.0
 41
1.0
 10
-2.108843519888689
 20
1.035213936039452
 30
0.0
 41
1.0
  0
SPLINE
  5
F7
330
64
100
AcDbEntity
  8
SLD-0
  6
Continuous
100
AcDbSpline
210
0.0
220
0.0
230
1.0
 70
    12
 71
     5
 72
    26
 73
    20
 74
     0
 42
0.00000001
 43
0.00000001
 40
0.0
 40
0.0
 40
0.0
 40
0.0
 40
0.0
 40
0.0
 40
0.0714285714285714
 40
0.1
 40
0.1428571428571429
 40
0.1857142857142857
 40
0.2142857142857143
 40
0.2714285714285715
 40
0.3571428571428572
 40
0.4142857142857144
 40
0.4857142857142858
 40
0.5714285714285713
 40
0.6571428571428567
 40
0.7428571428571421
 40
0.8285714285714275
 40
0.9142857142857129
 40
1.0
 40
1.0
 40
1.0
 40
1.0
 40
1.0
 40
1.0
 10
-1.636215445752961
 20
1.685730672386976
 30
0.0
 41
1.0
 10
-1.643062117867394
 20
1.692779313713289
 30
0.0
 41
1.0
 10
-1.653432519444479
 20
1.70175878401772
 30
0.0
 41
1.0
 10
-1.66981115164816
 20
1.712816730002432
 30
0.0
 41
1.0
 10
-1.691477859804014
 20
1.726810258474011
 30
0.0
 41
1.0
 10
-1.717017862082266
 20
1.742303921595852
 30
0.0
 41
1.0
 10
-1.741848299598891
 20
1.755540134868818
 30
0.0
 41
1.0
 10
-1.774760405067228
 20
1.771281744774969
 30
0.0
 41
1.0
 10
-1.810212023232009
 20
1.786872615629562
 30
0.0
 41
1.0
 10
-1.850732982283489
 20
1.802234220988621
 30
0.0
 41
1.0
 10
-1.900097801725898
 20
1.81870559819447
 30
0.0
 41
1.0
 10
-1.954904116674364
 20
1.834049573251212
 30
0.0
 41
1.0
 10
-2.010885736286858
 20
1.847237250880835
 30
0.0
 41
1.0
 10
-2.072357512388857
 20
1.858802470851161
 30
0.0
 41
1.0
 10
-2.137142482146575
 20
1.868150354043935
 30
0.0
 41
1.0
 10
-2.203053034701302
 20
1.874855374203475
 30
0.0
 41
1.0
 10
-2.256537622572188
 20
1.87819921524895
 30
0.0
 41
1.0
 10
-2.297037800684604
 20
1.879564028363392
 30
0.0
 41
1.0
 10
-2.324194543140567
 20
1.879978408328171
 30
0.0
 41
1.0
 10
-2.337813030028456
 20
1.880061232148881
 30
0.0
 41
1.0
  0
SPLINE
  5
F8
330
64
100
AcDbEntity
  8
SLD-0
  6
Continuous
100
AcDbSpline
210
0.0
220
0.0
230
1.0
 70
    12
 71
     5
 72
    26
 73
    20
 74
     0
 42
0.00000001
 43
0.00000001
 40
0.0
 40
0.0
 40
0.0
 40
0.0
 40
0.0
 40
0.0
 40
0.0714285714285714
 40
0.1
 40
0.1428571428571429
 40
0.1857142857142857
 40
0.2142857142857143
 40
0.2714285714285715
 40
0.3571428571428572
 40
0.4142857142857144
 40
0.4857142857142858
 40
0.5714285714285713
 40
0.6571428571428567
 40
0.7428571428571421
 40
0.8285714285714275
 40
0.9142857142857129
 40
1.0
 40
1.0
 40
1.0
 40
1.0
 40
1.0
 40
1.0
 10
-1.636215445752961
 20
1.685730672386976
 30
0.0
 41
1.0
 10
-1.643062117867394
 20
1.692779313713289
 30
0.0
 41
1.0
 10
-1.653432519444479
 20
1.70175878401772
 30
0.0
 41
1.0
 10
-1.66981115164816
 20
1.712816730002432
 30
0.0
 41
1.0
 10
-1.691477859804014
 20
1.726810258474011
 30
0.0
 41
1.0
 10
-1.717017862082266
 20
1.742303921595852
 30
0.0
 41
1.0
 10
-1.741848299598891
 20
1.755540134868818
 30
0.0
 41
1.0
 10
-1.774760405067228
 20
1.771281744774969
 30
0.0
 41
1.0
 10
-1.810212023232009
 20
1.786872615629562
 30
0.0
 41
1.0
 10
-1.850732982283489
 20
1.802234220988621
 30
0.0
 41
1.0
 10
-1.900097801725898
 20
1.81870559819447
 30
0.0
 41
1.0
 10
-1.954904116674364
 20
1.834049573251212
 30
0.0
 41
1.0
 10
-2.010885736286858
 20
1.847237250880835
 30
0.0
 41
1.0
 10
-2.072357512388857
 20
1.858802470851161
 30
0.0
 41
1.0
 10
-2.137142482146575
 20
1.868150354043935
 30
0.0
 41
1.0
 10
-2.203053034701302
 20
1.874855374203475
 30
0.0
 41
1.0
 10
-2.256537622572188
 20
1.87819921524895
 30
0.0
 41
1.0
 10
-2.297037800684604
 20
1.879564028363392
 30
0.0
 41
1.0
 10
-2.324194543140567
 20
1.879978408328171
 30
0.0
 41
1.0
 10
-2.337813030028456
 20
1.880061232148881
 30
0.0
 41
1.0
  0
SPLINE
  5
F9
330
64
100
AcDbEntity
  8
SLD-0
  6
Continuous
100
AcDbSpline
210
0.0
220
0.0
230
1.0
 70
    12
 71
     5
 72
    26
 73
    20
 74
     0
 42
0.00000001
 43
0.00000001
 40
0.0
 40
0.0
 40
0.0
 40
0.0
 40
0.0
 40
0.0
 40
0.0714285714285714
 40
0.1
 40
0.1428571428571429
 40
0.1857142857142857
 40
0.2142857142857143
 40
0.2714285714285715
 40
0.3571428571428572
 40
0.4142857142857144
 40
0.4857142857142858
 40
0.5714285714285713
 40
0.6571428571428567
 40
0.7428571428571421
 40
0.8285714285714275
 40
0.9142857142857129
 40
1.0
 40
1.0
 40
1.0
 40
1.0
 40
1.0
 40
1.0
 10
-1.097606761495799
 20
2.077052787452816
 30
0.0
 41
1.0
 10
-1.102194679721942
 20
2.085742509539267
 30
0.0
 41
1.0
 10
-1.10753003314205
 20
2.098380156460312
 30
0.0
 41
1.0
 10
-1.112985489032077
 20
2.11737425457777
 30
0.0
 41
1.0
 10
-1.119598744438627
 20
2.142304756665055
 30
0.0
 41
1.0
 10
-1.126441798971573
 20
2.171382547467745
 30
0.0
 41
1.0
 10
-1.1313571586855
 20
2.199087911712913
 30
0.0
 41
1.0
 10
-1.136157919453341
 20
2.235253609063381
 30
0.0
 41
1.0
 10
-1.140030566283314
 20
2.273787945583397
 30
0.0
 41
1.0
 10
-1.142118656185525
 20
2.317072664852652
 30
0.0
 41
1.0
 10
-1.142529298677539
 20
2.369111333536468
 30
0.0
 41
1.0
 10
-1.140186203422996
 20
2.425976785556115
 30
0.0
 41
1.0
 10
-1.135429158334529
 20
2.483293686185231
 30
0.0
 41
1.0
 10
-1.127432512659792
 20
2.54533066892978
 30
0.0
 41
1.0
 10
-1.116303221248627
 20
2.609833491343864
 30
0.0
 41
1.0
 10
-1.102312593515207
 20
2.674590117020558
 30
0.0
 41
1.0
 10
-1.08896512874171
 20
2.726490286546078
 30
0.0
 41
1.0
 10
-1.077747899835809
 20
2.765429995297542
 30
0.0
 41
1.0
 10
-1.069750103670742
 20
2.791385642622841
 30
0.0
 41
1.0
 10
-1.065620529919105
 20
2.804363187287789
 30
0.0
 41
1.0
  0
SPLINE
  5
FA
330
64
100
AcDbEntity
  8
SLD-0
  6
Continuous
100
AcDbSpline
210
0.0
220
0.0
230
1.0
 70
    12
 71
     5
 72
    25
 73
    19
 74
     0
 42
0.00000001
 43
0.00000001
 40
-1.0
 40
-1.0
 40
-1.0
 40
-1.0
 40
-1.0
 40
-1.0
 40
-0.7857142857142848
 40
-0.6857142857142852
 40
-0.5714285714285713
 40
-0.4714285714285715
 40
-0.4142857142857144
 40
-0.3428571428571429
 40
-0.2857142857142858
 40
-0.2428571428571429
 40
-0.2
 40
-0.1428571428571429
 40
-0.1142857142857143
 40
-0.0714285714285714
 40
-0.0428571428571429
 40
0.0
 40
0.0
 40
0.0
 40
0.0
 40
0.0
 40
0.0
 10
-1.065620529919105
 20
2.804363187287789
 30
0.0
 41
1.0
 10
-1.075944464298195
 20
2.771919325625418
 30
0.0
 41
1.0
 10
-1.089888374420781
 20
2.72433243770831
 30
0.0
 41
1.0
 10
-1.106503208434108
 20
2.659415467841851
 30
0.0
 41
1.0
 10
-1.122762842764657
 20
2.579603228697648
 30
0.0
 41
1.0
 10
-1.134723599520664
 20
2.491788256854903
 30
0.0
 41
1.0
 10
-1.140356950774797
 20
2.425941770324031
 30
0.0
 41
1.0
 10
-1.142510863933529
 20
2.367029306250108
 30
0.0
 41
1.0
 10
-1.142045496927208
 20
2.319175304477595
 30
0.0
 41
1.0
 10
-1.140300137381965
 20
2.279981342325455
 30
0.0
 41
1.0
 10
-1.136825757485496
 20
2.241319690056645
 30
0.0
 41
1.0
 10
-1.132791193415595
 20
2.209102669849937
 30
0.0
 41
1.0
 10
-1.128113530831265
 20
2.179196337835672
 30
0.0
 41
1.0
 10
-1.121969797506496
 20
2.151962094904118
 30
0.0
 41
1.0
 10
-1.114998672562563
 20
2.1250534041216
 30
0.0
 41
1.0
 10
-1.109830141537748
 20
2.105926519688408
 30
0.0
 41
1.0
 10
-1.104481259759132
 20
2.091158643934001
 30
0.0
 41
1.0
 10
-1.100359512431485
 20
2.082266620704686
 30
0.0
 41
1.0
 10
-1.097606761495799
 20
2.077052787452816
 30
0.0
 41
1.0
  0
SPLINE
  5
FB
330
64
100
AcDbEntity
  8
SLD-0
  6
Continuous
100
AcDbSpline
210
0.0
220
0.0
230
1.0
 70
    12
 71
     5
 72
    26
 73
    20
 74
     0
 42
0.00000001
 43
0.00000001
 40
0.0
 40
0.0
 40
0.0
 40
0.0
 40
0.0
 40
0.0
 40
0.0714285714285714
 40
0.1
 40
0.1428571428571429
 40
0.1857142857142857
 40
0.2142857142857143
 40
0.2714285714285715
 40
0.3571428571428572
 40
0.4142857142857144
 40
0.4857142857142858
 40
0.5714285714285713
 40
0.6571428571428567
 40
0.7428571428571421
 40
0.8285714285714275
 40
0.9142857142857129
 40
1.0
 40
1.0
 40
1.0
 40
1.0
 40
1.0
 40
1.0
 10
-0.3328784735067865
 20
2.325528070486916
 30
0.0
 41
1.0
 10
-0.3342744601819682
 20
2.3352549140033
 30
0.0
 41
1.0
 10
-0.3373862910779873
 20
2.34861502718745
 30
0.0
 41
1.0
 10
-0.3441371853049116
 20
2.367188211873982
 30
0.0
 41
1.0
 10
-0.3534407307520376
 20
2.391244585738512
 30
0.0
 41
1.0
 10
-0.3649960799445094
 20
2.418791259191863
 30
0.0
 41
1.0
 10
-0.3773042749151783
 20
2.444094545651117
 30
0.0
 41
1.0
 10
-0.3946780414095438
 20
2.47617502580018
 30
0.0
 41
1.0
 10
-0.4141949190242262
 20
2.50962624360584
 30
0.0
 41
1.0
 10
-0.4379477384436404
 20
2.54587166554139
 30
0.0
 41
1.0
 10
-0.4682030836902684
 20
2.588213202472017
 30
0.0
 41
1.0
 10
-0.5035233616327313
 20
2.632841082713379
 30
0.0
 41
1.0
 10
-0.5410619208492204
 20
2.676415308439767
 30
0.0
 41
1.0
 10
-0.583995766652035
 20
2.721903971364415
 30
0.0
 41
1.0
 10
-0.6309133602852675
 20
2.767546217522613
 30
0.0
 41
1.0
 10
-0.6802950054445517
 20
2.811711943541408
 30
0.0
 41
1.0
 10
-0.7215994855167145
 20
2.845854619749136
 30
0.0
 41
1.0
 10
-0.7535626008640366
 20
2.870764184162621
 30
0.0
 41
1.0
 10
-0.7752893005906628
 20
2.887061757312117
 30
0.0
 41
1.0
 10
-0.7862582053002832
 20
2.895133508941856
 30
0.0
 41
1.0
  0
SPLINE
  5
FC
330
64
100
AcDbEntity
  8
SLD-0
  6
Continuous
100
AcDbSpline
210
0.0
220
0.0
230
1.0
 70
    12
 71
     5
 72
    26
 73
    20
 74
     0
 42
0.00000001
 43
0.00000001
 40
0.0
 40
0.0
 40
0.0
 40
0.0
 40
0.0
 40
0.0
 40
0.0714285714285714
 40
0.1
 40
0.1428571428571429
 40
0.1857142857142857
 40
0.2142857142857143
 40
0.2714285714285715
 40
0.3571428571428572
 40
0.4142857142857144
 40
0.4857142857142858
 40
0.5714285714285713
 40
0.6571428571428567
 40
0.7428571428571421
 40
0.8285714285714275
 40
0.9142857142857129
 40
1.0
 40
1.0
 40
1.0
 40
1.0
 40
1.0
 40
1.0
 10
-0.3328784735067865
 20
2.325528070486916
 30
0.0
 41
1.0
 10
-0.3342744601819682
 20
2.3352549140033
 30
0.0
 41
1.0
 10
-0.3373862910779873
 20
2.34861502718745
 30
0.0
 41
1.0
 10
-0.3441371853049116
 20
2.367188211873982
 30
0.0
 41
1.0
 10
-0.3534407307520376
 20
2.391244585738512
 30
0.0
 41
1.0
 10
-0.3649960799445094
 20
2.418791259191863
 30
0.0
 41
1.0
 10
-0.3773042749151783
 20
2.444094545651117
 30
0.0
 41
1.0
 10
-0.3946780414095438
 20
2.47617502580018
 30
0.0
 41
1.0
 10
-0.4141949190242262
 20
2.50962624360584
 30
0.0
 41
1.0
 10
-0.4379477384436404
 20
2.54587166554139
 30
0.0
 41
1.0
 10
-0.4682030836902684
 20
2.588213202472017
 30
0.0
 41
1.0
 10
-0.5035233616327313
 20
2.632841082713379
 30
0.0
 41
1.0
 10
-0.5410619208492204
 20
2.676415308439767
 30
0.0
 41
1.0
 10
-0.583995766652035
 20
2.721903971364415
 30
0.0
 41
1.0
 10
-0.6309133602852675
 20
2.767546217522613
 30
0.0
 41
1.0
 10
-0.6802950054445517
 20
2.811711943541408
 30
0.0
 41
1.0
 10
-0.7215994855167145
 20
2.845854619749136
 30
0.0
 41
1.0
 10
-0.7535626008640366
 20
2.870764184162621
 30
0.0
 41
1.0
 10
-0.7752893005906628
 20
2.887061757312117
 30
0.0
 41
1.0
 10
-0.7862582053002832
 20
2.895133508941856
 30
0.0
 41
1.0
  0
SPLINE
  5
FD
330
64
100
AcDbEntity
  8
SLD-0
  6
Continuous
100
AcDbSpline
210
0.0
220
0.0
230
1.0
 70
    12
 71
     5
 72
    26
 73
    20
 74
     0
 42
0.00000001
 43
0.00000001
 40
0.0
 40
0.0
 40
0.0
 40
0.0
 40
0.0
 40
0.0
 40
0.0714285714285714
 40
0.1
 40
0.1428571428571429
 40
0.1857142857142857
 40
0.2142857142857143
 40
0.2714285714285715
 40
0.3571428571428572
 40
0.4142857142857144
 40
0.4857142857142858
 40
0.5714285714285713
 40
0.6571428571428567
 40
0.7428571428571421
 40
0.8285714285714275
 40
0.9142857142857129
 40
1.0
 40
1.0
 40
1.0
 40
1.0
 40
1.0
 40
1.0
 10
0.3328784735067867
 20
2.325528070486916
 30
0.0
 41
1.0
 10
0.3342744601819713
 20
2.335254914003303
 30
0.0
 41
1.0
 10
0.3373862910779689
 20
2.348615027187432
 30
0.0
 41
1.0
 10
0.3441371853049224
 20
2.367188211873993
 30
0.0
 41
1.0
 10
0.3534407307520289
 20
2.391244585738503
 30
0.0
 41
1.0
 10
0.3649960799445134
 20
2.418791259191869
 30
0.0
 41
1.0
 10
0.3773042749151751
 20
2.444094545651107
 30
0.0
 41
1.0
 10
0.3946780414095487
 20
2.476175025800194
 30
0.0
 41
1.0
 10
0.4141949190242195
 20
2.509626243605819
 30
0.0
 41
1.0
 10
0.4379477384436447
 20
2.545871665541405
 30
0.0
 41
1.0
 10
0.468203083690263
 20
2.588213202472003
 30
0.0
 41
1.0
 10
0.5035233616327364
 20
2.632841082713389
 30
0.0
 41
1.0
 10
0.5410619208492081
 20
2.676415308439766
 30
0.0
 41
1.0
 10
0.5839957666520474
 20
2.721903971364418
 30
0.0
 41
1.0
 10
0.6309133602852516
 20
2.767546217522604
 30
0.0
 41
1.0
 10
0.6802950054445651
 20
2.811711943541421
 30
0.0
 41
1.0
 10
0.7215994855167124
 20
2.845854619749135
 30
0.0
 41
1.0
 10
0.7535626008640453
 20
2.870764184162607
 30
0.0
 41
1.0
 10
0.7752893005906637
 20
2.887061757312119
 30
0.0
 41
1.0
 10
0.7862582053002833
 20
2.895133508941856
 30
0.0
 41
1.0
  0
SPLINE
  5
FE
330
64
100
AcDbEntity
  8
SLD-0
  6
Continuous
100
AcDbSpline
210
0.0
220
0.0
230
1.0
 70
    12
 71
     5
 72
    25
 73
    19
 74
     0
 42
0.00000001
 43
0.00000001
 40
-1.0
 40
-1.0
 40
-1.0
 40
-1.0
 40
-1.0
 40
-1.0
 40
-0.7857142857142848
 40
-0.6857142857142852
 40
-0.5714285714285713
 40
-0.4714285714285715
 40
-0.4142857142857144
 40
-0.3428571428571429
 40
-0.2857142857142858
 40
-0.2428571428571429
 40
-0.2
 40
-0.1428571428571429
 40
-0.1142857142857143
 40
-0.0714285714285714
 40
-0.0428571428571429
 40
0.0
 40
0.0
 40
0.0
 40
0.0
 40
0.0
 40
0.0
 10
0.7862582053002833
 20
2.895133508941856
 30
0.0
 41
1.0
 10
0.7588359435262331
 20
2.874954129867512
 30
0.0
 41
1.0
 10
0.7195842123488498
 20
2.844651553562479
 30
0.0
 41
1.0
 10
0.6679852917623799
 20
2.801898576119571
 30
0.0
 41
1.0
 10
0.6079185141451487
 20
2.746886291559907
 30
0.0
 41
1.0
 10
0.5466257132843696
 20
2.68287284340603
 30
0.0
 41
1.0
 10
0.5033646426863482
 20
2.632913117570824
 30
0.0
 41
1.0
 10
0.4669942127776671
 20
2.586517971343942
 30
0.0
 41
1.0
 10
0.4392428260893435
 20
2.547529734797909
 30
0.0
 41
1.0
 10
0.417617218690802
 20
2.514795256739303
 30
0.0
 41
1.0
 10
0.3977033020390944
 20
2.48147513375921
 30
0.0
 41
1.0
 10
0.3820306435862273
 20
2.453039559644151
 30
0.0
 41
1.0
 10
0.3682364512027552
 20
2.426095367722913
 30
0.0
 41
1.0
 10
0.3571989495188825
 20
2.400451206520038
 30
0.0
 41
1.0
 10
0.3470221764679715
 20
2.374584093946664
 30
0.0
 41
1.0
 10
0.33996110531087
 20
2.356072133078367
 30
0.0
 41
1.0
 10
0.3356081019945416
 20
2.3409806767965
 30
0.0
 41
1.0
 10
0.3337160655118974
 20
2.331364176596749
 30
0.0
 41
1.0
 10
0.3328784735067867
 20
2.325528070486916
 30
0.0
 41
1.0
  0
SPLINE
  5
FF
330
64
100
AcDbEntity
  8
SLD-0
  6
Continuous
100
AcDbSpline
210
0.0
220
0.0
230
1.0
 70
    12
 71
     5
 72
    26
 73
    20
 74
     0
 42
0.00000001
 43
0.00000001
 40
0.0
 40
0.0
 40
0.0
 40
0.0
 40
0.0
 40
0.0
 40
0.0714285714285714
 40
0.1
 40
0.1428571428571429
 40
0.1857142857142857
 40
0.2142857142857143
 40
0.2714285714285715
 40
0.3571428571428572
 40
0.4142857142857144
 40
0.4857142857142858
 40
0.5714285714285713
 40
0.6571428571428567
 40
0.7428571428571421
 40
0.8285714285714275
 40
0.9142857142857129
 40
1.0
 40
1.0
 40
1.0
 40
1.0
 40
1.0
 40
1.0
 10
1.097606761495799
 20
2.077052787452816
 30
0.0
 41
1.0
 10
1.102194679721945
 20
2.085742509539263
 30
0.0
 41
1.0
 10
1.107530033142037
 20
2.09838015646034
 30
0.0
 41
1.0
 10
1.112985489032087
 20
2.117374254577749
 30
0.0
 41
1.0
 10
1.11959874443862
 20
2.142304756665072
 30
0.0
 41
1.0
 10
1.126441798971574
 20
2.171382547467738
 30
0.0
 41
1.0
 10
1.131357158685501
 20
2.199087911712915
 30
0.0
 41
1.0
 10
1.136157919453341
 20
2.235253609063381
 30
0.0
 41
1.0
 10
1.140030566283315
 20
2.273787945583394
 30
0.0
 41
1.0
 10
1.142118656185529
 20
2.317072664852658
 30
0.0
 41
1.0
 10
1.142529298677542
 20
2.36911133353646
 30
0.0
 41
1.0
 10
1.140186203422989
 20
2.425976785556109
 30
0.0
 41
1.0
 10
1.135429158334538
 20
2.483293686185236
 30
0.0
 41
1.0
 10
1.12743251265978
 20
2.545330668929774
 30
0.0
 41
1.0
 10
1.116303221248633
 20
2.609833491343871
 30
0.0
 41
1.0
 10
1.102312593515212
 20
2.674590117020555
 30
0.0
 41
1.0
 10
1.088965128741708
 20
2.726490286546073
 30
0.0
 41
1.0
 10
1.077747899835819
 20
2.76542999529749
 30
0.0
 41
1.0
 10
1.069750103670742
 20
2.791385642622844
 30
0.0
 41
1.0
 10
1.065620529919106
 20
2.804363187287789
 30
0.0
 41
1.0
  0
SPLINE
  5
100
330
64
100
AcDbEntity
  8
SLD-0
  6
Continuous
100
AcDbSpline
210
0.0
220
0.0
230
1.0
 70
    12
 71
     5
 72
    26
 73
    20
 74
     0
 42
0.00000001
 43
0.00000001
 40
0.0
 40
0.0
 40
0.0
 40
0.0
 40
0.0
 40
0.0
 40
0.0714285714285714
 40
0.1
 40
0.1428571428571429
 40
0.1857142857142857
 40
0.2142857142857143
 40
0.2714285714285715
 40
0.3571428571428572
 40
0.4142857142857144
 40
0.4857142857142858
 40
0.5714285714285713
 40
0.6571428571428567
 40
0.7428571428571421
 40
0.8285714285714275
 40
0.9142857142857129
 40
1.0
 40
1.0
 40
1.0
 40
1.0
 40
1.0
 40
1.0
 10
1.097606761495799
 20
2.077052787452816
 30
0.0
 41
1.0
 10
1.102194679721945
 20
2.085742509539263
 30
0.0
 41
1.0
 10
1.107530033142037
 20
2.09838015646034
 30
0.0
 41
1.0
 10
1.112985489032087
 20
2.117374254577749
 30
0.0
 41
1.0
 10
1.11959874443862
 20
2.142304756665072
 30
0.0
 41
1.0
 10
1.126441798971574
 20
2.171382547467738
 30
0.0
 41
1.0
 10
1.131357158685501
 20
2.199087911712915
 30
0.0
 41
1.0
 10
1.136157919453341
 20
2.235253609063381
 30
0.0
 41
1.0
 10
1.140030566283315
 20
2.273787945583394
 30
0.0
 41
1.0
 10
1.142118656185529
 20
2.317072664852658
 30
0.0
 41
1.0
 10
1.142529298677542
 20
2.36911133353646
 30
0.0
 41
1.0
 10
1.140186203422989
 20
2.425976785556109
 30
0.0
 41
1.0
 10
1.135429158334538
 20
2.483293686185236
 30
0.0
 41
1.0
 10
1.12743251265978
 20
2.545330668929774
 30
0.0
 41
1.0
 10
1.116303221248633
 20
2.609833491343871
 30
0.0
 41
1.0
 10
1.102312593515212
 20
2.674590117020555
 30
0.0
 41
1.0
 10
1.088965128741708
 20
2.726490286546073
 30
0.0
 41
1.0
 10
1.077747899835819
 20
2.76542999529749
 30
0.0
 41
1.0
 10
1.069750103670742
 20
2.791385642622844
 30
0.0
 41
1.0
 10
1.065620529919106
 20
2.804363187287789
 30
0.0
 41
1.0
  0
SPLINE
  5
101
330
64
100
AcDbEntity
  8
SLD-0
  6
Continuous
100
AcDbSpline
210
0.0
220
0.0
230
1.0
 70
    12
 71
     5
 72
    26
 73
    20
 74
     0
 42
0.00000001
 43
0.00000001
 40
0.0
 40
0.0
 40
0.0
 40
0.0
 40
0.0
 40
0.0
 40
0.0714285714285714
 40
0.1
 40
0.1428571428571429
 40
0.1857142857142857
 40
0.2142857142857143
 40
0.2714285714285715
 40
0.3571428571428572
 40
0.4142857142857144
 40
0.4857142857142858
 40
0.5714285714285713
 40
0.6571428571428567
 40
0.7428571428571421
 40
0.8285714285714275
 40
0.9142857142857129
 40
1.0
 40
1.0
 40
1.0
 40
1.0
 40
1.0
 40
1.0
 10
1.636215445752961
 20
1.685730672386976
 30
0.0
 41
1.0
 10
1.643062117867393
 20
1.692779313713287
 30
0.0
 41
1.0
 10
1.653432519444478
 20
1.701758784017731
 30
0.0
 41
1.0
 10
1.669811151648159
 20
1.712816730002427
 30
0.0
 41
1.0
 10
1.691477859804015
 20
1.726810258474013
 30
0.0
 41
1.0
 10
1.717017862082266
 20
1.74230392159585
 30
0.0
 41
1.0
 10
1.741848299598892
 20
1.75554013486882
 30
0.0
 41
1.0
 10
1.774760405067225
 20
1.771281744774964
 30
0.0
 41
1.0
 10
1.810212023232016
 20
1.78687261562957
 30
0.0
 41
1.0
 10
1.850732982283492
 20
1.802234220988622
 30
0.0
 41
1.0
 10
1.900097801725897
 20
1.81870559819447
 30
0.0
 41
1.0
 10
1.954904116674361
 20
1.834049573251208
 30
0.0
 41
1.0
 10
2.010885736286863
 20
1.847237250880833
 30
0.0
 41
1.0
 10
2.072357512388853
 20
1.858802470851157
 30
0.0
 41
1.0
 10
2.137142482146579
 20
1.868150354043941
 30
0.0
 41
1.0
 10
2.2030530347013
 20
1.874855374203471
 30
0.0
 41
1.0
 10
2.256537622572186
 20
1.878199215248952
 30
0.0
 41
1.0
 10
2.297037800684624
 20
1.879564028363427
 30
0.0
 41
1.0
 10
2.324194543140567
 20
1.879978408328167
 30
0.0
 41
1.0
 10
2.337813030028457
 20
1.880061232148881
 30
0.0
 41
1.0
  0
SPLINE
  5
102
330
64
100
AcDbEntity
  8
SLD-0
  6
Continuous
100
AcDbSpline
210
0.0
220
0.0
230
1.0
 70
    12
 71
     5
 72
    25
 73
    19
 74
     0
 42
0.00000001
 43
0.00000001
 40
-1.0
 40
-1.0
 40
-1.0
 40
-1.0
 40
-1.0
 40
-1.0
 40
-0.7857142857142848
 40
-0.6857142857142852
 40
-0.5714285714285713
 40
-0.4714285714285715
 40
-0.4142857142857144
 40
-0.3428571428571429
 40
-0.2857142857142858
 40
-0.2428571428571429
 40
-0.2
 40
-0.1428571428571429
 40
-0.1142857142857143
 40
-0.0714285714285714
 40
-0.0428571428571429
 40
0.0
 40
0.0
 40
0.0
 40
0.0
 40
0.0
 40
0.0
 10
2.337813030028457
 20
1.880061232148881
 30
0.0
 41
1.0
 10
2.303766812808729
 20
1.879854172597097
 30
0.0
 41
1.0
 10
2.25420008776915
 20
1.878410462105928
 30
0.0
 41
1.0
 10
2.187326114490482
 20
1.874151661349582
 30
0.0
 41
1.0
 10
2.106395661041993
 20
1.864952154277365
 30
0.0
 41
1.0
 10
2.019182582739365
 20
1.849191191270156
 30
0.0
 41
1.0
 10
1.954818051376286
 20
1.834201143330989
 30
0.0
 41
1.0
 10
1.898123372757284
 20
1.818044683896826
 30
0.0
 41
1.0
 10
1.85275531885433
 20
1.802814393776421
 30
0.0
 41
1.0
 10
1.816018991510881
 20
1.789042857825747
 30
0.0
 41
1.0
 10
1.780323217622815
 20
1.77379141860345
 30
0.0
 41
1.0
 10
1.750929759482109
 20
1.759998713402364
 30
0.0
 41
1.0
 10
1.723932624773963
 20
1.746308427088679
 30
0.0
 41
1.0
 10
1.699929838573806
 20
1.732049545580993
 30
0.0
 41
1.0
 10
1.676492348937706
 20
1.717104369028978
 30
0.0
 41
1.0
 10
1.659898764783717
 20
1.706278271578853
 30
0.0
 41
1.0
 10
1.647506575686143
 20
1.696627658129477
 30
0.0
 41
1.0
 10
1.640323449021621
 20
1.689959857182763
 30
0.0
 41
1.0
 10
1.636215445752961
 20
1.685730672386976
 30
0.0
 41
1.0
  0
SPLINE
  5
103
330
64
100
AcDbEntity
  8
SLD-0
  6
Continuous
100
AcDbSpline
210
0.0
220
0.0
230
1.0
 70
    12
 71
     5
 72
    26
 73
    20
 74
     0
 42
0.00000001
 43
0.00000001
 40
0.0
 40
0.0
 40
0.0
 40
0.0
 40
0.0
 40
0.0
 40
0.0714285714285714
 40
0.1
 40
0.1428571428571429
 40
0.1857142857142857
 40
0.2142857142857143
 40
0.2714285714285715
 40
0.3571428571428572
 40
0.4142857142857144
 40
0.4857142857142858
 40
0.5714285714285713
 40
0.6571428571428567
 40
0.7428571428571421
 40
0.8285714285714275
 40
0.9142857142857129
 40
1.0
 40
1.0
 40
1.0
 40
1.0
 40
1.0
 40
1.0
 10
2.108843519888689
 20
1.035213936039451
 30
0.0
 41
1.0
 10
2.117662914191378
 20
1.039547358211733
 30
0.0
 41
1.0
 10
2.129407528263107
 20
1.046635387283676
 30
0.0
 41
1.0
 10
2.144985535544249
 20
1.058795298936813
 30
0.0
 41
1.0
 10
2.164989553015434
 20
1.075077324806127
 30
0.0
 41
1.0
 10
2.187617197029093
 20
1.094579505189278
 30
0.0
 41
1.0
 10
2.207878611083827
 20
1.114104439749406
 30
0.0
 41
1.0
 10
2.233020171672419
 20
1.140541287140239
 30
0.0
 41
1.0
 10
2.258803123484411
 20
1.169439935557892
 30
0.0
 41
1.0
 10
2.285934543337186
 20
1.203230660593497
 30
0.0
 41
1.0
 10
2.316854322093105
 20
1.245089458322568
 30
0.0
 41
1.0
 10
2.348383392274836
 20
1.292471812234627
 30
0.0
 41
1.0
 10
2.378224890852171
 20
1.341638279855966
 30
0.0
 41
1.0
 10
2.408219892157282
 20
1.39652756357148
 30
0.0
 41
1.0
 10
2.437129914016535
 20
1.455253076449554
 30
0.0
 41
1.0
 10
2.463874247979214
 20
1.515865771772405
 30
0.0
 41
1.0
 10
2.483582076384196
 20
1.565699333878837
 30
0.0
 41
1.0
 10
2.497395334102231
 20
1.603795541737236
 30
0.0
 41
1.0
 10
2.506181327798646
 20
1.629495088160108
 30
0.0
 41
1.0
 10
2.510468441819071
 20
1.642421444888774
 30
0.0
 41
1.0
  0
SPLINE
  5
104
330
64
100
AcDbEntity
  8
SLD-0
  6
Continuous
100
AcDbSpline
210
0.0
220
0.0
230
1.0
 70
    12
 71
     5
 72
    26
 73
    20
 74
     0
 42
0.00000001
 43
0.00000001
 40
0.0
 40
0.0
 40
0.0
 40
0.0
 40
0.0
 40
0.0
 40
0.0714285714285714
 40
0.1
 40
0.1428571428571429
 40
0.1857142857142857
 40
0.2142857142857143
 40
0.2714285714285715
 40
0.3571428571428572
 40
0.4142857142857144
 40
0.4857142857142858
 40
0.5714285714285713
 40
0.6571428571428567
 40
0.7428571428571421
 40
0.8285714285714275
 40
0.9142857142857129
 40
1.0
 40
1.0
 40
1.0
 40
1.0
 40
1.0
 40
1.0
 10
2.108843519888689
 20
1.035213936039451
 30
0.0
 41
1.0
 10
2.117662914191378
 20
1.039547358211733
 30
0.0
 41
1.0
 10
2.129407528263107
 20
1.046635387283676
 30
0.0
 41
1.0
 10
2.144985535544249
 20
1.058795298936813
 30
0.0
 41
1.0
 10
2.164989553015434
 20
1.075077324806127
 30
0.0
 41
1.0
 10
2.187617197029093
 20
1.094579505189278
 30
0.0
 41
1.0
 10
2.207878611083827
 20
1.114104439749406
 30
0.0
 41
1.0
 10
2.233020171672419
 20
1.140541287140239
 30
0.0
 41
1.0
 10
2.258803123484411
 20
1.169439935557892
 30
0.0
 41
1.0
 10
2.285934543337186
 20
1.203230660593497
 30
0.0
 41
1.0
 10
2.316854322093105
 20
1.245089458322568
 30
0.0
 41
1.0
 10
2.348383392274836
 20
1.292471812234627
 30
0.0
 41
1.0
 10
2.378224890852171
 20
1.341638279855966
 30
0.0
 41
1.0
 10
2.408219892157282
 20
1.39652756357148
 30
0.0
 41
1.0
 10
2.437129914016535
 20
1.455253076449554
 30
0.0
 41
1.0
 10
2.463874247979214
 20
1.515865771772405
 30
0.0
 41
1.0
 10
2.483582076384196
 20
1.565699333878837
 30
0.0
 41
1.0
 10
2.497395334102231
 20
1.603795541737236
 30
0.0
 41
1.0
 10
2.506181327798646
 20
1.629495088160108
 30
0.0
 41
1.0
 10
2.510468441819071
 20
1.642421444888774
 30
0.0
 41
1.0
  0
SPLINE
  5
105
330
64
100
AcDbEntity
  8
SLD-0
  6
Continuous
100
AcDbSpline
210
0.0
220
0.0
230
1.0
 70
    12
 71
     5
 72
    26
 73
    20
 74
     0
 42
0.00000001
 43
0.00000001
 40
0.0
 40
0.0
 40
0.0
 40
0.0
 40
0.0
 40
0.0
 40
0.0714285714285714
 40
0.1
 40
0.1428571428571429
 40
0.1857142857142857
 40
0.2142857142857143
 40
0.2714285714285715
 40
0.3571428571428572
 40
0.4142857142857144
 40
0.4857142857142858
 40
0.5714285714285713
 40
0.6571428571428567
 40
0.7428571428571421
 40
0.8285714285714275
 40
0.9142857142857129
 40
1.0
 40
1.0
 40
1.0
 40
1.0
 40
1.0
 40
1.0
 10
2.314573730639065
 20
0.4020414533134246
 30
0.0
 41
1.0
 10
2.324255892154857
 20
0.4037195510375201
 30
0.0
 41
1.0
 10
2.337923723487564
 20
0.4048885260069272
 30
0.0
 41
1.0
 10
2.357674012855409
 20
0.4042074737693958
 30
0.0
 41
1.0
 10
2.383427937628792
 20
0.4027931045944348
 30
0.0
 41
1.0
 10
2.413197180195274
 20
0.400315704682452
 30
0.0
 41
1.0
 10
2.441065477082039
 20
0.396429061181212
 30
0.0
 41
1.0
 10
2.476944615876757
 20
0.3898190408979246
 30
0.0
 41
1.0
 10
2.514789661408893
 20
0.3815943820492336
 30
0.0
 41
1.0
 10
2.556601130991498
 20
0.3702045597063917
 30
0.0
 41
1.0
 10
2.606219741451206
 20
0.3545142709363467
 30
0.0
 41
1.0
 10
2.65957794389346
 20
0.3347134638593183
 30
0.0
 41
1.0
 10
2.712619547955307
 20
0.3124773487703351
 30
0.0
 41
1.0
 10
2.769149125234284
 20
0.2857016048450557
 30
0.0
 41
1.0
 10
2.827055814629238
 20
0.2551845514156214
 30
0.0
 41
1.0
 10
2.884319683720738
 20
0.2218677759102169
 30
0.0
 41
1.0
 10
2.929555084697969
 20
0.1931355481670381
 30
0.0
 41
1.0
 10
2.963122634086941
 20
0.1704342977611002
 30
0.0
 41
1.0
 10
2.985336466677813
 20
0.1548072054787834
 30
0.0
 41
1.0
 10
2.996402736628139
 20
0.1468694656060401
 30
0.0
 41
1.0
  0
SPLINE
  5
106
330
64
100
AcDbEntity
  8
SLD-0
  6
Continuous
100
AcDbSpline
210
0.0
220
0.0
230
1.0
 70
    12
 71
     5
 72
    26
 73
    20
 74
     0
 42
0.00000001
 43
0.00000001
 40
0.0
 40
0.0
 40
0.0
 40
0.0
 40
0.0
 40
0.0
 40
0.0714285714285714
 40
0.1
 40
0.1428571428571429
 40
0.1857142857142857
 40
0.2142857142857143
 40
0.2714285714285715
 40
0.3571428571428572
 40
0.4142857142857144
 40
0.4857142857142858
 40
0.5714285714285713
 40
0.6571428571428567
 40
0.7428571428571421
 40
0.8285714285714275
 40
0.9142857142857129
 40
1.0
 40
1.0
 40
1.0
 40
1.0
 40
1.0
 40
1.0
 10
2.314573730639065
 20
-0.4020414533134246
 30
0.0
 41
1.0
 10
2.324255892154857
 20
-0.4037195510375201
 30
0.0
 41
1.0
 10
2.337923723487564
 20
-0.4048885260069272
 30
0.0
 41
1.0
 10
2.357674012855409
 20
-0.4042074737693958
 30
0.0
 41
1.0
 10
2.383427937628792
 20
-0.4027931045944348
 30
0.0
 41
1.0
 10
2.413197180195274
 20
-0.400315704682452
 30
0.0
 41
1.0
 10
2.441065477082039
 20
-0.396429061181212
 30
0.0
 41
1.0
 10
2.476944615876757
 20
-0.3898190408979246
 30
0.0
 41
1.0
 10
2.514789661408893
 20
-0.3815943820492336
 30
0.0
 41
1.0
 10
2.556601130991498
 20
-0.3702045597063917
 30
0.0
 41
1.0
 10
2.606219741451206
 20
-0.3545142709363467
 30
0.0
 41
1.0
 10
2.65957794389346
 20
-0.3347134638593183
 30
0.0
 41
1.0
 10
2.712619547955307
 20
-0.3124773487703351
 30
0.0
 41
1.0
 10
2.769149125234284
 20
-0.2857016048450557
 30
0.0
 41
1.0
 10
2.827055814629238
 20
-0.2551845514156214
 30
0.0
 41
1.0
 10
2.884319683720738
 20
-0.2218677759102169
 30
0.0
 41
1.0
 10
2.929555084697969
 20
-0.1931355481670381
 30
0.0
 41
1.0
 10
2.963122634086941
 20
-0.1704342977611002
 30
0.0
 41
1.0
 10
2.985336466677813
 20
-0.1548072054787834
 30
0.0
 41
1.0
 10
2.996402736628139
 20
-0.1468694656060401
 30
0.0
 41
1.0
  0
SPLINE
  5
107
330
64
100
AcDbEntity
  8
SLD-0
  6
Continuous
100
AcDbSpline
210
0.0
220
0.0
230
1.0
 70
    12
 71
     5
 72
    25
 73
    19
 74
     0
 42
0.00000001
 43
0.00000001
 40
-1.0
 40
-1.0
 40
-1.0
 40
-1.0
 40
-1.0
 40
-1.0
 40
-0.7857142857142848
 40
-0.6857142857142852
 40
-0.5714285714285713
 40
-0.4714285714285715
 40
-0.4142857142857144
 40
-0.3428571428571429
 40
-0.2857142857142858
 40
-0.2428571428571429
 40
-0.2
 40
-0.1428571428571429
 40
-0.1142857142857143
 40
-0.0714285714285714
 40
-0.0428571428571429
 40
0.0
 40
0.0
 40
0.0
 40
0.0
 40
0.0
 40
0.0
 10
2.996402736628139
 20
0.1468694656060401
 30
0.0
 41
1.0
 10
2.968737061752318
 20
0.166713815287898
 30
0.0
 41
1.0
 10
2.927788147104353
 20
0.1946804189484289
 30
0.0
 41
1.0
 10
2.871182705963804
 20
0.2305425120159826
 30
0.0
 41
1.0
 10
2.800301259175811
 20
0.2706696814533685
 30
0.0
 41
1.0
 10
2.72048033507985
 20
0.3091813557659153
 30
0.0
 41
1.0
 10
2.659597406262265
 20
0.3348866745426747
 30
0.0
 41
1.0
 10
2.604233919184227
 20
0.355140120267163
 30
0.0
 41
1.0
 10
2.558578252654105
 20
0.3694852297398868
 30
0.0
 41
1.0
 10
2.520763233789109
 20
0.3799368945530074
 30
0.0
 41
1.0
 10
2.482920175035199
 20
0.3885796704940619
 30
0.0
 41
1.0
 10
2.451033219169503
 20
0.3946981787969652
 30
0.0
 41
1.0
 10
2.421145129996335
 20
0.3994910221469361
 30
0.0
 41
1.0
 10
2.393345307783658
 20
0.4020638284288218
 30
0.0
 41
1.0
 10
2.365599425992383
 20
0.4037491373731645
 30
0.0
 41
1.0
 10
2.345811513993153
 20
0.4047441046016428
 30
0.0
 41
1.0
 10
2.330113534154587
 20
0.4042205403101233
 30
0.0
 41
1.0
 10
2.320383027548541
 20
0.4030483119478818
 30
0.0
 41
1.0
 10
2.314573730639065
 20
0.4020414533134246
 30
0.0
 41
1.0
  0
SPLINE
  5
108
330
64
100
AcDbEntity
  8
SLD-0
  6
Continuous
100
AcDbSpline
210
0.0
220
0.0
230
1.0
 70
    12
 71
     5
 72
    26
 73
    20
 74
     0
 42
0.00000001
 43
0.00000001
 40
0.0
 40
0.0
 40
0.0
 40
0.0
 40
0.0
 40
0.0
 40
0.0714285714285714
 40
0.1
 40
0.1428571428571429
 40
0.1857142857142857
 40
0.2142857142857143
 40
0.2714285714285715
 40
0.3571428571428572
 40
0.4142857142857144
 40
0.4857142857142858
 40
0.5714285714285713
 40
0.6571428571428567
 40
0.7428571428571421
 40
0.8285714285714275
 40
0.9142857142857129
 40
1.0
 40
1.0
 40
1.0
 40
1.0
 40
1.0
 40
1.0
 10
2.314573730639065
 20
-0.4020414533134246
 30
0.0
 41
1.0
 10
2.324255892154857
 20
-0.4037195510375201
 30
0.0
 41
1.0
 10
2.337923723487564
 20
-0.4048885260069272
 30
0.0
 41
1.0
 10
2.357674012855409
 20
-0.4042074737693958
 30
0.0
 41
1.0
 10
2.383427937628792
 20
-0.4027931045944348
 30
0.0
 41
1.0
 10
2.413197180195274
 20
-0.400315704682452
 30
0.0
 41
1.0
 10
2.441065477082039
 20
-0.396429061181212
 30
0.0
 41
1.0
 10
2.476944615876757
 20
-0.3898190408979246
 30
0.0
 41
1.0
 10
2.514789661408893
 20
-0.3815943820492336
 30
0.0
 41
1.0
 10
2.556601130991498
 20
-0.3702045597063917
 30
0.0
 41
1.0
 10
2.606219741451206
 20
-0.3545142709363467
 30
0.0
 41
1.0
 10
2.65957794389346
 20
-0.3347134638593183
 30
0.0
 41
1.0
 10
2.712619547955307
 20
-0.3124773487703351
 30
0.0
 41
1.0
 10
2.769149125234284
 20
-0.2857016048450557
 30
0.0
 41
1.0
 10
2.827055814629238
 20
-0.2551845514156214
 30
0.0
 41
1.0
 10
2.884319683720738
 20
-0.2218677759102169
 30
0.0
 41
1.0
 10
2.929555084697969
 20
-0.1931355481670381
 30
0.0
 41
1.0
 10
2.963122634086941
 20
-0.1704342977611002
 30
0.0
 41
1.0
 10
2.985336466677813
 20
-0.1548072054787834
 30
0.0
 41
1.0
 10
2.996402736628139
 20
-0.1468694656060401
 30
0.0
 41
1.0
  0
ENDBLK
  5
66
330
64
100
AcDbEntity
  8
0
100
AcDbBlockEnd
  0
ENDSEC
  0
SECTION
  2
ENTITIES
  0
INSERT
  5
109
330
1F
100
AcDbEntity
  8
0
  6
Continuous
 62
     7
100
AcDbBlockReference
  2
SPURGEAR(10TEETH)
 10
3.0
 20
7.0
 30
0.0
  0
MTEXT
  5
10B
330
1F
100
AcDbEntity
  8
0
  6
Continuous
 62
     7
100
AcDbMText
 10
0.0
 20
0.482508719
 30
0.0
 40
0.173
 41
0.0
 71
     1
 72
     1
  1
SOLIDWORKS Educational Product.
  7
SLDTEXTSTYLE0
 73
     1
 44
1.0
  0
MTEXT
  5
10C
330
1F
100
AcDbEntity
  8
0
  6
Continuous
 62
     7
100
AcDbMText
 10
0.0
 20
0.223008719
 30
0.0
 40
0.173
 41
0.0
 71
     1
 72
     1
  1
For Instructional Use Only.
  7
SLDTEXTSTYLE0
 73
     1
 44
1.0
  0
ENDSEC
  0
SECTION
  2
OBJECTS
  0
DICTIONARY
  5
C
330
0
100
AcDbDictionary
281
     1
  3
ACAD_GROUP
350
D
  3
ACAD_LAYOUT
350
1A
  3
ACAD_MLINESTYLE
350
17
  3
ACAD_PLOTSETTINGS
350
19
  3
ACAD_PLOTSTYLENAME
350
E
  3
ACAD_SCALELIST
350
47
  3
DWGPROPS
350
10D
  0
DICTIONARY
  5
D
102
{ACAD_REACTORS
330
C
102
}
330
C
100
AcDbDictionary
281
     1
  0
DICTIONARY
  5
1A
102
{ACAD_REACTORS
330
C
102
}
330
C
100
AcDbDictionary
281
     1
  3
Layout1
350
1E
  3
Layout2
350
26
  3
Model
350
22
  0
DICTIONARY
  5
17
102
{ACAD_REACTORS
330
C
102
}
330
C
100
AcDbDictionary
281
     1
  3
Standard
350
18
  0
DICTIONARY
  5
19
102
{ACAD_REACTORS
330
C
102
}
330
C
100
AcDbDictionary
281
     1
  0
ACDBDICTIONARYWDFLT
  5
E
102
{ACAD_REACTORS
330
C
102
}
330
C
100
AcDbDictionary
281
     1
  3
Normal
350
F
100
AcDbDictionaryWithDefault
340
F
  0
DICTIONARY
  5
47
102
{ACAD_REACTORS
330
C
102
}
330
C
100
AcDbDictionary
281
     1
  3
A0
350
48
  3
A1
350
49
  3
A2
350
4A
  3
A3
350
4B
  3
A4
350
4C
  3
A5
350
4D
  3
A6
350
4E
  3
A7
350
4F
  3
A8
350
50
  3
A9
350
51
  3
B0
350
52
  3
B1
350
53
  3
B2
350
54
  3
B3
350
55
  3
B4
350
56
  3
B5
350
57
  3
B6
350
58
  0
XRECORD
  5
10D
102
{ACAD_REACTORS
330
C
102
}
330
C
100
AcDbXrecord
280
     1
  1
DWGPROPS COOKIE
  2

  3

  4

  6

  7

  8
Gursager Singh
  9

300
=
301
=
302
=
303
=
304
=
305
=
306
=
307
=
308
=
309
=
 40
0.0
 41
2460390.966773172
 42
2460390.966773739
  1

 90
        0
  0
LAYOUT
  5
1E
102
{ACAD_REACTORS
330
1A
102
}
330
1A
100
AcDbPlotSettings
  1

  2
none_device
  4

  6

 40
0.0
 41
0.0
 42
0.0
 43
0.0
 44
0.0
 45
0.0
 46
0.0
 47
0.0
 48
0.0
 49
0.0
140
0.0
141
0.0
142
1.0
143
1.0
 70
   688
 72
     1
 73
     0
 74
     5
  7

 75
    16
147
1.0
148
0.0
149
0.0
100
AcDbLayout
  1
Layout1
 70
     1
 71
     1
 10
0.0
 20
0.0
 11
420.0
 21
297.0
 12
0.0
 22
0.0
 32
0.0
 14
1.0000000000E+20
 24
1.0000000000E+20
 34
1.0000000000E+20
 15
-1.0000000000E+20
 25
-1.0000000000E+20
 35
-1.0000000000E+20
146
0.0
 13
0.0
 23
0.0
 33
0.0
 16
1.0
 26
0.0
 36
0.0
 17
0.0
 27
1.0
 37
0.0
 76
     0
330
1B
  0
LAYOUT
  5
26
102
{ACAD_REACTORS
330
1A
102
}
330
1A
100
AcDbPlotSettings
  1

  2
none_device
  4

  6

 40
0.0
 41
0.0
 42
0.0
 43
0.0
 44
0.0
 45
0.0
 46
0.0
 47
0.0
 48
0.0
 49
0.0
140
0.0
141
0.0
142
1.0
143
1.0
 70
   688
 72
     1
 73
     0
 74
     5
  7

 75
    16
147
1.0
148
0.0
149
0.0
100
AcDbLayout
  1
Layout2
 70
     1
 71
     2
 10
0.0
 20
0.0
 11
0.0
 21
0.0
 12
0.0
 22
0.0
 32
0.0
 14
0.0
 24
0.0
 34
0.0
 15
0.0
 25
0.0
 35
0.0
146
0.0
 13
0.0
 23
0.0
 33
0.0
 16
1.0
 26
0.0
 36
0.0
 17
0.0
 27
1.0
 37
0.0
 76
     0
330
23
  0
LAYOUT
  5
22
102
{ACAD_REACTORS
330
1A
102
}
330
1A
100
AcDbPlotSettings
  1

  2
none_device
  4
Letter_(8.50_x_11.00_Inches)
  6

 40
6.35
 41
6.35
 42
6.35000508
 43
6.35000508
 44
215.9
 45
279.4
 46
0.0
 47
0.0
 48
0.0
 49
0.0
140
0.0
141
0.0
142
1.0
143
1.0
 70
  1712
 72
     1
 73
     0
 74
     0
  7

 75
     0
147
1.0
148
0.0
149
0.0
100
AcDbLayout
  1
Model
 70
     1
 71
     0
 10
0.0
 20
0.0
 11
10.0
 21
10.0
 12
0.0
 22
0.0
 32
0.0
 14
0.0
 24
0.0
 34
0.0
 15
10.0
 25
10.0
 35
0.0
146
0.0
 13
0.0
 23
0.0
 33
0.0
 16
1.0
 26
0.0
 36
0.0
 17
0.0
 27
1.0
 37
0.0
 76
     0
330
1F
331
29
  0
MLINESTYLE
  5
18
102
{ACAD_REACTORS
330
17
102
}
330
17
100
AcDbMlineStyle
  2
Standard
 70
     0
  3

 62
   256
 51
90.0
 52
90.0
 71
     2
 49
0.5
 62
   256
  6
BYLAYER
 49
-0.5
 62
   256
  6
BYLAYER
  0
ACDBPLACEHOLDER
  5
F
102
{ACAD_REACTORS
330
E
102
}
330
E
  0
SCALE
  5
48
102
{ACAD_REACTORS
330
47
102
}
330
47
100
AcDbScale
 70
     0
300
1:1
140
1.0
141
1.0
290
     1
  0
SCALE
  5
49
102
{ACAD_REACTORS
330
47
102
}
330
47
100
AcDbScale
 70
     0
300
1:2
140
1.0
141
2.0
290
     0
  0
SCALE
  5
4A
102
{ACAD_REACTORS
330
47
102
}
330
47
100
AcDbScale
 70
     0
300
1:4
140
1.0
141
4.0
290
     0
  0
SCALE
  5
4B
102
{ACAD_REACTORS
330
47
102
}
330
47
100
AcDbScale
 70
     0
300
1:5
140
1.0
141
5.0
290
     0
  0
SCALE
  5
4C
102
{ACAD_REACTORS
330
47
102
}
330
47
100
AcDbScale
 70
     0
300
1:8
140
1.0
141
8.0
290
     0
  0
SCALE
  5
4D
102
{ACAD_REACTORS
330
47
102
}
330
47
100
AcDbScale
 70
     0
300
1:10
140
1.0
141
10.0
290
     0
  0
SCALE
  5
4E
102
{ACAD_REACTORS
330
47
102
}
330
47
100
AcDbScale
 70
     0
300
1:16
140
1.0
141
16.0
290
     0
  0
SCALE
  5
4F
102
{ACAD_REACTORS
330
47
102
}
330
47
100
AcDbScale
 70
     0
300
1:20
140
1.0
141
20.0
290
     0
  0
SCALE
  5
50
102
{ACAD_REACTORS
330
47
102
}
330
47
100
AcDbScale
 70
     0
300
1:30
140
1.0
141
30.0
290
     0
  0
SCALE
  5
51
102
{ACAD_REACTORS
330
47
102
}
330
47
100
AcDbScale
 70
     0
300
1:40
140
1.0
141
40.0
290
     0
  0
SCALE
  5
52
102
{ACAD_REACTORS
330
47
102
}
330
47
100
AcDbScale
 70
     0
300
1:50
140
1.0
141
50.0
290
     0
  0
SCALE
  5
53
102
{ACAD_REACTORS
330
47
102
}
330
47
100
AcDbScale
 70
     0
300
1:100
140
1.0
141
100.0
290
     0
  0
SCALE
  5
54
102
{ACAD_REACTORS
330
47
102
}
330
47
100
AcDbScale
 70
     0
300
2:1
140
2.0
141
1.0
290
     0
  0
SCALE
  5
55
102
{ACAD_REACTORS
330
47
102
}
330
47
100
AcDbScale
 70
     0
300
4:1
140
4.0
141
1.0
290
     0
  0
SCALE
  5
56
102
{ACAD_REACTORS
330
47
102
}
330
47
100
AcDbScale
 70
     0
300
8:1
140
8.0
141
1.0
290
     0
  0
SCALE
  5
57
102
{ACAD_REACTORS
330
47
102
}
330
47
100
AcDbScale
 70
     0
300
10:1
140
10.0
141
1.0
290
     0
  0
SCALE
  5
58
102
{ACAD_REACTORS
330
47
102
}
330
47
100
AcDbScale
 70
     0
300
100:1
140
100.0
141
1.0
290
     0
  0
ENDSEC
  0
EOF
