0
SECTION
2
HEADER
9
$INSUNITS
70
4
9
$ACADVER
1
AC1014
9
$HANDSEED
5
FFFF
0
ENDSEC
0
SECTION
2
TABLES
0
TABLE
2
VPORT
5
8
100
AcDbSymbolTable
0
ENDTAB
0
TABLE
2
LTYPE
5
5
100
AcDbSymbolTable
0
LTYPE
5
14
100
AcDbSymbolTableRecord
100
AcDbLinetypeTableRecord
2
BYBLOCK
70
0
0
LTYPE
5
15
100
AcDbSymbolTableRecord
100
AcDbLinetypeTableRecord
2
BYLAYER
70
0
0
ENDTAB
0
TABLE
2
LAYER
5
2
100
AcDbSymbolTable
70
2
0
LAYER
5
50
100
AcDbSymbolTableRecord
100
AcDbLayerTableRecord
2
0
70
0
6
CONTINUOUS
0
ENDTAB
0
TABLE
2
STYLE
5
3
100
AcDbSymbolTable
70
1
0
STYLE
5
11
100
AcDbSymbolTableRecord
100
AcDbTextStyleTableRecord
2
STANDARD
70
0
0
ENDTAB
0
TABLE
2
VIEW
5
6
100
AcDbSymbolTable
70
0
0
ENDTAB
0
TABLE
2
UCS
5
7
100
AcDbSymbolTable
70
0
0
ENDTAB
0
TABLE
2
APPID
5
9
100
AcDbSymbolTable
70
2
0
APPID
5
12
100
AcDbSymbolTableRecord
100
AcDbRegAppTableRecord
2
ACAD
70
0
0
ENDTAB
0
TABLE
2
DIMSTYLE
5
A
100
AcDbSymbolTable
70
1
0
ENDTAB
0
TABLE
2
BLOCK_RECORD
5
1
100
AcDbSymbolTable
70
1
0
BLOCK_RECORD
5
1F
100
AcDbSymbolTableRecord
100
AcDbBlockTableRecord
2
*MODEL_SPACE
0
BLOCK_RECORD
5
1B
100
AcDbSymbolTableRecord
100
AcDbBlockTableRecord
2
*PAPER_SPACE
0
ENDTAB
0
ENDSEC
0
SECTION
2
BLOCKS
0
BLOCK
5
20
100
AcDbEntity
100
AcDbBlockBegin
2
*MODEL_SPACE
0
ENDBLK
5
21
100
AcDbEntity
100
AcDbBlockEnd
0
BLOCK
5
1C
100
AcDbEntity
100
AcDbBlockBegin
2
*PAPER_SPACE
0
ENDBLK
5
1D
100
AcDbEntity
100
AcDbBlockEnd
0
ENDSEC
0
SECTION
2
ENTITIES
0
SPLINE
5
100
100
AcDbEntity
8
0
100
AcDbSpline
70
0
71
3
72
16
73
12
74
0
42
0.000000001
43
0.0000000001
44
0.0000000001
40
0
40
0
40
0
40
0
40
0.0625
40
0.125
40
0.1875
40
0.25
40
0.375
40
0.5
40
0.625
40
0.75
40
1
40
1
40
1
40
1
10
84.750868731546646
20
56.195265407791446
30
0
10
84.853900418214067
20
56.185661722729407
30
1.1102230246251565e-15
10
85.06090164968343
20
56.193673253739505
30
2.2204460492503131e-15
10
85.372329081635115
20
56.22237815825293
30
1.1102230246251565e-15
10
85.683899617934856
20
56.265606592933381
30
2.2204460492503131e-15
10
86.099228526606908
20
56.345282839011936
30
0
10
86.617466652574663
20
56.472316279174102
30
0
10
87.236628448571366
20
56.666799623339074
30
1.1102230246251565e-15
10
87.852042792321967
20
56.897203786248539
30
2.2204460492503131e-15
10
88.666481294600885
20
57.248762671542636
30
0
10
89.269219679799349
20
57.558586850844982
30
1.1102230246251565e-15
10
89.66661925146721
20
57.783551513894629
30
0
0
ARC
5
101
100
AcDbEntity
8
0
100
AcDbCircle
10
56.683078957752322
20
58.825698189225122
30
0
40
33.000000000000256
210
0
220
0
230
1
100
AcDbArc
50
-1.8097131992768134
51
1.8097131992727753
0
SPLINE
5
102
100
AcDbEntity
8
0
100
AcDbSpline
70
0
71
3
72
16
73
12
74
0
42
0.000000001
43
0.0000000001
44
0.0000000001
40
-1
40
-1
40
-1
40
-1
40
-0.75
40
-0.625
40
-0.5
40
-0.375
40
-0.25
40
-0.1875
40
-0.125
40
-0.0625
40
0
40
0
40
0
40
0
10
89.666619251467267
20
59.867844864553376
30
0
10
89.269219679798994
20
60.092809527603031
30
1.1102230246251565e-15
10
88.666481740114875
20
60.40263084892986
30
0
10
87.85204294468528
20
60.754191571986517
30
0
10
87.236628506864804
20
60.984599034651168
30
3.3306690738754696e-15
10
86.617466652660369
20
61.17907823439139
30
-1.1102230246251565e-15
10
86.099228523940084
20
61.306113986574346
30
1.1102230246251565e-15
10
85.68389962893562
20
61.38578927601035
30
0
10
85.372329081926068
20
61.429018439084643
30
2.2204460492503131e-15
10
85.060901570426495
20
61.457726608937087
30
-1.1102230246251565e-15
10
84.853900418214153
20
61.465734655718563
30
1.1102230246251565e-15
10
84.750868731546717
20
61.456130970656545
30
0
0
LINE
5
103
100
AcDbEntity
8
0
100
AcDbLine
10
84.750868731546717
20
61.456130970656545
30
0
11
84.452138652702956
21
61.428286045580023
31
0
0
ARC
5
104
100
AcDbEntity
8
0
100
AcDbCircle
10
84.304804868027631
20
63.008934332167954
30
0
40
1.5875000000000479
210
0
220
0
230
1
100
AcDbArc
50
188.61184845903949
51
275.32520933172219
0
ARC
5
105
100
AcDbEntity
8
0
100
AcDbCircle
10
56.683078957752322
20
58.825698189225122
30
0
40
26.349199999999904
210
0
220
-0
230
1
100
AcDbArc
50
8.6118484590354036
51
9.3881515409597736
0
ARC
5
106
100
AcDbEntity
8
0
100
AcDbCircle
10
84.245592435691506
20
63.382786916517674
30
0
40
1.5875000000000037
210
0
220
0
230
1
100
AcDbArc
50
102.67479066827767
51
189.38815154096162
0
LINE
5
107
100
AcDbEntity
8
0
100
AcDbLine
10
83.8972680089921
20
64.931601412758113
30
0
11
84.189981752145485
21
64.997431986411996
31
0
0
SPLINE
5
108
100
AcDbEntity
8
0
100
AcDbSpline
70
0
71
3
72
16
73
12
74
0
42
0.000000001
43
0.0000000001
44
0.0000000001
40
0
40
0
40
0
40
0
40
0.0625
40
0.125
40
0.1875
40
0.25
40
0.375
40
0.5
40
0.625
40
0.75
40
1
40
1
40
1
40
1
10
84.189981752145485
20
64.997431986411996
30
0
10
84.29093841102825
20
65.020136881292672
30
1.1102230246251565e-15
10
84.485332581865237
20
65.091723198445891
30
2.2204460492503131e-15
10
84.772647367059363
20
65.215259553920674
30
1.1102230246251565e-15
10
85.055610234936381
20
65.352652829075836
30
2.2204460492503131e-15
10
85.425990185848264
20
65.556773133137582
30
0
10
85.879608440678524
20
65.837733502248341
30
0
10
86.408367642932234
20
66.214029671257933
30
1.1102230246251565e-15
10
86.922462662864206
20
66.6233305425758
30
2.2204460492503131e-15
10
87.588402037498284
20
67.209358249373082
30
0
10
88.065899369691479
20
67.690274958193925
30
1.1102230246251565e-15
10
88.374330917881707
20
68.027032288125426
30
0
0
ARC
5
109
100
AcDbEntity
8
0
100
AcDbCircle
10
56.683078957752322
20
58.825698189225122
30
0
40
32.999999999999851
210
0
220
-0
230
1
100
AcDbArc
50
16.190286800723282
51
19.80971319927302
0
SPLINE
5
110
100
AcDbEntity
8
0
100
AcDbSpline
70
0
71
3
72
16
73
12
74
0
42
0.000000001
43
0.0000000001
44
0.0000000001
40
-1
40
-1
40
-1
40
-1
40
-0.75
40
-0.625
40
-0.5
40
-0.375
40
-0.25
40
-0.1875
40
-0.125
40
-0.0625
40
0
40
0
40
0
40
0
10
87.730248851265515
20
70.009313061140062
30
0
10
87.282781495043054
20
70.10046394866832
30
1.1102230246251565e-15
10
86.613803596375817
20
70.208865268683908
30
0
10
85.730588034880498
20
70.291543956555401
30
0
10
85.074094301974981
20
70.320500955455302
30
3.3306690738754696e-15
10
84.425139008120453
20
70.314130130434393
30
-1.1102230246251565e-15
10
83.893009052490726
20
70.274803921442711
30
1.1102230246251565e-15
10
83.473386782023482
20
70.222235937837297
30
0
10
83.163707036961924
20
70.167068721100321
30
2.2204460492503131e-15
10
82.858650560434896
20
70.098135419540142
30
-1.1102230246251565e-15
10
82.659306143195437
20
70.041784650725717
30
1.1102230246251565e-15
10
82.5642848880983
20
70.000812461327627
30
0
0
LINE
5
111
100
AcDbEntity
8
0
100
AcDbLine
10
82.564284888098285
20
70.000812461327641
30
0
11
82.288780255056352
21
69.882017692794165
31
0
0
ARC
5
112
100
AcDbEntity
8
0
100
AcDbCircle
10
81.660210316385147
20
71.339774902414121
30
0
40
1.5875000000000072
210
0
220
0
230
1
100
AcDbArc
50
206.61184845903702
51
293.32520933172225
0
ARC
5
113
100
AcDbEntity
8
0
100
AcDbCircle
10
56.683078957752322
20
58.825698189225122
30
0
40
26.349199999999605
210
0
220
-0
230
1
100
AcDbArc
50
26.611848459035762
51
27.388151540959903
0
ARC
5
114
100
AcDbEntity
8
0
100
AcDbCircle
10
81.488369144811116
20
71.677032191023599
30
0
40
1.5875000000000044
210
0
220
0
230
1
100
AcDbArc
50
120.6747906682773
51
207.38815154096443
0
LINE
5
115
100
AcDbEntity
8
0
100
AcDbLine
10
80.678482928541314
20
73.042404142799441
30
0
11
80.936527475367967
21
73.195466259965912
31
0
0
SPLINE
5
116
100
AcDbEntity
8
0
100
AcDbSpline
70
0
71
3
72
16
73
12
74
0
42
0.000000001
43
0.0000000001
44
0.0000000001
40
0
40
0
40
0
40
0
40
0.0625
40
0.125
40
0.1875
40
0.25
40
0.375
40
0.5
40
0.625
40
0.75
40
1
40
1
40
1
40
1
10
80.936527475367967
20
73.195466259965912
30
0
10
81.02552676528822
20
73.248257221483939
30
1.1102230246251565e-15
10
81.188285219627375
20
73.376410957286367
30
2.2204460492503131e-15
10
81.423362985049437
20
73.582686164520013
30
1.1102230246251565e-15
10
81.650019807477577
20
73.800795269102608
30
2.2204460492503131e-15
10
81.939195430445452
20
74.109378913596174
30
0
10
82.283790498811001
20
74.516763853160882
30
0
10
82.670388472523442
20
75.038038356183122
30
1.1102230246251565e-15
10
83.032840966174888
20
75.586170714857516
30
2.2204460492503131e-15
10
83.485094427303309
20
76.349302768122271
30
0
10
83.790609940693699
20
76.954236528257269
30
1.1102230246251565e-15
10
83.979882036502715
20
77.369822371291349
30
0
0
ARC
5
117
100
AcDbEntity
8
0
100
AcDbCircle
10
56.683078957752322
20
58.825698189225122
30
0
40
32.999999999999552
210
0
220
-0
230
1
100
AcDbArc
50
34.190286800723534
51
37.80971319927319
0
SPLINE
5
118
100
AcDbEntity
8
0
100
AcDbSpline
70
0
71
3
72
16
73
12
74
0
42
0.000000001
43
0.0000000001
44
0.0000000001
40
-1
40
-1
40
-1
40
-1
40
-0.75
40
-0.625
40
-0.5
40
-0.375
40
-0.25
40
-0.1875
40
-0.125
40
-0.0625
40
0
40
0
40
0
40
0
10
82.754765143534343
20
79.056051113236919
30
0
10
82.301031225267963
20
79.004465741287206
30
1.1102230246251565e-15
10
81.631297585390271
20
78.900835983512067
30
0
10
80.765760550710553
20
78.706539470172714
30
0
10
80.132449703357622
20
78.531211492500475
30
3.3306690738754696e-15
10
79.517225235552388
20
78.324614263459637
30
-1.1102230246251565e-15
10
79.023292040637585
20
78.122775616631245
30
1.1102230246251565e-15
10
78.640451946221347
20
77.943110080482271
30
0
10
78.362976614220003
20
77.794946635480954
30
2.2204460492503131e-15
10
78.094152226041359
20
77.635119534351531
30
-1.1102230246251565e-15
10
77.921977764248439
20
77.519925955811445
30
1.1102230246251565e-15
10
77.844268283222547
20
77.451595905445728
30
0
0
LINE
5
119
100
AcDbEntity
8
0
100
AcDbLine
10
77.844268283222547
20
77.451595905445728
30
0
11
77.618957409018179
21
77.253479753091213
31
0
0
ARC
5
120
100
AcDbEntity
8
0
100
AcDbCircle
10
76.570680121452511
20
78.445650453273871
30
0
40
1.5875000000000186
210
0
220
0
230
1
100
AcDbArc
50
224.61184845903767
51
311.32520933172287
0
ARC
5
121
100
AcDbEntity
8
0
100
AcDbCircle
10
56.683078957752322
20
58.825698189225122
30
0
40
26.349199999999279
210
0
220
-0
230
1
100
AcDbArc
50
44.61184845903626
51
45.388151540960308
0
ARC
5
122
100
AcDbEntity
8
0
100
AcDbCircle
10
76.303031221802115
20
78.713299352924281
30
0
40
1.5875000000000199
210
0
220
0
230
1
100
AcDbArc
50
138.67479066827892
51
225.38815154096631
0
LINE
5
123
100
AcDbEntity
8
0
100
AcDbLine
10
75.110860521619415
20
79.76157664048992
30
0
11
75.308976673973945
21
79.986887514694274
31
0
0
SPLINE
5
124
100
AcDbEntity
8
0
100
AcDbSpline
70
0
71
3
72
16
73
12
74
0
42
0.000000001
43
0.0000000001
44
0.0000000001
40
0
40
0
40
0
40
0
40
0.0625
40
0.125
40
0.1875
40
0.25
40
0.375
40
0.5
40
0.625
40
0.75
40
1
40
1
40
1
40
1
10
75.308976673973945
20
79.986887514694274
30
0
10
75.377306724339604
20
80.064596995720194
30
1.1102230246251565e-15
10
75.492497530665673
20
80.236773569611472
30
2.2204460492503131e-15
10
75.652327226752902
20
80.50559597411646
30
1.1102230246251565e-15
10
75.800491254741985
20
80.783070869314159
30
2.2204460492503131e-15
10
75.980156024984694
20
81.165911537088235
30
0
10
76.181996540659014
20
81.659843370804381
30
0
10
76.388590382576353
20
82.275070227550003
30
1.1102230246251565e-15
10
76.563920974513991
20
82.908379059251502
30
2.2204460492503131e-15
10
76.758218802325729
20
83.773914776555998
30
0
10
76.861846509812594
20
84.443650456742745
30
1.1102230246251565e-15
10
76.91343188176522
20
84.897384375005942
30
0
0
ARC
5
125
100
AcDbEntity
8
0
100
AcDbCircle
10
56.683078957752322
20
58.825698189225122
30
0
40
32.999999999999254
210
0
220
-0
230
1
100
AcDbArc
50
52.190286800723989
51
55.809713199273602
0
SPLINE
5
126
100
AcDbEntity
8
0
100
AcDbSpline
70
0
71
3
72
16
73
12
74
0
42
0.000000001
43
0.0000000001
44
0.0000000001
40
-1
40
-1
40
-1
40
-1
40
-0.75
40
-0.625
40
-0.5
40
-0.375
40
-0.25
40
-0.1875
40
-0.125
40
-0.0625
40
0
40
0
40
0
40
0
10
75.227203139819736
20
86.122501267974343
30
0
10
74.811617296780909
20
85.933229172167984
30
1.1102230246251565e-15
10
74.206686110670049
20
85.627712339326067
30
0
10
73.443552398312349
20
85.175459721244522
30
0
10
72.895417314787011
20
84.813009091036747
30
3.3306690738754696e-15
10
72.374146130461114
20
84.426408634201835
30
-1.1102230246251565e-15
10
71.966759318814496
20
84.081814922580818
30
1.1102230246251565e-15
10
71.658176456294413
20
83.79263874837001
30
0
10
71.440066756133817
20
83.565982345416515
30
2.2204460492503131e-15
10
71.233788860428277
20
83.330906434957114
30
-1.1102230246251565e-15
10
71.10563799001217
20
83.168145996759932
30
1.1102230246251565e-15
10
71.052847028494128
20
83.079146706839694
30
0
0
LINE
5
127
100
AcDbEntity
8
0
100
AcDbLine
10
71.052847028494114
20
83.079146706839694
30
0
11
70.899784911327657
21
82.821102160013012
31
0
0
ARC
5
128
100
AcDbEntity
8
0
100
AcDbCircle
10
69.534412959551801
20
83.630988376282858
30
0
40
1.5875000000000248
210
0
220
0
230
1
100
AcDbArc
50
242.61184845903739
51
329.32520933172168
0
ARC
5
129
100
AcDbEntity
8
0
100
AcDbCircle
10
56.683078957752322
20
58.825698189225122
30
0
40
26.349199999999083
210
0
220
-0
230
1
100
AcDbArc
50
62.611848459036992
51
63.388151540960941
0
ARC
5
130
100
AcDbEntity
8
0
100
AcDbCircle
10
69.197155670942323
20
83.802829547856859
30
0
40
1.587500000000023
210
0
220
0
230
1
100
AcDbArc
50
156.67479066827755
51
243.38815154096756
0
LINE
5
131
100
AcDbEntity
8
0
100
AcDbLine
10
67.739398461322381
20
84.431399486528065
30
0
11
67.858193229855829
21
84.706904119569955
31
0
0
SPLINE
5
132
100
AcDbEntity
8
0
100
AcDbSpline
70
0
71
3
72
16
73
12
74
0
42
0.000000001
43
0.0000000001
44
0.0000000001
40
0
40
0
40
0
40
0
40
0.0625
40
0.125
40
0.1875
40
0.25
40
0.375
40
0.5
40
0.625
40
0.75
40
1
40
1
40
1
40
1
10
67.858193229855829
20
84.706904119569955
30
0
10
67.899165419253919
20
84.801925374667078
30
1.1102230246251565e-15
10
67.95551289886177
20
85.001270943970312
30
2.2204460492503131e-15
10
68.024449281362294
20
85.306326335797507
30
1.1102230246251565e-15
10
68.079617187533373
20
85.616005845587438
30
2.2204460492503131e-15
10
68.132184265541284
20
86.035628424672055
30
0
10
68.171512672544708
20
86.567757663230367
30
0
10
68.177879537996247
20
87.216714182423573
30
1.1102230246251565e-15
10
68.148925648280979
20
87.873206806183376
30
2.2204460492503131e-15
10
68.066248617637953
20
88.756421520975692
30
0
10
67.957844717194632
20
89.42540072651471
30
1.1102230246251565e-15
10
67.866693829668293
20
89.872868082737156
30
0
0
ARC
5
133
100
AcDbEntity
8
0
100
AcDbCircle
10
56.683078957752322
20
58.825698189225122
30
0
40
32.999999999999098
210
0
220
-0
230
1
100
AcDbArc
50
70.190286800724579
51
73.809713199274313
0
SPLINE
5
134
100
AcDbEntity
8
0
100
AcDbSpline
70
0
71
3
72
16
73
12
74
0
42
0.000000001
43
0.0000000001
44
0.0000000001
40
-1
40
-1
40
-1
40
-1
40
-0.75
40
-0.625
40
-0.5
40
-0.375
40
-0.25
40
-0.1875
40
-0.125
40
-0.0625
40
0
40
0
40
0
40
0
10
65.884413056653756
20
90.516950149353363
30
0
10
65.547655726717821
20
90.208518601163533
30
1.1102230246251565e-15
10
65.066741873671134
20
89.731020809515044
30
0
10
64.480712328467021
20
89.065081723978579
30
0
10
64.071408289826422
20
88.550987634261404
30
3.3306690738754696e-15
10
63.695116044411641
20
88.02222709595145
30
-1.1102230246251565e-15
10
63.414153475587945
20
87.568609552956929
30
1.1102230246251565e-15
10
63.210034085570754
20
87.198229319424797
30
0
10
63.072640114362379
20
86.915266666448346
30
2.2204460492503131e-15
10
62.949100628784038
20
86.627952814644942
30
-1.1102230246251565e-15
10
62.877517649820732
20
86.433557642499878
30
1.1102230246251565e-15
10
62.854812754940177
20
86.332600983617226
30
0
0
LINE
5
135
100
AcDbEntity
8
0
100
AcDbLine
10
62.854812754940177
20
86.332600983617226
30
0
11
62.7889821812863
21
86.039887240463813
31
0
0
ARC
5
136
100
AcDbEntity
8
0
100
AcDbCircle
10
61.240167685045833
20
86.388211667163233
30
0
40
1.5875000000000177
210
0
220
0
230
1
100
AcDbArc
50
260.61184845903801
51
347.32520933172208
0
ARC
5
137
100
AcDbEntity
8
0
100
AcDbCircle
10
56.683078957752322
20
58.825698189225122
30
0
40
26.349199999999001
210
0
220
-0
230
1
100
AcDbArc
50
80.611848459037788
51
81.3881515409619
0
ARC
5
138
100
AcDbEntity
8
0
100
AcDbCircle
10
60.866315100696085
20
86.447424099499329
30
0
40
1.587500000000015
210
0
220
0
230
1
100
AcDbArc
50
174.67479066827775
51
261.38815154096591
0
LINE
5
139
100
AcDbEntity
8
0
100
AcDbLine
10
59.285666814108176
20
86.594757884174655
30
0
11
59.313511739184712
21
86.893487963018316
31
0
0
SPLINE
5
140
100
AcDbEntity
8
0
100
AcDbSpline
70
0
71
3
72
16
73
12
74
0
42
0.000000001
43
0.0000000001
44
0.0000000001
40
0
40
0
40
0
40
0
40
0.0625
40
0.125
40
0.1875
40
0.25
40
0.375
40
0.5
40
0.625
40
0.75
40
1
40
1
40
1
40
1
10
59.313511739184712
20
86.893487963018316
30
0
10
59.323115424246765
20
86.996519649685638
30
1.1102230246251565e-15
10
59.315103893236653
20
87.203520881155271
30
2.2204460492503131e-15
10
59.286398988723207
20
87.514948313106785
30
1.1102230246251565e-15
10
59.243170554042777
20
87.82651884940654
30
2.2204460492503131e-15
10
59.163494307964228
20
88.241847758078649
30
0
10
59.036460867801985
20
88.760085884046305
30
0
10
58.841977523637077
20
89.379247680043079
30
1.1102230246251565e-15
10
58.611573360727618
20
89.994662023793737
30
2.2204460492503131e-15
10
58.260014475433557
20
90.809100526072214
30
0
10
57.950190296131467
20
91.411838911270635
30
1.1102230246251565e-15
10
57.725225633081514
20
91.809238482938895
30
0
0
ARC
5
141
100
AcDbEntity
8
0
100
AcDbCircle
10
56.683078957752322
20
58.825698189225122
30
0
40
32.999999999999112
210
0
220
-0
230
1
100
AcDbArc
50
88.19028680072536
51
91.809713199275123
0
SPLINE
5
142
100
AcDbEntity
8
0
100
AcDbSpline
70
0
71
3
72
16
73
12
74
0
42
0.000000001
43
0.0000000001
44
0.0000000001
40
-1
40
-1
40
-1
40
-1
40
-0.75
40
-0.625
40
-0.5
40
-0.375
40
-0.25
40
-0.1875
40
-0.125
40
-0.0625
40
0
40
0
40
0
40
0
10
55.640932282422845
20
91.809238482938895
30
0
10
55.415967619370633
20
91.411838911270422
30
1.1102230246251565e-15
10
55.106146298047619
20
90.809100971586574
30
0
10
54.754585574989783
20
89.994662176157078
30
0
10
54.524178112325046
20
89.379247738336446
30
3.3306690738754696e-15
10
54.329698912584746
20
88.760085884132053
30
-1.1102230246251565e-15
10
54.202663160401755
20
88.241847755411641
30
1.1102230246251565e-15
10
54.122987870965751
20
87.826518860407276
30
0
10
54.0797587078915
20
87.51494831339761
30
2.2204460492503131e-15
10
54.051050538039043
20
87.20352080189825
30
-1.1102230246251565e-15
10
54.043042491257545
20
86.996519649685609
30
1.1102230246251565e-15
10
54.05264617631957
20
86.893487963018316
30
0
0
LINE
5
143
100
AcDbEntity
8
0
100
AcDbLine
10
54.05264617631957
20
86.893487963018316
30
0
11
54.080491101396106
21
86.594757884174655
31
0
0
ARC
5
144
100
AcDbEntity
8
0
100
AcDbCircle
10
52.499842814808204
20
86.447424099499329
30
0
40
1.5875000000000208
210
0
220
0
230
1
100
AcDbArc
50
-81.388151540962696
51
5.325209331722311
0
ARC
5
145
100
AcDbEntity
8
0
100
AcDbCircle
10
56.683078957752322
20
58.825698189225122
30
0
40
26.349199999999033
210
0
220
0
230
1
100
AcDbArc
50
98.611848459038683
51
99.388151540962994
0
ARC
5
146
100
AcDbEntity
8
0
100
AcDbCircle
10
52.125990230458441
20
86.388211667163205
30
0
40
1.5875000000000208
210
0
220
0
230
1
100
AcDbArc
50
192.67479066827747
51
279.38815154096204
0
LINE
5
147
100
AcDbEntity
8
0
100
AcDbLine
10
50.577175734217981
20
86.039887240463798
30
0
11
50.511345160564112
21
86.332600983617169
31
0
0
SPLINE
5
148
100
AcDbEntity
8
0
100
AcDbSpline
70
0
71
3
72
16
73
12
74
0
42
0.000000001
43
0.0000000001
44
0.0000000001
40
0
40
0
40
0
40
0
40
0.0625
40
0.125
40
0.1875
40
0.25
40
0.375
40
0.5
40
0.625
40
0.75
40
1
40
1
40
1
40
1
10
50.511345160564112
20
86.332600983617169
30
0
10
50.488640265683465
20
86.43355764249992
30
1.1102230246251565e-15
10
50.417053948530238
20
86.627951813336949
30
2.2204460492503131e-15
10
50.293517593055476
20
86.915266598530991
30
1.1102230246251565e-15
10
50.156124317900314
20
87.198229466408023
30
2.2204460492503131e-15
10
49.95200401383844
20
87.56860941732009
30
0
10
49.671043644727803
20
88.022227672150223
30
0
10
49.29474747571804
20
88.550986874403748
30
1.1102230246251565e-15
10
48.885446604400506
20
89.065081894335961
30
2.2204460492503131e-15
10
48.299418897602649
20
89.731021268970039
30
0
10
47.818502188782588
20
90.208518601163362
30
1.1102230246251565e-15
10
47.481744858850675
20
90.516950149353363
30
0
0
ARC
5
149
100
AcDbEntity
8
0
100
AcDbCircle
10
56.683078957752322
20
58.825698189225122
30
0
40
32.999999999999133
210
0
220
0
230
1
100
AcDbArc
50
106.19028680072608
51
109.809713199276
0
SPLINE
5
150
100
AcDbEntity
8
0
100
AcDbSpline
70
0
71
3
72
16
73
12
74
0
42
0.000000001
43
0.0000000001
44
0.0000000001
40
-1
40
-1
40
-1
40
-1
40
-0.75
40
-0.625
40
-0.5
40
-0.375
40
-0.25
40
-0.1875
40
-0.125
40
-0.0625
40
0
40
0
40
0
40
0
10
45.499464085836017
20
89.872868082737085
30
0
10
45.408313198308917
20
89.425400726515122
30
1.1102230246251565e-15
10
45.29991187829161
20
88.75642282784726
30
0
10
45.217233190420636
20
87.873207266351699
30
0
10
45.188276191520735
20
87.216713533446736
30
3.3306690738754696e-15
10
45.194647016541751
20
86.567758239592095
30
-1.1102230246251565e-15
10
45.233973225533319
20
86.035628283962367
30
1.1102230246251565e-15
10
45.286541209138882
20
85.616006013495081
30
0
10
45.341708425875744
20
85.306326268433551
30
2.2204460492503131e-15
10
45.410641727436015
20
85.001269791906509
30
-1.1102230246251565e-15
10
45.466992496250313
20
84.801925374667078
30
1.1102230246251565e-15
10
45.50796468564846
20
84.706904119569884
30
0
0
LINE
5
151
100
AcDbEntity
8
0
100
AcDbLine
10
45.507964685648446
20
84.70690411956987
30
0
11
45.626759454181915
21
84.431399486528022
31
0
0
ARC
5
152
100
AcDbEntity
8
0
100
AcDbCircle
10
44.169002244561952
20
83.802829547856859
30
0
40
1.587500000000019
210
0
220
0
230
1
100
AcDbArc
50
-63.388151540961836
51
23.325209331720764
0
ARC
5
153
100
AcDbEntity
8
0
100
AcDbCircle
10
56.683078957752322
20
58.825698189225122
30
0
40
26.349199999999243
210
0
220
0
230
1
100
AcDbArc
50
116.61184845903944
51
117.3881515409639
0
ARC
5
154
100
AcDbEntity
8
0
100
AcDbCircle
10
43.831744955952459
20
83.630988376282829
30
0
40
1.5875000000000137
210
0
220
0
230
1
100
AcDbArc
50
210.67479066827804
51
297.38815154096079
0
LINE
5
155
100
AcDbEntity
8
0
100
AcDbLine
10
42.46637300417661
20
82.821102160012998
30
0
11
42.313310887010132
21
83.079146706839708
31
0
0
SPLINE
5
156
100
AcDbEntity
8
0
100
AcDbSpline
70
0
71
3
72
16
73
12
74
0
42
0.000000001
43
0.0000000001
44
0.0000000001
40
0
40
0
40
0
40
0
40
0.0625
40
0.125
40
0.1875
40
0.25
40
0.375
40
0.5
40
0.625
40
0.75
40
1
40
1
40
1
40
1
10
42.313310887010132
20
83.079146706839708
30
0
10
42.26051992549192
20
83.168145996759861
30
1.1102230246251565e-15
10
42.132366189689876
20
83.330904451099116
30
2.2204460492503131e-15
10
41.926090982455989
20
83.565982216521149
30
1.1102230246251565e-15
10
41.707981877873493
20
83.792639038949261
30
2.2204460492503131e-15
10
41.399398233379785
20
84.081814661917193
30
0
10
40.992013293815063
20
84.426409730282742
30
0
10
40.470738790793057
20
84.813007703995069
30
1.1102230246251565e-15
10
39.922606432118684
20
85.17546019764653
30
2.2204460492503131e-15
10
39.159474378853673
20
85.62771365877515
30
0
10
38.554540618718455
20
85.933229172164999
30
1.1102230246251565e-15
10
38.138954775684702
20
86.122501267974428
30
0
0
ARC
5
157
100
AcDbEntity
8
0
100
AcDbCircle
10
56.683078957752322
20
58.825698189225122
30
0
40
32.999999999999439
210
0
220
0
230
1
100
AcDbArc
50
124.1902868007266
51
127.80971319927666
0
SPLINE
5
158
100
AcDbEntity
8
0
100
AcDbSpline
70
0
71
3
72
16
73
12
74
0
42
0.000000001
43
0.0000000001
44
0.0000000001
40
-1
40
-1
40
-1
40
-1
40
-0.75
40
-0.625
40
-0.5
40
-0.375
40
-0.25
40
-0.1875
40
-0.125
40
-0.0625
40
0
40
0
40
0
40
0
10
36.452726033739005
20
84.897384375005828
30
0
10
36.504311405693429
20
84.44365045674337
30
1.1102230246251565e-15
10
36.607941163461817
20
83.773916816859725
30
0
10
36.802237676802932
20
82.908379782181669
30
0
10
36.977565654475249
20
82.275068934828965
30
3.3306690738754696e-15
10
37.184162883516521
20
81.659844467024101
30
-1.1102230246251565e-15
10
37.386001530344792
20
81.165911272109227
30
1.1102230246251565e-15
10
37.565667066493837
20
80.783071177693046
30
0
10
37.713830511495068
20
80.505595845691587
30
2.2204460492503131e-15
10
37.873657612624562
20
80.236771457512958
30
-1.1102230246251565e-15
10
37.988851191164599
20
80.064596995720194
30
1.1102230246251565e-15
10
38.05718124153033
20
79.986887514694175
30
0
0
LINE
5
159
100
AcDbEntity
8
0
100
AcDbLine
10
38.05718124153033
20
79.986887514694146
30
0
11
38.255297393884831
21
79.761576640489892
31
0
0
ARC
5
160
100
AcDbEntity
8
0
100
AcDbCircle
10
37.063126693702152
20
78.713299352924238
30
0
40
1.5875000000000152
210
0
220
0
230
1
100
AcDbArc
50
-45.388151540961793
51
41.325209331721979
0
ARC
5
161
100
AcDbEntity
8
0
100
AcDbCircle
10
56.683078957752322
20
58.825698189225122
30
0
40
26.349199999999517
210
0
220
0
230
1
100
AcDbArc
50
134.61184845904009
51
135.38815154096474
0
ARC
5
162
100
AcDbEntity
8
0
100
AcDbCircle
10
36.795477794051742
20
78.445650453273828
30
0
40
1.5875000000000108
210
0
220
0
230
1
100
AcDbArc
50
228.67479066827713
51
315.38815154095704
0
LINE
5
163
100
AcDbEntity
8
0
100
AcDbLine
10
35.747200506486074
20
77.25347975309117
30
0
11
35.521889632281763
21
77.451595905445657
31
0
0
SPLINE
5
164
100
AcDbEntity
8
0
100
AcDbSpline
70
0
71
3
72
16
73
12
74
0
42
0.000000001
43
0.0000000001
44
0.0000000001
40
0
40
0
40
0
40
0
40
0.0625
40
0.125
40
0.1875
40
0.25
40
0.375
40
0.5
40
0.625
40
0.75
40
1
40
1
40
1
40
1
10
35.521889632281763
20
77.451595905445657
30
0
10
35.4441801512558
20
77.519925955811402
30
1.1102230246251565e-15
10
35.272003577364536
20
77.635116762137343
30
2.2204460492503131e-15
10
35.003181172859648
20
77.794946458224643
30
1.1102230246251565e-15
10
34.725706277661821
20
77.943110486213655
30
2.2204460492503131e-15
10
34.342865609887852
20
78.122775256456521
30
0
10
33.848933776171613
20
78.324615772130727
30
0
10
33.23370691942592
20
78.531209614048095
30
1.1102230246251565e-15
10
32.600398087724635
20
78.70654020598559
30
2.2204460492503131e-15
10
31.734862370419698
20
78.900838033797712
30
0
10
31.065126690233093
20
79.004465741283695
30
1.1102230246251565e-15
10
30.61139277197007
20
79.056051113236933
30
0
0
ARC
5
165
100
AcDbEntity
8
0
100
AcDbCircle
10
56.683078957752322
20
58.825698189225122
30
0
40
32.999999999999737
210
0
220
0
230
1
100
AcDbArc
50
142.19028680072702
51
145.80971319927718
0
SPLINE
5
166
100
AcDbEntity
8
0
100
AcDbSpline
70
0
71
3
72
16
73
12
74
0
42
0.000000001
43
0.0000000001
44
0.0000000001
40
-1
40
-1
40
-1
40
-1
40
-0.75
40
-0.625
40
-0.5
40
-0.375
40
-0.25
40
-0.1875
40
-0.125
40
-0.0625
40
0
40
0
40
0
40
0
10
29.38627587900152
20
77.369822371291136
30
0
10
29.575547974812167
20
76.954236528260623
30
1.1102230246251565e-15
10
29.881064807647899
20
76.349305342137427
30
0
10
30.333317425730932
20
75.586171629783422
30
0
10
30.695768055939119
20
75.038036546258041
30
3.3306690738754696e-15
10
31.082368512774355
20
74.516765361933025
30
-1.1102230246251565e-15
10
31.426962224395076
20
74.109378550286138
30
1.1102230246251565e-15
10
31.716138398606098
20
73.80079568776614
30
0
10
31.942794801559454
20
73.582685987605501
30
2.2204460492503131e-15
10
32.177870712018915
20
73.376408091899989
30
-1.1102230246251565e-15
10
32.340631150216048
20
73.248257221483911
30
1.1102230246251565e-15
10
32.429630440136307
20
73.195466259965826
30
0
0
LINE
5
167
100
AcDbEntity
8
0
100
AcDbLine
10
32.429630440136307
20
73.195466259965812
30
0
11
32.687674986962961
21
73.04240414279937
31
0
0
ARC
5
168
100
AcDbEntity
8
0
100
AcDbCircle
10
31.87778877069313
20
71.677032191023528
30
0
40
1.5875000000000128
210
0
220
0
230
1
100
AcDbArc
50
-27.38815154096179
51
59.32520933172183
0
ARC
5
169
100
AcDbEntity
8
0
100
AcDbCircle
10
56.683078957752322
20
58.825698189225122
30
0
40
26.3491999999999
210
0
220
0
230
1
100
AcDbArc
50
152.61184845904049
51
153.38815154096505
0
ARC
5
170
100
AcDbEntity
8
0
100
AcDbCircle
10
31.705947599119121
20
71.33977490241405
30
0
40
1.587500000000025
210
0
220
0
230
1
100
AcDbArc
50
246.6747906682775
51
333.38815154095801
0
LINE
5
171
100
AcDbEntity
8
0
100
AcDbLine
10
31.077377660447915
20
69.882017692794108
30
0
11
30.801873027405993
21
70.00081246132757
31
0
0
SPLINE
5
172
100
AcDbEntity
8
0
100
AcDbSpline
70
0
71
3
72
16
73
12
74
0
42
0.000000001
43
0.0000000001
44
0.0000000001
40
0
40
0
40
0
40
0
40
0.0625
40
0.125
40
0.1875
40
0.25
40
0.375
40
0.5
40
0.625
40
0.75
40
1
40
1
40
1
40
1
10
30.801873027405993
20
70.00081246132757
30
0
10
30.706851772308767
20
70.041784650725674
30
1.1102230246251565e-15
10
30.507506203005743
20
70.098132130333511
30
2.2204460492503131e-15
10
30.202450811178441
20
70.167068512833993
30
1.1102230246251565e-15
10
29.892771301388528
20
70.2222364190051
30
2.2204460492503131e-15
10
29.473148722303936
20
70.274803497012982
30
0
10
28.941019483745642
20
70.314131904016463
30
0
10
28.292062964552244
20
70.32049876946806
30
1.1102230246251565e-15
10
27.635570340792711
20
70.291544879752919
30
2.2204460492503131e-15
10
26.75235562599989
20
70.208867849109396
30
0
10
26.083376420461519
20
70.100463948666274
30
1.1102230246251565e-15
10
25.63590906423876
20
70.009313061140034
30
0
0
ARC
5
173
100
AcDbEntity
8
0
100
AcDbCircle
10
56.683078957752322
20
58.825698189225122
30
0
40
33.000000000000178
210
0
220
0
230
1
100
AcDbArc
50
160.19028680072719
51
163.80971319927735
0
SPLINE
5
174
100
AcDbEntity
8
0
100
AcDbSpline
70
0
71
3
72
16
73
12
74
0
42
0.000000001
43
0.0000000001
44
0.0000000001
40
-1
40
-1
40
-1
40
-1
40
-0.75
40
-0.625
40
-0.5
40
-0.375
40
-0.25
40
-0.1875
40
-0.125
40
-0.0625
40
0
40
0
40
0
40
0
10
24.991826997622528
20
68.02703228812517
30
0
10
25.300258545814515
20
67.690274958197833
30
1.1102230246251565e-15
10
25.777756337459689
20
67.209361105138598
30
0
10
26.443695422997134
20
66.623331559938094
30
0
10
26.957789512714282
20
66.214027521297638
30
3.3306690738754696e-15
10
27.486550051024675
20
65.837735275883475
30
-1.1102230246251565e-15
10
27.940167594018959
20
65.556772707059551
30
1.1102230246251565e-15
10
28.310547827551204
20
65.352653317042538
30
0
10
28.593510480527677
20
65.21525934583407
30
2.2204460492503131e-15
10
28.880824332331088
20
65.091719860255751
30
-1.1102230246251565e-15
10
29.075219504476081
20
65.020136881292572
30
1.1102230246251565e-15
10
29.176176163358797
20
64.997431986411897
30
0
0
LINE
5
175
100
AcDbEntity
8
0
100
AcDbLine
10
29.176176163358797
20
64.997431986411897
30
0
11
29.468889906512157
21
64.931601412758056
31
0
0
ARC
5
176
100
AcDbEntity
8
0
100
AcDbCircle
10
29.120565479812733
20
63.382786916517603
30
0
40
1.5875000000000148
210
0
220
0
230
1
100
AcDbArc
50
-9.3881515409604113
51
77.325209331721808
0
ARC
5
177
100
AcDbEntity
8
0
100
AcDbCircle
10
56.683078957752322
20
58.825698189225122
30
0
40
26.349200000000298
210
0
220
0
230
1
100
AcDbArc
50
170.61184845904046
51
171.388151540965
0
ARC
5
178
100
AcDbEntity
8
0
100
AcDbCircle
10
29.061353047476626
20
63.008934332167854
30
0
40
1.5875000000000066
210
0
220
0
230
1
100
AcDbArc
50
264.67479066827758
51
351.3881515409588
0
LINE
5
179
100
AcDbEntity
8
0
100
AcDbLine
10
28.914019262801297
20
61.428286045579952
30
0
11
28.615289183957625
21
61.456130970656481
31
0
0
SPLINE
5
180
100
AcDbEntity
8
0
100
AcDbSpline
70
0
71
3
72
16
73
12
74
0
42
0.000000001
43
0.0000000001
44
0.0000000001
40
0
40
0
40
0
40
0
40
0.0625
40
0.125
40
0.1875
40
0.25
40
0.375
40
0.5
40
0.625
40
0.75
40
1
40
1
40
1
40
1
10
28.615289183957625
20
61.456130970656481
30
0
10
28.512257497290136
20
61.465734655718542
30
1.1102230246251565e-15
10
28.305256265820844
20
61.457723124708423
30
2.2204460492503131e-15
10
27.993828833869159
20
61.42901822019499
30
1.1102230246251565e-15
10
27.682258297569437
20
61.385789785514582
30
2.2204460492503131e-15
10
27.266929388897321
20
61.306113539435991
30
0
10
26.74869126292959
20
61.179080099273776
30
0
10
26.129529466932997
20
60.984596755108797
30
1.1102230246251565e-15
10
25.514115123182172
20
60.754192592199402
30
2.2204460492503131e-15
10
24.699676620903801
20
60.402633706905164
30
0
10
24.096938235704137
20
60.092809527603521
30
1.1102230246251565e-15
10
23.699538664037064
20
59.867844864553277
30
0
0
ARC
5
181
100
AcDbEntity
8
0
100
AcDbCircle
10
56.683078957752322
20
58.825698189225122
30
0
40
33.00000000000054
210
0
220
0
230
1
100
AcDbArc
50
178.19028680072722
51
181.80971319927679
0
SPLINE
5
182
100
AcDbEntity
8
0
100
AcDbSpline
70
0
71
3
72
16
73
12
74
0
42
0.000000001
43
0.0000000001
44
0.0000000001
40
-1
40
-1
40
-1
40
-1
40
-0.75
40
-0.625
40
-0.5
40
-0.375
40
-0.25
40
-0.1875
40
-0.125
40
-0.0625
40
0
40
0
40
0
40
0
10
23.699538664037107
20
57.783551513894523
30
0
10
24.096938235704002
20
57.558586850845337
30
1.1102230246251565e-15
10
24.699676175390248
20
57.248765529517883
30
0
10
25.514114970819183
20
56.897204806461311
30
0
10
26.129529408639641
20
56.666797343796731
30
3.3306690738754696e-15
10
26.748691262843927
20
56.472318144056487
30
-1.1102230246251565e-15
10
27.266929391564268
20
56.345282391873617
30
1.1102230246251565e-15
10
27.682258286568793
20
56.265607102437556
30
0
10
27.993828833578288
20
56.222377939363284
30
2.2204460492503131e-15
10
28.305256345077812
20
56.193669769510834
30
-1.1102230246251565e-15
10
28.512257497290253
20
56.185661722729321
30
1.1102230246251565e-15
10
28.615289183957657
20
56.195265407791354
30
0
0
LINE
5
183
100
AcDbEntity
8
0
100
AcDbLine
10
28.61528918395765
20
56.195265407791354
30
0
11
28.9140192628013
21
56.223110332867911
31
0
0
ARC
5
184
100
AcDbEntity
8
0
100
AcDbCircle
10
29.061353047476612
20
54.642462046279988
30
0
40
1.5875000000000206
210
0
220
-0
230
1
100
AcDbArc
50
8.6118484590386331
51
95.325209331721737
0
ARC
5
185
100
AcDbEntity
8
0
100
AcDbCircle
10
56.683078957752322
20
58.825698189225122
30
0
40
26.349200000000678
210
0
220
0
230
1
100
AcDbArc
50
188.61184845904029
51
189.3881515409646
0
ARC
5
186
100
AcDbEntity
8
0
100
AcDbCircle
10
29.120565479812726
20
54.268609461930254
30
0
40
1.5875000000000123
210
0
220
0
230
1
100
AcDbArc
50
-77.325209331722121
51
9.3881515409613723
0
LINE
5
187
100
AcDbEntity
8
0
100
AcDbLine
10
29.468889906512139
20
52.719794965689807
30
0
11
29.176176163358754
21
52.653964392035924
31
0
0
SPLINE
5
188
100
AcDbEntity
8
0
100
AcDbSpline
70
0
71
3
72
16
73
12
74
0
42
0.000000001
43
0.0000000001
44
0.0000000001
40
0
40
0
40
0
40
0
40
0.0625
40
0.125
40
0.1875
40
0.25
40
0.375
40
0.5
40
0.625
40
0.75
40
1
40
1
40
1
40
1
10
29.176176163358754
20
52.653964392035924
30
0
10
29.075219504476042
20
52.631259497155192
30
1.1102230246251565e-15
10
28.880825333638999
20
52.559673180002065
30
2.2204460492503131e-15
10
28.593510548444932
20
52.43613682452731
30
1.1102230246251565e-15
10
28.31054768056795
20
52.298743549372105
30
2.2204460492503131e-15
10
27.940167729655915
20
52.094623245310316
30
0
10
27.486549474825686
20
51.813662876199594
30
0
10
26.957790272571998
20
51.437366707189923
30
1.1102230246251565e-15
10
26.443695252639969
20
51.02806583587239
30
2.2204460492503131e-15
10
25.777755878005884
20
50.442038129074518
30
0
10
25.300258545813424
20
49.961121420254216
30
1.1102230246251565e-15
10
24.991826997622507
20
49.624364090322501
30
0
0
ARC
5
189
100
AcDbEntity
8
0
100
AcDbCircle
10
56.683078957752322
20
58.825698189225122
30
0
40
33.000000000000909
210
0
220
0
230
1
100
AcDbArc
50
196.19028680072691
51
199.80971319927659
0
SPLINE
5
190
100
AcDbEntity
8
0
100
AcDbSpline
70
0
71
3
72
16
73
12
74
0
42
0.000000001
43
0.0000000001
44
0.0000000001
40
-1
40
-1
40
-1
40
-1
40
-0.75
40
-0.625
40
-0.5
40
-0.375
40
-0.25
40
-0.1875
40
-0.125
40
-0.0625
40
0
40
0
40
0
40
0
10
25.635909064238795
20
47.642083317307886
30
0
10
26.083376420462201
20
47.55093242978036
30
1.1102230246251565e-15
10
26.752354319128052
20
47.442531109763536
30
0
10
27.635569880623745
20
47.359852421892548
30
0
10
28.292063613529304
20
47.330895422992697
30
3.3306690738754696e-15
10
28.94101890738385
20
47.337266248013606
30
-1.1102230246251565e-15
10
29.473148863013634
20
47.376592457005138
30
1.1102230246251565e-15
10
29.892771133480839
20
47.42916044061073
30
0
10
30.202450878542429
20
47.484327657347606
30
2.2204460492503131e-15
10
30.507507355069453
20
47.553260958907735
30
-1.1102230246251565e-15
10
30.706851772308848
20
47.60961172772226
30
1.1102230246251565e-15
10
30.801873027406046
20
47.650583917120301
30
0
0
LINE
5
191
100
AcDbEntity
8
0
100
AcDbLine
10
30.801873027406046
20
47.650583917120287
30
0
11
31.077377660447901
21
47.769378685653756
31
0
0
ARC
5
192
100
AcDbEntity
8
0
100
AcDbCircle
10
31.705947599119099
20
46.311621476033807
30
0
40
1.587500000000015
210
0
220
-0
230
1
100
AcDbArc
50
26.61184845903691
51
113.32520933172214
0
ARC
5
193
100
AcDbEntity
8
0
100
AcDbCircle
10
56.683078957752322
20
58.825698189225122
30
0
40
26.349200000000991
210
0
220
0
230
1
100
AcDbArc
50
206.61184845903992
51
207.38815154096395
0
ARC
5
194
100
AcDbEntity
8
0
100
AcDbCircle
10
31.877788770693112
20
45.974364187424328
30
0
40
1.587500000000015
210
0
220
0
230
1
100
AcDbArc
50
-59.32520933172151
51
27.38815154096449
0
LINE
5
195
100
AcDbEntity
8
0
100
AcDbLine
10
32.687674986962953
20
44.608992235648486
30
0
11
32.429630440136265
21
44.455930118482016
31
0
0
SPLINE
5
196
100
AcDbEntity
8
0
100
AcDbSpline
70
0
71
3
72
16
73
12
74
0
42
0.000000001
43
0.0000000001
44
0.0000000001
40
0
40
0
40
0
40
0
40
0.0625
40
0.125
40
0.1875
40
0.25
40
0.375
40
0.5
40
0.625
40
0.75
40
1
40
1
40
1
40
1
10
32.429630440136265
20
44.455930118482016
30
0
10
32.340631150216005
20
44.403139156963874
30
1.1102230246251565e-15
10
32.177872695876843
20
44.274985421161681
30
2.2204460492503131e-15
10
31.942794930454834
20
44.068710213927901
30
1.1102230246251565e-15
10
31.716138108026701
20
43.850601109345376
30
2.2204460492503131e-15
10
31.426962485058802
20
43.542017464851682
30
0
10
31.082367416693117
20
43.13463252528696
30
0
10
30.695769442980922
20
42.613358022264912
30
1.1102230246251565e-15
10
30.333316949329294
20
42.06522566359051
30
2.2204460492503131e-15
10
29.881063488201075
20
41.302093610325571
30
0
10
29.575547974810124
20
40.697159850190587
30
1.1102230246251565e-15
10
29.386275879001534
20
40.281574007156571
30
0
0
ARC
5
197
100
AcDbEntity
8
0
100
AcDbCircle
10
56.683078957752322
20
58.825698189225122
30
0
40
33.00000000000118
210
0
220
0
230
1
100
AcDbArc
50
214.19028680072645
51
217.80971319927599
0
SPLINE
5
198
100
AcDbEntity
8
0
100
AcDbSpline
70
0
71
3
72
16
73
12
74
0
42
0.000000001
43
0.0000000001
44
0.0000000001
40
-1
40
-1
40
-1
40
-1
40
-0.75
40
-0.625
40
-0.5
40
-0.375
40
-0.25
40
-0.1875
40
-0.125
40
-0.0625
40
0
40
0
40
0
40
0
10
30.611392771969946
20
38.595345265211023
30
0
10
31.065126690235555
20
38.646930637161233
30
1.1102230246251565e-15
10
31.734860330114675
20
38.750560394935711
30
0
10
32.600397364793892
20
38.944856908275241
30
0
10
33.23370821214678
20
39.120184885947374
30
3.3306690738754696e-15
10
33.848932679951901
20
39.326782114988333
30
-1.1102230246251565e-15
10
34.342865874866646
20
39.528620761816661
30
1.1102230246251565e-15
10
34.725705969282934
20
39.708286297965707
30
0
10
35.003181301284314
20
39.85644974296693
30
2.2204460492503131e-15
10
35.272005689462922
20
40.016276844096446
30
-1.1102230246251565e-15
10
35.444180151255686
20
40.131470422636497
30
1.1102230246251565e-15
10
35.521889632281734
20
40.19980047300222
30
0
0
LINE
5
199
100
AcDbEntity
8
0
100
AcDbLine
10
35.521889632281727
20
40.19980047300222
30
0
11
35.747200506486067
21
40.397916625356707
31
0
0
ARC
5
200
100
AcDbEntity
8
0
100
AcDbCircle
10
36.79547779405172
20
39.205745925174035
30
0
40
1.5875000000000219
210
0
220
-0
230
1
100
AcDbArc
50
44.611848459037326
51
131.32520933172216
0
ARC
5
201
100
AcDbEntity
8
0
100
AcDbCircle
10
56.683078957752322
20
58.825698189225122
30
0
40
26.349200000001215
210
0
220
0
230
1
100
AcDbArc
50
224.61184845903927
51
225.38815154096324
0
ARC
5
202
100
AcDbEntity
8
0
100
AcDbCircle
10
37.063126693702117
20
38.938097025523653
30
0
40
1.5875000000000086
210
0
220
0
230
1
100
AcDbArc
50
-41.32520933172232
51
45.388151540966135
0
LINE
5
203
100
AcDbEntity
8
0
100
AcDbLine
10
38.255297393884781
20
37.889819737958
30
0
11
38.057181241530287
21
37.664508863753674
31
0
0
SPLINE
5
204
100
AcDbEntity
8
0
100
AcDbSpline
70
0
71
3
72
16
73
12
74
0
42
0.000000001
43
0.0000000001
44
0.0000000001
40
0
40
0
40
0
40
0
40
0.0625
40
0.125
40
0.1875
40
0.25
40
0.375
40
0.5
40
0.625
40
0.75
40
1
40
1
40
1
40
1
10
38.057181241530287
20
37.664508863753674
30
0
10
37.988851191164549
20
37.586799382727712
30
1.1102230246251565e-15
10
37.873660384838615
20
37.414622808836441
30
2.2204460492503131e-15
10
37.713830688751358
20
37.145800404331574
30
1.1102230246251565e-15
10
37.565666660762268
20
36.868325509133697
30
2.2204460492503131e-15
10
37.386001890519523
20
36.485484841359806
30
0
10
37.18416137484521
20
35.99155300764351
30
0
10
36.977567532927857
20
35.37632615089791
30
1.1102230246251565e-15
10
36.802236940990312
20
34.743017319196419
30
2.2204460492503131e-15
10
36.60793911317829
20
33.877481601891681
30
0
10
36.504311405691695
20
33.207745921705133
30
1.1102230246251565e-15
10
36.452726033739012
20
32.754012003441993
30
0
0
ARC
5
205
100
AcDbEntity
8
0
100
AcDbCircle
10
56.683078957752322
20
58.825698189225122
30
0
40
33.00000000000135
210
0
220
0
230
1
100
AcDbArc
50
232.19028680072589
51
235.80971319927534
0
SPLINE
5
206
100
AcDbEntity
8
0
100
AcDbSpline
70
0
71
3
72
16
73
12
74
0
42
0.000000001
43
0.0000000001
44
0.0000000001
40
-1
40
-1
40
-1
40
-1
40
-0.75
40
-0.625
40
-0.5
40
-0.375
40
-0.25
40
-0.1875
40
-0.125
40
-0.0625
40
0
40
0
40
0
40
0
10
38.138954775684525
20
31.528895110473592
30
0
10
38.554540618722356
20
31.718167206279574
30
1.1102230246251565e-15
10
39.159471804834808
20
32.023684039122159
30
0
10
39.922605517191954
20
32.475936657203263
30
0
10
40.47074060071732
20
32.838387287411344
30
3.3306690738754696e-15
10
40.992011785043118
20
33.224987744246192
30
-1.1102230246251565e-15
10
41.3993985966897
20
33.569581455866981
30
1.1102230246251565e-15
10
41.707981459209876
20
33.858757630078024
30
0
10
41.926091159370387
20
34.085414033031363
30
2.2204460492503131e-15
10
42.132369055075969
20
34.320489943490827
30
-1.1102230246251565e-15
10
42.260519925492019
20
34.483250381688052
30
1.1102230246251565e-15
10
42.313310887010111
20
34.572249671608219
30
0
0
LINE
5
207
100
AcDbEntity
8
0
100
AcDbLine
10
42.313310887010118
20
34.572249671608226
30
0
11
42.466373004176596
21
34.830294218434894
31
0
0
ARC
5
208
100
AcDbEntity
8
0
100
AcDbCircle
10
43.831744955952431
20
34.020408002165077
30
0
40
1.5875000000000048
210
0
220
-0
230
1
100
AcDbArc
50
62.611848459037617
51
149.32520933172214
0
ARC
5
209
100
AcDbEntity
8
0
100
AcDbCircle
10
56.683078957752322
20
58.825698189225122
30
0
40
26.349200000001343
210
0
220
0
230
1
100
AcDbArc
50
242.61184845903847
51
243.38815154096241
0
ARC
5
210
100
AcDbEntity
8
0
100
AcDbCircle
10
44.169002244561916
20
33.848566830591061
30
0
40
1.5875000000000081
210
0
220
0
230
1
100
AcDbArc
50
-23.325209331721762
51
63.388151540967911
0
LINE
5
211
100
AcDbEntity
8
0
100
AcDbLine
10
45.626759454181858
20
33.219996891919877
30
0
11
45.507964685648403
21
32.944492258877972
31
0
0
SPLINE
5
212
100
AcDbEntity
8
0
100
AcDbSpline
70
0
71
3
72
16
73
12
74
0
42
0.000000001
43
0.0000000001
44
0.0000000001
40
0
40
0
40
0
40
0
40
0.0625
40
0.125
40
0.1875
40
0.25
40
0.375
40
0.5
40
0.625
40
0.75
40
1
40
1
40
1
40
1
10
45.507964685648403
20
32.944492258877972
30
0
10
45.466992496250356
20
32.849471003780856
30
1.1102230246251565e-15
10
45.410645016642441
20
32.650125434477658
30
2.2204460492503131e-15
10
45.341708634141995
20
32.345070042650441
30
1.1102230246251565e-15
10
45.28654072797088
20
32.035390532860511
30
2.2204460492503131e-15
10
45.233973649962884
20
31.615767953775887
30
0
10
45.19464524295956
20
31.083638715217678
30
0
10
45.188278377507764
20
30.434682196024191
30
1.1102230246251565e-15
10
45.217232267223359
20
29.778189572264754
30
2.2204460492503131e-15
10
45.299909297866293
20
28.894974857471851
30
0
10
45.408313198309543
20
28.225995651933552
30
1.1102230246251565e-15
10
45.499464085835932
20
27.778528295710771
30
0
0
ARC
5
213
100
AcDbEntity
8
0
100
AcDbCircle
10
56.683078957752322
20
58.825698189225122
30
0
40
33.000000000001421
210
0
220
0
230
1
100
AcDbArc
50
250.19028680072529
51
253.80971319927477
0
SPLINE
5
214
100
AcDbEntity
8
0
100
AcDbSpline
70
0
71
3
72
16
73
12
74
0
42
0.000000001
43
0.0000000001
44
0.0000000001
40
-1
40
-1
40
-1
40
-1
40
-0.75
40
-0.625
40
-0.5
40
-0.375
40
-0.25
40
-0.1875
40
-0.125
40
-0.0625
40
0
40
0
40
0
40
0
10
47.481744858850504
20
27.134446229094525
30
0
10
47.818502188785949
20
27.442877777284977
30
1.1102230246251565e-15
10
48.299416041833339
20
27.920375568932457
30
0
10
48.885445587037175
20
28.58631465446922
30
0
10
49.294749625677795
20
29.100408744186378
30
3.3306690738754696e-15
10
49.671041871092655
20
29.629169282496548
30
-1.1102230246251565e-15
10
49.952004439916251
20
30.082786825490906
30
1.1102230246251565e-15
10
50.156123829933492
20
30.453167059023144
30
0
10
50.293517801141867
20
30.73612971199961
30
2.2204460492503131e-15
10
50.417057286720237
20
31.023443563803017
30
-1.1102230246251565e-15
10
50.488640265683358
20
31.217838735948007
30
1.1102230246251565e-15
10
50.511345160564069
20
31.318795394830726
30
0
0
LINE
5
215
100
AcDbEntity
8
0
100
AcDbLine
10
50.511345160564069
20
31.318795394830726
30
0
11
50.577175734217938
21
31.611509137984122
31
0
0
ARC
5
216
100
AcDbEntity
8
0
100
AcDbCircle
10
52.125990230458392
20
31.263184711284712
30
0
40
1.5875000000000117
210
0
220
-0
230
1
100
AcDbArc
50
80.611848459037162
51
167.32520933172236
0
ARC
5
217
100
AcDbEntity
8
0
100
AcDbCircle
10
56.683078957752322
20
58.825698189225122
30
0
40
26.349200000001353
210
0
220
0
230
1
100
AcDbArc
50
260.61184845903779
51
261.38815154096181
0
ARC
5
218
100
AcDbEntity
8
0
100
AcDbCircle
10
52.499842814808162
20
31.203972278948594
30
0
40
1.5875000000000141
210
0
220
0
230
1
100
AcDbArc
50
-5.3252093317219167
51
81.388151540965993
0
LINE
5
219
100
AcDbEntity
8
0
100
AcDbLine
10
54.080491101396071
20
31.05663849427328
30
0
11
54.052646176319534
21
30.757908415429604
31
0
0
SPLINE
5
220
100
AcDbEntity
8
0
100
AcDbSpline
70
0
71
3
72
16
73
12
74
0
42
0.000000001
43
0.0000000001
44
0.0000000001
40
0
40
0
40
0
40
0
40
0.0625
40
0.125
40
0.1875
40
0.25
40
0.375
40
0.5
40
0.625
40
0.75
40
1
40
1
40
1
40
1
10
54.052646176319534
20
30.757908415429604
30
0
10
54.043042491257431
20
30.654876728762147
30
1.1102230246251565e-15
10
54.051054022267635
20
30.447875497292799
30
2.2204460492503131e-15
10
54.079758926781032
20
30.136448065341142
30
1.1102230246251565e-15
10
54.12298736146149
20
29.824877529041423
30
2.2204460492503131e-15
10
54.202663607539911
20
29.409548620369335
30
0
10
54.329697047702233
20
28.891310494401552
30
0
10
54.524180391867048
20
28.272148698405026
30
1.1102230246251565e-15
10
54.754584554776613
20
27.656734354654148
30
2.2204460492503131e-15
10
55.106143440070852
20
26.842295852375763
30
0
10
55.415967619372665
20
26.239557467176269
30
1.1102230246251565e-15
10
55.640932282422717
20
25.842157895509068
30
0
0
ARC
5
221
100
AcDbEntity
8
0
100
AcDbCircle
10
56.683078957752322
20
58.825698189225122
30
0
40
33.000000000001386
210
0
220
0
230
1
100
AcDbArc
50
268.19028680072478
51
271.80971319927431
0
SPLINE
5
222
100
AcDbEntity
8
0
100
AcDbSpline
70
0
71
3
72
16
73
12
74
0
42
0.000000001
43
0.0000000001
44
0.0000000001
40
-1
40
-1
40
-1
40
-1
40
-0.75
40
-0.625
40
-0.5
40
-0.375
40
-0.25
40
-0.1875
40
-0.125
40
-0.0625
40
0
40
0
40
0
40
0
10
57.725225633081401
20
25.842157895509068
30
0
10
57.950190296132817
20
26.239557467176095
30
1.1102230246251565e-15
10
58.260011617457053
20
26.84229540686221
30
0
10
58.611572340514506
20
27.656734202291126
30
0
10
58.841979803179278
20
28.272148640111649
30
3.3306690738754696e-15
10
59.036459002919521
20
28.891310494315849
30
-1.1102230246251565e-15
10
59.163494755102448
20
29.409548623036233
30
1.1102230246251565e-15
10
59.243170044538473
20
29.824877518040751
30
0
10
59.286399207612718
20
30.136448065050221
30
2.2204460492503131e-15
10
59.315107377465218
20
30.44787557654977
30
-1.1102230246251565e-15
10
59.323115424246652
20
30.654876728762193
30
1.1102230246251565e-15
10
59.313511739184662
20
30.757908415429604
30
0
0
LINE
5
223
100
AcDbEntity
8
0
100
AcDbLine
10
59.313511739184662
20
30.757908415429597
30
0
11
59.28566681410814
21
31.056638494273283
31
0
0
ARC
5
224
100
AcDbEntity
8
0
100
AcDbCircle
10
60.866315100696049
20
31.203972278948598
30
0
40
1.5875000000000132
210
0
220
0
230
1
100
AcDbArc
50
98.611848459037901
51
185.32520933172191
0
ARC
5
225
100
AcDbEntity
8
0
100
AcDbCircle
10
56.683078957752322
20
58.825698189225122
30
0
40
26.349200000001275
210
0
220
0
230
1
100
AcDbArc
50
278.61184845903705
51
279.38815154096125
0
ARC
5
226
100
AcDbEntity
8
0
100
AcDbCircle
10
61.240167685045783
20
31.263184711284715
30
0
40
1.5875000000000132
210
0
220
-0
230
1
100
AcDbArc
50
12.674790668278064
51
99.388151540962511
0
LINE
5
227
100
AcDbEntity
8
0
100
AcDbLine
10
62.788982181286237
20
31.611509137984136
30
0
11
62.854812754940085
21
31.318795394830794
31
0
0
SPLINE
5
228
100
AcDbEntity
8
0
100
AcDbSpline
70
0
71
3
72
16
73
12
74
0
42
0.000000001
43
0.0000000001
44
0.0000000001
40
0
40
0
40
0
40
0
40
0.0625
40
0.125
40
0.1875
40
0.25
40
0.375
40
0.5
40
0.625
40
0.75
40
1
40
1
40
1
40
1
10
62.854812754940085
20
31.318795394830794
30
0
10
62.87751764982076
20
31.217838735948
30
1.1102230246251565e-15
10
62.949103966973993
20
31.023444565111063
30
2.2204460492503131e-15
10
63.072640322448734
20
30.736129779916933
30
1.1102230246251565e-15
10
63.210033597603953
20
30.45316691204
30
2.2204460492503131e-15
10
63.414153901665735
20
30.082786961127908
30
0
10
63.695114270776457
20
29.629168706297691
30
0
10
64.071410439786007
20
29.10040950404403
30
1.1102230246251565e-15
10
64.480711311103761
20
28.586314484112016
30
2.2204460492503131e-15
10
65.066739017901625
20
27.92037510947798
30
0
10
65.547655726721317
20
27.442877777285382
30
1.1102230246251565e-15
10
65.884413056653543
20
27.134446229094568
30
0
0
ARC
5
229
100
AcDbEntity
8
0
100
AcDbCircle
10
56.683078957752322
20
58.825698189225122
30
0
40
33.000000000001236
210
0
220
0
230
1
100
AcDbArc
50
286.19028680072427
51
289.80971319927403
0
SPLINE
5
230
100
AcDbEntity
8
0
100
AcDbSpline
70
0
71
3
72
16
73
12
74
0
42
0.000000001
43
0.0000000001
44
0.0000000001
40
-1
40
-1
40
-1
40
-1
40
-0.75
40
-0.625
40
-0.5
40
-0.375
40
-0.25
40
-0.1875
40
-0.125
40
-0.0625
40
0
40
0
40
0
40
0
10
67.866693829668264
20
27.778528295710807
30
0
10
67.957844717193694
20
28.225995651933417
30
1.1102230246251565e-15
10
68.066246037213432
20
28.894973550600529
30
0
10
68.148924725083859
20
29.778189112095802
30
0
10
68.177881723983546
20
30.434682845001323
30
3.3306690738754696e-15
10
68.171510898962538
20
31.083638138855811
30
-1.1102230246251565e-15
10
68.132184689970856
20
31.61576809448561
30
1.1102230246251565e-15
10
68.079616706365428
20
32.035390364952804
30
0
10
68.024449489628509
20
32.345070110014397
30
2.2204460492503131e-15
10
67.955516188068202
20
32.650126586541369
30
-1.1102230246251565e-15
10
67.899165419254004
20
32.849471003780877
30
1.1102230246251565e-15
10
67.858193229855772
20
32.944492258878
30
0
0
LINE
5
231
100
AcDbEntity
8
0
100
AcDbLine
10
67.858193229855772
20
32.944492258878
30
0
11
67.739398461322338
21
33.219996891919891
31
0
0
ARC
5
232
100
AcDbEntity
8
0
100
AcDbCircle
10
69.19715567094228
20
33.848566830591082
30
0
40
1.587500000000015
210
0
220
0
230
1
100
AcDbArc
50
116.61184845903819
51
203.32520933172199
0
ARC
5
233
100
AcDbEntity
8
0
100
AcDbCircle
10
56.683078957752322
20
58.825698189225122
30
0
40
26.349200000001115
210
0
220
0
230
1
100
AcDbArc
50
296.61184845903637
51
297.38815154096079
0
ARC
5
234
100
AcDbEntity
8
0
100
AcDbCircle
10
69.534412959551759
20
34.020408002165105
30
0
40
1.5875000000000212
210
0
220
-0
230
1
100
AcDbArc
50
30.674790668277428
51
117.3881515409601
0
LINE
5
235
100
AcDbEntity
8
0
100
AcDbLine
10
70.899784911327629
20
34.830294218434929
30
0
11
71.052847028494028
21
34.57224967160829
31
0
0
SPLINE
5
236
100
AcDbEntity
8
0
100
AcDbSpline
70
0
71
3
72
16
73
12
74
0
42
0.000000001
43
0.0000000001
44
0.0000000001
40
0
40
0
40
0
40
0
40
0.0625
40
0.125
40
0.1875
40
0.25
40
0.375
40
0.5
40
0.625
40
0.75
40
1
40
1
40
1
40
1
10
71.052847028494028
20
34.57224967160829
30
0
10
71.105637990012113
20
34.483250381688144
30
1.1102230246251565e-15
10
71.23379172581437
20
34.320491927348833
30
2.2204460492503131e-15
10
71.440066933048143
20
34.085414161926899
30
1.1102230246251565e-15
10
71.658176037630724
20
33.85875733949873
30
2.2204460492503131e-15
10
71.96675968212439
20
33.569581716530827
30
0
10
72.374144621689055
20
33.224986648165199
30
0
10
72.895419124711211
20
32.838388674453014
30
1.1102230246251565e-15
10
73.443551483385406
20
32.475936180801284
30
2.2204460492503131e-15
10
74.206683536650928
20
32.023682719673289
30
0
10
74.811617296784831
20
31.718167206282079
30
1.1102230246251565e-15
10
75.227203139819508
20
31.52889511047362
30
0
0
ARC
5
237
100
AcDbEntity
8
0
100
AcDbCircle
10
56.683078957752322
20
58.825698189225122
30
0
40
33.000000000001009
210
0
220
0
230
1
100
AcDbArc
50
304.19028680072381
51
307.80971319927374
0
SPLINE
5
238
100
AcDbEntity
8
0
100
AcDbSpline
70
0
71
3
72
16
73
12
74
0
42
0.000000001
43
0.0000000001
44
0.0000000001
40
-1
40
-1
40
-1
40
-1
40
-0.75
40
-0.625
40
-0.5
40
-0.375
40
-0.25
40
-0.1875
40
-0.125
40
-0.0625
40
0
40
0
40
0
40
0
10
76.913431881765263
20
32.754012003442114
30
0
10
76.861846509810078
20
33.207745921702994
30
1.1102230246251565e-15
10
76.758216752042884
20
33.877479561589105
30
0
10
76.563920238701414
20
34.743016596266308
30
0
10
76.388592261029061
20
35.376327443619175
30
3.3306690738754696e-15
10
76.181995031987697
20
35.991551911423826
30
-1.1102230246251565e-15
10
75.980156385159376
20
36.485485106338601
30
1.1102230246251565e-15
10
75.800490849010458
20
36.868325200754946
30
0
10
75.652327404009213
20
37.145800532756276
30
2.2204460492503131e-15
10
75.492500302879677
20
37.414624920934941
30
-1.1102230246251565e-15
10
75.377306724339633
20
37.586799382727676
30
1.1102230246251565e-15
10
75.308976673973916
20
37.664508863753731
30
0
0
LINE
5
239
100
AcDbEntity
8
0
100
AcDbLine
10
75.308976673973916
20
37.664508863753724
30
0
11
75.110860521619415
21
37.889819737958035
31
0
0
ARC
5
240
100
AcDbEntity
8
0
100
AcDbCircle
10
76.303031221802087
20
38.938097025523689
30
0
40
1.5875000000000123
210
0
220
0
230
1
100
AcDbArc
50
134.61184845903864
51
221.32520933172214
0
ARC
5
241
100
AcDbEntity
8
0
100
AcDbCircle
10
56.683078957752322
20
58.825698189225122
30
0
40
26.349200000000881
210
0
220
0
230
1
100
AcDbArc
50
314.61184845903591
51
315.38815154096045
0
ARC
5
242
100
AcDbEntity
8
0
100
AcDbCircle
10
76.570680121452483
20
39.205745925174085
30
0
40
1.5875000000000141
210
0
220
-0
230
1
100
AcDbArc
50
48.674790668277126
51
135.38815154095687
0
LINE
5
243
100
AcDbEntity
8
0
100
AcDbLine
10
77.618957409018151
20
40.397916625356743
30
0
11
77.844268283222405
21
40.199800473002291
31
0
0
SPLINE
5
244
100
AcDbEntity
8
0
100
AcDbSpline
70
0
71
3
72
16
73
12
74
0
42
0.000000001
43
0.0000000001
44
0.0000000001
40
0
40
0
40
0
40
0
40
0.0625
40
0.125
40
0.1875
40
0.25
40
0.375
40
0.5
40
0.625
40
0.75
40
1
40
1
40
1
40
1
10
77.844268283222405
20
40.199800473002291
30
0
10
77.921977764248311
20
40.131470422636554
30
1.1102230246251565e-15
10
78.094154338139631
20
40.016279616310591
30
2.2204460492503131e-15
10
78.362976742644605
20
39.85644992022339
30
1.1102230246251565e-15
10
78.64045163784229
20
39.708285892234244
30
2.2204460492503131e-15
10
79.023292305616309
20
39.528621121991556
30
0
10
79.517224139332512
20
39.326780606317215
30
0
10
80.132450996078063
20
39.12018676439989
30
1.1102230246251565e-15
10
80.765759827779675
20
38.944856172462273
30
2.2204460492503131e-15
10
81.631295545084356
20
38.750558344650536
30
0
10
82.301031225270719
20
38.646930637163102
30
1.1102230246251565e-15
10
82.754765143534144
20
38.59534526521108
30
0
0
ARC
5
245
100
AcDbEntity
8
0
100
AcDbCircle
10
56.683078957752322
20
58.825698189225122
30
0
40
33.000000000000746
210
0
220
0
230
1
100
AcDbArc
50
322.19028680072347
51
325.80971319927352
0
SPLINE
5
246
100
AcDbEntity
8
0
100
AcDbSpline
70
0
71
3
72
16
73
12
74
0
42
0.000000001
43
0.0000000001
44
0.0000000001
40
-1
40
-1
40
-1
40
-1
40
-0.75
40
-0.625
40
-0.5
40
-0.375
40
-0.25
40
-0.1875
40
-0.125
40
-0.0625
40
0
40
0
40
0
40
0
10
83.979882036502772
20
40.281574007156806
30
0
10
83.790609940691482
20
40.697159850186367
30
1.1102230246251565e-15
10
83.485093107857296
20
41.302091036310948
30
0
10
83.03284048977315
20
42.065224748664569
30
0
10
82.670389859565347
20
42.613359832189737
30
3.3306690738754696e-15
10
82.283789402729951
20
43.134631016514938
30
-1.1102230246251565e-15
10
81.939195691109177
20
43.542017828161768
30
1.1102230246251565e-15
10
81.650019516898226
20
43.850600690681759
30
0
10
81.423363113944788
20
44.068710390842355
30
2.2204460492503131e-15
10
81.188287203485245
20
44.274988286547938
30
-1.1102230246251565e-15
10
81.025526765288419
20
44.403139156963924
30
1.1102230246251565e-15
10
80.936527475367939
20
44.455930118482073
30
0
0
LINE
5
247
100
AcDbEntity
8
0
100
AcDbLine
10
80.936527475367939
20
44.455930118482087
30
0
11
80.678482928541285
21
44.608992235648543
31
0
0
ARC
5
248
100
AcDbEntity
8
0
100
AcDbCircle
10
81.488369144811102
20
45.974364187424385
30
0
40
1.5875000000000206
210
0
220
0
230
1
100
AcDbArc
50
152.61184845903762
51
239.32520933172225
0
ARC
5
249
100
AcDbEntity
8
0
100
AcDbCircle
10
56.683078957752322
20
58.825698189225122
30
0
40
26.3492000000006
210
0
220
0
230
1
100
AcDbArc
50
332.61184845903551
51
333.38815154096017
0
ARC
5
250
100
AcDbEntity
8
0
100
AcDbCircle
10
81.660210316385133
20
46.311621476033864
30
0
40
1.5875000000000219
210
0
220
-0
230
1
100
AcDbArc
50
66.674790668277055
51
153.38815154095772
0
LINE
5
251
100
AcDbEntity
8
0
100
AcDbLine
10
82.288780255056352
20
47.769378685653805
30
0
11
82.5642848880982
21
47.65058391712035
31
0
0
SPLINE
5
252
100
AcDbEntity
8
0
100
AcDbSpline
70
0
71
3
72
16
73
12
74
0
42
0.000000001
43
0.0000000001
44
0.0000000001
40
0
40
0
40
0
40
0
40
0.0625
40
0.125
40
0.1875
40
0.25
40
0.375
40
0.5
40
0.625
40
0.75
40
1
40
1
40
1
40
1
10
82.5642848880982
20
47.65058391712035
30
0
10
82.659306143195607
20
47.609611727722296
30
1.1102230246251565e-15
10
82.8586517124984
20
47.553264248114431
30
2.2204460492503131e-15
10
83.163707104325809
20
47.484327865613892
30
1.1102230246251565e-15
10
83.473386614115682
20
47.429159959442863
30
2.2204460492503131e-15
10
83.893009193200285
20
47.376592881434831
30
0
10
84.425138431758384
20
47.337264474431436
30
0
10
85.074094950952244
20
47.330897608979953
30
1.1102230246251565e-15
10
85.730587574711251
20
47.3598514986951
30
2.2204460492503131e-15
10
86.613802289504264
20
47.442528529338517
30
0
10
87.282781495042698
20
47.55093242978073
30
1.1102230246251565e-15
10
87.730248851265458
20
47.642083317307922
30
0
0
ARC
5
253
100
AcDbEntity
8
0
100
AcDbCircle
10
56.683078957752322
20
58.825698189225122
30
0
40
33.000000000000547
210
0
220
0
230
1
100
AcDbArc
50
340.19028680072319
51
343.80971319927329
0
SPLINE
5
254
100
AcDbEntity
8
0
100
AcDbSpline
70
0
71
3
72
16
73
12
74
0
42
0.000000001
43
0.0000000001
44
0.0000000001
40
-1
40
-1
40
-1
40
-1
40
-0.75
40
-0.625
40
-0.5
40
-0.375
40
-0.25
40
-0.1875
40
-0.125
40
-0.0625
40
0
40
0
40
0
40
0
10
88.374330917881835
20
49.624364090322729
30
0
10
88.065899369689348
20
49.961121420249988
30
1.1102230246251565e-15
10
87.58840157804498
20
50.442035273309344
30
0
10
86.922462492507179
20
51.02806481850984
30
0
10
86.408368402789861
20
51.437368857150176
30
3.3306690738754696e-15
10
85.879607864479809
20
51.813661102564403
30
-1.1102230246251565e-15
10
85.42599032148533
20
52.094623671388206
30
1.1102230246251565e-15
10
85.055610087953141
20
52.298743061405432
30
0
10
84.772647434976633
20
52.436137032613772
30
2.2204460492503131e-15
10
84.485333583173286
20
52.559676518192191
30
-1.1102230246251565e-15
10
84.29093841102798
20
52.63125949715517
30
1.1102230246251565e-15
10
84.189981752145556
20
52.653964392035959
30
0
0
LINE
5
255
100
AcDbEntity
8
0
100
AcDbLine
10
84.189981752145556
20
52.653964392035959
30
0
11
83.8972680089921
21
52.719794965689871
31
0
0
ARC
5
256
100
AcDbEntity
8
0
100
AcDbCircle
10
84.24559243569152
20
54.268609461930339
30
0
40
1.5875000000000279
210
0
220
0
230
1
100
AcDbArc
50
170.61184845903543
51
257.32520933172208
0
ARC
5
257
100
AcDbEntity
8
0
100
AcDbCircle
10
56.683078957752322
20
58.825698189225122
30
0
40
26.349200000000288
210
0
220
0
230
1
100
AcDbArc
50
350.61184845903563
51
351.38815154095988
0
ARC
5
258
100
AcDbEntity
8
0
100
AcDbCircle
10
84.304804868027631
20
54.642462046280073
30
0
40
1.5875000000000061
210
0
220
-0
230
1
100
AcDbArc
50
84.674790668277694
51
171.38815154095917
0
LINE
5
259
100
AcDbEntity
8
0
100
AcDbLine
10
84.452138652702956
20
56.223110332867975
30
0
11
84.750868731546646
21
56.195265407791446
31
0
0
CIRCLE
5
260
100
AcDbEntity
8
0
100
AcDbCircle
10
56.683078957752322
20
58.825698189225122
30
0
40
4.0000000000002469
210
0
220
0
230
1
0
SPLINE
5
261
100
AcDbEntity
8
0
100
AcDbSpline
70
0
71
3
72
16
73
12
74
0
42
0.000000001
43
0.0000000001
44
0.0000000001
40
0
40
0
40
0
40
0
40
0.0625
40
0.125
40
0.1875
40
0.25
40
0.375
40
0.5
40
0.625
40
0.75
40
1
40
1
40
1
40
1
10
84.750868731546646
20
56.195265407791446
30
0
10
84.853900418214067
20
56.185661722729407
30
0
10
85.06090164968343
20
56.193673253739505
30
0
10
85.372329081635115
20
56.22237815825293
30
0
10
85.683899617934856
20
56.265606592933381
30
0
10
86.099228526606908
20
56.345282839011936
30
0
10
86.617466652574663
20
56.472316279174102
30
0
10
87.236628448571366
20
56.666799623339074
30
0
10
87.852042792321967
20
56.897203786248539
30
0
10
88.666481294600885
20
57.248762671542636
30
0
10
89.269219679799349
20
57.558586850844982
30
0
10
89.66661925146721
20
57.783551513894629
30
0
0
ARC
5
262
100
AcDbEntity
8
0
100
AcDbCircle
10
56.683078957752322
20
58.825698189225122
30
0
40
33.000000000000256
210
-0
220
0
230
1
100
AcDbArc
50
-1.8097131992768134
51
1.8097131992727753
0
SPLINE
5
263
100
AcDbEntity
8
0
100
AcDbSpline
70
0
71
3
72
16
73
12
74
0
42
0.000000001
43
0.0000000001
44
0.0000000001
40
-1
40
-1
40
-1
40
-1
40
-0.75
40
-0.625
40
-0.5
40
-0.375
40
-0.25
40
-0.1875
40
-0.125
40
-0.0625
40
0
40
0
40
0
40
0
10
89.666619251467267
20
59.867844864553376
30
0
10
89.269219679798994
20
60.092809527603031
30
0
10
88.666481740114875
20
60.40263084892986
30
0
10
87.85204294468528
20
60.754191571986517
30
0
10
87.236628506864804
20
60.984599034651168
30
0
10
86.617466652660369
20
61.17907823439139
30
0
10
86.099228523940084
20
61.306113986574346
30
0
10
85.68389962893562
20
61.38578927601035
30
0
10
85.372329081926068
20
61.429018439084643
30
0
10
85.060901570426495
20
61.457726608937087
30
0
10
84.853900418214153
20
61.465734655718563
30
0
10
84.750868731546717
20
61.456130970656545
30
0
0
LINE
5
264
100
AcDbEntity
8
0
100
AcDbLine
10
84.750868731546717
20
61.456130970656545
30
0
11
84.452138652702956
21
61.428286045580023
31
0
0
ARC
5
265
100
AcDbEntity
8
0
100
AcDbCircle
10
84.304804868027659
20
63.008934332168003
30
0
40
1.5875000000000907
210
0
220
0
230
1
100
AcDbArc
50
188.61184845904111
51
275.32520933172106
0
ARC
5
266
100
AcDbEntity
8
0
100
AcDbCircle
10
56.683078957752322
20
58.825698189225122
30
0
40
26.349199999999904
210
0
220
-0
230
1
100
AcDbArc
50
8.6118484590354036
51
9.3881515409597736
0
ARC
5
267
100
AcDbEntity
8
0
100
AcDbCircle
10
84.245592435691506
20
63.382786916517688
30
0
40
1.5874999999999948
210
0
220
0
230
1
100
AcDbArc
50
102.67479066827779
51
189.38815154096213
0
LINE
5
268
100
AcDbEntity
8
0
100
AcDbLine
10
83.8972680089921
20
64.931601412758113
30
0
11
84.189981752145485
21
64.997431986411996
31
0
0
SPLINE
5
269
100
AcDbEntity
8
0
100
AcDbSpline
70
0
71
3
72
16
73
12
74
0
42
0.000000001
43
0.0000000001
44
0.0000000001
40
0
40
0
40
0
40
0
40
0.0625
40
0.125
40
0.1875
40
0.25
40
0.375
40
0.5
40
0.625
40
0.75
40
1
40
1
40
1
40
1
10
84.189981752145485
20
64.997431986411996
30
0
10
84.29093841102825
20
65.020136881292672
30
0
10
84.485332581865237
20
65.091723198445891
30
0
10
84.772647367059363
20
65.215259553920674
30
0
10
85.055610234936381
20
65.352652829075836
30
0
10
85.425990185848264
20
65.556773133137582
30
0
10
85.879608440678524
20
65.837733502248341
30
0
10
86.408367642932234
20
66.214029671257933
30
0
10
86.922462662864206
20
66.6233305425758
30
0
10
87.588402037498284
20
67.209358249373082
30
0
10
88.065899369691479
20
67.690274958193925
30
0
10
88.374330917881707
20
68.027032288125426
30
0
0
ARC
5
270
100
AcDbEntity
8
0
100
AcDbCircle
10
56.683078957752322
20
58.825698189225122
30
0
40
32.999999999999851
210
0
220
-0
230
1
100
AcDbArc
50
16.190286800723282
51
19.809713199272981
0
SPLINE
5
271
100
AcDbEntity
8
0
100
AcDbSpline
70
0
71
3
72
16
73
12
74
0
42
0.000000001
43
0.0000000001
44
0.0000000001
40
-1
40
-1
40
-1
40
-1
40
-0.75
40
-0.625
40
-0.5
40
-0.375
40
-0.25
40
-0.1875
40
-0.125
40
-0.0625
40
0
40
0
40
0
40
0
10
87.730248851265515
20
70.009313061140062
30
0
10
87.282781495043054
20
70.10046394866832
30
0
10
86.613803596375817
20
70.208865268683908
30
0
10
85.730588034880498
20
70.291543956555401
30
0
10
85.074094301974981
20
70.320500955455302
30
0
10
84.425139008120453
20
70.314130130434393
30
0
10
83.893009052490726
20
70.274803921442711
30
0
10
83.473386782023482
20
70.222235937837297
30
0
10
83.163707036961924
20
70.167068721100321
30
0
10
82.858650560434896
20
70.098135419540142
30
0
10
82.659306143195437
20
70.041784650725717
30
0
10
82.5642848880983
20
70.000812461327627
30
0
0
LINE
5
272
100
AcDbEntity
8
0
100
AcDbLine
10
82.564284888098285
20
70.000812461327641
30
0
11
82.288780255056352
21
69.882017692794165
31
0
0
ARC
5
273
100
AcDbEntity
8
0
100
AcDbCircle
10
81.660210316385161
20
71.339774902414121
30
0
40
1.587500000000019
210
0
220
0
230
1
100
AcDbArc
50
206.61184845903679
51
293.32520933172179
0
ARC
5
274
100
AcDbEntity
8
0
100
AcDbCircle
10
56.683078957752322
20
58.825698189225122
30
0
40
26.349199999999605
210
0
220
-0
230
1
100
AcDbArc
50
26.611848459035762
51
27.388151540959903
0
ARC
5
275
100
AcDbEntity
8
0
100
AcDbCircle
10
81.488369144811102
20
71.677032191023599
30
0
40
1.5874999999999952
210
0
220
0
230
1
100
AcDbArc
50
120.67479066827687
51
207.38815154096469
0
LINE
5
276
100
AcDbEntity
8
0
100
AcDbLine
10
80.678482928541314
20
73.042404142799441
30
0
11
80.936527475367967
21
73.195466259965912
31
0
0
SPLINE
5
277
100
AcDbEntity
8
0
100
AcDbSpline
70
0
71
3
72
16
73
12
74
0
42
0.000000001
43
0.0000000001
44
0.0000000001
40
0
40
0
40
0
40
0
40
0.0625
40
0.125
40
0.1875
40
0.25
40
0.375
40
0.5
40
0.625
40
0.75
40
1
40
1
40
1
40
1
10
80.936527475367967
20
73.195466259965912
30
0
10
81.02552676528822
20
73.248257221483939
30
0
10
81.188285219627375
20
73.376410957286367
30
0
10
81.423362985049437
20
73.582686164520013
30
0
10
81.650019807477577
20
73.800795269102608
30
0
10
81.939195430445452
20
74.109378913596174
30
0
10
82.283790498811001
20
74.516763853160882
30
0
10
82.670388472523442
20
75.038038356183122
30
0
10
83.032840966174888
20
75.586170714857516
30
0
10
83.485094427303309
20
76.349302768122271
30
0
10
83.790609940693699
20
76.954236528257269
30
0
10
83.979882036502715
20
77.369822371291349
30
0
0
ARC
5
278
100
AcDbEntity
8
0
100
AcDbCircle
10
56.683078957752322
20
58.825698189225122
30
0
40
32.999999999999552
210
0
220
-0
230
1
100
AcDbArc
50
34.190286800723534
51
37.809713199273176
0
SPLINE
5
279
100
AcDbEntity
8
0
100
AcDbSpline
70
0
71
3
72
16
73
12
74
0
42
0.000000001
43
0.0000000001
44
0.0000000001
40
-1
40
-1
40
-1
40
-1
40
-0.75
40
-0.625
40
-0.5
40
-0.375
40
-0.25
40
-0.1875
40
-0.125
40
-0.0625
40
0
40
0
40
0
40
0
10
82.754765143534343
20
79.056051113236919
30
0
10
82.301031225267963
20
79.004465741287206
30
0
10
81.631297585390271
20
78.900835983512067
30
0
10
80.765760550710553
20
78.706539470172714
30
0
10
80.132449703357622
20
78.531211492500475
30
0
10
79.517225235552388
20
78.324614263459637
30
0
10
79.023292040637585
20
78.122775616631245
30
0
10
78.640451946221347
20
77.943110080482271
30
0
10
78.362976614220003
20
77.794946635480954
30
0
10
78.094152226041359
20
77.635119534351531
30
0
10
77.921977764248439
20
77.519925955811445
30
0
10
77.844268283222547
20
77.451595905445728
30
0
0
LINE
5
280
100
AcDbEntity
8
0
100
AcDbLine
10
77.844268283222547
20
77.451595905445728
30
0
11
77.618957409018179
21
77.253479753091213
31
0
0
ARC
5
281
100
AcDbEntity
8
0
100
AcDbCircle
10
76.570680121452511
20
78.445650453273885
30
0
40
1.5875000000000248
210
0
220
0
230
1
100
AcDbArc
50
224.61184845903804
51
311.32520933172253
0
ARC
5
282
100
AcDbEntity
8
0
100
AcDbCircle
10
56.683078957752322
20
58.825698189225122
30
0
40
26.349199999999279
210
0
220
-0
230
1
100
AcDbArc
50
44.61184845903626
51
45.388151540960308
0
ARC
5
283
100
AcDbEntity
8
0
100
AcDbCircle
10
76.303031221802115
20
78.713299352924295
30
0
40
1.5875000000000141
210
0
220
0
230
1
100
AcDbArc
50
138.67479066827931
51
225.38815154096667
0
LINE
5
284
100
AcDbEntity
8
0
100
AcDbLine
10
75.110860521619415
20
79.76157664048992
30
0
11
75.308976673973945
21
79.986887514694274
31
0
0
SPLINE
5
285
100
AcDbEntity
8
0
100
AcDbSpline
70
0
71
3
72
16
73
12
74
0
42
0.000000001
43
0.0000000001
44
0.0000000001
40
0
40
0
40
0
40
0
40
0.0625
40
0.125
40
0.1875
40
0.25
40
0.375
40
0.5
40
0.625
40
0.75
40
1
40
1
40
1
40
1
10
75.308976673973945
20
79.986887514694274
30
0
10
75.377306724339604
20
80.064596995720194
30
0
10
75.492497530665673
20
80.236773569611472
30
0
10
75.652327226752902
20
80.50559597411646
30
0
10
75.800491254741985
20
80.783070869314159
30
0
10
75.980156024984694
20
81.165911537088235
30
0
10
76.181996540659014
20
81.659843370804381
30
0
10
76.388590382576353
20
82.275070227550003
30
0
10
76.563920974513991
20
82.908379059251502
30
0
10
76.758218802325729
20
83.773914776555998
30
0
10
76.861846509812594
20
84.443650456742745
30
0
10
76.91343188176522
20
84.897384375005942
30
0
0
ARC
5
286
100
AcDbEntity
8
0
100
AcDbCircle
10
56.683078957752322
20
58.825698189225122
30
0
40
32.999999999999254
210
0
220
-0
230
1
100
AcDbArc
50
52.190286800723989
51
55.809713199273588
0
SPLINE
5
287
100
AcDbEntity
8
0
100
AcDbSpline
70
0
71
3
72
16
73
12
74
0
42
0.000000001
43
0.0000000001
44
0.0000000001
40
-1
40
-1
40
-1
40
-1
40
-0.75
40
-0.625
40
-0.5
40
-0.375
40
-0.25
40
-0.1875
40
-0.125
40
-0.0625
40
0
40
0
40
0
40
0
10
75.227203139819736
20
86.122501267974343
30
0
10
74.811617296780909
20
85.933229172167984
30
0
10
74.206686110670049
20
85.627712339326067
30
0
10
73.443552398312349
20
85.175459721244522
30
0
10
72.895417314787011
20
84.813009091036747
30
0
10
72.374146130461114
20
84.426408634201835
30
0
10
71.966759318814496
20
84.081814922580818
30
0
10
71.658176456294413
20
83.79263874837001
30
0
10
71.440066756133817
20
83.565982345416515
30
0
10
71.233788860428277
20
83.330906434957114
30
0
10
71.10563799001217
20
83.168145996759932
30
0
10
71.052847028494128
20
83.079146706839694
30
0
0
LINE
5
288
100
AcDbEntity
8
0
100
AcDbLine
10
71.052847028494114
20
83.079146706839694
30
0
11
70.899784911327657
21
82.821102160013012
31
0
0
ARC
5
289
100
AcDbEntity
8
0
100
AcDbCircle
10
69.534412959551801
20
83.630988376282858
30
0
40
1.5875000000000248
210
0
220
0
230
1
100
AcDbArc
50
242.61184845903739
51
329.32520933172168
0
ARC
5
290
100
AcDbEntity
8
0
100
AcDbCircle
10
56.683078957752322
20
58.825698189225122
30
0
40
26.349199999999083
210
0
220
-0
230
1
100
AcDbArc
50
62.611848459036992
51
63.388151540960962
0
ARC
5
291
100
AcDbEntity
8
0
100
AcDbCircle
10
69.197155670942308
20
83.802829547856859
30
0
40
1.587500000000007
210
0
220
0
230
1
100
AcDbArc
50
156.67479066827732
51
243.38815154096778
0
LINE
5
292
100
AcDbEntity
8
0
100
AcDbLine
10
67.739398461322381
20
84.431399486528065
30
0
11
67.858193229855829
21
84.706904119569955
31
0
0
SPLINE
5
293
100
AcDbEntity
8
0
100
AcDbSpline
70
0
71
3
72
16
73
12
74
0
42
0.000000001
43
0.0000000001
44
0.0000000001
40
0
40
0
40
0
40
0
40
0.0625
40
0.125
40
0.1875
40
0.25
40
0.375
40
0.5
40
0.625
40
0.75
40
1
40
1
40
1
40
1
10
67.858193229855829
20
84.706904119569955
30
0
10
67.899165419253919
20
84.801925374667078
30
0
10
67.95551289886177
20
85.001270943970312
30
0
10
68.024449281362294
20
85.306326335797507
30
0
10
68.079617187533373
20
85.616005845587438
30
0
10
68.132184265541284
20
86.035628424672055
30
0
10
68.171512672544708
20
86.567757663230367
30
0
10
68.177879537996247
20
87.216714182423573
30
0
10
68.148925648280979
20
87.873206806183376
30
0
10
68.066248617637953
20
88.756421520975692
30
0
10
67.957844717194632
20
89.42540072651471
30
0
10
67.866693829668293
20
89.872868082737156
30
0
0
ARC
5
294
100
AcDbEntity
8
0
100
AcDbCircle
10
56.683078957752322
20
58.825698189225122
30
0
40
32.999999999999098
210
0
220
-0
230
1
100
AcDbArc
50
70.190286800724579
51
73.809713199274313
0
SPLINE
5
295
100
AcDbEntity
8
0
100
AcDbSpline
70
0
71
3
72
16
73
12
74
0
42
0.000000001
43
0.0000000001
44
0.0000000001
40
-1
40
-1
40
-1
40
-1
40
-0.75
40
-0.625
40
-0.5
40
-0.375
40
-0.25
40
-0.1875
40
-0.125
40
-0.0625
40
0
40
0
40
0
40
0
10
65.884413056653756
20
90.516950149353363
30
0
10
65.547655726717821
20
90.208518601163533
30
0
10
65.066741873671134
20
89.731020809515044
30
0
10
64.480712328467021
20
89.065081723978579
30
0
10
64.071408289826422
20
88.550987634261404
30
0
10
63.695116044411641
20
88.02222709595145
30
0
10
63.414153475587945
20
87.568609552956929
30
0
10
63.210034085570754
20
87.198229319424797
30
0
10
63.072640114362379
20
86.915266666448346
30
0
10
62.949100628784038
20
86.627952814644942
30
0
10
62.877517649820732
20
86.433557642499878
30
0
10
62.854812754940177
20
86.332600983617226
30
0
0
LINE
5
296
100
AcDbEntity
8
0
100
AcDbLine
10
62.854812754940177
20
86.332600983617226
30
0
11
62.7889821812863
21
86.039887240463813
31
0
0
ARC
5
297
100
AcDbEntity
8
0
100
AcDbCircle
10
61.240167685045826
20
86.388211667163247
30
0
40
1.5875000000000339
210
0
220
0
230
1
100
AcDbArc
50
260.61184845903836
51
347.32520933172162
0
ARC
5
298
100
AcDbEntity
8
0
100
AcDbCircle
10
56.683078957752322
20
58.825698189225122
30
0
40
26.349199999999001
210
0
220
-0
230
1
100
AcDbArc
50
80.611848459037788
51
81.388151540961886
0
ARC
5
299
100
AcDbEntity
8
0
100
AcDbCircle
10
60.866315100696092
20
86.447424099499344
30
0
40
1.5875000000000221
210
0
220
0
230
1
100
AcDbArc
50
174.67479066827823
51
261.38815154096579
0
LINE
5
300
100
AcDbEntity
8
0
100
AcDbLine
10
59.285666814108176
20
86.594757884174655
30
0
11
59.313511739184712
21
86.893487963018316
31
0
0
SPLINE
5
301
100
AcDbEntity
8
0
100
AcDbSpline
70
0
71
3
72
16
73
12
74
0
42
0.000000001
43
0.0000000001
44
0.0000000001
40
0
40
0
40
0
40
0
40
0.0625
40
0.125
40
0.1875
40
0.25
40
0.375
40
0.5
40
0.625
40
0.75
40
1
40
1
40
1
40
1
10
59.313511739184712
20
86.893487963018316
30
0
10
59.323115424246765
20
86.996519649685638
30
0
10
59.315103893236653
20
87.203520881155271
30
0
10
59.286398988723207
20
87.514948313106785
30
0
10
59.243170554042777
20
87.82651884940654
30
0
10
59.163494307964228
20
88.241847758078649
30
0
10
59.036460867801985
20
88.760085884046305
30
0
10
58.841977523637077
20
89.379247680043079
30
0
10
58.611573360727618
20
89.994662023793737
30
0
10
58.260014475433557
20
90.809100526072214
30
0
10
57.950190296131467
20
91.411838911270635
30
0
10
57.725225633081514
20
91.809238482938895
30
0
0
ARC
5
302
100
AcDbEntity
8
0
100
AcDbCircle
10
56.683078957752322
20
58.825698189225122
30
0
40
32.999999999999112
210
0
220
-0
230
1
100
AcDbArc
50
88.19028680072536
51
91.809713199275123
0
SPLINE
5
303
100
AcDbEntity
8
0
100
AcDbSpline
70
0
71
3
72
16
73
12
74
0
42
0.000000001
43
0.0000000001
44
0.0000000001
40
-1
40
-1
40
-1
40
-1
40
-0.75
40
-0.625
40
-0.5
40
-0.375
40
-0.25
40
-0.1875
40
-0.125
40
-0.0625
40
0
40
0
40
0
40
0
10
55.640932282422845
20
91.809238482938895
30
0
10
55.415967619370633
20
91.411838911270422
30
0
10
55.106146298047619
20
90.809100971586574
30
0
10
54.754585574989783
20
89.994662176157078
30
0
10
54.524178112325046
20
89.379247738336446
30
0
10
54.329698912584746
20
88.760085884132053
30
0
10
54.202663160401755
20
88.241847755411641
30
0
10
54.122987870965751
20
87.826518860407276
30
0
10
54.0797587078915
20
87.51494831339761
30
0
10
54.051050538039043
20
87.20352080189825
30
0
10
54.043042491257545
20
86.996519649685609
30
0
10
54.05264617631957
20
86.893487963018316
30
0
0
LINE
5
304
100
AcDbEntity
8
0
100
AcDbLine
10
54.05264617631957
20
86.893487963018316
30
0
11
54.080491101396106
21
86.594757884174655
31
0
0
ARC
5
305
100
AcDbEntity
8
0
100
AcDbCircle
10
52.49984281480819
20
86.447424099499344
30
0
40
1.5875000000000412
210
0
220
0
230
1
100
AcDbArc
50
-81.388151540962241
51
5.3252093317217621
0
ARC
5
306
100
AcDbEntity
8
0
100
AcDbCircle
10
56.683078957752322
20
58.825698189225122
30
0
40
26.349199999999033
210
0
220
0
230
1
100
AcDbArc
50
98.611848459038683
51
99.388151540962994
0
ARC
5
307
100
AcDbEntity
8
0
100
AcDbCircle
10
52.125990230458441
20
86.388211667163205
30
0
40
1.5875000000000208
210
0
220
0
230
1
100
AcDbArc
50
192.67479066827747
51
279.38815154096204
0
LINE
5
308
100
AcDbEntity
8
0
100
AcDbLine
10
50.577175734217981
20
86.039887240463798
30
0
11
50.511345160564112
21
86.332600983617169
31
0
0
SPLINE
5
309
100
AcDbEntity
8
0
100
AcDbSpline
70
0
71
3
72
16
73
12
74
0
42
0.000000001
43
0.0000000001
44
0.0000000001
40
0
40
0
40
0
40
0
40
0.0625
40
0.125
40
0.1875
40
0.25
40
0.375
40
0.5
40
0.625
40
0.75
40
1
40
1
40
1
40
1
10
50.511345160564112
20
86.332600983617169
30
0
10
50.488640265683465
20
86.43355764249992
30
0
10
50.417053948530238
20
86.627951813336949
30
0
10
50.293517593055476
20
86.915266598530991
30
0
10
50.156124317900314
20
87.198229466408023
30
0
10
49.95200401383844
20
87.56860941732009
30
0
10
49.671043644727803
20
88.022227672150223
30
0
10
49.29474747571804
20
88.550986874403748
30
0
10
48.885446604400506
20
89.065081894335961
30
0
10
48.299418897602649
20
89.731021268970039
30
0
10
47.818502188782588
20
90.208518601163362
30
0
10
47.481744858850675
20
90.516950149353363
30
0
0
ARC
5
310
100
AcDbEntity
8
0
100
AcDbCircle
10
56.683078957752322
20
58.825698189225122
30
0
40
32.999999999999133
210
0
220
0
230
1
100
AcDbArc
50
106.19028680072608
51
109.80971319927599
0
SPLINE
5
311
100
AcDbEntity
8
0
100
AcDbSpline
70
0
71
3
72
16
73
12
74
0
42
0.000000001
43
0.0000000001
44
0.0000000001
40
-1
40
-1
40
-1
40
-1
40
-0.75
40
-0.625
40
-0.5
40
-0.375
40
-0.25
40
-0.1875
40
-0.125
40
-0.0625
40
0
40
0
40
0
40
0
10
45.499464085836017
20
89.872868082737085
30
0
10
45.408313198308917
20
89.425400726515122
30
0
10
45.29991187829161
20
88.75642282784726
30
0
10
45.217233190420636
20
87.873207266351699
30
0
10
45.188276191520735
20
87.216713533446736
30
0
10
45.194647016541751
20
86.567758239592095
30
0
10
45.233973225533319
20
86.035628283962367
30
0
10
45.286541209138882
20
85.616006013495081
30
0
10
45.341708425875744
20
85.306326268433551
30
0
10
45.410641727436015
20
85.001269791906509
30
0
10
45.466992496250313
20
84.801925374667078
30
0
10
45.50796468564846
20
84.706904119569884
30
0
0
LINE
5
312
100
AcDbEntity
8
0
100
AcDbLine
10
45.507964685648446
20
84.70690411956987
30
0
11
45.626759454181915
21
84.431399486528022
31
0
0
ARC
5
313
100
AcDbEntity
8
0
100
AcDbCircle
10
44.169002244561952
20
83.802829547856859
30
0
40
1.587500000000019
210
0
220
0
230
1
100
AcDbArc
50
-63.388151540961836
51
23.325209331720764
0
ARC
5
314
100
AcDbEntity
8
0
100
AcDbCircle
10
56.683078957752322
20
58.825698189225122
30
0
40
26.349199999999243
210
0
220
0
230
1
100
AcDbArc
50
116.61184845903944
51
117.38815154096392
0
ARC
5
315
100
AcDbEntity
8
0
100
AcDbCircle
10
43.831744955952445
20
83.630988376282787
30
0
40
1.5874999999999799
210
0
220
0
230
1
100
AcDbArc
50
210.67479066827698
51
297.38815154096147
0
LINE
5
316
100
AcDbEntity
8
0
100
AcDbLine
10
42.46637300417661
20
82.821102160012998
30
0
11
42.313310887010132
21
83.079146706839708
31
0
0
SPLINE
5
317
100
AcDbEntity
8
0
100
AcDbSpline
70
0
71
3
72
16
73
12
74
0
42
0.000000001
43
0.0000000001
44
0.0000000001
40
0
40
0
40
0
40
0
40
0.0625
40
0.125
40
0.1875
40
0.25
40
0.375
40
0.5
40
0.625
40
0.75
40
1
40
1
40
1
40
1
10
42.313310887010132
20
83.079146706839708
30
0
10
42.26051992549192
20
83.168145996759861
30
0
10
42.132366189689876
20
83.330904451099116
30
0
10
41.926090982455989
20
83.565982216521149
30
0
10
41.707981877873493
20
83.792639038949261
30
0
10
41.399398233379785
20
84.081814661917193
30
0
10
40.992013293815063
20
84.426409730282742
30
0
10
40.470738790793057
20
84.813007703995069
30
0
10
39.922606432118684
20
85.17546019764653
30
0
10
39.159474378853673
20
85.62771365877515
30
0
10
38.554540618718455
20
85.933229172164999
30
0
10
38.138954775684702
20
86.122501267974428
30
0
0
ARC
5
318
100
AcDbEntity
8
0
100
AcDbCircle
10
56.683078957752322
20
58.825698189225122
30
0
40
32.999999999999439
210
0
220
0
230
1
100
AcDbArc
50
124.1902868007266
51
127.80971319927666
0
SPLINE
5
319
100
AcDbEntity
8
0
100
AcDbSpline
70
0
71
3
72
16
73
12
74
0
42
0.000000001
43
0.0000000001
44
0.0000000001
40
-1
40
-1
40
-1
40
-1
40
-0.75
40
-0.625
40
-0.5
40
-0.375
40
-0.25
40
-0.1875
40
-0.125
40
-0.0625
40
0
40
0
40
0
40
0
10
36.452726033739005
20
84.897384375005828
30
0
10
36.504311405693429
20
84.44365045674337
30
0
10
36.607941163461817
20
83.773916816859725
30
0
10
36.802237676802932
20
82.908379782181669
30
0
10
36.977565654475249
20
82.275068934828965
30
0
10
37.184162883516521
20
81.659844467024101
30
0
10
37.386001530344792
20
81.165911272109227
30
0
10
37.565667066493837
20
80.783071177693046
30
0
10
37.713830511495068
20
80.505595845691587
30
0
10
37.873657612624562
20
80.236771457512958
30
0
10
37.988851191164599
20
80.064596995720194
30
0
10
38.05718124153033
20
79.986887514694175
30
0
0
LINE
5
320
100
AcDbEntity
8
0
100
AcDbLine
10
38.05718124153033
20
79.986887514694146
30
0
11
38.255297393884831
21
79.761576640489892
31
0
0
ARC
5
321
100
AcDbEntity
8
0
100
AcDbCircle
10
37.063126693702145
20
78.713299352924238
30
0
40
1.5875000000000217
210
0
220
0
230
1
100
AcDbArc
50
-45.38815154096158
51
41.325209331721808
0
ARC
5
322
100
AcDbEntity
8
0
100
AcDbCircle
10
56.683078957752322
20
58.825698189225122
30
0
40
26.349199999999517
210
0
220
0
230
1
100
AcDbArc
50
134.61184845904009
51
135.38815154096471
0
ARC
5
323
100
AcDbEntity
8
0
100
AcDbCircle
10
36.795477794051749
20
78.445650453273828
30
0
40
1.5875000000000072
210
0
220
0
230
1
100
AcDbArc
50
228.67479066827693
51
315.38815154095704
0
LINE
5
324
100
AcDbEntity
8
0
100
AcDbLine
10
35.747200506486074
20
77.25347975309117
30
0
11
35.521889632281763
21
77.451595905445657
31
0
0
SPLINE
5
325
100
AcDbEntity
8
0
100
AcDbSpline
70
0
71
3
72
16
73
12
74
0
42
0.000000001
43
0.0000000001
44
0.0000000001
40
0
40
0
40
0
40
0
40
0.0625
40
0.125
40
0.1875
40
0.25
40
0.375
40
0.5
40
0.625
40
0.75
40
1
40
1
40
1
40
1
10
35.521889632281763
20
77.451595905445657
30
0
10
35.4441801512558
20
77.519925955811402
30
0
10
35.272003577364536
20
77.635116762137343
30
0
10
35.003181172859648
20
77.794946458224643
30
0
10
34.725706277661821
20
77.943110486213655
30
0
10
34.342865609887852
20
78.122775256456521
30
0
10
33.848933776171613
20
78.324615772130727
30
0
10
33.23370691942592
20
78.531209614048095
30
0
10
32.600398087724635
20
78.70654020598559
30
0
10
31.734862370419698
20
78.900838033797712
30
0
10
31.065126690233093
20
79.004465741283695
30
0
10
30.61139277197007
20
79.056051113236933
30
0
0
ARC
5
326
100
AcDbEntity
8
0
100
AcDbCircle
10
56.683078957752322
20
58.825698189225122
30
0
40
32.999999999999737
210
0
220
0
230
1
100
AcDbArc
50
142.19028680072702
51
145.80971319927718
0
SPLINE
5
327
100
AcDbEntity
8
0
100
AcDbSpline
70
0
71
3
72
16
73
12
74
0
42
0.000000001
43
0.0000000001
44
0.0000000001
40
-1
40
-1
40
-1
40
-1
40
-0.75
40
-0.625
40
-0.5
40
-0.375
40
-0.25
40
-0.1875
40
-0.125
40
-0.0625
40
0
40
0
40
0
40
0
10
29.38627587900152
20
77.369822371291136
30
0
10
29.575547974812167
20
76.954236528260623
30
0
10
29.881064807647899
20
76.349305342137427
30
0
10
30.333317425730932
20
75.586171629783422
30
0
10
30.695768055939119
20
75.038036546258041
30
0
10
31.082368512774355
20
74.516765361933025
30
0
10
31.426962224395076
20
74.109378550286138
30
0
10
31.716138398606098
20
73.80079568776614
30
0
10
31.942794801559454
20
73.582685987605501
30
0
10
32.177870712018915
20
73.376408091899989
30
0
10
32.340631150216048
20
73.248257221483911
30
0
10
32.429630440136307
20
73.195466259965826
30
0
0
LINE
5
328
100
AcDbEntity
8
0
100
AcDbLine
10
32.429630440136307
20
73.195466259965812
30
0
11
32.687674986962961
21
73.04240414279937
31
0
0
ARC
5
329
100
AcDbEntity
8
0
100
AcDbCircle
10
31.877788770693137
20
71.677032191023528
30
0
40
1.5875000000000048
210
-0
220
0
230
1
100
AcDbArc
50
-27.388151540961939
51
59.325209331722043
0
ARC
5
330
100
AcDbEntity
8
0
100
AcDbCircle
10
56.683078957752322
20
58.825698189225122
30
0
40
26.3491999999999
210
0
220
0
230
1
100
AcDbArc
50
152.61184845904049
51
153.38815154096505
0
ARC
5
331
100
AcDbEntity
8
0
100
AcDbCircle
10
31.70594759911911
20
71.339774902414064
30
0
40
1.5875000000000297
210
0
220
0
230
1
100
AcDbArc
50
246.67479066827809
51
333.38815154095778
0
LINE
5
332
100
AcDbEntity
8
0
100
AcDbLine
10
31.077377660447915
20
69.882017692794108
30
0
11
30.801873027405993
21
70.00081246132757
31
0
0
SPLINE
5
333
100
AcDbEntity
8
0
100
AcDbSpline
70
0
71
3
72
16
73
12
74
0
42
0.000000001
43
0.0000000001
44
0.0000000001
40
0
40
0
40
0
40
0
40
0.0625
40
0.125
40
0.1875
40
0.25
40
0.375
40
0.5
40
0.625
40
0.75
40
1
40
1
40
1
40
1
10
30.801873027405993
20
70.00081246132757
30
0
10
30.706851772308767
20
70.041784650725674
30
0
10
30.507506203005743
20
70.098132130333511
30
0
10
30.202450811178441
20
70.167068512833993
30
0
10
29.892771301388528
20
70.2222364190051
30
0
10
29.473148722303936
20
70.274803497012982
30
0
10
28.941019483745642
20
70.314131904016463
30
0
10
28.292062964552244
20
70.32049876946806
30
0
10
27.635570340792711
20
70.291544879752919
30
0
10
26.75235562599989
20
70.208867849109396
30
0
10
26.083376420461519
20
70.100463948666274
30
0
10
25.63590906423876
20
70.009313061140034
30
0
0
ARC
5
334
100
AcDbEntity
8
0
100
AcDbCircle
10
56.683078957752322
20
58.825698189225122
30
0
40
33.000000000000178
210
0
220
0
230
1
100
AcDbArc
50
160.19028680072719
51
163.80971319927735
0
SPLINE
5
335
100
AcDbEntity
8
0
100
AcDbSpline
70
0
71
3
72
16
73
12
74
0
42
0.000000001
43
0.0000000001
44
0.0000000001
40
-1
40
-1
40
-1
40
-1
40
-0.75
40
-0.625
40
-0.5
40
-0.375
40
-0.25
40
-0.1875
40
-0.125
40
-0.0625
40
0
40
0
40
0
40
0
10
24.991826997622528
20
68.02703228812517
30
0
10
25.300258545814515
20
67.690274958197833
30
0
10
25.777756337459689
20
67.209361105138598
30
0
10
26.443695422997134
20
66.623331559938094
30
0
10
26.957789512714282
20
66.214027521297638
30
0
10
27.486550051024675
20
65.837735275883475
30
0
10
27.940167594018959
20
65.556772707059551
30
0
10
28.310547827551204
20
65.352653317042538
30
0
10
28.593510480527677
20
65.21525934583407
30
0
10
28.880824332331088
20
65.091719860255751
30
0
10
29.075219504476081
20
65.020136881292572
30
0
10
29.176176163358797
20
64.997431986411897
30
0
0
LINE
5
336
100
AcDbEntity
8
0
100
AcDbLine
10
29.176176163358797
20
64.997431986411897
30
0
11
29.468889906512157
21
64.931601412758056
31
0
0
ARC
5
337
100
AcDbEntity
8
0
100
AcDbCircle
10
29.120565479812733
20
63.382786916517603
30
0
40
1.5875000000000148
210
0
220
0
230
1
100
AcDbArc
50
-9.3881515409604113
51
77.325209331721808
0
ARC
5
338
100
AcDbEntity
8
0
100
AcDbCircle
10
56.683078957752322
20
58.825698189225122
30
0
40
26.349200000000298
210
0
220
0
230
1
100
AcDbArc
50
170.61184845904046
51
171.38815154096508
0
ARC
5
339
100
AcDbEntity
8
0
100
AcDbCircle
10
29.061353047476629
20
63.008934332167847
30
0
40
1.5874999999999986
210
0
220
0
230
1
100
AcDbArc
50
264.67479066827718
51
351.38815154095897
0
LINE
5
340
100
AcDbEntity
8
0
100
AcDbLine
10
28.91401926280129
20
61.428286045579952
30
0
11
28.615289183957625
21
61.456130970656481
31
0
0
SPLINE
5
341
100
AcDbEntity
8
0
100
AcDbSpline
70
0
71
3
72
16
73
12
74
0
42
0.000000001
43
0.0000000001
44
0.0000000001
40
0
40
0
40
0
40
0
40
0.0625
40
0.125
40
0.1875
40
0.25
40
0.375
40
0.5
40
0.625
40
0.75
40
1
40
1
40
1
40
1
10
28.615289183957625
20
61.456130970656481
30
0
10
28.512257497290136
20
61.465734655718542
30
0
10
28.305256265820844
20
61.457723124708423
30
0
10
27.993828833869159
20
61.42901822019499
30
0
10
27.682258297569437
20
61.385789785514582
30
0
10
27.266929388897321
20
61.306113539435991
30
0
10
26.74869126292959
20
61.179080099273776
30
0
10
26.129529466932997
20
60.984596755108797
30
0
10
25.514115123182172
20
60.754192592199402
30
0
10
24.699676620903801
20
60.402633706905164
30
0
10
24.096938235704137
20
60.092809527603521
30
0
10
23.699538664037064
20
59.867844864553277
30
0
0
ARC
5
342
100
AcDbEntity
8
0
100
AcDbCircle
10
56.683078957752322
20
58.825698189225122
30
0
40
33.00000000000054
210
0
220
0
230
1
100
AcDbArc
50
178.19028680072722
51
181.80971319927679
0
SPLINE
5
343
100
AcDbEntity
8
0
100
AcDbSpline
70
0
71
3
72
16
73
12
74
0
42
0.000000001
43
0.0000000001
44
0.0000000001
40
-1
40
-1
40
-1
40
-1
40
-0.75
40
-0.625
40
-0.5
40
-0.375
40
-0.25
40
-0.1875
40
-0.125
40
-0.0625
40
0
40
0
40
0
40
0
10
23.699538664037107
20
57.783551513894523
30
0
10
24.096938235704002
20
57.558586850845337
30
0
10
24.699676175390248
20
57.248765529517883
30
0
10
25.514114970819183
20
56.897204806461311
30
0
10
26.129529408639641
20
56.666797343796731
30
0
10
26.748691262843927
20
56.472318144056487
30
0
10
27.266929391564268
20
56.345282391873617
30
0
10
27.682258286568793
20
56.265607102437556
30
0
10
27.993828833578288
20
56.222377939363284
30
0
10
28.305256345077812
20
56.193669769510834
30
0
10
28.512257497290253
20
56.185661722729321
30
0
10
28.615289183957657
20
56.195265407791354
30
0
0
LINE
5
344
100
AcDbEntity
8
0
100
AcDbLine
10
28.61528918395765
20
56.195265407791354
30
0
11
28.9140192628013
21
56.223110332867911
31
0
0
ARC
5
345
100
AcDbEntity
8
0
100
AcDbCircle
10
29.061353047476612
20
54.642462046279988
30
0
40
1.5875000000000206
210
0
220
-0
230
1
100
AcDbArc
50
8.6118484590386331
51
95.325209331721737
0
ARC
5
346
100
AcDbEntity
8
0
100
AcDbCircle
10
56.683078957752322
20
58.825698189225122
30
0
40
26.349200000000678
210
0
220
0
230
1
100
AcDbArc
50
188.61184845904029
51
189.3881515409646
0
ARC
5
347
100
AcDbEntity
8
0
100
AcDbCircle
10
29.120565479812726
20
54.268609461930268
30
0
40
1.5875000000000208
210
0
220
0
230
1
100
AcDbArc
50
-77.325209331722277
51
9.388151540960866
0
LINE
5
348
100
AcDbEntity
8
0
100
AcDbLine
10
29.468889906512139
20
52.719794965689807
30
0
11
29.176176163358754
21
52.653964392035924
31
0
0
SPLINE
5
349
100
AcDbEntity
8
0
100
AcDbSpline
70
0
71
3
72
16
73
12
74
0
42
0.000000001
43
0.0000000001
44
0.0000000001
40
0
40
0
40
0
40
0
40
0.0625
40
0.125
40
0.1875
40
0.25
40
0.375
40
0.5
40
0.625
40
0.75
40
1
40
1
40
1
40
1
10
29.176176163358754
20
52.653964392035924
30
0
10
29.075219504476042
20
52.631259497155192
30
0
10
28.880825333638999
20
52.559673180002065
30
0
10
28.593510548444932
20
52.43613682452731
30
0
10
28.31054768056795
20
52.298743549372105
30
0
10
27.940167729655915
20
52.094623245310316
30
0
10
27.486549474825686
20
51.813662876199594
30
0
10
26.957790272571998
20
51.437366707189923
30
0
10
26.443695252639969
20
51.02806583587239
30
0
10
25.777755878005884
20
50.442038129074518
30
0
10
25.300258545813424
20
49.961121420254216
30
0
10
24.991826997622507
20
49.624364090322501
30
0
0
ARC
5
350
100
AcDbEntity
8
0
100
AcDbCircle
10
56.683078957752322
20
58.825698189225122
30
0
40
33.000000000000909
210
0
220
0
230
1
100
AcDbArc
50
196.19028680072691
51
199.80971319927656
0
SPLINE
5
351
100
AcDbEntity
8
0
100
AcDbSpline
70
0
71
3
72
16
73
12
74
0
42
0.000000001
43
0.0000000001
44
0.0000000001
40
-1
40
-1
40
-1
40
-1
40
-0.75
40
-0.625
40
-0.5
40
-0.375
40
-0.25
40
-0.1875
40
-0.125
40
-0.0625
40
0
40
0
40
0
40
0
10
25.635909064238795
20
47.642083317307886
30
0
10
26.083376420462201
20
47.55093242978036
30
0
10
26.752354319128052
20
47.442531109763536
30
0
10
27.635569880623745
20
47.359852421892548
30
0
10
28.292063613529304
20
47.330895422992697
30
0
10
28.94101890738385
20
47.337266248013606
30
0
10
29.473148863013634
20
47.376592457005138
30
0
10
29.892771133480839
20
47.42916044061073
30
0
10
30.202450878542429
20
47.484327657347606
30
0
10
30.507507355069453
20
47.553260958907735
30
0
10
30.706851772308848
20
47.60961172772226
30
0
10
30.801873027406046
20
47.650583917120301
30
0
0
LINE
5
352
100
AcDbEntity
8
0
100
AcDbLine
10
30.801873027406046
20
47.650583917120287
30
0
11
31.077377660447901
21
47.769378685653756
31
0
0
ARC
5
353
100
AcDbEntity
8
0
100
AcDbCircle
10
31.705947599119092
20
46.3116214760338
30
0
40
1.587500000000023
210
0
220
-0
230
1
100
AcDbArc
50
26.611848459037024
51
113.32520933172182
0
ARC
5
354
100
AcDbEntity
8
0
100
AcDbCircle
10
56.683078957752322
20
58.825698189225122
30
0
40
26.349200000000991
210
0
220
0
230
1
100
AcDbArc
50
206.61184845903992
51
207.38815154096395
0
ARC
5
355
100
AcDbEntity
8
0
100
AcDbCircle
10
31.877788770693122
20
45.974364187424328
30
0
40
1.5875000000000103
210
0
220
0
230
1
100
AcDbArc
50
-59.325209331721815
51
27.388151540964671
0
LINE
5
356
100
AcDbEntity
8
0
100
AcDbLine
10
32.687674986962953
20
44.608992235648486
30
0
11
32.429630440136265
21
44.455930118482016
31
0
0
SPLINE
5
357
100
AcDbEntity
8
0
100
AcDbSpline
70
0
71
3
72
16
73
12
74
0
42
0.000000001
43
0.0000000001
44
0.0000000001
40
0
40
0
40
0
40
0
40
0.0625
40
0.125
40
0.1875
40
0.25
40
0.375
40
0.5
40
0.625
40
0.75
40
1
40
1
40
1
40
1
10
32.429630440136265
20
44.455930118482016
30
0
10
32.340631150216005
20
44.403139156963874
30
0
10
32.177872695876843
20
44.274985421161681
30
0
10
31.942794930454834
20
44.068710213927901
30
0
10
31.716138108026701
20
43.850601109345376
30
0
10
31.426962485058802
20
43.542017464851682
30
0
10
31.082367416693117
20
43.13463252528696
30
0
10
30.695769442980922
20
42.613358022264912
30
0
10
30.333316949329294
20
42.06522566359051
30
0
10
29.881063488201075
20
41.302093610325571
30
0
10
29.575547974810124
20
40.697159850190587
30
0
10
29.386275879001534
20
40.281574007156571
30
0
0
ARC
5
358
100
AcDbEntity
8
0
100
AcDbCircle
10
56.683078957752322
20
58.825698189225122
30
0
40
33.00000000000118
210
0
220
0
230
1
100
AcDbArc
50
214.19028680072645
51
217.80971319927599
0
SPLINE
5
359
100
AcDbEntity
8
0
100
AcDbSpline
70
0
71
3
72
16
73
12
74
0
42
0.000000001
43
0.0000000001
44
0.0000000001
40
-1
40
-1
40
-1
40
-1
40
-0.75
40
-0.625
40
-0.5
40
-0.375
40
-0.25
40
-0.1875
40
-0.125
40
-0.0625
40
0
40
0
40
0
40
0
10
30.611392771969946
20
38.595345265211023
30
0
10
31.065126690235555
20
38.646930637161233
30
0
10
31.734860330114675
20
38.750560394935711
30
0
10
32.600397364793892
20
38.944856908275241
30
0
10
33.23370821214678
20
39.120184885947374
30
0
10
33.848932679951901
20
39.326782114988333
30
0
10
34.342865874866646
20
39.528620761816661
30
0
10
34.725705969282934
20
39.708286297965707
30
0
10
35.003181301284314
20
39.85644974296693
30
0
10
35.272005689462922
20
40.016276844096446
30
0
10
35.444180151255686
20
40.131470422636497
30
0
10
35.521889632281734
20
40.19980047300222
30
0
0
LINE
5
360
100
AcDbEntity
8
0
100
AcDbLine
10
35.521889632281727
20
40.19980047300222
30
0
11
35.747200506486067
21
40.397916625356707
31
0
0
ARC
5
361
100
AcDbEntity
8
0
100
AcDbCircle
10
36.79547779405172
20
39.205745925174035
30
0
40
1.5875000000000186
210
0
220
-0
230
1
100
AcDbArc
50
44.611848459037326
51
131.32520933172216
0
ARC
5
362
100
AcDbEntity
8
0
100
AcDbCircle
10
56.683078957752322
20
58.825698189225122
30
0
40
26.349200000001215
210
0
220
0
230
1
100
AcDbArc
50
224.61184845903927
51
225.38815154096324
0
ARC
5
363
100
AcDbEntity
8
0
100
AcDbCircle
10
37.063126693702117
20
38.938097025523653
30
0
40
1.5875000000000123
210
-0
220
0
230
1
100
AcDbArc
50
-41.32520933172232
51
45.388151540965765
0
LINE
5
364
100
AcDbEntity
8
0
100
AcDbLine
10
38.255297393884781
20
37.889819737958
30
0
11
38.057181241530287
21
37.664508863753674
31
0
0
SPLINE
5
365
100
AcDbEntity
8
0
100
AcDbSpline
70
0
71
3
72
16
73
12
74
0
42
0.000000001
43
0.0000000001
44
0.0000000001
40
0
40
0
40
0
40
0
40
0.0625
40
0.125
40
0.1875
40
0.25
40
0.375
40
0.5
40
0.625
40
0.75
40
1
40
1
40
1
40
1
10
38.057181241530287
20
37.664508863753674
30
0
10
37.988851191164549
20
37.586799382727712
30
0
10
37.873660384838615
20
37.414622808836441
30
0
10
37.713830688751358
20
37.145800404331574
30
0
10
37.565666660762268
20
36.868325509133697
30
0
10
37.386001890519523
20
36.485484841359806
30
0
10
37.18416137484521
20
35.99155300764351
30
0
10
36.977567532927857
20
35.37632615089791
30
0
10
36.802236940990312
20
34.743017319196419
30
0
10
36.60793911317829
20
33.877481601891681
30
0
10
36.504311405691695
20
33.207745921705133
30
0
10
36.452726033739012
20
32.754012003441993
30
0
0
ARC
5
366
100
AcDbEntity
8
0
100
AcDbCircle
10
56.683078957752322
20
58.825698189225122
30
0
40
33.00000000000135
210
0
220
0
230
1
100
AcDbArc
50
232.19028680072589
51
235.80971319927534
0
SPLINE
5
367
100
AcDbEntity
8
0
100
AcDbSpline
70
0
71
3
72
16
73
12
74
0
42
0.000000001
43
0.0000000001
44
0.0000000001
40
-1
40
-1
40
-1
40
-1
40
-0.75
40
-0.625
40
-0.5
40
-0.375
40
-0.25
40
-0.1875
40
-0.125
40
-0.0625
40
0
40
0
40
0
40
0
10
38.138954775684525
20
31.528895110473592
30
0
10
38.554540618722356
20
31.718167206279574
30
0
10
39.159471804834808
20
32.023684039122159
30
0
10
39.922605517191954
20
32.475936657203263
30
0
10
40.47074060071732
20
32.838387287411344
30
0
10
40.992011785043118
20
33.224987744246192
30
0
10
41.3993985966897
20
33.569581455866981
30
0
10
41.707981459209876
20
33.858757630078024
30
0
10
41.926091159370387
20
34.085414033031363
30
0
10
42.132369055075969
20
34.320489943490827
30
0
10
42.260519925492019
20
34.483250381688052
30
0
10
42.313310887010111
20
34.572249671608219
30
0
0
LINE
5
368
100
AcDbEntity
8
0
100
AcDbLine
10
42.313310887010118
20
34.572249671608226
30
0
11
42.466373004176596
21
34.830294218434894
31
0
0
ARC
5
369
100
AcDbEntity
8
0
100
AcDbCircle
10
43.831744955952431
20
34.020408002165084
30
0
40
1.5875000000000008
210
0
220
-0
230
1
100
AcDbArc
50
62.611848459037496
51
149.32520933172239
0
ARC
5
370
100
AcDbEntity
8
0
100
AcDbCircle
10
56.683078957752322
20
58.825698189225122
30
0
40
26.349200000001343
210
0
220
0
230
1
100
AcDbArc
50
242.61184845903847
51
243.38815154096241
0
ARC
5
371
100
AcDbEntity
8
0
100
AcDbCircle
10
44.169002244561895
20
33.848566830591061
30
0
40
1.5875000000000226
210
-0
220
0
230
1
100
AcDbArc
50
-23.32520933172146
51
63.388151540967222
0
LINE
5
372
100
AcDbEntity
8
0
100
AcDbLine
10
45.626759454181858
20
33.219996891919877
30
0
11
45.507964685648403
21
32.944492258877972
31
0
0
SPLINE
5
373
100
AcDbEntity
8
0
100
AcDbSpline
70
0
71
3
72
16
73
12
74
0
42
0.000000001
43
0.0000000001
44
0.0000000001
40
0
40
0
40
0
40
0
40
0.0625
40
0.125
40
0.1875
40
0.25
40
0.375
40
0.5
40
0.625
40
0.75
40
1
40
1
40
1
40
1
10
45.507964685648403
20
32.944492258877972
30
0
10
45.466992496250356
20
32.849471003780856
30
0
10
45.410645016642441
20
32.650125434477658
30
0
10
45.341708634141995
20
32.345070042650441
30
0
10
45.28654072797088
20
32.035390532860511
30
0
10
45.233973649962884
20
31.615767953775887
30
0
10
45.19464524295956
20
31.083638715217678
30
0
10
45.188278377507764
20
30.434682196024191
30
0
10
45.217232267223359
20
29.778189572264754
30
0
10
45.299909297866293
20
28.894974857471851
30
0
10
45.408313198309543
20
28.225995651933552
30
0
10
45.499464085835932
20
27.778528295710771
30
0
0
ARC
5
374
100
AcDbEntity
8
0
100
AcDbCircle
10
56.683078957752322
20
58.825698189225122
30
0
40
33.000000000001421
210
0
220
0
230
1
100
AcDbArc
50
250.19028680072529
51
253.80971319927477
0
SPLINE
5
375
100
AcDbEntity
8
0
100
AcDbSpline
70
0
71
3
72
16
73
12
74
0
42
0.000000001
43
0.0000000001
44
0.0000000001
40
-1
40
-1
40
-1
40
-1
40
-0.75
40
-0.625
40
-0.5
40
-0.375
40
-0.25
40
-0.1875
40
-0.125
40
-0.0625
40
0
40
0
40
0
40
0
10
47.481744858850504
20
27.134446229094525
30
0
10
47.818502188785949
20
27.442877777284977
30
0
10
48.299416041833339
20
27.920375568932457
30
0
10
48.885445587037175
20
28.58631465446922
30
0
10
49.294749625677795
20
29.100408744186378
30
0
10
49.671041871092655
20
29.629169282496548
30
0
10
49.952004439916251
20
30.082786825490906
30
0
10
50.156123829933492
20
30.453167059023144
30
0
10
50.293517801141867
20
30.73612971199961
30
0
10
50.417057286720237
20
31.023443563803017
30
0
10
50.488640265683358
20
31.217838735948007
30
0
10
50.511345160564069
20
31.318795394830726
30
0
0
LINE
5
376
100
AcDbEntity
8
0
100
AcDbLine
10
50.511345160564069
20
31.318795394830726
30
0
11
50.577175734217938
21
31.611509137984122
31
0
0
ARC
5
377
100
AcDbEntity
8
0
100
AcDbCircle
10
52.125990230458392
20
31.263184711284708
30
0
40
1.5875000000000161
210
0
220
-0
230
1
100
AcDbArc
50
80.611848459037191
51
167.32520933172222
0
ARC
5
378
100
AcDbEntity
8
0
100
AcDbCircle
10
56.683078957752322
20
58.825698189225122
30
0
40
26.349200000001353
210
0
220
0
230
1
100
AcDbArc
50
260.61184845903779
51
261.38815154096181
0
ARC
5
379
100
AcDbEntity
8
0
100
AcDbCircle
10
52.499842814808162
20
31.203972278948605
30
0
40
1.587500000000015
210
0
220
0
230
1
100
AcDbArc
50
-5.3252093317222213
51
81.388151540966206
0
LINE
5
380
100
AcDbEntity
8
0
100
AcDbLine
10
54.080491101396071
20
31.05663849427328
30
0
11
54.052646176319534
21
30.757908415429604
31
0
0
SPLINE
5
381
100
AcDbEntity
8
0
100
AcDbSpline
70
0
71
3
72
16
73
12
74
0
42
0.000000001
43
0.0000000001
44
0.0000000001
40
0
40
0
40
0
40
0
40
0.0625
40
0.125
40
0.1875
40
0.25
40
0.375
40
0.5
40
0.625
40
0.75
40
1
40
1
40
1
40
1
10
54.052646176319534
20
30.757908415429604
30
0
10
54.043042491257431
20
30.654876728762147
30
0
10
54.051054022267635
20
30.447875497292799
30
0
10
54.079758926781032
20
30.136448065341142
30
0
10
54.12298736146149
20
29.824877529041423
30
0
10
54.202663607539911
20
29.409548620369335
30
0
10
54.329697047702233
20
28.891310494401552
30
0
10
54.524180391867048
20
28.272148698405026
30
0
10
54.754584554776613
20
27.656734354654148
30
0
10
55.106143440070852
20
26.842295852375763
30
0
10
55.415967619372665
20
26.239557467176269
30
0
10
55.640932282422717
20
25.842157895509068
30
0
0
ARC
5
382
100
AcDbEntity
8
0
100
AcDbCircle
10
56.683078957752322
20
58.825698189225122
30
0
40
33.000000000001386
210
0
220
0
230
1
100
AcDbArc
50
268.19028680072478
51
271.80971319927431
0
SPLINE
5
383
100
AcDbEntity
8
0
100
AcDbSpline
70
0
71
3
72
16
73
12
74
0
42
0.000000001
43
0.0000000001
44
0.0000000001
40
-1
40
-1
40
-1
40
-1
40
-0.75
40
-0.625
40
-0.5
40
-0.375
40
-0.25
40
-0.1875
40
-0.125
40
-0.0625
40
0
40
0
40
0
40
0
10
57.725225633081401
20
25.842157895509068
30
0
10
57.950190296132817
20
26.239557467176095
30
0
10
58.260011617457053
20
26.84229540686221
30
0
10
58.611572340514506
20
27.656734202291126
30
0
10
58.841979803179278
20
28.272148640111649
30
0
10
59.036459002919521
20
28.891310494315849
30
0
10
59.163494755102448
20
29.409548623036233
30
0
10
59.243170044538473
20
29.824877518040751
30
0
10
59.286399207612718
20
30.136448065050221
30
0
10
59.315107377465218
20
30.44787557654977
30
0
10
59.323115424246652
20
30.654876728762193
30
0
10
59.313511739184662
20
30.757908415429604
30
0
0
LINE
5
384
100
AcDbEntity
8
0
100
AcDbLine
10
59.313511739184662
20
30.757908415429597
30
0
11
59.28566681410814
21
31.056638494273283
31
0
0
ARC
5
385
100
AcDbEntity
8
0
100
AcDbCircle
10
60.866315100696049
20
31.203972278948598
30
0
40
1.5875000000000132
210
0
220
0
230
1
100
AcDbArc
50
98.611848459037901
51
185.32520933172191
0
ARC
5
386
100
AcDbEntity
8
0
100
AcDbCircle
10
56.683078957752322
20
58.825698189225122
30
0
40
26.349200000001275
210
-0
220
0
230
1
100
AcDbArc
50
278.61184845903705
51
279.38815154096125
0
ARC
5
387
100
AcDbEntity
8
0
100
AcDbCircle
10
61.240167685045783
20
31.263184711284726
30
0
40
1.587500000000011
210
0
220
-0
230
1
100
AcDbArc
50
12.674790668277661
51
99.38815154096288
0
LINE
5
388
100
AcDbEntity
8
0
100
AcDbLine
10
62.788982181286237
20
31.611509137984136
30
0
11
62.854812754940085
21
31.318795394830794
31
0
0
SPLINE
5
389
100
AcDbEntity
8
0
100
AcDbSpline
70
0
71
3
72
16
73
12
74
0
42
0.000000001
43
0.0000000001
44
0.0000000001
40
0
40
0
40
0
40
0
40
0.0625
40
0.125
40
0.1875
40
0.25
40
0.375
40
0.5
40
0.625
40
0.75
40
1
40
1
40
1
40
1
10
62.854812754940085
20
31.318795394830794
30
0
10
62.87751764982076
20
31.217838735948
30
0
10
62.949103966973993
20
31.023444565111063
30
0
10
63.072640322448734
20
30.736129779916933
30
0
10
63.210033597603953
20
30.45316691204
30
0
10
63.414153901665735
20
30.082786961127908
30
0
10
63.695114270776457
20
29.629168706297691
30
0
10
64.071410439786007
20
29.10040950404403
30
0
10
64.480711311103761
20
28.586314484112016
30
0
10
65.066739017901625
20
27.92037510947798
30
0
10
65.547655726721317
20
27.442877777285382
30
0
10
65.884413056653543
20
27.134446229094568
30
0
0
ARC
5
390
100
AcDbEntity
8
0
100
AcDbCircle
10
56.683078957752322
20
58.825698189225122
30
0
40
33.000000000001236
210
-0
220
0
230
1
100
AcDbArc
50
286.19028680072427
51
289.80971319927403
0
SPLINE
5
391
100
AcDbEntity
8
0
100
AcDbSpline
70
0
71
3
72
16
73
12
74
0
42
0.000000001
43
0.0000000001
44
0.0000000001
40
-1
40
-1
40
-1
40
-1
40
-0.75
40
-0.625
40
-0.5
40
-0.375
40
-0.25
40
-0.1875
40
-0.125
40
-0.0625
40
0
40
0
40
0
40
0
10
67.866693829668264
20
27.778528295710807
30
0
10
67.957844717193694
20
28.225995651933417
30
0
10
68.066246037213432
20
28.894973550600529
30
0
10
68.148924725083859
20
29.778189112095802
30
0
10
68.177881723983546
20
30.434682845001323
30
0
10
68.171510898962538
20
31.083638138855811
30
0
10
68.132184689970856
20
31.61576809448561
30
0
10
68.079616706365428
20
32.035390364952804
30
0
10
68.024449489628509
20
32.345070110014397
30
0
10
67.955516188068202
20
32.650126586541369
30
0
10
67.899165419254004
20
32.849471003780877
30
0
10
67.858193229855772
20
32.944492258878
30
0
0
LINE
5
392
100
AcDbEntity
8
0
100
AcDbLine
10
67.858193229855772
20
32.944492258878
30
0
11
67.739398461322338
21
33.219996891919891
31
0
0
ARC
5
393
100
AcDbEntity
8
0
100
AcDbCircle
10
69.19715567094228
20
33.848566830591089
30
0
40
1.587500000000011
210
0
220
0
230
1
100
AcDbArc
50
116.61184845903831
51
203.32520933172222
0
ARC
5
394
100
AcDbEntity
8
0
100
AcDbCircle
10
56.683078957752322
20
58.825698189225122
30
0
40
26.349200000001115
210
-0
220
0
230
1
100
AcDbArc
50
296.61184845903637
51
297.38815154096079
0
ARC
5
395
100
AcDbEntity
8
0
100
AcDbCircle
10
69.534412959551759
20
34.020408002165105
30
0
40
1.5875000000000212
210
0
220
-0
230
1
100
AcDbArc
50
30.674790668277428
51
117.38815154095964
0
LINE
5
396
100
AcDbEntity
8
0
100
AcDbLine
10
70.899784911327629
20
34.830294218434929
30
0
11
71.052847028494028
21
34.57224967160829
31
0
0
SPLINE
5
397
100
AcDbEntity
8
0
100
AcDbSpline
70
0
71
3
72
16
73
12
74
0
42
0.000000001
43
0.0000000001
44
0.0000000001
40
0
40
0
40
0
40
0
40
0.0625
40
0.125
40
0.1875
40
0.25
40
0.375
40
0.5
40
0.625
40
0.75
40
1
40
1
40
1
40
1
10
71.052847028494028
20
34.57224967160829
30
0
10
71.105637990012113
20
34.483250381688144
30
0
10
71.23379172581437
20
34.320491927348833
30
0
10
71.440066933048143
20
34.085414161926899
30
0
10
71.658176037630724
20
33.85875733949873
30
0
10
71.96675968212439
20
33.569581716530827
30
0
10
72.374144621689055
20
33.224986648165199
30
0
10
72.895419124711211
20
32.838388674453014
30
0
10
73.443551483385406
20
32.475936180801284
30
0
10
74.206683536650928
20
32.023682719673289
30
0
10
74.811617296784831
20
31.718167206282079
30
0
10
75.227203139819508
20
31.52889511047362
30
0
0
ARC
5
398
100
AcDbEntity
8
0
100
AcDbCircle
10
56.683078957752322
20
58.825698189225122
30
0
40
33.000000000001009
210
-0
220
0
230
1
100
AcDbArc
50
304.19028680072381
51
307.80971319927374
0
SPLINE
5
399
100
AcDbEntity
8
0
100
AcDbSpline
70
0
71
3
72
16
73
12
74
0
42
0.000000001
43
0.0000000001
44
0.0000000001
40
-1
40
-1
40
-1
40
-1
40
-0.75
40
-0.625
40
-0.5
40
-0.375
40
-0.25
40
-0.1875
40
-0.125
40
-0.0625
40
0
40
0
40
0
40
0
10
76.913431881765263
20
32.754012003442114
30
0
10
76.861846509810078
20
33.207745921702994
30
0
10
76.758216752042884
20
33.877479561589105
30
0
10
76.563920238701414
20
34.743016596266308
30
0
10
76.388592261029061
20
35.376327443619175
30
0
10
76.181995031987697
20
35.991551911423826
30
0
10
75.980156385159376
20
36.485485106338601
30
0
10
75.800490849010458
20
36.868325200754946
30
0
10
75.652327404009213
20
37.145800532756276
30
0
10
75.492500302879677
20
37.414624920934941
30
0
10
75.377306724339633
20
37.586799382727676
30
0
10
75.308976673973916
20
37.664508863753731
30
0
0
LINE
5
400
100
AcDbEntity
8
0
100
AcDbLine
10
75.308976673973916
20
37.664508863753724
30
0
11
75.110860521619415
21
37.889819737958035
31
0
0
ARC
5
401
100
AcDbEntity
8
0
100
AcDbCircle
10
76.303031221802087
20
38.938097025523689
30
0
40
1.5875000000000123
210
0
220
0
230
1
100
AcDbArc
50
134.61184845903864
51
221.32520933172214
0
ARC
5
402
100
AcDbEntity
8
0
100
AcDbCircle
10
56.683078957752322
20
58.825698189225122
30
0
40
26.349200000000881
210
-0
220
0
230
1
100
AcDbArc
50
314.61184845903591
51
315.38815154096045
0
ARC
5
403
100
AcDbEntity
8
0
100
AcDbCircle
10
76.570680121452483
20
39.205745925174085
30
0
40
1.5875000000000108
210
0
220
-0
230
1
100
AcDbArc
50
48.674790668277126
51
135.38815154095687
0
LINE
5
404
100
AcDbEntity
8
0
100
AcDbLine
10
77.618957409018151
20
40.397916625356743
30
0
11
77.844268283222405
21
40.199800473002291
31
0
0
SPLINE
5
405
100
AcDbEntity
8
0
100
AcDbSpline
70
0
71
3
72
16
73
12
74
0
42
0.000000001
43
0.0000000001
44
0.0000000001
40
0
40
0
40
0
40
0
40
0.0625
40
0.125
40
0.1875
40
0.25
40
0.375
40
0.5
40
0.625
40
0.75
40
1
40
1
40
1
40
1
10
77.844268283222405
20
40.199800473002291
30
0
10
77.921977764248311
20
40.131470422636554
30
0
10
78.094154338139631
20
40.016279616310591
30
0
10
78.362976742644605
20
39.85644992022339
30
0
10
78.64045163784229
20
39.708285892234244
30
0
10
79.023292305616309
20
39.528621121991556
30
0
10
79.517224139332512
20
39.326780606317215
30
0
10
80.132450996078063
20
39.12018676439989
30
0
10
80.765759827779675
20
38.944856172462273
30
0
10
81.631295545084356
20
38.750558344650536
30
0
10
82.301031225270719
20
38.646930637163102
30
0
10
82.754765143534144
20
38.59534526521108
30
0
0
ARC
5
406
100
AcDbEntity
8
0
100
AcDbCircle
10
56.683078957752322
20
58.825698189225122
30
0
40
33.000000000000746
210
-0
220
0
230
1
100
AcDbArc
50
322.19028680072347
51
325.80971319927352
0
SPLINE
5
407
100
AcDbEntity
8
0
100
AcDbSpline
70
0
71
3
72
16
73
12
74
0
42
0.000000001
43
0.0000000001
44
0.0000000001
40
-1
40
-1
40
-1
40
-1
40
-0.75
40
-0.625
40
-0.5
40
-0.375
40
-0.25
40
-0.1875
40
-0.125
40
-0.0625
40
0
40
0
40
0
40
0
10
83.979882036502772
20
40.281574007156806
30
0
10
83.790609940691482
20
40.697159850186367
30
0
10
83.485093107857296
20
41.302091036310948
30
0
10
83.03284048977315
20
42.065224748664569
30
0
10
82.670389859565347
20
42.613359832189737
30
0
10
82.283789402729951
20
43.134631016514938
30
0
10
81.939195691109177
20
43.542017828161768
30
0
10
81.650019516898226
20
43.850600690681759
30
0
10
81.423363113944788
20
44.068710390842355
30
0
10
81.188287203485245
20
44.274988286547938
30
0
10
81.025526765288419
20
44.403139156963924
30
0
10
80.936527475367939
20
44.455930118482073
30
0
0
LINE
5
408
100
AcDbEntity
8
0
100
AcDbLine
10
80.936527475367939
20
44.455930118482087
30
0
11
80.678482928541285
21
44.608992235648543
31
0
0
ARC
5
409
100
AcDbEntity
8
0
100
AcDbCircle
10
81.488369144811116
20
45.974364187424392
30
0
40
1.5875000000000323
210
0
220
0
230
1
100
AcDbArc
50
152.61184845903807
51
239.32520933172196
0
ARC
5
410
100
AcDbEntity
8
0
100
AcDbCircle
10
56.683078957752322
20
58.825698189225122
30
0
40
26.3492000000006
210
-0
220
0
230
1
100
AcDbArc
50
332.61184845903551
51
333.38815154096017
0
ARC
5
411
100
AcDbEntity
8
0
100
AcDbCircle
10
81.660210316385133
20
46.311621476033871
30
0
40
1.5875000000000139
210
0
220
-0
230
1
100
AcDbArc
50
66.674790668276955
51
153.38815154095747
0
LINE
5
412
100
AcDbEntity
8
0
100
AcDbLine
10
82.288780255056352
20
47.769378685653805
30
0
11
82.5642848880982
21
47.65058391712035
31
0
0
SPLINE
5
413
100
AcDbEntity
8
0
100
AcDbSpline
70
0
71
3
72
16
73
12
74
0
42
0.000000001
43
0.0000000001
44
0.0000000001
40
0
40
0
40
0
40
0
40
0.0625
40
0.125
40
0.1875
40
0.25
40
0.375
40
0.5
40
0.625
40
0.75
40
1
40
1
40
1
40
1
10
82.5642848880982
20
47.65058391712035
30
0
10
82.659306143195607
20
47.609611727722296
30
0
10
82.8586517124984
20
47.553264248114431
30
0
10
83.163707104325809
20
47.484327865613892
30
0
10
83.473386614115682
20
47.429159959442863
30
0
10
83.893009193200285
20
47.376592881434831
30
0
10
84.425138431758384
20
47.337264474431436
30
0
10
85.074094950952244
20
47.330897608979953
30
0
10
85.730587574711251
20
47.3598514986951
30
0
10
86.613802289504264
20
47.442528529338517
30
0
10
87.282781495042698
20
47.55093242978073
30
0
10
87.730248851265458
20
47.642083317307922
30
0
0
ARC
5
414
100
AcDbEntity
8
0
100
AcDbCircle
10
56.683078957752322
20
58.825698189225122
30
0
40
33.000000000000547
210
-0
220
0
230
1
100
AcDbArc
50
340.19028680072319
51
343.80971319927329
0
SPLINE
5
415
100
AcDbEntity
8
0
100
AcDbSpline
70
0
71
3
72
16
73
12
74
0
42
0.000000001
43
0.0000000001
44
0.0000000001
40
-1
40
-1
40
-1
40
-1
40
-0.75
40
-0.625
40
-0.5
40
-0.375
40
-0.25
40
-0.1875
40
-0.125
40
-0.0625
40
0
40
0
40
0
40
0
10
88.374330917881835
20
49.624364090322729
30
0
10
88.065899369689348
20
49.961121420249988
30
0
10
87.58840157804498
20
50.442035273309344
30
0
10
86.922462492507179
20
51.02806481850984
30
0
10
86.408368402789861
20
51.437368857150176
30
0
10
85.879607864479809
20
51.813661102564403
30
0
10
85.42599032148533
20
52.094623671388206
30
0
10
85.055610087953141
20
52.298743061405432
30
0
10
84.772647434976633
20
52.436137032613772
30
0
10
84.485333583173286
20
52.559676518192191
30
0
10
84.29093841102798
20
52.63125949715517
30
0
10
84.189981752145556
20
52.653964392035959
30
0
0
LINE
5
416
100
AcDbEntity
8
0
100
AcDbLine
10
84.189981752145556
20
52.653964392035959
30
0
11
83.8972680089921
21
52.719794965689871
31
0
0
ARC
5
417
100
AcDbEntity
8
0
100
AcDbCircle
10
84.24559243569152
20
54.268609461930339
30
0
40
1.5875000000000279
210
0
220
0
230
1
100
AcDbArc
50
170.61184845903543
51
257.32520933172208
0
ARC
5
418
100
AcDbEntity
8
0
100
AcDbCircle
10
56.683078957752322
20
58.825698189225122
30
0
40
26.349200000000288
210
-0
220
0
230
1
100
AcDbArc
50
350.61184845903563
51
351.38815154095988
0
ARC
5
419
100
AcDbEntity
8
0
100
AcDbCircle
10
84.304804868027617
20
54.642462046280073
30
0
40
1.5875000000000079
210
0
220
-0
230
1
100
AcDbArc
50
84.674790668277183
51
171.3881515409596
0
LINE
5
420
100
AcDbEntity
8
0
100
AcDbLine
10
84.452138652702956
20
56.223110332867975
30
0
11
84.750868731546646
21
56.195265407791446
31
0
0
CIRCLE
5
421
100
AcDbEntity
8
0
100
AcDbCircle
10
56.683078957752322
20
58.825698189225122
30
0
40
4.0000000000002469
210
-0
220
0
230
1
0
ENDSEC
0
SECTION
2
OBJECTS
0
DICTIONARY
5
C
100
AcDbDictionary
3
ACAD_GROUP
350
D
3
ACAD_MLINESTYLE
350
17
0
DICTIONARY
5
D
100
AcDbDictionary
0
DICTIONARY
5
1A
330
C
100
AcDbDictionary
0
DICTIONARY
5
17
100
AcDbDictionary
0
ENDSEC
0
EOF
