  0
SECTION
  2
HEADER
  9
$ACADVER
  1
AC1015
  9
$ACADMAINTVER
 70
     6
  9
$DWGCODEPAGE
  3
ANSI_1252
  9
$INSBASE
 10
0.0
 20
0.0
 30
0.0
  9
$EXTMIN
 10
-89.6830789578
 20
-91.8256981892
 30
0.0
  9
$EXTMAX
 10
11.3460235949
 20
11.393664816
 30
0.0
  9
$LIMMIN
 10
0.0
 20
0.0
  9
$LIMMAX
 10
420.0
 20
297.0
  9
$ORTHOMODE
 70
     0
  9
$REGENMODE
 70
     1
  9
$FILLMODE
 70
     1
  9
$QTEXTMODE
 70
     0
  9
$MIRRTEXT
 70
     1
  9
$LTSCALE
 40
1.0
  9
$ATTMODE
 70
     1
  9
$TEXTSIZE
 40
3.5
  9
$TRACEWID
 40
1.0
  9
$TEXTSTYLE
  7
Standard
  9
$CLAYER
  8
0
  9
$CELTYPE
  6
ByLayer
  9
$CECOLOR
 62
   256
  9
$CELTSCALE
 40
1.0
  9
$DISPSILH
 70
     0
  9
$DIMSCALE
 40
1.0
  9
$DIMASZ
 40
3.302
  9
$DIMEXO
 40
0.0
  9
$DIMDLI
 40
3.75
  9
$DIMRND
 40
0.0
  9
$DIMDLE
 40
0.0
  9
$DIMEXE
 40
1.0
  9
$DIMTP
 40
0.0
  9
$DIMTM
 40
0.0
  9
$DIMTXT
 40
3.5
  9
$DIMCEN
 40
2.5
  9
$DIMTSZ
 40
0.0
  9
$DIMTOL
 70
     0
  9
$DIMLIM
 70
     0
  9
$DIMTIH
 70
     1
  9
$DIMTOH
 70
     1
  9
$DIMSE1
 70
     0
  9
$DIMSE2
 70
     0
  9
$DIMTAD
 70
     1
  9
$DIMZIN
 70
     1
  9
$DIMBLK
  1

  9
$DIMASO
 70
     1
  9
$DIMSHO
 70
     1
  9
$DIMPOST
  1

  9
$DIMAPOST
  1

  9
$DIMALT
 70
     0
  9
$DIMALTD
 70
     3
  9
$DIMALTF
 40
0.0393700787
  9
$DIMLFAC
 40
1.0
  9
$DIMTOFL
 70
     1
  9
$DIMTVP
 40
0.0
  9
$DIMTIX
 70
     0
  9
$DIMSOXD
 70
     0
  9
$DIMSAH
 70
     0
  9
$DIMBLK1
  1

  9
$DIMBLK2
  1

  9
$DIMSTYLE
  2
ISO-25
  9
$DIMCLRD
 70
     0
  9
$DIMCLRE
 70
     0
  9
$DIMCLRT
 70
     0
  9
$DIMTFAC
 40
1.0
  9
$DIMGAP
 40
1.524
  9
$DIMJUST
 70
     0
  9
$DIMSD1
 70
     0
  9
$DIMSD2
 70
     0
  9
$DIMTOLJ
 70
     0
  9
$DIMTZIN
 70
     1
  9
$DIMALTZ
 70
     0
  9
$DIMALTTZ
 70
     0
  9
$DIMUPT
 70
     0
  9
$DIMDEC
 70
     2
  9
$DIMTDEC
 70
     2
  9
$DIMALTU
 70
     2
  9
$DIMALTTD
 70
     3
  9
$DIMTXSTY
  7
Standard
  9
$DIMAUNIT
 70
     0
  9
$DIMADEC
 70
     2
  9
$DIMALTRND
 40
0.0
  9
$DIMAZIN
 70
     0
  9
$DIMDSEP
 70
    44
  9
$DIMATFIT
 70
     3
  9
$DIMFRAC
 70
     0
  9
$DIMLDRBLK
  1

  9
$DIMLUNIT
 70
     2
  9
$DIMLWD
 70
    -2
  9
$DIMLWE
 70
    -2
  9
$DIMTMOVE
 70
     0
  9
$LUNITS
 70
     2
  9
$LUPREC
 70
     2
  9
$SKETCHINC
 40
1.0
  9
$FILLETRAD
 40
0.0
  9
$AUNITS
 70
     0
  9
$AUPREC
 70
     2
  9
$MENU
  1
.
  9
$ELEVATION
 40
0.0
  9
$PELEVATION
 40
0.0
  9
$THICKNESS
 40
0.0
  9
$LIMCHECK
 70
     0
  9
$CHAMFERA
 40
0.0
  9
$CHAMFERB
 40
0.0
  9
$CHAMFERC
 40
0.0
  9
$CHAMFERD
 40
0.0
  9
$SKPOLY
 70
     0
  9
$TDCREATE
 40
2460455.699342037
  9
$TDUCREATE
 40
2460455.657675371
  9
$TDUPDATE
 40
2460455.699367396
  9
$TDUUPDATE
 40
2460455.657700729
  9
$TDINDWG
 40
0.0000000116
  9
$TDUSRTIMER
 40
0.0000000116
  9
$USRTIMER
 70
     1
  9
$ANGBASE
 50
0.0
  9
$ANGDIR
 70
     0
  9
$PDMODE
 70
     0
  9
$PDSIZE
 40
-1.0
  9
$PLINEWID
 40
0.0
  9
$SPLFRAME
 70
     0
  9
$SPLINETYPE
 70
     6
  9
$SPLINESEGS
 70
     8
  9
$HANDSEED
  5
181
  9
$SURFTAB1
 70
     6
  9
$SURFTAB2
 70
     6
  9
$SURFTYPE
 70
     6
  9
$SURFU
 70
     6
  9
$SURFV
 70
     6
  9
$UCSBASE
  2

  9
$UCSNAME
  2

  9
$UCSORG
 10
0.0
 20
0.0
 30
0.0
  9
$UCSXDIR
 10
1.0
 20
0.0
 30
0.0
  9
$UCSYDIR
 10
0.0
 20
1.0
 30
0.0
  9
$UCSORTHOREF
  2

  9
$UCSORTHOVIEW
 70
     0
  9
$UCSORGTOP
 10
0.0
 20
0.0
 30
0.0
  9
$UCSORGBOTTOM
 10
0.0
 20
0.0
 30
0.0
  9
$UCSORGLEFT
 10
0.0
 20
0.0
 30
0.0
  9
$UCSORGRIGHT
 10
0.0
 20
0.0
 30
0.0
  9
$UCSORGFRONT
 10
0.0
 20
0.0
 30
0.0
  9
$UCSORGBACK
 10
0.0
 20
0.0
 30
0.0
  9
$PUCSBASE
  2

  9
$PUCSNAME
  2

  9
$PUCSORG
 10
0.0
 20
0.0
 30
0.0
  9
$PUCSXDIR
 10
1.0
 20
0.0
 30
0.0
  9
$PUCSYDIR
 10
0.0
 20
1.0
 30
0.0
  9
$PUCSORTHOREF
  2

  9
$PUCSORTHOVIEW
 70
     0
  9
$PUCSORGTOP
 10
0.0
 20
0.0
 30
0.0
  9
$PUCSORGBOTTOM
 10
0.0
 20
0.0
 30
0.0
  9
$PUCSORGLEFT
 10
0.0
 20
0.0
 30
0.0
  9
$PUCSORGRIGHT
 10
0.0
 20
0.0
 30
0.0
  9
$PUCSORGFRONT
 10
0.0
 20
0.0
 30
0.0
  9
$PUCSORGBACK
 10
0.0
 20
0.0
 30
0.0
  9
$USERI1
 70
     0
  9
$USERI2
 70
     0
  9
$USERI3
 70
     0
  9
$USERI4
 70
     0
  9
$USERI5
 70
     0
  9
$USERR1
 40
0.0
  9
$USERR2
 40
0.0
  9
$USERR3
 40
0.0
  9
$USERR4
 40
0.0
  9
$USERR5
 40
0.0
  9
$WORLDVIEW
 70
     1
  9
$SHADEDGE
 70
     3
  9
$SHADEDIF
 70
    70
  9
$TILEMODE
 70
     1
  9
$MAXACTVP
 70
    64
  9
$PINSBASE
 10
0.0
 20
0.0
 30
0.0
  9
$PLIMCHECK
 70
     0
  9
$PEXTMIN
 10
1.0000000000E+20
 20
1.0000000000E+20
 30
1.0000000000E+20
  9
$PEXTMAX
 10
-1.0000000000E+20
 20
-1.0000000000E+20
 30
-1.0000000000E+20
  9
$PLIMMIN
 10
0.0
 20
0.0
  9
$PLIMMAX
 10
420.0
 20
297.0
  9
$UNITMODE
 70
     0
  9
$VISRETAIN
 70
     1
  9
$PLINEGEN
 70
     0
  9
$PSLTSCALE
 70
     1
  9
$TREEDEPTH
 70
  3020
  9
$CMLSTYLE
  2
Standard
  9
$CMLJUST
 70
     0
  9
$CMLSCALE
 40
20.0
  9
$PROXYGRAPHICS
 70
     1
  9
$MEASUREMENT
 70
     1
  9
$CELWEIGHT
370
    -1
  9
$ENDCAPS
280
     0
  9
$JOINSTYLE
280
     0
  9
$LWDISPLAY
290
     1
  9
$INSUNITS
 70
     4
  9
$HYPERLINKBASE
  1

  9
$STYLESHEET
  1

  9
$XEDIT
290
     1
  9
$CEPSNTYPE
380
     0
  9
$PSTYLEMODE
290
     1
  9
$FINGERPRINTGUID
  2
{64957c95-2c1b-4d7a-8b08-fdb2c5aa71f4}
  9
$VERSIONGUID
  2
{FAEB1C32-E019-11D5-929B-00C0DF256EC4}
  9
$EXTNAMES
290
     1
  9
$PSVPSCALE
 40
0.0
  9
$OLESTARTUP
290
     0
  0
ENDSEC
  0
SECTION
  2
CLASSES
  0
CLASS
  1
ACDBDICTIONARYWDFLT
  2
AcDbDictionaryWithDefault
  3
ObjectDBX Classes
 90
        0
280
     0
281
     0
  0
CLASS
  1
VISUALSTYLE
  2
AcDbVisualStyle
  3
ObjectDBX Classes
 90
     4095
280
     0
281
     0
  0
CLASS
  1
MATERIAL
  2
AcDbMaterial
  3
ObjectDBX Classes
 90
     1153
280
     0
281
     0
  0
CLASS
  1
SCALE
  2
AcDbScale
  3
ObjectDBX Classes
 90
     1153
280
     0
281
     0
  0
CLASS
  1
TABLESTYLE
  2
AcDbTableStyle
  3
ObjectDBX Classes
 90
     4095
280
     0
281
     0
  0
CLASS
  1
MLEADERSTYLE
  2
AcDbMLeaderStyle
  3
ACDB_MLEADERSTYLE_CLASS
 90
     4095
280
     0
281
     0
  0
CLASS
  1
SUN
  2
AcDbSun
  3
SCENEOE
 90
     1153
280
     0
281
     0
  0
CLASS
  1
ACDBPLACEHOLDER
  2
AcDbPlaceHolder
  3
ObjectDBX Classes
 90
        0
280
     0
281
     0
  0
CLASS
  1
LAYOUT
  2
AcDbLayout
  3
ObjectDBX Classes
 90
        0
280
     0
281
     0
  0
ENDSEC
  0
SECTION
  2
TABLES
  0
TABLE
  2
VPORT
  5
8
330
0
100
AcDbSymbolTable
 70
     1
  0
VPORT
  5
29
330
8
100
AcDbSymbolTableRecord
100
AcDbViewportTableRecord
  2
*Active
 70
     0
 10
0.0
 20
0.0
 11
1.0
 21
1.0
 12
-39.1685276814
 22
-40.2160166866
 13
0.0
 23
0.0
 14
10.0
 24
10.0
 15
10.0
 25
10.0
 16
0.0
 26
0.0
 36
1.0
 17
0.0
 27
0.0
 37
0.0
 40
105.2837502653
 41
0.9787805273
 42
50.0
 43
0.0
 44
0.0
 50
0.0
 51
0.0
 71
     0
 72
   100
 73
     1
 74
     3
 75
     0
 76
     0
 77
     0
 78
     0
281
     0
 65
     1
110
0.0
120
0.0
130
0.0
111
1.0
121
0.0
131
0.0
112
0.0
122
1.0
132
0.0
 79
     0
146
0.0
  0
ENDTAB
  0
TABLE
  2
LTYPE
  5
5
330
0
100
AcDbSymbolTable
 70
     6
  0
LTYPE
  5
14
330
5
100
AcDbSymbolTableRecord
100
AcDbLinetypeTableRecord
  2
ByBlock
 70
     0
  3

 72
    65
 73
     0
 40
0.0
  0
LTYPE
  5
15
330
5
100
AcDbSymbolTableRecord
100
AcDbLinetypeTableRecord
  2
ByLayer
 70
     0
  3

 72
    65
 73
     0
 40
0.0
  0
LTYPE
  5
16
330
5
100
AcDbSymbolTableRecord
100
AcDbLinetypeTableRecord
  2
Continuous
 70
     0
  3
Solid line
 72
    65
 73
     0
 40
0.0
  0
LTYPE
  5
5E
330
5
100
AcDbSymbolTableRecord
100
AcDbLinetypeTableRecord
  2
HIDDEN
 70
     0
  3
Hidden __ __ __ __ __ __ __ __ __ __ __ __ __ __
 72
    65
 73
     2
 40
1.905
 49
1.27
 74
     0
 49
-0.635
 74
     0
  0
LTYPE
  5
5F
330
5
100
AcDbSymbolTableRecord
100
AcDbLinetypeTableRecord
  2
PHANTOM
 70
     0
  3
Phantom ______  __  __  ______  __  __  ______
 72
    65
 73
     6
 40
12.7
 49
6.35
 74
     0
 49
-1.27
 74
     0
 49
1.27
 74
     0
 49
-1.27
 74
     0
 49
1.27
 74
     0
 49
-1.27
 74
     0
  0
LTYPE
  5
60
330
5
100
AcDbSymbolTableRecord
100
AcDbLinetypeTableRecord
  2
CENTER
 70
     0
  3
Center ____ _ ____ _ ____ _ ____ _ ____ _ ____
 72
    65
 73
     4
 40
10.16
 49
6.35
 74
     0
 49
-1.27
 74
     0
 49
1.27
 74
     0
 49
-1.27
 74
     0
  0
LTYPE
  5
61
330
5
100
AcDbSymbolTableRecord
100
AcDbLinetypeTableRecord
  2
CENTERX2
 70
     0
  3
Center (2x) ________  __  ________  __  _____
 72
    65
 73
     4
 40
20.32
 49
12.7
 74
     0
 49
-2.54
 74
     0
 49
2.54
 74
     0
 49
-2.54
 74
     0
  0
LTYPE
  5
62
330
5
100
AcDbSymbolTableRecord
100
AcDbLinetypeTableRecord
  2
DOT2
 70
     0
  3
Dot (.5x) ........................................
 72
    65
 73
     2
 40
0.635
 49
0.0
 74
     0
 49
-0.635
 74
     0
  0
ENDTAB
  0
TABLE
  2
LAYER
  5
2
330
0
100
AcDbSymbolTable
 70
     1
  0
LAYER
  5
10
330
2
100
AcDbSymbolTableRecord
100
AcDbLayerTableRecord
  2
0
 70
     0
 62
     7
  6
Continuous
370
    -3
390
F
  0
ENDTAB
  0
TABLE
  2
STYLE
  5
3
330
0
100
AcDbSymbolTable
 70
     2
  0
STYLE
  5
11
330
3
100
AcDbSymbolTableRecord
100
AcDbTextStyleTableRecord
  2
Standard
 70
     0
 40
0.0
 41
1.0
 50
0.0
 71
     0
 42
3.5
  3
txt
  4

  0
STYLE
  5
17D
330
3
100
AcDbSymbolTableRecord
100
AcDbTextStyleTableRecord
  2
SLDTEXTSTYLE0
 70
     0
 40
0.0
 41
0.7
 50
0.0
 71
     0
 42
3.5
  3
TXT
  4

  0
ENDTAB
  0
TABLE
  2
VIEW
  5
6
330
0
100
AcDbSymbolTable
 70
     0
  0
ENDTAB
  0
TABLE
  2
UCS
  5
7
330
0
100
AcDbSymbolTable
 70
     0
  0
ENDTAB
  0
TABLE
  2
APPID
  5
9
330
0
100
AcDbSymbolTable
 70
     1
  0
APPID
  5
12
330
9
100
AcDbSymbolTableRecord
100
AcDbRegAppTableRecord
  2
ACAD
 70
     0
  0
ENDTAB
  0
TABLE
  2
DIMSTYLE
  5
A
330
0
100
AcDbSymbolTable
 70
     1
100
AcDbDimStyleTable
  0
DIMSTYLE
105
27
330
A
100
AcDbSymbolTableRecord
100
AcDbDimStyleTableRecord
  2
ISO-25
 70
     0
 41
2.5
 42
0.625
 43
3.75
 44
1.25
 73
     0
 74
     0
 77
     1
 78
     8
140
2.5
141
2.5
143
0.0393700787
147
0.625
171
     3
172
     1
178
     0
271
     2
272
     2
274
     3
278
    44
283
     0
284
     8
340
11
  0
ENDTAB
  0
TABLE
  2
BLOCK_RECORD
  5
1
330
0
100
AcDbSymbolTable
 70
     1
  0
BLOCK_RECORD
  5
1F
330
1
100
AcDbSymbolTableRecord
100
AcDbBlockTableRecord
  2
*Model_Space
340
22
  0
BLOCK_RECORD
  5
1B
330
1
100
AcDbSymbolTableRecord
100
AcDbBlockTableRecord
  2
*Paper_Space
340
1E
  0
BLOCK_RECORD
  5
23
330
1
100
AcDbSymbolTableRecord
100
AcDbBlockTableRecord
  2
*Paper_Space0
340
26
  0
ENDTAB
  0
ENDSEC
  0
SECTION
  2
BLOCKS
  0
BLOCK
  5
20
330
1F
100
AcDbEntity
  8
0
100
AcDbBlockBegin
  2
*Model_Space
 70
     0
 10
0.0
 20
0.0
 30
0.0
  3
*Model_Space
  1

  0
ENDBLK
  5
21
330
1F
100
AcDbEntity
  8
0
100
AcDbBlockEnd
  0
BLOCK
  5
1C
330
1B
100
AcDbEntity
 67
     1
  8
0
100
AcDbBlockBegin
  2
*Paper_Space
 70
     0
 10
0.0
 20
0.0
 30
0.0
  3
*Paper_Space
  1

  0
ENDBLK
  5
1D
330
1B
100
AcDbEntity
 67
     1
  8
0
100
AcDbBlockEnd
  0
BLOCK
  5
24
330
23
100
AcDbEntity
  8
0
100
AcDbBlockBegin
  2
*Paper_Space0
 70
     0
 10
0.0
 20
0.0
 30
0.0
  3
*Paper_Space0
  1

  0
ENDBLK
  5
25
330
23
100
AcDbEntity
  8
0
100
AcDbBlockEnd
  0
ENDSEC
  0
SECTION
  2
ENTITIES
  0
SPLINE
  5
63
330
1F
100
AcDbEntity
  8
0
  6
Continuous
 62
     7
370
    25
100
AcDbSpline
210
0.0
220
0.0
230
1.0
 70
     8
 71
     3
 72
     8
 73
     4
 74
     0
 42
0.00000001
 43
0.00000001
 40
0.0
 40
0.0
 40
0.0
 40
0.0
 40
1.0
 40
1.0
 40
1.0
 40
1.0
 10
-84.75086873154663
 20
-56.19526540779145
 30
0.0
 10
-86.39937571822558
 20
-56.04160644679883
 30
0.0
 10
-88.07702096479579
 20
-56.88369286169605
 30
0.0
 10
-89.66661925146721
 20
-57.78355151389463
 30
0.0
  0
ARC
  5
64
330
1F
100
AcDbEntity
  8
0
  6
Continuous
 62
     7
370
    25
100
AcDbCircle
 10
-56.6830789578
 20
-58.8256981892
 30
0.0
 40
33.00000000000021
100
AcDbArc
 50
178.1902868007
 51
181.8097131993
  0
SPLINE
  5
65
330
1F
100
AcDbEntity
  8
0
  6
Continuous
 62
     7
370
    25
100
AcDbSpline
210
0.0
220
0.0
230
1.0
 70
     8
 71
     3
 72
     8
 73
     4
 74
     0
 42
0.00000001
 43
0.00000001
 40
0.0
 40
0.0
 40
0.0
 40
0.0
 40
1.0
 40
1.0
 40
1.0
 40
1.0
 10
-89.66661925146721
 20
-59.86784486455338
 30
0.0
 10
-88.07702096479407
 20
-60.76770351675199
 30
0.0
 10
-86.39937571822558
 20
-61.60978993164904
 30
0.0
 10
-84.75086873154663
 20
-61.45613097065656
 30
0.0
  0
LINE
  5
66
330
1F
100
AcDbEntity
  8
0
  6
Continuous
 62
     7
370
    25
100
AcDbLine
 10
-84.7508687315
 20
-61.4561309707
 30
0.0
 11
-84.4521386527
 21
-61.4282860456
 31
0.0
  0
ARC
  5
67
330
1F
100
AcDbEntity
  8
0
  6
Continuous
 62
     7
370
    25
100
AcDbCircle
 10
-84.304804868
 20
-63.0089343322
 30
0.0
 40
1.587500000000033
100
AcDbArc
 50
8.611848459
 51
95.3252093317
  0
ARC
  5
68
330
1F
100
AcDbEntity
  8
0
  6
Continuous
 62
     7
370
    25
100
AcDbCircle
 10
-56.6830789578
 20
-58.8256981892
 30
0.0
 40
26.34919999999993
100
AcDbArc
 50
188.611848459
 51
189.388151541
  0
ARC
  5
69
330
1F
100
AcDbEntity
  8
0
  6
Continuous
 62
     7
370
    25
100
AcDbCircle
 10
-84.2455924357
 20
-63.3827869165
 30
0.0
 40
1.587500000000006
100
AcDbArc
 50
282.6747906683
 51
9.388151541
  0
LINE
  5
6A
330
1F
100
AcDbEntity
  8
0
  6
Continuous
 62
     7
370
    25
100
AcDbLine
 10
-83.897268009
 20
-64.9316014128
 30
0.0
 11
-84.1899817521
 21
-64.9974319864
 31
0.0
  0
SPLINE
  5
6B
330
1F
100
AcDbEntity
  8
0
  6
Continuous
 62
     7
370
    25
100
AcDbSpline
210
0.0
220
0.0
230
1.0
 70
     8
 71
     3
 72
     8
 73
     4
 74
     0
 42
0.00000001
 43
0.00000001
 40
0.0
 40
0.0
 40
0.0
 40
0.0
 40
1.0
 40
1.0
 40
1.0
 40
1.0
 10
-84.18998175214548
 20
-64.997431986412
 30
0.0
 10
-85.80528829426976
 20
-65.36071030450255
 30
0.0
 10
-87.14060472512087
 20
-66.68000296839938
 30
0.0
 10
-88.37433091788171
 20
-68.02703228812543
 30
0.0
  0
ARC
  5
6C
330
1F
100
AcDbEntity
  8
0
  6
Continuous
 62
     7
370
    25
100
AcDbCircle
 10
-56.6830789578
 20
-58.8256981892
 30
0.0
 40
32.99999999999983
100
AcDbArc
 50
196.1902868007
 51
199.8097131993
  0
SPLINE
  5
6D
330
1F
100
AcDbEntity
  8
0
  6
Continuous
 62
     7
370
    25
100
AcDbSpline
210
0.0
220
0.0
230
1.0
 70
     8
 71
     3
 72
     8
 73
     4
 74
     0
 42
0.00000001
 43
0.00000001
 40
0.0
 40
0.0
 40
0.0
 40
0.0
 40
1.0
 40
1.0
 40
1.0
 40
1.0
 10
-87.73024885126547
 20
-70.00931306114003
 30
0.0
 10
-85.94037942637566
 20
-70.37391661125308
 30
0.0
 10
-84.0846249696526
 20
-70.65636749169707
 30
0.0
 10
-82.56428488809824
 20
-70.00081246132763
 30
0.0
  0
LINE
  5
6E
330
1F
100
AcDbEntity
  8
0
  6
Continuous
 62
     7
370
    25
100
AcDbLine
 10
-82.5642848881
 20
-70.0008124613
 30
0.0
 11
-82.2887802551
 21
-69.8820176928
 31
0.0
  0
ARC
  5
6F
330
1F
100
AcDbEntity
  8
0
  6
Continuous
 62
     7
370
    25
100
AcDbCircle
 10
-81.6602103164
 20
-71.3397749024
 30
0.0
 40
1.58750000000003
100
AcDbArc
 50
26.611848459
 51
113.3252093317
  0
ARC
  5
70
330
1F
100
AcDbEntity
  8
0
  6
Continuous
 62
     7
370
    25
100
AcDbCircle
 10
-56.6830789578
 20
-58.8256981892
 30
0.0
 40
26.3491999999996
100
AcDbArc
 50
206.611848459
 51
207.388151541
  0
ARC
  5
71
330
1F
100
AcDbEntity
  8
0
  6
Continuous
 62
     7
370
    25
100
AcDbCircle
 10
-81.4883691448
 20
-71.677032191
 30
0.0
 40
1.587500000000005
100
AcDbArc
 50
300.6747906683
 51
27.388151541
  0
LINE
  5
72
330
1F
100
AcDbEntity
  8
0
  6
Continuous
 62
     7
370
    25
100
AcDbLine
 10
-80.6784829285
 20
-73.0424041428
 30
0.0
 11
-80.9365274754
 21
-73.19546626
 31
0.0
  0
SPLINE
  5
73
330
1F
100
AcDbEntity
  8
0
  6
Continuous
 62
     7
370
    25
100
AcDbSpline
210
0.0
220
0.0
230
1.0
 70
     8
 71
     3
 72
     8
 73
     4
 74
     0
 42
0.00000001
 43
0.00000001
 40
0.0
 40
0.0
 40
0.0
 40
0.0
 40
1.0
 40
1.0
 40
1.0
 40
1.0
 10
-80.93652747536798
 20
-73.19546625996591
 30
0.0
 10
-82.36051611409204
 20
-74.04012164425431
 30
0.0
 10
-83.22279365326663
 20
-75.7074789991551
 30
0.0
 10
-83.97988203650273
 20
-77.36982237129135
 30
0.0
  0
ARC
  5
74
330
1F
100
AcDbEntity
  8
0
  6
Continuous
 62
     7
370
    25
100
AcDbCircle
 10
-56.6830789578
 20
-58.8256981892
 30
0.0
 40
32.99999999999954
100
AcDbArc
 50
214.1902868007
 51
217.8097131993
  0
SPLINE
  5
75
330
1F
100
AcDbEntity
  8
0
  6
Continuous
 62
     7
370
    25
100
AcDbSpline
210
0.0
220
0.0
230
1.0
 70
     8
 71
     3
 72
     8
 73
     4
 74
     0
 42
0.00000001
 43
0.00000001
 40
0.0
 40
0.0
 40
0.0
 40
0.0
 40
1.0
 40
1.0
 40
1.0
 40
1.0
 10
-82.75476514353431
 20
-79.05605111323689
 30
0.0
 10
-80.93982947046881
 20
-78.84970962543807
 30
0.0
 10
-79.08761997963686
 20
-78.54487671129722
 30
0.0
 10
-77.8442682832225
 20
-77.45159590544571
 30
0.0
  0
LINE
  5
76
330
1F
100
AcDbEntity
  8
0
  6
Continuous
 62
     7
370
    25
100
AcDbLine
 10
-77.8442682832
 20
-77.4515959054
 30
0.0
 11
-77.618957409
 21
-77.2534797531
 31
0.0
  0
ARC
  5
77
330
1F
100
AcDbEntity
  8
0
  6
Continuous
 62
     7
370
    25
100
AcDbCircle
 10
-76.5706801215
 20
-78.4456504533
 30
0.0
 40
1.587500000000013
100
AcDbArc
 50
44.611848459
 51
131.3252093317
  0
ARC
  5
78
330
1F
100
AcDbEntity
  8
0
  6
Continuous
 62
     7
370
    25
100
AcDbCircle
 10
-56.6830789578
 20
-58.8256981892
 30
0.0
 40
26.34919999999929
100
AcDbArc
 50
224.611848459
 51
225.388151541
  0
ARC
  5
79
330
1F
100
AcDbEntity
  8
0
  6
Continuous
 62
     7
370
    25
100
AcDbCircle
 10
-76.3030312218
 20
-78.7132993529
 30
0.0
 40
1.587500000000021
100
AcDbArc
 50
318.6747906683
 51
45.388151541
  0
LINE
  5
7A
330
1F
100
AcDbEntity
  8
0
  6
Continuous
 62
     7
370
    25
100
AcDbLine
 10
-75.1108605216
 20
-79.7615766405
 30
0.0
 11
-75.308976674
 21
-79.9868875147
 31
0.0
  0
SPLINE
  5
7B
330
1F
100
AcDbEntity
  8
0
  6
Continuous
 62
     7
370
    25
100
AcDbSpline
210
0.0
220
0.0
230
1.0
 70
     8
 71
     3
 72
     8
 73
     4
 74
     0
 42
0.00000001
 43
0.00000001
 40
0.0
 40
0.0
 40
0.0
 40
0.0
 40
1.0
 40
1.0
 40
1.0
 40
1.0
 10
-75.30897667397394
 20
-79.98688751469426
 30
0.0
 10
-76.40225747982448
 20
-81.23023921110915
 30
0.0
 10
-76.7070903939547
 20
-83.08244870195315
 30
0.0
 10
-76.91343188176522
 20
-84.89738437500596
 30
0.0
  0
ARC
  5
7C
330
1F
100
AcDbEntity
  8
0
  6
Continuous
 62
     7
370
    25
100
AcDbCircle
 10
-56.6830789578
 20
-58.8256981892
 30
0.0
 40
32.99999999999928
100
AcDbArc
 50
232.1902868007
 51
235.8097131993
  0
SPLINE
  5
7D
330
1F
100
AcDbEntity
  8
0
  6
Continuous
 62
     7
370
    25
100
AcDbSpline
210
0.0
220
0.0
230
1.0
 70
     8
 71
     3
 72
     8
 73
     4
 74
     0
 42
0.00000001
 43
0.00000001
 40
0.0
 40
0.0
 40
0.0
 40
0.0
 40
1.0
 40
1.0
 40
1.0
 40
1.0
 10
-75.22720313981974
 20
-86.12250126797434
 30
0.0
 10
-73.56485976766449
 20
-85.36541288474889
 30
0.0
 10
-71.89750241278294
 20
-84.50313534556375
 30
0.0
 10
-71.05284702849413
 20
-83.0791467068397
 30
0.0
  0
LINE
  5
7E
330
1F
100
AcDbEntity
  8
0
  6
Continuous
 62
     7
370
    25
100
AcDbLine
 10
-71.0528470285
 20
-83.0791467068
 30
0.0
 11
-70.8997849113
 21
-82.82110216
 31
0.0
  0
ARC
  5
7F
330
1F
100
AcDbEntity
  8
0
  6
Continuous
 62
     7
370
    25
100
AcDbCircle
 10
-69.5344129596
 20
-83.6309883763
 30
0.0
 40
1.58750000000003
100
AcDbArc
 50
62.611848459
 51
149.3252093317
  0
ARC
  5
80
330
1F
100
AcDbEntity
  8
0
  6
Continuous
 62
     7
370
    25
100
AcDbCircle
 10
-56.6830789578
 20
-58.8256981892
 30
0.0
 40
26.34919999999909
100
AcDbArc
 50
242.611848459
 51
243.388151541
  0
ARC
  5
81
330
1F
100
AcDbEntity
  8
0
  6
Continuous
 62
     7
370
    25
100
AcDbCircle
 10
-69.1971556709
 20
-83.8028295479
 30
0.0
 40
1.587500000000019
100
AcDbArc
 50
336.6747906683
 51
63.388151541
  0
LINE
  5
82
330
1F
100
AcDbEntity
  8
0
  6
Continuous
 62
     7
370
    25
100
AcDbLine
 10
-67.7393984613
 20
-84.4313994865
 30
0.0
 11
-67.8581932299
 21
-84.7069041196
 31
0.0
  0
SPLINE
  5
83
330
1F
100
AcDbEntity
  8
0
  6
Continuous
 62
     7
370
    25
100
AcDbSpline
210
0.0
220
0.0
230
1.0
 70
     8
 71
     3
 72
     8
 73
     4
 74
     0
 42
0.00000001
 43
0.00000001
 40
0.0
 40
0.0
 40
0.0
 40
0.0
 40
1.0
 40
1.0
 40
1.0
 40
1.0
 10
-67.85819322985583
 20
-84.70690411956997
 30
0.0
 10
-68.51374826022527
 20
-86.2272442011235
 30
0.0
 10
-68.23129737977364
 20
-88.08299865784736
 30
0.0
 10
-67.86669382966829
 20
-89.87286808273716
 30
0.0
  0
ARC
  5
84
330
1F
100
AcDbEntity
  8
0
  6
Continuous
 62
     7
370
    25
100
AcDbCircle
 10
-56.6830789578
 20
-58.8256981892
 30
0.0
 40
32.99999999999909
100
AcDbArc
 50
250.1902868007
 51
253.8097131993
  0
SPLINE
  5
85
330
1F
100
AcDbEntity
  8
0
  6
Continuous
 62
     7
370
    25
100
AcDbSpline
210
0.0
220
0.0
230
1.0
 70
     8
 71
     3
 72
     8
 73
     4
 74
     0
 42
0.00000001
 43
0.00000001
 40
0.0
 40
0.0
 40
0.0
 40
0.0
 40
1.0
 40
1.0
 40
1.0
 40
1.0
 10
-65.88441305665376
 20
-90.51695014935338
 30
0.0
 10
-64.53738373691004
 20
-89.28322395659399
 30
0.0
 10
-63.2180910730291
 20
-87.94790752573934
 30
0.0
 10
-62.85481275494018
 20
-86.33260098361723
 30
0.0
  0
LINE
  5
86
330
1F
100
AcDbEntity
  8
0
  6
Continuous
 62
     7
370
    25
100
AcDbLine
 10
-62.8548127549
 20
-86.3326009836
 30
0.0
 11
-62.7889821813
 21
-86.0398872405
 31
0.0
  0
ARC
  5
87
330
1F
100
AcDbEntity
  8
0
  6
Continuous
 62
     7
370
    25
100
AcDbCircle
 10
-61.240167685
 20
-86.3882116672
 30
0.0
 40
1.587500000000025
100
AcDbArc
 50
80.611848459
 51
167.3252093317
  0
ARC
  5
88
330
1F
100
AcDbEntity
  8
0
  6
Continuous
 62
     7
370
    25
100
AcDbCircle
 10
-56.6830789578
 20
-58.8256981892
 30
0.0
 40
26.34919999999901
100
AcDbArc
 50
260.611848459
 51
261.388151541
  0
ARC
  5
89
330
1F
100
AcDbEntity
  8
0
  6
Continuous
 62
     7
370
    25
100
AcDbCircle
 10
-60.8663151007
 20
-86.4474240995
 30
0.0
 40
1.587500000000015
100
AcDbArc
 50
354.6747906683
 51
81.388151541
  0
LINE
  5
8A
330
1F
100
AcDbEntity
  8
0
  6
Continuous
 62
     7
370
    25
100
AcDbLine
 10
-59.2856668141
 20
-86.5947578842
 30
0.0
 11
-59.3135117392
 21
-86.893487963
 31
0.0
  0
SPLINE
  5
8B
330
1F
100
AcDbEntity
  8
0
  6
Continuous
 62
     7
370
    25
100
AcDbSpline
210
0.0
220
0.0
230
1.0
 70
     8
 71
     3
 72
     8
 73
     4
 74
     0
 42
0.00000001
 43
0.00000001
 40
0.0
 40
0.0
 40
0.0
 40
0.0
 40
1.0
 40
1.0
 40
1.0
 40
1.0
 10
-59.31351173918471
 20
-86.89348796301832
 30
0.0
 10
-59.46717070017733
 20
-88.54199494969525
 30
0.0
 10
-58.6250842852813
 20
-90.21964019626586
 30
0.0
 10
-57.72522563308151
 20
-91.8092384829389
 30
0.0
  0
ARC
  5
8C
330
1F
100
AcDbEntity
  8
0
  6
Continuous
 62
     7
370
    25
100
AcDbCircle
 10
-56.6830789578
 20
-58.8256981892
 30
0.0
 40
32.9999999999991
100
AcDbArc
 50
268.1902868007
 51
271.8097131993
  0
SPLINE
  5
8D
330
1F
100
AcDbEntity
  8
0
  6
Continuous
 62
     7
370
    25
100
AcDbSpline
210
0.0
220
0.0
230
1.0
 70
     8
 71
     3
 72
     8
 73
     4
 74
     0
 42
0.00000001
 43
0.00000001
 40
0.0
 40
0.0
 40
0.0
 40
0.0
 40
1.0
 40
1.0
 40
1.0
 40
1.0
 10
-55.64093228242285
 20
-91.8092384829389
 30
0.0
 10
-54.74107363021396
 20
-90.219640196265
 30
0.0
 10
-53.89898721532709
 20
-88.54199494969511
 30
0.0
 10
-54.05264617631957
 20
-86.89348796301832
 30
0.0
  0
LINE
  5
8E
330
1F
100
AcDbEntity
  8
0
  6
Continuous
 62
     7
370
    25
100
AcDbLine
 10
-54.0526461763
 20
-86.893487963
 30
0.0
 11
-54.0804911014
 21
-86.5947578842
 31
0.0
  0
ARC
  5
8F
330
1F
100
AcDbEntity
  8
0
  6
Continuous
 62
     7
370
    25
100
AcDbCircle
 10
-52.4998428148
 20
-86.4474240995
 30
0.0
 40
1.58750000000001
100
AcDbArc
 50
98.611848459
 51
185.3252093317
  0
ARC
  5
90
330
1F
100
AcDbEntity
  8
0
  6
Continuous
 62
     7
370
    25
100
AcDbCircle
 10
-56.6830789578
 20
-58.8256981892
 30
0.0
 40
26.34919999999906
100
AcDbArc
 50
278.611848459
 51
279.388151541
  0
ARC
  5
91
330
1F
100
AcDbEntity
  8
0
  6
Continuous
 62
     7
370
    25
100
AcDbCircle
 10
-52.1259902305
 20
-86.3882116672
 30
0.0
 40
1.587500000000025
100
AcDbArc
 50
12.6747906683
 51
99.388151541
  0
LINE
  5
92
330
1F
100
AcDbEntity
  8
0
  6
Continuous
 62
     7
370
    25
100
AcDbLine
 10
-50.5771757342
 20
-86.0398872405
 30
0.0
 11
-50.5113451606
 21
-86.3326009836
 31
0.0
  0
SPLINE
  5
93
330
1F
100
AcDbEntity
  8
0
  6
Continuous
 62
     7
370
    25
100
AcDbSpline
210
0.0
220
0.0
230
1.0
 70
     8
 71
     3
 72
     8
 73
     4
 74
     0
 42
0.00000001
 43
0.00000001
 40
0.0
 40
0.0
 40
0.0
 40
0.0
 40
1.0
 40
1.0
 40
1.0
 40
1.0
 10
-50.51134516056411
 20
-86.33260098361717
 30
0.0
 10
-50.14806684247376
 20
-87.94790752574144
 30
0.0
 10
-48.82877417857834
 20
-89.28322395659335
 30
0.0
 10
-47.48174485885067
 20
-90.51695014935336
 30
0.0
  0
ARC
  5
94
330
1F
100
AcDbEntity
  8
0
  6
Continuous
 62
     7
370
    25
100
AcDbCircle
 10
-56.6830789578
 20
-58.8256981892
 30
0.0
 40
32.99999999999918
100
AcDbArc
 50
286.1902868007
 51
289.8097131993
  0
SPLINE
  5
95
330
1F
100
AcDbEntity
  8
0
  6
Continuous
 62
     7
370
    25
100
AcDbSpline
210
0.0
220
0.0
230
1.0
 70
     8
 71
     3
 72
     8
 73
     4
 74
     0
 42
0.00000001
 43
0.00000001
 40
0.0
 40
0.0
 40
0.0
 40
0.0
 40
1.0
 40
1.0
 40
1.0
 40
1.0
 10
-45.49946408583601
 20
-89.87286808273711
 30
0.0
 10
-45.13486053572757
 20
-88.0829986578493
 30
0.0
 10
-44.8524096552782
 20
-86.2272442011248
 30
0.0
 10
-45.50796468564846
 20
-84.70690411956993
 30
0.0
  0
LINE
  5
96
330
1F
100
AcDbEntity
  8
0
  6
Continuous
 62
     7
370
    25
100
AcDbLine
 10
-45.5079646856
 20
-84.7069041196
 30
0.0
 11
-45.6267594542
 21
-84.4313994865
 31
0.0
  0
ARC
  5
97
330
1F
100
AcDbEntity
  8
0
  6
Continuous
 62
     7
370
    25
100
AcDbCircle
 10
-44.1690022446
 20
-83.8028295479
 30
0.0
 40
1.587500000000024
100
AcDbArc
 50
116.611848459
 51
203.3252093317
  0
ARC
  5
98
330
1F
100
AcDbEntity
  8
0
  6
Continuous
 62
     7
370
    25
100
AcDbCircle
 10
-56.6830789578
 20
-58.8256981892
 30
0.0
 40
26.34919999999924
100
AcDbArc
 50
296.611848459
 51
297.388151541
  0
ARC
  5
99
330
1F
100
AcDbEntity
  8
0
  6
Continuous
 62
     7
370
    25
100
AcDbCircle
 10
-43.831744956
 20
-83.6309883763
 30
0.0
 40
1.587500000000022
100
AcDbArc
 50
30.6747906683
 51
117.388151541
  0
LINE
  5
9A
330
1F
100
AcDbEntity
  8
0
  6
Continuous
 62
     7
370
    25
100
AcDbLine
 10
-42.4663730042
 20
-82.82110216
 30
0.0
 11
-42.313310887
 21
-83.0791467068
 31
0.0
  0
SPLINE
  5
9B
330
1F
100
AcDbEntity
  8
0
  6
Continuous
 62
     7
370
    25
100
AcDbSpline
210
0.0
220
0.0
230
1.0
 70
     8
 71
     3
 72
     8
 73
     4
 74
     0
 42
0.00000001
 43
0.00000001
 40
0.0
 40
0.0
 40
0.0
 40
0.0
 40
1.0
 40
1.0
 40
1.0
 40
1.0
 10
-42.31331088701015
 20
-83.0791467068397
 30
0.0
 10
-41.4686555027187
 20
-84.50313534556213
 30
0.0
 10
-39.80129814781976
 20
-85.3654128847367
 30
0.0
 10
-38.13895477568472
 20
-86.12250126797441
 30
0.0
  0
ARC
  5
9C
330
1F
100
AcDbEntity
  8
0
  6
Continuous
 62
     7
370
    25
100
AcDbCircle
 10
-56.6830789578
 20
-58.8256981892
 30
0.0
 40
32.99999999999947
100
AcDbArc
 50
304.1902868007
 51
307.8097131993
  0
SPLINE
  5
9D
330
1F
100
AcDbEntity
  8
0
  6
Continuous
 62
     7
370
    25
100
AcDbSpline
210
0.0
220
0.0
230
1.0
 70
     8
 71
     3
 72
     8
 73
     4
 74
     0
 42
0.00000001
 43
0.00000001
 40
0.0
 40
0.0
 40
0.0
 40
0.0
 40
1.0
 40
1.0
 40
1.0
 40
1.0
 10
-36.45272603373898
 20
-84.89738437500586
 30
0.0
 10
-36.65906752155668
 20
-83.08244870195603
 30
0.0
 10
-36.96390043567856
 20
-81.23023921111071
 30
0.0
 10
-38.05718124153032
 20
-79.9868875146942
 30
0.0
  0
LINE
  5
9E
330
1F
100
AcDbEntity
  8
0
  6
Continuous
 62
     7
370
    25
100
AcDbLine
 10
-38.0571812415
 20
-79.9868875147
 30
0.0
 11
-38.2552973939
 21
-79.7615766405
 31
0.0
  0
ARC
  5
9F
330
1F
100
AcDbEntity
  8
0
  6
Continuous
 62
     7
370
    25
100
AcDbCircle
 10
-37.0631266937
 20
-78.7132993529
 30
0.0
 40
1.587500000000015
100
AcDbArc
 50
134.611848459
 51
221.3252093317
  0
ARC
  5
A0
330
1F
100
AcDbEntity
  8
0
  6
Continuous
 62
     7
370
    25
100
AcDbCircle
 10
-56.6830789578
 20
-58.8256981892
 30
0.0
 40
26.34919999999953
100
AcDbArc
 50
314.611848459
 51
315.388151541
  0
ARC
  5
A1
330
1F
100
AcDbEntity
  8
0
  6
Continuous
 62
     7
370
    25
100
AcDbCircle
 10
-36.7954777941
 20
-78.4456504533
 30
0.0
 40
1.587500000000014
100
AcDbArc
 50
48.6747906683
 51
135.388151541
  0
LINE
  5
A2
330
1F
100
AcDbEntity
  8
0
  6
Continuous
 62
     7
370
    25
100
AcDbLine
 10
-35.7472005065
 20
-77.2534797531
 30
0.0
 11
-35.5218896323
 21
-77.4515959054
 31
0.0
  0
SPLINE
  5
A3
330
1F
100
AcDbEntity
  8
0
  6
Continuous
 62
     7
370
    25
100
AcDbSpline
210
0.0
220
0.0
230
1.0
 70
     8
 71
     3
 72
     8
 73
     4
 74
     0
 42
0.00000001
 43
0.00000001
 40
0.0
 40
0.0
 40
0.0
 40
0.0
 40
1.0
 40
1.0
 40
1.0
 40
1.0
 10
-35.52188963228176
 20
-77.45159590544566
 30
0.0
 10
-34.27853793586626
 20
-78.54487671129742
 30
0.0
 10
-32.42632844502216
 20
-78.84970962542398
 30
0.0
 10
-30.61139277197007
 20
-79.05605111323693
 30
0.0
  0
ARC
  5
A4
330
1F
100
AcDbEntity
  8
0
  6
Continuous
 62
     7
370
    25
100
AcDbCircle
 10
-56.6830789578
 20
-58.8256981892
 30
0.0
 40
32.99999999999981
100
AcDbArc
 50
322.1902868007
 51
325.8097131993
  0
SPLINE
  5
A5
330
1F
100
AcDbEntity
  8
0
  6
Continuous
 62
     7
370
    25
100
AcDbSpline
210
0.0
220
0.0
230
1.0
 70
     8
 71
     3
 72
     8
 73
     4
 74
     0
 42
0.00000001
 43
0.00000001
 40
0.0
 40
0.0
 40
0.0
 40
0.0
 40
1.0
 40
1.0
 40
1.0
 40
1.0
 10
-29.38627587900149
 20
-77.36982237129115
 30
0.0
 10
-30.14336426224407
 20
-75.70747899916904
 30
0.0
 10
-31.00564180141223
 20
-74.04012164425521
 30
0.0
 10
-32.42963044013629
 20
-73.19546625996585
 30
0.0
  0
LINE
  5
A6
330
1F
100
AcDbEntity
  8
0
  6
Continuous
 62
     7
370
    25
100
AcDbLine
 10
-32.4296304401
 20
-73.19546626
 30
0.0
 11
-32.687674987
 21
-73.0424041428
 31
0.0
  0
ARC
  5
A7
330
1F
100
AcDbEntity
  8
0
  6
Continuous
 62
     7
370
    25
100
AcDbCircle
 10
-31.8777887707
 20
-71.677032191
 30
0.0
 40
1.587500000000013
100
AcDbArc
 50
152.611848459
 51
239.3252093317
  0
ARC
  5
A8
330
1F
100
AcDbEntity
  8
0
  6
Continuous
 62
     7
370
    25
100
AcDbCircle
 10
-56.6830789578
 20
-58.8256981892
 30
0.0
 40
26.3491999999999
100
AcDbArc
 50
332.611848459
 51
333.388151541
  0
ARC
  5
A9
330
1F
100
AcDbEntity
  8
0
  6
Continuous
 62
     7
370
    25
100
AcDbCircle
 10
-31.7059475991
 20
-71.3397749024
 30
0.0
 40
1.587500000000018
100
AcDbArc
 50
66.6747906683
 51
153.388151541
  0
LINE
  5
AA
330
1F
100
AcDbEntity
  8
0
  6
Continuous
 62
     7
370
    25
100
AcDbLine
 10
-31.0773776604
 20
-69.8820176928
 30
0.0
 11
-30.8018730274
 21
-70.0008124613
 31
0.0
  0
SPLINE
  5
AB
330
1F
100
AcDbEntity
  8
0
  6
Continuous
 62
     7
370
    25
100
AcDbSpline
210
0.0
220
0.0
230
1.0
 70
     8
 71
     3
 72
     8
 73
     4
 74
     0
 42
0.00000001
 43
0.00000001
 40
0.0
 40
0.0
 40
0.0
 40
0.0
 40
1.0
 40
1.0
 40
1.0
 40
1.0
 10
-30.80187302740602
 20
-70.00081246132757
 30
0.0
 10
-29.28153294585046
 20
-70.65636749169701
 30
0.0
 10
-27.42577848912982
 20
-70.37391661124497
 30
0.0
 10
-25.63590906423879
 20
-70.00931306114003
 30
0.0
  0
ARC
  5
AC
330
1F
100
AcDbEntity
  8
0
  6
Continuous
 62
     7
370
    25
100
AcDbCircle
 10
-56.6830789578
 20
-58.8256981892
 30
0.0
 40
33.00000000000022
100
AcDbArc
 50
340.1902868007
 51
343.8097131993
  0
SPLINE
  5
AD
330
1F
100
AcDbEntity
  8
0
  6
Continuous
 62
     7
370
    25
100
AcDbSpline
210
0.0
220
0.0
230
1.0
 70
     8
 71
     3
 72
     8
 73
     4
 74
     0
 42
0.00000001
 43
0.00000001
 40
0.0
 40
0.0
 40
0.0
 40
0.0
 40
1.0
 40
1.0
 40
1.0
 40
1.0
 10
-24.99182699762248
 20
-68.02703228812518
 30
0.0
 10
-26.22555319039044
 20
-66.68000296841598
 30
0.0
 10
-27.5608696212353
 20
-65.36071030450248
 30
0.0
 10
-29.17617616335876
 20
-64.99743198641194
 30
0.0
  0
LINE
  5
AE
330
1F
100
AcDbEntity
  8
0
  6
Continuous
 62
     7
370
    25
100
AcDbLine
 10
-29.1761761634
 20
-64.9974319864
 30
0.0
 11
-29.4688899065
 21
-64.9316014128
 31
0.0
  0
ARC
  5
AF
330
1F
100
AcDbEntity
  8
0
  6
Continuous
 62
     7
370
    25
100
AcDbCircle
 10
-29.1205654798
 20
-63.3827869165
 30
0.0
 40
1.587500000000009
100
AcDbArc
 50
170.611848459
 51
257.3252093317
  0
ARC
  5
B0
330
1F
100
AcDbEntity
  8
0
  6
Continuous
 62
     7
370
    25
100
AcDbCircle
 10
-56.6830789578
 20
-58.8256981892
 30
0.0
 40
26.34920000000032
100
AcDbArc
 50
350.611848459
 51
351.388151541
  0
ARC
  5
B1
330
1F
100
AcDbEntity
  8
0
  6
Continuous
 62
     7
370
    25
100
AcDbCircle
 10
-29.0613530475
 20
-63.0089343322
 30
0.0
 40
1.587500000000009
100
AcDbArc
 50
84.6747906683
 51
171.388151541
  0
LINE
  5
B2
330
1F
100
AcDbEntity
  8
0
  6
Continuous
 62
     7
370
    25
100
AcDbLine
 10
-28.9140192628
 20
-61.4282860456
 30
0.0
 11
-28.615289184
 21
-61.4561309707
 31
0.0
  0
SPLINE
  5
B3
330
1F
100
AcDbEntity
  8
0
  6
Continuous
 62
     7
370
    25
100
AcDbSpline
210
0.0
220
0.0
230
1.0
 70
     8
 71
     3
 72
     8
 73
     4
 74
     0
 42
0.00000001
 43
0.00000001
 40
0.0
 40
0.0
 40
0.0
 40
0.0
 40
1.0
 40
1.0
 40
1.0
 40
1.0
 10
-28.61528918395762
 20
-61.45613097065648
 30
0.0
 10
-26.96678219727776
 20
-61.60978993164951
 30
0.0
 10
-25.28913695070535
 20
-60.76770351675427
 30
0.0
 10
-23.69953866403706
 20
-59.86784486455327
 30
0.0
  0
ARC
  5
B4
330
1F
100
AcDbEntity
  8
0
  6
Continuous
 62
     7
370
    25
100
AcDbCircle
 10
-56.6830789578
 20
-58.8256981892
 30
0.0
 40
33.00000000000062
100
AcDbArc
 50
358.1902868007
 51
1.8097131993
  0
SPLINE
  5
B5
330
1F
100
AcDbEntity
  8
0
  6
Continuous
 62
     7
370
    25
100
AcDbSpline
210
0.0
220
0.0
230
1.0
 70
     8
 71
     3
 72
     8
 73
     4
 74
     0
 42
0.00000001
 43
0.00000001
 40
0.0
 40
0.0
 40
0.0
 40
0.0
 40
1.0
 40
1.0
 40
1.0
 40
1.0
 10
-23.69953866403706
 20
-57.78355151389453
 30
0.0
 10
-25.28913695070463
 20
-56.88369286169778
 30
0.0
 10
-26.9667821972792
 20
-56.04160644679889
 30
0.0
 10
-28.61528918395761
 20
-56.19526540779137
 30
0.0
  0
LINE
  5
B6
330
1F
100
AcDbEntity
  8
0
  6
Continuous
 62
     7
370
    25
100
AcDbLine
 10
-28.615289184
 20
-56.1952654078
 30
0.0
 11
-28.9140192628
 21
-56.2231103329
 31
0.0
  0
ARC
  5
B7
330
1F
100
AcDbEntity
  8
0
  6
Continuous
 62
     7
370
    25
100
AcDbCircle
 10
-29.0613530475
 20
-54.6424620463
 30
0.0
 40
1.587500000000021
100
AcDbArc
 50
188.611848459
 51
275.3252093317
  0
ARC
  5
B8
330
1F
100
AcDbEntity
  8
0
  6
Continuous
 62
     7
370
    25
100
AcDbCircle
 10
-56.6830789578
 20
-58.8256981892
 30
0.0
 40
26.3492000000007
100
AcDbArc
 50
8.611848459
 51
9.388151541
  0
ARC
  5
B9
330
1F
100
AcDbEntity
  8
0
  6
Continuous
 62
     7
370
    25
100
AcDbCircle
 10
-29.1205654798
 20
-54.2686094619
 30
0.0
 40
1.587500000000014
100
AcDbArc
 50
102.6747906683
 51
189.388151541
  0
LINE
  5
BA
330
1F
100
AcDbEntity
  8
0
  6
Continuous
 62
     7
370
    25
100
AcDbLine
 10
-29.4688899065
 20
-52.7197949657
 30
0.0
 11
-29.1761761634
 21
-52.653964392
 31
0.0
  0
SPLINE
  5
BB
330
1F
100
AcDbEntity
  8
0
  6
Continuous
 62
     7
370
    25
100
AcDbSpline
210
0.0
220
0.0
230
1.0
 70
     8
 71
     3
 72
     8
 73
     4
 74
     0
 42
0.00000001
 43
0.00000001
 40
0.0
 40
0.0
 40
0.0
 40
0.0
 40
1.0
 40
1.0
 40
1.0
 40
1.0
 10
-29.17617616335875
 20
-52.65396439203593
 30
0.0
 10
-27.56086962123529
 20
-52.29068607394417
 30
0.0
 10
-26.22555319038618
 20
-50.97139341004936
 30
0.0
 10
-24.99182699762251
 20
-49.6243640903225
 30
0.0
  0
ARC
  5
BC
330
1F
100
AcDbEntity
  8
0
  6
Continuous
 62
     7
370
    25
100
AcDbCircle
 10
-56.6830789578
 20
-58.8256981892
 30
0.0
 40
33.00000000000097
100
AcDbArc
 50
16.1902868007
 51
19.8097131993
  0
SPLINE
  5
BD
330
1F
100
AcDbEntity
  8
0
  6
Continuous
 62
     7
370
    25
100
AcDbSpline
210
0.0
220
0.0
230
1.0
 70
     8
 71
     3
 72
     8
 73
     4
 74
     0
 42
0.00000001
 43
0.00000001
 40
0.0
 40
0.0
 40
0.0
 40
0.0
 40
1.0
 40
1.0
 40
1.0
 40
1.0
 10
-25.63590906423876
 20
-47.64208331730787
 30
0.0
 10
-27.42577848913239
 20
-47.27747976719775
 30
0.0
 10
-29.28153294585085
 20
-46.99502888675166
 30
0.0
 10
-30.80187302740601
 20
-47.6505839171203
 30
0.0
  0
LINE
  5
BE
330
1F
100
AcDbEntity
  8
0
  6
Continuous
 62
     7
370
    25
100
AcDbLine
 10
-30.8018730274
 20
-47.6505839171
 30
0.0
 11
-31.0773776604
 21
-47.7693786857
 31
0.0
  0
ARC
  5
BF
330
1F
100
AcDbEntity
  8
0
  6
Continuous
 62
     7
370
    25
100
AcDbCircle
 10
-31.7059475991
 20
-46.311621476
 30
0.0
 40
1.587500000000011
100
AcDbArc
 50
206.611848459
 51
293.3252093317
  0
ARC
  5
C0
330
1F
100
AcDbEntity
  8
0
  6
Continuous
 62
     7
370
    25
100
AcDbCircle
 10
-56.6830789578
 20
-58.8256981892
 30
0.0
 40
26.34920000000101
100
AcDbArc
 50
26.611848459
 51
27.388151541
  0
ARC
  5
C1
330
1F
100
AcDbEntity
  8
0
  6
Continuous
 62
     7
370
    25
100
AcDbCircle
 10
-31.8777887707
 20
-45.9743641874
 30
0.0
 40
1.587500000000013
100
AcDbArc
 50
120.6747906683
 51
207.388151541
  0
LINE
  5
C2
330
1F
100
AcDbEntity
  8
0
  6
Continuous
 62
     7
370
    25
100
AcDbLine
 10
-32.687674987
 20
-44.6089922356
 30
0.0
 11
-32.4296304401
 21
-44.4559301185
 31
0.0
  0
SPLINE
  5
C3
330
1F
100
AcDbEntity
  8
0
  6
Continuous
 62
     7
370
    25
100
AcDbSpline
210
0.0
220
0.0
230
1.0
 70
     8
 71
     3
 72
     8
 73
     4
 74
     0
 42
0.00000001
 43
0.00000001
 40
0.0
 40
0.0
 40
0.0
 40
0.0
 40
1.0
 40
1.0
 40
1.0
 40
1.0
 10
-32.42963044013626
 20
-44.45593011848202
 30
0.0
 10
-31.0056418014122
 20
-43.61127473419178
 30
0.0
 10
-30.1433642622359
 20
-41.94391737929263
 30
0.0
 10
-29.38627587900153
 20
-40.28157400715657
 30
0.0
  0
ARC
  5
C4
330
1F
100
AcDbEntity
  8
0
  6
Continuous
 62
     7
370
    25
100
AcDbCircle
 10
-56.6830789578
 20
-58.8256981892
 30
0.0
 40
33.00000000000123
100
AcDbArc
 50
34.1902868007
 51
37.8097131993
  0
SPLINE
  5
C5
330
1F
100
AcDbEntity
  8
0
  6
Continuous
 62
     7
370
    25
100
AcDbSpline
210
0.0
220
0.0
230
1.0
 70
     8
 71
     3
 72
     8
 73
     4
 74
     0
 42
0.00000001
 43
0.00000001
 40
0.0
 40
0.0
 40
0.0
 40
0.0
 40
1.0
 40
1.0
 40
1.0
 40
1.0
 10
-30.61139277196994
 20
-38.59534526521102
 30
0.0
 10
-32.4263284450324
 20
-38.80168675301184
 30
0.0
 10
-34.27853793586495
 20
-39.10651966715072
 30
0.0
 10
-35.52188963228173
 20
-40.19980047300221
 30
0.0
  0
LINE
  5
C6
330
1F
100
AcDbEntity
  8
0
  6
Continuous
 62
     7
370
    25
100
AcDbLine
 10
-35.5218896323
 20
-40.199800473
 30
0.0
 11
-35.7472005065
 21
-40.3979166254
 31
0.0
  0
ARC
  5
C7
330
1F
100
AcDbEntity
  8
0
  6
Continuous
 62
     7
370
    25
100
AcDbCircle
 10
-36.7954777941
 20
-39.2057459252
 30
0.0
 40
1.587500000000019
100
AcDbArc
 50
224.611848459
 51
311.3252093317
  0
ARC
  5
C8
330
1F
100
AcDbEntity
  8
0
  6
Continuous
 62
     7
370
    25
100
AcDbCircle
 10
-56.6830789578
 20
-58.8256981892
 30
0.0
 40
26.34920000000122
100
AcDbArc
 50
44.611848459
 51
45.388151541
  0
ARC
  5
C9
330
1F
100
AcDbEntity
  8
0
  6
Continuous
 62
     7
370
    25
100
AcDbCircle
 10
-37.0631266937
 20
-38.9380970255
 30
0.0
 40
1.587500000000014
100
AcDbArc
 50
138.6747906683
 51
225.388151541
  0
LINE
  5
CA
330
1F
100
AcDbEntity
  8
0
  6
Continuous
 62
     7
370
    25
100
AcDbLine
 10
-38.2552973939
 20
-37.889819738
 30
0.0
 11
-38.0571812415
 21
-37.6645088638
 31
0.0
  0
SPLINE
  5
CB
330
1F
100
AcDbEntity
  8
0
  6
Continuous
 62
     7
370
    25
100
AcDbSpline
210
0.0
220
0.0
230
1.0
 70
     8
 71
     3
 72
     8
 73
     4
 74
     0
 42
0.00000001
 43
0.00000001
 40
0.0
 40
0.0
 40
0.0
 40
0.0
 40
1.0
 40
1.0
 40
1.0
 40
1.0
 10
-38.05718124153029
 20
-37.66450886375367
 30
0.0
 10
-36.96390043567853
 20
-36.42115716733817
 30
0.0
 10
-36.65906752154974
 20
-34.5689476764946
 30
0.0
 10
-36.45272603373901
 20
-32.75401200344199
 30
0.0
  0
ARC
  5
CC
330
1F
100
AcDbEntity
  8
0
  6
Continuous
 62
     7
370
    25
100
AcDbCircle
 10
-56.6830789578
 20
-58.8256981892
 30
0.0
 40
33.00000000000136
100
AcDbArc
 50
52.1902868007
 51
55.8097131993
  0
SPLINE
  5
CD
330
1F
100
AcDbEntity
  8
0
  6
Continuous
 62
     7
370
    25
100
AcDbSpline
210
0.0
220
0.0
230
1.0
 70
     8
 71
     3
 72
     8
 73
     4
 74
     0
 42
0.00000001
 43
0.00000001
 40
0.0
 40
0.0
 40
0.0
 40
0.0
 40
1.0
 40
1.0
 40
1.0
 40
1.0
 10
-38.13895477568452
 20
-31.52889511047359
 30
0.0
 10
-39.80129814783585
 20
-32.28598349369754
 30
0.0
 10
-41.46865550272076
 20
-33.14826103288551
 30
0.0
 10
-42.31331088701011
 20
-34.57224967160822
 30
0.0
  0
LINE
  5
CE
330
1F
100
AcDbEntity
  8
0
  6
Continuous
 62
     7
370
    25
100
AcDbLine
 10
-42.313310887
 20
-34.5722496716
 30
0.0
 11
-42.4663730042
 21
-34.8302942184
 31
0.0
  0
ARC
  5
CF
330
1F
100
AcDbEntity
  8
0
  6
Continuous
 62
     7
370
    25
100
AcDbCircle
 10
-43.831744956
 20
-34.0204080022
 30
0.0
 40
1.58750000000001
100
AcDbArc
 50
242.611848459
 51
329.3252093317
  0
ARC
  5
D0
330
1F
100
AcDbEntity
  8
0
  6
Continuous
 62
     7
370
    25
100
AcDbCircle
 10
-56.6830789578
 20
-58.8256981892
 30
0.0
 40
26.34920000000134
100
AcDbArc
 50
62.611848459
 51
63.388151541
  0
ARC
  5
D1
330
1F
100
AcDbEntity
  8
0
  6
Continuous
 62
     7
370
    25
100
AcDbCircle
 10
-44.1690022446
 20
-33.8485668306
 30
0.0
 40
1.587500000000014
100
AcDbArc
 50
156.6747906683
 51
243.388151541
  0
LINE
  5
D2
330
1F
100
AcDbEntity
  8
0
  6
Continuous
 62
     7
370
    25
100
AcDbLine
 10
-45.6267594542
 20
-33.2199968919
 30
0.0
 11
-45.5079646856
 21
-32.9444922589
 31
0.0
  0
SPLINE
  5
D3
330
1F
100
AcDbEntity
  8
0
  6
Continuous
 62
     7
370
    25
100
AcDbSpline
210
0.0
220
0.0
230
1.0
 70
     8
 71
     3
 72
     8
 73
     4
 74
     0
 42
0.00000001
 43
0.00000001
 40
0.0
 40
0.0
 40
0.0
 40
0.0
 40
1.0
 40
1.0
 40
1.0
 40
1.0
 10
-45.5079646856484
 20
-32.94449225887797
 30
0.0
 10
-44.85240965527976
 20
-31.42415217732404
 30
0.0
 10
-45.13486053573038
 20
-29.56839772060189
 30
0.0
 10
-45.49946408583593
 20
-27.77852829571077
 30
0.0
  0
ARC
  5
D4
330
1F
100
AcDbEntity
  8
0
  6
Continuous
 62
     7
370
    25
100
AcDbCircle
 10
-56.6830789578
 20
-58.8256981892
 30
0.0
 40
33.00000000000143
100
AcDbArc
 50
70.1902868007
 51
73.8097131993
  0
SPLINE
  5
D5
330
1F
100
AcDbEntity
  8
0
  6
Continuous
 62
     7
370
    25
100
AcDbSpline
210
0.0
220
0.0
230
1.0
 70
     8
 71
     3
 72
     8
 73
     4
 74
     0
 42
0.00000001
 43
0.00000001
 40
0.0
 40
0.0
 40
0.0
 40
0.0
 40
1.0
 40
1.0
 40
1.0
 40
1.0
 10
-47.4817448588505
 20
-27.13444622909453
 30
0.0
 10
-48.82877417859227
 20
-28.36817242185632
 30
0.0
 10
-50.14806684247271
 20
-29.70348885270726
 30
0.0
 10
-50.51134516056407
 20
-31.31879539483073
 30
0.0
  0
LINE
  5
D6
330
1F
100
AcDbEntity
  8
0
  6
Continuous
 62
     7
370
    25
100
AcDbLine
 10
-50.5113451606
 20
-31.3187953948
 30
0.0
 11
-50.5771757342
 21
-31.611509138
 31
0.0
  0
ARC
  5
D7
330
1F
100
AcDbEntity
  8
0
  6
Continuous
 62
     7
370
    25
100
AcDbCircle
 10
-52.1259902305
 20
-31.2631847113
 30
0.0
 40
1.587500000000017
100
AcDbArc
 50
260.611848459
 51
347.3252093317
  0
ARC
  5
D8
330
1F
100
AcDbEntity
  8
0
  6
Continuous
 62
     7
370
    25
100
AcDbCircle
 10
-56.6830789578
 20
-58.8256981892
 30
0.0
 40
26.34920000000134
100
AcDbArc
 50
80.611848459
 51
81.388151541
  0
ARC
  5
D9
330
1F
100
AcDbEntity
  8
0
  6
Continuous
 62
     7
370
    25
100
AcDbCircle
 10
-52.4998428148
 20
-31.2039722789
 30
0.0
 40
1.587500000000016
100
AcDbArc
 50
174.6747906683
 51
261.388151541
  0
LINE
  5
DA
330
1F
100
AcDbEntity
  8
0
  6
Continuous
 62
     7
370
    25
100
AcDbLine
 10
-54.0804911014
 20
-31.0566384943
 30
0.0
 11
-54.0526461763
 21
-30.7579084154
 31
0.0
  0
SPLINE
  5
DB
330
1F
100
AcDbEntity
  8
0
  6
Continuous
 62
     7
370
    25
100
AcDbSpline
210
0.0
220
0.0
230
1.0
 70
     8
 71
     3
 72
     8
 73
     4
 74
     0
 42
0.00000001
 43
0.00000001
 40
0.0
 40
0.0
 40
0.0
 40
0.0
 40
1.0
 40
1.0
 40
1.0
 40
1.0
 10
-54.05264617631953
 20
-30.7579084154296
 30
0.0
 10
-53.8989872153259
 20
-29.10940142875035
 30
0.0
 10
-54.74107363022253
 20
-27.43175618217786
 30
0.0
 10
-55.64093228242272
 20
-25.84215789550907
 30
0.0
  0
ARC
  5
DC
330
1F
100
AcDbEntity
  8
0
  6
Continuous
 62
     7
370
    25
100
AcDbCircle
 10
-56.6830789578
 20
-58.8256981892
 30
0.0
 40
33.00000000000136
100
AcDbArc
 50
88.1902868007
 51
91.8097131993
  0
SPLINE
  5
DD
330
1F
100
AcDbEntity
  8
0
  6
Continuous
 62
     7
370
    25
100
AcDbSpline
210
0.0
220
0.0
230
1.0
 70
     8
 71
     3
 72
     8
 73
     4
 74
     0
 42
0.00000001
 43
0.00000001
 40
0.0
 40
0.0
 40
0.0
 40
0.0
 40
1.0
 40
1.0
 40
1.0
 40
1.0
 10
-57.72522563308141
 20
-25.84215789550907
 30
0.0
 10
-58.62508428528705
 20
-27.43175618217716
 30
0.0
 10
-59.4671707001766
 20
-29.10940142875106
 30
0.0
 10
-59.31351173918466
 20
-30.7579084154296
 30
0.0
  0
LINE
  5
DE
330
1F
100
AcDbEntity
  8
0
  6
Continuous
 62
     7
370
    25
100
AcDbLine
 10
-59.3135117392
 20
-30.7579084154
 30
0.0
 11
-59.2856668141
 21
-31.0566384943
 31
0.0
  0
ARC
  5
DF
330
1F
100
AcDbEntity
  8
0
  6
Continuous
 62
     7
370
    25
100
AcDbCircle
 10
-60.8663151007
 20
-31.2039722789
 30
0.0
 40
1.587500000000021
100
AcDbArc
 50
278.611848459
 51
5.3252093317
  0
ARC
  5
E0
330
1F
100
AcDbEntity
  8
0
  6
Continuous
 62
     7
370
    25
100
AcDbCircle
 10
-56.6830789578
 20
-58.8256981892
 30
0.0
 40
26.34920000000126
100
AcDbArc
 50
98.611848459
 51
99.388151541
  0
ARC
  5
E1
330
1F
100
AcDbEntity
  8
0
  6
Continuous
 62
     7
370
    25
100
AcDbCircle
 10
-61.240167685
 20
-31.2631847113
 30
0.0
 40
1.587500000000021
100
AcDbArc
 50
192.6747906683
 51
279.388151541
  0
LINE
  5
E2
330
1F
100
AcDbEntity
  8
0
  6
Continuous
 62
     7
370
    25
100
AcDbLine
 10
-62.7889821813
 20
-31.611509138
 30
0.0
 11
-62.8548127549
 21
-31.3187953948
 31
0.0
  0
SPLINE
  5
E3
330
1F
100
AcDbEntity
  8
0
  6
Continuous
 62
     7
370
    25
100
AcDbSpline
210
0.0
220
0.0
230
1.0
 70
     8
 71
     3
 72
     8
 73
     4
 74
     0
 42
0.00000001
 43
0.00000001
 40
0.0
 40
0.0
 40
0.0
 40
0.0
 40
1.0
 40
1.0
 40
1.0
 40
1.0
 10
-62.85481275494012
 20
-31.31879539483075
 30
0.0
 10
-63.21809107303067
 20
-29.70348885270608
 30
0.0
 10
-64.53738373692468
 20
-28.36817242185779
 30
0.0
 10
-65.88441305665356
 20
-27.13444622909453
 30
0.0
  0
ARC
  5
E4
330
1F
100
AcDbEntity
  8
0
  6
Continuous
 62
     7
370
    25
100
AcDbCircle
 10
-56.6830789578
 20
-58.8256981892
 30
0.0
 40
33.00000000000124
100
AcDbArc
 50
106.1902868007
 51
109.8097131993
  0
SPLINE
  5
E5
330
1F
100
AcDbEntity
  8
0
  6
Continuous
 62
     7
370
    25
100
AcDbSpline
210
0.0
220
0.0
230
1.0
 70
     8
 71
     3
 72
     8
 73
     4
 74
     0
 42
0.00000001
 43
0.00000001
 40
0.0
 40
0.0
 40
0.0
 40
0.0
 40
1.0
 40
1.0
 40
1.0
 40
1.0
 10
-67.86669382966826
 20
-27.7785282957108
 30
0.0
 10
-68.23129737976998
 20
-29.56839772060127
 30
0.0
 10
-68.51374826022737
 20
-31.42415217732392
 30
0.0
 10
-67.85819322985577
 20
-32.944492258878
 30
0.0
  0
LINE
  5
E6
330
1F
100
AcDbEntity
  8
0
  6
Continuous
 62
     7
370
    25
100
AcDbLine
 10
-67.8581932299
 20
-32.9444922589
 30
0.0
 11
-67.7393984613
 21
-33.2199968919
 31
0.0
  0
ARC
  5
E7
330
1F
100
AcDbEntity
  8
0
  6
Continuous
 62
     7
370
    25
100
AcDbCircle
 10
-69.1971556709
 20
-33.8485668306
 30
0.0
 40
1.58750000000003
100
AcDbArc
 50
296.611848459
 51
23.3252093317
  0
ARC
  5
E8
330
1F
100
AcDbEntity
  8
0
  6
Continuous
 62
     7
370
    25
100
AcDbCircle
 10
-56.6830789578
 20
-58.8256981892
 30
0.0
 40
26.34920000000109
100
AcDbArc
 50
116.611848459
 51
117.388151541
  0
ARC
  5
E9
330
1F
100
AcDbEntity
  8
0
  6
Continuous
 62
     7
370
    25
100
AcDbCircle
 10
-69.5344129596
 20
-34.0204080022
 30
0.0
 40
1.587500000000016
100
AcDbArc
 50
210.6747906683
 51
297.388151541
  0
LINE
  5
EA
330
1F
100
AcDbEntity
  8
0
  6
Continuous
 62
     7
370
    25
100
AcDbLine
 10
-70.8997849113
 20
-34.8302942184
 30
0.0
 11
-71.0528470285
 21
-34.5722496716
 31
0.0
  0
SPLINE
  5
EB
330
1F
100
AcDbEntity
  8
0
  6
Continuous
 62
     7
370
    25
100
AcDbSpline
210
0.0
220
0.0
230
1.0
 70
     8
 71
     3
 72
     8
 73
     4
 74
     0
 42
0.00000001
 43
0.00000001
 40
0.0
 40
0.0
 40
0.0
 40
0.0
 40
1.0
 40
1.0
 40
1.0
 40
1.0
 10
-71.05284702849409
 20
-34.57224967160825
 30
0.0
 10
-71.89750241278331
 20
-33.14826103288601
 30
0.0
 10
-73.56485976768087
 20
-32.28598349370741
 30
0.0
 10
-75.22720313981955
 20
-31.52889511047356
 30
0.0
  0
ARC
  5
EC
330
1F
100
AcDbEntity
  8
0
  6
Continuous
 62
     7
370
    25
100
AcDbCircle
 10
-56.6830789578
 20
-58.8256981892
 30
0.0
 40
33.00000000000105
100
AcDbArc
 50
124.1902868007
 51
127.8097131993
  0
SPLINE
  5
ED
330
1F
100
AcDbEntity
  8
0
  6
Continuous
 62
     7
370
    25
100
AcDbSpline
210
0.0
220
0.0
230
1.0
 70
     8
 71
     3
 72
     8
 73
     4
 74
     0
 42
0.00000001
 43
0.00000001
 40
0.0
 40
0.0
 40
0.0
 40
0.0
 40
1.0
 40
1.0
 40
1.0
 40
1.0
 10
-76.91343188176526
 20
-32.75401200344211
 30
0.0
 10
-76.70709039394453
 20
-34.56894767648565
 30
0.0
 10
-76.40225747982542
 20
-36.42115716733694
 30
0.0
 10
-75.30897667397392
 20
-37.66450886375372
 30
0.0
  0
LINE
  5
EE
330
1F
100
AcDbEntity
  8
0
  6
Continuous
 62
     7
370
    25
100
AcDbLine
 10
-75.308976674
 20
-37.6645088638
 30
0.0
 11
-75.1108605216
 21
-37.889819738
 31
0.0
  0
ARC
  5
EF
330
1F
100
AcDbEntity
  8
0
  6
Continuous
 62
     7
370
    25
100
AcDbCircle
 10
-76.3030312218
 20
-38.9380970255
 30
0.0
 40
1.587500000000015
100
AcDbArc
 50
314.611848459
 51
41.3252093317
  0
ARC
  5
F0
330
1F
100
AcDbEntity
  8
0
  6
Continuous
 62
     7
370
    25
100
AcDbCircle
 10
-56.6830789578
 20
-58.8256981892
 30
0.0
 40
26.34920000000088
100
AcDbArc
 50
134.611848459
 51
135.388151541
  0
ARC
  5
F1
330
1F
100
AcDbEntity
  8
0
  6
Continuous
 62
     7
370
    25
100
AcDbCircle
 10
-76.5706801215
 20
-39.2057459252
 30
0.0
 40
1.587500000000013
100
AcDbArc
 50
228.6747906683
 51
315.388151541
  0
LINE
  5
F2
330
1F
100
AcDbEntity
  8
0
  6
Continuous
 62
     7
370
    25
100
AcDbLine
 10
-77.618957409
 20
-40.3979166254
 30
0.0
 11
-77.8442682832
 21
-40.199800473
 31
0.0
  0
SPLINE
  5
F3
330
1F
100
AcDbEntity
  8
0
  6
Continuous
 62
     7
370
    25
100
AcDbSpline
210
0.0
220
0.0
230
1.0
 70
     8
 71
     3
 72
     8
 73
     4
 74
     0
 42
0.00000001
 43
0.00000001
 40
0.0
 40
0.0
 40
0.0
 40
0.0
 40
1.0
 40
1.0
 40
1.0
 40
1.0
 10
-77.84426828322248
 20
-40.19980047300226
 30
0.0
 10
-79.08761997963697
 20
-39.1065196671505
 30
0.0
 10
-80.93982947048059
 20
-38.80168675301912
 30
0.0
 10
-82.7547651435342
 20
-38.59534526521102
 30
0.0
  0
ARC
  5
F4
330
1F
100
AcDbEntity
  8
0
  6
Continuous
 62
     7
370
    25
100
AcDbCircle
 10
-56.6830789578
 20
-58.8256981892
 30
0.0
 40
33.0000000000008
100
AcDbArc
 50
142.1902868007
 51
145.8097131993
  0
SPLINE
  5
F5
330
1F
100
AcDbEntity
  8
0
  6
Continuous
 62
     7
370
    25
100
AcDbSpline
210
0.0
220
0.0
230
1.0
 70
     8
 71
     3
 72
     8
 73
     4
 74
     0
 42
0.00000001
 43
0.00000001
 40
0.0
 40
0.0
 40
0.0
 40
0.0
 40
1.0
 40
1.0
 40
1.0
 40
1.0
 10
-83.97988203650276
 20
-40.28157400715681
 30
0.0
 10
-83.22279365325763
 20
-41.94391737927506
 30
0.0
 10
-82.36051611409577
 20
-43.61127473419165
 30
0.0
 10
-80.93652747536794
 20
-44.45593011848207
 30
0.0
  0
LINE
  5
F6
330
1F
100
AcDbEntity
  8
0
  6
Continuous
 62
     7
370
    25
100
AcDbLine
 10
-80.9365274754
 20
-44.4559301185
 30
0.0
 11
-80.6784829285
 21
-44.6089922356
 31
0.0
  0
ARC
  5
F7
330
1F
100
AcDbEntity
  8
0
  6
Continuous
 62
     7
370
    25
100
AcDbCircle
 10
-81.4883691448
 20
-45.9743641874
 30
0.0
 40
1.58750000000002
100
AcDbArc
 50
332.611848459
 51
59.3252093317
  0
ARC
  5
F8
330
1F
100
AcDbEntity
  8
0
  6
Continuous
 62
     7
370
    25
100
AcDbCircle
 10
-56.6830789578
 20
-58.8256981892
 30
0.0
 40
26.34920000000061
100
AcDbArc
 50
152.611848459
 51
153.388151541
  0
ARC
  5
F9
330
1F
100
AcDbEntity
  8
0
  6
Continuous
 62
     7
370
    25
100
AcDbCircle
 10
-81.6602103164
 20
-46.311621476
 30
0.0
 40
1.587500000000021
100
AcDbArc
 50
246.6747906683
 51
333.388151541
  0
LINE
  5
FA
330
1F
100
AcDbEntity
  8
0
  6
Continuous
 62
     7
370
    25
100
AcDbLine
 10
-82.2887802551
 20
-47.7693786857
 30
0.0
 11
-82.5642848881
 21
-47.6505839171
 31
0.0
  0
SPLINE
  5
FB
330
1F
100
AcDbEntity
  8
0
  6
Continuous
 62
     7
370
    25
100
AcDbSpline
210
0.0
220
0.0
230
1.0
 70
     8
 71
     3
 72
     8
 73
     4
 74
     0
 42
0.00000001
 43
0.00000001
 40
0.0
 40
0.0
 40
0.0
 40
0.0
 40
1.0
 40
1.0
 40
1.0
 40
1.0
 10
-82.56428488809821
 20
-47.65058391712035
 30
0.0
 10
-84.0846249696566
 20
-46.99502888675151
 30
0.0
 10
-85.94037942637443
 20
-47.27747976719913
 30
0.0
 10
-87.73024885126546
 20
-47.64208331730792
 30
0.0
  0
ARC
  5
FC
330
1F
100
AcDbEntity
  8
0
  6
Continuous
 62
     7
370
    25
100
AcDbCircle
 10
-56.6830789578
 20
-58.8256981892
 30
0.0
 40
33.00000000000051
100
AcDbArc
 50
160.1902868007
 51
163.8097131993
  0
SPLINE
  5
FD
330
1F
100
AcDbEntity
  8
0
  6
Continuous
 62
     7
370
    25
100
AcDbSpline
210
0.0
220
0.0
230
1.0
 70
     8
 71
     3
 72
     8
 73
     4
 74
     0
 42
0.00000001
 43
0.00000001
 40
0.0
 40
0.0
 40
0.0
 40
0.0
 40
1.0
 40
1.0
 40
1.0
 40
1.0
 10
-88.37433091788178
 20
-49.62436409032274
 30
0.0
 10
-87.14060472511191
 20
-50.97139341003177
 30
0.0
 10
-85.80528829426439
 20
-52.29068607394329
 30
0.0
 10
-84.18998175214551
 20
-52.65396439203599
 30
0.0
  0
LINE
  5
FE
330
1F
100
AcDbEntity
  8
0
  6
Continuous
 62
     7
370
    25
100
AcDbLine
 10
-84.1899817521
 20
-52.653964392
 30
0.0
 11
-83.897268009
 21
-52.7197949657
 31
0.0
  0
ARC
  5
FF
330
1F
100
AcDbEntity
  8
0
  6
Continuous
 62
     7
370
    25
100
AcDbCircle
 10
-84.2455924357
 20
-54.2686094619
 30
0.0
 40
1.587500000000035
100
AcDbArc
 50
350.611848459
 51
77.3252093317
  0
ARC
  5
100
330
1F
100
AcDbEntity
  8
0
  6
Continuous
 62
     7
370
    25
100
AcDbCircle
 10
-56.6830789578
 20
-58.8256981892
 30
0.0
 40
26.34920000000028
100
AcDbArc
 50
170.611848459
 51
171.388151541
  0
ARC
  5
101
330
1F
100
AcDbEntity
  8
0
  6
Continuous
 62
     7
370
    25
100
AcDbCircle
 10
-84.304804868
 20
-54.6424620463
 30
0.0
 40
1.587500000000011
100
AcDbArc
 50
264.6747906683
 51
351.388151541
  0
LINE
  5
102
330
1F
100
AcDbEntity
  8
0
  6
Continuous
 62
     7
370
    25
100
AcDbLine
 10
-84.4521386527
 20
-56.2231103329
 30
0.0
 11
-84.7508687315
 21
-56.1952654078
 31
0.0
  0
CIRCLE
  5
103
330
1F
100
AcDbEntity
  8
0
  6
Continuous
 62
     7
370
    25
100
AcDbCircle
 10
-56.6830789578
 20
-58.8256981892
 30
0.0
 40
4.000000000000249
  0
SPLINE
  5
104
330
1F
100
AcDbEntity
  8
0
  6
Continuous
 62
     7
370
    25
100
AcDbSpline
210
0.0
220
0.0
230
1.0
 70
     8
 71
     3
 72
     8
 73
     4
 74
     0
 42
0.00000001
 43
0.00000001
 40
0.0
 40
0.0
 40
0.0
 40
0.0
 40
1.0
 40
1.0
 40
1.0
 40
1.0
 10
-34.77479264144814
 20
-11.52743848027699
 30
0.0
 10
-36.27225090388975
 20
-11.34822820169378
 30
0.0
 10
-37.8204468904278
 20
-12.17210842567969
 30
0.0
 10
-39.2638006567613
 20
-13.06628962552364
 30
0.0
  0
ARC
  5
105
330
1F
100
AcDbEntity
  8
0
  6
Continuous
 62
     7
370
    25
100
AcDbCircle
 10
-13.7828064362
 20
-14.0506338402
 30
0.0
 40
25.50000000000007
100
AcDbArc
 50
177.7877339191
 51
182.2122660809
  0
SPLINE
  5
106
330
1F
100
AcDbEntity
  8
0
  6
Continuous
 62
     7
370
    25
100
AcDbSpline
210
0.0
220
0.0
230
1.0
 70
     8
 71
     3
 72
     8
 73
     4
 74
     0
 42
0.00000001
 43
0.00000001
 40
0.0
 40
0.0
 40
0.0
 40
0.0
 40
1.0
 40
1.0
 40
1.0
 40
1.0
 10
-39.2638006567613
 20
-15.03497805478997
 30
0.0
 10
-37.82044689042757
 20
-15.92915925463147
 30
0.0
 10
-36.27225090388976
 20
-16.75303947861949
 30
0.0
 10
-34.77479264144814
 20
-16.57382920003658
 30
0.0
  0
LINE
  5
107
330
1F
100
AcDbEntity
  8
0
  6
Continuous
 62
     7
370
    25
100
AcDbLine
 10
-34.7747926414
 20
-16.5738292
 30
0.0
 11
-34.0112587675
 21
-16.4824522838
 31
0.0
  0
ARC
  5
108
330
1F
100
AcDbEntity
  8
0
  6
Continuous
 62
     7
370
    25
100
AcDbCircle
 10
-33.8226187143
 20
-18.0587045416
 30
0.0
 40
1.587500000000006
100
AcDbArc
 50
11.3102300558
 51
96.8244898903
  0
ARC
  5
109
330
1F
100
AcDbEntity
  8
0
  6
Continuous
 62
     7
370
    25
100
AcDbCircle
 10
-13.7828064362
 20
-14.0506338402
 30
0.0
 40
18.84920000000013
100
AcDbArc
 50
191.3102300558
 51
192.6897699442
  0
ARC
  5
10A
330
1F
100
AcDbEntity
  8
0
  6
Continuous
 62
     7
370
    25
100
AcDbCircle
 10
-33.7203151372
 20
-18.5400050308
 30
0.0
 40
1.587499999999996
100
AcDbArc
 50
287.1755101097
 51
12.6897699442
  0
LINE
  5
10B
330
1F
100
AcDbEntity
  8
0
  6
Continuous
 62
     7
370
    25
100
AcDbLine
 10
-33.2515268489
 20
-20.056709943
 30
0.0
 11
-33.9862160914
 21
-20.283790181
 31
0.0
  0
SPLINE
  5
10C
330
1F
100
AcDbEntity
  8
0
  6
Continuous
 62
     7
370
    25
100
AcDbSpline
210
0.0
220
0.0
230
1.0
 70
     8
 71
     3
 72
     8
 73
     4
 74
     0
 42
0.00000001
 43
0.00000001
 40
0.0
 40
0.0
 40
0.0
 40
0.0
 40
1.0
 40
1.0
 40
1.0
 40
1.0
 10
-33.9862160914045
 20
-20.28379018100058
 30
0.0
 10
-35.42710367218271
 20
-20.72914459184914
 30
0.0
 10
-36.50634880661919
 20
-22.11150466651559
 30
0.0
 10
-37.46122182410415
 20
-23.51544470561749
 30
0.0
  0
ARC
  5
10D
330
1F
100
AcDbEntity
  8
0
  6
Continuous
 62
     7
370
    25
100
AcDbCircle
 10
-13.7828064362
 20
-14.0506338402
 30
0.0
 40
25.50000000000021
100
AcDbArc
 50
201.7877339191
 51
206.2122660809
  0
SPLINE
  5
10E
330
1F
100
AcDbEntity
  8
0
  6
Continuous
 62
     7
370
    25
100
AcDbSpline
210
0.0
220
0.0
230
1.0
 70
     8
 71
     3
 72
     8
 73
     4
 74
     0
 42
0.00000001
 43
0.00000001
 40
0.0
 40
0.0
 40
0.0
 40
0.0
 40
1.0
 40
1.0
 40
1.0
 40
1.0
 10
-36.66048410112213
 20
-25.31393107768744
 30
0.0
 10
-34.97821856459318
 20
-25.54374138542007
 30
0.0
 10
-33.22876887694601
 20
-25.66668538330124
 30
0.0
 10
-31.93366407040063
 20
-24.89389750052673
 30
0.0
  0
LINE
  5
10F
330
1F
100
AcDbEntity
  8
0
  6
Continuous
 62
     7
370
    25
100
AcDbLine
 10
-31.9336640704
 20
-24.8938975005
 30
0.0
 11
-31.2733075083
 21
-24.499863329
 31
0.0
  0
ARC
  5
110
330
1F
100
AcDbEntity
  8
0
  6
Continuous
 62
     7
370
    25
100
AcDbCircle
 10
-30.4598566926
 20
-25.8631145973
 30
0.0
 40
1.587499999999996
100
AcDbArc
 50
35.3102300558
 51
120.8244898903
  0
ARC
  5
111
330
1F
100
AcDbEntity
  8
0
  6
Continuous
 62
     7
370
    25
100
AcDbCircle
 10
-13.7828064362
 20
-14.0506338402
 30
0.0
 40
18.84920000000026
100
AcDbArc
 50
215.3102300558
 51
216.6897699442
  0
ARC
  5
112
330
1F
100
AcDbEntity
  8
0
  6
Continuous
 62
     7
370
    25
100
AcDbCircle
 10
-30.1706351791
 20
-26.2611938594
 30
0.0
 40
1.587499999999998
100
AcDbArc
 50
311.1755101097
 51
36.6897699442
  0
LINE
  5
113
330
1F
100
AcDbEntity
  8
0
  6
Continuous
 62
     7
370
    25
100
AcDbLine
 10
-29.1254763032
 20
-27.4560993678
 30
0.0
 11
-29.7042864698
 21
-27.9623725239
 31
0.0
  0
SPLINE
  5
114
330
1F
100
AcDbEntity
  8
0
  6
Continuous
 62
     7
370
    25
100
AcDbSpline
210
0.0
220
0.0
230
1.0
 70
     8
 71
     3
 72
     8
 73
     4
 74
     0
 42
0.00000001
 43
0.00000001
 40
0.0
 40
0.0
 40
0.0
 40
0.0
 40
1.0
 40
1.0
 40
1.0
 40
1.0
 10
-29.70428646976528
 20
-27.96237252394464
 30
0.0
 10
-30.83946081611033
 20
-28.95528580067083
 30
0.0
 10
-31.26314381006668
 20
-30.65710311074622
 30
0.0
 10
-31.56442985923165
 20
-32.32804800196598
 30
0.0
  0
ARC
  5
115
330
1F
100
AcDbEntity
  8
0
  6
Continuous
 62
     7
370
    25
100
AcDbCircle
 10
-13.7828064362
 20
-14.0506338402
 30
0.0
 40
25.50000000000032
100
AcDbArc
 50
225.7877339191
 51
230.2122660809
  0
SPLINE
  5
116
330
1F
100
AcDbEntity
  8
0
  6
Continuous
 62
     7
370
    25
100
AcDbSpline
210
0.0
220
0.0
230
1.0
 70
     8
 71
     3
 72
     8
 73
     4
 74
     0
 42
0.00000001
 43
0.00000001
 40
0.0
 40
0.0
 40
0.0
 40
0.0
 40
1.0
 40
1.0
 40
1.0
 40
1.0
 10
-30.10140924004506
 20
-33.64535768437272
 30
0.0
 10
-28.47111092748727
 20
-33.17106081003298
 30
0.0
 10
-26.82290328298065
 20
-32.57181044765556
 30
0.0
 10
-25.9540873190388
 20
-31.33906700618109
 30
0.0
  0
LINE
  5
117
330
1F
100
AcDbEntity
  8
0
  6
Continuous
 62
     7
370
    25
100
AcDbLine
 10
-25.954087319
 20
-31.3390670062
 30
0.0
 11
-25.5110897175
 21
-30.7105076673
 31
0.0
  0
ARC
  5
118
330
1F
100
AcDbEntity
  8
0
  6
Continuous
 62
     7
370
    25
100
AcDbCircle
 10
-24.2134811753
 20
-31.625039417
 30
0.0
 40
1.587499999999998
100
AcDbArc
 50
59.3102300558
 51
144.8244898903
  0
ARC
  5
119
330
1F
100
AcDbEntity
  8
0
  6
Continuous
 62
     7
370
    25
100
AcDbCircle
 10
-13.7828064362
 20
-14.0506338402
 30
0.0
 40
18.84920000000032
100
AcDbArc
 50
239.3102300558
 51
240.6897699442
  0
ARC
  5
11A
330
1F
100
AcDbEntity
  8
0
  6
Continuous
 62
     7
370
    25
100
AcDbCircle
 10
-23.7873507526
 20
-31.8710659312
 30
0.0
 40
1.587499999999998
100
AcDbArc
 50
335.1755101097
 51
60.6897699442
  0
LINE
  5
11B
330
1F
100
AcDbEntity
  8
0
  6
Continuous
 62
     7
370
    25
100
AcDbLine
 10
-22.3465387537
 20
-32.5375620181
 30
0.0
 11
-22.6693883082
 21
-33.2354888643
 31
0.0
  0
SPLINE
  5
11C
330
1F
100
AcDbEntity
  8
0
  6
Continuous
 62
     7
370
    25
100
AcDbSpline
210
0.0
220
0.0
230
1.0
 70
     8
 71
     3
 72
     8
 73
     4
 74
     0
 42
0.00000001
 43
0.00000001
 40
0.0
 40
0.0
 40
0.0
 40
0.0
 40
1.0
 40
1.0
 40
1.0
 40
1.0
 10
-22.66938830822127
 20
-33.23548886428348
 30
0.0
 10
-23.30256746291665
 20
-34.60427728100755
 30
0.0
 10
-22.99742967769888
 20
-36.33129215305564
 30
0.0
 10
-22.59303366354344
 20
-37.98032034464275
 30
0.0
  0
ARC
  5
11D
330
1F
100
AcDbEntity
  8
0
  6
Continuous
 62
     7
370
    25
100
AcDbCircle
 10
-13.7828064362
 20
-14.0506338402
 30
0.0
 40
25.50000000000033
100
AcDbArc
 50
249.7877339191
 51
254.2122660809
  0
SPLINE
  5
11E
330
1F
100
AcDbEntity
  8
0
  6
Continuous
 62
     7
370
    25
100
AcDbSpline
210
0.0
220
0.0
230
1.0
 70
     8
 71
     3
 72
     8
 73
     4
 74
     0
 42
0.00000001
 43
0.00000001
 40
0.0
 40
0.0
 40
0.0
 40
0.0
 40
1.0
 40
1.0
 40
1.0
 40
1.0
 10
-20.72069970433476
 20
-38.58867852591539
 30
0.0
 10
-19.42426200477924
 20
-37.49228470792998
 30
0.0
 10
-18.16228647864969
 20
-36.27445581696833
 30
0.0
 10
-17.86998553042252
 20
-34.79490935694521
 30
0.0
  0
LINE
  5
11F
330
1F
100
AcDbEntity
  8
0
  6
Continuous
 62
     7
370
    25
100
AcDbLine
 10
-17.8699855304
 20
-34.7949093569
 30
0.0
 11
-17.7209451992
 21
-34.0405084707
 31
0.0
  0
ARC
  5
120
330
1F
100
AcDbEntity
  8
0
  6
Continuous
 62
     7
370
    25
100
AcDbCircle
 10
-16.1635472359
 20
-34.348189854
 30
0.0
 40
1.587500000000001
100
AcDbArc
 50
83.3102300558
 51
168.8244898903
  0
ARC
  5
121
330
1F
100
AcDbEntity
  8
0
  6
Continuous
 62
     7
370
    25
100
AcDbCircle
 10
-13.7828064362
 20
-14.0506338402
 30
0.0
 40
18.84920000000032
100
AcDbArc
 50
263.3102300558
 51
264.6897699442
  0
ARC
  5
122
330
1F
100
AcDbEntity
  8
0
  6
Continuous
 62
     7
370
    25
100
AcDbCircle
 10
-15.6741897254
 20
-34.3996234009
 30
0.0
 40
1.587499999999999
100
AcDbArc
 50
359.1755101097
 51
84.6897699442
  0
LINE
  5
123
330
1F
100
AcDbEntity
  8
0
  6
Continuous
 62
     7
370
    25
100
AcDbLine
 10
-14.0868540875
 20
-34.4224668379
 30
0.0
 11
-14.0979194089
 21
-35.191369482
 31
0.0
  0
SPLINE
  5
124
330
1F
100
AcDbEntity
  8
0
  6
Continuous
 62
     7
370
    25
100
AcDbSpline
210
0.0
220
0.0
230
1.0
 70
     8
 71
     3
 72
     8
 73
     4
 74
     0
 42
0.00000001
 43
0.00000001
 40
0.0
 40
0.0
 40
0.0
 40
0.0
 40
1.0
 40
1.0
 40
1.0
 40
1.0
 10
-14.09791940894689
 20
-35.19136948201447
 30
0.0
 10
-14.11962094389267
 20
-36.6993570864343
 30
0.0
 10
-13.13842347465323
 20
-38.15295295963707
 30
0.0
 10
-12.09826914184983
 20
-39.4949324963168
 30
0.0
  0
ARC
  5
125
330
1F
100
AcDbEntity
  8
0
  6
Continuous
 62
     7
370
    25
100
AcDbCircle
 10
-13.7828064362
 20
-14.0506338402
 30
0.0
 40
25.50000000000031
100
AcDbArc
 50
273.7877339191
 51
278.2122660809
  0
SPLINE
  5
126
330
1F
100
AcDbEntity
  8
0
  6
Continuous
 62
     7
370
    25
100
AcDbSpline
210
0.0
220
0.0
230
1.0
 70
     8
 71
     3
 72
     8
 73
     4
 74
     0
 42
0.00000001
 43
0.00000001
 40
0.0
 40
0.0
 40
0.0
 40
0.0
 40
1.0
 40
1.0
 40
1.0
 40
1.0
 10
-10.14036539378618
 20
-39.28914852015276
 30
0.0
 10
-9.401954163262275
 20
-37.76023421006857
 30
0.0
 10
-8.744417788656168
 20
-36.1344004694057
 30
0.0
 10
-9.079173345562717
 20
-34.66387801502984
 30
0.0
  0
LINE
  5
127
330
1F
100
AcDbEntity
  8
0
  6
Continuous
 62
     7
370
    25
100
AcDbLine
 10
-9.0791733456
 20
-34.663878015
 30
0.0
 11
-9.249860712
 21
-33.9140783482
 31
0.0
  0
ARC
  5
128
330
1F
100
AcDbEntity
  8
0
  6
Continuous
 62
     7
370
    25
100
AcDbCircle
 10
-7.7019615838
 20
-33.5617084587
 30
0.0
 40
1.587500000000011
100
AcDbArc
 50
107.3102300558
 51
192.8244898903
  0
ARC
  5
129
330
1F
100
AcDbEntity
  8
0
  6
Continuous
 62
     7
370
    25
100
AcDbCircle
 10
-13.7828064362
 20
-14.0506338402
 30
0.0
 40
18.84920000000025
100
AcDbArc
 50
287.3102300558
 51
288.6897699442
  0
ARC
  5
12A
330
1F
100
AcDbEntity
  8
0
  6
Continuous
 62
     7
370
    25
100
AcDbCircle
 10
-7.2339913448
 20
-33.4096557108
 30
0.0
 40
1.587500000000002
100
AcDbArc
 50
23.1755101097
 51
108.6897699442
  0
LINE
  5
12B
330
1F
100
AcDbEntity
  8
0
  6
Continuous
 62
     7
370
    25
100
AcDbLine
 10
-5.7745968201
 20
-32.7848966601
 30
0.0
 11
-5.471964614
 21
-33.4918248497
 31
0.0
  0
SPLINE
  5
12C
330
1F
100
AcDbEntity
  8
0
  6
Continuous
 62
     7
370
    25
100
AcDbSpline
210
0.0
220
0.0
230
1.0
 70
     8
 71
     3
 72
     8
 73
     4
 74
     0
 42
0.00000001
 43
0.00000001
 40
0.0
 40
0.0
 40
0.0
 40
0.0
 40
1.0
 40
1.0
 40
1.0
 40
1.0
 10
-5.471964613977029
 20
-33.49182484971433
 30
0.0
 10
-4.878436136628968
 20
-34.87826688538569
 30
0.0
 10
-3.390836939697327
 20
-35.8071038277664
 30
0.0
 10
-1.89477642189421
 20
-36.60999425614423
 30
0.0
  0
ARC
  5
12D
330
1F
100
AcDbEntity
  8
0
  6
Continuous
 62
     7
370
    25
100
AcDbCircle
 10
-13.7828064362
 20
-14.0506338402
 30
0.0
 40
25.50000000000021
100
AcDbArc
 50
297.7877339191
 51
302.2122660809
  0
SPLINE
  5
12E
330
1F
100
AcDbEntity
  8
0
  6
Continuous
 62
     7
370
    25
100
AcDbSpline
210
0.0
220
0.0
230
1.0
 70
     8
 71
     3
 72
     8
 73
     4
 74
     0
 42
0.00000001
 43
0.00000001
 40
0.0
 40
0.0
 40
0.0
 40
0.0
 40
1.0
 40
1.0
 40
1.0
 40
1.0
 10
-0.1898422300130242
 20
-35.62565004151104
 30
0.0
 10
-0.1371354785222546
 20
-33.92857841329301
 30
0.0
 10
-0.1977322681504415
 20
-32.17586124692298
 30
0.0
 10
-1.101662053243179
 20
-30.96862948983453
 30
0.0
  0
LINE
  5
12F
330
1F
100
AcDbEntity
  8
0
  6
Continuous
 62
     7
370
    25
100
AcDbLine
 10
-1.1016620532
 20
-30.9686294898
 30
0.0
 11
-1.562563721
 21
-30.3530782165
 31
0.0
  0
ARC
  5
130
330
1F
100
AcDbEntity
  8
0
  6
Continuous
 62
     7
370
    25
100
AcDbCircle
 10
-0.2918092495
 20
-29.4015850094
 30
0.0
 40
1.587499999999997
100
AcDbArc
 50
131.3102300558
 51
216.8244898903
  0
ARC
  5
131
330
1F
100
AcDbEntity
  8
0
  6
Continuous
 62
     7
370
    25
100
AcDbCircle
 10
-13.7828064362
 20
-14.0506338402
 30
0.0
 40
18.84920000000016
100
AcDbArc
 50
311.3102300558
 51
312.6897699442
  0
ARC
  5
132
330
1F
100
AcDbEntity
  8
0
  6
Continuous
 62
     7
370
    25
100
AcDbCircle
 10
0.0738574124
 20
-29.0723372681
 30
0.0
 40
1.587500000000006
100
AcDbArc
 50
47.1755101097
 51
132.6897699442
  0
LINE
  5
133
330
1F
100
AcDbEntity
  8
0
  6
Continuous
 62
     7
370
    25
100
AcDbLine
 10
1.1529682523
 20
-27.9080022453
 30
0.0
 11
1.7169701283
 21
-28.4307216742
 31
0.0
  0
SPLINE
  5
134
330
1F
100
AcDbEntity
  8
0
  6
Continuous
 62
     7
370
    25
100
AcDbSpline
210
0.0
220
0.0
230
1.0
 70
     8
 71
     3
 72
     8
 73
     4
 74
     0
 42
0.00000001
 43
0.00000001
 40
0.0
 40
0.0
 40
0.0
 40
0.0
 40
1.0
 40
1.0
 40
1.0
 40
1.0
 10
1.716970128298865
 20
-28.43072167418602
 30
0.0
 10
2.823102152169952
 20
-29.45588971771322
 30
0.0
 10
4.559883661228086
 20
-29.69936338371304
 30
0.0
 10
6.25316790922184
 20
-29.82433765469202
 30
0.0
  0
ARC
  5
135
330
1F
100
AcDbEntity
  8
0
  6
Continuous
 62
     7
370
    25
100
AcDbCircle
 10
-13.7828064362
 20
-14.0506338402
 30
0.0
 40
25.50000000000011
100
AcDbArc
 50
321.7877339191
 51
326.2122660809
  0
SPLINE
  5
136
330
1F
100
AcDbEntity
  8
0
  6
Continuous
 62
     7
370
    25
100
AcDbSpline
210
0.0
220
0.0
230
1.0
 70
     8
 71
     3
 72
     8
 73
     4
 74
     0
 42
0.00000001
 43
0.00000001
 40
0.0
 40
0.0
 40
0.0
 40
0.0
 40
1.0
 40
1.0
 40
1.0
 40
1.0
 10
7.410333934303516
 20
-28.23163525878612
 30
0.0
 10
6.768222730588207
 20
-26.65984541437433
 30
0.0
 10
5.999970512171463
 20
-25.08330554329062
 30
0.0
 10
4.683164170679158
 20
-24.34810582164448
 30
0.0
  0
LINE
  5
137
330
1F
100
AcDbEntity
  8
0
  6
Continuous
 62
     7
370
    25
100
AcDbLine
 10
4.6831641707
 20
-24.3481058216
 30
0.0
 11
4.0117422871
 21
-23.9732373491
 31
0.0
  0
ARC
  5
138
330
1F
100
AcDbEntity
  8
0
  6
Continuous
 62
     7
370
    25
100
AcDbCircle
 10
4.7856271093
 20
-22.5871426438
 30
0.0
 40
1.587500000000002
100
AcDbArc
 50
155.3102300558
 51
240.8244898903
  0
ARC
  5
139
330
1F
100
AcDbEntity
  8
0
  6
Continuous
 62
     7
370
    25
100
AcDbCircle
 10
-13.7828064362
 20
-14.0506338402
 30
0.0
 40
18.84920000000005
100
AcDbArc
 50
335.3102300558
 51
336.6897699442
  0
ARC
  5
13A
330
1F
100
AcDbEntity
  8
0
  6
Continuous
 62
     7
370
    25
100
AcDbCircle
 10
4.9857631063
 20
-22.1376298348
 30
0.0
 40
1.5875
100
AcDbArc
 50
71.1755101097
 51
156.6897699442
  0
LINE
  5
13B
330
1F
100
AcDbEntity
  8
0
  6
Continuous
 62
     7
370
    25
100
AcDbLine
 10
5.4980021938
 20
-20.635042943
 30
0.0
 11
6.2258526915
 21
-20.8831706732
 31
0.0
  0
SPLINE
  5
13C
330
1F
100
AcDbEntity
  8
0
  6
Continuous
 62
     7
370
    25
100
AcDbSpline
210
0.0
220
0.0
230
1.0
 70
     8
 71
     3
 72
     8
 73
     4
 74
     0
 42
0.00000001
 43
0.00000001
 40
0.0
 40
0.0
 40
0.0
 40
0.0
 40
1.0
 40
1.0
 40
1.0
 40
1.0
 10
6.225852691519441
 20
-20.88317067315733
 30
0.0
 10
7.653327986092971
 20
-21.36980385645397
 30
0.0
 10
9.338986506195127
 20
-20.88581543733585
 30
0.0
 10
10.93671025489788
 20
-20.31126436410619
 30
0.0
  0
ARC
  5
13D
330
1F
100
AcDbEntity
  8
0
  6
Continuous
 62
     7
370
    25
100
AcDbCircle
 10
-13.7828064362
 20
-14.0506338402
 30
0.0
 40
25.49999999999999
100
AcDbArc
 50
345.7877339191
 51
350.2122660809
  0
SPLINE
  5
13E
330
1F
100
AcDbEntity
  8
0
  6
Continuous
 62
     7
370
    25
100
AcDbSpline
210
0.0
220
0.0
230
1.0
 70
     8
 71
     3
 72
     8
 73
     4
 74
     0
 42
0.00000001
 43
0.00000001
 40
0.0
 40
0.0
 40
0.0
 40
0.0
 40
1.0
 40
1.0
 40
1.0
 40
1.0
 10
11.34602359492003
 20
-18.38559650042675
 30
0.0
 10
10.12012129652821
 20
-17.21086518318304
 30
0.0
 10
8.777051437229119
 20
-16.08310067350894
 30
0.0
 10
7.275056318591719
 20
-15.94705569825914
 30
0.0
  0
LINE
  5
13F
330
1F
100
AcDbEntity
  8
0
  6
Continuous
 62
     7
370
    25
100
AcDbLine
 10
7.2750563186
 20
-15.9470556983
 30
0.0
 11
6.5092091626
 21
-15.8776881909
 31
0.0
  0
ARC
  5
140
330
1F
100
AcDbEntity
  8
0
  6
Continuous
 62
     7
370
    25
100
AcDbCircle
 10
6.6524126192
 20
-14.2966603544
 30
0.0
 40
1.587500000000005
100
AcDbArc
 50
179.3102300558
 51
264.8244898903
  0
ARC
  5
141
330
1F
100
AcDbEntity
  8
0
  6
Continuous
 62
     7
370
    25
100
AcDbCircle
 10
-13.7828064362
 20
-14.0506338402
 30
0.0
 40
18.84919999999994
100
AcDbArc
 50
359.3102300558
 51
0.6897699442
  0
ARC
  5
142
330
1F
100
AcDbEntity
  8
0
  6
Continuous
 62
     7
370
    25
100
AcDbCircle
 10
6.6524126192
 20
-13.8046073259
 30
0.0
 40
1.587500000000001
100
AcDbArc
 50
95.1755101097
 51
180.6897699442
  0
LINE
  5
143
330
1F
100
AcDbEntity
  8
0
  6
Continuous
 62
     7
370
    25
100
AcDbLine
 10
6.5092091626
 20
-12.2235794894
 30
0.0
 11
7.2750563186
 21
-12.1542119821
 31
0.0
  0
SPLINE
  5
144
330
1F
100
AcDbEntity
  8
0
  6
Continuous
 62
     7
370
    25
100
AcDbSpline
210
0.0
220
0.0
230
1.0
 70
     8
 71
     3
 72
     8
 73
     4
 74
     0
 42
0.00000001
 43
0.00000001
 40
0.0
 40
0.0
 40
0.0
 40
0.0
 40
1.0
 40
1.0
 40
1.0
 40
1.0
 10
7.275056318591719
 20
-12.15421198205435
 30
0.0
 10
8.777051437229625
 20
-12.01816700680475
 30
0.0
 10
10.12012129652611
 20
-10.8904024971274
 30
0.0
 10
11.34602359492006
 20
-9.715671179886767
 30
0.0
  0
ARC
  5
145
330
1F
100
AcDbEntity
  8
0
  6
Continuous
 62
     7
370
    25
100
AcDbCircle
 10
-13.7828064362
 20
-14.0506338402
 30
0.0
 40
25.49999999999989
100
AcDbArc
 50
9.7877339191
 51
14.2122660809
  0
SPLINE
  5
146
330
1F
100
AcDbEntity
  8
0
  6
Continuous
 62
     7
370
    25
100
AcDbSpline
210
0.0
220
0.0
230
1.0
 70
     8
 71
     3
 72
     8
 73
     4
 74
     0
 42
0.00000001
 43
0.00000001
 40
0.0
 40
0.0
 40
0.0
 40
0.0
 40
1.0
 40
1.0
 40
1.0
 40
1.0
 10
10.9367102548979
 20
-7.790003316207326
 30
0.0
 10
9.338986506195186
 20
-7.215452242973849
 30
0.0
 10
7.653327986091755
 20
-6.731463823860029
 30
0.0
 10
6.225852691519465
 20
-7.218097007156164
 30
0.0
  0
LINE
  5
147
330
1F
100
AcDbEntity
  8
0
  6
Continuous
 62
     7
370
    25
100
AcDbLine
 10
6.2258526915
 20
-7.2180970072
 30
0.0
 11
5.4980021938
 21
-7.4662247373
 31
0.0
  0
ARC
  5
148
330
1F
100
AcDbEntity
  8
0
  6
Continuous
 62
     7
370
    25
100
AcDbCircle
 10
4.9857631063
 20
-5.9636378455
 30
0.0
 40
1.587500000000005
100
AcDbArc
 50
203.3102300558
 51
288.8244898903
  0
ARC
  5
149
330
1F
100
AcDbEntity
  8
0
  6
Continuous
 62
     7
370
    25
100
AcDbCircle
 10
-13.7828064362
 20
-14.0506338402
 30
0.0
 40
18.84919999999983
100
AcDbArc
 50
23.3102300558
 51
24.6897699442
  0
ARC
  5
14A
330
1F
100
AcDbEntity
  8
0
  6
Continuous
 62
     7
370
    25
100
AcDbCircle
 10
4.7856271093
 20
-5.5141250365
 30
0.0
 40
1.587499999999998
100
AcDbArc
 50
119.1755101097
 51
204.6897699442
  0
LINE
  5
14B
330
1F
100
AcDbEntity
  8
0
  6
Continuous
 62
     7
370
    25
100
AcDbLine
 10
4.0117422871
 20
-4.1280303312
 30
0.0
 11
4.6831641707
 21
-3.7531618587
 31
0.0
  0
SPLINE
  5
14C
330
1F
100
AcDbEntity
  8
0
  6
Continuous
 62
     7
370
    25
100
AcDbSpline
210
0.0
220
0.0
230
1.0
 70
     8
 71
     3
 72
     8
 73
     4
 74
     0
 42
0.00000001
 43
0.00000001
 40
0.0
 40
0.0
 40
0.0
 40
0.0
 40
1.0
 40
1.0
 40
1.0
 40
1.0
 10
4.683164170679188
 20
-3.753161858668993
 30
0.0
 10
5.999970512171063
 20
-3.017962137023488
 30
0.0
 10
6.768222730582321
 20
-1.441422265930757
 30
0.0
 10
7.410333934303612
 20
0.1303675784725709
 30
0.0
  0
ARC
  5
14D
330
1F
100
AcDbEntity
  8
0
  6
Continuous
 62
     7
370
    25
100
AcDbCircle
 10
-13.7828064362
 20
-14.0506338402
 30
0.0
 40
25.49999999999981
100
AcDbArc
 50
33.7877339191
 51
38.2122660809
  0
SPLINE
  5
14E
330
1F
100
AcDbEntity
  8
0
  6
Continuous
 62
     7
370
    25
100
AcDbSpline
210
0.0
220
0.0
230
1.0
 70
     8
 71
     3
 72
     8
 73
     4
 74
     0
 42
0.00000001
 43
0.00000001
 40
0.0
 40
0.0
 40
0.0
 40
0.0
 40
1.0
 40
1.0
 40
1.0
 40
1.0
 10
6.253167909221947
 20
1.723069974378468
 30
0.0
 10
4.559883661220841
 20
1.598095703408157
 30
0.0
 10
2.823102152169891
 20
1.354622037399247
 30
0.0
 10
1.716970128298906
 20
0.3294539938725376
 30
0.0
  0
LINE
  5
14F
330
1F
100
AcDbEntity
  8
0
  6
Continuous
 62
     7
370
    25
100
AcDbLine
 10
1.7169701283
 20
0.3294539939
 30
0.0
 11
1.1529682523
 21
-0.193265435
 31
0.0
  0
ARC
  5
150
330
1F
100
AcDbEntity
  8
0
  6
Continuous
 62
     7
370
    25
100
AcDbCircle
 10
0.0738574124
 20
0.9710695878
 30
0.0
 40
1.587500000000006
100
AcDbArc
 50
227.3102300558
 51
312.8244898903
  0
ARC
  5
151
330
1F
100
AcDbEntity
  8
0
  6
Continuous
 62
     7
370
    25
100
AcDbCircle
 10
-13.7828064362
 20
-14.0506338402
 30
0.0
 40
18.84919999999975
100
AcDbArc
 50
47.3102300558
 51
48.6897699442
  0
ARC
  5
152
330
1F
100
AcDbEntity
  8
0
  6
Continuous
 62
     7
370
    25
100
AcDbCircle
 10
-0.2918092495
 20
1.300317329
 30
0.0
 40
1.587499999999998
100
AcDbArc
 50
143.1755101097
 51
228.6897699442
  0
LINE
  5
153
330
1F
100
AcDbEntity
  8
0
  6
Continuous
 62
     7
370
    25
100
AcDbLine
 10
-1.562563721
 20
2.2518105362
 30
0.0
 11
-1.1016620532
 21
2.8673618095
 31
0.0
  0
SPLINE
  5
154
330
1F
100
AcDbEntity
  8
0
  6
Continuous
 62
     7
370
    25
100
AcDbSpline
210
0.0
220
0.0
230
1.0
 70
     8
 71
     3
 72
     8
 73
     4
 74
     0
 42
0.00000001
 43
0.00000001
 40
0.0
 40
0.0
 40
0.0
 40
0.0
 40
1.0
 40
1.0
 40
1.0
 40
1.0
 10
-1.101662053243129
 20
2.867361809521022
 30
0.0
 10
-0.19773226815024
 20
4.074593566609965
 30
0.0
 10
-0.1371354785411998
 20
5.827310732990535
 30
0.0
 10
-0.1898422300128022
 20
7.524382361197443
 30
0.0
  0
ARC
  5
155
330
1F
100
AcDbEntity
  8
0
  6
Continuous
 62
     7
370
    25
100
AcDbCircle
 10
-13.7828064362
 20
-14.0506338402
 30
0.0
 40
25.49999999999974
100
AcDbArc
 50
57.7877339191
 51
62.2122660809
  0
SPLINE
  5
156
330
1F
100
AcDbEntity
  8
0
  6
Continuous
 62
     7
370
    25
100
AcDbSpline
210
0.0
220
0.0
230
1.0
 70
     8
 71
     3
 72
     8
 73
     4
 74
     0
 42
0.00000001
 43
0.00000001
 40
0.0
 40
0.0
 40
0.0
 40
0.0
 40
1.0
 40
1.0
 40
1.0
 40
1.0
 10
-1.894776421894006
 20
8.508726575830664
 30
0.0
 10
-3.390836939712926
 20
7.705836147459133
 30
0.0
 10
-4.878436136628963
 20
6.776999205072959
 30
0.0
 10
-5.471964613976974
 20
5.390557169400818
 30
0.0
  0
LINE
  5
157
330
1F
100
AcDbEntity
  8
0
  6
Continuous
 62
     7
370
    25
100
AcDbLine
 10
-5.471964614
 20
5.3905571694
 30
0.0
 11
-5.7745968201
 21
4.6836289798
 31
0.0
  0
ARC
  5
158
330
1F
100
AcDbEntity
  8
0
  6
Continuous
 62
     7
370
    25
100
AcDbCircle
 10
-7.2339913448
 20
5.3083880305
 30
0.0
 40
1.587500000000002
100
AcDbArc
 50
251.3102300558
 51
336.8244898903
  0
ARC
  5
159
330
1F
100
AcDbEntity
  8
0
  6
Continuous
 62
     7
370
    25
100
AcDbCircle
 10
-13.7828064362
 20
-14.0506338402
 30
0.0
 40
18.8491999999997
100
AcDbArc
 50
71.3102300558
 51
72.6897699442
  0
ARC
  5
15A
330
1F
100
AcDbEntity
  8
0
  6
Continuous
 62
     7
370
    25
100
AcDbCircle
 10
-7.7019615838
 20
5.4604407784
 30
0.0
 40
1.587500000000003
100
AcDbArc
 50
167.1755101097
 51
252.6897699442
  0
LINE
  5
15B
330
1F
100
AcDbEntity
  8
0
  6
Continuous
 62
     7
370
    25
100
AcDbLine
 10
-9.249860712
 20
5.8128106679
 30
0.0
 11
-9.0791733456
 21
6.5626103347
 31
0.0
  0
SPLINE
  5
15C
330
1F
100
AcDbEntity
  8
0
  6
Continuous
 62
     7
370
    25
100
AcDbSpline
210
0.0
220
0.0
230
1.0
 70
     8
 71
     3
 72
     8
 73
     4
 74
     0
 42
0.00000001
 43
0.00000001
 40
0.0
 40
0.0
 40
0.0
 40
0.0
 40
1.0
 40
1.0
 40
1.0
 40
1.0
 10
-9.079173345562651
 20
6.562610334716319
 30
0.0
 10
-8.744417788656103
 20
8.03313278909167
 30
0.0
 10
-9.401954163275969
 20
9.658966529759146
 30
0.0
 10
-10.14036539378598
 20
11.18788083983922
 30
0.0
  0
ARC
  5
15D
330
1F
100
AcDbEntity
  8
0
  6
Continuous
 62
     7
370
    25
100
AcDbCircle
 10
-13.7828064362
 20
-14.0506338402
 30
0.0
 40
25.49999999999971
100
AcDbArc
 50
81.7877339191
 51
86.2122660809
  0
SPLINE
  5
15E
330
1F
100
AcDbEntity
  8
0
  6
Continuous
 62
     7
370
    25
100
AcDbSpline
210
0.0
220
0.0
230
1.0
 70
     8
 71
     3
 72
     8
 73
     4
 74
     0
 42
0.00000001
 43
0.00000001
 40
0.0
 40
0.0
 40
0.0
 40
0.0
 40
1.0
 40
1.0
 40
1.0
 40
1.0
 10
-12.09826914184958
 20
11.39366481600326
 30
0.0
 10
-13.13842347467311
 20
10.05168527932512
 30
0.0
 10
-14.11962094389286
 20
8.598089406120277
 30
0.0
 10
-14.09791940894683
 20
7.09010180170094
 30
0.0
  0
LINE
  5
15F
330
1F
100
AcDbEntity
  8
0
  6
Continuous
 62
     7
370
    25
100
AcDbLine
 10
-14.0979194089
 20
7.0901018017
 30
0.0
 11
-14.0868540875
 21
6.3211991576
 31
0.0
  0
ARC
  5
160
330
1F
100
AcDbEntity
  8
0
  6
Continuous
 62
     7
370
    25
100
AcDbCircle
 10
-15.6741897254
 20
6.2983557206
 30
0.0
 40
1.587500000000004
100
AcDbArc
 50
275.3102300558
 51
0.8244898903
  0
ARC
  5
161
330
1F
100
AcDbEntity
  8
0
  6
Continuous
 62
     7
370
    25
100
AcDbCircle
 10
-13.7828064362
 20
-14.0506338402
 30
0.0
 40
18.84919999999969
100
AcDbArc
 50
95.3102300558
 51
96.6897699442
  0
ARC
  5
162
330
1F
100
AcDbEntity
  8
0
  6
Continuous
 62
     7
370
    25
100
AcDbCircle
 10
-16.1635472359
 20
6.2469221737
 30
0.0
 40
1.587500000000004
100
AcDbArc
 50
191.1755101097
 51
276.6897699442
  0
LINE
  5
163
330
1F
100
AcDbEntity
  8
0
  6
Continuous
 62
     7
370
    25
100
AcDbLine
 10
-17.7209451992
 20
5.9392407904
 30
0.0
 11
-17.8699855304
 21
6.6936416766
 31
0.0
  0
SPLINE
  5
164
330
1F
100
AcDbEntity
  8
0
  6
Continuous
 62
     7
370
    25
100
AcDbSpline
210
0.0
220
0.0
230
1.0
 70
     8
 71
     3
 72
     8
 73
     4
 74
     0
 42
0.00000001
 43
0.00000001
 40
0.0
 40
0.0
 40
0.0
 40
0.0
 40
1.0
 40
1.0
 40
1.0
 40
1.0
 10
-17.86998553042246
 20
6.693641676631668
 30
0.0
 10
-18.16228647865044
 20
8.173188136655327
 30
0.0
 10
-19.42426200479565
 20
9.39101702760966
 30
0.0
 10
-20.72069970433455
 20
10.48741084560189
 30
0.0
  0
ARC
  5
165
330
1F
100
AcDbEntity
  8
0
  6
Continuous
 62
     7
370
    25
100
AcDbCircle
 10
-13.7828064362
 20
-14.0506338402
 30
0.0
 40
25.49999999999972
100
AcDbArc
 50
105.7877339191
 51
110.2122660809
  0
SPLINE
  5
166
330
1F
100
AcDbEntity
  8
0
  6
Continuous
 62
     7
370
    25
100
AcDbSpline
210
0.0
220
0.0
230
1.0
 70
     8
 71
     3
 72
     8
 73
     4
 74
     0
 42
0.00000001
 43
0.00000001
 40
0.0
 40
0.0
 40
0.0
 40
0.0
 40
1.0
 40
1.0
 40
1.0
 40
1.0
 10
-22.59303366354325
 20
9.87905266432925
 30
0.0
 10
-22.99742967771276
 20
8.230024472736613
 30
0.0
 10
-23.3025674629168
 20
6.503009600695685
 30
0.0
 10
-22.66938830822122
 20
5.134221183969925
 30
0.0
  0
LINE
  5
167
330
1F
100
AcDbEntity
  8
0
  6
Continuous
 62
     7
370
    25
100
AcDbLine
 10
-22.6693883082
 20
5.134221184
 30
0.0
 11
-22.3465387537
 21
4.4362943378
 31
0.0
  0
ARC
  5
168
330
1F
100
AcDbEntity
  8
0
  6
Continuous
 62
     7
370
    25
100
AcDbCircle
 10
-23.7873507526
 20
3.7697982509
 30
0.0
 40
1.5875
100
AcDbArc
 50
299.3102300558
 51
24.8244898903
  0
ARC
  5
169
330
1F
100
AcDbEntity
  8
0
  6
Continuous
 62
     7
370
    25
100
AcDbCircle
 10
-13.7828064362
 20
-14.0506338402
 30
0.0
 40
18.84919999999975
100
AcDbArc
 50
119.3102300558
 51
120.6897699442
  0
ARC
  5
16A
330
1F
100
AcDbEntity
  8
0
  6
Continuous
 62
     7
370
    25
100
AcDbCircle
 10
-24.2134811753
 20
3.5237717367
 30
0.0
 40
1.587500000000004
100
AcDbArc
 50
215.1755101097
 51
300.6897699442
  0
LINE
  5
16B
330
1F
100
AcDbEntity
  8
0
  6
Continuous
 62
     7
370
    25
100
AcDbLine
 10
-25.5110897175
 20
2.609239987
 30
0.0
 11
-25.954087319
 21
3.2377993259
 31
0.0
  0
SPLINE
  5
16C
330
1F
100
AcDbEntity
  8
0
  6
Continuous
 62
     7
370
    25
100
AcDbSpline
210
0.0
220
0.0
230
1.0
 70
     8
 71
     3
 72
     8
 73
     4
 74
     0
 42
0.00000001
 43
0.00000001
 40
0.0
 40
0.0
 40
0.0
 40
0.0
 40
1.0
 40
1.0
 40
1.0
 40
1.0
 10
-25.95408731903875
 20
3.237799325867541
 30
0.0
 10
-26.8229032829811
 20
4.470542767343147
 30
0.0
 10
-28.47111092749538
 20
5.069793129712993
 30
0.0
 10
-30.10140924004492
 20
5.544090004059221
 30
0.0
  0
ARC
  5
16D
330
1F
100
AcDbEntity
  8
0
  6
Continuous
 62
     7
370
    25
100
AcDbCircle
 10
-13.7828064362
 20
-14.0506338402
 30
0.0
 40
25.49999999999979
100
AcDbArc
 50
129.7877339191
 51
134.2122660809
  0
SPLINE
  5
16E
330
1F
100
AcDbEntity
  8
0
  6
Continuous
 62
     7
370
    25
100
AcDbSpline
210
0.0
220
0.0
230
1.0
 70
     8
 71
     3
 72
     8
 73
     4
 74
     0
 42
0.00000001
 43
0.00000001
 40
0.0
 40
0.0
 40
0.0
 40
0.0
 40
1.0
 40
1.0
 40
1.0
 40
1.0
 10
-31.56442985923151
 20
4.226780321652488
 30
0.0
 10
-31.26314381007585
 20
2.555835430425698
 30
0.0
 10
-30.8394608161109
 20
0.8540181203578067
 30
0.0
 10
-29.70428646976524
 20
-0.1388951563689117
 30
0.0
  0
LINE
  5
16F
330
1F
100
AcDbEntity
  8
0
  6
Continuous
 62
     7
370
    25
100
AcDbLine
 10
-29.7042864698
 20
-0.1388951564
 30
0.0
 11
-29.1254763032
 21
-0.6451683125
 31
0.0
  0
ARC
  5
170
330
1F
100
AcDbEntity
  8
0
  6
Continuous
 62
     7
370
    25
100
AcDbCircle
 10
-30.1706351791
 20
-1.8400738209
 30
0.0
 40
1.587499999999995
100
AcDbArc
 50
323.3102300558
 51
48.8244898903
  0
ARC
  5
171
330
1F
100
AcDbEntity
  8
0
  6
Continuous
 62
     7
370
    25
100
AcDbCircle
 10
-13.7828064362
 20
-14.0506338402
 30
0.0
 40
18.84919999999985
100
AcDbArc
 50
143.3102300558
 51
144.6897699442
  0
ARC
  5
172
330
1F
100
AcDbEntity
  8
0
  6
Continuous
 62
     7
370
    25
100
AcDbCircle
 10
-30.4598566926
 20
-2.2381530831
 30
0.0
 40
1.587500000000004
100
AcDbArc
 50
239.1755101097
 51
324.6897699442
  0
LINE
  5
173
330
1F
100
AcDbEntity
  8
0
  6
Continuous
 62
     7
370
    25
100
AcDbLine
 10
-31.2733075083
 20
-3.6014043513
 30
0.0
 11
-31.9336640704
 21
-3.2073701798
 31
0.0
  0
SPLINE
  5
174
330
1F
100
AcDbEntity
  8
0
  6
Continuous
 62
     7
370
    25
100
AcDbSpline
210
0.0
220
0.0
230
1.0
 70
     8
 71
     3
 72
     8
 73
     4
 74
     0
 42
0.00000001
 43
0.00000001
 40
0.0
 40
0.0
 40
0.0
 40
0.0
 40
1.0
 40
1.0
 40
1.0
 40
1.0
 10
-31.93366407040059
 20
-3.207370179786817
 30
0.0
 10
-33.22876887694679
 20
-2.434582297013061
 30
0.0
 10
-34.97821856459712
 20
-2.557526294900653
 30
0.0
 10
-36.66048410112207
 20
-2.787336602626066
 30
0.0
  0
ARC
  5
175
330
1F
100
AcDbEntity
  8
0
  6
Continuous
 62
     7
370
    25
100
AcDbCircle
 10
-13.7828064362
 20
-14.0506338402
 30
0.0
 40
25.49999999999993
100
AcDbArc
 50
153.7877339191
 51
158.2122660809
  0
SPLINE
  5
176
330
1F
100
AcDbEntity
  8
0
  6
Continuous
 62
     7
370
    25
100
AcDbSpline
210
0.0
220
0.0
230
1.0
 70
     8
 71
     3
 72
     8
 73
     4
 74
     0
 42
0.00000001
 43
0.00000001
 40
0.0
 40
0.0
 40
0.0
 40
0.0
 40
1.0
 40
1.0
 40
1.0
 40
1.0
 10
-37.4612218241041
 20
-4.585822974696029
 30
0.0
 10
-36.50634880662189
 20
-5.989763013803275
 30
0.0
 10
-35.42710367218188
 20
-7.372123088464114
 30
0.0
 10
-33.98621609140448
 20
-7.817477499312976
 30
0.0
  0
LINE
  5
177
330
1F
100
AcDbEntity
  8
0
  6
Continuous
 62
     7
370
    25
100
AcDbLine
 10
-33.9862160914
 20
-7.8174774993
 30
0.0
 11
-33.2515268489
 21
-8.0445577373
 31
0.0
  0
ARC
  5
178
330
1F
100
AcDbEntity
  8
0
  6
Continuous
 62
     7
370
    25
100
AcDbCircle
 10
-33.7203151372
 20
-9.5612626495
 30
0.0
 40
1.587499999999997
100
AcDbArc
 50
347.3102300558
 51
72.8244898903
  0
ARC
  5
179
330
1F
100
AcDbEntity
  8
0
  6
Continuous
 62
     7
370
    25
100
AcDbCircle
 10
-13.7828064362
 20
-14.0506338402
 30
0.0
 40
18.84919999999999
100
AcDbArc
 50
167.3102300558
 51
168.6897699442
  0
ARC
  5
17A
330
1F
100
AcDbEntity
  8
0
  6
Continuous
 62
     7
370
    25
100
AcDbCircle
 10
-33.8226187143
 20
-10.0425631387
 30
0.0
 40
1.587500000000002
100
AcDbArc
 50
263.1755101097
 51
348.6897699442
  0
LINE
  5
17B
330
1F
100
AcDbEntity
  8
0
  6
Continuous
 62
     7
370
    25
100
AcDbLine
 10
-34.0112587675
 20
-11.6188153965
 30
0.0
 11
-34.7747926414
 21
-11.5274384803
 31
0.0
  0
CIRCLE
  5
17C
330
1F
100
AcDbEntity
  8
0
  6
Continuous
 62
     7
370
    25
100
AcDbCircle
 10
-13.7828064362
 20
-14.0506338402
 30
0.0
 40
1.999999999999938
  0
MTEXT
  5
17E
330
1F
100
AcDbEntity
  8
0
  6
Continuous
 62
     7
100
AcDbMText
 10
-89.6830789578
 20
-92.8452645809
 30
0.0
 40
4.83362
 41
0.0
 71
     1
 72
     1
  1
SOLIDWORKS Educational Product.
  7
SLDTEXTSTYLE0
 73
     1
 44
1.0
  0
MTEXT
  5
17F
330
1F
100
AcDbEntity
  8
0
  6
Continuous
 62
     7
100
AcDbMText
 10
-89.6830789578
 20
-100.0956945809
 30
0.0
 40
4.83362
 41
0.0
 71
     1
 72
     1
  1
For Instructional Use Only.
  7
SLDTEXTSTYLE0
 73
     1
 44
1.0
  0
ENDSEC
  0
SECTION
  2
OBJECTS
  0
DICTIONARY
  5
C
330
0
100
AcDbDictionary
281
     1
  3
ACAD_GROUP
350
D
  3
ACAD_LAYOUT
350
1A
  3
ACAD_MLINESTYLE
350
17
  3
ACAD_PLOTSETTINGS
350
19
  3
ACAD_PLOTSTYLENAME
350
E
  3
ACAD_SCALELIST
350
47
  3
DWGPROPS
350
180
  0
DICTIONARY
  5
D
102
{ACAD_REACTORS
330
C
102
}
330
C
100
AcDbDictionary
281
     1
  0
DICTIONARY
  5
1A
102
{ACAD_REACTORS
330
C
102
}
330
C
100
AcDbDictionary
281
     1
  3
Layout1
350
1E
  3
Layout2
350
26
  3
Model
350
22
  0
DICTIONARY
  5
17
102
{ACAD_REACTORS
330
C
102
}
330
C
100
AcDbDictionary
281
     1
  3
Standard
350
18
  0
DICTIONARY
  5
19
102
{ACAD_REACTORS
330
C
102
}
330
C
100
AcDbDictionary
281
     1
  0
ACDBDICTIONARYWDFLT
  5
E
102
{ACAD_REACTORS
330
C
102
}
330
C
100
AcDbDictionary
281
     1
  3
Normal
350
F
100
AcDbDictionaryWithDefault
340
F
  0
DICTIONARY
  5
47
102
{ACAD_REACTORS
330
C
102
}
330
C
100
AcDbDictionary
281
     1
  3
A0
350
48
  3
A1
350
49
  3
A2
350
4A
  3
A3
350
4B
  3
A4
350
4C
  3
A5
350
4D
  3
A6
350
4E
  3
A7
350
4F
  3
A8
350
50
  3
A9
350
51
  3
B0
350
52
  3
B1
350
53
  3
B2
350
54
  3
B3
350
55
  3
B4
350
56
  3
B5
350
57
  3
B6
350
58
  0
XRECORD
  5
180
102
{ACAD_REACTORS
330
C
102
}
330
C
100
AcDbXrecord
280
     1
  1
DWGPROPS COOKIE
  2

  3

  4

  6

  7

  8
Gursager Singh
  9

300
=
301
=
302
=
303
=
304
=
305
=
306
=
307
=
308
=
309
=
 40
0.0
 41
2460455.657675371
 42
2460455.657700729
  1

 90
        0
  0
LAYOUT
  5
1E
102
{ACAD_REACTORS
330
1A
102
}
330
1A
100
AcDbPlotSettings
  1

  2
none_device
  4

  6

 40
0.0
 41
0.0
 42
0.0
 43
0.0
 44
0.0
 45
0.0
 46
0.0
 47
0.0
 48
0.0
 49
0.0
140
0.0
141
0.0
142
1.0
143
1.0
 70
   688
 72
     1
 73
     0
 74
     5
  7

 75
    16
147
1.0
148
0.0
149
0.0
100
AcDbLayout
  1
Layout1
 70
     1
 71
     1
 10
0.0
 20
0.0
 11
420.0
 21
297.0
 12
0.0
 22
0.0
 32
0.0
 14
1.0000000000E+20
 24
1.0000000000E+20
 34
1.0000000000E+20
 15
-1.0000000000E+20
 25
-1.0000000000E+20
 35
-1.0000000000E+20
146
0.0
 13
0.0
 23
0.0
 33
0.0
 16
1.0
 26
0.0
 36
0.0
 17
0.0
 27
1.0
 37
0.0
 76
     0
330
1B
  0
LAYOUT
  5
26
102
{ACAD_REACTORS
330
1A
102
}
330
1A
100
AcDbPlotSettings
  1

  2
none_device
  4

  6

 40
0.0
 41
0.0
 42
0.0
 43
0.0
 44
0.0
 45
0.0
 46
0.0
 47
0.0
 48
0.0
 49
0.0
140
0.0
141
0.0
142
1.0
143
1.0
 70
   688
 72
     1
 73
     0
 74
     5
  7

 75
    16
147
1.0
148
0.0
149
0.0
100
AcDbLayout
  1
Layout2
 70
     1
 71
     2
 10
0.0
 20
0.0
 11
0.0
 21
0.0
 12
0.0
 22
0.0
 32
0.0
 14
0.0
 24
0.0
 34
0.0
 15
0.0
 25
0.0
 35
0.0
146
0.0
 13
0.0
 23
0.0
 33
0.0
 16
1.0
 26
0.0
 36
0.0
 17
0.0
 27
1.0
 37
0.0
 76
     0
330
23
  0
LAYOUT
  5
22
102
{ACAD_REACTORS
330
1A
102
}
330
1A
100
AcDbPlotSettings
  1

  2
none_device
  4
ANSI_A_(11.00_x_8.50_Inches)
  6

 40
6.35
 41
19.05
 42
6.35000508
 43
19.05000254
 44
279.4
 45
215.9
 46
214.4580379614
 47
172.177122056
 48
0.0
 49
0.0
140
0.0
141
0.0
142
0.0815254014
143
1.0
 70
  1696
 72
     0
 73
     0
 74
     0
  7

 75
     0
147
0.0179189148
148
-1300.4909072572
149
0.0
100
AcDbLayout
  1
Model
 70
     1
 71
     0
 10
0.0
 20
0.0
 11
420.0
 21
297.0
 12
0.0
 22
0.0
 32
0.0
 14
-89.6830789578
 24
-91.8256981892
 34
0.0
 15
11.3460235949
 25
11.393664816
 35
0.0
146
0.0
 13
0.0
 23
0.0
 33
0.0
 16
1.0
 26
0.0
 36
0.0
 17
0.0
 27
1.0
 37
0.0
 76
     0
330
1F
331
29
  0
MLINESTYLE
  5
18
102
{ACAD_REACTORS
330
17
102
}
330
17
100
AcDbMlineStyle
  2
Standard
 70
     0
  3

 62
   256
 51
90.0
 52
90.0
 71
     2
 49
0.5
 62
   256
  6
BYLAYER
 49
-0.5
 62
   256
  6
BYLAYER
  0
ACDBPLACEHOLDER
  5
F
102
{ACAD_REACTORS
330
E
102
}
330
E
  0
SCALE
  5
48
102
{ACAD_REACTORS
330
47
102
}
330
47
100
AcDbScale
 70
     0
300
1:1
140
1.0
141
1.0
290
     1
  0
SCALE
  5
49
102
{ACAD_REACTORS
330
47
102
}
330
47
100
AcDbScale
 70
     0
300
1:2
140
1.0
141
2.0
290
     0
  0
SCALE
  5
4A
102
{ACAD_REACTORS
330
47
102
}
330
47
100
AcDbScale
 70
     0
300
1:4
140
1.0
141
4.0
290
     0
  0
SCALE
  5
4B
102
{ACAD_REACTORS
330
47
102
}
330
47
100
AcDbScale
 70
     0
300
1:5
140
1.0
141
5.0
290
     0
  0
SCALE
  5
4C
102
{ACAD_REACTORS
330
47
102
}
330
47
100
AcDbScale
 70
     0
300
1:8
140
1.0
141
8.0
290
     0
  0
SCALE
  5
4D
102
{ACAD_REACTORS
330
47
102
}
330
47
100
AcDbScale
 70
     0
300
1:10
140
1.0
141
10.0
290
     0
  0
SCALE
  5
4E
102
{ACAD_REACTORS
330
47
102
}
330
47
100
AcDbScale
 70
     0
300
1:16
140
1.0
141
16.0
290
     0
  0
SCALE
  5
4F
102
{ACAD_REACTORS
330
47
102
}
330
47
100
AcDbScale
 70
     0
300
1:20
140
1.0
141
20.0
290
     0
  0
SCALE
  5
50
102
{ACAD_REACTORS
330
47
102
}
330
47
100
AcDbScale
 70
     0
300
1:30
140
1.0
141
30.0
290
     0
  0
SCALE
  5
51
102
{ACAD_REACTORS
330
47
102
}
330
47
100
AcDbScale
 70
     0
300
1:40
140
1.0
141
40.0
290
     0
  0
SCALE
  5
52
102
{ACAD_REACTORS
330
47
102
}
330
47
100
AcDbScale
 70
     0
300
1:50
140
1.0
141
50.0
290
     0
  0
SCALE
  5
53
102
{ACAD_REACTORS
330
47
102
}
330
47
100
AcDbScale
 70
     0
300
1:100
140
1.0
141
100.0
290
     0
  0
SCALE
  5
54
102
{ACAD_REACTORS
330
47
102
}
330
47
100
AcDbScale
 70
     0
300
2:1
140
2.0
141
1.0
290
     0
  0
SCALE
  5
55
102
{ACAD_REACTORS
330
47
102
}
330
47
100
AcDbScale
 70
     0
300
4:1
140
4.0
141
1.0
290
     0
  0
SCALE
  5
56
102
{ACAD_REACTORS
330
47
102
}
330
47
100
AcDbScale
 70
     0
300
8:1
140
8.0
141
1.0
290
     0
  0
SCALE
  5
57
102
{ACAD_REACTORS
330
47
102
}
330
47
100
AcDbScale
 70
     0
300
10:1
140
10.0
141
1.0
290
     0
  0
SCALE
  5
58
102
{ACAD_REACTORS
330
47
102
}
330
47
100
AcDbScale
 70
     0
300
100:1
140
100.0
141
1.0
290
     0
  0
ENDSEC
  0
EOF
