0
SECTION
2
HEADER
9
$INSUNITS
70
4
9
$ACADVER
1
AC1014
9
$HANDSEED
5
FFFF
0
ENDSEC
0
SECTION
2
TABLES
0
TABLE
2
VPORT
5
8
100
AcDbSymbolTable
0
ENDTAB
0
TABLE
2
LTYPE
5
5
100
AcDbSymbolTable
0
LTYPE
5
14
100
AcDbSymbolTableRecord
100
AcDbLinetypeTableRecord
2
BYBLOCK
70
0
0
LTYPE
5
15
100
AcDbSymbolTableRecord
100
AcDbLinetypeTableRecord
2
BYLAYER
70
0
0
ENDTAB
0
TABLE
2
LAYER
5
2
100
AcDbSymbolTable
70
2
0
LAYER
5
50
100
AcDbSymbolTableRecord
100
AcDbLayerTableRecord
2
0
70
0
6
CONTINUOUS
0
ENDTAB
0
TABLE
2
STYLE
5
3
100
AcDbSymbolTable
70
1
0
STYLE
5
11
100
AcDbSymbolTableRecord
100
AcDbTextStyleTableRecord
2
STANDARD
70
0
0
ENDTAB
0
TABLE
2
VIEW
5
6
100
AcDbSymbolTable
70
0
0
ENDTAB
0
TABLE
2
UCS
5
7
100
AcDbSymbolTable
70
0
0
ENDTAB
0
TABLE
2
APPID
5
9
100
AcDbSymbolTable
70
2
0
APPID
5
12
100
AcDbSymbolTableRecord
100
AcDbRegAppTableRecord
2
ACAD
70
0
0
ENDTAB
0
TABLE
2
DIMSTYLE
5
A
100
AcDbSymbolTable
70
1
0
ENDTAB
0
TABLE
2
BLOCK_RECORD
5
1
100
AcDbSymbolTable
70
1
0
BLOCK_RECORD
5
1F
100
AcDbSymbolTableRecord
100
AcDbBlockTableRecord
2
*MODEL_SPACE
0
BLOCK_RECORD
5
1B
100
AcDbSymbolTableRecord
100
AcDbBlockTableRecord
2
*PAPER_SPACE
0
ENDTAB
0
ENDSEC
0
SECTION
2
BLOCKS
0
BLOCK
5
20
100
AcDbEntity
100
AcDbBlockBegin
2
*MODEL_SPACE
0
ENDBLK
5
21
100
AcDbEntity
100
AcDbBlockEnd
0
BLOCK
5
1C
100
AcDbEntity
100
AcDbBlockBegin
2
*PAPER_SPACE
0
ENDBLK
5
1D
100
AcDbEntity
100
AcDbBlockEnd
0
ENDSEC
0
SECTION
2
ENTITIES
0
SPLINE
5
100
100
AcDbEntity
8
0
100
AcDbSpline
70
0
71
3
72
16
73
12
74
0
42
0.000000001
43
0.0000000001
44
0.0000000001
40
0
40
0
40
0
40
0
40
0.0625
40
0.125
40
0.1875
40
0.25
40
0.375
40
0.5
40
0.625
40
0.75
40
1
40
1
40
1
40
1
10
84.750868731546646
20
56.195265407791446
30
0
10
84.853900418214067
20
56.185661722729407
30
1.1102230246251565e-15
10
85.06090164968343
20
56.193673253739505
30
2.2204460492503131e-15
10
85.372329081635115
20
56.22237815825293
30
1.1102230246251565e-15
10
85.683899617934856
20
56.265606592933381
30
2.2204460492503131e-15
10
86.099228526606908
20
56.345282839011936
30
0
10
86.617466652574663
20
56.472316279174102
30
0
10
87.236628448571366
20
56.666799623339074
30
1.1102230246251565e-15
10
87.852042792321967
20
56.897203786248539
30
2.2204460492503131e-15
10
88.666481294600885
20
57.248762671542636
30
0
10
89.269219679799349
20
57.558586850844982
30
1.1102230246251565e-15
10
89.66661925146721
20
57.783551513894629
30
0
0
ARC
5
101
100
AcDbEntity
8
0
100
AcDbCircle
10
56.683078957752322
20
58.825698189225122
30
0
40
33.000000000000256
210
0
220
0
230
1
100
AcDbArc
50
-1.8097131992768134
51
1.8097131992729769
0
SPLINE
5
102
100
AcDbEntity
8
0
100
AcDbSpline
70
0
71
3
72
16
73
12
74
0
42
0.000000001
43
0.0000000001
44
0.0000000001
40
-1
40
-1
40
-1
40
-1
40
-0.75
40
-0.625
40
-0.5
40
-0.375
40
-0.25
40
-0.1875
40
-0.125
40
-0.0625
40
0
40
0
40
0
40
0
10
89.66661925146721
20
59.867844864553383
30
0
10
89.269219679798908
20
60.092809527603038
30
1.1102230246251565e-15
10
88.66648174011479
20
60.402630848929846
30
0
10
87.852042944685223
20
60.754191571986532
30
0
10
87.236628506864719
20
60.984599034651183
30
3.3306690738754696e-15
10
86.617466652660298
20
61.179078234391397
30
-1.1102230246251565e-15
10
86.099228523939999
20
61.306113986574346
30
1.1102230246251565e-15
10
85.683899628935507
20
61.385789276010392
30
0
10
85.372329081926011
20
61.429018439084643
30
2.2204460492503131e-15
10
85.060901570426466
20
61.457726608937108
30
-1.1102230246251565e-15
10
84.853900418214067
20
61.465734655718592
30
1.1102230246251565e-15
10
84.750868731546646
20
61.456130970656559
30
0
0
LINE
5
103
100
AcDbEntity
8
0
100
AcDbLine
10
84.750868731546646
20
61.456130970656559
30
0
11
84.452138652702956
21
61.428286045580023
31
0
0
ARC
5
104
100
AcDbEntity
8
0
100
AcDbCircle
10
84.304804868027631
20
63.008934332167954
30
0
40
1.5875000000000479
210
0
220
0
230
1
100
AcDbArc
50
188.61184845903949
51
275.32520933172219
0
ARC
5
105
100
AcDbEntity
8
0
100
AcDbCircle
10
56.683078957752322
20
58.825698189225122
30
0
40
26.349199999999904
210
0
220
-0
230
1
100
AcDbArc
50
8.6118484590354036
51
9.3881515409597736
0
ARC
5
106
100
AcDbEntity
8
0
100
AcDbCircle
10
84.245592435691506
20
63.382786916517674
30
0
40
1.5875000000000037
210
0
220
0
230
1
100
AcDbArc
50
102.67479066827767
51
189.38815154096162
0
LINE
5
107
100
AcDbEntity
8
0
100
AcDbLine
10
83.8972680089921
20
64.931601412758113
30
0
11
84.189981752145485
21
64.997431986411996
31
0
0
SPLINE
5
108
100
AcDbEntity
8
0
100
AcDbSpline
70
0
71
3
72
16
73
12
74
0
42
0.000000001
43
0.0000000001
44
0.0000000001
40
0
40
0
40
0
40
0
40
0.0625
40
0.125
40
0.1875
40
0.25
40
0.375
40
0.5
40
0.625
40
0.75
40
1
40
1
40
1
40
1
10
84.189981752145485
20
64.997431986411996
30
0
10
84.29093841102825
20
65.020136881292672
30
1.1102230246251565e-15
10
84.485332581865237
20
65.091723198445891
30
2.2204460492503131e-15
10
84.772647367059363
20
65.215259553920674
30
1.1102230246251565e-15
10
85.055610234936381
20
65.352652829075836
30
2.2204460492503131e-15
10
85.425990185848264
20
65.556773133137582
30
0
10
85.879608440678524
20
65.837733502248341
30
0
10
86.408367642932234
20
66.214029671257933
30
1.1102230246251565e-15
10
86.922462662864206
20
66.6233305425758
30
2.2204460492503131e-15
10
87.588402037498284
20
67.209358249373082
30
0
10
88.065899369691479
20
67.690274958193925
30
1.1102230246251565e-15
10
88.374330917881707
20
68.027032288125426
30
0
0
ARC
5
109
100
AcDbEntity
8
0
100
AcDbCircle
10
56.683078957752322
20
58.825698189225122
30
0
40
32.999999999999851
210
0
220
-0
230
1
100
AcDbArc
50
16.190286800723282
51
19.80971319927302
0
SPLINE
5
110
100
AcDbEntity
8
0
100
AcDbSpline
70
0
71
3
72
16
73
12
74
0
42
0.000000001
43
0.0000000001
44
0.0000000001
40
-1
40
-1
40
-1
40
-1
40
-0.75
40
-0.625
40
-0.5
40
-0.375
40
-0.25
40
-0.1875
40
-0.125
40
-0.0625
40
0
40
0
40
0
40
0
10
87.730248851265472
20
70.009313061140034
30
0
10
87.282781495043025
20
70.100463948668306
30
1.1102230246251565e-15
10
86.613803596375774
20
70.20886526868388
30
0
10
85.730588034880412
20
70.291543956555373
30
0
10
85.074094301974952
20
70.320500955455302
30
3.3306690738754696e-15
10
84.425139008120439
20
70.314130130434393
30
-1.1102230246251565e-15
10
83.893009052490612
20
70.274803921442711
30
1.1102230246251565e-15
10
83.473386782023496
20
70.222235937837297
30
0
10
83.163707036961824
20
70.167068721100321
30
2.2204460492503131e-15
10
82.858650560434882
20
70.098135419540142
30
-1.1102230246251565e-15
10
82.659306143195408
20
70.041784650725717
30
1.1102230246251565e-15
10
82.564284888098243
20
70.000812461327627
30
0
0
LINE
5
111
100
AcDbEntity
8
0
100
AcDbLine
10
82.564284888098229
20
70.000812461327641
30
0
11
82.288780255056352
21
69.882017692794165
31
0
0
ARC
5
112
100
AcDbEntity
8
0
100
AcDbCircle
10
81.660210316385147
20
71.339774902414121
30
0
40
1.5875000000000072
210
0
220
0
230
1
100
AcDbArc
50
206.61184845903702
51
293.32520933172225
0
ARC
5
113
100
AcDbEntity
8
0
100
AcDbCircle
10
56.683078957752322
20
58.825698189225122
30
0
40
26.349199999999605
210
0
220
-0
230
1
100
AcDbArc
50
26.611848459035762
51
27.388151540959903
0
ARC
5
114
100
AcDbEntity
8
0
100
AcDbCircle
10
81.488369144811116
20
71.677032191023599
30
0
40
1.5875000000000044
210
0
220
0
230
1
100
AcDbArc
50
120.6747906682773
51
207.38815154096443
0
LINE
5
115
100
AcDbEntity
8
0
100
AcDbLine
10
80.678482928541314
20
73.042404142799441
30
0
11
80.936527475367967
21
73.195466259965912
31
0
0
SPLINE
5
116
100
AcDbEntity
8
0
100
AcDbSpline
70
0
71
3
72
16
73
12
74
0
42
0.000000001
43
0.0000000001
44
0.0000000001
40
0
40
0
40
0
40
0
40
0.0625
40
0.125
40
0.1875
40
0.25
40
0.375
40
0.5
40
0.625
40
0.75
40
1
40
1
40
1
40
1
10
80.936527475367967
20
73.195466259965912
30
0
10
81.02552676528822
20
73.248257221483939
30
1.1102230246251565e-15
10
81.188285219627375
20
73.376410957286367
30
2.2204460492503131e-15
10
81.423362985049437
20
73.582686164520013
30
1.1102230246251565e-15
10
81.650019807477577
20
73.800795269102608
30
2.2204460492503131e-15
10
81.939195430445452
20
74.109378913596174
30
0
10
82.283790498811001
20
74.516763853160882
30
0
10
82.670388472523442
20
75.038038356183122
30
1.1102230246251565e-15
10
83.032840966174888
20
75.586170714857516
30
2.2204460492503131e-15
10
83.485094427303309
20
76.349302768122271
30
0
10
83.790609940693699
20
76.954236528257269
30
1.1102230246251565e-15
10
83.979882036502715
20
77.369822371291349
30
0
0
ARC
5
117
100
AcDbEntity
8
0
100
AcDbCircle
10
56.683078957752322
20
58.825698189225122
30
0
40
32.999999999999552
210
0
220
-0
230
1
100
AcDbArc
50
34.190286800723534
51
37.80971319927319
0
SPLINE
5
118
100
AcDbEntity
8
0
100
AcDbSpline
70
0
71
3
72
16
73
12
74
0
42
0.000000001
43
0.0000000001
44
0.0000000001
40
-1
40
-1
40
-1
40
-1
40
-0.75
40
-0.625
40
-0.5
40
-0.375
40
-0.25
40
-0.1875
40
-0.125
40
-0.0625
40
0
40
0
40
0
40
0
10
82.754765143534314
20
79.05605111323689
30
0
10
82.301031225267934
20
79.004465741287191
30
1.1102230246251565e-15
10
81.631297585390257
20
78.900835983512053
30
0
10
80.76576055071051
20
78.706539470172686
30
0
10
80.132449703357594
20
78.531211492500432
30
3.3306690738754696e-15
10
79.517225235552345
20
78.324614263459637
30
-1.1102230246251565e-15
10
79.023292040637514
20
78.122775616631188
30
1.1102230246251565e-15
10
78.640451946221333
20
77.943110080482242
30
0
10
78.362976614219932
20
77.794946635480983
30
2.2204460492503131e-15
10
78.094152226041288
20
77.635119534351503
30
-1.1102230246251565e-15
10
77.92197776424841
20
77.519925955811431
30
1.1102230246251565e-15
10
77.844268283222505
20
77.451595905445714
30
0
0
LINE
5
119
100
AcDbEntity
8
0
100
AcDbLine
10
77.844268283222505
20
77.451595905445714
30
0
11
77.618957409018179
21
77.253479753091213
31
0
0
ARC
5
120
100
AcDbEntity
8
0
100
AcDbCircle
10
76.570680121452511
20
78.445650453273871
30
0
40
1.5875000000000186
210
0
220
0
230
1
100
AcDbArc
50
224.61184845903767
51
311.32520933172287
0
ARC
5
121
100
AcDbEntity
8
0
100
AcDbCircle
10
56.683078957752322
20
58.825698189225122
30
0
40
26.349199999999279
210
0
220
-0
230
1
100
AcDbArc
50
44.61184845903626
51
45.388151540960308
0
ARC
5
122
100
AcDbEntity
8
0
100
AcDbCircle
10
76.303031221802115
20
78.713299352924281
30
0
40
1.5875000000000199
210
0
220
0
230
1
100
AcDbArc
50
138.67479066827892
51
225.38815154096631
0
LINE
5
123
100
AcDbEntity
8
0
100
AcDbLine
10
75.110860521619415
20
79.76157664048992
30
0
11
75.308976673973945
21
79.986887514694274
31
0
0
SPLINE
5
124
100
AcDbEntity
8
0
100
AcDbSpline
70
0
71
3
72
16
73
12
74
0
42
0.000000001
43
0.0000000001
44
0.0000000001
40
0
40
0
40
0
40
0
40
0.0625
40
0.125
40
0.1875
40
0.25
40
0.375
40
0.5
40
0.625
40
0.75
40
1
40
1
40
1
40
1
10
75.308976673973945
20
79.986887514694274
30
0
10
75.377306724339604
20
80.064596995720194
30
1.1102230246251565e-15
10
75.492497530665673
20
80.236773569611472
30
2.2204460492503131e-15
10
75.652327226752902
20
80.50559597411646
30
1.1102230246251565e-15
10
75.800491254741985
20
80.783070869314159
30
2.2204460492503131e-15
10
75.980156024984694
20
81.165911537088235
30
0
10
76.181996540659014
20
81.659843370804381
30
0
10
76.388590382576353
20
82.275070227550003
30
1.1102230246251565e-15
10
76.563920974513991
20
82.908379059251502
30
2.2204460492503131e-15
10
76.758218802325729
20
83.773914776555998
30
0
10
76.861846509812594
20
84.443650456742745
30
1.1102230246251565e-15
10
76.91343188176522
20
84.897384375005942
30
0
0
ARC
5
125
100
AcDbEntity
8
0
100
AcDbCircle
10
56.683078957752322
20
58.825698189225122
30
0
40
32.999999999999254
210
0
220
-0
230
1
100
AcDbArc
50
52.190286800723989
51
55.809713199273602
0
SPLINE
5
126
100
AcDbEntity
8
0
100
AcDbSpline
70
0
71
3
72
16
73
12
74
0
42
0.000000001
43
0.0000000001
44
0.0000000001
40
-1
40
-1
40
-1
40
-1
40
-0.75
40
-0.625
40
-0.5
40
-0.375
40
-0.25
40
-0.1875
40
-0.125
40
-0.0625
40
0
40
0
40
0
40
0
10
75.227203139819736
20
86.122501267974343
30
0
10
74.811617296780909
20
85.933229172167984
30
1.1102230246251565e-15
10
74.206686110670049
20
85.627712339326067
30
0
10
73.443552398312349
20
85.175459721244522
30
0
10
72.895417314787011
20
84.813009091036747
30
3.3306690738754696e-15
10
72.374146130461114
20
84.426408634201835
30
-1.1102230246251565e-15
10
71.966759318814496
20
84.081814922580818
30
1.1102230246251565e-15
10
71.658176456294413
20
83.79263874837001
30
0
10
71.440066756133817
20
83.565982345416515
30
2.2204460492503131e-15
10
71.233788860428277
20
83.330906434957114
30
-1.1102230246251565e-15
10
71.10563799001217
20
83.168145996759932
30
1.1102230246251565e-15
10
71.052847028494128
20
83.079146706839694
30
0
0
LINE
5
127
100
AcDbEntity
8
0
100
AcDbLine
10
71.052847028494114
20
83.079146706839694
30
0
11
70.899784911327657
21
82.821102160013012
31
0
0
ARC
5
128
100
AcDbEntity
8
0
100
AcDbCircle
10
69.534412959551801
20
83.630988376282858
30
0
40
1.5875000000000248
210
0
220
0
230
1
100
AcDbArc
50
242.61184845903739
51
329.32520933172168
0
ARC
5
129
100
AcDbEntity
8
0
100
AcDbCircle
10
56.683078957752322
20
58.825698189225122
30
0
40
26.349199999999083
210
0
220
-0
230
1
100
AcDbArc
50
62.611848459036992
51
63.388151540960941
0
ARC
5
130
100
AcDbEntity
8
0
100
AcDbCircle
10
69.197155670942323
20
83.802829547856859
30
0
40
1.587500000000023
210
0
220
0
230
1
100
AcDbArc
50
156.67479066827755
51
243.38815154096756
0
LINE
5
131
100
AcDbEntity
8
0
100
AcDbLine
10
67.739398461322381
20
84.431399486528065
30
0
11
67.858193229855829
21
84.706904119569955
31
0
0
SPLINE
5
132
100
AcDbEntity
8
0
100
AcDbSpline
70
0
71
3
72
16
73
12
74
0
42
0.000000001
43
0.0000000001
44
0.0000000001
40
0
40
0
40
0
40
0
40
0.0625
40
0.125
40
0.1875
40
0.25
40
0.375
40
0.5
40
0.625
40
0.75
40
1
40
1
40
1
40
1
10
67.858193229855829
20
84.706904119569955
30
0
10
67.899165419253919
20
84.801925374667078
30
1.1102230246251565e-15
10
67.95551289886177
20
85.001270943970312
30
2.2204460492503131e-15
10
68.024449281362294
20
85.306326335797507
30
1.1102230246251565e-15
10
68.079617187533373
20
85.616005845587438
30
2.2204460492503131e-15
10
68.132184265541284
20
86.035628424672055
30
0
10
68.171512672544708
20
86.567757663230367
30
0
10
68.177879537996247
20
87.216714182423573
30
1.1102230246251565e-15
10
68.148925648280979
20
87.873206806183376
30
2.2204460492503131e-15
10
68.066248617637953
20
88.756421520975692
30
0
10
67.957844717194632
20
89.42540072651471
30
1.1102230246251565e-15
10
67.866693829668293
20
89.872868082737156
30
0
0
ARC
5
133
100
AcDbEntity
8
0
100
AcDbCircle
10
56.683078957752322
20
58.825698189225122
30
0
40
32.999999999999098
210
0
220
-0
230
1
100
AcDbArc
50
70.190286800724579
51
73.809713199274313
0
SPLINE
5
134
100
AcDbEntity
8
0
100
AcDbSpline
70
0
71
3
72
16
73
12
74
0
42
0.000000001
43
0.0000000001
44
0.0000000001
40
-1
40
-1
40
-1
40
-1
40
-0.75
40
-0.625
40
-0.5
40
-0.375
40
-0.25
40
-0.1875
40
-0.125
40
-0.0625
40
0
40
0
40
0
40
0
10
65.884413056653756
20
90.516950149353363
30
0
10
65.547655726717821
20
90.208518601163533
30
1.1102230246251565e-15
10
65.066741873671134
20
89.731020809515044
30
0
10
64.480712328467021
20
89.065081723978579
30
0
10
64.071408289826422
20
88.550987634261404
30
3.3306690738754696e-15
10
63.695116044411641
20
88.02222709595145
30
-1.1102230246251565e-15
10
63.414153475587945
20
87.568609552956929
30
1.1102230246251565e-15
10
63.210034085570754
20
87.198229319424797
30
0
10
63.072640114362379
20
86.915266666448346
30
2.2204460492503131e-15
10
62.949100628784038
20
86.627952814644942
30
-1.1102230246251565e-15
10
62.877517649820732
20
86.433557642499878
30
1.1102230246251565e-15
10
62.854812754940177
20
86.332600983617226
30
0
0
LINE
5
135
100
AcDbEntity
8
0
100
AcDbLine
10
62.854812754940177
20
86.332600983617226
30
0
11
62.7889821812863
21
86.039887240463813
31
0
0
ARC
5
136
100
AcDbEntity
8
0
100
AcDbCircle
10
61.240167685045833
20
86.388211667163233
30
0
40
1.5875000000000177
210
0
220
0
230
1
100
AcDbArc
50
260.61184845903801
51
347.32520933172208
0
ARC
5
137
100
AcDbEntity
8
0
100
AcDbCircle
10
56.683078957752322
20
58.825698189225122
30
0
40
26.349199999999001
210
0
220
-0
230
1
100
AcDbArc
50
80.611848459037788
51
81.3881515409619
0
ARC
5
138
100
AcDbEntity
8
0
100
AcDbCircle
10
60.866315100696085
20
86.447424099499329
30
0
40
1.587500000000015
210
0
220
0
230
1
100
AcDbArc
50
174.67479066827775
51
261.38815154096591
0
LINE
5
139
100
AcDbEntity
8
0
100
AcDbLine
10
59.285666814108176
20
86.594757884174655
30
0
11
59.313511739184712
21
86.893487963018316
31
0
0
SPLINE
5
140
100
AcDbEntity
8
0
100
AcDbSpline
70
0
71
3
72
16
73
12
74
0
42
0.000000001
43
0.0000000001
44
0.0000000001
40
0
40
0
40
0
40
0
40
0.0625
40
0.125
40
0.1875
40
0.25
40
0.375
40
0.5
40
0.625
40
0.75
40
1
40
1
40
1
40
1
10
59.313511739184712
20
86.893487963018316
30
0
10
59.323115424246765
20
86.996519649685638
30
1.1102230246251565e-15
10
59.315103893236653
20
87.203520881155271
30
2.2204460492503131e-15
10
59.286398988723207
20
87.514948313106785
30
1.1102230246251565e-15
10
59.243170554042777
20
87.82651884940654
30
2.2204460492503131e-15
10
59.163494307964228
20
88.241847758078649
30
0
10
59.036460867801985
20
88.760085884046305
30
0
10
58.841977523637077
20
89.379247680043079
30
1.1102230246251565e-15
10
58.611573360727618
20
89.994662023793737
30
2.2204460492503131e-15
10
58.260014475433557
20
90.809100526072214
30
0
10
57.950190296131467
20
91.411838911270635
30
1.1102230246251565e-15
10
57.725225633081514
20
91.809238482938895
30
0
0
ARC
5
141
100
AcDbEntity
8
0
100
AcDbCircle
10
56.683078957752322
20
58.825698189225122
30
0
40
32.999999999999112
210
0
220
-0
230
1
100
AcDbArc
50
88.19028680072536
51
91.809713199275123
0
SPLINE
5
142
100
AcDbEntity
8
0
100
AcDbSpline
70
0
71
3
72
16
73
12
74
0
42
0.000000001
43
0.0000000001
44
0.0000000001
40
-1
40
-1
40
-1
40
-1
40
-0.75
40
-0.625
40
-0.5
40
-0.375
40
-0.25
40
-0.1875
40
-0.125
40
-0.0625
40
0
40
0
40
0
40
0
10
55.640932282422845
20
91.809238482938895
30
0
10
55.415967619370633
20
91.411838911270422
30
1.1102230246251565e-15
10
55.106146298047619
20
90.809100971586574
30
0
10
54.754585574989783
20
89.994662176157078
30
0
10
54.524178112325046
20
89.379247738336446
30
3.3306690738754696e-15
10
54.329698912584746
20
88.760085884132053
30
-1.1102230246251565e-15
10
54.202663160401755
20
88.241847755411641
30
1.1102230246251565e-15
10
54.122987870965751
20
87.826518860407276
30
0
10
54.0797587078915
20
87.51494831339761
30
2.2204460492503131e-15
10
54.051050538039043
20
87.20352080189825
30
-1.1102230246251565e-15
10
54.043042491257545
20
86.996519649685609
30
1.1102230246251565e-15
10
54.05264617631957
20
86.893487963018316
30
0
0
LINE
5
143
100
AcDbEntity
8
0
100
AcDbLine
10
54.05264617631957
20
86.893487963018316
30
0
11
54.080491101396106
21
86.594757884174655
31
0
0
ARC
5
144
100
AcDbEntity
8
0
100
AcDbCircle
10
52.499842814808204
20
86.447424099499329
30
0
40
1.5875000000000208
210
0
220
0
230
1
100
AcDbArc
50
-81.388151540962696
51
5.325209331722311
0
ARC
5
145
100
AcDbEntity
8
0
100
AcDbCircle
10
56.683078957752322
20
58.825698189225122
30
0
40
26.349199999999033
210
0
220
0
230
1
100
AcDbArc
50
98.611848459038683
51
99.388151540962994
0
ARC
5
146
100
AcDbEntity
8
0
100
AcDbCircle
10
52.125990230458441
20
86.388211667163205
30
0
40
1.5875000000000208
210
0
220
0
230
1
100
AcDbArc
50
192.67479066827747
51
279.38815154096204
0
LINE
5
147
100
AcDbEntity
8
0
100
AcDbLine
10
50.577175734217981
20
86.039887240463798
30
0
11
50.511345160564112
21
86.332600983617169
31
0
0
SPLINE
5
148
100
AcDbEntity
8
0
100
AcDbSpline
70
0
71
3
72
16
73
12
74
0
42
0.000000001
43
0.0000000001
44
0.0000000001
40
0
40
0
40
0
40
0
40
0.0625
40
0.125
40
0.1875
40
0.25
40
0.375
40
0.5
40
0.625
40
0.75
40
1
40
1
40
1
40
1
10
50.511345160564112
20
86.332600983617169
30
0
10
50.488640265683465
20
86.43355764249992
30
1.1102230246251565e-15
10
50.417053948530238
20
86.627951813336949
30
2.2204460492503131e-15
10
50.293517593055476
20
86.915266598530991
30
1.1102230246251565e-15
10
50.156124317900314
20
87.198229466408023
30
2.2204460492503131e-15
10
49.95200401383844
20
87.56860941732009
30
0
10
49.671043644727803
20
88.022227672150223
30
0
10
49.29474747571804
20
88.550986874403748
30
1.1102230246251565e-15
10
48.885446604400506
20
89.065081894335961
30
2.2204460492503131e-15
10
48.299418897602649
20
89.731021268970039
30
0
10
47.818502188782588
20
90.208518601163362
30
1.1102230246251565e-15
10
47.481744858850675
20
90.516950149353363
30
0
0
ARC
5
149
100
AcDbEntity
8
0
100
AcDbCircle
10
56.683078957752322
20
58.825698189225122
30
0
40
32.999999999999133
210
0
220
0
230
1
100
AcDbArc
50
106.19028680072608
51
109.80971319927593
0
SPLINE
5
150
100
AcDbEntity
8
0
100
AcDbSpline
70
0
71
3
72
16
73
12
74
0
42
0.000000001
43
0.0000000001
44
0.0000000001
40
-1
40
-1
40
-1
40
-1
40
-0.75
40
-0.625
40
-0.5
40
-0.375
40
-0.25
40
-0.1875
40
-0.125
40
-0.0625
40
0
40
0
40
0
40
0
10
45.49946408583601
20
89.872868082737114
30
0
10
45.408313198308903
20
89.425400726515178
30
1.1102230246251565e-15
10
45.29991187829161
20
88.756422827847274
30
0
10
45.217233190420636
20
87.873207266351699
30
0
10
45.188276191520742
20
87.21671353344675
30
3.3306690738754696e-15
10
45.194647016541722
20
86.567758239592109
30
-1.1102230246251565e-15
10
45.233973225533319
20
86.035628283962382
30
1.1102230246251565e-15
10
45.286541209138882
20
85.616006013495124
30
0
10
45.341708425875744
20
85.30632626843358
30
2.2204460492503131e-15
10
45.410641727436015
20
85.001269791906523
30
-1.1102230246251565e-15
10
45.466992496250313
20
84.801925374667078
30
1.1102230246251565e-15
10
45.50796468564846
20
84.706904119569927
30
0
0
LINE
5
151
100
AcDbEntity
8
0
100
AcDbLine
10
45.507964685648446
20
84.706904119569913
30
0
11
45.626759454181915
21
84.431399486528022
31
0
0
ARC
5
152
100
AcDbEntity
8
0
100
AcDbCircle
10
44.169002244561952
20
83.802829547856859
30
0
40
1.587500000000019
210
0
220
0
230
1
100
AcDbArc
50
-63.388151540961836
51
23.325209331720764
0
ARC
5
153
100
AcDbEntity
8
0
100
AcDbCircle
10
56.683078957752322
20
58.825698189225122
30
0
40
26.349199999999243
210
0
220
0
230
1
100
AcDbArc
50
116.61184845903944
51
117.3881515409639
0
ARC
5
154
100
AcDbEntity
8
0
100
AcDbCircle
10
43.831744955952459
20
83.630988376282829
30
0
40
1.5875000000000137
210
0
220
0
230
1
100
AcDbArc
50
210.67479066827804
51
297.38815154096079
0
LINE
5
155
100
AcDbEntity
8
0
100
AcDbLine
10
42.46637300417661
20
82.821102160012998
30
0
11
42.313310887010154
21
83.079146706839694
31
0
0
SPLINE
5
156
100
AcDbEntity
8
0
100
AcDbSpline
70
0
71
3
72
16
73
12
74
0
42
0.000000001
43
0.0000000001
44
0.0000000001
40
0
40
0
40
0
40
0
40
0.0625
40
0.125
40
0.1875
40
0.25
40
0.375
40
0.5
40
0.625
40
0.75
40
1
40
1
40
1
40
1
10
42.313310887010154
20
83.079146706839694
30
0
10
42.260519925491941
20
83.168145996759847
30
1.1102230246251565e-15
10
42.132366189689904
20
83.330904451099173
30
2.2204460492503131e-15
10
41.926090982456017
20
83.565982216521064
30
1.1102230246251565e-15
10
41.707981877873536
20
83.792639038949289
30
2.2204460492503131e-15
10
41.399398233379799
20
84.081814661917136
30
0
10
40.992013293815091
20
84.426409730282685
30
0
10
40.47073879079305
20
84.813007703995069
30
1.1102230246251565e-15
10
39.922606432118705
20
85.175460197646458
30
2.2204460492503131e-15
10
39.159474378853673
20
85.627713658775122
30
0
10
38.55454061871847
20
85.933229172164985
30
1.1102230246251565e-15
10
38.138954775684716
20
86.122501267974414
30
0
0
ARC
5
157
100
AcDbEntity
8
0
100
AcDbCircle
10
56.683078957752322
20
58.825698189225122
30
0
40
32.99999999999941
210
0
220
0
230
1
100
AcDbArc
50
124.1902868007266
51
127.80971319927666
0
SPLINE
5
158
100
AcDbEntity
8
0
100
AcDbSpline
70
0
71
3
72
16
73
12
74
0
42
0.000000001
43
0.0000000001
44
0.0000000001
40
-1
40
-1
40
-1
40
-1
40
-0.75
40
-0.625
40
-0.5
40
-0.375
40
-0.25
40
-0.1875
40
-0.125
40
-0.0625
40
0
40
0
40
0
40
0
10
36.452726033738983
20
84.897384375005856
30
0
10
36.504311405693407
20
84.443650456743399
30
1.1102230246251565e-15
10
36.607941163461774
20
83.773916816859753
30
0
10
36.802237676802932
20
82.908379782181669
30
0
10
36.977565654475256
20
82.275068934828965
30
3.3306690738754696e-15
10
37.184162883516485
20
81.659844467024172
30
-1.1102230246251565e-15
10
37.386001530344785
20
81.165911272109227
30
1.1102230246251565e-15
10
37.565667066493809
20
80.783071177693074
30
0
10
37.713830511495054
20
80.505595845691587
30
2.2204460492503131e-15
10
37.873657612624562
20
80.236771457513044
30
-1.1102230246251565e-15
10
37.988851191164599
20
80.064596995720223
30
1.1102230246251565e-15
10
38.057181241530323
20
79.986887514694189
30
0
0
LINE
5
159
100
AcDbEntity
8
0
100
AcDbLine
10
38.057181241530323
20
79.986887514694175
30
0
11
38.255297393884831
21
79.761576640489892
31
0
0
ARC
5
160
100
AcDbEntity
8
0
100
AcDbCircle
10
37.063126693702152
20
78.713299352924238
30
0
40
1.5875000000000152
210
0
220
0
230
1
100
AcDbArc
50
-45.388151540961793
51
41.325209331721979
0
ARC
5
161
100
AcDbEntity
8
0
100
AcDbCircle
10
56.683078957752322
20
58.825698189225122
30
0
40
26.349199999999517
210
0
220
0
230
1
100
AcDbArc
50
134.61184845904009
51
135.38815154096474
0
ARC
5
162
100
AcDbEntity
8
0
100
AcDbCircle
10
36.795477794051742
20
78.445650453273828
30
0
40
1.5875000000000108
210
0
220
0
230
1
100
AcDbArc
50
228.67479066827713
51
315.38815154095704
0
LINE
5
163
100
AcDbEntity
8
0
100
AcDbLine
10
35.747200506486074
20
77.25347975309117
30
0
11
35.521889632281763
21
77.451595905445657
31
0
0
SPLINE
5
164
100
AcDbEntity
8
0
100
AcDbSpline
70
0
71
3
72
16
73
12
74
0
42
0.000000001
43
0.0000000001
44
0.0000000001
40
0
40
0
40
0
40
0
40
0.0625
40
0.125
40
0.1875
40
0.25
40
0.375
40
0.5
40
0.625
40
0.75
40
1
40
1
40
1
40
1
10
35.521889632281763
20
77.451595905445657
30
0
10
35.4441801512558
20
77.519925955811402
30
1.1102230246251565e-15
10
35.272003577364536
20
77.635116762137343
30
2.2204460492503131e-15
10
35.003181172859648
20
77.794946458224643
30
1.1102230246251565e-15
10
34.725706277661821
20
77.943110486213655
30
2.2204460492503131e-15
10
34.342865609887852
20
78.122775256456521
30
0
10
33.848933776171613
20
78.324615772130727
30
0
10
33.23370691942592
20
78.531209614048095
30
1.1102230246251565e-15
10
32.600398087724635
20
78.70654020598559
30
2.2204460492503131e-15
10
31.734862370419698
20
78.900838033797712
30
0
10
31.065126690233093
20
79.004465741283695
30
1.1102230246251565e-15
10
30.61139277197007
20
79.056051113236933
30
0
0
ARC
5
165
100
AcDbEntity
8
0
100
AcDbCircle
10
56.683078957752322
20
58.825698189225122
30
0
40
32.999999999999737
210
0
220
0
230
1
100
AcDbArc
50
142.19028680072702
51
145.80971319927718
0
SPLINE
5
166
100
AcDbEntity
8
0
100
AcDbSpline
70
0
71
3
72
16
73
12
74
0
42
0.000000001
43
0.0000000001
44
0.0000000001
40
-1
40
-1
40
-1
40
-1
40
-0.75
40
-0.625
40
-0.5
40
-0.375
40
-0.25
40
-0.1875
40
-0.125
40
-0.0625
40
0
40
0
40
0
40
0
10
29.386275879001488
20
77.36982237129115
30
0
10
29.575547974812139
20
76.954236528260623
30
1.1102230246251565e-15
10
29.881064807647867
20
76.349305342137484
30
0
10
30.333317425730904
20
75.586171629783422
30
0
10
30.695768055939091
20
75.038036546258084
30
3.3306690738754696e-15
10
31.082368512774327
20
74.516765361933025
30
-1.1102230246251565e-15
10
31.426962224395059
20
74.109378550286181
30
1.1102230246251565e-15
10
31.71613839860607
20
73.800795687766154
30
0
10
31.942794801559458
20
73.582685987605544
30
2.2204460492503131e-15
10
32.177870712018894
20
73.376408091900004
30
-1.1102230246251565e-15
10
32.340631150216041
20
73.248257221483939
30
1.1102230246251565e-15
10
32.429630440136286
20
73.195466259965855
30
0
0
LINE
5
167
100
AcDbEntity
8
0
100
AcDbLine
10
32.429630440136293
20
73.195466259965841
30
0
11
32.687674986962961
21
73.04240414279937
31
0
0
ARC
5
168
100
AcDbEntity
8
0
100
AcDbCircle
10
31.87778877069313
20
71.677032191023528
30
0
40
1.5875000000000128
210
0
220
0
230
1
100
AcDbArc
50
-27.38815154096179
51
59.32520933172183
0
ARC
5
169
100
AcDbEntity
8
0
100
AcDbCircle
10
56.683078957752322
20
58.825698189225122
30
0
40
26.3491999999999
210
0
220
0
230
1
100
AcDbArc
50
152.61184845904049
51
153.38815154096505
0
ARC
5
170
100
AcDbEntity
8
0
100
AcDbCircle
10
31.705947599119121
20
71.33977490241405
30
0
40
1.587500000000025
210
0
220
0
230
1
100
AcDbArc
50
246.6747906682775
51
333.38815154095801
0
LINE
5
171
100
AcDbEntity
8
0
100
AcDbLine
10
31.077377660447915
20
69.882017692794108
30
0
11
30.801873027406025
21
70.00081246132757
31
0
0
SPLINE
5
172
100
AcDbEntity
8
0
100
AcDbSpline
70
0
71
3
72
16
73
12
74
0
42
0.000000001
43
0.0000000001
44
0.0000000001
40
0
40
0
40
0
40
0
40
0.0625
40
0.125
40
0.1875
40
0.25
40
0.375
40
0.5
40
0.625
40
0.75
40
1
40
1
40
1
40
1
10
30.801873027406025
20
70.00081246132757
30
0
10
30.706851772308802
20
70.041784650725674
30
1.1102230246251565e-15
10
30.507506203005757
20
70.098132130333511
30
2.2204460492503131e-15
10
30.202450811178487
20
70.167068512833993
30
1.1102230246251565e-15
10
29.892771301388557
20
70.2222364190051
30
2.2204460492503131e-15
10
29.473148722303971
20
70.274803497012982
30
0
10
28.941019483745691
20
70.314131904016463
30
0
10
28.292062964552272
20
70.320498769468031
30
1.1102230246251565e-15
10
27.635570340792746
20
70.291544879752891
30
2.2204460492503131e-15
10
26.752355625999908
20
70.20886784910941
30
0
10
26.083376420461551
20
70.10046394866626
30
1.1102230246251565e-15
10
25.635909064238795
20
70.009313061140034
30
0
0
ARC
5
173
100
AcDbEntity
8
0
100
AcDbCircle
10
56.683078957752322
20
58.825698189225122
30
0
40
33.000000000000142
210
0
220
0
230
1
100
AcDbArc
50
160.19028680072725
51
163.80971319927735
0
SPLINE
5
174
100
AcDbEntity
8
0
100
AcDbSpline
70
0
71
3
72
16
73
12
74
0
42
0.000000001
43
0.0000000001
44
0.0000000001
40
-1
40
-1
40
-1
40
-1
40
-0.75
40
-0.625
40
-0.5
40
-0.375
40
-0.25
40
-0.1875
40
-0.125
40
-0.0625
40
0
40
0
40
0
40
0
10
24.991826997622482
20
68.02703228812517
30
0
10
25.300258545814472
20
67.690274958197875
30
1.1102230246251565e-15
10
25.777756337459646
20
67.20936110513864
30
0
10
26.443695422997088
20
66.623331559938094
30
0
10
26.957789512714253
20
66.214027521297652
30
3.3306690738754696e-15
10
27.486550051024629
20
65.837735275883475
30
-1.1102230246251565e-15
10
27.940167594018924
20
65.556772707059594
30
1.1102230246251565e-15
10
28.310547827551169
20
65.352653317042581
30
0
10
28.593510480527655
20
65.215259345834099
30
2.2204460492503131e-15
10
28.880824332331052
20
65.091719860255765
30
-1.1102230246251565e-15
10
29.075219504476042
20
65.020136881292586
30
1.1102230246251565e-15
10
29.176176163358761
20
64.997431986411925
30
0
0
LINE
5
175
100
AcDbEntity
8
0
100
AcDbLine
10
29.176176163358761
20
64.997431986411925
30
0
11
29.468889906512157
21
64.931601412758056
31
0
0
ARC
5
176
100
AcDbEntity
8
0
100
AcDbCircle
10
29.120565479812733
20
63.382786916517603
30
0
40
1.5875000000000148
210
0
220
0
230
1
100
AcDbArc
50
-9.3881515409604113
51
77.325209331721808
0
ARC
5
177
100
AcDbEntity
8
0
100
AcDbCircle
10
56.683078957752322
20
58.825698189225122
30
0
40
26.349200000000298
210
0
220
0
230
1
100
AcDbArc
50
170.61184845904046
51
171.388151540965
0
ARC
5
178
100
AcDbEntity
8
0
100
AcDbCircle
10
29.061353047476626
20
63.008934332167854
30
0
40
1.5875000000000066
210
0
220
0
230
1
100
AcDbArc
50
264.67479066827758
51
351.3881515409588
0
LINE
5
179
100
AcDbEntity
8
0
100
AcDbLine
10
28.914019262801297
20
61.428286045579952
30
0
11
28.615289183957625
21
61.456130970656481
31
0
0
SPLINE
5
180
100
AcDbEntity
8
0
100
AcDbSpline
70
0
71
3
72
16
73
12
74
0
42
0.000000001
43
0.0000000001
44
0.0000000001
40
0
40
0
40
0
40
0
40
0.0625
40
0.125
40
0.1875
40
0.25
40
0.375
40
0.5
40
0.625
40
0.75
40
1
40
1
40
1
40
1
10
28.615289183957625
20
61.456130970656481
30
0
10
28.512257497290136
20
61.465734655718542
30
1.1102230246251565e-15
10
28.305256265820844
20
61.457723124708423
30
2.2204460492503131e-15
10
27.993828833869159
20
61.42901822019499
30
1.1102230246251565e-15
10
27.682258297569437
20
61.385789785514582
30
2.2204460492503131e-15
10
27.266929388897321
20
61.306113539435991
30
0
10
26.74869126292959
20
61.179080099273776
30
0
10
26.129529466932997
20
60.984596755108797
30
1.1102230246251565e-15
10
25.514115123182172
20
60.754192592199402
30
2.2204460492503131e-15
10
24.699676620903801
20
60.402633706905164
30
0
10
24.096938235704137
20
60.092809527603521
30
1.1102230246251565e-15
10
23.699538664037064
20
59.867844864553277
30
0
0
ARC
5
181
100
AcDbEntity
8
0
100
AcDbCircle
10
56.683078957752322
20
58.825698189225122
30
0
40
33.00000000000054
210
0
220
0
230
1
100
AcDbArc
50
178.19028680072722
51
181.80971319927679
0
SPLINE
5
182
100
AcDbEntity
8
0
100
AcDbSpline
70
0
71
3
72
16
73
12
74
0
42
0.000000001
43
0.0000000001
44
0.0000000001
40
-1
40
-1
40
-1
40
-1
40
-0.75
40
-0.625
40
-0.5
40
-0.375
40
-0.25
40
-0.1875
40
-0.125
40
-0.0625
40
0
40
0
40
0
40
0
10
23.699538664037064
20
57.783551513894523
30
0
10
24.096938235703952
20
57.558586850845337
30
1.1102230246251565e-15
10
24.699676175390209
20
57.248765529517897
30
0
10
25.514114970819151
20
56.897204806461332
30
0
10
26.129529408639591
20
56.666797343796731
30
3.3306690738754696e-15
10
26.748691262843892
20
56.472318144056487
30
-1.1102230246251565e-15
10
27.266929391564219
20
56.345282391873617
30
1.1102230246251565e-15
10
27.682258286568757
20
56.265607102437549
30
0
10
27.993828833578249
20
56.222377939363312
30
2.2204460492503131e-15
10
28.305256345077773
20
56.193669769510834
30
-1.1102230246251565e-15
10
28.512257497290211
20
56.185661722729343
30
1.1102230246251565e-15
10
28.615289183957614
20
56.195265407791375
30
0
0
LINE
5
183
100
AcDbEntity
8
0
100
AcDbLine
10
28.615289183957611
20
56.195265407791375
30
0
11
28.9140192628013
21
56.223110332867911
31
0
0
ARC
5
184
100
AcDbEntity
8
0
100
AcDbCircle
10
29.061353047476612
20
54.642462046279988
30
0
40
1.5875000000000206
210
0
220
-0
230
1
100
AcDbArc
50
8.6118484590386331
51
95.325209331721737
0
ARC
5
185
100
AcDbEntity
8
0
100
AcDbCircle
10
56.683078957752322
20
58.825698189225122
30
0
40
26.349200000000678
210
0
220
0
230
1
100
AcDbArc
50
188.61184845904029
51
189.3881515409646
0
ARC
5
186
100
AcDbEntity
8
0
100
AcDbCircle
10
29.120565479812726
20
54.268609461930254
30
0
40
1.5875000000000123
210
0
220
0
230
1
100
AcDbArc
50
-77.325209331722121
51
9.3881515409613723
0
LINE
5
187
100
AcDbEntity
8
0
100
AcDbLine
10
29.468889906512139
20
52.719794965689807
30
0
11
29.176176163358754
21
52.653964392035924
31
0
0
SPLINE
5
188
100
AcDbEntity
8
0
100
AcDbSpline
70
0
71
3
72
16
73
12
74
0
42
0.000000001
43
0.0000000001
44
0.0000000001
40
0
40
0
40
0
40
0
40
0.0625
40
0.125
40
0.1875
40
0.25
40
0.375
40
0.5
40
0.625
40
0.75
40
1
40
1
40
1
40
1
10
29.176176163358754
20
52.653964392035924
30
0
10
29.075219504476042
20
52.631259497155192
30
1.1102230246251565e-15
10
28.880825333638999
20
52.559673180002065
30
2.2204460492503131e-15
10
28.593510548444932
20
52.43613682452731
30
1.1102230246251565e-15
10
28.31054768056795
20
52.298743549372105
30
2.2204460492503131e-15
10
27.940167729655915
20
52.094623245310316
30
0
10
27.486549474825686
20
51.813662876199594
30
0
10
26.957790272571998
20
51.437366707189923
30
1.1102230246251565e-15
10
26.443695252639969
20
51.02806583587239
30
2.2204460492503131e-15
10
25.777755878005884
20
50.442038129074518
30
0
10
25.300258545813424
20
49.961121420254216
30
1.1102230246251565e-15
10
24.991826997622507
20
49.624364090322501
30
0
0
ARC
5
189
100
AcDbEntity
8
0
100
AcDbCircle
10
56.683078957752322
20
58.825698189225122
30
0
40
33.000000000000909
210
0
220
0
230
1
100
AcDbArc
50
196.19028680072691
51
199.80971319927659
0
SPLINE
5
190
100
AcDbEntity
8
0
100
AcDbSpline
70
0
71
3
72
16
73
12
74
0
42
0.000000001
43
0.0000000001
44
0.0000000001
40
-1
40
-1
40
-1
40
-1
40
-0.75
40
-0.625
40
-0.5
40
-0.375
40
-0.25
40
-0.1875
40
-0.125
40
-0.0625
40
0
40
0
40
0
40
0
10
25.635909064238756
20
47.642083317307865
30
0
10
26.083376420462166
20
47.550932429780339
30
1.1102230246251565e-15
10
26.752354319128013
20
47.442531109763515
30
0
10
27.635569880623699
20
47.359852421892548
30
0
10
28.292063613529265
20
47.330895422992683
30
3.3306690738754696e-15
10
28.941018907383807
20
47.337266248013606
30
-1.1102230246251565e-15
10
29.473148863013595
20
47.376592457005138
30
1.1102230246251565e-15
10
29.8927711334808
20
47.42916044061073
30
0
10
30.202450878542393
20
47.484327657347606
30
2.2204460492503131e-15
10
30.507507355069421
20
47.553260958907735
30
-1.1102230246251565e-15
10
30.706851772308813
20
47.60961172772226
30
1.1102230246251565e-15
10
30.80187302740601
20
47.650583917120301
30
0
0
LINE
5
191
100
AcDbEntity
8
0
100
AcDbLine
10
30.80187302740601
20
47.650583917120287
30
0
11
31.077377660447901
21
47.769378685653756
31
0
0
ARC
5
192
100
AcDbEntity
8
0
100
AcDbCircle
10
31.705947599119099
20
46.311621476033807
30
0
40
1.587500000000015
210
0
220
-0
230
1
100
AcDbArc
50
26.61184845903691
51
113.32520933172214
0
ARC
5
193
100
AcDbEntity
8
0
100
AcDbCircle
10
56.683078957752322
20
58.825698189225122
30
0
40
26.349200000000991
210
0
220
0
230
1
100
AcDbArc
50
206.61184845903992
51
207.38815154096395
0
ARC
5
194
100
AcDbEntity
8
0
100
AcDbCircle
10
31.877788770693112
20
45.974364187424328
30
0
40
1.587500000000015
210
0
220
0
230
1
100
AcDbArc
50
-59.32520933172151
51
27.38815154096449
0
LINE
5
195
100
AcDbEntity
8
0
100
AcDbLine
10
32.687674986962953
20
44.608992235648486
30
0
11
32.429630440136265
21
44.455930118482016
31
0
0
SPLINE
5
196
100
AcDbEntity
8
0
100
AcDbSpline
70
0
71
3
72
16
73
12
74
0
42
0.000000001
43
0.0000000001
44
0.0000000001
40
0
40
0
40
0
40
0
40
0.0625
40
0.125
40
0.1875
40
0.25
40
0.375
40
0.5
40
0.625
40
0.75
40
1
40
1
40
1
40
1
10
32.429630440136265
20
44.455930118482016
30
0
10
32.340631150216005
20
44.403139156963874
30
1.1102230246251565e-15
10
32.177872695876843
20
44.274985421161681
30
2.2204460492503131e-15
10
31.942794930454834
20
44.068710213927901
30
1.1102230246251565e-15
10
31.716138108026701
20
43.850601109345376
30
2.2204460492503131e-15
10
31.426962485058802
20
43.542017464851682
30
0
10
31.082367416693117
20
43.13463252528696
30
0
10
30.695769442980922
20
42.613358022264912
30
1.1102230246251565e-15
10
30.333316949329294
20
42.06522566359051
30
2.2204460492503131e-15
10
29.881063488201075
20
41.302093610325571
30
0
10
29.575547974810124
20
40.697159850190587
30
1.1102230246251565e-15
10
29.386275879001534
20
40.281574007156571
30
0
0
ARC
5
197
100
AcDbEntity
8
0
100
AcDbCircle
10
56.683078957752322
20
58.825698189225122
30
0
40
33.00000000000118
210
0
220
0
230
1
100
AcDbArc
50
214.19028680072645
51
217.80971319927599
0
SPLINE
5
198
100
AcDbEntity
8
0
100
AcDbSpline
70
0
71
3
72
16
73
12
74
0
42
0.000000001
43
0.0000000001
44
0.0000000001
40
-1
40
-1
40
-1
40
-1
40
-0.75
40
-0.625
40
-0.5
40
-0.375
40
-0.25
40
-0.1875
40
-0.125
40
-0.0625
40
0
40
0
40
0
40
0
10
30.611392771969946
20
38.595345265211023
30
0
10
31.065126690235555
20
38.646930637161233
30
1.1102230246251565e-15
10
31.734860330114675
20
38.750560394935711
30
0
10
32.600397364793892
20
38.944856908275241
30
0
10
33.23370821214678
20
39.120184885947374
30
3.3306690738754696e-15
10
33.848932679951901
20
39.326782114988333
30
-1.1102230246251565e-15
10
34.342865874866646
20
39.528620761816661
30
1.1102230246251565e-15
10
34.725705969282934
20
39.708286297965707
30
0
10
35.003181301284314
20
39.85644974296693
30
2.2204460492503131e-15
10
35.272005689462922
20
40.016276844096446
30
-1.1102230246251565e-15
10
35.444180151255686
20
40.131470422636497
30
1.1102230246251565e-15
10
35.521889632281734
20
40.19980047300222
30
0
0
LINE
5
199
100
AcDbEntity
8
0
100
AcDbLine
10
35.521889632281727
20
40.19980047300222
30
0
11
35.747200506486067
21
40.397916625356707
31
0
0
ARC
5
200
100
AcDbEntity
8
0
100
AcDbCircle
10
36.79547779405172
20
39.205745925174035
30
0
40
1.5875000000000219
210
0
220
-0
230
1
100
AcDbArc
50
44.611848459037326
51
131.32520933172216
0
ARC
5
201
100
AcDbEntity
8
0
100
AcDbCircle
10
56.683078957752322
20
58.825698189225122
30
0
40
26.349200000001215
210
0
220
0
230
1
100
AcDbArc
50
224.61184845903927
51
225.38815154096324
0
ARC
5
202
100
AcDbEntity
8
0
100
AcDbCircle
10
37.063126693702117
20
38.938097025523653
30
0
40
1.5875000000000086
210
0
220
0
230
1
100
AcDbArc
50
-41.32520933172232
51
45.388151540966135
0
LINE
5
203
100
AcDbEntity
8
0
100
AcDbLine
10
38.255297393884781
20
37.889819737958
30
0
11
38.057181241530287
21
37.664508863753674
31
0
0
SPLINE
5
204
100
AcDbEntity
8
0
100
AcDbSpline
70
0
71
3
72
16
73
12
74
0
42
0.000000001
43
0.0000000001
44
0.0000000001
40
0
40
0
40
0
40
0
40
0.0625
40
0.125
40
0.1875
40
0.25
40
0.375
40
0.5
40
0.625
40
0.75
40
1
40
1
40
1
40
1
10
38.057181241530287
20
37.664508863753674
30
0
10
37.988851191164549
20
37.586799382727712
30
1.1102230246251565e-15
10
37.873660384838615
20
37.414622808836441
30
2.2204460492503131e-15
10
37.713830688751358
20
37.145800404331574
30
1.1102230246251565e-15
10
37.565666660762268
20
36.868325509133697
30
2.2204460492503131e-15
10
37.386001890519523
20
36.485484841359806
30
0
10
37.18416137484521
20
35.99155300764351
30
0
10
36.977567532927857
20
35.37632615089791
30
1.1102230246251565e-15
10
36.802236940990312
20
34.743017319196419
30
2.2204460492503131e-15
10
36.60793911317829
20
33.877481601891681
30
0
10
36.504311405691695
20
33.207745921705133
30
1.1102230246251565e-15
10
36.452726033739012
20
32.754012003441993
30
0
0
ARC
5
205
100
AcDbEntity
8
0
100
AcDbCircle
10
56.683078957752322
20
58.825698189225122
30
0
40
33.00000000000135
210
0
220
0
230
1
100
AcDbArc
50
232.19028680072589
51
235.80971319927534
0
SPLINE
5
206
100
AcDbEntity
8
0
100
AcDbSpline
70
0
71
3
72
16
73
12
74
0
42
0.000000001
43
0.0000000001
44
0.0000000001
40
-1
40
-1
40
-1
40
-1
40
-0.75
40
-0.625
40
-0.5
40
-0.375
40
-0.25
40
-0.1875
40
-0.125
40
-0.0625
40
0
40
0
40
0
40
0
10
38.138954775684525
20
31.528895110473592
30
0
10
38.554540618722356
20
31.718167206279574
30
1.1102230246251565e-15
10
39.159471804834808
20
32.023684039122159
30
0
10
39.922605517191954
20
32.475936657203263
30
0
10
40.47074060071732
20
32.838387287411344
30
3.3306690738754696e-15
10
40.992011785043118
20
33.224987744246192
30
-1.1102230246251565e-15
10
41.3993985966897
20
33.569581455866981
30
1.1102230246251565e-15
10
41.707981459209876
20
33.858757630078024
30
0
10
41.926091159370387
20
34.085414033031363
30
2.2204460492503131e-15
10
42.132369055075969
20
34.320489943490827
30
-1.1102230246251565e-15
10
42.260519925492019
20
34.483250381688052
30
1.1102230246251565e-15
10
42.313310887010111
20
34.572249671608219
30
0
0
LINE
5
207
100
AcDbEntity
8
0
100
AcDbLine
10
42.313310887010118
20
34.572249671608226
30
0
11
42.466373004176596
21
34.830294218434894
31
0
0
ARC
5
208
100
AcDbEntity
8
0
100
AcDbCircle
10
43.831744955952431
20
34.020408002165077
30
0
40
1.5875000000000048
210
0
220
-0
230
1
100
AcDbArc
50
62.611848459037617
51
149.32520933172214
0
ARC
5
209
100
AcDbEntity
8
0
100
AcDbCircle
10
56.683078957752322
20
58.825698189225122
30
0
40
26.349200000001343
210
0
220
0
230
1
100
AcDbArc
50
242.61184845903847
51
243.38815154096241
0
ARC
5
210
100
AcDbEntity
8
0
100
AcDbCircle
10
44.169002244561916
20
33.848566830591061
30
0
40
1.5875000000000081
210
0
220
0
230
1
100
AcDbArc
50
-23.325209331721762
51
63.388151540967911
0
LINE
5
211
100
AcDbEntity
8
0
100
AcDbLine
10
45.626759454181858
20
33.219996891919877
30
0
11
45.507964685648403
21
32.944492258877972
31
0
0
SPLINE
5
212
100
AcDbEntity
8
0
100
AcDbSpline
70
0
71
3
72
16
73
12
74
0
42
0.000000001
43
0.0000000001
44
0.0000000001
40
0
40
0
40
0
40
0
40
0.0625
40
0.125
40
0.1875
40
0.25
40
0.375
40
0.5
40
0.625
40
0.75
40
1
40
1
40
1
40
1
10
45.507964685648403
20
32.944492258877972
30
0
10
45.466992496250356
20
32.849471003780856
30
1.1102230246251565e-15
10
45.410645016642441
20
32.650125434477658
30
2.2204460492503131e-15
10
45.341708634141995
20
32.345070042650441
30
1.1102230246251565e-15
10
45.28654072797088
20
32.035390532860511
30
2.2204460492503131e-15
10
45.233973649962884
20
31.615767953775887
30
0
10
45.19464524295956
20
31.083638715217678
30
0
10
45.188278377507764
20
30.434682196024191
30
1.1102230246251565e-15
10
45.217232267223359
20
29.778189572264754
30
2.2204460492503131e-15
10
45.299909297866293
20
28.894974857471851
30
0
10
45.408313198309543
20
28.225995651933552
30
1.1102230246251565e-15
10
45.499464085835932
20
27.778528295710771
30
0
0
ARC
5
213
100
AcDbEntity
8
0
100
AcDbCircle
10
56.683078957752322
20
58.825698189225122
30
0
40
33.000000000001421
210
0
220
0
230
1
100
AcDbArc
50
250.19028680072529
51
253.80971319927477
0
SPLINE
5
214
100
AcDbEntity
8
0
100
AcDbSpline
70
0
71
3
72
16
73
12
74
0
42
0.000000001
43
0.0000000001
44
0.0000000001
40
-1
40
-1
40
-1
40
-1
40
-0.75
40
-0.625
40
-0.5
40
-0.375
40
-0.25
40
-0.1875
40
-0.125
40
-0.0625
40
0
40
0
40
0
40
0
10
47.481744858850504
20
27.134446229094525
30
0
10
47.818502188785949
20
27.442877777284977
30
1.1102230246251565e-15
10
48.299416041833339
20
27.920375568932457
30
0
10
48.885445587037175
20
28.58631465446922
30
0
10
49.294749625677795
20
29.100408744186378
30
3.3306690738754696e-15
10
49.671041871092655
20
29.629169282496548
30
-1.1102230246251565e-15
10
49.952004439916251
20
30.082786825490906
30
1.1102230246251565e-15
10
50.156123829933492
20
30.453167059023144
30
0
10
50.293517801141867
20
30.73612971199961
30
2.2204460492503131e-15
10
50.417057286720237
20
31.023443563803017
30
-1.1102230246251565e-15
10
50.488640265683358
20
31.217838735948007
30
1.1102230246251565e-15
10
50.511345160564069
20
31.318795394830726
30
0
0
LINE
5
215
100
AcDbEntity
8
0
100
AcDbLine
10
50.511345160564069
20
31.318795394830726
30
0
11
50.577175734217938
21
31.611509137984122
31
0
0
ARC
5
216
100
AcDbEntity
8
0
100
AcDbCircle
10
52.125990230458392
20
31.263184711284712
30
0
40
1.5875000000000117
210
0
220
-0
230
1
100
AcDbArc
50
80.611848459037162
51
167.32520933172236
0
ARC
5
217
100
AcDbEntity
8
0
100
AcDbCircle
10
56.683078957752322
20
58.825698189225122
30
0
40
26.349200000001353
210
0
220
0
230
1
100
AcDbArc
50
260.61184845903779
51
261.38815154096181
0
ARC
5
218
100
AcDbEntity
8
0
100
AcDbCircle
10
52.499842814808162
20
31.203972278948594
30
0
40
1.5875000000000141
210
0
220
0
230
1
100
AcDbArc
50
-5.3252093317219167
51
81.388151540965993
0
LINE
5
219
100
AcDbEntity
8
0
100
AcDbLine
10
54.080491101396071
20
31.05663849427328
30
0
11
54.052646176319534
21
30.757908415429604
31
0
0
SPLINE
5
220
100
AcDbEntity
8
0
100
AcDbSpline
70
0
71
3
72
16
73
12
74
0
42
0.000000001
43
0.0000000001
44
0.0000000001
40
0
40
0
40
0
40
0
40
0.0625
40
0.125
40
0.1875
40
0.25
40
0.375
40
0.5
40
0.625
40
0.75
40
1
40
1
40
1
40
1
10
54.052646176319534
20
30.757908415429604
30
0
10
54.043042491257431
20
30.654876728762147
30
1.1102230246251565e-15
10
54.051054022267635
20
30.447875497292799
30
2.2204460492503131e-15
10
54.079758926781032
20
30.136448065341142
30
1.1102230246251565e-15
10
54.12298736146149
20
29.824877529041423
30
2.2204460492503131e-15
10
54.202663607539911
20
29.409548620369335
30
0
10
54.329697047702233
20
28.891310494401552
30
0
10
54.524180391867048
20
28.272148698405026
30
1.1102230246251565e-15
10
54.754584554776613
20
27.656734354654148
30
2.2204460492503131e-15
10
55.106143440070852
20
26.842295852375763
30
0
10
55.415967619372665
20
26.239557467176269
30
1.1102230246251565e-15
10
55.640932282422717
20
25.842157895509068
30
0
0
ARC
5
221
100
AcDbEntity
8
0
100
AcDbCircle
10
56.683078957752322
20
58.825698189225122
30
0
40
33.000000000001386
210
0
220
0
230
1
100
AcDbArc
50
268.19028680072478
51
271.80971319927431
0
SPLINE
5
222
100
AcDbEntity
8
0
100
AcDbSpline
70
0
71
3
72
16
73
12
74
0
42
0.000000001
43
0.0000000001
44
0.0000000001
40
-1
40
-1
40
-1
40
-1
40
-0.75
40
-0.625
40
-0.5
40
-0.375
40
-0.25
40
-0.1875
40
-0.125
40
-0.0625
40
0
40
0
40
0
40
0
10
57.725225633081401
20
25.842157895509068
30
0
10
57.950190296132817
20
26.239557467176095
30
1.1102230246251565e-15
10
58.260011617457053
20
26.84229540686221
30
0
10
58.611572340514506
20
27.656734202291126
30
0
10
58.841979803179278
20
28.272148640111649
30
3.3306690738754696e-15
10
59.036459002919521
20
28.891310494315849
30
-1.1102230246251565e-15
10
59.163494755102448
20
29.409548623036233
30
1.1102230246251565e-15
10
59.243170044538473
20
29.824877518040751
30
0
10
59.286399207612718
20
30.136448065050221
30
2.2204460492503131e-15
10
59.315107377465218
20
30.44787557654977
30
-1.1102230246251565e-15
10
59.323115424246652
20
30.654876728762193
30
1.1102230246251565e-15
10
59.313511739184662
20
30.757908415429604
30
0
0
LINE
5
223
100
AcDbEntity
8
0
100
AcDbLine
10
59.313511739184662
20
30.757908415429597
30
0
11
59.28566681410814
21
31.056638494273283
31
0
0
ARC
5
224
100
AcDbEntity
8
0
100
AcDbCircle
10
60.866315100696049
20
31.203972278948598
30
0
40
1.5875000000000132
210
0
220
0
230
1
100
AcDbArc
50
98.611848459037901
51
185.32520933172191
0
ARC
5
225
100
AcDbEntity
8
0
100
AcDbCircle
10
56.683078957752322
20
58.825698189225122
30
0
40
26.349200000001275
210
0
220
0
230
1
100
AcDbArc
50
278.61184845903705
51
279.38815154096125
0
ARC
5
226
100
AcDbEntity
8
0
100
AcDbCircle
10
61.240167685045783
20
31.263184711284715
30
0
40
1.5875000000000132
210
0
220
-0
230
1
100
AcDbArc
50
12.674790668278064
51
99.388151540962511
0
LINE
5
227
100
AcDbEntity
8
0
100
AcDbLine
10
62.788982181286237
20
31.611509137984136
30
0
11
62.854812754940127
21
31.318795394830758
31
0
0
SPLINE
5
228
100
AcDbEntity
8
0
100
AcDbSpline
70
0
71
3
72
16
73
12
74
0
42
0.000000001
43
0.0000000001
44
0.0000000001
40
0
40
0
40
0
40
0
40
0.0625
40
0.125
40
0.1875
40
0.25
40
0.375
40
0.5
40
0.625
40
0.75
40
1
40
1
40
1
40
1
10
62.854812754940127
20
31.318795394830758
30
0
10
62.877517649820788
20
31.217838735947964
30
1.1102230246251565e-15
10
62.949103966974022
20
31.023444565111046
30
2.2204460492503131e-15
10
63.072640322448777
20
30.736129779916908
30
1.1102230246251565e-15
10
63.210033597604003
20
30.453166912039968
30
2.2204460492503131e-15
10
63.414153901665735
20
30.082786961127855
30
0
10
63.695114270776479
20
29.629168706297662
30
0
10
64.071410439786021
20
29.100409504043991
30
1.1102230246251565e-15
10
64.480711311103789
20
28.586314484111984
30
2.2204460492503131e-15
10
65.066739017901639
20
27.920375109477938
30
0
10
65.547655726721345
20
27.442877777285339
30
1.1102230246251565e-15
10
65.884413056653557
20
27.134446229094529
30
0
0
ARC
5
229
100
AcDbEntity
8
0
100
AcDbCircle
10
56.683078957752322
20
58.825698189225122
30
0
40
33.000000000001272
210
0
220
0
230
1
100
AcDbArc
50
286.19028680072427
51
289.80971319927403
0
SPLINE
5
230
100
AcDbEntity
8
0
100
AcDbSpline
70
0
71
3
72
16
73
12
74
0
42
0.000000001
43
0.0000000001
44
0.0000000001
40
-1
40
-1
40
-1
40
-1
40
-0.75
40
-0.625
40
-0.5
40
-0.375
40
-0.25
40
-0.1875
40
-0.125
40
-0.0625
40
0
40
0
40
0
40
0
10
67.866693829668264
20
27.778528295710807
30
0
10
67.957844717193694
20
28.225995651933417
30
1.1102230246251565e-15
10
68.066246037213432
20
28.894973550600529
30
0
10
68.148924725083859
20
29.778189112095802
30
0
10
68.177881723983546
20
30.434682845001323
30
3.3306690738754696e-15
10
68.171510898962538
20
31.083638138855811
30
-1.1102230246251565e-15
10
68.132184689970856
20
31.61576809448561
30
1.1102230246251565e-15
10
68.079616706365428
20
32.035390364952804
30
0
10
68.024449489628509
20
32.345070110014397
30
2.2204460492503131e-15
10
67.955516188068202
20
32.650126586541369
30
-1.1102230246251565e-15
10
67.899165419254004
20
32.849471003780877
30
1.1102230246251565e-15
10
67.858193229855772
20
32.944492258878
30
0
0
LINE
5
231
100
AcDbEntity
8
0
100
AcDbLine
10
67.858193229855772
20
32.944492258878
30
0
11
67.739398461322338
21
33.219996891919891
31
0
0
ARC
5
232
100
AcDbEntity
8
0
100
AcDbCircle
10
69.19715567094228
20
33.848566830591082
30
0
40
1.587500000000015
210
0
220
0
230
1
100
AcDbArc
50
116.61184845903819
51
203.32520933172199
0
ARC
5
233
100
AcDbEntity
8
0
100
AcDbCircle
10
56.683078957752322
20
58.825698189225122
30
0
40
26.349200000001115
210
0
220
0
230
1
100
AcDbArc
50
296.61184845903637
51
297.38815154096079
0
ARC
5
234
100
AcDbEntity
8
0
100
AcDbCircle
10
69.534412959551759
20
34.020408002165105
30
0
40
1.5875000000000212
210
0
220
-0
230
1
100
AcDbArc
50
30.674790668277428
51
117.3881515409601
0
LINE
5
235
100
AcDbEntity
8
0
100
AcDbLine
10
70.899784911327629
20
34.830294218434929
30
0
11
71.052847028494085
21
34.572249671608247
31
0
0
SPLINE
5
236
100
AcDbEntity
8
0
100
AcDbSpline
70
0
71
3
72
16
73
12
74
0
42
0.000000001
43
0.0000000001
44
0.0000000001
40
0
40
0
40
0
40
0
40
0.0625
40
0.125
40
0.1875
40
0.25
40
0.375
40
0.5
40
0.625
40
0.75
40
1
40
1
40
1
40
1
10
71.052847028494085
20
34.572249671608247
30
0
10
71.10563799001217
20
34.483250381688116
30
1.1102230246251565e-15
10
71.233791725814427
20
34.320491927348804
30
2.2204460492503131e-15
10
71.440066933048186
20
34.085414161926849
30
1.1102230246251565e-15
10
71.658176037630753
20
33.858757339498688
30
2.2204460492503131e-15
10
71.966759682124447
20
33.569581716530791
30
0
10
72.374144621689084
20
33.224986648165149
30
0
10
72.895419124711268
20
32.838388674452965
30
1.1102230246251565e-15
10
73.44355148338542
20
32.475936180801234
30
2.2204460492503131e-15
10
74.206683536650957
20
32.023682719673239
30
0
10
74.811617296784874
20
31.718167206282018
30
1.1102230246251565e-15
10
75.227203139819551
20
31.528895110473556
30
0
0
ARC
5
237
100
AcDbEntity
8
0
100
AcDbCircle
10
56.683078957752322
20
58.825698189225122
30
0
40
33.00000000000108
210
0
220
0
230
1
100
AcDbArc
50
304.19028680072381
51
307.80971319927374
0
SPLINE
5
238
100
AcDbEntity
8
0
100
AcDbSpline
70
0
71
3
72
16
73
12
74
0
42
0.000000001
43
0.0000000001
44
0.0000000001
40
-1
40
-1
40
-1
40
-1
40
-0.75
40
-0.625
40
-0.5
40
-0.375
40
-0.25
40
-0.1875
40
-0.125
40
-0.0625
40
0
40
0
40
0
40
0
10
76.913431881765263
20
32.754012003442114
30
0
10
76.861846509810078
20
33.207745921702994
30
1.1102230246251565e-15
10
76.758216752042884
20
33.877479561589105
30
0
10
76.563920238701414
20
34.743016596266308
30
0
10
76.388592261029061
20
35.376327443619175
30
3.3306690738754696e-15
10
76.181995031987697
20
35.991551911423826
30
-1.1102230246251565e-15
10
75.980156385159376
20
36.485485106338601
30
1.1102230246251565e-15
10
75.800490849010458
20
36.868325200754946
30
0
10
75.652327404009213
20
37.145800532756276
30
2.2204460492503131e-15
10
75.492500302879677
20
37.414624920934941
30
-1.1102230246251565e-15
10
75.377306724339633
20
37.586799382727676
30
1.1102230246251565e-15
10
75.308976673973916
20
37.664508863753731
30
0
0
LINE
5
239
100
AcDbEntity
8
0
100
AcDbLine
10
75.308976673973916
20
37.664508863753724
30
0
11
75.110860521619415
21
37.889819737958035
31
0
0
ARC
5
240
100
AcDbEntity
8
0
100
AcDbCircle
10
76.303031221802087
20
38.938097025523689
30
0
40
1.5875000000000123
210
0
220
0
230
1
100
AcDbArc
50
134.61184845903864
51
221.32520933172214
0
ARC
5
241
100
AcDbEntity
8
0
100
AcDbCircle
10
56.683078957752322
20
58.825698189225122
30
0
40
26.349200000000881
210
0
220
0
230
1
100
AcDbArc
50
314.61184845903591
51
315.38815154096045
0
ARC
5
242
100
AcDbEntity
8
0
100
AcDbCircle
10
76.570680121452483
20
39.205745925174085
30
0
40
1.5875000000000141
210
0
220
-0
230
1
100
AcDbArc
50
48.674790668277126
51
135.38815154095687
0
LINE
5
243
100
AcDbEntity
8
0
100
AcDbLine
10
77.618957409018151
20
40.397916625356743
30
0
11
77.844268283222476
21
40.199800473002263
31
0
0
SPLINE
5
244
100
AcDbEntity
8
0
100
AcDbSpline
70
0
71
3
72
16
73
12
74
0
42
0.000000001
43
0.0000000001
44
0.0000000001
40
0
40
0
40
0
40
0
40
0.0625
40
0.125
40
0.1875
40
0.25
40
0.375
40
0.5
40
0.625
40
0.75
40
1
40
1
40
1
40
1
10
77.844268283222476
20
40.199800473002263
30
0
10
77.921977764248382
20
40.131470422636532
30
1.1102230246251565e-15
10
78.094154338139703
20
40.01627961631057
30
2.2204460492503131e-15
10
78.362976742644634
20
39.856449920223362
30
1.1102230246251565e-15
10
78.640451637842403
20
39.708285892234223
30
2.2204460492503131e-15
10
79.023292305616309
20
39.528621121991534
30
0
10
79.517224139332598
20
39.326780606317172
30
0
10
80.132450996078148
20
39.120186764399854
30
1.1102230246251565e-15
10
80.765759827779789
20
38.944856172462224
30
2.2204460492503131e-15
10
81.63129554508437
20
38.7505583446505
30
0
10
82.301031225270819
20
38.646930637163045
30
1.1102230246251565e-15
10
82.754765143534215
20
38.595345265211023
30
0
0
ARC
5
245
100
AcDbEntity
8
0
100
AcDbCircle
10
56.683078957752322
20
58.825698189225122
30
0
40
33.000000000000831
210
0
220
0
230
1
100
AcDbArc
50
322.19028680072347
51
325.80971319927352
0
SPLINE
5
246
100
AcDbEntity
8
0
100
AcDbSpline
70
0
71
3
72
16
73
12
74
0
42
0.000000001
43
0.0000000001
44
0.0000000001
40
-1
40
-1
40
-1
40
-1
40
-0.75
40
-0.625
40
-0.5
40
-0.375
40
-0.25
40
-0.1875
40
-0.125
40
-0.0625
40
0
40
0
40
0
40
0
10
83.979882036502772
20
40.281574007156806
30
0
10
83.790609940691482
20
40.697159850186367
30
1.1102230246251565e-15
10
83.485093107857296
20
41.302091036310948
30
0
10
83.03284048977315
20
42.065224748664569
30
0
10
82.670389859565347
20
42.613359832189737
30
3.3306690738754696e-15
10
82.283789402729951
20
43.134631016514938
30
-1.1102230246251565e-15
10
81.939195691109177
20
43.542017828161768
30
1.1102230246251565e-15
10
81.650019516898226
20
43.850600690681759
30
0
10
81.423363113944788
20
44.068710390842355
30
2.2204460492503131e-15
10
81.188287203485245
20
44.274988286547938
30
-1.1102230246251565e-15
10
81.025526765288419
20
44.403139156963924
30
1.1102230246251565e-15
10
80.936527475367939
20
44.455930118482073
30
0
0
LINE
5
247
100
AcDbEntity
8
0
100
AcDbLine
10
80.936527475367939
20
44.455930118482087
30
0
11
80.678482928541285
21
44.608992235648543
31
0
0
ARC
5
248
100
AcDbEntity
8
0
100
AcDbCircle
10
81.488369144811102
20
45.974364187424385
30
0
40
1.5875000000000206
210
0
220
0
230
1
100
AcDbArc
50
152.61184845903762
51
239.32520933172225
0
ARC
5
249
100
AcDbEntity
8
0
100
AcDbCircle
10
56.683078957752322
20
58.825698189225122
30
0
40
26.3492000000006
210
0
220
0
230
1
100
AcDbArc
50
332.61184845903551
51
333.38815154096017
0
ARC
5
250
100
AcDbEntity
8
0
100
AcDbCircle
10
81.660210316385133
20
46.311621476033864
30
0
40
1.5875000000000219
210
0
220
-0
230
1
100
AcDbArc
50
66.674790668277055
51
153.38815154095772
0
LINE
5
251
100
AcDbEntity
8
0
100
AcDbLine
10
82.288780255056352
20
47.769378685653805
30
0
11
82.5642848880982
21
47.65058391712035
31
0
0
SPLINE
5
252
100
AcDbEntity
8
0
100
AcDbSpline
70
0
71
3
72
16
73
12
74
0
42
0.000000001
43
0.0000000001
44
0.0000000001
40
0
40
0
40
0
40
0
40
0.0625
40
0.125
40
0.1875
40
0.25
40
0.375
40
0.5
40
0.625
40
0.75
40
1
40
1
40
1
40
1
10
82.5642848880982
20
47.65058391712035
30
0
10
82.659306143195607
20
47.609611727722296
30
1.1102230246251565e-15
10
82.8586517124984
20
47.553264248114431
30
2.2204460492503131e-15
10
83.163707104325809
20
47.484327865613892
30
1.1102230246251565e-15
10
83.473386614115682
20
47.429159959442863
30
2.2204460492503131e-15
10
83.893009193200285
20
47.376592881434831
30
0
10
84.425138431758384
20
47.337264474431436
30
0
10
85.074094950952244
20
47.330897608979953
30
1.1102230246251565e-15
10
85.730587574711251
20
47.3598514986951
30
2.2204460492503131e-15
10
86.613802289504264
20
47.442528529338517
30
0
10
87.282781495042698
20
47.55093242978073
30
1.1102230246251565e-15
10
87.730248851265458
20
47.642083317307922
30
0
0
ARC
5
253
100
AcDbEntity
8
0
100
AcDbCircle
10
56.683078957752322
20
58.825698189225122
30
0
40
33.000000000000547
210
0
220
0
230
1
100
AcDbArc
50
340.19028680072319
51
343.80971319927329
0
SPLINE
5
254
100
AcDbEntity
8
0
100
AcDbSpline
70
0
71
3
72
16
73
12
74
0
42
0.000000001
43
0.0000000001
44
0.0000000001
40
-1
40
-1
40
-1
40
-1
40
-0.75
40
-0.625
40
-0.5
40
-0.375
40
-0.25
40
-0.1875
40
-0.125
40
-0.0625
40
0
40
0
40
0
40
0
10
88.374330917881778
20
49.62436409032275
30
0
10
88.065899369689305
20
49.961121420249995
30
1.1102230246251565e-15
10
87.58840157804498
20
50.442035273309372
30
0
10
86.922462492507137
20
51.028064818509861
30
0
10
86.40836840278979
20
51.43736885715019
30
3.3306690738754696e-15
10
85.879607864479709
20
51.813661102564453
30
-1.1102230246251565e-15
10
85.425990321485301
20
52.09462367138822
30
1.1102230246251565e-15
10
85.055610087953113
20
52.29874306140546
30
0
10
84.772647434976562
20
52.436137032613786
30
2.2204460492503131e-15
10
84.485333583173286
20
52.559676518192255
30
-1.1102230246251565e-15
10
84.290938411027923
20
52.631259497155199
30
1.1102230246251565e-15
10
84.189981752145513
20
52.653964392035995
30
0
0
LINE
5
255
100
AcDbEntity
8
0
100
AcDbLine
10
84.189981752145513
20
52.653964392035995
30
0
11
83.8972680089921
21
52.719794965689871
31
0
0
ARC
5
256
100
AcDbEntity
8
0
100
AcDbCircle
10
84.24559243569152
20
54.268609461930339
30
0
40
1.5875000000000279
210
0
220
0
230
1
100
AcDbArc
50
170.61184845903543
51
257.32520933172208
0
ARC
5
257
100
AcDbEntity
8
0
100
AcDbCircle
10
56.683078957752322
20
58.825698189225122
30
0
40
26.349200000000288
210
0
220
0
230
1
100
AcDbArc
50
350.61184845903563
51
351.38815154095988
0
ARC
5
258
100
AcDbEntity
8
0
100
AcDbCircle
10
84.304804868027631
20
54.642462046280073
30
0
40
1.5875000000000061
210
0
220
-0
230
1
100
AcDbArc
50
84.674790668277694
51
171.38815154095917
0
LINE
5
259
100
AcDbEntity
8
0
100
AcDbLine
10
84.452138652702956
20
56.223110332867975
30
0
11
84.750868731546646
21
56.195265407791446
31
0
0
CIRCLE
5
260
100
AcDbEntity
8
0
100
AcDbCircle
10
56.683078957752322
20
58.825698189225122
30
0
40
4.0000000000002469
210
0
220
0
230
1
0
SPLINE
5
261
100
AcDbEntity
8
0
100
AcDbSpline
70
0
71
3
72
16
73
12
74
0
42
0.000000001
43
0.0000000001
44
0.0000000001
40
0
40
0
40
0
40
0
40
0.0625
40
0.125
40
0.1875
40
0.25
40
0.375
40
0.5
40
0.625
40
0.75
40
1
40
1
40
1
40
1
10
34.774792641448137
20
11.52743848027699
30
0
10
34.868383782850742
20
11.516237837865539
30
0
10
35.057077386021348
20
11.521187774950858
30
0
10
35.341445678462414
20
11.545213177718995
30
0
10
35.626235932510859
20
11.584108642925246
30
0
10
36.00621069117512
20
11.65811472823542
30
0
10
36.480578294558569
20
11.778679335320509
30
0
10
37.047312680135526
20
11.966310523279347
30
0
10
37.610181843729656
20
12.190892445193636
30
0
10
38.354067269922574
20
12.536090992123324
30
0
10
38.902962215177929
20
12.842744325562654
30
0
10
39.263800656761305
20
13.066289625523641
30
0
0
ARC
5
262
100
AcDbEntity
8
0
100
AcDbCircle
10
13.782806436222705
20
14.050633840156459
30
0
40
25.50000000000005
210
-0
220
0
230
1
100
AcDbArc
50
-2.2122660809220318
51
2.2122660809236581
0
SPLINE
5
263
100
AcDbEntity
8
0
100
AcDbSpline
70
0
71
3
72
16
73
12
74
0
42
0.000000001
43
0.0000000001
44
0.0000000001
40
-1
40
-1
40
-1
40
-1
40
-0.75
40
-0.625
40
-0.5
40
-0.375
40
-0.25
40
-0.1875
40
-0.125
40
-0.0625
40
0
40
0
40
0
40
0
10
39.263800656761305
20
15.034978054789969
30
0
10
38.902962215177872
20
15.258523354750345
30
0
10
38.354067716901248
20
15.565174778201818
30
0
10
37.610182032659388
20
15.910374311180087
30
0
10
37.047312775446919
20
16.134959587184539
30
0
10
36.480578256361255
20
16.322586933306894
30
0
10
36.006210569067918
20
16.443157179683311
30
0
10
35.626236028412094
20
16.517156102678786
30
0
10
35.34144577880776
20
16.556051729313705
30
0
10
35.057077360390231
20
16.580080639284603
30
0
10
34.868383782850742
20
16.585029842448019
30
0
10
34.774792641448144
20
16.573829200036588
30
0
0
LINE
5
264
100
AcDbEntity
8
0
100
AcDbLine
10
34.774792641448144
20
16.573829200036585
30
0
11
34.011258767508174
21
16.482452283772041
31
0
0
ARC
5
265
100
AcDbEntity
8
0
100
AcDbCircle
10
33.822618714339299
20
18.058704541610378
30
0
40
1.5875000000000059
210
0
220
0
230
1
100
AcDbArc
50
191.3102300558229
51
276.82448989026881
0
ARC
5
266
100
AcDbEntity
8
0
100
AcDbCircle
10
13.782806436222705
20
14.050633840156459
30
0
40
18.849200000000142
210
0
220
-0
230
1
100
AcDbArc
50
11.310230055822863
51
12.689769944179032
0
ARC
5
267
100
AcDbEntity
8
0
100
AcDbCircle
10
33.720315137226223
20
18.540005030803787
30
0
40
1.5874999999999881
210
0
220
0
230
1
100
AcDbArc
50
107.17551010973003
51
192.68976994417679
0
LINE
5
268
100
AcDbEntity
8
0
100
AcDbLine
10
33.251526848934326
20
20.056709943026437
30
0
11
33.986216091404501
21
20.28379018100058
31
0
0
SPLINE
5
269
100
AcDbEntity
8
0
100
AcDbSpline
70
0
71
3
72
16
73
12
74
0
42
0.000000001
43
0.0000000001
44
0.0000000001
40
0
40
0
40
0
40
0
40
0.0625
40
0.125
40
0.1875
40
0.25
40
0.375
40
0.5
40
0.625
40
0.75
40
1
40
1
40
1
40
1
10
33.986216091404501
20
20.28379018100058
30
0
10
34.076271565203136
20
20.311624831678614
30
0
10
34.24663842847238
20
20.392895426942076
30
0
10
34.496649778659034
20
20.530506729173595
30
0
10
34.740998410676994
20
20.681874136648027
30
0
10
35.058021638767308
20
20.904031717513689
30
0
10
35.44233996453162
20
21.207115653252888
30
0
10
35.883761108638524
20
21.609036914229772
30
0
10
36.306621979272073
20
22.043142222954756
30
0
10
36.845790233204745
20
22.661062248568825
30
0
10
37.222503569732915
20
23.164459695842016
30
0
10
37.46122182410415
20
23.51544470561749
30
0
0
ARC
5
270
100
AcDbEntity
8
0
100
AcDbCircle
10
13.782806436222705
20
14.050633840156459
30
0
40
25.500000000000192
210
0
220
-0
230
1
100
AcDbArc
50
21.787733919077464
51
26.212266080923516
0
SPLINE
5
271
100
AcDbEntity
8
0
100
AcDbSpline
70
0
71
3
72
16
73
12
74
0
42
0.000000001
43
0.0000000001
44
0.0000000001
40
-1
40
-1
40
-1
40
-1
40
-0.75
40
-0.625
40
-0.5
40
-0.375
40
-0.25
40
-0.1875
40
-0.125
40
-0.0625
40
0
40
0
40
0
40
0
10
36.66048410112213
20
25.313931077687432
30
0
10
36.239917716989893
20
25.37138365462059
30
0
10
35.613751270794651
20
25.428268163963406
30
0
10
34.79377258371531
20
25.441058063255142
30
0
10
34.188218869295966
20
25.417287369833275
30
0
10
33.594166206784941
20
25.358181783804739
30
0
10
33.111769423539748
20
25.275385463995434
30
0
10
32.734547334373389
20
25.188437274847789
30
0
10
32.458558218858606
20
25.108135567777488
30
0
10
32.189001303738067
20
25.014424013429547
30
0
10
32.014608120809719
20
24.942196743200139
30
0
10
31.933664070400631
20
24.89389750052673
30
0
0
LINE
5
272
100
AcDbEntity
8
0
100
AcDbLine
10
31.933664070400631
20
24.893897500526727
30
0
11
31.273307508282553
21
24.499863328978865
31
0
0
ARC
5
273
100
AcDbEntity
8
0
100
AcDbCircle
10
30.45985669258684
20
25.863114597250402
30
0
40
1.5874999999999881
210
0
220
0
230
1
100
AcDbArc
50
215.3102300558221
51
300.82448989026966
0
ARC
5
274
100
AcDbEntity
8
0
100
AcDbCircle
10
13.782806436222705
20
14.050633840156459
30
0
40
18.849200000000248
210
0
220
-0
230
1
100
AcDbArc
50
35.310230055822622
51
36.689769944178664
0
ARC
5
275
100
AcDbEntity
8
0
100
AcDbCircle
10
30.17063517912937
20
26.261193859384598
30
0
40
1.5875000000000017
210
0
220
0
230
1
100
AcDbArc
50
131.17551010973057
51
216.68976994417747
0
LINE
5
276
100
AcDbEntity
8
0
100
AcDbLine
10
29.125476303230219
20
27.456099367836725
30
0
11
29.704286469765275
21
27.962372523944641
31
0
0
SPLINE
5
277
100
AcDbEntity
8
0
100
AcDbSpline
70
0
71
3
72
16
73
12
74
0
42
0.000000001
43
0.0000000001
44
0.0000000001
40
0
40
0
40
0
40
0
40
0.0625
40
0.125
40
0.1875
40
0.25
40
0.375
40
0.5
40
0.625
40
0.75
40
1
40
1
40
1
40
1
10
29.704286469765275
20
27.962372523944641
30
0
10
29.775234866411839
20
28.024429603740032
30
0
10
29.897817011386142
20
28.167968432940423
30
0
10
30.070242185589272
20
28.395371390320058
30
0
10
30.231899097263238
20
28.633037940180603
30
0
10
30.431154598577223
20
28.964933952631817
30
0
10
30.658971516775221
20
29.39813125110468
30
0
10
30.898753693410885
20
29.944846747736808
30
0
10
31.108489784980943
20
30.513414691670633
30
0
10
31.349713777358513
20
31.297212209914402
30
0
10
31.489108346940409
20
31.910311779161038
30
0
10
31.564429859231652
20
32.328048001965982
30
0
0
ARC
5
278
100
AcDbEntity
8
0
100
AcDbCircle
10
13.782806436222705
20
14.050633840156459
30
0
40
25.500000000000306
210
0
220
-0
230
1
100
AcDbArc
50
45.787733919077191
51
50.212266080923207
0
SPLINE
5
279
100
AcDbEntity
8
0
100
AcDbSpline
70
0
71
3
72
16
73
12
74
0
42
0.000000001
43
0.0000000001
44
0.0000000001
40
-1
40
-1
40
-1
40
-1
40
-0.75
40
-0.625
40
-0.5
40
-0.375
40
-0.25
40
-0.1875
40
-0.125
40
-0.0625
40
0
40
0
40
0
40
0
10
30.101409240045061
20
33.645357684372719
30
0
10
29.693834661905612
20
33.526783465787787
30
0
10
29.098666134883121
20
33.324065212575434
30
0
10
28.344376209234788
20
33.00223398840086
30
0
10
27.800843776114355
20
32.734217494395388
30
0
10
27.282190072325211
20
32.438598868997744
30
0
10
26.875174979388397
20
32.166752218878649
30
0
10
26.565930467883444
20
31.93389104939105
30
0
10
26.346463511813127
20
31.748276903286062
30
0
10
26.138326939461514
20
31.553028463708959
30
0
10
26.008388316785162
20
31.416113471273242
30
0
10
25.954087319038802
20
31.339067006181089
30
0
0
LINE
5
280
100
AcDbEntity
8
0
100
AcDbLine
10
25.954087319038806
20
31.339067006181089
30
0
11
25.511089717483877
21
30.710507667298579
31
0
0
ARC
5
281
100
AcDbEntity
8
0
100
AcDbCircle
10
24.213481175263802
20
31.625039416970214
30
0
40
1.5874999999999881
210
0
220
0
230
1
100
AcDbArc
50
239.31023005582182
51
324.82448989026943
0
ARC
5
282
100
AcDbEntity
8
0
100
AcDbCircle
10
13.782806436222705
20
14.050633840156459
30
0
40
18.849200000000316
210
0
220
-0
230
1
100
AcDbArc
50
59.310230055822252
51
60.689769944178181
0
ARC
5
283
100
AcDbEntity
8
0
100
AcDbCircle
10
23.787350752633646
20
31.871065931185626
30
0
40
1.5874999999999952
210
0
220
0
230
1
100
AcDbArc
50
155.17551010973054
51
240.68976994417866
0
LINE
5
284
100
AcDbEntity
8
0
100
AcDbLine
10
22.346538753740539
20
32.537562018080088
30
0
11
22.669388308221272
21
33.235488864283475
31
0
0
SPLINE
5
285
100
AcDbEntity
8
0
100
AcDbSpline
70
0
71
3
72
16
73
12
74
0
42
0.000000001
43
0.0000000001
44
0.0000000001
40
0
40
0
40
0
40
0
40
0.0625
40
0.125
40
0.1875
40
0.25
40
0.375
40
0.5
40
0.625
40
0.75
40
1
40
1
40
1
40
1
10
22.669388308221272
20
33.235488864283475
30
0
10
22.70896200538974
20
33.321038140328731
30
0
10
22.762563865579043
20
33.502026035888008
30
0
10
22.827588984745489
20
33.77990061119376
30
0
10
22.878602227440052
20
34.062771597836786
30
0
10
22.925636915621116
20
34.447018206140037
30
0
10
22.957560811444679
20
34.93542511896672
30
0
10
22.954243503916118
20
35.532402775132034
30
0
10
22.914589540797582
20
36.13712279149108
30
0
10
22.816159451886694
20
36.951272090883094
30
0
10
22.6941326670823
20
37.568063296745976
30
0
10
22.593033663543437
20
37.980320344642749
30
0
0
ARC
5
286
100
AcDbEntity
8
0
100
AcDbCircle
10
13.782806436222705
20
14.050633840156459
30
0
40
25.500000000000327
210
0
220
-0
230
1
100
AcDbArc
50
69.787733919076899
51
74.21226608092276
0
SPLINE
5
287
100
AcDbEntity
8
0
100
AcDbSpline
70
0
71
3
72
16
73
12
74
0
42
0.000000001
43
0.0000000001
44
0.0000000001
40
-1
40
-1
40
-1
40
-1
40
-0.75
40
-0.625
40
-0.5
40
-0.375
40
-0.25
40
-0.1875
40
-0.125
40
-0.0625
40
0
40
0
40
0
40
0
10
20.720699704334763
20
38.588678525915384
30
0
10
20.396590279445881
20
38.314580071419037
30
0
10
19.935329716856682
20
37.887310883268789
30
0
10
19.377152133292189
20
37.286506078032858
30
0
10
18.989622676994419
20
36.820586270110581
30
0
10
18.636047869132916
20
36.339569751286135
30
0
10
18.374791073689483
20
35.925677526312199
30
0
10
18.186995325283306
20
35.587167188166262
30
0
10
18.061998359156746
20
35.328334975139761
30
0
10
17.951270833795022
20
35.065309879312622
30
0
10
17.888254339686721
20
34.88738101069665
30
0
10
17.869985530422522
20
34.794909356945205
30
0
0
LINE
5
288
100
AcDbEntity
8
0
100
AcDbLine
10
17.869985530422522
20
34.794909356945205
30
0
11
17.720945199246479
21
34.040508470703188
31
0
0
ARC
5
289
100
AcDbEntity
8
0
100
AcDbCircle
10
16.163547235855404
20
34.34818985399658
30
0
40
1.5874999999999995
210
0
220
0
230
1
100
AcDbArc
50
263.31023005582193
51
348.82448989026932
0
ARC
5
290
100
AcDbEntity
8
0
100
AcDbCircle
10
13.782806436222705
20
14.050633840156459
30
0
40
18.849200000000323
210
0
220
-0
230
1
100
AcDbArc
50
83.310230055821847
51
84.689769944177669
0
ARC
5
291
100
AcDbEntity
8
0
100
AcDbCircle
10
15.674189725398692
20
34.399623400904659
30
0
40
1.5875000000000064
210
0
220
0
230
1
100
AcDbArc
50
179.17551010973156
51
264.68976994417989
0
LINE
5
292
100
AcDbEntity
8
0
100
AcDbLine
10
14.086854087486316
20
34.422466837890525
30
0
11
14.097919408946895
21
35.191369482014466
31
0
0
SPLINE
5
293
100
AcDbEntity
8
0
100
AcDbSpline
70
0
71
3
72
16
73
12
74
0
42
0.000000001
43
0.0000000001
44
0.0000000001
40
0
40
0
40
0
40
0
40
0.0625
40
0.125
40
0.1875
40
0.25
40
0.375
40
0.5
40
0.625
40
0.75
40
1
40
1
40
1
40
1
10
14.097919408946895
20
35.191369482014466
30
0
10
14.099275754881006
20
35.285618707290709
30
0
10
14.07462908170108
20
35.472761217843079
30
0
10
14.021010711992233
20
35.753060372593438
30
0
10
13.952559632604791
20
36.032224832625992
30
0
10
13.839240782769657
20
36.402382307434955
30
0
10
13.669751724611407
20
36.861548842350132
30
0
10
13.423908525527155
20
37.405565797926016
30
0
10
13.141721038188054
20
37.941876302172659
30
0
10
12.720656324570999
20
38.645603572534128
30
0
10
12.358307725050679
20
39.15943761214686
30
0
10
12.098269141849832
20
39.4949324963168
30
0
0
ARC
5
294
100
AcDbEntity
8
0
100
AcDbCircle
10
13.782806436222705
20
14.050633840156459
30
0
40
25.500000000000313
210
0
220
0
230
1
100
AcDbArc
50
93.787733919076587
51
98.212266080922547
0
SPLINE
5
295
100
AcDbEntity
8
0
100
AcDbSpline
70
0
71
3
72
16
73
12
74
0
42
0.000000001
43
0.0000000001
44
0.0000000001
40
-1
40
-1
40
-1
40
-1
40
-0.75
40
-0.625
40
-0.5
40
-0.375
40
-0.25
40
-0.1875
40
-0.125
40
-0.0625
40
0
40
0
40
0
40
0
10
10.14036539378618
20
39.289148520152764
30
0
10
9.9557625861552026
20
38.90691994263171
30
0
10
9.7081661296882249
20
38.328978543796588
30
0
10
9.4426148632909861
20
37.553084766463847
30
0
10
9.2780957474042154
20
36.969823412163358
30
0
10
9.1507361318763696
20
36.386581125914255
30
0
10
9.080411307301743
20
35.902209051876355
30
0
10
9.0465359129646359
20
35.516581057807407
30
0
10
9.0376220477868845
20
35.229285218908558
30
0
10
9.0434493644780805
20
34.94396289540785
30
0
10
9.0582511232560581
20
34.755785668428331
30
0
10
9.079173345562717
20
34.663878015029837
30
0
0
LINE
5
296
100
AcDbEntity
8
0
100
AcDbLine
10
9.079173345562717
20
34.663878015029837
30
0
11
9.249860712014776
21
33.914078348176446
31
0
0
ARC
5
297
100
AcDbEntity
8
0
100
AcDbCircle
10
7.701961583839358
20
33.561708458722542
30
0
40
1.587499999999997
210
0
220
0
230
1
100
AcDbArc
50
-72.689769944178124
51
12.824489890269373
0
ARC
5
298
100
AcDbEntity
8
0
100
AcDbCircle
10
13.782806436222705
20
14.050633840156459
30
0
40
18.849200000000263
210
0
220
0
230
1
100
AcDbArc
50
107.31023005582146
51
108.6897699441773
0
ARC
5
299
100
AcDbEntity
8
0
100
AcDbCircle
10
7.2339913447874675
20
33.409655710803754
30
0
40
1.5874999999999999
210
0
220
0
230
1
100
AcDbArc
50
203.17551010973079
51
288.68976994417977
0
LINE
5
300
100
AcDbEntity
8
0
100
AcDbLine
10
5.7745968201424489
20
32.784896660100088
30
0
11
5.471964613977029
21
33.491824849714334
31
0
0
SPLINE
5
301
100
AcDbEntity
8
0
100
AcDbSpline
70
0
71
3
72
16
73
12
74
0
42
0.000000001
43
0.0000000001
44
0.0000000001
40
0
40
0
40
0
40
0
40
0.0625
40
0.125
40
0.1875
40
0.25
40
0.375
40
0.5
40
0.625
40
0.75
40
1
40
1
40
1
40
1
10
5.471964613977029
20
33.491824849714334
30
0
10
5.4348690841427754
20
33.578477476943796
30
0
10
5.3362355112944213
20
33.739415962278656
30
0
10
5.1732447559405434
20
33.973673426179282
30
0
10
4.9971651679557025
20
34.200861288332341
30
0
10
4.7430866387103041
20
34.492926039477354
30
0
10
4.4014908244855624
20
34.843458131197281
30
0
10
3.955630256382646
20
35.240448912325533
30
0
10
3.4797020249767536
20
35.615616946047808
30
0
10
2.8088086008907904
20
36.08724134917145
30
0
10
2.2687915513449894
20
36.409271649049771
30
0
10
1.8947764218942105
20
36.609994256144233
30
0
0
ARC
5
302
100
AcDbEntity
8
0
100
AcDbCircle
10
13.782806436222705
20
14.050633840156459
30
0
40
25.500000000000217
210
0
220
0
230
1
100
AcDbArc
50
117.78773391907632
51
122.21226608092221
0
SPLINE
5
303
100
AcDbEntity
8
0
100
AcDbSpline
70
0
71
3
72
16
73
12
74
0
42
0.000000001
43
0.0000000001
44
0.0000000001
40
-1
40
-1
40
-1
40
-1
40
-0.75
40
-0.625
40
-0.5
40
-0.375
40
-0.25
40
-0.1875
40
-0.125
40
-0.0625
40
0
40
0
40
0
40
0
10
0.18984223001302425
20
35.625650041511044
30
0
10
0.17666554214033184
20
35.201382134456537
30
0
10
0.18554486846616011
20
34.572699843227241
30
0
10
0.25853614565245869
20
33.755876176672665
30
0
10
0.34547421992291572
20
33.156124462915272
30
0
10
0.46635143127880946
20
32.571504299124129
30
0
10
0.59911837862310457
20
32.100404708005449
30
0
10
0.72502070178420253
20
31.734337641508482
30
0
10
0.83373122582442671
20
31.468254237283514
30
0
10
0.9551057885731411
20
31.209969507914622
30
0
10
1.0451664416748827
20
31.044081474652554
30
0
10
1.1016620532431787
20
30.96862948983453
30
0
0
LINE
5
304
100
AcDbEntity
8
0
100
AcDbLine
10
1.1016620532431785
20
30.96862948983453
30
0
11
1.5625637210177428
21
30.353078216484832
31
0
0
ARC
5
305
100
AcDbEntity
8
0
100
AcDbCircle
10
0.29180924954161858
20
29.401585009350161
30
0
40
1.5874999999999959
210
0
220
0
230
1
100
AcDbArc
50
-48.689769944177328
51
36.82448989026949
0
ARC
5
306
100
AcDbEntity
8
0
100
AcDbCircle
10
13.782806436222705
20
14.050633840156459
30
0
40
18.84920000000016
210
0
220
0
230
1
100
AcDbArc
50
131.31023005582114
51
132.68976994417724
0
ARC
5
307
100
AcDbEntity
8
0
100
AcDbCircle
10
-0.073857412397237004
20
29.072337268075547
30
0
40
1.5875000000000092
210
0
220
0
230
1
100
AcDbArc
50
227.17551010973116
51
312.68976994417784
0
LINE
5
308
100
AcDbEntity
8
0
100
AcDbLine
10
-1.1529682522807416
20
27.908002245306779
30
0
11
-1.7169701282988652
21
28.430721674186024
31
0
0
SPLINE
5
309
100
AcDbEntity
8
0
100
AcDbSpline
70
0
71
3
72
16
73
12
74
0
42
0.000000001
43
0.0000000001
44
0.0000000001
40
0
40
0
40
0
40
0
40
0.0625
40
0.125
40
0.1875
40
0.25
40
0.375
40
0.5
40
0.625
40
0.75
40
1
40
1
40
1
40
1
10
-1.7169701282988652
20
28.430721674186024
30
0
10
-1.7861033797908079
20
28.494794676906476
30
0
10
-1.9416692115042737
20
28.601701410828984
30
0
10
-2.1858497701779527
20
28.749411940209313
30
0
10
-2.4391121063647758
20
28.885340359179597
30
0
10
-2.7900178290829212
20
29.04881173786282
30
0
10
-3.2446553797941342
20
29.230099203244873
30
0
10
-3.8134399741747038
20
29.411420497320655
30
0
10
-4.4008166347649649
20
29.560576099193323
30
0
10
-5.2055352014201342
20
29.718549491205884
30
0
10
-5.8298468472234024
20
29.793094086947278
30
0
10
-6.2531679092218404
20
29.824337654692023
30
0
0
ARC
5
310
100
AcDbEntity
8
0
100
AcDbCircle
10
13.782806436222705
20
14.050633840156459
30
0
40
25.500000000000114
210
0
220
0
230
1
100
AcDbArc
50
141.78773391907623
51
146.21226608092235
0
SPLINE
5
311
100
AcDbEntity
8
0
100
AcDbSpline
70
0
71
3
72
16
73
12
74
0
42
0.000000001
43
0.0000000001
44
0.0000000001
40
-1
40
-1
40
-1
40
-1
40
-0.75
40
-0.625
40
-0.5
40
-0.375
40
-0.25
40
-0.1875
40
-0.125
40
-0.0625
40
0
40
0
40
0
40
0
10
-7.4103339343035168
20
28.23163525878612
30
0
10
-7.2498061333746904
20
27.838687797683171
30
0
10
-6.9859863404492826
20
27.267969493609311
30
0
10
-6.5870733746082895
20
26.551452170391002
30
0
10
-6.2637104930296772
20
26.038912617058749
30
0
10
-5.9154972227679403
20
25.554000713152657
30
0
10
-5.602595114850577
20
25.177631004063091
30
0
10
-5.3386847296525097
20
24.894421186550165
30
0
10
-5.131146853604978
20
24.695558454881542
30
0
10
-4.9152118093512716
20
24.508971095795257
30
0
10
-4.765464567022426
20
24.394055804247365
30
0
10
-4.6831641706791576
20
24.348105821644484
30
0
0
LINE
5
312
100
AcDbEntity
8
0
100
AcDbLine
10
-4.6831641706791576
20
24.348105821644481
30
0
11
-4.0117422871005184
21
23.97323734906842
31
0
0
ARC
5
313
100
AcDbEntity
8
0
100
AcDbCircle
10
-4.7856271093171836
20
22.587142643810985
30
0
40
1.5875000000000039
210
-0
220
0
230
1
100
AcDbArc
50
-24.689769944179226
51
60.824489890269213
0
ARC
5
314
100
AcDbEntity
8
0
100
AcDbCircle
10
13.782806436222705
20
14.050633840156459
30
0
40
18.849200000000053
210
0
220
0
230
1
100
AcDbArc
50
155.31023005582122
51
156.68976994417713
0
ARC
5
315
100
AcDbEntity
8
0
100
AcDbCircle
10
-4.9857631063164103
20
22.137629834768742
30
0
40
1.5875000000000075
210
0
220
0
230
1
100
AcDbArc
50
251.17551010973079
51
336.68976994417739
0
LINE
5
316
100
AcDbEntity
8
0
100
AcDbLine
10
-5.4980021938083334
20
20.635042943023223
30
0
11
-6.2258526915194414
21
20.883170673157331
31
0
0
SPLINE
5
317
100
AcDbEntity
8
0
100
AcDbSpline
70
0
71
3
72
16
73
12
74
0
42
0.000000001
43
0.0000000001
44
0.0000000001
40
0
40
0
40
0
40
0
40
0.0625
40
0.125
40
0.1875
40
0.25
40
0.375
40
0.5
40
0.625
40
0.75
40
1
40
1
40
1
40
1
10
-6.2258526915194414
20
20.883170673157331
30
0
10
-6.3150698974302859
20
20.913585247113375
30
0
10
-6.500669242434336
20
20.947975084111246
30
0
10
-6.7838185675224132
20
20.983598186533325
30
0
10
-7.0704722931684412
20
21.004763903810037
30
0
10
-7.4575304220229199
20
21.01137622356611
30
0
10
-7.9465987464501904
20
20.992072812901071
30
0
10
-8.5399593434941359
20
20.926372520926158
30
0
10
-9.1372216725032711
20
20.823725332349472
30
0
10
-9.9366222309144234
20
20.640732678628591
30
0
10
-10.53727931772219
20
20.454902132413611
30
0
10
-10.936710254897879
20
20.311264364106194
30
0
0
ARC
5
318
100
AcDbEntity
8
0
100
AcDbCircle
10
13.782806436222705
20
14.050633840156459
30
0
40
25.500000000000007
210
0
220
0
230
1
100
AcDbArc
50
165.78773391907623
51
170.21226608092243
0
SPLINE
5
319
100
AcDbEntity
8
0
100
AcDbSpline
70
0
71
3
72
16
73
12
74
0
42
0.000000001
43
0.0000000001
44
0.0000000001
40
-1
40
-1
40
-1
40
-1
40
-0.75
40
-0.625
40
-0.5
40
-0.375
40
-0.25
40
-0.1875
40
-0.125
40
-0.0625
40
0
40
0
40
0
40
0
10
-11.346023594920034
20
18.38559650042675
30
0
10
-11.039548020322078
20
18.091913671115819
30
0
10
-10.566404599717782
20
17.677841733784462
30
0
10
-9.9105456210275626
20
17.185523108442556
30
0
10
-9.406670312025275
20
16.848818460582226
30
0
10
-8.8913302207045835
20
16.547460490032961
30
0
10
-8.4523965692993244
20
16.33089840488546
30
0
10
-8.096110625215637
20
16.1795153866851
30
0
10
-7.825630581351815
20
16.082258500489456
30
0
10
-7.5524721864528912
20
15.999631161164887
30
0
10
-7.3689310135065558
20
15.955558509212253
30
0
10
-7.2750563185917185
20
15.94705569825914
30
0
0
LINE
5
320
100
AcDbEntity
8
0
100
AcDbLine
10
-7.2750563185917185
20
15.947055698259138
30
0
11
-6.5092091625560666
21
15.87768819093826
31
0
0
ARC
5
321
100
AcDbEntity
8
0
100
AcDbCircle
10
-6.6524126192291
20
14.296660354372159
30
0
40
1.5874999999999968
210
0
220
0
230
1
100
AcDbArc
50
-0.68976994418087278
51
84.824489890269305
0
ARC
5
322
100
AcDbEntity
8
0
100
AcDbCircle
10
13.782806436222705
20
14.050633840156459
30
0
40
18.849199999999946
210
0
220
0
230
1
100
AcDbArc
50
179.31023005582179
51
180.68976994417716
0
ARC
5
323
100
AcDbEntity
8
0
100
AcDbCircle
10
-6.6524126192290964
20
13.80460732594134
30
0
40
1.5874999999999977
210
0
220
0
230
1
100
AcDbArc
50
-84.824489890269646
51
0.68976994417665327
0
LINE
5
324
100
AcDbEntity
8
0
100
AcDbLine
10
-6.509209162556072
20
12.223579489375238
30
0
11
-7.2750563185917185
21
12.154211982054349
31
0
0
SPLINE
5
325
100
AcDbEntity
8
0
100
AcDbSpline
70
0
71
3
72
16
73
12
74
0
42
0.000000001
43
0.0000000001
44
0.0000000001
40
0
40
0
40
0
40
0
40
0.0625
40
0.125
40
0.1875
40
0.25
40
0.375
40
0.5
40
0.625
40
0.75
40
1
40
1
40
1
40
1
10
-7.2750563185917185
20
12.154211982054349
30
0
10
-7.3689310135065877
20
12.145709171101249
30
0
10
-7.5524720589329366
20
12.10163579593571
30
0
10
-7.8256310597968151
20
12.019011913365038
30
0
10
-8.0961111415704909
20
11.921755184146491
30
0
10
-8.4523958097696994
20
11.770365114818675
30
0
10
-8.8913305515732919
20
11.553808563176318
30
0
10
-9.4066697135398911
20
11.252446862501799
30
0
10
-9.9105456283244227
20
10.915745514900854
30
0
10
-10.566404559615801
20
10.423427907711371
30
0
10
-11.039548020321575
20
10.009354009196924
30
0
10
-11.346023594920061
20
9.7156711798867672
30
0
0
ARC
5
326
100
AcDbEntity
8
0
100
AcDbCircle
10
13.782806436222705
20
14.050633840156459
30
0
40
25.499999999999904
210
0
220
0
230
1
100
AcDbArc
50
189.78773391907626
51
194.2122660809224
0
SPLINE
5
327
100
AcDbEntity
8
0
100
AcDbSpline
70
0
71
3
72
16
73
12
74
0
42
0.000000001
43
0.0000000001
44
0.0000000001
40
-1
40
-1
40
-1
40
-1
40
-0.75
40
-0.625
40
-0.5
40
-0.375
40
-0.25
40
-0.1875
40
-0.125
40
-0.0625
40
0
40
0
40
0
40
0
10
-10.936710254897902
20
7.7900033162073257
30
0
10
-10.537279317722222
20
7.6463655478989567
30
0
10
-9.9366230652342349
20
7.4605367770032629
30
0
10
-9.1372220494021921
20
7.2775432124327164
30
0
10
-8.5399589314662236
20
7.1748927625250971
30
0
10
-7.9465990025936097
20
7.109196256191586
30
0
10
-7.4575294236155258
20
7.089887346913061
30
0
10
-7.0704729971344555
20
7.0965066271435662
30
0
10
-6.7838192422724664
20
7.1176721855952341
30
0
10
-6.5006690647724961
20
7.1532918836473414
30
0
10
-6.3150698974302335
20
7.1876824332001563
30
0
10
-6.2258526915194645
20
7.2180970071561648
30
0
0
LINE
5
328
100
AcDbEntity
8
0
100
AcDbLine
10
-6.2258526915194654
20
7.2180970071561648
30
0
11
-5.4980021938083548
21
7.4662247372902719
31
0
0
ARC
5
329
100
AcDbEntity
8
0
100
AcDbCircle
10
-4.9857631063164281
20
5.9636378455447572
30
0
40
1.5875000000000019
210
0
220
-0
230
1
100
AcDbArc
50
23.310230055822103
51
108.8244898902694
0
ARC
5
330
100
AcDbEntity
8
0
100
AcDbCircle
10
13.782806436222705
20
14.050633840156459
30
0
40
18.849199999999836
210
0
220
0
230
1
100
AcDbArc
50
203.31023005582125
51
204.68976994417733
0
ARC
5
331
100
AcDbEntity
8
0
100
AcDbCircle
10
-4.7856271093172005
20
5.5141250365025032
30
0
40
1.587499999999997
210
0
220
0
230
1
100
AcDbArc
50
-60.824489890269469
51
24.689769944177208
0
LINE
5
332
100
AcDbEntity
8
0
100
AcDbLine
10
-4.011742287100545
20
4.1280303312450712
30
0
11
-4.6831641706791878
21
3.7531618586689932
31
0
0
SPLINE
5
333
100
AcDbEntity
8
0
100
AcDbSpline
70
0
71
3
72
16
73
12
74
0
42
0.000000001
43
0.0000000001
44
0.0000000001
40
0
40
0
40
0
40
0
40
0.0625
40
0.125
40
0.1875
40
0.25
40
0.375
40
0.5
40
0.625
40
0.75
40
1
40
1
40
1
40
1
10
-4.6831641706791878
20
3.7531618586689932
30
0
10
-4.7654645670224305
20
3.7072118760661494
30
0
10
-4.9152113986988581
20
3.5922959756973682
30
0
10
-5.1311484025175389
20
3.4057115280448089
30
0
10
-5.3386863770457857
20
3.2068489243625509
30
0
10
-5.602592728713482
20
2.9236331842731951
30
0
10
-5.9154980834385951
20
2.5472680867870579
30
0
10
-6.2637089875145868
20
2.0623531532445791
30
0
10
-6.5870737648391504
20
1.5498163684554185
30
0
10
-6.985987101499461
20
0.83329999464517146
30
0
10
-7.2498061333732888
20
0.26257988262826121
30
0
10
-7.4103339343036119
20
-0.13036757847257086
30
0
0
ARC
5
334
100
AcDbEntity
8
0
100
AcDbCircle
10
13.782806436222705
20
14.050633840156459
30
0
40
25.499999999999822
210
0
220
0
230
1
100
AcDbArc
50
213.78773391907637
51
218.21226608092249
0
SPLINE
5
335
100
AcDbEntity
8
0
100
AcDbSpline
70
0
71
3
72
16
73
12
74
0
42
0.000000001
43
0.0000000001
44
0.0000000001
40
-1
40
-1
40
-1
40
-1
40
-0.75
40
-0.625
40
-0.5
40
-0.375
40
-0.25
40
-0.1875
40
-0.125
40
-0.0625
40
0
40
0
40
0
40
0
10
-6.253167909221947
20
-1.7230699743784683
30
0
10
-5.8298468472216713
20
-1.6918264066358906
30
0
10
-5.2055366856968615
20
-1.6172805284062439
30
0
10
-4.4008173306903524
20
-1.4593077824469727
30
0
10
-3.8134386228768733
20
-1.3101548390626889
30
0
10
-3.2446561786601609
20
-1.1288303584015302
30
0
10
-2.790015245372206
20
-0.94754740598086151
30
0
10
-2.4391139089295386
20
-0.78407036100557903
30
0
10
-2.1858514814526644
20
-0.64814207524596423
30
0
10
-1.9416687593799011
20
-0.50043430920517096
30
0
10
-1.7861033797908423
20
-0.39352699659295698
30
0
10
-1.7169701282989058
20
-0.3294539938725376
30
0
0
LINE
5
336
100
AcDbEntity
8
0
100
AcDbLine
10
-1.7169701282989058
20
-0.32945399387253765
30
0
11
-1.15296825228078
21
0.19326543500671534
31
0
0
ARC
5
337
100
AcDbEntity
8
0
100
AcDbCircle
10
-0.073857412397273225
20
-0.97106958776203967
30
0
40
1.5875000000000017
210
0
220
-0
230
1
100
AcDbArc
50
47.31023005582189
51
132.82448989026921
0
ARC
5
338
100
AcDbEntity
8
0
100
AcDbCircle
10
13.782806436222705
20
14.050633840156459
30
0
40
18.849199999999758
210
0
220
0
230
1
100
AcDbArc
50
227.31023005582151
51
228.68976994417756
0
ARC
5
339
100
AcDbEntity
8
0
100
AcDbCircle
10
0.29180924954156751
20
-1.3003173290366603
30
0
40
1.5874999999999977
210
-0
220
0
230
1
100
AcDbArc
50
-36.824489890269277
51
48.689769944177641
0
LINE
5
340
100
AcDbEntity
8
0
100
AcDbLine
10
1.5625637210176966
20
-2.2518105361713285
30
0
11
1.1016620532431292
21
-2.8673618095210212
31
0
0
SPLINE
5
341
100
AcDbEntity
8
0
100
AcDbSpline
70
0
71
3
72
16
73
12
74
0
42
0.000000001
43
0.0000000001
44
0.0000000001
40
0
40
0
40
0
40
0
40
0.0625
40
0.125
40
0.1875
40
0.25
40
0.375
40
0.5
40
0.625
40
0.75
40
1
40
1
40
1
40
1
10
1.1016620532431292
20
-2.8673618095210212
30
0
10
1.0451664416748234
20
-2.9428137943390804
30
0
10
0.95510641135251417
20
-3.1087022167591782
30
0
10
0.83372887426534814
20
-3.3669850834279846
30
0
10
0.72501820820175555
20
-3.6330684107872764
30
0
10
0.59912197878289564
20
-3.9991392472424705
30
0
10
0.46635018962409136
20
-4.4702359460474934
30
0
10
0.34547637215025512
20
-5.0548579151345336
30
0
10
0.25853543996179168
20
-5.6546078707713558
30
0
10
0.1855434378551214
20
-6.4714308208236702
30
0
10
0.1766655421449016
20
-7.1001144541457162
30
0
10
0.1898422300128022
20
-7.5243823611974436
30
0
0
ARC
5
342
100
AcDbEntity
8
0
100
AcDbCircle
10
13.782806436222705
20
14.050633840156459
30
0
40
25.499999999999744
210
0
220
0
230
1
100
AcDbArc
50
237.78773391907652
51
242.21226608092257
0
SPLINE
5
343
100
AcDbEntity
8
0
100
AcDbSpline
70
0
71
3
72
16
73
12
74
0
42
0.000000001
43
0.0000000001
44
0.0000000001
40
-1
40
-1
40
-1
40
-1
40
-0.75
40
-0.625
40
-0.5
40
-0.375
40
-0.25
40
-0.1875
40
-0.125
40
-0.0625
40
0
40
0
40
0
40
0
10
1.8947764218940062
20
-8.5087265758306643
30
0
10
2.2687915513487362
20
-8.3080039687377827
30
0
10
2.8088067233017222
20
-7.9859731009581534
30
0
10
3.4797011303565926
20
-7.5143489673823405
30
0
10
3.9556323132985991
20
-7.1391825296293963
30
0
10
4.4014896210281771
20
-6.7421897119607817
30
0
10
4.7430903609772983
20
-6.3916603672184671
30
0
10
4.9971625784720022
20
-6.0995922237169529
30
0
10
5.1732423040361342
20
-5.8724044461269456
30
0
10
5.3362361597048649
20
-5.6381486267288441
30
0
10
5.4348690841427238
20
-5.4772097966303264
30
0
10
5.471964613976974
20
-5.3905571694008181
30
0
0
LINE
5
344
100
AcDbEntity
8
0
100
AcDbLine
10
5.4719646139769749
20
-5.3905571694008181
30
0
11
5.7745968201423885
21
-4.6836289797865787
31
0
0
ARC
5
345
100
AcDbEntity
8
0
100
AcDbCircle
10
7.2339913447874062
20
-5.3083880304902422
30
0
40
1.5875000000000012
210
0
220
-0
230
1
100
AcDbArc
50
71.310230055821563
51
156.82448989026923
0
ARC
5
346
100
AcDbEntity
8
0
100
AcDbCircle
10
13.782806436222705
20
14.050633840156459
30
0
40
18.849199999999705
210
0
220
0
230
1
100
AcDbArc
50
251.31023005582185
51
252.68976994417773
0
ARC
5
347
100
AcDbEntity
8
0
100
AcDbCircle
10
7.7019615838392896
20
-5.4604407784090183
30
0
40
1.5875000000000008
210
0
220
0
230
1
100
AcDbArc
50
-12.824489890269195
51
72.689769944179005
0
LINE
5
348
100
AcDbEntity
8
0
100
AcDbLine
10
9.2498607120147174
20
-5.8128106678629186
30
0
11
9.0791733455626513
21
-6.5626103347163189
31
0
0
SPLINE
5
349
100
AcDbEntity
8
0
100
AcDbSpline
70
0
71
3
72
16
73
12
74
0
42
0.000000001
43
0.0000000001
44
0.0000000001
40
0
40
0
40
0
40
0
40
0.0625
40
0.125
40
0.1875
40
0.25
40
0.375
40
0.5
40
0.625
40
0.75
40
1
40
1
40
1
40
1
10
9.0791733455626513
20
-6.5626103347163189
30
0
10
9.0582511232559924
20
-6.6545179881147778
30
0
10
9.0434500917001905
20
-6.8426953173007607
30
0
10
9.0376193001872149
20
-7.1280171489125976
30
0
10
9.0465330043560783
20
-7.4153129753573559
30
0
10
9.080415498983875
20
-7.8009419349061515
30
0
10
9.1507347239308103
20
-8.2853133360275102
30
0
10
9.2780981742045459
20
-8.8685558910801312
30
0
10
9.4426139641610813
20
-9.4518168016777047
30
0
10
9.7081642768838954
20
-10.227710219304448
30
0
10
9.9557625861584746
20
-10.8056522623192
30
0
10
10.140365393785977
20
-11.187880839839217
30
0
0
ARC
5
350
100
AcDbEntity
8
0
100
AcDbCircle
10
13.782806436222705
20
14.050633840156459
30
0
40
25.499999999999702
210
0
220
0
230
1
100
AcDbArc
50
261.78773391907674
51
266.21226608092275
0
SPLINE
5
351
100
AcDbEntity
8
0
100
AcDbSpline
70
0
71
3
72
16
73
12
74
0
42
0.000000001
43
0.0000000001
44
0.0000000001
40
-1
40
-1
40
-1
40
-1
40
-0.75
40
-0.625
40
-0.5
40
-0.375
40
-0.25
40
-0.1875
40
-0.125
40
-0.0625
40
0
40
0
40
0
40
0
10
12.098269141849576
20
-11.393664816003255
30
0
10
12.358307725055459
20
-11.058169931833721
30
0
10
12.720654378321807
20
-10.544336137102217
30
0
10
13.141720099561027
20
-9.8406087131757793
30
0
10
13.423910932401746
20
-9.3042984664216952
30
0
10
13.669750324651385
20
-8.7602809764871008
30
0
10
13.839244999979122
20
-8.3011149475882
30
0
10
13.95255670394741
20
-7.9309569409276683
30
0
10
14.021007943414673
20
-7.651792502188731
30
0
10
14.074629814281526
20
-7.3714935887545838
30
0
10
14.099275754880953
20
-7.184351026977148
30
0
10
14.097919408946826
20
-7.0901018017009401
30
0
0
LINE
5
352
100
AcDbEntity
8
0
100
AcDbLine
10
14.097919408946826
20
-7.0901018017009401
30
0
11
14.086854087486254
21
-6.321199157576995
31
0
0
ARC
5
353
100
AcDbEntity
8
0
100
AcDbCircle
10
15.674189725398623
20
-6.2983557205911156
30
0
40
1.5874999999999997
210
0
220
0
230
1
100
AcDbArc
50
95.310230055821748
51
180.82448989026884
0
ARC
5
354
100
AcDbEntity
8
0
100
AcDbCircle
10
13.782806436222705
20
14.050633840156459
30
0
40
18.849199999999698
210
-0
220
0
230
1
100
AcDbArc
50
275.31023005582216
51
276.68976994417812
0
ARC
5
355
100
AcDbEntity
8
0
100
AcDbCircle
10
16.163547235855344
20
-6.2469221736830463
30
0
40
1.5875000000000052
210
0
220
-0
230
1
100
AcDbArc
50
11.175510109730833
51
96.689769944179204
0
LINE
5
356
100
AcDbEntity
8
0
100
AcDbLine
10
17.720945199246422
20
-5.9392407903896496
30
0
11
17.869985530422465
21
-6.6936416766316675
31
0
0
SPLINE
5
357
100
AcDbEntity
8
0
100
AcDbSpline
70
0
71
3
72
16
73
12
74
0
42
0.000000001
43
0.0000000001
44
0.0000000001
40
0
40
0
40
0
40
0
40
0.0625
40
0.125
40
0.1875
40
0.25
40
0.375
40
0.5
40
0.625
40
0.75
40
1
40
1
40
1
40
1
10
17.869985530422465
20
-6.6936416766316675
30
0
10
17.888254339686711
20
-6.7861133303831469
30
0
10
17.951271539716519
20
-6.9640419965813374
30
0
10
18.061995690601456
20
-7.2270680563830858
30
0
10
18.186992504573499
20
-7.4859003235203403
30
0
10
18.374795132114023
20
-7.8244086557276464
30
0
10
18.63604653834329
20
-8.2383025435354487
30
0
10
18.989624958751573
20
-8.7193177481926973
30
0
10
19.377151196190649
20
-9.1852385035497299
30
0
10
19.935327762224333
20
-9.7860433680729333
30
0
10
20.396590279449825
20
-10.213312391103834
30
0
10
20.720699704334553
20
-10.487410845601893
30
0
0
ARC
5
358
100
AcDbEntity
8
0
100
AcDbCircle
10
13.782806436222705
20
14.050633840156459
30
0
40
25.499999999999709
210
-0
220
0
230
1
100
AcDbArc
50
285.78773391907714
51
290.21226608092314
0
SPLINE
5
359
100
AcDbEntity
8
0
100
AcDbSpline
70
0
71
3
72
16
73
12
74
0
42
0.000000001
43
0.0000000001
44
0.0000000001
40
-1
40
-1
40
-1
40
-1
40
-0.75
40
-0.625
40
-0.5
40
-0.375
40
-0.25
40
-0.1875
40
-0.125
40
-0.0625
40
0
40
0
40
0
40
0
10
22.593033663543245
20
-9.8790526643292509
30
0
10
22.694132667085626
20
-9.4667956164310922
30
0
10
22.816157773502535
20
-8.8500054258907213
30
0
10
22.914588720460955
20
-8.0358555763733612
30
0
10
22.954245844579127
20
-7.4311344345074479
30
0
10
22.957559457047733
20
-6.8341578385603263
30
0
10
22.925640898579243
20
-6.3457491032938318
30
0
10
22.878599466000473
20
-5.9615049156058415
30
0
10
22.827586378206984
20
-5.6786338833052294
30
0
10
22.762564555659722
20
-5.4007581044034509
30
0
10
22.70896200538969
20
-5.219770460015285
30
0
10
22.669388308221222
20
-5.1342211839699248
30
0
0
LINE
5
360
100
AcDbEntity
8
0
100
AcDbLine
10
22.669388308221219
20
-5.1342211839699257
30
0
11
22.346538753740486
21
-4.4362943377665491
31
0
0
ARC
5
361
100
AcDbEntity
8
0
100
AcDbCircle
10
23.787350752633593
20
-3.7697982508720855
30
0
40
1.5874999999999961
210
0
220
0
230
1
100
AcDbArc
50
119.31023005582182
51
204.82448989026952
0
ARC
5
362
100
AcDbEntity
8
0
100
AcDbCircle
10
13.782806436222705
20
14.050633840156459
30
0
40
18.849199999999744
210
-0
220
0
230
1
100
AcDbArc
50
299.31023005582256
51
300.68976994417847
0
ARC
5
363
100
AcDbEntity
8
0
100
AcDbCircle
10
24.213481175263752
20
-3.5237717366566756
30
0
40
1.5875000000000004
210
0
220
-0
230
1
100
AcDbArc
50
35.175510109730496
51
120.68976994417962
0
LINE
5
364
100
AcDbEntity
8
0
100
AcDbLine
10
25.511089717483838
20
-2.6092399869850356
30
0
11
25.954087319038749
21
-3.2377993258675408
31
0
0
SPLINE
5
365
100
AcDbEntity
8
0
100
AcDbSpline
70
0
71
3
72
16
73
12
74
0
42
0.000000001
43
0.0000000001
44
0.0000000001
40
0
40
0
40
0
40
0
40
0.0625
40
0.125
40
0.1875
40
0.25
40
0.375
40
0.5
40
0.625
40
0.75
40
1
40
1
40
1
40
1
10
25.954087319038749
20
-3.2377993258675408
30
0
10
26.008388316785144
20
-3.3148457909597662
30
0
10
26.138327502022186
20
-3.4517603113533797
30
0
10
26.346461383719646
20
-3.6470110040885393
30
0
10
26.565928222798728
20
-3.8326252615129475
30
0
10
26.875178202816883
20
-4.0654818004884721
30
0
10
27.282189048796891
20
-4.3373321616727525
30
0
10
27.800845518292071
20
-4.6329481171635649
30
0
10
28.344375396195186
20
-4.9009667859215771
30
0
10
29.098664416397458
20
-5.2227984781241581
30
0
10
29.693834661907541
20
-5.4255157854726654
30
0
10
30.101409240044923
20
-5.5440900040592211
30
0
0
ARC
5
366
100
AcDbEntity
8
0
100
AcDbCircle
10
13.782806436222705
20
14.050633840156459
30
0
40
25.49999999999978
210
-0
220
0
230
1
100
AcDbArc
50
309.78773391907737
51
314.21226608092348
0
SPLINE
5
367
100
AcDbEntity
8
0
100
AcDbSpline
70
0
71
3
72
16
73
12
74
0
42
0.000000001
43
0.0000000001
44
0.0000000001
40
-1
40
-1
40
-1
40
-1
40
-0.75
40
-0.625
40
-0.5
40
-0.375
40
-0.25
40
-0.1875
40
-0.125
40
-0.0625
40
0
40
0
40
0
40
0
10
31.56442985923151
20
-4.2267803216524875
30
0
10
31.489108346942594
20
-3.8090440988457903
30
0
10
31.349712657046901
20
-3.195946139802734
30
0
10
31.108489224778427
20
-2.4121477699954936
30
0
10
30.898755563140345
20
-1.8435775121655591
30
0
10
30.658970442128851
20
-1.29686448700737
30
0
10
30.43115765859438
20
-0.8636633527549229
30
0
10
30.231896980519444
20
-0.53177229483954969
30
0
10
30.07024019178402
20
-0.29410564026470909
30
0
10
29.897817539645754
20
-0.066700242489673281
30
0
10
29.775234866411843
20
0.076838076573491843
30
0
10
29.704286469765236
20
0.13889515636891173
30
0
0
LINE
5
368
100
AcDbEntity
8
0
100
AcDbLine
10
29.704286469765236
20
0.1388951563689117
30
0
11
29.125476303230183
21
0.64516831247682593
31
0
0
ARC
5
369
100
AcDbEntity
8
0
100
AcDbCircle
10
30.17063517912932
20
1.8400738209289491
30
0
40
1.5874999999999932
210
0
220
0
230
1
100
AcDbArc
50
143.31023005582182
51
228.82448989026972
0
ARC
5
370
100
AcDbEntity
8
0
100
AcDbCircle
10
13.782806436222705
20
14.050633840156459
30
0
40
18.849199999999847
210
-0
220
0
230
1
100
AcDbArc
50
323.31023005582284
51
324.68976994417886
0
ARC
5
371
100
AcDbEntity
8
0
100
AcDbCircle
10
30.459856692586808
20
2.2381530830631311
30
0
40
1.5875000000000057
210
0
220
-0
230
1
100
AcDbArc
50
59.175510109730396
51
144.68976994417744
0
LINE
5
372
100
AcDbEntity
8
0
100
AcDbLine
10
31.273307508282528
20
3.601404351334681
30
0
11
31.933664070400589
21
3.207370179786817
31
0
0
SPLINE
5
373
100
AcDbEntity
8
0
100
AcDbSpline
70
0
71
3
72
16
73
12
74
0
42
0.000000001
43
0.0000000001
44
0.0000000001
40
0
40
0
40
0
40
0
40
0.0625
40
0.125
40
0.1875
40
0.25
40
0.375
40
0.5
40
0.625
40
0.75
40
1
40
1
40
1
40
1
10
31.933664070400589
20
3.207370179786817
30
0
10
32.014608120809733
20
3.1590709371134573
30
0
10
32.18900162566608
20
3.0868443269298416
30
0
10
32.458556999193604
20
2.9931296198320361
30
0
10
32.73454605310932
20
2.9128277634817499
30
0
10
33.11177125461208
20
2.825886028762107
30
0
10
33.594165667495531
20
2.7430845913330772
30
0
10
34.188219770655621
20
2.6839825692997543
30
0
10
34.793772035319492
20
2.6602088498421512
30
0
10
35.613750085596678
20
2.6729979532911168
30
0
10
36.239917716990831
20
2.7298840256947132
30
0
10
36.660484101122066
20
2.7873366026260666
30
0
0
ARC
5
374
100
AcDbEntity
8
0
100
AcDbCircle
10
13.782806436222705
20
14.050633840156459
30
0
40
25.499999999999901
210
-0
220
0
230
1
100
AcDbArc
50
333.78773391907754
51
338.21226608092371
0
SPLINE
5
375
100
AcDbEntity
8
0
100
AcDbSpline
70
0
71
3
72
16
73
12
74
0
42
0.000000001
43
0.0000000001
44
0.0000000001
40
-1
40
-1
40
-1
40
-1
40
-0.75
40
-0.625
40
-0.5
40
-0.375
40
-0.25
40
-0.1875
40
-0.125
40
-0.0625
40
0
40
0
40
0
40
0
10
37.461221824104101
20
4.5858229746960291
30
0
10
37.222503569733547
20
4.936807984472841
30
0
10
36.845789864677577
20
5.4402035050809321
30
0
10
36.306621776067779
20
6.058124536453481
30
0
10
35.883762184141148
20
6.4922329473699447
30
0
10
35.442339355451999
20
6.8941507529574562
30
0
10
35.058023246738713
20
7.1972398745748123
30
0
10
34.74099730463324
20
7.4193908236684267
30
0
10
34.49664874233406
20
7.5707583768077091
30
0
10
34.24663870357012
20
7.7083729342675813
30
0
10
34.076271565203072
20
7.7896428486349221
30
0
10
33.986216091404479
20
7.8174774993129761
30
0
0
LINE
5
376
100
AcDbEntity
8
0
100
AcDbLine
10
33.986216091404479
20
7.8174774993129761
30
0
11
33.251526848934311
21
8.0445577372871231
31
0
0
ARC
5
377
100
AcDbEntity
8
0
100
AcDbCircle
10
33.720315137226223
20
9.5612626495097732
30
0
40
1.587499999999995
210
0
220
0
230
1
100
AcDbArc
50
167.31023005582085
51
252.82448989026949
0
ARC
5
378
100
AcDbEntity
8
0
100
AcDbCircle
10
13.782806436222705
20
14.050633840156459
30
0
40
18.849199999999993
210
-0
220
0
230
1
100
AcDbArc
50
347.31023005582301
51
348.68976994417909
0
ARC
5
379
100
AcDbEntity
8
0
100
AcDbCircle
10
33.822618714339278
20
10.042563138703196
30
0
40
1.5875000000000039
210
0
220
-0
230
1
100
AcDbArc
50
83.175510109730396
51
168.68976994417724
0
LINE
5
380
100
AcDbEntity
8
0
100
AcDbLine
10
34.011258767508174
20
11.618815396541532
30
0
11
34.774792641448137
21
11.52743848027699
31
0
0
CIRCLE
5
381
100
AcDbEntity
8
0
100
AcDbCircle
10
13.782806436222705
20
14.050633840156459
30
0
40
1.9999999999999374
210
-0
220
0
230
1
0
SPLINE
5
382
100
AcDbEntity
8
0
100
AcDbSpline
70
0
71
3
72
16
73
12
74
0
42
0.000000001
43
0.0000000001
44
0.0000000001
40
0
40
0
40
0
40
0
40
0.0625
40
0.125
40
0.1875
40
0.25
40
0.375
40
0.5
40
0.625
40
0.75
40
1
40
1
40
1
40
1
10
84.750868731546646
20
56.195265407791446
30
0
10
84.853900418214067
20
56.185661722729407
30
0
10
85.06090164968343
20
56.193673253739505
30
0
10
85.372329081635115
20
56.22237815825293
30
0
10
85.683899617934856
20
56.265606592933381
30
0
10
86.099228526606908
20
56.345282839011936
30
0
10
86.617466652574663
20
56.472316279174102
30
0
10
87.236628448571366
20
56.666799623339074
30
0
10
87.852042792321967
20
56.897203786248539
30
0
10
88.666481294600885
20
57.248762671542636
30
0
10
89.269219679799349
20
57.558586850844982
30
0
10
89.66661925146721
20
57.783551513894629
30
0
0
ARC
5
383
100
AcDbEntity
8
0
100
AcDbCircle
10
56.683078957752322
20
58.825698189225122
30
0
40
33.000000000000256
210
-0
220
0
230
1
100
AcDbArc
50
-1.8097131992768134
51
1.8097131992727753
0
SPLINE
5
384
100
AcDbEntity
8
0
100
AcDbSpline
70
0
71
3
72
16
73
12
74
0
42
0.000000001
43
0.0000000001
44
0.0000000001
40
-1
40
-1
40
-1
40
-1
40
-0.75
40
-0.625
40
-0.5
40
-0.375
40
-0.25
40
-0.1875
40
-0.125
40
-0.0625
40
0
40
0
40
0
40
0
10
89.66661925146721
20
59.867844864553383
30
0
10
89.269219679798908
20
60.092809527603038
30
0
10
88.66648174011479
20
60.402630848929846
30
0
10
87.852042944685223
20
60.754191571986532
30
0
10
87.236628506864719
20
60.984599034651183
30
0
10
86.617466652660298
20
61.179078234391397
30
0
10
86.099228523939999
20
61.306113986574346
30
0
10
85.683899628935507
20
61.385789276010392
30
0
10
85.372329081926011
20
61.429018439084643
30
0
10
85.060901570426466
20
61.457726608937108
30
0
10
84.853900418214067
20
61.465734655718592
30
0
10
84.750868731546646
20
61.456130970656559
30
0
0
LINE
5
385
100
AcDbEntity
8
0
100
AcDbLine
10
84.750868731546646
20
61.456130970656559
30
0
11
84.452138652702956
21
61.428286045580023
31
0
0
ARC
5
386
100
AcDbEntity
8
0
100
AcDbCircle
10
84.304804868027659
20
63.008934332168003
30
0
40
1.5875000000000907
210
0
220
0
230
1
100
AcDbArc
50
188.61184845904111
51
275.32520933172106
0
ARC
5
387
100
AcDbEntity
8
0
100
AcDbCircle
10
56.683078957752322
20
58.825698189225122
30
0
40
26.349199999999904
210
0
220
-0
230
1
100
AcDbArc
50
8.6118484590354036
51
9.3881515409597736
0
ARC
5
388
100
AcDbEntity
8
0
100
AcDbCircle
10
84.245592435691506
20
63.382786916517688
30
0
40
1.5874999999999948
210
0
220
0
230
1
100
AcDbArc
50
102.67479066827779
51
189.38815154096213
0
LINE
5
389
100
AcDbEntity
8
0
100
AcDbLine
10
83.8972680089921
20
64.931601412758113
30
0
11
84.189981752145485
21
64.997431986411996
31
0
0
SPLINE
5
390
100
AcDbEntity
8
0
100
AcDbSpline
70
0
71
3
72
16
73
12
74
0
42
0.000000001
43
0.0000000001
44
0.0000000001
40
0
40
0
40
0
40
0
40
0.0625
40
0.125
40
0.1875
40
0.25
40
0.375
40
0.5
40
0.625
40
0.75
40
1
40
1
40
1
40
1
10
84.189981752145485
20
64.997431986411996
30
0
10
84.29093841102825
20
65.020136881292672
30
0
10
84.485332581865237
20
65.091723198445891
30
0
10
84.772647367059363
20
65.215259553920674
30
0
10
85.055610234936381
20
65.352652829075836
30
0
10
85.425990185848264
20
65.556773133137582
30
0
10
85.879608440678524
20
65.837733502248341
30
0
10
86.408367642932234
20
66.214029671257933
30
0
10
86.922462662864206
20
66.6233305425758
30
0
10
87.588402037498284
20
67.209358249373082
30
0
10
88.065899369691479
20
67.690274958193925
30
0
10
88.374330917881707
20
68.027032288125426
30
0
0
ARC
5
391
100
AcDbEntity
8
0
100
AcDbCircle
10
56.683078957752322
20
58.825698189225122
30
0
40
32.999999999999851
210
0
220
-0
230
1
100
AcDbArc
50
16.190286800723282
51
19.809713199272981
0
SPLINE
5
392
100
AcDbEntity
8
0
100
AcDbSpline
70
0
71
3
72
16
73
12
74
0
42
0.000000001
43
0.0000000001
44
0.0000000001
40
-1
40
-1
40
-1
40
-1
40
-0.75
40
-0.625
40
-0.5
40
-0.375
40
-0.25
40
-0.1875
40
-0.125
40
-0.0625
40
0
40
0
40
0
40
0
10
87.730248851265472
20
70.009313061140034
30
0
10
87.282781495043025
20
70.100463948668306
30
0
10
86.613803596375774
20
70.20886526868388
30
0
10
85.730588034880412
20
70.291543956555373
30
0
10
85.074094301974952
20
70.320500955455302
30
0
10
84.425139008120439
20
70.314130130434393
30
0
10
83.893009052490612
20
70.274803921442711
30
0
10
83.473386782023496
20
70.222235937837297
30
0
10
83.163707036961824
20
70.167068721100321
30
0
10
82.858650560434882
20
70.098135419540142
30
0
10
82.659306143195408
20
70.041784650725717
30
0
10
82.564284888098243
20
70.000812461327627
30
0
0
LINE
5
393
100
AcDbEntity
8
0
100
AcDbLine
10
82.564284888098229
20
70.000812461327641
30
0
11
82.288780255056352
21
69.882017692794165
31
0
0
ARC
5
394
100
AcDbEntity
8
0
100
AcDbCircle
10
81.660210316385161
20
71.339774902414121
30
0
40
1.587500000000019
210
0
220
0
230
1
100
AcDbArc
50
206.61184845903679
51
293.32520933172179
0
ARC
5
395
100
AcDbEntity
8
0
100
AcDbCircle
10
56.683078957752322
20
58.825698189225122
30
0
40
26.349199999999605
210
0
220
-0
230
1
100
AcDbArc
50
26.611848459035762
51
27.388151540959903
0
ARC
5
396
100
AcDbEntity
8
0
100
AcDbCircle
10
81.488369144811102
20
71.677032191023599
30
0
40
1.5874999999999952
210
0
220
0
230
1
100
AcDbArc
50
120.67479066827687
51
207.38815154096469
0
LINE
5
397
100
AcDbEntity
8
0
100
AcDbLine
10
80.678482928541314
20
73.042404142799441
30
0
11
80.936527475367967
21
73.195466259965912
31
0
0
SPLINE
5
398
100
AcDbEntity
8
0
100
AcDbSpline
70
0
71
3
72
16
73
12
74
0
42
0.000000001
43
0.0000000001
44
0.0000000001
40
0
40
0
40
0
40
0
40
0.0625
40
0.125
40
0.1875
40
0.25
40
0.375
40
0.5
40
0.625
40
0.75
40
1
40
1
40
1
40
1
10
80.936527475367967
20
73.195466259965912
30
0
10
81.02552676528822
20
73.248257221483939
30
0
10
81.188285219627375
20
73.376410957286367
30
0
10
81.423362985049437
20
73.582686164520013
30
0
10
81.650019807477577
20
73.800795269102608
30
0
10
81.939195430445452
20
74.109378913596174
30
0
10
82.283790498811001
20
74.516763853160882
30
0
10
82.670388472523442
20
75.038038356183122
30
0
10
83.032840966174888
20
75.586170714857516
30
0
10
83.485094427303309
20
76.349302768122271
30
0
10
83.790609940693699
20
76.954236528257269
30
0
10
83.979882036502715
20
77.369822371291349
30
0
0
ARC
5
399
100
AcDbEntity
8
0
100
AcDbCircle
10
56.683078957752322
20
58.825698189225122
30
0
40
32.999999999999552
210
0
220
-0
230
1
100
AcDbArc
50
34.190286800723534
51
37.809713199273176
0
SPLINE
5
400
100
AcDbEntity
8
0
100
AcDbSpline
70
0
71
3
72
16
73
12
74
0
42
0.000000001
43
0.0000000001
44
0.0000000001
40
-1
40
-1
40
-1
40
-1
40
-0.75
40
-0.625
40
-0.5
40
-0.375
40
-0.25
40
-0.1875
40
-0.125
40
-0.0625
40
0
40
0
40
0
40
0
10
82.754765143534314
20
79.05605111323689
30
0
10
82.301031225267934
20
79.004465741287191
30
0
10
81.631297585390257
20
78.900835983512053
30
0
10
80.76576055071051
20
78.706539470172686
30
0
10
80.132449703357594
20
78.531211492500432
30
0
10
79.517225235552345
20
78.324614263459637
30
0
10
79.023292040637514
20
78.122775616631188
30
0
10
78.640451946221333
20
77.943110080482242
30
0
10
78.362976614219932
20
77.794946635480983
30
0
10
78.094152226041288
20
77.635119534351503
30
0
10
77.92197776424841
20
77.519925955811431
30
0
10
77.844268283222505
20
77.451595905445714
30
0
0
LINE
5
401
100
AcDbEntity
8
0
100
AcDbLine
10
77.844268283222505
20
77.451595905445714
30
0
11
77.618957409018179
21
77.253479753091213
31
0
0
ARC
5
402
100
AcDbEntity
8
0
100
AcDbCircle
10
76.570680121452511
20
78.445650453273885
30
0
40
1.5875000000000248
210
0
220
0
230
1
100
AcDbArc
50
224.61184845903804
51
311.32520933172253
0
ARC
5
403
100
AcDbEntity
8
0
100
AcDbCircle
10
56.683078957752322
20
58.825698189225122
30
0
40
26.349199999999279
210
0
220
-0
230
1
100
AcDbArc
50
44.61184845903626
51
45.388151540960308
0
ARC
5
404
100
AcDbEntity
8
0
100
AcDbCircle
10
76.303031221802115
20
78.713299352924295
30
0
40
1.5875000000000141
210
0
220
0
230
1
100
AcDbArc
50
138.67479066827931
51
225.38815154096667
0
LINE
5
405
100
AcDbEntity
8
0
100
AcDbLine
10
75.110860521619415
20
79.76157664048992
30
0
11
75.308976673973945
21
79.986887514694274
31
0
0
SPLINE
5
406
100
AcDbEntity
8
0
100
AcDbSpline
70
0
71
3
72
16
73
12
74
0
42
0.000000001
43
0.0000000001
44
0.0000000001
40
0
40
0
40
0
40
0
40
0.0625
40
0.125
40
0.1875
40
0.25
40
0.375
40
0.5
40
0.625
40
0.75
40
1
40
1
40
1
40
1
10
75.308976673973945
20
79.986887514694274
30
0
10
75.377306724339604
20
80.064596995720194
30
0
10
75.492497530665673
20
80.236773569611472
30
0
10
75.652327226752902
20
80.50559597411646
30
0
10
75.800491254741985
20
80.783070869314159
30
0
10
75.980156024984694
20
81.165911537088235
30
0
10
76.181996540659014
20
81.659843370804381
30
0
10
76.388590382576353
20
82.275070227550003
30
0
10
76.563920974513991
20
82.908379059251502
30
0
10
76.758218802325729
20
83.773914776555998
30
0
10
76.861846509812594
20
84.443650456742745
30
0
10
76.91343188176522
20
84.897384375005942
30
0
0
ARC
5
407
100
AcDbEntity
8
0
100
AcDbCircle
10
56.683078957752322
20
58.825698189225122
30
0
40
32.999999999999254
210
0
220
-0
230
1
100
AcDbArc
50
52.190286800723989
51
55.809713199273588
0
SPLINE
5
408
100
AcDbEntity
8
0
100
AcDbSpline
70
0
71
3
72
16
73
12
74
0
42
0.000000001
43
0.0000000001
44
0.0000000001
40
-1
40
-1
40
-1
40
-1
40
-0.75
40
-0.625
40
-0.5
40
-0.375
40
-0.25
40
-0.1875
40
-0.125
40
-0.0625
40
0
40
0
40
0
40
0
10
75.227203139819736
20
86.122501267974343
30
0
10
74.811617296780909
20
85.933229172167984
30
0
10
74.206686110670049
20
85.627712339326067
30
0
10
73.443552398312349
20
85.175459721244522
30
0
10
72.895417314787011
20
84.813009091036747
30
0
10
72.374146130461114
20
84.426408634201835
30
0
10
71.966759318814496
20
84.081814922580818
30
0
10
71.658176456294413
20
83.79263874837001
30
0
10
71.440066756133817
20
83.565982345416515
30
0
10
71.233788860428277
20
83.330906434957114
30
0
10
71.10563799001217
20
83.168145996759932
30
0
10
71.052847028494128
20
83.079146706839694
30
0
0
LINE
5
409
100
AcDbEntity
8
0
100
AcDbLine
10
71.052847028494114
20
83.079146706839694
30
0
11
70.899784911327657
21
82.821102160013012
31
0
0
ARC
5
410
100
AcDbEntity
8
0
100
AcDbCircle
10
69.534412959551801
20
83.630988376282858
30
0
40
1.5875000000000248
210
0
220
0
230
1
100
AcDbArc
50
242.61184845903739
51
329.32520933172168
0
ARC
5
411
100
AcDbEntity
8
0
100
AcDbCircle
10
56.683078957752322
20
58.825698189225122
30
0
40
26.349199999999083
210
0
220
-0
230
1
100
AcDbArc
50
62.611848459036992
51
63.388151540960962
0
ARC
5
412
100
AcDbEntity
8
0
100
AcDbCircle
10
69.197155670942308
20
83.802829547856859
30
0
40
1.587500000000007
210
0
220
0
230
1
100
AcDbArc
50
156.67479066827732
51
243.38815154096778
0
LINE
5
413
100
AcDbEntity
8
0
100
AcDbLine
10
67.739398461322381
20
84.431399486528065
30
0
11
67.858193229855829
21
84.706904119569955
31
0
0
SPLINE
5
414
100
AcDbEntity
8
0
100
AcDbSpline
70
0
71
3
72
16
73
12
74
0
42
0.000000001
43
0.0000000001
44
0.0000000001
40
0
40
0
40
0
40
0
40
0.0625
40
0.125
40
0.1875
40
0.25
40
0.375
40
0.5
40
0.625
40
0.75
40
1
40
1
40
1
40
1
10
67.858193229855829
20
84.706904119569955
30
0
10
67.899165419253919
20
84.801925374667078
30
0
10
67.95551289886177
20
85.001270943970312
30
0
10
68.024449281362294
20
85.306326335797507
30
0
10
68.079617187533373
20
85.616005845587438
30
0
10
68.132184265541284
20
86.035628424672055
30
0
10
68.171512672544708
20
86.567757663230367
30
0
10
68.177879537996247
20
87.216714182423573
30
0
10
68.148925648280979
20
87.873206806183376
30
0
10
68.066248617637953
20
88.756421520975692
30
0
10
67.957844717194632
20
89.42540072651471
30
0
10
67.866693829668293
20
89.872868082737156
30
0
0
ARC
5
415
100
AcDbEntity
8
0
100
AcDbCircle
10
56.683078957752322
20
58.825698189225122
30
0
40
32.999999999999098
210
0
220
-0
230
1
100
AcDbArc
50
70.190286800724579
51
73.809713199274313
0
SPLINE
5
416
100
AcDbEntity
8
0
100
AcDbSpline
70
0
71
3
72
16
73
12
74
0
42
0.000000001
43
0.0000000001
44
0.0000000001
40
-1
40
-1
40
-1
40
-1
40
-0.75
40
-0.625
40
-0.5
40
-0.375
40
-0.25
40
-0.1875
40
-0.125
40
-0.0625
40
0
40
0
40
0
40
0
10
65.884413056653756
20
90.516950149353363
30
0
10
65.547655726717821
20
90.208518601163533
30
0
10
65.066741873671134
20
89.731020809515044
30
0
10
64.480712328467021
20
89.065081723978579
30
0
10
64.071408289826422
20
88.550987634261404
30
0
10
63.695116044411641
20
88.02222709595145
30
0
10
63.414153475587945
20
87.568609552956929
30
0
10
63.210034085570754
20
87.198229319424797
30
0
10
63.072640114362379
20
86.915266666448346
30
0
10
62.949100628784038
20
86.627952814644942
30
0
10
62.877517649820732
20
86.433557642499878
30
0
10
62.854812754940177
20
86.332600983617226
30
0
0
LINE
5
417
100
AcDbEntity
8
0
100
AcDbLine
10
62.854812754940177
20
86.332600983617226
30
0
11
62.7889821812863
21
86.039887240463813
31
0
0
ARC
5
418
100
AcDbEntity
8
0
100
AcDbCircle
10
61.240167685045826
20
86.388211667163247
30
0
40
1.5875000000000339
210
0
220
0
230
1
100
AcDbArc
50
260.61184845903836
51
347.32520933172162
0
ARC
5
419
100
AcDbEntity
8
0
100
AcDbCircle
10
56.683078957752322
20
58.825698189225122
30
0
40
26.349199999999001
210
0
220
-0
230
1
100
AcDbArc
50
80.611848459037788
51
81.388151540961886
0
ARC
5
420
100
AcDbEntity
8
0
100
AcDbCircle
10
60.866315100696092
20
86.447424099499344
30
0
40
1.5875000000000221
210
0
220
0
230
1
100
AcDbArc
50
174.67479066827823
51
261.38815154096579
0
LINE
5
421
100
AcDbEntity
8
0
100
AcDbLine
10
59.285666814108176
20
86.594757884174655
30
0
11
59.313511739184712
21
86.893487963018316
31
0
0
SPLINE
5
422
100
AcDbEntity
8
0
100
AcDbSpline
70
0
71
3
72
16
73
12
74
0
42
0.000000001
43
0.0000000001
44
0.0000000001
40
0
40
0
40
0
40
0
40
0.0625
40
0.125
40
0.1875
40
0.25
40
0.375
40
0.5
40
0.625
40
0.75
40
1
40
1
40
1
40
1
10
59.313511739184712
20
86.893487963018316
30
0
10
59.323115424246765
20
86.996519649685638
30
0
10
59.315103893236653
20
87.203520881155271
30
0
10
59.286398988723207
20
87.514948313106785
30
0
10
59.243170554042777
20
87.82651884940654
30
0
10
59.163494307964228
20
88.241847758078649
30
0
10
59.036460867801985
20
88.760085884046305
30
0
10
58.841977523637077
20
89.379247680043079
30
0
10
58.611573360727618
20
89.994662023793737
30
0
10
58.260014475433557
20
90.809100526072214
30
0
10
57.950190296131467
20
91.411838911270635
30
0
10
57.725225633081514
20
91.809238482938895
30
0
0
ARC
5
423
100
AcDbEntity
8
0
100
AcDbCircle
10
56.683078957752322
20
58.825698189225122
30
0
40
32.999999999999112
210
0
220
-0
230
1
100
AcDbArc
50
88.19028680072536
51
91.809713199275123
0
SPLINE
5
424
100
AcDbEntity
8
0
100
AcDbSpline
70
0
71
3
72
16
73
12
74
0
42
0.000000001
43
0.0000000001
44
0.0000000001
40
-1
40
-1
40
-1
40
-1
40
-0.75
40
-0.625
40
-0.5
40
-0.375
40
-0.25
40
-0.1875
40
-0.125
40
-0.0625
40
0
40
0
40
0
40
0
10
55.640932282422845
20
91.809238482938895
30
0
10
55.415967619370633
20
91.411838911270422
30
0
10
55.106146298047619
20
90.809100971586574
30
0
10
54.754585574989783
20
89.994662176157078
30
0
10
54.524178112325046
20
89.379247738336446
30
0
10
54.329698912584746
20
88.760085884132053
30
0
10
54.202663160401755
20
88.241847755411641
30
0
10
54.122987870965751
20
87.826518860407276
30
0
10
54.0797587078915
20
87.51494831339761
30
0
10
54.051050538039043
20
87.20352080189825
30
0
10
54.043042491257545
20
86.996519649685609
30
0
10
54.05264617631957
20
86.893487963018316
30
0
0
LINE
5
425
100
AcDbEntity
8
0
100
AcDbLine
10
54.05264617631957
20
86.893487963018316
30
0
11
54.080491101396106
21
86.594757884174655
31
0
0
ARC
5
426
100
AcDbEntity
8
0
100
AcDbCircle
10
52.49984281480819
20
86.447424099499344
30
0
40
1.5875000000000412
210
0
220
0
230
1
100
AcDbArc
50
-81.388151540962241
51
5.3252093317217621
0
ARC
5
427
100
AcDbEntity
8
0
100
AcDbCircle
10
56.683078957752322
20
58.825698189225122
30
0
40
26.349199999999033
210
0
220
0
230
1
100
AcDbArc
50
98.611848459038683
51
99.388151540962994
0
ARC
5
428
100
AcDbEntity
8
0
100
AcDbCircle
10
52.125990230458441
20
86.388211667163205
30
0
40
1.5875000000000208
210
0
220
0
230
1
100
AcDbArc
50
192.67479066827747
51
279.38815154096204
0
LINE
5
429
100
AcDbEntity
8
0
100
AcDbLine
10
50.577175734217981
20
86.039887240463798
30
0
11
50.511345160564112
21
86.332600983617169
31
0
0
SPLINE
5
430
100
AcDbEntity
8
0
100
AcDbSpline
70
0
71
3
72
16
73
12
74
0
42
0.000000001
43
0.0000000001
44
0.0000000001
40
0
40
0
40
0
40
0
40
0.0625
40
0.125
40
0.1875
40
0.25
40
0.375
40
0.5
40
0.625
40
0.75
40
1
40
1
40
1
40
1
10
50.511345160564112
20
86.332600983617169
30
0
10
50.488640265683465
20
86.43355764249992
30
0
10
50.417053948530238
20
86.627951813336949
30
0
10
50.293517593055476
20
86.915266598530991
30
0
10
50.156124317900314
20
87.198229466408023
30
0
10
49.95200401383844
20
87.56860941732009
30
0
10
49.671043644727803
20
88.022227672150223
30
0
10
49.29474747571804
20
88.550986874403748
30
0
10
48.885446604400506
20
89.065081894335961
30
0
10
48.299418897602649
20
89.731021268970039
30
0
10
47.818502188782588
20
90.208518601163362
30
0
10
47.481744858850675
20
90.516950149353363
30
0
0
ARC
5
431
100
AcDbEntity
8
0
100
AcDbCircle
10
56.683078957752322
20
58.825698189225122
30
0
40
32.999999999999133
210
0
220
0
230
1
100
AcDbArc
50
106.19028680072608
51
109.80971319927593
0
SPLINE
5
432
100
AcDbEntity
8
0
100
AcDbSpline
70
0
71
3
72
16
73
12
74
0
42
0.000000001
43
0.0000000001
44
0.0000000001
40
-1
40
-1
40
-1
40
-1
40
-0.75
40
-0.625
40
-0.5
40
-0.375
40
-0.25
40
-0.1875
40
-0.125
40
-0.0625
40
0
40
0
40
0
40
0
10
45.49946408583601
20
89.872868082737114
30
0
10
45.408313198308903
20
89.425400726515178
30
0
10
45.29991187829161
20
88.756422827847274
30
0
10
45.217233190420636
20
87.873207266351699
30
0
10
45.188276191520742
20
87.21671353344675
30
0
10
45.194647016541722
20
86.567758239592109
30
0
10
45.233973225533319
20
86.035628283962382
30
0
10
45.286541209138882
20
85.616006013495124
30
0
10
45.341708425875744
20
85.30632626843358
30
0
10
45.410641727436015
20
85.001269791906523
30
0
10
45.466992496250313
20
84.801925374667078
30
0
10
45.50796468564846
20
84.706904119569927
30
0
0
LINE
5
433
100
AcDbEntity
8
0
100
AcDbLine
10
45.507964685648446
20
84.706904119569913
30
0
11
45.626759454181915
21
84.431399486528022
31
0
0
ARC
5
434
100
AcDbEntity
8
0
100
AcDbCircle
10
44.169002244561952
20
83.802829547856859
30
0
40
1.587500000000019
210
0
220
0
230
1
100
AcDbArc
50
-63.388151540961836
51
23.325209331720764
0
ARC
5
435
100
AcDbEntity
8
0
100
AcDbCircle
10
56.683078957752322
20
58.825698189225122
30
0
40
26.349199999999243
210
0
220
0
230
1
100
AcDbArc
50
116.61184845903944
51
117.38815154096392
0
ARC
5
436
100
AcDbEntity
8
0
100
AcDbCircle
10
43.831744955952445
20
83.630988376282787
30
0
40
1.5874999999999799
210
0
220
0
230
1
100
AcDbArc
50
210.67479066827698
51
297.38815154096147
0
LINE
5
437
100
AcDbEntity
8
0
100
AcDbLine
10
42.46637300417661
20
82.821102160012998
30
0
11
42.313310887010154
21
83.079146706839694
31
0
0
SPLINE
5
438
100
AcDbEntity
8
0
100
AcDbSpline
70
0
71
3
72
16
73
12
74
0
42
0.000000001
43
0.0000000001
44
0.0000000001
40
0
40
0
40
0
40
0
40
0.0625
40
0.125
40
0.1875
40
0.25
40
0.375
40
0.5
40
0.625
40
0.75
40
1
40
1
40
1
40
1
10
42.313310887010154
20
83.079146706839694
30
0
10
42.260519925491941
20
83.168145996759847
30
0
10
42.132366189689904
20
83.330904451099173
30
0
10
41.926090982456017
20
83.565982216521064
30
0
10
41.707981877873536
20
83.792639038949289
30
0
10
41.399398233379799
20
84.081814661917136
30
0
10
40.992013293815091
20
84.426409730282685
30
0
10
40.47073879079305
20
84.813007703995069
30
0
10
39.922606432118705
20
85.175460197646458
30
0
10
39.159474378853673
20
85.627713658775122
30
0
10
38.55454061871847
20
85.933229172164985
30
0
10
38.138954775684716
20
86.122501267974414
30
0
0
ARC
5
439
100
AcDbEntity
8
0
100
AcDbCircle
10
56.683078957752322
20
58.825698189225122
30
0
40
32.99999999999941
210
0
220
0
230
1
100
AcDbArc
50
124.1902868007266
51
127.80971319927666
0
SPLINE
5
440
100
AcDbEntity
8
0
100
AcDbSpline
70
0
71
3
72
16
73
12
74
0
42
0.000000001
43
0.0000000001
44
0.0000000001
40
-1
40
-1
40
-1
40
-1
40
-0.75
40
-0.625
40
-0.5
40
-0.375
40
-0.25
40
-0.1875
40
-0.125
40
-0.0625
40
0
40
0
40
0
40
0
10
36.452726033738983
20
84.897384375005856
30
0
10
36.504311405693407
20
84.443650456743399
30
0
10
36.607941163461774
20
83.773916816859753
30
0
10
36.802237676802932
20
82.908379782181669
30
0
10
36.977565654475256
20
82.275068934828965
30
0
10
37.184162883516485
20
81.659844467024172
30
0
10
37.386001530344785
20
81.165911272109227
30
0
10
37.565667066493809
20
80.783071177693074
30
0
10
37.713830511495054
20
80.505595845691587
30
0
10
37.873657612624562
20
80.236771457513044
30
0
10
37.988851191164599
20
80.064596995720223
30
0
10
38.057181241530323
20
79.986887514694189
30
0
0
LINE
5
441
100
AcDbEntity
8
0
100
AcDbLine
10
38.057181241530323
20
79.986887514694175
30
0
11
38.255297393884831
21
79.761576640489892
31
0
0
ARC
5
442
100
AcDbEntity
8
0
100
AcDbCircle
10
37.063126693702145
20
78.713299352924238
30
0
40
1.5875000000000217
210
0
220
0
230
1
100
AcDbArc
50
-45.38815154096158
51
41.325209331721808
0
ARC
5
443
100
AcDbEntity
8
0
100
AcDbCircle
10
56.683078957752322
20
58.825698189225122
30
0
40
26.349199999999517
210
0
220
0
230
1
100
AcDbArc
50
134.61184845904009
51
135.38815154096471
0
ARC
5
444
100
AcDbEntity
8
0
100
AcDbCircle
10
36.795477794051749
20
78.445650453273828
30
0
40
1.5875000000000072
210
0
220
0
230
1
100
AcDbArc
50
228.67479066827693
51
315.38815154095704
0
LINE
5
445
100
AcDbEntity
8
0
100
AcDbLine
10
35.747200506486074
20
77.25347975309117
30
0
11
35.521889632281763
21
77.451595905445657
31
0
0
SPLINE
5
446
100
AcDbEntity
8
0
100
AcDbSpline
70
0
71
3
72
16
73
12
74
0
42
0.000000001
43
0.0000000001
44
0.0000000001
40
0
40
0
40
0
40
0
40
0.0625
40
0.125
40
0.1875
40
0.25
40
0.375
40
0.5
40
0.625
40
0.75
40
1
40
1
40
1
40
1
10
35.521889632281763
20
77.451595905445657
30
0
10
35.4441801512558
20
77.519925955811402
30
0
10
35.272003577364536
20
77.635116762137343
30
0
10
35.003181172859648
20
77.794946458224643
30
0
10
34.725706277661821
20
77.943110486213655
30
0
10
34.342865609887852
20
78.122775256456521
30
0
10
33.848933776171613
20
78.324615772130727
30
0
10
33.23370691942592
20
78.531209614048095
30
0
10
32.600398087724635
20
78.70654020598559
30
0
10
31.734862370419698
20
78.900838033797712
30
0
10
31.065126690233093
20
79.004465741283695
30
0
10
30.61139277197007
20
79.056051113236933
30
0
0
ARC
5
447
100
AcDbEntity
8
0
100
AcDbCircle
10
56.683078957752322
20
58.825698189225122
30
0
40
32.999999999999737
210
0
220
0
230
1
100
AcDbArc
50
142.19028680072702
51
145.80971319927718
0
SPLINE
5
448
100
AcDbEntity
8
0
100
AcDbSpline
70
0
71
3
72
16
73
12
74
0
42
0.000000001
43
0.0000000001
44
0.0000000001
40
-1
40
-1
40
-1
40
-1
40
-0.75
40
-0.625
40
-0.5
40
-0.375
40
-0.25
40
-0.1875
40
-0.125
40
-0.0625
40
0
40
0
40
0
40
0
10
29.386275879001488
20
77.36982237129115
30
0
10
29.575547974812139
20
76.954236528260623
30
0
10
29.881064807647867
20
76.349305342137484
30
0
10
30.333317425730904
20
75.586171629783422
30
0
10
30.695768055939091
20
75.038036546258084
30
0
10
31.082368512774327
20
74.516765361933025
30
0
10
31.426962224395059
20
74.109378550286181
30
0
10
31.71613839860607
20
73.800795687766154
30
0
10
31.942794801559458
20
73.582685987605544
30
0
10
32.177870712018894
20
73.376408091900004
30
0
10
32.340631150216041
20
73.248257221483939
30
0
10
32.429630440136286
20
73.195466259965855
30
0
0
LINE
5
449
100
AcDbEntity
8
0
100
AcDbLine
10
32.429630440136293
20
73.195466259965841
30
0
11
32.687674986962961
21
73.04240414279937
31
0
0
ARC
5
450
100
AcDbEntity
8
0
100
AcDbCircle
10
31.877788770693137
20
71.677032191023528
30
0
40
1.5875000000000048
210
-0
220
0
230
1
100
AcDbArc
50
-27.388151540961939
51
59.325209331722043
0
ARC
5
451
100
AcDbEntity
8
0
100
AcDbCircle
10
56.683078957752322
20
58.825698189225122
30
0
40
26.3491999999999
210
0
220
0
230
1
100
AcDbArc
50
152.61184845904049
51
153.38815154096505
0
ARC
5
452
100
AcDbEntity
8
0
100
AcDbCircle
10
31.70594759911911
20
71.339774902414064
30
0
40
1.5875000000000297
210
0
220
0
230
1
100
AcDbArc
50
246.67479066827809
51
333.38815154095778
0
LINE
5
453
100
AcDbEntity
8
0
100
AcDbLine
10
31.077377660447915
20
69.882017692794108
30
0
11
30.801873027406025
21
70.00081246132757
31
0
0
SPLINE
5
454
100
AcDbEntity
8
0
100
AcDbSpline
70
0
71
3
72
16
73
12
74
0
42
0.000000001
43
0.0000000001
44
0.0000000001
40
0
40
0
40
0
40
0
40
0.0625
40
0.125
40
0.1875
40
0.25
40
0.375
40
0.5
40
0.625
40
0.75
40
1
40
1
40
1
40
1
10
30.801873027406025
20
70.00081246132757
30
0
10
30.706851772308802
20
70.041784650725674
30
0
10
30.507506203005757
20
70.098132130333511
30
0
10
30.202450811178487
20
70.167068512833993
30
0
10
29.892771301388557
20
70.2222364190051
30
0
10
29.473148722303971
20
70.274803497012982
30
0
10
28.941019483745691
20
70.314131904016463
30
0
10
28.292062964552272
20
70.320498769468031
30
0
10
27.635570340792746
20
70.291544879752891
30
0
10
26.752355625999908
20
70.20886784910941
30
0
10
26.083376420461551
20
70.10046394866626
30
0
10
25.635909064238795
20
70.009313061140034
30
0
0
ARC
5
455
100
AcDbEntity
8
0
100
AcDbCircle
10
56.683078957752322
20
58.825698189225122
30
0
40
33.000000000000142
210
0
220
0
230
1
100
AcDbArc
50
160.19028680072725
51
163.80971319927735
0
SPLINE
5
456
100
AcDbEntity
8
0
100
AcDbSpline
70
0
71
3
72
16
73
12
74
0
42
0.000000001
43
0.0000000001
44
0.0000000001
40
-1
40
-1
40
-1
40
-1
40
-0.75
40
-0.625
40
-0.5
40
-0.375
40
-0.25
40
-0.1875
40
-0.125
40
-0.0625
40
0
40
0
40
0
40
0
10
24.991826997622482
20
68.02703228812517
30
0
10
25.300258545814472
20
67.690274958197875
30
0
10
25.777756337459646
20
67.20936110513864
30
0
10
26.443695422997088
20
66.623331559938094
30
0
10
26.957789512714253
20
66.214027521297652
30
0
10
27.486550051024629
20
65.837735275883475
30
0
10
27.940167594018924
20
65.556772707059594
30
0
10
28.310547827551169
20
65.352653317042581
30
0
10
28.593510480527655
20
65.215259345834099
30
0
10
28.880824332331052
20
65.091719860255765
30
0
10
29.075219504476042
20
65.020136881292586
30
0
10
29.176176163358761
20
64.997431986411925
30
0
0
LINE
5
457
100
AcDbEntity
8
0
100
AcDbLine
10
29.176176163358761
20
64.997431986411925
30
0
11
29.468889906512157
21
64.931601412758056
31
0
0
ARC
5
458
100
AcDbEntity
8
0
100
AcDbCircle
10
29.120565479812733
20
63.382786916517603
30
0
40
1.5875000000000148
210
0
220
0
230
1
100
AcDbArc
50
-9.3881515409604113
51
77.325209331721808
0
ARC
5
459
100
AcDbEntity
8
0
100
AcDbCircle
10
56.683078957752322
20
58.825698189225122
30
0
40
26.349200000000298
210
0
220
0
230
1
100
AcDbArc
50
170.61184845904046
51
171.38815154096508
0
ARC
5
460
100
AcDbEntity
8
0
100
AcDbCircle
10
29.061353047476629
20
63.008934332167847
30
0
40
1.5874999999999986
210
0
220
0
230
1
100
AcDbArc
50
264.67479066827718
51
351.38815154095897
0
LINE
5
461
100
AcDbEntity
8
0
100
AcDbLine
10
28.91401926280129
20
61.428286045579952
30
0
11
28.615289183957625
21
61.456130970656481
31
0
0
SPLINE
5
462
100
AcDbEntity
8
0
100
AcDbSpline
70
0
71
3
72
16
73
12
74
0
42
0.000000001
43
0.0000000001
44
0.0000000001
40
0
40
0
40
0
40
0
40
0.0625
40
0.125
40
0.1875
40
0.25
40
0.375
40
0.5
40
0.625
40
0.75
40
1
40
1
40
1
40
1
10
28.615289183957625
20
61.456130970656481
30
0
10
28.512257497290136
20
61.465734655718542
30
0
10
28.305256265820844
20
61.457723124708423
30
0
10
27.993828833869159
20
61.42901822019499
30
0
10
27.682258297569437
20
61.385789785514582
30
0
10
27.266929388897321
20
61.306113539435991
30
0
10
26.74869126292959
20
61.179080099273776
30
0
10
26.129529466932997
20
60.984596755108797
30
0
10
25.514115123182172
20
60.754192592199402
30
0
10
24.699676620903801
20
60.402633706905164
30
0
10
24.096938235704137
20
60.092809527603521
30
0
10
23.699538664037064
20
59.867844864553277
30
0
0
ARC
5
463
100
AcDbEntity
8
0
100
AcDbCircle
10
56.683078957752322
20
58.825698189225122
30
0
40
33.00000000000054
210
0
220
0
230
1
100
AcDbArc
50
178.19028680072722
51
181.80971319927679
0
SPLINE
5
464
100
AcDbEntity
8
0
100
AcDbSpline
70
0
71
3
72
16
73
12
74
0
42
0.000000001
43
0.0000000001
44
0.0000000001
40
-1
40
-1
40
-1
40
-1
40
-0.75
40
-0.625
40
-0.5
40
-0.375
40
-0.25
40
-0.1875
40
-0.125
40
-0.0625
40
0
40
0
40
0
40
0
10
23.699538664037064
20
57.783551513894523
30
0
10
24.096938235703952
20
57.558586850845337
30
0
10
24.699676175390209
20
57.248765529517897
30
0
10
25.514114970819151
20
56.897204806461332
30
0
10
26.129529408639591
20
56.666797343796731
30
0
10
26.748691262843892
20
56.472318144056487
30
0
10
27.266929391564219
20
56.345282391873617
30
0
10
27.682258286568757
20
56.265607102437549
30
0
10
27.993828833578249
20
56.222377939363312
30
0
10
28.305256345077773
20
56.193669769510834
30
0
10
28.512257497290211
20
56.185661722729343
30
0
10
28.615289183957614
20
56.195265407791375
30
0
0
LINE
5
465
100
AcDbEntity
8
0
100
AcDbLine
10
28.615289183957611
20
56.195265407791375
30
0
11
28.9140192628013
21
56.223110332867911
31
0
0
ARC
5
466
100
AcDbEntity
8
0
100
AcDbCircle
10
29.061353047476612
20
54.642462046279988
30
0
40
1.5875000000000206
210
0
220
-0
230
1
100
AcDbArc
50
8.6118484590386331
51
95.325209331721737
0
ARC
5
467
100
AcDbEntity
8
0
100
AcDbCircle
10
56.683078957752322
20
58.825698189225122
30
0
40
26.349200000000678
210
0
220
0
230
1
100
AcDbArc
50
188.61184845904029
51
189.3881515409646
0
ARC
5
468
100
AcDbEntity
8
0
100
AcDbCircle
10
29.120565479812726
20
54.268609461930268
30
0
40
1.5875000000000208
210
0
220
0
230
1
100
AcDbArc
50
-77.325209331722277
51
9.388151540960866
0
LINE
5
469
100
AcDbEntity
8
0
100
AcDbLine
10
29.468889906512139
20
52.719794965689807
30
0
11
29.176176163358754
21
52.653964392035924
31
0
0
SPLINE
5
470
100
AcDbEntity
8
0
100
AcDbSpline
70
0
71
3
72
16
73
12
74
0
42
0.000000001
43
0.0000000001
44
0.0000000001
40
0
40
0
40
0
40
0
40
0.0625
40
0.125
40
0.1875
40
0.25
40
0.375
40
0.5
40
0.625
40
0.75
40
1
40
1
40
1
40
1
10
29.176176163358754
20
52.653964392035924
30
0
10
29.075219504476042
20
52.631259497155192
30
0
10
28.880825333638999
20
52.559673180002065
30
0
10
28.593510548444932
20
52.43613682452731
30
0
10
28.31054768056795
20
52.298743549372105
30
0
10
27.940167729655915
20
52.094623245310316
30
0
10
27.486549474825686
20
51.813662876199594
30
0
10
26.957790272571998
20
51.437366707189923
30
0
10
26.443695252639969
20
51.02806583587239
30
0
10
25.777755878005884
20
50.442038129074518
30
0
10
25.300258545813424
20
49.961121420254216
30
0
10
24.991826997622507
20
49.624364090322501
30
0
0
ARC
5
471
100
AcDbEntity
8
0
100
AcDbCircle
10
56.683078957752322
20
58.825698189225122
30
0
40
33.000000000000909
210
0
220
0
230
1
100
AcDbArc
50
196.19028680072691
51
199.80971319927656
0
SPLINE
5
472
100
AcDbEntity
8
0
100
AcDbSpline
70
0
71
3
72
16
73
12
74
0
42
0.000000001
43
0.0000000001
44
0.0000000001
40
-1
40
-1
40
-1
40
-1
40
-0.75
40
-0.625
40
-0.5
40
-0.375
40
-0.25
40
-0.1875
40
-0.125
40
-0.0625
40
0
40
0
40
0
40
0
10
25.635909064238756
20
47.642083317307865
30
0
10
26.083376420462166
20
47.550932429780339
30
0
10
26.752354319128013
20
47.442531109763515
30
0
10
27.635569880623699
20
47.359852421892548
30
0
10
28.292063613529265
20
47.330895422992683
30
0
10
28.941018907383807
20
47.337266248013606
30
0
10
29.473148863013595
20
47.376592457005138
30
0
10
29.8927711334808
20
47.42916044061073
30
0
10
30.202450878542393
20
47.484327657347606
30
0
10
30.507507355069421
20
47.553260958907735
30
0
10
30.706851772308813
20
47.60961172772226
30
0
10
30.80187302740601
20
47.650583917120301
30
0
0
LINE
5
473
100
AcDbEntity
8
0
100
AcDbLine
10
30.80187302740601
20
47.650583917120287
30
0
11
31.077377660447901
21
47.769378685653756
31
0
0
ARC
5
474
100
AcDbEntity
8
0
100
AcDbCircle
10
31.705947599119092
20
46.3116214760338
30
0
40
1.587500000000023
210
0
220
-0
230
1
100
AcDbArc
50
26.611848459037024
51
113.32520933172182
0
ARC
5
475
100
AcDbEntity
8
0
100
AcDbCircle
10
56.683078957752322
20
58.825698189225122
30
0
40
26.349200000000991
210
0
220
0
230
1
100
AcDbArc
50
206.61184845903992
51
207.38815154096395
0
ARC
5
476
100
AcDbEntity
8
0
100
AcDbCircle
10
31.877788770693122
20
45.974364187424328
30
0
40
1.5875000000000103
210
0
220
0
230
1
100
AcDbArc
50
-59.325209331721815
51
27.388151540964671
0
LINE
5
477
100
AcDbEntity
8
0
100
AcDbLine
10
32.687674986962953
20
44.608992235648486
30
0
11
32.429630440136265
21
44.455930118482016
31
0
0
SPLINE
5
478
100
AcDbEntity
8
0
100
AcDbSpline
70
0
71
3
72
16
73
12
74
0
42
0.000000001
43
0.0000000001
44
0.0000000001
40
0
40
0
40
0
40
0
40
0.0625
40
0.125
40
0.1875
40
0.25
40
0.375
40
0.5
40
0.625
40
0.75
40
1
40
1
40
1
40
1
10
32.429630440136265
20
44.455930118482016
30
0
10
32.340631150216005
20
44.403139156963874
30
0
10
32.177872695876843
20
44.274985421161681
30
0
10
31.942794930454834
20
44.068710213927901
30
0
10
31.716138108026701
20
43.850601109345376
30
0
10
31.426962485058802
20
43.542017464851682
30
0
10
31.082367416693117
20
43.13463252528696
30
0
10
30.695769442980922
20
42.613358022264912
30
0
10
30.333316949329294
20
42.06522566359051
30
0
10
29.881063488201075
20
41.302093610325571
30
0
10
29.575547974810124
20
40.697159850190587
30
0
10
29.386275879001534
20
40.281574007156571
30
0
0
ARC
5
479
100
AcDbEntity
8
0
100
AcDbCircle
10
56.683078957752322
20
58.825698189225122
30
0
40
33.00000000000118
210
0
220
0
230
1
100
AcDbArc
50
214.19028680072645
51
217.80971319927599
0
SPLINE
5
480
100
AcDbEntity
8
0
100
AcDbSpline
70
0
71
3
72
16
73
12
74
0
42
0.000000001
43
0.0000000001
44
0.0000000001
40
-1
40
-1
40
-1
40
-1
40
-0.75
40
-0.625
40
-0.5
40
-0.375
40
-0.25
40
-0.1875
40
-0.125
40
-0.0625
40
0
40
0
40
0
40
0
10
30.611392771969946
20
38.595345265211023
30
0
10
31.065126690235555
20
38.646930637161233
30
0
10
31.734860330114675
20
38.750560394935711
30
0
10
32.600397364793892
20
38.944856908275241
30
0
10
33.23370821214678
20
39.120184885947374
30
0
10
33.848932679951901
20
39.326782114988333
30
0
10
34.342865874866646
20
39.528620761816661
30
0
10
34.725705969282934
20
39.708286297965707
30
0
10
35.003181301284314
20
39.85644974296693
30
0
10
35.272005689462922
20
40.016276844096446
30
0
10
35.444180151255686
20
40.131470422636497
30
0
10
35.521889632281734
20
40.19980047300222
30
0
0
LINE
5
481
100
AcDbEntity
8
0
100
AcDbLine
10
35.521889632281727
20
40.19980047300222
30
0
11
35.747200506486067
21
40.397916625356707
31
0
0
ARC
5
482
100
AcDbEntity
8
0
100
AcDbCircle
10
36.79547779405172
20
39.205745925174035
30
0
40
1.5875000000000186
210
0
220
-0
230
1
100
AcDbArc
50
44.611848459037326
51
131.32520933172216
0
ARC
5
483
100
AcDbEntity
8
0
100
AcDbCircle
10
56.683078957752322
20
58.825698189225122
30
0
40
26.349200000001215
210
0
220
0
230
1
100
AcDbArc
50
224.61184845903927
51
225.38815154096324
0
ARC
5
484
100
AcDbEntity
8
0
100
AcDbCircle
10
37.063126693702117
20
38.938097025523653
30
0
40
1.5875000000000123
210
-0
220
0
230
1
100
AcDbArc
50
-41.32520933172232
51
45.388151540965765
0
LINE
5
485
100
AcDbEntity
8
0
100
AcDbLine
10
38.255297393884781
20
37.889819737958
30
0
11
38.057181241530287
21
37.664508863753674
31
0
0
SPLINE
5
486
100
AcDbEntity
8
0
100
AcDbSpline
70
0
71
3
72
16
73
12
74
0
42
0.000000001
43
0.0000000001
44
0.0000000001
40
0
40
0
40
0
40
0
40
0.0625
40
0.125
40
0.1875
40
0.25
40
0.375
40
0.5
40
0.625
40
0.75
40
1
40
1
40
1
40
1
10
38.057181241530287
20
37.664508863753674
30
0
10
37.988851191164549
20
37.586799382727712
30
0
10
37.873660384838615
20
37.414622808836441
30
0
10
37.713830688751358
20
37.145800404331574
30
0
10
37.565666660762268
20
36.868325509133697
30
0
10
37.386001890519523
20
36.485484841359806
30
0
10
37.18416137484521
20
35.99155300764351
30
0
10
36.977567532927857
20
35.37632615089791
30
0
10
36.802236940990312
20
34.743017319196419
30
0
10
36.60793911317829
20
33.877481601891681
30
0
10
36.504311405691695
20
33.207745921705133
30
0
10
36.452726033739012
20
32.754012003441993
30
0
0
ARC
5
487
100
AcDbEntity
8
0
100
AcDbCircle
10
56.683078957752322
20
58.825698189225122
30
0
40
33.00000000000135
210
0
220
0
230
1
100
AcDbArc
50
232.19028680072589
51
235.80971319927534
0
SPLINE
5
488
100
AcDbEntity
8
0
100
AcDbSpline
70
0
71
3
72
16
73
12
74
0
42
0.000000001
43
0.0000000001
44
0.0000000001
40
-1
40
-1
40
-1
40
-1
40
-0.75
40
-0.625
40
-0.5
40
-0.375
40
-0.25
40
-0.1875
40
-0.125
40
-0.0625
40
0
40
0
40
0
40
0
10
38.138954775684525
20
31.528895110473592
30
0
10
38.554540618722356
20
31.718167206279574
30
0
10
39.159471804834808
20
32.023684039122159
30
0
10
39.922605517191954
20
32.475936657203263
30
0
10
40.47074060071732
20
32.838387287411344
30
0
10
40.992011785043118
20
33.224987744246192
30
0
10
41.3993985966897
20
33.569581455866981
30
0
10
41.707981459209876
20
33.858757630078024
30
0
10
41.926091159370387
20
34.085414033031363
30
0
10
42.132369055075969
20
34.320489943490827
30
0
10
42.260519925492019
20
34.483250381688052
30
0
10
42.313310887010111
20
34.572249671608219
30
0
0
LINE
5
489
100
AcDbEntity
8
0
100
AcDbLine
10
42.313310887010118
20
34.572249671608226
30
0
11
42.466373004176596
21
34.830294218434894
31
0
0
ARC
5
490
100
AcDbEntity
8
0
100
AcDbCircle
10
43.831744955952431
20
34.020408002165084
30
0
40
1.5875000000000008
210
0
220
-0
230
1
100
AcDbArc
50
62.611848459037496
51
149.32520933172239
0
ARC
5
491
100
AcDbEntity
8
0
100
AcDbCircle
10
56.683078957752322
20
58.825698189225122
30
0
40
26.349200000001343
210
0
220
0
230
1
100
AcDbArc
50
242.61184845903847
51
243.38815154096241
0
ARC
5
492
100
AcDbEntity
8
0
100
AcDbCircle
10
44.169002244561895
20
33.848566830591061
30
0
40
1.5875000000000226
210
-0
220
0
230
1
100
AcDbArc
50
-23.32520933172146
51
63.388151540967222
0
LINE
5
493
100
AcDbEntity
8
0
100
AcDbLine
10
45.626759454181858
20
33.219996891919877
30
0
11
45.507964685648403
21
32.944492258877972
31
0
0
SPLINE
5
494
100
AcDbEntity
8
0
100
AcDbSpline
70
0
71
3
72
16
73
12
74
0
42
0.000000001
43
0.0000000001
44
0.0000000001
40
0
40
0
40
0
40
0
40
0.0625
40
0.125
40
0.1875
40
0.25
40
0.375
40
0.5
40
0.625
40
0.75
40
1
40
1
40
1
40
1
10
45.507964685648403
20
32.944492258877972
30
0
10
45.466992496250356
20
32.849471003780856
30
0
10
45.410645016642441
20
32.650125434477658
30
0
10
45.341708634141995
20
32.345070042650441
30
0
10
45.28654072797088
20
32.035390532860511
30
0
10
45.233973649962884
20
31.615767953775887
30
0
10
45.19464524295956
20
31.083638715217678
30
0
10
45.188278377507764
20
30.434682196024191
30
0
10
45.217232267223359
20
29.778189572264754
30
0
10
45.299909297866293
20
28.894974857471851
30
0
10
45.408313198309543
20
28.225995651933552
30
0
10
45.499464085835932
20
27.778528295710771
30
0
0
ARC
5
495
100
AcDbEntity
8
0
100
AcDbCircle
10
56.683078957752322
20
58.825698189225122
30
0
40
33.000000000001421
210
0
220
0
230
1
100
AcDbArc
50
250.19028680072529
51
253.80971319927477
0
SPLINE
5
496
100
AcDbEntity
8
0
100
AcDbSpline
70
0
71
3
72
16
73
12
74
0
42
0.000000001
43
0.0000000001
44
0.0000000001
40
-1
40
-1
40
-1
40
-1
40
-0.75
40
-0.625
40
-0.5
40
-0.375
40
-0.25
40
-0.1875
40
-0.125
40
-0.0625
40
0
40
0
40
0
40
0
10
47.481744858850504
20
27.134446229094525
30
0
10
47.818502188785949
20
27.442877777284977
30
0
10
48.299416041833339
20
27.920375568932457
30
0
10
48.885445587037175
20
28.58631465446922
30
0
10
49.294749625677795
20
29.100408744186378
30
0
10
49.671041871092655
20
29.629169282496548
30
0
10
49.952004439916251
20
30.082786825490906
30
0
10
50.156123829933492
20
30.453167059023144
30
0
10
50.293517801141867
20
30.73612971199961
30
0
10
50.417057286720237
20
31.023443563803017
30
0
10
50.488640265683358
20
31.217838735948007
30
0
10
50.511345160564069
20
31.318795394830726
30
0
0
LINE
5
497
100
AcDbEntity
8
0
100
AcDbLine
10
50.511345160564069
20
31.318795394830726
30
0
11
50.577175734217938
21
31.611509137984122
31
0
0
ARC
5
498
100
AcDbEntity
8
0
100
AcDbCircle
10
52.125990230458392
20
31.263184711284708
30
0
40
1.5875000000000161
210
0
220
-0
230
1
100
AcDbArc
50
80.611848459037191
51
167.32520933172222
0
ARC
5
499
100
AcDbEntity
8
0
100
AcDbCircle
10
56.683078957752322
20
58.825698189225122
30
0
40
26.349200000001353
210
0
220
0
230
1
100
AcDbArc
50
260.61184845903779
51
261.38815154096181
0
ARC
5
500
100
AcDbEntity
8
0
100
AcDbCircle
10
52.499842814808162
20
31.203972278948605
30
0
40
1.587500000000015
210
0
220
0
230
1
100
AcDbArc
50
-5.3252093317222213
51
81.388151540966206
0
LINE
5
501
100
AcDbEntity
8
0
100
AcDbLine
10
54.080491101396071
20
31.05663849427328
30
0
11
54.052646176319534
21
30.757908415429604
31
0
0
SPLINE
5
502
100
AcDbEntity
8
0
100
AcDbSpline
70
0
71
3
72
16
73
12
74
0
42
0.000000001
43
0.0000000001
44
0.0000000001
40
0
40
0
40
0
40
0
40
0.0625
40
0.125
40
0.1875
40
0.25
40
0.375
40
0.5
40
0.625
40
0.75
40
1
40
1
40
1
40
1
10
54.052646176319534
20
30.757908415429604
30
0
10
54.043042491257431
20
30.654876728762147
30
0
10
54.051054022267635
20
30.447875497292799
30
0
10
54.079758926781032
20
30.136448065341142
30
0
10
54.12298736146149
20
29.824877529041423
30
0
10
54.202663607539911
20
29.409548620369335
30
0
10
54.329697047702233
20
28.891310494401552
30
0
10
54.524180391867048
20
28.272148698405026
30
0
10
54.754584554776613
20
27.656734354654148
30
0
10
55.106143440070852
20
26.842295852375763
30
0
10
55.415967619372665
20
26.239557467176269
30
0
10
55.640932282422717
20
25.842157895509068
30
0
0
ARC
5
503
100
AcDbEntity
8
0
100
AcDbCircle
10
56.683078957752322
20
58.825698189225122
30
0
40
33.000000000001386
210
0
220
0
230
1
100
AcDbArc
50
268.19028680072478
51
271.80971319927431
0
SPLINE
5
504
100
AcDbEntity
8
0
100
AcDbSpline
70
0
71
3
72
16
73
12
74
0
42
0.000000001
43
0.0000000001
44
0.0000000001
40
-1
40
-1
40
-1
40
-1
40
-0.75
40
-0.625
40
-0.5
40
-0.375
40
-0.25
40
-0.1875
40
-0.125
40
-0.0625
40
0
40
0
40
0
40
0
10
57.725225633081401
20
25.842157895509068
30
0
10
57.950190296132817
20
26.239557467176095
30
0
10
58.260011617457053
20
26.84229540686221
30
0
10
58.611572340514506
20
27.656734202291126
30
0
10
58.841979803179278
20
28.272148640111649
30
0
10
59.036459002919521
20
28.891310494315849
30
0
10
59.163494755102448
20
29.409548623036233
30
0
10
59.243170044538473
20
29.824877518040751
30
0
10
59.286399207612718
20
30.136448065050221
30
0
10
59.315107377465218
20
30.44787557654977
30
0
10
59.323115424246652
20
30.654876728762193
30
0
10
59.313511739184662
20
30.757908415429604
30
0
0
LINE
5
505
100
AcDbEntity
8
0
100
AcDbLine
10
59.313511739184662
20
30.757908415429597
30
0
11
59.28566681410814
21
31.056638494273283
31
0
0
ARC
5
506
100
AcDbEntity
8
0
100
AcDbCircle
10
60.866315100696049
20
31.203972278948598
30
0
40
1.5875000000000132
210
0
220
0
230
1
100
AcDbArc
50
98.611848459037901
51
185.32520933172191
0
ARC
5
507
100
AcDbEntity
8
0
100
AcDbCircle
10
56.683078957752322
20
58.825698189225122
30
0
40
26.349200000001275
210
-0
220
0
230
1
100
AcDbArc
50
278.61184845903705
51
279.38815154096125
0
ARC
5
508
100
AcDbEntity
8
0
100
AcDbCircle
10
61.240167685045783
20
31.263184711284726
30
0
40
1.587500000000011
210
0
220
-0
230
1
100
AcDbArc
50
12.674790668277661
51
99.38815154096288
0
LINE
5
509
100
AcDbEntity
8
0
100
AcDbLine
10
62.788982181286237
20
31.611509137984136
30
0
11
62.854812754940127
21
31.318795394830758
31
0
0
SPLINE
5
510
100
AcDbEntity
8
0
100
AcDbSpline
70
0
71
3
72
16
73
12
74
0
42
0.000000001
43
0.0000000001
44
0.0000000001
40
0
40
0
40
0
40
0
40
0.0625
40
0.125
40
0.1875
40
0.25
40
0.375
40
0.5
40
0.625
40
0.75
40
1
40
1
40
1
40
1
10
62.854812754940127
20
31.318795394830758
30
0
10
62.877517649820788
20
31.217838735947964
30
0
10
62.949103966974022
20
31.023444565111046
30
0
10
63.072640322448777
20
30.736129779916908
30
0
10
63.210033597604003
20
30.453166912039968
30
0
10
63.414153901665735
20
30.082786961127855
30
0
10
63.695114270776479
20
29.629168706297662
30
0
10
64.071410439786021
20
29.100409504043991
30
0
10
64.480711311103789
20
28.586314484111984
30
0
10
65.066739017901639
20
27.920375109477938
30
0
10
65.547655726721345
20
27.442877777285339
30
0
10
65.884413056653557
20
27.134446229094529
30
0
0
ARC
5
511
100
AcDbEntity
8
0
100
AcDbCircle
10
56.683078957752322
20
58.825698189225122
30
0
40
33.000000000001272
210
-0
220
0
230
1
100
AcDbArc
50
286.19028680072427
51
289.80971319927403
0
SPLINE
5
512
100
AcDbEntity
8
0
100
AcDbSpline
70
0
71
3
72
16
73
12
74
0
42
0.000000001
43
0.0000000001
44
0.0000000001
40
-1
40
-1
40
-1
40
-1
40
-0.75
40
-0.625
40
-0.5
40
-0.375
40
-0.25
40
-0.1875
40
-0.125
40
-0.0625
40
0
40
0
40
0
40
0
10
67.866693829668264
20
27.778528295710807
30
0
10
67.957844717193694
20
28.225995651933417
30
0
10
68.066246037213432
20
28.894973550600529
30
0
10
68.148924725083859
20
29.778189112095802
30
0
10
68.177881723983546
20
30.434682845001323
30
0
10
68.171510898962538
20
31.083638138855811
30
0
10
68.132184689970856
20
31.61576809448561
30
0
10
68.079616706365428
20
32.035390364952804
30
0
10
68.024449489628509
20
32.345070110014397
30
0
10
67.955516188068202
20
32.650126586541369
30
0
10
67.899165419254004
20
32.849471003780877
30
0
10
67.858193229855772
20
32.944492258878
30
0
0
LINE
5
513
100
AcDbEntity
8
0
100
AcDbLine
10
67.858193229855772
20
32.944492258878
30
0
11
67.739398461322338
21
33.219996891919891
31
0
0
ARC
5
514
100
AcDbEntity
8
0
100
AcDbCircle
10
69.19715567094228
20
33.848566830591089
30
0
40
1.587500000000011
210
0
220
0
230
1
100
AcDbArc
50
116.61184845903831
51
203.32520933172222
0
ARC
5
515
100
AcDbEntity
8
0
100
AcDbCircle
10
56.683078957752322
20
58.825698189225122
30
0
40
26.349200000001115
210
-0
220
0
230
1
100
AcDbArc
50
296.61184845903637
51
297.38815154096079
0
ARC
5
516
100
AcDbEntity
8
0
100
AcDbCircle
10
69.534412959551759
20
34.020408002165105
30
0
40
1.5875000000000212
210
0
220
-0
230
1
100
AcDbArc
50
30.674790668277428
51
117.38815154095964
0
LINE
5
517
100
AcDbEntity
8
0
100
AcDbLine
10
70.899784911327629
20
34.830294218434929
30
0
11
71.052847028494085
21
34.572249671608247
31
0
0
SPLINE
5
518
100
AcDbEntity
8
0
100
AcDbSpline
70
0
71
3
72
16
73
12
74
0
42
0.000000001
43
0.0000000001
44
0.0000000001
40
0
40
0
40
0
40
0
40
0.0625
40
0.125
40
0.1875
40
0.25
40
0.375
40
0.5
40
0.625
40
0.75
40
1
40
1
40
1
40
1
10
71.052847028494085
20
34.572249671608247
30
0
10
71.10563799001217
20
34.483250381688116
30
0
10
71.233791725814427
20
34.320491927348804
30
0
10
71.440066933048186
20
34.085414161926849
30
0
10
71.658176037630753
20
33.858757339498688
30
0
10
71.966759682124447
20
33.569581716530791
30
0
10
72.374144621689084
20
33.224986648165149
30
0
10
72.895419124711268
20
32.838388674452965
30
0
10
73.44355148338542
20
32.475936180801234
30
0
10
74.206683536650957
20
32.023682719673239
30
0
10
74.811617296784874
20
31.718167206282018
30
0
10
75.227203139819551
20
31.528895110473556
30
0
0
ARC
5
519
100
AcDbEntity
8
0
100
AcDbCircle
10
56.683078957752322
20
58.825698189225122
30
0
40
33.00000000000108
210
-0
220
0
230
1
100
AcDbArc
50
304.19028680072381
51
307.80971319927374
0
SPLINE
5
520
100
AcDbEntity
8
0
100
AcDbSpline
70
0
71
3
72
16
73
12
74
0
42
0.000000001
43
0.0000000001
44
0.0000000001
40
-1
40
-1
40
-1
40
-1
40
-0.75
40
-0.625
40
-0.5
40
-0.375
40
-0.25
40
-0.1875
40
-0.125
40
-0.0625
40
0
40
0
40
0
40
0
10
76.913431881765263
20
32.754012003442114
30
0
10
76.861846509810078
20
33.207745921702994
30
0
10
76.758216752042884
20
33.877479561589105
30
0
10
76.563920238701414
20
34.743016596266308
30
0
10
76.388592261029061
20
35.376327443619175
30
0
10
76.181995031987697
20
35.991551911423826
30
0
10
75.980156385159376
20
36.485485106338601
30
0
10
75.800490849010458
20
36.868325200754946
30
0
10
75.652327404009213
20
37.145800532756276
30
0
10
75.492500302879677
20
37.414624920934941
30
0
10
75.377306724339633
20
37.586799382727676
30
0
10
75.308976673973916
20
37.664508863753731
30
0
0
LINE
5
521
100
AcDbEntity
8
0
100
AcDbLine
10
75.308976673973916
20
37.664508863753724
30
0
11
75.110860521619415
21
37.889819737958035
31
0
0
ARC
5
522
100
AcDbEntity
8
0
100
AcDbCircle
10
76.303031221802087
20
38.938097025523689
30
0
40
1.5875000000000123
210
0
220
0
230
1
100
AcDbArc
50
134.61184845903864
51
221.32520933172214
0
ARC
5
523
100
AcDbEntity
8
0
100
AcDbCircle
10
56.683078957752322
20
58.825698189225122
30
0
40
26.349200000000881
210
-0
220
0
230
1
100
AcDbArc
50
314.61184845903591
51
315.38815154096045
0
ARC
5
524
100
AcDbEntity
8
0
100
AcDbCircle
10
76.570680121452483
20
39.205745925174085
30
0
40
1.5875000000000108
210
0
220
-0
230
1
100
AcDbArc
50
48.674790668277126
51
135.38815154095687
0
LINE
5
525
100
AcDbEntity
8
0
100
AcDbLine
10
77.618957409018151
20
40.397916625356743
30
0
11
77.844268283222476
21
40.199800473002263
31
0
0
SPLINE
5
526
100
AcDbEntity
8
0
100
AcDbSpline
70
0
71
3
72
16
73
12
74
0
42
0.000000001
43
0.0000000001
44
0.0000000001
40
0
40
0
40
0
40
0
40
0.0625
40
0.125
40
0.1875
40
0.25
40
0.375
40
0.5
40
0.625
40
0.75
40
1
40
1
40
1
40
1
10
77.844268283222476
20
40.199800473002263
30
0
10
77.921977764248382
20
40.131470422636532
30
0
10
78.094154338139703
20
40.01627961631057
30
0
10
78.362976742644634
20
39.856449920223362
30
0
10
78.640451637842403
20
39.708285892234223
30
0
10
79.023292305616309
20
39.528621121991534
30
0
10
79.517224139332598
20
39.326780606317172
30
0
10
80.132450996078148
20
39.120186764399854
30
0
10
80.765759827779789
20
38.944856172462224
30
0
10
81.63129554508437
20
38.7505583446505
30
0
10
82.301031225270819
20
38.646930637163045
30
0
10
82.754765143534215
20
38.595345265211023
30
0
0
ARC
5
527
100
AcDbEntity
8
0
100
AcDbCircle
10
56.683078957752322
20
58.825698189225122
30
0
40
33.000000000000831
210
-0
220
0
230
1
100
AcDbArc
50
322.19028680072347
51
325.80971319927352
0
SPLINE
5
528
100
AcDbEntity
8
0
100
AcDbSpline
70
0
71
3
72
16
73
12
74
0
42
0.000000001
43
0.0000000001
44
0.0000000001
40
-1
40
-1
40
-1
40
-1
40
-0.75
40
-0.625
40
-0.5
40
-0.375
40
-0.25
40
-0.1875
40
-0.125
40
-0.0625
40
0
40
0
40
0
40
0
10
83.979882036502772
20
40.281574007156806
30
0
10
83.790609940691482
20
40.697159850186367
30
0
10
83.485093107857296
20
41.302091036310948
30
0
10
83.03284048977315
20
42.065224748664569
30
0
10
82.670389859565347
20
42.613359832189737
30
0
10
82.283789402729951
20
43.134631016514938
30
0
10
81.939195691109177
20
43.542017828161768
30
0
10
81.650019516898226
20
43.850600690681759
30
0
10
81.423363113944788
20
44.068710390842355
30
0
10
81.188287203485245
20
44.274988286547938
30
0
10
81.025526765288419
20
44.403139156963924
30
0
10
80.936527475367939
20
44.455930118482073
30
0
0
LINE
5
529
100
AcDbEntity
8
0
100
AcDbLine
10
80.936527475367939
20
44.455930118482087
30
0
11
80.678482928541285
21
44.608992235648543
31
0
0
ARC
5
530
100
AcDbEntity
8
0
100
AcDbCircle
10
81.488369144811116
20
45.974364187424392
30
0
40
1.5875000000000323
210
0
220
0
230
1
100
AcDbArc
50
152.61184845903807
51
239.32520933172196
0
ARC
5
531
100
AcDbEntity
8
0
100
AcDbCircle
10
56.683078957752322
20
58.825698189225122
30
0
40
26.3492000000006
210
-0
220
0
230
1
100
AcDbArc
50
332.61184845903551
51
333.38815154096017
0
ARC
5
532
100
AcDbEntity
8
0
100
AcDbCircle
10
81.660210316385133
20
46.311621476033871
30
0
40
1.5875000000000139
210
0
220
-0
230
1
100
AcDbArc
50
66.674790668276955
51
153.38815154095747
0
LINE
5
533
100
AcDbEntity
8
0
100
AcDbLine
10
82.288780255056352
20
47.769378685653805
30
0
11
82.5642848880982
21
47.65058391712035
31
0
0
SPLINE
5
534
100
AcDbEntity
8
0
100
AcDbSpline
70
0
71
3
72
16
73
12
74
0
42
0.000000001
43
0.0000000001
44
0.0000000001
40
0
40
0
40
0
40
0
40
0.0625
40
0.125
40
0.1875
40
0.25
40
0.375
40
0.5
40
0.625
40
0.75
40
1
40
1
40
1
40
1
10
82.5642848880982
20
47.65058391712035
30
0
10
82.659306143195607
20
47.609611727722296
30
0
10
82.8586517124984
20
47.553264248114431
30
0
10
83.163707104325809
20
47.484327865613892
30
0
10
83.473386614115682
20
47.429159959442863
30
0
10
83.893009193200285
20
47.376592881434831
30
0
10
84.425138431758384
20
47.337264474431436
30
0
10
85.074094950952244
20
47.330897608979953
30
0
10
85.730587574711251
20
47.3598514986951
30
0
10
86.613802289504264
20
47.442528529338517
30
0
10
87.282781495042698
20
47.55093242978073
30
0
10
87.730248851265458
20
47.642083317307922
30
0
0
ARC
5
535
100
AcDbEntity
8
0
100
AcDbCircle
10
56.683078957752322
20
58.825698189225122
30
0
40
33.000000000000547
210
-0
220
0
230
1
100
AcDbArc
50
340.19028680072319
51
343.80971319927329
0
SPLINE
5
536
100
AcDbEntity
8
0
100
AcDbSpline
70
0
71
3
72
16
73
12
74
0
42
0.000000001
43
0.0000000001
44
0.0000000001
40
-1
40
-1
40
-1
40
-1
40
-0.75
40
-0.625
40
-0.5
40
-0.375
40
-0.25
40
-0.1875
40
-0.125
40
-0.0625
40
0
40
0
40
0
40
0
10
88.374330917881778
20
49.62436409032275
30
0
10
88.065899369689305
20
49.961121420249995
30
0
10
87.58840157804498
20
50.442035273309372
30
0
10
86.922462492507137
20
51.028064818509861
30
0
10
86.40836840278979
20
51.43736885715019
30
0
10
85.879607864479709
20
51.813661102564453
30
0
10
85.425990321485301
20
52.09462367138822
30
0
10
85.055610087953113
20
52.29874306140546
30
0
10
84.772647434976562
20
52.436137032613786
30
0
10
84.485333583173286
20
52.559676518192255
30
0
10
84.290938411027923
20
52.631259497155199
30
0
10
84.189981752145513
20
52.653964392035995
30
0
0
LINE
5
537
100
AcDbEntity
8
0
100
AcDbLine
10
84.189981752145513
20
52.653964392035995
30
0
11
83.8972680089921
21
52.719794965689871
31
0
0
ARC
5
538
100
AcDbEntity
8
0
100
AcDbCircle
10
84.24559243569152
20
54.268609461930339
30
0
40
1.5875000000000279
210
0
220
0
230
1
100
AcDbArc
50
170.61184845903543
51
257.32520933172208
0
ARC
5
539
100
AcDbEntity
8
0
100
AcDbCircle
10
56.683078957752322
20
58.825698189225122
30
0
40
26.349200000000288
210
-0
220
0
230
1
100
AcDbArc
50
350.61184845903563
51
351.38815154095988
0
ARC
5
540
100
AcDbEntity
8
0
100
AcDbCircle
10
84.304804868027617
20
54.642462046280073
30
0
40
1.5875000000000079
210
0
220
-0
230
1
100
AcDbArc
50
84.674790668277183
51
171.3881515409596
0
LINE
5
541
100
AcDbEntity
8
0
100
AcDbLine
10
84.452138652702956
20
56.223110332867975
30
0
11
84.750868731546646
21
56.195265407791446
31
0
0
CIRCLE
5
542
100
AcDbEntity
8
0
100
AcDbCircle
10
56.683078957752322
20
58.825698189225122
30
0
40
4.0000000000002469
210
-0
220
0
230
1
0
ENDSEC
0
SECTION
2
OBJECTS
0
DICTIONARY
5
C
100
AcDbDictionary
3
ACAD_GROUP
350
D
3
ACAD_MLINESTYLE
350
17
0
DICTIONARY
5
D
100
AcDbDictionary
0
DICTIONARY
5
1A
330
C
100
AcDbDictionary
0
DICTIONARY
5
17
100
AcDbDictionary
0
ENDSEC
0
EOF
