0
SECTION
2
HEADER
9
$INSUNITS
70
4
9
$ACADVER
1
AC1014
9
$HANDSEED
5
FFFF
0
ENDSEC
0
SECTION
2
TABLES
0
TABLE
2
VPORT
5
8
100
AcDbSymbolTable
0
ENDTAB
0
TABLE
2
LTYPE
5
5
100
AcDbSymbolTable
0
LTYPE
5
14
100
AcDbSymbolTableRecord
100
AcDbLinetypeTableRecord
2
BYBLOCK
70
0
0
LTYPE
5
15
100
AcDbSymbolTableRecord
100
AcDbLinetypeTableRecord
2
BYLAYER
70
0
0
ENDTAB
0
TABLE
2
LAYER
5
2
100
AcDbSymbolTable
70
2
0
LAYER
5
50
100
AcDbSymbolTableRecord
100
AcDbLayerTableRecord
2
0
70
0
6
CONTINUOUS
0
ENDTAB
0
TABLE
2
STYLE
5
3
100
AcDbSymbolTable
70
1
0
STYLE
5
11
100
AcDbSymbolTableRecord
100
AcDbTextStyleTableRecord
2
STANDARD
70
0
0
ENDTAB
0
TABLE
2
VIEW
5
6
100
AcDbSymbolTable
70
0
0
ENDTAB
0
TABLE
2
UCS
5
7
100
AcDbSymbolTable
70
0
0
ENDTAB
0
TABLE
2
APPID
5
9
100
AcDbSymbolTable
70
2
0
APPID
5
12
100
AcDbSymbolTableRecord
100
AcDbRegAppTableRecord
2
ACAD
70
0
0
ENDTAB
0
TABLE
2
DIMSTYLE
5
A
100
AcDbSymbolTable
70
1
0
ENDTAB
0
TABLE
2
BLOCK_RECORD
5
1
100
AcDbSymbolTable
70
1
0
BLOCK_RECORD
5
1F
100
AcDbSymbolTableRecord
100
AcDbBlockTableRecord
2
*MODEL_SPACE
0
BLOCK_RECORD
5
1B
100
AcDbSymbolTableRecord
100
AcDbBlockTableRecord
2
*PAPER_SPACE
0
ENDTAB
0
ENDSEC
0
SECTION
2
BLOCKS
0
BLOCK
5
20
100
AcDbEntity
100
AcDbBlockBegin
2
*MODEL_SPACE
0
ENDBLK
5
21
100
AcDbEntity
100
AcDbBlockEnd
0
BLOCK
5
1C
100
AcDbEntity
100
AcDbBlockBegin
2
*PAPER_SPACE
0
ENDBLK
5
1D
100
AcDbEntity
100
AcDbBlockEnd
0
ENDSEC
0
SECTION
2
ENTITIES
0
SPLINE
5
100
100
AcDbEntity
8
0
100
AcDbSpline
70
0
71
3
72
16
73
12
74
0
42
0.000000001
43
0.0000000001
44
0.0000000001
40
0
40
0
40
0
40
0
40
0.0625
40
0.125
40
0.1875
40
0.25
40
0.375
40
0.5
40
0.625
40
0.75
40
1
40
1
40
1
40
1
10
34.774792641448137
20
11.52743848027699
30
0
10
34.868383782850742
20
11.516237837865539
30
1.1102230246251565e-15
10
35.057077386021348
20
11.521187774950858
30
2.2204460492503131e-15
10
35.341445678462414
20
11.545213177718995
30
1.1102230246251565e-15
10
35.626235932510859
20
11.584108642925246
30
2.2204460492503131e-15
10
36.00621069117512
20
11.65811472823542
30
0
10
36.480578294558569
20
11.778679335320509
30
0
10
37.047312680135526
20
11.966310523279347
30
1.1102230246251565e-15
10
37.610181843729656
20
12.190892445193636
30
2.2204460492503131e-15
10
38.354067269922574
20
12.536090992123324
30
0
10
38.902962215177929
20
12.842744325562654
30
1.1102230246251565e-15
10
39.263800656761305
20
13.066289625523641
30
0
0
ARC
5
101
100
AcDbEntity
8
0
100
AcDbCircle
10
13.782806436222705
20
14.050633840156459
30
0
40
25.50000000000005
210
0
220
0
230
1
100
AcDbArc
50
-2.2122660809220318
51
2.2122660809234937
0
SPLINE
5
102
100
AcDbEntity
8
0
100
AcDbSpline
70
0
71
3
72
16
73
12
74
0
42
0.000000001
43
0.0000000001
44
0.0000000001
40
-1
40
-1
40
-1
40
-1
40
-0.75
40
-0.625
40
-0.5
40
-0.375
40
-0.25
40
-0.1875
40
-0.125
40
-0.0625
40
0
40
0
40
0
40
0
10
39.263800656761305
20
15.034978054789969
30
0
10
38.902962215177872
20
15.258523354750345
30
1.1102230246251565e-15
10
38.354067716901248
20
15.565174778201818
30
0
10
37.610182032659388
20
15.910374311180087
30
0
10
37.047312775446919
20
16.134959587184539
30
3.3306690738754696e-15
10
36.480578256361255
20
16.322586933306894
30
-1.1102230246251565e-15
10
36.006210569067918
20
16.443157179683311
30
1.1102230246251565e-15
10
35.626236028412094
20
16.517156102678786
30
0
10
35.34144577880776
20
16.556051729313705
30
1.1102230246251565e-15
10
35.057077360390231
20
16.580080639284603
30
0
10
34.868383782850742
20
16.585029842448019
30
1.1102230246251565e-15
10
34.774792641448144
20
16.573829200036588
30
0
0
LINE
5
103
100
AcDbEntity
8
0
100
AcDbLine
10
34.774792641448144
20
16.573829200036585
30
0
11
34.011258767508174
21
16.482452283772041
31
0
0
ARC
5
104
100
AcDbEntity
8
0
100
AcDbCircle
10
33.822618714339299
20
18.058704541610378
30
0
40
1.5875000000000015
210
0
220
0
230
1
100
AcDbArc
50
191.3102300558229
51
276.82448989026881
0
ARC
5
105
100
AcDbEntity
8
0
100
AcDbCircle
10
13.782806436222705
20
14.050633840156459
30
0
40
18.849200000000142
210
0
220
-0
230
1
100
AcDbArc
50
11.310230055822863
51
12.689769944179032
0
ARC
5
106
100
AcDbEntity
8
0
100
AcDbCircle
10
33.720315137226237
20
18.540005030803787
30
0
40
1.5874999999999928
210
0
220
0
230
1
100
AcDbArc
50
107.17551010973051
51
192.68976994417679
0
LINE
5
107
100
AcDbEntity
8
0
100
AcDbLine
10
33.251526848934326
20
20.056709943026437
30
0
11
33.986216091404501
21
20.28379018100058
31
0
0
SPLINE
5
108
100
AcDbEntity
8
0
100
AcDbSpline
70
0
71
3
72
16
73
12
74
0
42
0.000000001
43
0.0000000001
44
0.0000000001
40
0
40
0
40
0
40
0
40
0.0625
40
0.125
40
0.1875
40
0.25
40
0.375
40
0.5
40
0.625
40
0.75
40
1
40
1
40
1
40
1
10
33.986216091404501
20
20.28379018100058
30
0
10
34.076271565203136
20
20.311624831678614
30
1.1102230246251565e-15
10
34.24663842847238
20
20.392895426942076
30
2.2204460492503131e-15
10
34.496649778659034
20
20.530506729173595
30
1.1102230246251565e-15
10
34.740998410676994
20
20.681874136648027
30
2.2204460492503131e-15
10
35.058021638767308
20
20.904031717513689
30
0
10
35.44233996453162
20
21.207115653252888
30
0
10
35.883761108638524
20
21.609036914229772
30
1.1102230246251565e-15
10
36.306621979272073
20
22.043142222954756
30
2.2204460492503131e-15
10
36.845790233204745
20
22.661062248568825
30
0
10
37.222503569732915
20
23.164459695842016
30
1.1102230246251565e-15
10
37.46122182410415
20
23.51544470561749
30
0
0
ARC
5
109
100
AcDbEntity
8
0
100
AcDbCircle
10
13.782806436222705
20
14.050633840156459
30
0
40
25.500000000000192
210
0
220
-0
230
1
100
AcDbArc
50
21.787733919077464
51
26.212266080923559
0
SPLINE
5
110
100
AcDbEntity
8
0
100
AcDbSpline
70
0
71
3
72
16
73
12
74
0
42
0.000000001
43
0.0000000001
44
0.0000000001
40
-1
40
-1
40
-1
40
-1
40
-0.75
40
-0.625
40
-0.5
40
-0.375
40
-0.25
40
-0.1875
40
-0.125
40
-0.0625
40
0
40
0
40
0
40
0
10
36.66048410112213
20
25.313931077687432
30
0
10
36.239917716989893
20
25.37138365462059
30
1.1102230246251565e-15
10
35.613751270794651
20
25.428268163963406
30
0
10
34.79377258371531
20
25.441058063255142
30
0
10
34.188218869295966
20
25.417287369833275
30
3.3306690738754696e-15
10
33.594166206784941
20
25.358181783804739
30
-1.1102230246251565e-15
10
33.111769423539748
20
25.275385463995434
30
1.1102230246251565e-15
10
32.734547334373389
20
25.188437274847789
30
0
10
32.458558218858606
20
25.108135567777488
30
1.1102230246251565e-15
10
32.189001303738067
20
25.014424013429547
30
0
10
32.014608120809719
20
24.942196743200139
30
1.1102230246251565e-15
10
31.933664070400631
20
24.89389750052673
30
0
0
LINE
5
111
100
AcDbEntity
8
0
100
AcDbLine
10
31.933664070400631
20
24.893897500526727
30
0
11
31.273307508282553
21
24.499863328978865
31
0
0
ARC
5
112
100
AcDbEntity
8
0
100
AcDbCircle
10
30.459856692586843
20
25.863114597250409
30
0
40
1.5874999999999968
210
0
220
0
230
1
100
AcDbArc
50
215.31023005582225
51
300.82448989026938
0
ARC
5
113
100
AcDbEntity
8
0
100
AcDbCircle
10
13.782806436222705
20
14.050633840156459
30
0
40
18.849200000000248
210
0
220
-0
230
1
100
AcDbArc
50
35.310230055822622
51
36.689769944178671
0
ARC
5
114
100
AcDbEntity
8
0
100
AcDbCircle
10
30.170635179129363
20
26.261193859384605
30
0
40
1.5874999999999952
210
0
220
0
230
1
100
AcDbArc
50
131.17551010973054
51
216.68976994417767
0
LINE
5
115
100
AcDbEntity
8
0
100
AcDbLine
10
29.125476303230219
20
27.456099367836725
30
0
11
29.704286469765275
21
27.962372523944641
31
0
0
SPLINE
5
116
100
AcDbEntity
8
0
100
AcDbSpline
70
0
71
3
72
16
73
12
74
0
42
0.000000001
43
0.0000000001
44
0.0000000001
40
0
40
0
40
0
40
0
40
0.0625
40
0.125
40
0.1875
40
0.25
40
0.375
40
0.5
40
0.625
40
0.75
40
1
40
1
40
1
40
1
10
29.704286469765275
20
27.962372523944641
30
0
10
29.775234866411839
20
28.024429603740032
30
1.1102230246251565e-15
10
29.897817011386142
20
28.167968432940423
30
2.2204460492503131e-15
10
30.070242185589272
20
28.395371390320058
30
1.1102230246251565e-15
10
30.231899097263238
20
28.633037940180603
30
2.2204460492503131e-15
10
30.431154598577223
20
28.964933952631817
30
0
10
30.658971516775221
20
29.39813125110468
30
0
10
30.898753693410885
20
29.944846747736808
30
1.1102230246251565e-15
10
31.108489784980943
20
30.513414691670633
30
2.2204460492503131e-15
10
31.349713777358513
20
31.297212209914402
30
0
10
31.489108346940409
20
31.910311779161038
30
1.1102230246251565e-15
10
31.564429859231652
20
32.328048001965982
30
0
0
ARC
5
117
100
AcDbEntity
8
0
100
AcDbCircle
10
13.782806436222705
20
14.050633840156459
30
0
40
25.500000000000306
210
0
220
-0
230
1
100
AcDbArc
50
45.787733919077191
51
50.212266080923222
0
SPLINE
5
118
100
AcDbEntity
8
0
100
AcDbSpline
70
0
71
3
72
16
73
12
74
0
42
0.000000001
43
0.0000000001
44
0.0000000001
40
-1
40
-1
40
-1
40
-1
40
-0.75
40
-0.625
40
-0.5
40
-0.375
40
-0.25
40
-0.1875
40
-0.125
40
-0.0625
40
0
40
0
40
0
40
0
10
30.101409240045061
20
33.645357684372719
30
0
10
29.693834661905612
20
33.526783465787787
30
1.1102230246251565e-15
10
29.098666134883121
20
33.324065212575434
30
0
10
28.344376209234788
20
33.00223398840086
30
0
10
27.800843776114355
20
32.734217494395388
30
3.3306690738754696e-15
10
27.282190072325211
20
32.438598868997744
30
-1.1102230246251565e-15
10
26.875174979388397
20
32.166752218878649
30
1.1102230246251565e-15
10
26.565930467883444
20
31.93389104939105
30
0
10
26.346463511813127
20
31.748276903286062
30
1.1102230246251565e-15
10
26.138326939461514
20
31.553028463708959
30
0
10
26.008388316785162
20
31.416113471273242
30
1.1102230246251565e-15
10
25.954087319038802
20
31.339067006181089
30
0
0
LINE
5
119
100
AcDbEntity
8
0
100
AcDbLine
10
25.954087319038806
20
31.339067006181089
30
0
11
25.511089717483877
21
30.710507667298579
31
0
0
ARC
5
120
100
AcDbEntity
8
0
100
AcDbCircle
10
24.213481175263802
20
31.625039416970221
30
0
40
1.5874999999999959
210
0
220
0
230
1
100
AcDbArc
50
239.3102300558219
51
324.82448989026921
0
ARC
5
121
100
AcDbEntity
8
0
100
AcDbCircle
10
13.782806436222705
20
14.050633840156459
30
0
40
18.849200000000316
210
0
220
-0
230
1
100
AcDbArc
50
59.310230055822252
51
60.689769944178209
0
ARC
5
122
100
AcDbEntity
8
0
100
AcDbCircle
10
23.787350752633646
20
31.871065931185633
30
0
40
1.5874999999999937
210
0
220
0
230
1
100
AcDbArc
50
155.17551010973079
51
240.68976994417844
0
LINE
5
123
100
AcDbEntity
8
0
100
AcDbLine
10
22.346538753740539
20
32.537562018080088
30
0
11
22.669388308221272
21
33.235488864283475
31
0
0
SPLINE
5
124
100
AcDbEntity
8
0
100
AcDbSpline
70
0
71
3
72
16
73
12
74
0
42
0.000000001
43
0.0000000001
44
0.0000000001
40
0
40
0
40
0
40
0
40
0.0625
40
0.125
40
0.1875
40
0.25
40
0.375
40
0.5
40
0.625
40
0.75
40
1
40
1
40
1
40
1
10
22.669388308221272
20
33.235488864283475
30
0
10
22.70896200538974
20
33.321038140328731
30
1.1102230246251565e-15
10
22.762563865579043
20
33.502026035888008
30
2.2204460492503131e-15
10
22.827588984745489
20
33.77990061119376
30
1.1102230246251565e-15
10
22.878602227440052
20
34.062771597836786
30
2.2204460492503131e-15
10
22.925636915621116
20
34.447018206140037
30
0
10
22.957560811444679
20
34.93542511896672
30
0
10
22.954243503916118
20
35.532402775132034
30
1.1102230246251565e-15
10
22.914589540797582
20
36.13712279149108
30
2.2204460492503131e-15
10
22.816159451886694
20
36.951272090883094
30
0
10
22.6941326670823
20
37.568063296745976
30
1.1102230246251565e-15
10
22.593033663543437
20
37.980320344642749
30
0
0
ARC
5
125
100
AcDbEntity
8
0
100
AcDbCircle
10
13.782806436222705
20
14.050633840156459
30
0
40
25.500000000000327
210
0
220
-0
230
1
100
AcDbArc
50
69.787733919076899
51
74.212266080922788
0
SPLINE
5
126
100
AcDbEntity
8
0
100
AcDbSpline
70
0
71
3
72
16
73
12
74
0
42
0.000000001
43
0.0000000001
44
0.0000000001
40
-1
40
-1
40
-1
40
-1
40
-0.75
40
-0.625
40
-0.5
40
-0.375
40
-0.25
40
-0.1875
40
-0.125
40
-0.0625
40
0
40
0
40
0
40
0
10
20.720699704334763
20
38.588678525915384
30
0
10
20.396590279445881
20
38.314580071419037
30
1.1102230246251565e-15
10
19.935329716856682
20
37.887310883268789
30
0
10
19.377152133292189
20
37.286506078032858
30
0
10
18.989622676994419
20
36.820586270110581
30
3.3306690738754696e-15
10
18.636047869132916
20
36.339569751286135
30
-1.1102230246251565e-15
10
18.374791073689483
20
35.925677526312199
30
1.1102230246251565e-15
10
18.186995325283306
20
35.587167188166262
30
0
10
18.061998359156746
20
35.328334975139761
30
1.1102230246251565e-15
10
17.951270833795022
20
35.065309879312622
30
0
10
17.888254339686721
20
34.88738101069665
30
1.1102230246251565e-15
10
17.869985530422522
20
34.794909356945205
30
0
0
LINE
5
127
100
AcDbEntity
8
0
100
AcDbLine
10
17.869985530422522
20
34.794909356945205
30
0
11
17.720945199246479
21
34.040508470703188
31
0
0
ARC
5
128
100
AcDbEntity
8
0
100
AcDbCircle
10
16.163547235855404
20
34.34818985399658
30
0
40
1.5874999999999995
210
0
220
0
230
1
100
AcDbArc
50
263.31023005582193
51
348.82448989026932
0
ARC
5
129
100
AcDbEntity
8
0
100
AcDbCircle
10
13.782806436222705
20
14.050633840156459
30
0
40
18.849200000000323
210
0
220
-0
230
1
100
AcDbArc
50
83.310230055821847
51
84.689769944177669
0
ARC
5
130
100
AcDbEntity
8
0
100
AcDbCircle
10
15.674189725398687
20
34.399623400904645
30
0
40
1.5874999999999999
210
0
220
0
230
1
100
AcDbArc
50
179.17551010973071
51
264.68976994417994
0
LINE
5
131
100
AcDbEntity
8
0
100
AcDbLine
10
14.086854087486316
20
34.422466837890525
30
0
11
14.097919408946895
21
35.191369482014466
31
0
0
SPLINE
5
132
100
AcDbEntity
8
0
100
AcDbSpline
70
0
71
3
72
16
73
12
74
0
42
0.000000001
43
0.0000000001
44
0.0000000001
40
0
40
0
40
0
40
0
40
0.0625
40
0.125
40
0.1875
40
0.25
40
0.375
40
0.5
40
0.625
40
0.75
40
1
40
1
40
1
40
1
10
14.097919408946895
20
35.191369482014466
30
0
10
14.099275754881006
20
35.285618707290709
30
1.1102230246251565e-15
10
14.07462908170108
20
35.472761217843079
30
2.2204460492503131e-15
10
14.021010711992233
20
35.753060372593438
30
1.1102230246251565e-15
10
13.952559632604791
20
36.032224832625992
30
2.2204460492503131e-15
10
13.839240782769657
20
36.402382307434955
30
0
10
13.669751724611407
20
36.861548842350132
30
0
10
13.423908525527155
20
37.405565797926016
30
1.1102230246251565e-15
10
13.141721038188054
20
37.941876302172659
30
2.2204460492503131e-15
10
12.720656324570999
20
38.645603572534128
30
0
10
12.358307725050679
20
39.15943761214686
30
1.1102230246251565e-15
10
12.098269141849832
20
39.4949324963168
30
0
0
ARC
5
133
100
AcDbEntity
8
0
100
AcDbCircle
10
13.782806436222705
20
14.050633840156459
30
0
40
25.500000000000313
210
0
220
0
230
1
100
AcDbArc
50
93.787733919076587
51
98.212266080922561
0
SPLINE
5
134
100
AcDbEntity
8
0
100
AcDbSpline
70
0
71
3
72
16
73
12
74
0
42
0.000000001
43
0.0000000001
44
0.0000000001
40
-1
40
-1
40
-1
40
-1
40
-0.75
40
-0.625
40
-0.5
40
-0.375
40
-0.25
40
-0.1875
40
-0.125
40
-0.0625
40
0
40
0
40
0
40
0
10
10.14036539378618
20
39.289148520152764
30
0
10
9.9557625861552026
20
38.90691994263171
30
1.1102230246251565e-15
10
9.7081661296882249
20
38.328978543796588
30
0
10
9.4426148632909861
20
37.553084766463847
30
0
10
9.2780957474042154
20
36.969823412163358
30
3.3306690738754696e-15
10
9.1507361318763696
20
36.386581125914255
30
-1.1102230246251565e-15
10
9.080411307301743
20
35.902209051876355
30
1.1102230246251565e-15
10
9.0465359129646359
20
35.516581057807407
30
0
10
9.0376220477868845
20
35.229285218908558
30
1.1102230246251565e-15
10
9.0434493644780805
20
34.94396289540785
30
0
10
9.0582511232560581
20
34.755785668428331
30
1.1102230246251565e-15
10
9.079173345562717
20
34.663878015029837
30
0
0
LINE
5
135
100
AcDbEntity
8
0
100
AcDbLine
10
9.079173345562717
20
34.663878015029837
30
0
11
9.249860712014776
21
33.914078348176446
31
0
0
ARC
5
136
100
AcDbEntity
8
0
100
AcDbCircle
10
7.701961583839358
20
33.561708458722542
30
0
40
1.587499999999997
210
0
220
0
230
1
100
AcDbArc
50
-72.689769944178124
51
12.824489890269373
0
ARC
5
137
100
AcDbEntity
8
0
100
AcDbCircle
10
13.782806436222705
20
14.050633840156459
30
0
40
18.849200000000263
210
0
220
0
230
1
100
AcDbArc
50
107.31023005582146
51
108.6897699441773
0
ARC
5
138
100
AcDbEntity
8
0
100
AcDbCircle
10
7.2339913447874684
20
33.409655710803754
30
0
40
1.5875000000000004
210
0
220
0
230
1
100
AcDbArc
50
203.17551010973054
51
288.68976994417966
0
LINE
5
139
100
AcDbEntity
8
0
100
AcDbLine
10
5.774596820142448
20
32.784896660100095
30
0
11
5.471964613977029
21
33.491824849714334
31
0
0
SPLINE
5
140
100
AcDbEntity
8
0
100
AcDbSpline
70
0
71
3
72
16
73
12
74
0
42
0.000000001
43
0.0000000001
44
0.0000000001
40
0
40
0
40
0
40
0
40
0.0625
40
0.125
40
0.1875
40
0.25
40
0.375
40
0.5
40
0.625
40
0.75
40
1
40
1
40
1
40
1
10
5.471964613977029
20
33.491824849714334
30
0
10
5.4348690841427754
20
33.578477476943796
30
1.1102230246251565e-15
10
5.3362355112944213
20
33.739415962278656
30
2.2204460492503131e-15
10
5.1732447559405434
20
33.973673426179282
30
1.1102230246251565e-15
10
4.9971651679557025
20
34.200861288332341
30
2.2204460492503131e-15
10
4.7430866387103041
20
34.492926039477354
30
0
10
4.4014908244855624
20
34.843458131197281
30
0
10
3.955630256382646
20
35.240448912325533
30
1.1102230246251565e-15
10
3.4797020249767536
20
35.615616946047808
30
2.2204460492503131e-15
10
2.8088086008907904
20
36.08724134917145
30
0
10
2.2687915513449894
20
36.409271649049771
30
1.1102230246251565e-15
10
1.8947764218942105
20
36.609994256144233
30
0
0
ARC
5
141
100
AcDbEntity
8
0
100
AcDbCircle
10
13.782806436222705
20
14.050633840156459
30
0
40
25.500000000000217
210
0
220
0
230
1
100
AcDbArc
50
117.78773391907632
51
122.21226608092221
0
SPLINE
5
142
100
AcDbEntity
8
0
100
AcDbSpline
70
0
71
3
72
16
73
12
74
0
42
0.000000001
43
0.0000000001
44
0.0000000001
40
-1
40
-1
40
-1
40
-1
40
-0.75
40
-0.625
40
-0.5
40
-0.375
40
-0.25
40
-0.1875
40
-0.125
40
-0.0625
40
0
40
0
40
0
40
0
10
0.18984223001302425
20
35.625650041511044
30
0
10
0.17666554214033184
20
35.201382134456537
30
1.1102230246251565e-15
10
0.18554486846616011
20
34.572699843227241
30
0
10
0.25853614565245869
20
33.755876176672665
30
0
10
0.34547421992291572
20
33.156124462915272
30
3.3306690738754696e-15
10
0.46635143127880946
20
32.571504299124129
30
-1.1102230246251565e-15
10
0.59911837862310457
20
32.100404708005449
30
1.1102230246251565e-15
10
0.72502070178420253
20
31.734337641508482
30
0
10
0.83373122582442671
20
31.468254237283514
30
1.1102230246251565e-15
10
0.9551057885731411
20
31.209969507914622
30
0
10
1.0451664416748827
20
31.044081474652554
30
1.1102230246251565e-15
10
1.1016620532431787
20
30.96862948983453
30
0
0
LINE
5
143
100
AcDbEntity
8
0
100
AcDbLine
10
1.1016620532431785
20
30.96862948983453
30
0
11
1.5625637210177428
21
30.353078216484832
31
0
0
ARC
5
144
100
AcDbEntity
8
0
100
AcDbCircle
10
0.29180924954161769
20
29.401585009350161
30
0
40
1.5874999999999964
210
0
220
0
230
1
100
AcDbArc
50
-48.689769944177272
51
36.824489890269483
0
ARC
5
145
100
AcDbEntity
8
0
100
AcDbCircle
10
13.782806436222705
20
14.050633840156459
30
0
40
18.84920000000016
210
0
220
0
230
1
100
AcDbArc
50
131.31023005582114
51
132.68976994417724
0
ARC
5
146
100
AcDbEntity
8
0
100
AcDbCircle
10
-0.073857412397236574
20
29.072337268075543
30
0
40
1.5875000000000064
210
0
220
0
230
1
100
AcDbArc
50
227.17551010973108
51
312.68976994417778
0
LINE
5
147
100
AcDbEntity
8
0
100
AcDbLine
10
-1.1529682522807416
20
27.908002245306779
30
0
11
-1.7169701282988652
21
28.430721674186024
31
0
0
SPLINE
5
148
100
AcDbEntity
8
0
100
AcDbSpline
70
0
71
3
72
16
73
12
74
0
42
0.000000001
43
0.0000000001
44
0.0000000001
40
0
40
0
40
0
40
0
40
0.0625
40
0.125
40
0.1875
40
0.25
40
0.375
40
0.5
40
0.625
40
0.75
40
1
40
1
40
1
40
1
10
-1.7169701282988652
20
28.430721674186024
30
0
10
-1.7861033797908079
20
28.494794676906476
30
1.1102230246251565e-15
10
-1.9416692115042737
20
28.601701410828984
30
2.2204460492503131e-15
10
-2.1858497701779527
20
28.749411940209313
30
1.1102230246251565e-15
10
-2.4391121063647758
20
28.885340359179597
30
2.2204460492503131e-15
10
-2.7900178290829212
20
29.04881173786282
30
0
10
-3.2446553797941342
20
29.230099203244873
30
0
10
-3.8134399741747038
20
29.411420497320655
30
1.1102230246251565e-15
10
-4.4008166347649649
20
29.560576099193323
30
2.2204460492503131e-15
10
-5.2055352014201342
20
29.718549491205884
30
0
10
-5.8298468472234024
20
29.793094086947278
30
1.1102230246251565e-15
10
-6.2531679092218404
20
29.824337654692023
30
0
0
ARC
5
149
100
AcDbEntity
8
0
100
AcDbCircle
10
13.782806436222705
20
14.050633840156459
30
0
40
25.500000000000114
210
0
220
0
230
1
100
AcDbArc
50
141.78773391907623
51
146.21226608092235
0
SPLINE
5
150
100
AcDbEntity
8
0
100
AcDbSpline
70
0
71
3
72
16
73
12
74
0
42
0.000000001
43
0.0000000001
44
0.0000000001
40
-1
40
-1
40
-1
40
-1
40
-0.75
40
-0.625
40
-0.5
40
-0.375
40
-0.25
40
-0.1875
40
-0.125
40
-0.0625
40
0
40
0
40
0
40
0
10
-7.4103339343035168
20
28.23163525878612
30
0
10
-7.2498061333746904
20
27.838687797683171
30
1.1102230246251565e-15
10
-6.9859863404492826
20
27.267969493609311
30
0
10
-6.5870733746082895
20
26.551452170391002
30
0
10
-6.2637104930296772
20
26.038912617058749
30
3.3306690738754696e-15
10
-5.9154972227679403
20
25.554000713152657
30
-1.1102230246251565e-15
10
-5.602595114850577
20
25.177631004063091
30
1.1102230246251565e-15
10
-5.3386847296525097
20
24.894421186550165
30
0
10
-5.131146853604978
20
24.695558454881542
30
1.1102230246251565e-15
10
-4.9152118093512716
20
24.508971095795257
30
0
10
-4.765464567022426
20
24.394055804247365
30
1.1102230246251565e-15
10
-4.6831641706791576
20
24.348105821644484
30
0
0
LINE
5
151
100
AcDbEntity
8
0
100
AcDbLine
10
-4.6831641706791576
20
24.348105821644481
30
0
11
-4.0117422871005184
21
23.97323734906842
31
0
0
ARC
5
152
100
AcDbEntity
8
0
100
AcDbCircle
10
-4.7856271093171801
20
22.587142643810985
30
0
40
1.5875000000000004
210
0
220
0
230
1
100
AcDbArc
50
-24.689769944179279
51
60.824489890269312
0
ARC
5
153
100
AcDbEntity
8
0
100
AcDbCircle
10
13.782806436222705
20
14.050633840156459
30
0
40
18.849200000000053
210
0
220
0
230
1
100
AcDbArc
50
155.31023005582122
51
156.68976994417719
0
ARC
5
154
100
AcDbEntity
8
0
100
AcDbCircle
10
-4.9857631063164067
20
22.137629834768738
30
0
40
1.5875000000000044
210
0
220
0
230
1
100
AcDbArc
50
251.1755101097306
51
336.68976994417727
0
LINE
5
155
100
AcDbEntity
8
0
100
AcDbLine
10
-5.4980021938083334
20
20.635042943023223
30
0
11
-6.2258526915194414
21
20.883170673157331
31
0
0
SPLINE
5
156
100
AcDbEntity
8
0
100
AcDbSpline
70
0
71
3
72
16
73
12
74
0
42
0.000000001
43
0.0000000001
44
0.0000000001
40
0
40
0
40
0
40
0
40
0.0625
40
0.125
40
0.1875
40
0.25
40
0.375
40
0.5
40
0.625
40
0.75
40
1
40
1
40
1
40
1
10
-6.2258526915194414
20
20.883170673157331
30
0
10
-6.3150698974302859
20
20.913585247113375
30
1.1102230246251565e-15
10
-6.500669242434336
20
20.947975084111246
30
2.2204460492503131e-15
10
-6.7838185675224132
20
20.983598186533325
30
1.1102230246251565e-15
10
-7.0704722931684412
20
21.004763903810037
30
2.2204460492503131e-15
10
-7.4575304220229199
20
21.01137622356611
30
0
10
-7.9465987464501904
20
20.992072812901071
30
0
10
-8.5399593434941359
20
20.926372520926158
30
1.1102230246251565e-15
10
-9.1372216725032711
20
20.823725332349472
30
2.2204460492503131e-15
10
-9.9366222309144234
20
20.640732678628591
30
0
10
-10.53727931772219
20
20.454902132413611
30
1.1102230246251565e-15
10
-10.936710254897879
20
20.311264364106194
30
0
0
ARC
5
157
100
AcDbEntity
8
0
100
AcDbCircle
10
13.782806436222705
20
14.050633840156459
30
0
40
25.500000000000007
210
0
220
0
230
1
100
AcDbArc
50
165.78773391907623
51
170.21226608092243
0
SPLINE
5
158
100
AcDbEntity
8
0
100
AcDbSpline
70
0
71
3
72
16
73
12
74
0
42
0.000000001
43
0.0000000001
44
0.0000000001
40
-1
40
-1
40
-1
40
-1
40
-0.75
40
-0.625
40
-0.5
40
-0.375
40
-0.25
40
-0.1875
40
-0.125
40
-0.0625
40
0
40
0
40
0
40
0
10
-11.346023594920034
20
18.38559650042675
30
0
10
-11.039548020322078
20
18.091913671115819
30
1.1102230246251565e-15
10
-10.566404599717782
20
17.677841733784462
30
0
10
-9.9105456210275626
20
17.185523108442556
30
0
10
-9.406670312025275
20
16.848818460582226
30
3.3306690738754696e-15
10
-8.8913302207045835
20
16.547460490032961
30
-1.1102230246251565e-15
10
-8.4523965692993244
20
16.33089840488546
30
1.1102230246251565e-15
10
-8.096110625215637
20
16.1795153866851
30
0
10
-7.825630581351815
20
16.082258500489456
30
1.1102230246251565e-15
10
-7.5524721864528912
20
15.999631161164887
30
0
10
-7.3689310135065558
20
15.955558509212253
30
1.1102230246251565e-15
10
-7.2750563185917185
20
15.94705569825914
30
0
0
LINE
5
159
100
AcDbEntity
8
0
100
AcDbLine
10
-7.2750563185917185
20
15.947055698259138
30
0
11
-6.5092091625560666
21
15.87768819093826
31
0
0
ARC
5
160
100
AcDbEntity
8
0
100
AcDbCircle
10
-6.6524126192291018
20
14.296660354372154
30
0
40
1.5874999999999986
210
0
220
0
230
1
100
AcDbArc
50
-0.68976994418087278
51
84.824489890269248
0
ARC
5
161
100
AcDbEntity
8
0
100
AcDbCircle
10
13.782806436222705
20
14.050633840156459
30
0
40
18.849199999999946
210
0
220
0
230
1
100
AcDbArc
50
179.31023005582179
51
180.68976994417716
0
ARC
5
162
100
AcDbEntity
8
0
100
AcDbCircle
10
-6.6524126192290991
20
13.804607325941342
30
0
40
1.5875000000000004
210
0
220
0
230
1
100
AcDbArc
50
-84.824489890269561
51
0.68976994417612481
0
LINE
5
163
100
AcDbEntity
8
0
100
AcDbLine
10
-6.509209162556072
20
12.223579489375238
30
0
11
-7.2750563185917185
21
12.154211982054349
31
0
0
SPLINE
5
164
100
AcDbEntity
8
0
100
AcDbSpline
70
0
71
3
72
16
73
12
74
0
42
0.000000001
43
0.0000000001
44
0.0000000001
40
0
40
0
40
0
40
0
40
0.0625
40
0.125
40
0.1875
40
0.25
40
0.375
40
0.5
40
0.625
40
0.75
40
1
40
1
40
1
40
1
10
-7.2750563185917185
20
12.154211982054349
30
0
10
-7.3689310135065877
20
12.145709171101249
30
1.1102230246251565e-15
10
-7.5524720589329366
20
12.10163579593571
30
2.2204460492503131e-15
10
-7.8256310597968151
20
12.019011913365038
30
1.1102230246251565e-15
10
-8.0961111415704909
20
11.921755184146491
30
2.2204460492503131e-15
10
-8.4523958097696994
20
11.770365114818675
30
0
10
-8.8913305515732919
20
11.553808563176318
30
0
10
-9.4066697135398911
20
11.252446862501799
30
1.1102230246251565e-15
10
-9.9105456283244227
20
10.915745514900854
30
2.2204460492503131e-15
10
-10.566404559615801
20
10.423427907711371
30
0
10
-11.039548020321575
20
10.009354009196924
30
1.1102230246251565e-15
10
-11.346023594920061
20
9.7156711798867672
30
0
0
ARC
5
165
100
AcDbEntity
8
0
100
AcDbCircle
10
13.782806436222705
20
14.050633840156459
30
0
40
25.499999999999904
210
0
220
0
230
1
100
AcDbArc
50
189.78773391907626
51
194.21226608092246
0
SPLINE
5
166
100
AcDbEntity
8
0
100
AcDbSpline
70
0
71
3
72
16
73
12
74
0
42
0.000000001
43
0.0000000001
44
0.0000000001
40
-1
40
-1
40
-1
40
-1
40
-0.75
40
-0.625
40
-0.5
40
-0.375
40
-0.25
40
-0.1875
40
-0.125
40
-0.0625
40
0
40
0
40
0
40
0
10
-10.936710254897902
20
7.7900033162073257
30
0
10
-10.537279317722222
20
7.6463655478989567
30
1.1102230246251565e-15
10
-9.9366230652342349
20
7.4605367770032629
30
0
10
-9.1372220494021921
20
7.2775432124327164
30
0
10
-8.5399589314662236
20
7.1748927625250971
30
3.3306690738754696e-15
10
-7.9465990025936097
20
7.109196256191586
30
-1.1102230246251565e-15
10
-7.4575294236155258
20
7.089887346913061
30
1.1102230246251565e-15
10
-7.0704729971344555
20
7.0965066271435662
30
0
10
-6.7838192422724664
20
7.1176721855952341
30
1.1102230246251565e-15
10
-6.5006690647724961
20
7.1532918836473414
30
0
10
-6.3150698974302335
20
7.1876824332001563
30
1.1102230246251565e-15
10
-6.2258526915194645
20
7.2180970071561648
30
0
0
LINE
5
167
100
AcDbEntity
8
0
100
AcDbLine
10
-6.2258526915194654
20
7.2180970071561648
30
0
11
-5.4980021938083548
21
7.4662247372902719
31
0
0
ARC
5
168
100
AcDbEntity
8
0
100
AcDbCircle
10
-4.9857631063164289
20
5.9636378455447581
30
0
40
1.5875000000000019
210
0
220
-0
230
1
100
AcDbArc
50
23.310230055822053
51
108.82448989026939
0
ARC
5
169
100
AcDbEntity
8
0
100
AcDbCircle
10
13.782806436222705
20
14.050633840156459
30
0
40
18.849199999999836
210
0
220
0
230
1
100
AcDbArc
50
203.31023005582125
51
204.68976994417733
0
ARC
5
170
100
AcDbEntity
8
0
100
AcDbCircle
10
-4.7856271093172023
20
5.5141250365025041
30
0
40
1.5874999999999977
210
0
220
0
230
1
100
AcDbArc
50
-60.824489890269412
51
24.689769944176874
0
LINE
5
171
100
AcDbEntity
8
0
100
AcDbLine
10
-4.011742287100545
20
4.128030331245073
30
0
11
-4.6831641706791878
21
3.7531618586689932
31
0
0
SPLINE
5
172
100
AcDbEntity
8
0
100
AcDbSpline
70
0
71
3
72
16
73
12
74
0
42
0.000000001
43
0.0000000001
44
0.0000000001
40
0
40
0
40
0
40
0
40
0.0625
40
0.125
40
0.1875
40
0.25
40
0.375
40
0.5
40
0.625
40
0.75
40
1
40
1
40
1
40
1
10
-4.6831641706791878
20
3.7531618586689932
30
0
10
-4.7654645670224305
20
3.7072118760661494
30
1.1102230246251565e-15
10
-4.9152113986988581
20
3.5922959756973682
30
2.2204460492503131e-15
10
-5.1311484025175389
20
3.4057115280448089
30
1.1102230246251565e-15
10
-5.3386863770457857
20
3.2068489243625509
30
2.2204460492503131e-15
10
-5.602592728713482
20
2.9236331842731951
30
0
10
-5.9154980834385951
20
2.5472680867870579
30
0
10
-6.2637089875145868
20
2.0623531532445791
30
1.1102230246251565e-15
10
-6.5870737648391504
20
1.5498163684554185
30
2.2204460492503131e-15
10
-6.985987101499461
20
0.83329999464517146
30
0
10
-7.2498061333732888
20
0.26257988262826121
30
1.1102230246251565e-15
10
-7.4103339343036119
20
-0.13036757847257086
30
0
0
ARC
5
173
100
AcDbEntity
8
0
100
AcDbCircle
10
13.782806436222705
20
14.050633840156459
30
0
40
25.499999999999822
210
0
220
0
230
1
100
AcDbArc
50
213.78773391907637
51
218.21226608092249
0
SPLINE
5
174
100
AcDbEntity
8
0
100
AcDbSpline
70
0
71
3
72
16
73
12
74
0
42
0.000000001
43
0.0000000001
44
0.0000000001
40
-1
40
-1
40
-1
40
-1
40
-0.75
40
-0.625
40
-0.5
40
-0.375
40
-0.25
40
-0.1875
40
-0.125
40
-0.0625
40
0
40
0
40
0
40
0
10
-6.253167909221947
20
-1.7230699743784683
30
0
10
-5.8298468472216713
20
-1.6918264066358906
30
1.1102230246251565e-15
10
-5.2055366856968615
20
-1.6172805284062439
30
0
10
-4.4008173306903524
20
-1.4593077824469727
30
0
10
-3.8134386228768733
20
-1.3101548390626889
30
3.3306690738754696e-15
10
-3.2446561786601609
20
-1.1288303584015302
30
-1.1102230246251565e-15
10
-2.790015245372206
20
-0.94754740598086151
30
1.1102230246251565e-15
10
-2.4391139089295386
20
-0.78407036100557903
30
0
10
-2.1858514814526644
20
-0.64814207524596423
30
1.1102230246251565e-15
10
-1.9416687593799011
20
-0.50043430920517096
30
0
10
-1.7861033797908423
20
-0.39352699659295698
30
1.1102230246251565e-15
10
-1.7169701282989058
20
-0.3294539938725376
30
0
0
LINE
5
175
100
AcDbEntity
8
0
100
AcDbLine
10
-1.7169701282989058
20
-0.32945399387253765
30
0
11
-1.15296825228078
21
0.19326543500671534
31
0
0
ARC
5
176
100
AcDbEntity
8
0
100
AcDbCircle
10
-0.073857412397273142
20
-0.97106958776204
30
0
40
1.5875000000000017
210
0
220
-0
230
1
100
AcDbArc
50
47.310230055821904
51
132.82448989026921
0
ARC
5
177
100
AcDbEntity
8
0
100
AcDbCircle
10
13.782806436222705
20
14.050633840156459
30
0
40
18.849199999999758
210
0
220
0
230
1
100
AcDbArc
50
227.31023005582151
51
228.6897699441775
0
ARC
5
178
100
AcDbEntity
8
0
100
AcDbCircle
10
0.29180924954156695
20
-1.3003173290366608
30
0
40
1.5874999999999981
210
0
220
0
230
1
100
AcDbArc
50
-36.824489890269277
51
48.689769944177989
0
LINE
5
179
100
AcDbEntity
8
0
100
AcDbLine
10
1.5625637210176968
20
-2.2518105361713285
30
0
11
1.1016620532431292
21
-2.8673618095210212
31
0
0
SPLINE
5
180
100
AcDbEntity
8
0
100
AcDbSpline
70
0
71
3
72
16
73
12
74
0
42
0.000000001
43
0.0000000001
44
0.0000000001
40
0
40
0
40
0
40
0
40
0.0625
40
0.125
40
0.1875
40
0.25
40
0.375
40
0.5
40
0.625
40
0.75
40
1
40
1
40
1
40
1
10
1.1016620532431292
20
-2.8673618095210212
30
0
10
1.0451664416748234
20
-2.9428137943390804
30
1.1102230246251565e-15
10
0.95510641135251417
20
-3.1087022167591782
30
2.2204460492503131e-15
10
0.83372887426534814
20
-3.3669850834279846
30
1.1102230246251565e-15
10
0.72501820820175555
20
-3.6330684107872764
30
2.2204460492503131e-15
10
0.59912197878289564
20
-3.9991392472424705
30
0
10
0.46635018962409136
20
-4.4702359460474934
30
0
10
0.34547637215025512
20
-5.0548579151345336
30
1.1102230246251565e-15
10
0.25853543996179168
20
-5.6546078707713558
30
2.2204460492503131e-15
10
0.1855434378551214
20
-6.4714308208236702
30
0
10
0.1766655421449016
20
-7.1001144541457162
30
1.1102230246251565e-15
10
0.1898422300128022
20
-7.5243823611974436
30
0
0
ARC
5
181
100
AcDbEntity
8
0
100
AcDbCircle
10
13.782806436222705
20
14.050633840156459
30
0
40
25.499999999999744
210
0
220
0
230
1
100
AcDbArc
50
237.78773391907652
51
242.21226608092257
0
SPLINE
5
182
100
AcDbEntity
8
0
100
AcDbSpline
70
0
71
3
72
16
73
12
74
0
42
0.000000001
43
0.0000000001
44
0.0000000001
40
-1
40
-1
40
-1
40
-1
40
-0.75
40
-0.625
40
-0.5
40
-0.375
40
-0.25
40
-0.1875
40
-0.125
40
-0.0625
40
0
40
0
40
0
40
0
10
1.8947764218940062
20
-8.5087265758306643
30
0
10
2.2687915513487362
20
-8.3080039687377827
30
1.1102230246251565e-15
10
2.8088067233017222
20
-7.9859731009581534
30
0
10
3.4797011303565926
20
-7.5143489673823405
30
0
10
3.9556323132985991
20
-7.1391825296293963
30
3.3306690738754696e-15
10
4.4014896210281771
20
-6.7421897119607817
30
-1.1102230246251565e-15
10
4.7430903609772983
20
-6.3916603672184671
30
1.1102230246251565e-15
10
4.9971625784720022
20
-6.0995922237169529
30
0
10
5.1732423040361342
20
-5.8724044461269456
30
1.1102230246251565e-15
10
5.3362361597048649
20
-5.6381486267288441
30
0
10
5.4348690841427238
20
-5.4772097966303264
30
1.1102230246251565e-15
10
5.471964613976974
20
-5.3905571694008181
30
0
0
LINE
5
183
100
AcDbEntity
8
0
100
AcDbLine
10
5.4719646139769749
20
-5.3905571694008181
30
0
11
5.7745968201423885
21
-4.6836289797865787
31
0
0
ARC
5
184
100
AcDbEntity
8
0
100
AcDbCircle
10
7.2339913447874062
20
-5.3083880304902422
30
0
40
1.5875000000000006
210
0
220
-0
230
1
100
AcDbArc
50
71.310230055821563
51
156.82448989026923
0
ARC
5
185
100
AcDbEntity
8
0
100
AcDbCircle
10
13.782806436222705
20
14.050633840156459
30
0
40
18.849199999999705
210
0
220
0
230
1
100
AcDbArc
50
251.31023005582185
51
252.68976994417773
0
ARC
5
186
100
AcDbEntity
8
0
100
AcDbCircle
10
7.7019615838392896
20
-5.4604407784090192
30
0
40
1.5875000000000015
210
0
220
0
230
1
100
AcDbArc
50
-12.824489890269144
51
72.689769944179091
0
LINE
5
187
100
AcDbEntity
8
0
100
AcDbLine
10
9.2498607120147174
20
-5.8128106678629186
30
0
11
9.0791733455626513
21
-6.5626103347163189
31
0
0
SPLINE
5
188
100
AcDbEntity
8
0
100
AcDbSpline
70
0
71
3
72
16
73
12
74
0
42
0.000000001
43
0.0000000001
44
0.0000000001
40
0
40
0
40
0
40
0
40
0.0625
40
0.125
40
0.1875
40
0.25
40
0.375
40
0.5
40
0.625
40
0.75
40
1
40
1
40
1
40
1
10
9.0791733455626513
20
-6.5626103347163189
30
0
10
9.0582511232559924
20
-6.6545179881147778
30
1.1102230246251565e-15
10
9.0434500917001905
20
-6.8426953173007607
30
2.2204460492503131e-15
10
9.0376193001872149
20
-7.1280171489125976
30
1.1102230246251565e-15
10
9.0465330043560783
20
-7.4153129753573559
30
2.2204460492503131e-15
10
9.080415498983875
20
-7.8009419349061515
30
0
10
9.1507347239308103
20
-8.2853133360275102
30
0
10
9.2780981742045459
20
-8.8685558910801312
30
1.1102230246251565e-15
10
9.4426139641610813
20
-9.4518168016777047
30
2.2204460492503131e-15
10
9.7081642768838954
20
-10.227710219304448
30
0
10
9.9557625861584746
20
-10.8056522623192
30
1.1102230246251565e-15
10
10.140365393785977
20
-11.187880839839217
30
0
0
ARC
5
189
100
AcDbEntity
8
0
100
AcDbCircle
10
13.782806436222705
20
14.050633840156459
30
0
40
25.499999999999702
210
0
220
0
230
1
100
AcDbArc
50
261.78773391907674
51
266.21226608092275
0
SPLINE
5
190
100
AcDbEntity
8
0
100
AcDbSpline
70
0
71
3
72
16
73
12
74
0
42
0.000000001
43
0.0000000001
44
0.0000000001
40
-1
40
-1
40
-1
40
-1
40
-0.75
40
-0.625
40
-0.5
40
-0.375
40
-0.25
40
-0.1875
40
-0.125
40
-0.0625
40
0
40
0
40
0
40
0
10
12.098269141849576
20
-11.393664816003255
30
0
10
12.358307725055459
20
-11.058169931833721
30
1.1102230246251565e-15
10
12.720654378321807
20
-10.544336137102217
30
0
10
13.141720099561027
20
-9.8406087131757793
30
0
10
13.423910932401746
20
-9.3042984664216952
30
3.3306690738754696e-15
10
13.669750324651385
20
-8.7602809764871008
30
-1.1102230246251565e-15
10
13.839244999979122
20
-8.3011149475882
30
1.1102230246251565e-15
10
13.95255670394741
20
-7.9309569409276683
30
0
10
14.021007943414673
20
-7.651792502188731
30
1.1102230246251565e-15
10
14.074629814281526
20
-7.3714935887545838
30
0
10
14.099275754880953
20
-7.184351026977148
30
1.1102230246251565e-15
10
14.097919408946826
20
-7.0901018017009401
30
0
0
LINE
5
191
100
AcDbEntity
8
0
100
AcDbLine
10
14.097919408946826
20
-7.0901018017009401
30
0
11
14.086854087486254
21
-6.321199157576995
31
0
0
ARC
5
192
100
AcDbEntity
8
0
100
AcDbCircle
10
15.674189725398621
20
-6.2983557205911147
30
0
40
1.5874999999999984
210
0
220
0
230
1
100
AcDbArc
50
95.310230055821691
51
180.82448989026884
0
ARC
5
193
100
AcDbEntity
8
0
100
AcDbCircle
10
13.782806436222705
20
14.050633840156459
30
0
40
18.849199999999698
210
0
220
0
230
1
100
AcDbArc
50
275.31023005582216
51
276.68976994417812
0
ARC
5
194
100
AcDbEntity
8
0
100
AcDbCircle
10
16.163547235855347
20
-6.2469221736830463
30
0
40
1.5875000000000052
210
0
220
-0
230
1
100
AcDbArc
50
11.175510109730833
51
96.689769944179332
0
LINE
5
195
100
AcDbEntity
8
0
100
AcDbLine
10
17.720945199246426
20
-5.9392407903896496
30
0
11
17.869985530422465
21
-6.6936416766316675
31
0
0
SPLINE
5
196
100
AcDbEntity
8
0
100
AcDbSpline
70
0
71
3
72
16
73
12
74
0
42
0.000000001
43
0.0000000001
44
0.0000000001
40
0
40
0
40
0
40
0
40
0.0625
40
0.125
40
0.1875
40
0.25
40
0.375
40
0.5
40
0.625
40
0.75
40
1
40
1
40
1
40
1
10
17.869985530422465
20
-6.6936416766316675
30
0
10
17.888254339686711
20
-6.7861133303831469
30
1.1102230246251565e-15
10
17.951271539716519
20
-6.9640419965813374
30
2.2204460492503131e-15
10
18.061995690601456
20
-7.2270680563830858
30
1.1102230246251565e-15
10
18.186992504573499
20
-7.4859003235203403
30
2.2204460492503131e-15
10
18.374795132114023
20
-7.8244086557276464
30
0
10
18.63604653834329
20
-8.2383025435354487
30
0
10
18.989624958751573
20
-8.7193177481926973
30
1.1102230246251565e-15
10
19.377151196190649
20
-9.1852385035497299
30
2.2204460492503131e-15
10
19.935327762224333
20
-9.7860433680729333
30
0
10
20.396590279449825
20
-10.213312391103834
30
1.1102230246251565e-15
10
20.720699704334553
20
-10.487410845601893
30
0
0
ARC
5
197
100
AcDbEntity
8
0
100
AcDbCircle
10
13.782806436222705
20
14.050633840156459
30
0
40
25.499999999999709
210
0
220
0
230
1
100
AcDbArc
50
285.78773391907714
51
290.21226608092314
0
SPLINE
5
198
100
AcDbEntity
8
0
100
AcDbSpline
70
0
71
3
72
16
73
12
74
0
42
0.000000001
43
0.0000000001
44
0.0000000001
40
-1
40
-1
40
-1
40
-1
40
-0.75
40
-0.625
40
-0.5
40
-0.375
40
-0.25
40
-0.1875
40
-0.125
40
-0.0625
40
0
40
0
40
0
40
0
10
22.593033663543245
20
-9.8790526643292509
30
0
10
22.694132667085626
20
-9.4667956164310922
30
1.1102230246251565e-15
10
22.816157773502535
20
-8.8500054258907213
30
0
10
22.914588720460955
20
-8.0358555763733612
30
0
10
22.954245844579127
20
-7.4311344345074479
30
3.3306690738754696e-15
10
22.957559457047733
20
-6.8341578385603263
30
-1.1102230246251565e-15
10
22.925640898579243
20
-6.3457491032938318
30
1.1102230246251565e-15
10
22.878599466000473
20
-5.9615049156058415
30
0
10
22.827586378206984
20
-5.6786338833052294
30
1.1102230246251565e-15
10
22.762564555659722
20
-5.4007581044034509
30
0
10
22.70896200538969
20
-5.219770460015285
30
1.1102230246251565e-15
10
22.669388308221222
20
-5.1342211839699248
30
0
0
LINE
5
199
100
AcDbEntity
8
0
100
AcDbLine
10
22.669388308221219
20
-5.1342211839699257
30
0
11
22.346538753740486
21
-4.4362943377665491
31
0
0
ARC
5
200
100
AcDbEntity
8
0
100
AcDbCircle
10
23.7873507526336
20
-3.7697982508720873
30
0
40
1.5874999999999995
210
0
220
0
230
1
100
AcDbArc
50
119.31023005582202
51
204.82448989026929
0
ARC
5
201
100
AcDbEntity
8
0
100
AcDbCircle
10
13.782806436222705
20
14.050633840156459
30
0
40
18.849199999999744
210
0
220
0
230
1
100
AcDbArc
50
299.31023005582256
51
300.68976994417847
0
ARC
5
202
100
AcDbEntity
8
0
100
AcDbCircle
10
24.213481175263752
20
-3.5237717366566801
30
0
40
1.5875000000000028
210
0
220
-0
230
1
100
AcDbArc
50
35.175510109730624
51
120.6897699441795
0
LINE
5
203
100
AcDbEntity
8
0
100
AcDbLine
10
25.511089717483838
20
-2.6092399869850356
30
0
11
25.954087319038749
21
-3.2377993258675408
31
0
0
SPLINE
5
204
100
AcDbEntity
8
0
100
AcDbSpline
70
0
71
3
72
16
73
12
74
0
42
0.000000001
43
0.0000000001
44
0.0000000001
40
0
40
0
40
0
40
0
40
0.0625
40
0.125
40
0.1875
40
0.25
40
0.375
40
0.5
40
0.625
40
0.75
40
1
40
1
40
1
40
1
10
25.954087319038749
20
-3.2377993258675408
30
0
10
26.008388316785144
20
-3.3148457909597662
30
1.1102230246251565e-15
10
26.138327502022186
20
-3.4517603113533797
30
2.2204460492503131e-15
10
26.346461383719646
20
-3.6470110040885393
30
1.1102230246251565e-15
10
26.565928222798728
20
-3.8326252615129475
30
2.2204460492503131e-15
10
26.875178202816883
20
-4.0654818004884721
30
0
10
27.282189048796891
20
-4.3373321616727525
30
0
10
27.800845518292071
20
-4.6329481171635649
30
1.1102230246251565e-15
10
28.344375396195186
20
-4.9009667859215771
30
2.2204460492503131e-15
10
29.098664416397458
20
-5.2227984781241581
30
0
10
29.693834661907541
20
-5.4255157854726654
30
1.1102230246251565e-15
10
30.101409240044923
20
-5.5440900040592211
30
0
0
ARC
5
205
100
AcDbEntity
8
0
100
AcDbCircle
10
13.782806436222705
20
14.050633840156459
30
0
40
25.49999999999978
210
0
220
0
230
1
100
AcDbArc
50
309.78773391907737
51
314.21226608092348
0
SPLINE
5
206
100
AcDbEntity
8
0
100
AcDbSpline
70
0
71
3
72
16
73
12
74
0
42
0.000000001
43
0.0000000001
44
0.0000000001
40
-1
40
-1
40
-1
40
-1
40
-0.75
40
-0.625
40
-0.5
40
-0.375
40
-0.25
40
-0.1875
40
-0.125
40
-0.0625
40
0
40
0
40
0
40
0
10
31.56442985923151
20
-4.2267803216524875
30
0
10
31.489108346942594
20
-3.8090440988457903
30
1.1102230246251565e-15
10
31.349712657046901
20
-3.195946139802734
30
0
10
31.108489224778427
20
-2.4121477699954936
30
0
10
30.898755563140345
20
-1.8435775121655591
30
3.3306690738754696e-15
10
30.658970442128851
20
-1.29686448700737
30
-1.1102230246251565e-15
10
30.43115765859438
20
-0.8636633527549229
30
1.1102230246251565e-15
10
30.231896980519444
20
-0.53177229483954969
30
0
10
30.07024019178402
20
-0.29410564026470909
30
1.1102230246251565e-15
10
29.897817539645754
20
-0.066700242489673281
30
0
10
29.775234866411843
20
0.076838076573491843
30
1.1102230246251565e-15
10
29.704286469765236
20
0.13889515636891173
30
0
0
LINE
5
207
100
AcDbEntity
8
0
100
AcDbLine
10
29.704286469765236
20
0.1388951563689117
30
0
11
29.125476303230183
21
0.64516831247682593
31
0
0
ARC
5
208
100
AcDbEntity
8
0
100
AcDbCircle
10
30.170635179129324
20
1.8400738209289502
30
0
40
1.5874999999999964
210
0
220
0
230
1
100
AcDbArc
50
143.31023005582196
51
228.82448989026966
0
ARC
5
209
100
AcDbEntity
8
0
100
AcDbCircle
10
13.782806436222705
20
14.050633840156459
30
0
40
18.849199999999847
210
0
220
0
230
1
100
AcDbArc
50
323.31023005582284
51
324.68976994417886
0
ARC
5
210
100
AcDbEntity
8
0
100
AcDbCircle
10
30.459856692586808
20
2.2381530830631342
30
0
40
1.5875000000000037
210
0
220
-0
230
1
100
AcDbArc
50
59.175510109730361
51
144.68976994417744
0
LINE
5
211
100
AcDbEntity
8
0
100
AcDbLine
10
31.273307508282528
20
3.6014043513346818
30
0
11
31.933664070400589
21
3.207370179786817
31
0
0
SPLINE
5
212
100
AcDbEntity
8
0
100
AcDbSpline
70
0
71
3
72
16
73
12
74
0
42
0.000000001
43
0.0000000001
44
0.0000000001
40
0
40
0
40
0
40
0
40
0.0625
40
0.125
40
0.1875
40
0.25
40
0.375
40
0.5
40
0.625
40
0.75
40
1
40
1
40
1
40
1
10
31.933664070400589
20
3.207370179786817
30
0
10
32.014608120809733
20
3.1590709371134573
30
1.1102230246251565e-15
10
32.18900162566608
20
3.0868443269298416
30
2.2204460492503131e-15
10
32.458556999193604
20
2.9931296198320361
30
1.1102230246251565e-15
10
32.73454605310932
20
2.9128277634817499
30
2.2204460492503131e-15
10
33.11177125461208
20
2.825886028762107
30
0
10
33.594165667495531
20
2.7430845913330772
30
0
10
34.188219770655621
20
2.6839825692997543
30
1.1102230246251565e-15
10
34.793772035319492
20
2.6602088498421512
30
2.2204460492503131e-15
10
35.613750085596678
20
2.6729979532911168
30
0
10
36.239917716990831
20
2.7298840256947132
30
1.1102230246251565e-15
10
36.660484101122066
20
2.7873366026260666
30
0
0
ARC
5
213
100
AcDbEntity
8
0
100
AcDbCircle
10
13.782806436222705
20
14.050633840156459
30
0
40
25.499999999999901
210
0
220
0
230
1
100
AcDbArc
50
333.78773391907754
51
338.21226608092371
0
SPLINE
5
214
100
AcDbEntity
8
0
100
AcDbSpline
70
0
71
3
72
16
73
12
74
0
42
0.000000001
43
0.0000000001
44
0.0000000001
40
-1
40
-1
40
-1
40
-1
40
-0.75
40
-0.625
40
-0.5
40
-0.375
40
-0.25
40
-0.1875
40
-0.125
40
-0.0625
40
0
40
0
40
0
40
0
10
37.461221824104101
20
4.5858229746960291
30
0
10
37.222503569733547
20
4.936807984472841
30
1.1102230246251565e-15
10
36.845789864677577
20
5.4402035050809321
30
0
10
36.306621776067779
20
6.058124536453481
30
0
10
35.883762184141148
20
6.4922329473699447
30
3.3306690738754696e-15
10
35.442339355451999
20
6.8941507529574562
30
-1.1102230246251565e-15
10
35.058023246738713
20
7.1972398745748123
30
1.1102230246251565e-15
10
34.74099730463324
20
7.4193908236684267
30
0
10
34.49664874233406
20
7.5707583768077091
30
1.1102230246251565e-15
10
34.24663870357012
20
7.7083729342675813
30
0
10
34.076271565203072
20
7.7896428486349221
30
1.1102230246251565e-15
10
33.986216091404479
20
7.8174774993129761
30
0
0
LINE
5
215
100
AcDbEntity
8
0
100
AcDbLine
10
33.986216091404479
20
7.8174774993129761
30
0
11
33.251526848934311
21
8.0445577372871231
31
0
0
ARC
5
216
100
AcDbEntity
8
0
100
AcDbCircle
10
33.720315137226223
20
9.5612626495097732
30
0
40
1.587499999999995
210
0
220
0
230
1
100
AcDbArc
50
167.31023005582085
51
252.82448989026949
0
ARC
5
217
100
AcDbEntity
8
0
100
AcDbCircle
10
13.782806436222705
20
14.050633840156459
30
0
40
18.849199999999993
210
0
220
0
230
1
100
AcDbArc
50
347.31023005582301
51
348.68976994417909
0
ARC
5
218
100
AcDbEntity
8
0
100
AcDbCircle
10
33.822618714339271
20
10.042563138703199
30
0
40
1.5875000000000004
210
0
220
-0
230
1
100
AcDbArc
50
83.175510109730126
51
168.68976994417719
0
LINE
5
219
100
AcDbEntity
8
0
100
AcDbLine
10
34.011258767508174
20
11.618815396541532
30
0
11
34.774792641448137
21
11.52743848027699
31
0
0
CIRCLE
5
220
100
AcDbEntity
8
0
100
AcDbCircle
10
13.782806436222705
20
14.050633840156459
30
0
40
1.9999999999999376
210
0
220
0
230
1
0
SPLINE
5
221
100
AcDbEntity
8
0
100
AcDbSpline
70
0
71
3
72
16
73
12
74
0
42
0.000000001
43
0.0000000001
44
0.0000000001
40
0
40
0
40
0
40
0
40
0.0625
40
0.125
40
0.1875
40
0.25
40
0.375
40
0.5
40
0.625
40
0.75
40
1
40
1
40
1
40
1
10
34.774792641448137
20
11.52743848027699
30
0
10
34.868383782850742
20
11.516237837865539
30
0
10
35.057077386021348
20
11.521187774950858
30
0
10
35.341445678462414
20
11.545213177718995
30
0
10
35.626235932510859
20
11.584108642925246
30
0
10
36.00621069117512
20
11.65811472823542
30
0
10
36.480578294558569
20
11.778679335320509
30
0
10
37.047312680135526
20
11.966310523279347
30
0
10
37.610181843729656
20
12.190892445193636
30
0
10
38.354067269922574
20
12.536090992123324
30
0
10
38.902962215177929
20
12.842744325562654
30
0
10
39.263800656761305
20
13.066289625523641
30
0
0
ARC
5
222
100
AcDbEntity
8
0
100
AcDbCircle
10
13.782806436222705
20
14.050633840156459
30
0
40
25.50000000000005
210
-0
220
0
230
1
100
AcDbArc
50
-2.2122660809220318
51
2.2122660809236581
0
SPLINE
5
223
100
AcDbEntity
8
0
100
AcDbSpline
70
0
71
3
72
16
73
12
74
0
42
0.000000001
43
0.0000000001
44
0.0000000001
40
-1
40
-1
40
-1
40
-1
40
-0.75
40
-0.625
40
-0.5
40
-0.375
40
-0.25
40
-0.1875
40
-0.125
40
-0.0625
40
0
40
0
40
0
40
0
10
39.263800656761305
20
15.034978054789969
30
0
10
38.902962215177872
20
15.258523354750345
30
0
10
38.354067716901248
20
15.565174778201818
30
0
10
37.610182032659388
20
15.910374311180087
30
0
10
37.047312775446919
20
16.134959587184539
30
0
10
36.480578256361255
20
16.322586933306894
30
0
10
36.006210569067918
20
16.443157179683311
30
0
10
35.626236028412094
20
16.517156102678786
30
0
10
35.34144577880776
20
16.556051729313705
30
0
10
35.057077360390231
20
16.580080639284603
30
0
10
34.868383782850742
20
16.585029842448019
30
0
10
34.774792641448144
20
16.573829200036588
30
0
0
LINE
5
224
100
AcDbEntity
8
0
100
AcDbLine
10
34.774792641448144
20
16.573829200036585
30
0
11
34.011258767508174
21
16.482452283772041
31
0
0
ARC
5
225
100
AcDbEntity
8
0
100
AcDbCircle
10
33.822618714339299
20
18.058704541610378
30
0
40
1.5875000000000059
210
0
220
0
230
1
100
AcDbArc
50
191.3102300558229
51
276.82448989026881
0
ARC
5
226
100
AcDbEntity
8
0
100
AcDbCircle
10
13.782806436222705
20
14.050633840156459
30
0
40
18.849200000000142
210
0
220
-0
230
1
100
AcDbArc
50
11.310230055822863
51
12.689769944179032
0
ARC
5
227
100
AcDbEntity
8
0
100
AcDbCircle
10
33.720315137226223
20
18.540005030803787
30
0
40
1.5874999999999881
210
0
220
0
230
1
100
AcDbArc
50
107.17551010973003
51
192.68976994417679
0
LINE
5
228
100
AcDbEntity
8
0
100
AcDbLine
10
33.251526848934326
20
20.056709943026437
30
0
11
33.986216091404501
21
20.28379018100058
31
0
0
SPLINE
5
229
100
AcDbEntity
8
0
100
AcDbSpline
70
0
71
3
72
16
73
12
74
0
42
0.000000001
43
0.0000000001
44
0.0000000001
40
0
40
0
40
0
40
0
40
0.0625
40
0.125
40
0.1875
40
0.25
40
0.375
40
0.5
40
0.625
40
0.75
40
1
40
1
40
1
40
1
10
33.986216091404501
20
20.28379018100058
30
0
10
34.076271565203136
20
20.311624831678614
30
0
10
34.24663842847238
20
20.392895426942076
30
0
10
34.496649778659034
20
20.530506729173595
30
0
10
34.740998410676994
20
20.681874136648027
30
0
10
35.058021638767308
20
20.904031717513689
30
0
10
35.44233996453162
20
21.207115653252888
30
0
10
35.883761108638524
20
21.609036914229772
30
0
10
36.306621979272073
20
22.043142222954756
30
0
10
36.845790233204745
20
22.661062248568825
30
0
10
37.222503569732915
20
23.164459695842016
30
0
10
37.46122182410415
20
23.51544470561749
30
0
0
ARC
5
230
100
AcDbEntity
8
0
100
AcDbCircle
10
13.782806436222705
20
14.050633840156459
30
0
40
25.500000000000192
210
0
220
-0
230
1
100
AcDbArc
50
21.787733919077464
51
26.212266080923516
0
SPLINE
5
231
100
AcDbEntity
8
0
100
AcDbSpline
70
0
71
3
72
16
73
12
74
0
42
0.000000001
43
0.0000000001
44
0.0000000001
40
-1
40
-1
40
-1
40
-1
40
-0.75
40
-0.625
40
-0.5
40
-0.375
40
-0.25
40
-0.1875
40
-0.125
40
-0.0625
40
0
40
0
40
0
40
0
10
36.66048410112213
20
25.313931077687432
30
0
10
36.239917716989893
20
25.37138365462059
30
0
10
35.613751270794651
20
25.428268163963406
30
0
10
34.79377258371531
20
25.441058063255142
30
0
10
34.188218869295966
20
25.417287369833275
30
0
10
33.594166206784941
20
25.358181783804739
30
0
10
33.111769423539748
20
25.275385463995434
30
0
10
32.734547334373389
20
25.188437274847789
30
0
10
32.458558218858606
20
25.108135567777488
30
0
10
32.189001303738067
20
25.014424013429547
30
0
10
32.014608120809719
20
24.942196743200139
30
0
10
31.933664070400631
20
24.89389750052673
30
0
0
LINE
5
232
100
AcDbEntity
8
0
100
AcDbLine
10
31.933664070400631
20
24.893897500526727
30
0
11
31.273307508282553
21
24.499863328978865
31
0
0
ARC
5
233
100
AcDbEntity
8
0
100
AcDbCircle
10
30.45985669258684
20
25.863114597250402
30
0
40
1.5874999999999881
210
0
220
0
230
1
100
AcDbArc
50
215.3102300558221
51
300.82448989026966
0
ARC
5
234
100
AcDbEntity
8
0
100
AcDbCircle
10
13.782806436222705
20
14.050633840156459
30
0
40
18.849200000000248
210
0
220
-0
230
1
100
AcDbArc
50
35.310230055822622
51
36.689769944178664
0
ARC
5
235
100
AcDbEntity
8
0
100
AcDbCircle
10
30.17063517912937
20
26.261193859384598
30
0
40
1.5875000000000017
210
0
220
0
230
1
100
AcDbArc
50
131.17551010973057
51
216.68976994417747
0
LINE
5
236
100
AcDbEntity
8
0
100
AcDbLine
10
29.125476303230219
20
27.456099367836725
30
0
11
29.704286469765275
21
27.962372523944641
31
0
0
SPLINE
5
237
100
AcDbEntity
8
0
100
AcDbSpline
70
0
71
3
72
16
73
12
74
0
42
0.000000001
43
0.0000000001
44
0.0000000001
40
0
40
0
40
0
40
0
40
0.0625
40
0.125
40
0.1875
40
0.25
40
0.375
40
0.5
40
0.625
40
0.75
40
1
40
1
40
1
40
1
10
29.704286469765275
20
27.962372523944641
30
0
10
29.775234866411839
20
28.024429603740032
30
0
10
29.897817011386142
20
28.167968432940423
30
0
10
30.070242185589272
20
28.395371390320058
30
0
10
30.231899097263238
20
28.633037940180603
30
0
10
30.431154598577223
20
28.964933952631817
30
0
10
30.658971516775221
20
29.39813125110468
30
0
10
30.898753693410885
20
29.944846747736808
30
0
10
31.108489784980943
20
30.513414691670633
30
0
10
31.349713777358513
20
31.297212209914402
30
0
10
31.489108346940409
20
31.910311779161038
30
0
10
31.564429859231652
20
32.328048001965982
30
0
0
ARC
5
238
100
AcDbEntity
8
0
100
AcDbCircle
10
13.782806436222705
20
14.050633840156459
30
0
40
25.500000000000306
210
0
220
-0
230
1
100
AcDbArc
50
45.787733919077191
51
50.212266080923207
0
SPLINE
5
239
100
AcDbEntity
8
0
100
AcDbSpline
70
0
71
3
72
16
73
12
74
0
42
0.000000001
43
0.0000000001
44
0.0000000001
40
-1
40
-1
40
-1
40
-1
40
-0.75
40
-0.625
40
-0.5
40
-0.375
40
-0.25
40
-0.1875
40
-0.125
40
-0.0625
40
0
40
0
40
0
40
0
10
30.101409240045061
20
33.645357684372719
30
0
10
29.693834661905612
20
33.526783465787787
30
0
10
29.098666134883121
20
33.324065212575434
30
0
10
28.344376209234788
20
33.00223398840086
30
0
10
27.800843776114355
20
32.734217494395388
30
0
10
27.282190072325211
20
32.438598868997744
30
0
10
26.875174979388397
20
32.166752218878649
30
0
10
26.565930467883444
20
31.93389104939105
30
0
10
26.346463511813127
20
31.748276903286062
30
0
10
26.138326939461514
20
31.553028463708959
30
0
10
26.008388316785162
20
31.416113471273242
30
0
10
25.954087319038802
20
31.339067006181089
30
0
0
LINE
5
240
100
AcDbEntity
8
0
100
AcDbLine
10
25.954087319038806
20
31.339067006181089
30
0
11
25.511089717483877
21
30.710507667298579
31
0
0
ARC
5
241
100
AcDbEntity
8
0
100
AcDbCircle
10
24.213481175263802
20
31.625039416970214
30
0
40
1.5874999999999881
210
0
220
0
230
1
100
AcDbArc
50
239.31023005582182
51
324.82448989026943
0
ARC
5
242
100
AcDbEntity
8
0
100
AcDbCircle
10
13.782806436222705
20
14.050633840156459
30
0
40
18.849200000000316
210
0
220
-0
230
1
100
AcDbArc
50
59.310230055822252
51
60.689769944178181
0
ARC
5
243
100
AcDbEntity
8
0
100
AcDbCircle
10
23.787350752633646
20
31.871065931185626
30
0
40
1.5874999999999952
210
0
220
0
230
1
100
AcDbArc
50
155.17551010973054
51
240.68976994417866
0
LINE
5
244
100
AcDbEntity
8
0
100
AcDbLine
10
22.346538753740539
20
32.537562018080088
30
0
11
22.669388308221272
21
33.235488864283475
31
0
0
SPLINE
5
245
100
AcDbEntity
8
0
100
AcDbSpline
70
0
71
3
72
16
73
12
74
0
42
0.000000001
43
0.0000000001
44
0.0000000001
40
0
40
0
40
0
40
0
40
0.0625
40
0.125
40
0.1875
40
0.25
40
0.375
40
0.5
40
0.625
40
0.75
40
1
40
1
40
1
40
1
10
22.669388308221272
20
33.235488864283475
30
0
10
22.70896200538974
20
33.321038140328731
30
0
10
22.762563865579043
20
33.502026035888008
30
0
10
22.827588984745489
20
33.77990061119376
30
0
10
22.878602227440052
20
34.062771597836786
30
0
10
22.925636915621116
20
34.447018206140037
30
0
10
22.957560811444679
20
34.93542511896672
30
0
10
22.954243503916118
20
35.532402775132034
30
0
10
22.914589540797582
20
36.13712279149108
30
0
10
22.816159451886694
20
36.951272090883094
30
0
10
22.6941326670823
20
37.568063296745976
30
0
10
22.593033663543437
20
37.980320344642749
30
0
0
ARC
5
246
100
AcDbEntity
8
0
100
AcDbCircle
10
13.782806436222705
20
14.050633840156459
30
0
40
25.500000000000327
210
0
220
-0
230
1
100
AcDbArc
50
69.787733919076899
51
74.21226608092276
0
SPLINE
5
247
100
AcDbEntity
8
0
100
AcDbSpline
70
0
71
3
72
16
73
12
74
0
42
0.000000001
43
0.0000000001
44
0.0000000001
40
-1
40
-1
40
-1
40
-1
40
-0.75
40
-0.625
40
-0.5
40
-0.375
40
-0.25
40
-0.1875
40
-0.125
40
-0.0625
40
0
40
0
40
0
40
0
10
20.720699704334763
20
38.588678525915384
30
0
10
20.396590279445881
20
38.314580071419037
30
0
10
19.935329716856682
20
37.887310883268789
30
0
10
19.377152133292189
20
37.286506078032858
30
0
10
18.989622676994419
20
36.820586270110581
30
0
10
18.636047869132916
20
36.339569751286135
30
0
10
18.374791073689483
20
35.925677526312199
30
0
10
18.186995325283306
20
35.587167188166262
30
0
10
18.061998359156746
20
35.328334975139761
30
0
10
17.951270833795022
20
35.065309879312622
30
0
10
17.888254339686721
20
34.88738101069665
30
0
10
17.869985530422522
20
34.794909356945205
30
0
0
LINE
5
248
100
AcDbEntity
8
0
100
AcDbLine
10
17.869985530422522
20
34.794909356945205
30
0
11
17.720945199246479
21
34.040508470703188
31
0
0
ARC
5
249
100
AcDbEntity
8
0
100
AcDbCircle
10
16.163547235855404
20
34.34818985399658
30
0
40
1.5874999999999995
210
0
220
0
230
1
100
AcDbArc
50
263.31023005582193
51
348.82448989026932
0
ARC
5
250
100
AcDbEntity
8
0
100
AcDbCircle
10
13.782806436222705
20
14.050633840156459
30
0
40
18.849200000000323
210
0
220
-0
230
1
100
AcDbArc
50
83.310230055821847
51
84.689769944177669
0
ARC
5
251
100
AcDbEntity
8
0
100
AcDbCircle
10
15.674189725398692
20
34.399623400904659
30
0
40
1.5875000000000064
210
0
220
0
230
1
100
AcDbArc
50
179.17551010973156
51
264.68976994417989
0
LINE
5
252
100
AcDbEntity
8
0
100
AcDbLine
10
14.086854087486316
20
34.422466837890525
30
0
11
14.097919408946895
21
35.191369482014466
31
0
0
SPLINE
5
253
100
AcDbEntity
8
0
100
AcDbSpline
70
0
71
3
72
16
73
12
74
0
42
0.000000001
43
0.0000000001
44
0.0000000001
40
0
40
0
40
0
40
0
40
0.0625
40
0.125
40
0.1875
40
0.25
40
0.375
40
0.5
40
0.625
40
0.75
40
1
40
1
40
1
40
1
10
14.097919408946895
20
35.191369482014466
30
0
10
14.099275754881006
20
35.285618707290709
30
0
10
14.07462908170108
20
35.472761217843079
30
0
10
14.021010711992233
20
35.753060372593438
30
0
10
13.952559632604791
20
36.032224832625992
30
0
10
13.839240782769657
20
36.402382307434955
30
0
10
13.669751724611407
20
36.861548842350132
30
0
10
13.423908525527155
20
37.405565797926016
30
0
10
13.141721038188054
20
37.941876302172659
30
0
10
12.720656324570999
20
38.645603572534128
30
0
10
12.358307725050679
20
39.15943761214686
30
0
10
12.098269141849832
20
39.4949324963168
30
0
0
ARC
5
254
100
AcDbEntity
8
0
100
AcDbCircle
10
13.782806436222705
20
14.050633840156459
30
0
40
25.500000000000313
210
0
220
0
230
1
100
AcDbArc
50
93.787733919076587
51
98.212266080922547
0
SPLINE
5
255
100
AcDbEntity
8
0
100
AcDbSpline
70
0
71
3
72
16
73
12
74
0
42
0.000000001
43
0.0000000001
44
0.0000000001
40
-1
40
-1
40
-1
40
-1
40
-0.75
40
-0.625
40
-0.5
40
-0.375
40
-0.25
40
-0.1875
40
-0.125
40
-0.0625
40
0
40
0
40
0
40
0
10
10.14036539378618
20
39.289148520152764
30
0
10
9.9557625861552026
20
38.90691994263171
30
0
10
9.7081661296882249
20
38.328978543796588
30
0
10
9.4426148632909861
20
37.553084766463847
30
0
10
9.2780957474042154
20
36.969823412163358
30
0
10
9.1507361318763696
20
36.386581125914255
30
0
10
9.080411307301743
20
35.902209051876355
30
0
10
9.0465359129646359
20
35.516581057807407
30
0
10
9.0376220477868845
20
35.229285218908558
30
0
10
9.0434493644780805
20
34.94396289540785
30
0
10
9.0582511232560581
20
34.755785668428331
30
0
10
9.079173345562717
20
34.663878015029837
30
0
0
LINE
5
256
100
AcDbEntity
8
0
100
AcDbLine
10
9.079173345562717
20
34.663878015029837
30
0
11
9.249860712014776
21
33.914078348176446
31
0
0
ARC
5
257
100
AcDbEntity
8
0
100
AcDbCircle
10
7.701961583839358
20
33.561708458722542
30
0
40
1.587499999999997
210
0
220
0
230
1
100
AcDbArc
50
-72.689769944178124
51
12.824489890269373
0
ARC
5
258
100
AcDbEntity
8
0
100
AcDbCircle
10
13.782806436222705
20
14.050633840156459
30
0
40
18.849200000000263
210
0
220
0
230
1
100
AcDbArc
50
107.31023005582146
51
108.6897699441773
0
ARC
5
259
100
AcDbEntity
8
0
100
AcDbCircle
10
7.2339913447874675
20
33.409655710803754
30
0
40
1.5874999999999999
210
0
220
0
230
1
100
AcDbArc
50
203.17551010973079
51
288.68976994417977
0
LINE
5
260
100
AcDbEntity
8
0
100
AcDbLine
10
5.7745968201424489
20
32.784896660100088
30
0
11
5.471964613977029
21
33.491824849714334
31
0
0
SPLINE
5
261
100
AcDbEntity
8
0
100
AcDbSpline
70
0
71
3
72
16
73
12
74
0
42
0.000000001
43
0.0000000001
44
0.0000000001
40
0
40
0
40
0
40
0
40
0.0625
40
0.125
40
0.1875
40
0.25
40
0.375
40
0.5
40
0.625
40
0.75
40
1
40
1
40
1
40
1
10
5.471964613977029
20
33.491824849714334
30
0
10
5.4348690841427754
20
33.578477476943796
30
0
10
5.3362355112944213
20
33.739415962278656
30
0
10
5.1732447559405434
20
33.973673426179282
30
0
10
4.9971651679557025
20
34.200861288332341
30
0
10
4.7430866387103041
20
34.492926039477354
30
0
10
4.4014908244855624
20
34.843458131197281
30
0
10
3.955630256382646
20
35.240448912325533
30
0
10
3.4797020249767536
20
35.615616946047808
30
0
10
2.8088086008907904
20
36.08724134917145
30
0
10
2.2687915513449894
20
36.409271649049771
30
0
10
1.8947764218942105
20
36.609994256144233
30
0
0
ARC
5
262
100
AcDbEntity
8
0
100
AcDbCircle
10
13.782806436222705
20
14.050633840156459
30
0
40
25.500000000000217
210
0
220
0
230
1
100
AcDbArc
50
117.78773391907632
51
122.21226608092221
0
SPLINE
5
263
100
AcDbEntity
8
0
100
AcDbSpline
70
0
71
3
72
16
73
12
74
0
42
0.000000001
43
0.0000000001
44
0.0000000001
40
-1
40
-1
40
-1
40
-1
40
-0.75
40
-0.625
40
-0.5
40
-0.375
40
-0.25
40
-0.1875
40
-0.125
40
-0.0625
40
0
40
0
40
0
40
0
10
0.18984223001302425
20
35.625650041511044
30
0
10
0.17666554214033184
20
35.201382134456537
30
0
10
0.18554486846616011
20
34.572699843227241
30
0
10
0.25853614565245869
20
33.755876176672665
30
0
10
0.34547421992291572
20
33.156124462915272
30
0
10
0.46635143127880946
20
32.571504299124129
30
0
10
0.59911837862310457
20
32.100404708005449
30
0
10
0.72502070178420253
20
31.734337641508482
30
0
10
0.83373122582442671
20
31.468254237283514
30
0
10
0.9551057885731411
20
31.209969507914622
30
0
10
1.0451664416748827
20
31.044081474652554
30
0
10
1.1016620532431787
20
30.96862948983453
30
0
0
LINE
5
264
100
AcDbEntity
8
0
100
AcDbLine
10
1.1016620532431785
20
30.96862948983453
30
0
11
1.5625637210177428
21
30.353078216484832
31
0
0
ARC
5
265
100
AcDbEntity
8
0
100
AcDbCircle
10
0.29180924954161858
20
29.401585009350161
30
0
40
1.5874999999999959
210
0
220
0
230
1
100
AcDbArc
50
-48.689769944177328
51
36.82448989026949
0
ARC
5
266
100
AcDbEntity
8
0
100
AcDbCircle
10
13.782806436222705
20
14.050633840156459
30
0
40
18.84920000000016
210
0
220
0
230
1
100
AcDbArc
50
131.31023005582114
51
132.68976994417724
0
ARC
5
267
100
AcDbEntity
8
0
100
AcDbCircle
10
-0.073857412397237004
20
29.072337268075547
30
0
40
1.5875000000000092
210
0
220
0
230
1
100
AcDbArc
50
227.17551010973116
51
312.68976994417784
0
LINE
5
268
100
AcDbEntity
8
0
100
AcDbLine
10
-1.1529682522807416
20
27.908002245306779
30
0
11
-1.7169701282988652
21
28.430721674186024
31
0
0
SPLINE
5
269
100
AcDbEntity
8
0
100
AcDbSpline
70
0
71
3
72
16
73
12
74
0
42
0.000000001
43
0.0000000001
44
0.0000000001
40
0
40
0
40
0
40
0
40
0.0625
40
0.125
40
0.1875
40
0.25
40
0.375
40
0.5
40
0.625
40
0.75
40
1
40
1
40
1
40
1
10
-1.7169701282988652
20
28.430721674186024
30
0
10
-1.7861033797908079
20
28.494794676906476
30
0
10
-1.9416692115042737
20
28.601701410828984
30
0
10
-2.1858497701779527
20
28.749411940209313
30
0
10
-2.4391121063647758
20
28.885340359179597
30
0
10
-2.7900178290829212
20
29.04881173786282
30
0
10
-3.2446553797941342
20
29.230099203244873
30
0
10
-3.8134399741747038
20
29.411420497320655
30
0
10
-4.4008166347649649
20
29.560576099193323
30
0
10
-5.2055352014201342
20
29.718549491205884
30
0
10
-5.8298468472234024
20
29.793094086947278
30
0
10
-6.2531679092218404
20
29.824337654692023
30
0
0
ARC
5
270
100
AcDbEntity
8
0
100
AcDbCircle
10
13.782806436222705
20
14.050633840156459
30
0
40
25.500000000000114
210
0
220
0
230
1
100
AcDbArc
50
141.78773391907623
51
146.21226608092235
0
SPLINE
5
271
100
AcDbEntity
8
0
100
AcDbSpline
70
0
71
3
72
16
73
12
74
0
42
0.000000001
43
0.0000000001
44
0.0000000001
40
-1
40
-1
40
-1
40
-1
40
-0.75
40
-0.625
40
-0.5
40
-0.375
40
-0.25
40
-0.1875
40
-0.125
40
-0.0625
40
0
40
0
40
0
40
0
10
-7.4103339343035168
20
28.23163525878612
30
0
10
-7.2498061333746904
20
27.838687797683171
30
0
10
-6.9859863404492826
20
27.267969493609311
30
0
10
-6.5870733746082895
20
26.551452170391002
30
0
10
-6.2637104930296772
20
26.038912617058749
30
0
10
-5.9154972227679403
20
25.554000713152657
30
0
10
-5.602595114850577
20
25.177631004063091
30
0
10
-5.3386847296525097
20
24.894421186550165
30
0
10
-5.131146853604978
20
24.695558454881542
30
0
10
-4.9152118093512716
20
24.508971095795257
30
0
10
-4.765464567022426
20
24.394055804247365
30
0
10
-4.6831641706791576
20
24.348105821644484
30
0
0
LINE
5
272
100
AcDbEntity
8
0
100
AcDbLine
10
-4.6831641706791576
20
24.348105821644481
30
0
11
-4.0117422871005184
21
23.97323734906842
31
0
0
ARC
5
273
100
AcDbEntity
8
0
100
AcDbCircle
10
-4.7856271093171836
20
22.587142643810985
30
0
40
1.5875000000000039
210
-0
220
0
230
1
100
AcDbArc
50
-24.689769944179226
51
60.824489890269213
0
ARC
5
274
100
AcDbEntity
8
0
100
AcDbCircle
10
13.782806436222705
20
14.050633840156459
30
0
40
18.849200000000053
210
0
220
0
230
1
100
AcDbArc
50
155.31023005582122
51
156.68976994417713
0
ARC
5
275
100
AcDbEntity
8
0
100
AcDbCircle
10
-4.9857631063164103
20
22.137629834768742
30
0
40
1.5875000000000075
210
0
220
0
230
1
100
AcDbArc
50
251.17551010973079
51
336.68976994417739
0
LINE
5
276
100
AcDbEntity
8
0
100
AcDbLine
10
-5.4980021938083334
20
20.635042943023223
30
0
11
-6.2258526915194414
21
20.883170673157331
31
0
0
SPLINE
5
277
100
AcDbEntity
8
0
100
AcDbSpline
70
0
71
3
72
16
73
12
74
0
42
0.000000001
43
0.0000000001
44
0.0000000001
40
0
40
0
40
0
40
0
40
0.0625
40
0.125
40
0.1875
40
0.25
40
0.375
40
0.5
40
0.625
40
0.75
40
1
40
1
40
1
40
1
10
-6.2258526915194414
20
20.883170673157331
30
0
10
-6.3150698974302859
20
20.913585247113375
30
0
10
-6.500669242434336
20
20.947975084111246
30
0
10
-6.7838185675224132
20
20.983598186533325
30
0
10
-7.0704722931684412
20
21.004763903810037
30
0
10
-7.4575304220229199
20
21.01137622356611
30
0
10
-7.9465987464501904
20
20.992072812901071
30
0
10
-8.5399593434941359
20
20.926372520926158
30
0
10
-9.1372216725032711
20
20.823725332349472
30
0
10
-9.9366222309144234
20
20.640732678628591
30
0
10
-10.53727931772219
20
20.454902132413611
30
0
10
-10.936710254897879
20
20.311264364106194
30
0
0
ARC
5
278
100
AcDbEntity
8
0
100
AcDbCircle
10
13.782806436222705
20
14.050633840156459
30
0
40
25.500000000000007
210
0
220
0
230
1
100
AcDbArc
50
165.78773391907623
51
170.21226608092243
0
SPLINE
5
279
100
AcDbEntity
8
0
100
AcDbSpline
70
0
71
3
72
16
73
12
74
0
42
0.000000001
43
0.0000000001
44
0.0000000001
40
-1
40
-1
40
-1
40
-1
40
-0.75
40
-0.625
40
-0.5
40
-0.375
40
-0.25
40
-0.1875
40
-0.125
40
-0.0625
40
0
40
0
40
0
40
0
10
-11.346023594920034
20
18.38559650042675
30
0
10
-11.039548020322078
20
18.091913671115819
30
0
10
-10.566404599717782
20
17.677841733784462
30
0
10
-9.9105456210275626
20
17.185523108442556
30
0
10
-9.406670312025275
20
16.848818460582226
30
0
10
-8.8913302207045835
20
16.547460490032961
30
0
10
-8.4523965692993244
20
16.33089840488546
30
0
10
-8.096110625215637
20
16.1795153866851
30
0
10
-7.825630581351815
20
16.082258500489456
30
0
10
-7.5524721864528912
20
15.999631161164887
30
0
10
-7.3689310135065558
20
15.955558509212253
30
0
10
-7.2750563185917185
20
15.94705569825914
30
0
0
LINE
5
280
100
AcDbEntity
8
0
100
AcDbLine
10
-7.2750563185917185
20
15.947055698259138
30
0
11
-6.5092091625560666
21
15.87768819093826
31
0
0
ARC
5
281
100
AcDbEntity
8
0
100
AcDbCircle
10
-6.6524126192291
20
14.296660354372159
30
0
40
1.5874999999999968
210
0
220
0
230
1
100
AcDbArc
50
-0.68976994418087278
51
84.824489890269305
0
ARC
5
282
100
AcDbEntity
8
0
100
AcDbCircle
10
13.782806436222705
20
14.050633840156459
30
0
40
18.849199999999946
210
0
220
0
230
1
100
AcDbArc
50
179.31023005582179
51
180.68976994417716
0
ARC
5
283
100
AcDbEntity
8
0
100
AcDbCircle
10
-6.6524126192290964
20
13.80460732594134
30
0
40
1.5874999999999977
210
0
220
0
230
1
100
AcDbArc
50
-84.824489890269646
51
0.68976994417665327
0
LINE
5
284
100
AcDbEntity
8
0
100
AcDbLine
10
-6.509209162556072
20
12.223579489375238
30
0
11
-7.2750563185917185
21
12.154211982054349
31
0
0
SPLINE
5
285
100
AcDbEntity
8
0
100
AcDbSpline
70
0
71
3
72
16
73
12
74
0
42
0.000000001
43
0.0000000001
44
0.0000000001
40
0
40
0
40
0
40
0
40
0.0625
40
0.125
40
0.1875
40
0.25
40
0.375
40
0.5
40
0.625
40
0.75
40
1
40
1
40
1
40
1
10
-7.2750563185917185
20
12.154211982054349
30
0
10
-7.3689310135065877
20
12.145709171101249
30
0
10
-7.5524720589329366
20
12.10163579593571
30
0
10
-7.8256310597968151
20
12.019011913365038
30
0
10
-8.0961111415704909
20
11.921755184146491
30
0
10
-8.4523958097696994
20
11.770365114818675
30
0
10
-8.8913305515732919
20
11.553808563176318
30
0
10
-9.4066697135398911
20
11.252446862501799
30
0
10
-9.9105456283244227
20
10.915745514900854
30
0
10
-10.566404559615801
20
10.423427907711371
30
0
10
-11.039548020321575
20
10.009354009196924
30
0
10
-11.346023594920061
20
9.7156711798867672
30
0
0
ARC
5
286
100
AcDbEntity
8
0
100
AcDbCircle
10
13.782806436222705
20
14.050633840156459
30
0
40
25.499999999999904
210
0
220
0
230
1
100
AcDbArc
50
189.78773391907626
51
194.2122660809224
0
SPLINE
5
287
100
AcDbEntity
8
0
100
AcDbSpline
70
0
71
3
72
16
73
12
74
0
42
0.000000001
43
0.0000000001
44
0.0000000001
40
-1
40
-1
40
-1
40
-1
40
-0.75
40
-0.625
40
-0.5
40
-0.375
40
-0.25
40
-0.1875
40
-0.125
40
-0.0625
40
0
40
0
40
0
40
0
10
-10.936710254897902
20
7.7900033162073257
30
0
10
-10.537279317722222
20
7.6463655478989567
30
0
10
-9.9366230652342349
20
7.4605367770032629
30
0
10
-9.1372220494021921
20
7.2775432124327164
30
0
10
-8.5399589314662236
20
7.1748927625250971
30
0
10
-7.9465990025936097
20
7.109196256191586
30
0
10
-7.4575294236155258
20
7.089887346913061
30
0
10
-7.0704729971344555
20
7.0965066271435662
30
0
10
-6.7838192422724664
20
7.1176721855952341
30
0
10
-6.5006690647724961
20
7.1532918836473414
30
0
10
-6.3150698974302335
20
7.1876824332001563
30
0
10
-6.2258526915194645
20
7.2180970071561648
30
0
0
LINE
5
288
100
AcDbEntity
8
0
100
AcDbLine
10
-6.2258526915194654
20
7.2180970071561648
30
0
11
-5.4980021938083548
21
7.4662247372902719
31
0
0
ARC
5
289
100
AcDbEntity
8
0
100
AcDbCircle
10
-4.9857631063164281
20
5.9636378455447572
30
0
40
1.5875000000000019
210
0
220
-0
230
1
100
AcDbArc
50
23.310230055822103
51
108.8244898902694
0
ARC
5
290
100
AcDbEntity
8
0
100
AcDbCircle
10
13.782806436222705
20
14.050633840156459
30
0
40
18.849199999999836
210
0
220
0
230
1
100
AcDbArc
50
203.31023005582125
51
204.68976994417733
0
ARC
5
291
100
AcDbEntity
8
0
100
AcDbCircle
10
-4.7856271093172005
20
5.5141250365025032
30
0
40
1.587499999999997
210
0
220
0
230
1
100
AcDbArc
50
-60.824489890269469
51
24.689769944177208
0
LINE
5
292
100
AcDbEntity
8
0
100
AcDbLine
10
-4.011742287100545
20
4.1280303312450712
30
0
11
-4.6831641706791878
21
3.7531618586689932
31
0
0
SPLINE
5
293
100
AcDbEntity
8
0
100
AcDbSpline
70
0
71
3
72
16
73
12
74
0
42
0.000000001
43
0.0000000001
44
0.0000000001
40
0
40
0
40
0
40
0
40
0.0625
40
0.125
40
0.1875
40
0.25
40
0.375
40
0.5
40
0.625
40
0.75
40
1
40
1
40
1
40
1
10
-4.6831641706791878
20
3.7531618586689932
30
0
10
-4.7654645670224305
20
3.7072118760661494
30
0
10
-4.9152113986988581
20
3.5922959756973682
30
0
10
-5.1311484025175389
20
3.4057115280448089
30
0
10
-5.3386863770457857
20
3.2068489243625509
30
0
10
-5.602592728713482
20
2.9236331842731951
30
0
10
-5.9154980834385951
20
2.5472680867870579
30
0
10
-6.2637089875145868
20
2.0623531532445791
30
0
10
-6.5870737648391504
20
1.5498163684554185
30
0
10
-6.985987101499461
20
0.83329999464517146
30
0
10
-7.2498061333732888
20
0.26257988262826121
30
0
10
-7.4103339343036119
20
-0.13036757847257086
30
0
0
ARC
5
294
100
AcDbEntity
8
0
100
AcDbCircle
10
13.782806436222705
20
14.050633840156459
30
0
40
25.499999999999822
210
0
220
0
230
1
100
AcDbArc
50
213.78773391907637
51
218.21226608092249
0
SPLINE
5
295
100
AcDbEntity
8
0
100
AcDbSpline
70
0
71
3
72
16
73
12
74
0
42
0.000000001
43
0.0000000001
44
0.0000000001
40
-1
40
-1
40
-1
40
-1
40
-0.75
40
-0.625
40
-0.5
40
-0.375
40
-0.25
40
-0.1875
40
-0.125
40
-0.0625
40
0
40
0
40
0
40
0
10
-6.253167909221947
20
-1.7230699743784683
30
0
10
-5.8298468472216713
20
-1.6918264066358906
30
0
10
-5.2055366856968615
20
-1.6172805284062439
30
0
10
-4.4008173306903524
20
-1.4593077824469727
30
0
10
-3.8134386228768733
20
-1.3101548390626889
30
0
10
-3.2446561786601609
20
-1.1288303584015302
30
0
10
-2.790015245372206
20
-0.94754740598086151
30
0
10
-2.4391139089295386
20
-0.78407036100557903
30
0
10
-2.1858514814526644
20
-0.64814207524596423
30
0
10
-1.9416687593799011
20
-0.50043430920517096
30
0
10
-1.7861033797908423
20
-0.39352699659295698
30
0
10
-1.7169701282989058
20
-0.3294539938725376
30
0
0
LINE
5
296
100
AcDbEntity
8
0
100
AcDbLine
10
-1.7169701282989058
20
-0.32945399387253765
30
0
11
-1.15296825228078
21
0.19326543500671534
31
0
0
ARC
5
297
100
AcDbEntity
8
0
100
AcDbCircle
10
-0.073857412397273225
20
-0.97106958776203967
30
0
40
1.5875000000000017
210
0
220
-0
230
1
100
AcDbArc
50
47.31023005582189
51
132.82448989026921
0
ARC
5
298
100
AcDbEntity
8
0
100
AcDbCircle
10
13.782806436222705
20
14.050633840156459
30
0
40
18.849199999999758
210
0
220
0
230
1
100
AcDbArc
50
227.31023005582151
51
228.68976994417756
0
ARC
5
299
100
AcDbEntity
8
0
100
AcDbCircle
10
0.29180924954156751
20
-1.3003173290366603
30
0
40
1.5874999999999977
210
-0
220
0
230
1
100
AcDbArc
50
-36.824489890269277
51
48.689769944177641
0
LINE
5
300
100
AcDbEntity
8
0
100
AcDbLine
10
1.5625637210176966
20
-2.2518105361713285
30
0
11
1.1016620532431292
21
-2.8673618095210212
31
0
0
SPLINE
5
301
100
AcDbEntity
8
0
100
AcDbSpline
70
0
71
3
72
16
73
12
74
0
42
0.000000001
43
0.0000000001
44
0.0000000001
40
0
40
0
40
0
40
0
40
0.0625
40
0.125
40
0.1875
40
0.25
40
0.375
40
0.5
40
0.625
40
0.75
40
1
40
1
40
1
40
1
10
1.1016620532431292
20
-2.8673618095210212
30
0
10
1.0451664416748234
20
-2.9428137943390804
30
0
10
0.95510641135251417
20
-3.1087022167591782
30
0
10
0.83372887426534814
20
-3.3669850834279846
30
0
10
0.72501820820175555
20
-3.6330684107872764
30
0
10
0.59912197878289564
20
-3.9991392472424705
30
0
10
0.46635018962409136
20
-4.4702359460474934
30
0
10
0.34547637215025512
20
-5.0548579151345336
30
0
10
0.25853543996179168
20
-5.6546078707713558
30
0
10
0.1855434378551214
20
-6.4714308208236702
30
0
10
0.1766655421449016
20
-7.1001144541457162
30
0
10
0.1898422300128022
20
-7.5243823611974436
30
0
0
ARC
5
302
100
AcDbEntity
8
0
100
AcDbCircle
10
13.782806436222705
20
14.050633840156459
30
0
40
25.499999999999744
210
0
220
0
230
1
100
AcDbArc
50
237.78773391907652
51
242.21226608092257
0
SPLINE
5
303
100
AcDbEntity
8
0
100
AcDbSpline
70
0
71
3
72
16
73
12
74
0
42
0.000000001
43
0.0000000001
44
0.0000000001
40
-1
40
-1
40
-1
40
-1
40
-0.75
40
-0.625
40
-0.5
40
-0.375
40
-0.25
40
-0.1875
40
-0.125
40
-0.0625
40
0
40
0
40
0
40
0
10
1.8947764218940062
20
-8.5087265758306643
30
0
10
2.2687915513487362
20
-8.3080039687377827
30
0
10
2.8088067233017222
20
-7.9859731009581534
30
0
10
3.4797011303565926
20
-7.5143489673823405
30
0
10
3.9556323132985991
20
-7.1391825296293963
30
0
10
4.4014896210281771
20
-6.7421897119607817
30
0
10
4.7430903609772983
20
-6.3916603672184671
30
0
10
4.9971625784720022
20
-6.0995922237169529
30
0
10
5.1732423040361342
20
-5.8724044461269456
30
0
10
5.3362361597048649
20
-5.6381486267288441
30
0
10
5.4348690841427238
20
-5.4772097966303264
30
0
10
5.471964613976974
20
-5.3905571694008181
30
0
0
LINE
5
304
100
AcDbEntity
8
0
100
AcDbLine
10
5.4719646139769749
20
-5.3905571694008181
30
0
11
5.7745968201423885
21
-4.6836289797865787
31
0
0
ARC
5
305
100
AcDbEntity
8
0
100
AcDbCircle
10
7.2339913447874062
20
-5.3083880304902422
30
0
40
1.5875000000000012
210
0
220
-0
230
1
100
AcDbArc
50
71.310230055821563
51
156.82448989026923
0
ARC
5
306
100
AcDbEntity
8
0
100
AcDbCircle
10
13.782806436222705
20
14.050633840156459
30
0
40
18.849199999999705
210
0
220
0
230
1
100
AcDbArc
50
251.31023005582185
51
252.68976994417773
0
ARC
5
307
100
AcDbEntity
8
0
100
AcDbCircle
10
7.7019615838392896
20
-5.4604407784090183
30
0
40
1.5875000000000008
210
0
220
0
230
1
100
AcDbArc
50
-12.824489890269195
51
72.689769944179005
0
LINE
5
308
100
AcDbEntity
8
0
100
AcDbLine
10
9.2498607120147174
20
-5.8128106678629186
30
0
11
9.0791733455626513
21
-6.5626103347163189
31
0
0
SPLINE
5
309
100
AcDbEntity
8
0
100
AcDbSpline
70
0
71
3
72
16
73
12
74
0
42
0.000000001
43
0.0000000001
44
0.0000000001
40
0
40
0
40
0
40
0
40
0.0625
40
0.125
40
0.1875
40
0.25
40
0.375
40
0.5
40
0.625
40
0.75
40
1
40
1
40
1
40
1
10
9.0791733455626513
20
-6.5626103347163189
30
0
10
9.0582511232559924
20
-6.6545179881147778
30
0
10
9.0434500917001905
20
-6.8426953173007607
30
0
10
9.0376193001872149
20
-7.1280171489125976
30
0
10
9.0465330043560783
20
-7.4153129753573559
30
0
10
9.080415498983875
20
-7.8009419349061515
30
0
10
9.1507347239308103
20
-8.2853133360275102
30
0
10
9.2780981742045459
20
-8.8685558910801312
30
0
10
9.4426139641610813
20
-9.4518168016777047
30
0
10
9.7081642768838954
20
-10.227710219304448
30
0
10
9.9557625861584746
20
-10.8056522623192
30
0
10
10.140365393785977
20
-11.187880839839217
30
0
0
ARC
5
310
100
AcDbEntity
8
0
100
AcDbCircle
10
13.782806436222705
20
14.050633840156459
30
0
40
25.499999999999702
210
0
220
0
230
1
100
AcDbArc
50
261.78773391907674
51
266.21226608092275
0
SPLINE
5
311
100
AcDbEntity
8
0
100
AcDbSpline
70
0
71
3
72
16
73
12
74
0
42
0.000000001
43
0.0000000001
44
0.0000000001
40
-1
40
-1
40
-1
40
-1
40
-0.75
40
-0.625
40
-0.5
40
-0.375
40
-0.25
40
-0.1875
40
-0.125
40
-0.0625
40
0
40
0
40
0
40
0
10
12.098269141849576
20
-11.393664816003255
30
0
10
12.358307725055459
20
-11.058169931833721
30
0
10
12.720654378321807
20
-10.544336137102217
30
0
10
13.141720099561027
20
-9.8406087131757793
30
0
10
13.423910932401746
20
-9.3042984664216952
30
0
10
13.669750324651385
20
-8.7602809764871008
30
0
10
13.839244999979122
20
-8.3011149475882
30
0
10
13.95255670394741
20
-7.9309569409276683
30
0
10
14.021007943414673
20
-7.651792502188731
30
0
10
14.074629814281526
20
-7.3714935887545838
30
0
10
14.099275754880953
20
-7.184351026977148
30
0
10
14.097919408946826
20
-7.0901018017009401
30
0
0
LINE
5
312
100
AcDbEntity
8
0
100
AcDbLine
10
14.097919408946826
20
-7.0901018017009401
30
0
11
14.086854087486254
21
-6.321199157576995
31
0
0
ARC
5
313
100
AcDbEntity
8
0
100
AcDbCircle
10
15.674189725398623
20
-6.2983557205911156
30
0
40
1.5874999999999997
210
0
220
0
230
1
100
AcDbArc
50
95.310230055821748
51
180.82448989026884
0
ARC
5
314
100
AcDbEntity
8
0
100
AcDbCircle
10
13.782806436222705
20
14.050633840156459
30
0
40
18.849199999999698
210
-0
220
0
230
1
100
AcDbArc
50
275.31023005582216
51
276.68976994417812
0
ARC
5
315
100
AcDbEntity
8
0
100
AcDbCircle
10
16.163547235855344
20
-6.2469221736830463
30
0
40
1.5875000000000052
210
0
220
-0
230
1
100
AcDbArc
50
11.175510109730833
51
96.689769944179204
0
LINE
5
316
100
AcDbEntity
8
0
100
AcDbLine
10
17.720945199246422
20
-5.9392407903896496
30
0
11
17.869985530422465
21
-6.6936416766316675
31
0
0
SPLINE
5
317
100
AcDbEntity
8
0
100
AcDbSpline
70
0
71
3
72
16
73
12
74
0
42
0.000000001
43
0.0000000001
44
0.0000000001
40
0
40
0
40
0
40
0
40
0.0625
40
0.125
40
0.1875
40
0.25
40
0.375
40
0.5
40
0.625
40
0.75
40
1
40
1
40
1
40
1
10
17.869985530422465
20
-6.6936416766316675
30
0
10
17.888254339686711
20
-6.7861133303831469
30
0
10
17.951271539716519
20
-6.9640419965813374
30
0
10
18.061995690601456
20
-7.2270680563830858
30
0
10
18.186992504573499
20
-7.4859003235203403
30
0
10
18.374795132114023
20
-7.8244086557276464
30
0
10
18.63604653834329
20
-8.2383025435354487
30
0
10
18.989624958751573
20
-8.7193177481926973
30
0
10
19.377151196190649
20
-9.1852385035497299
30
0
10
19.935327762224333
20
-9.7860433680729333
30
0
10
20.396590279449825
20
-10.213312391103834
30
0
10
20.720699704334553
20
-10.487410845601893
30
0
0
ARC
5
318
100
AcDbEntity
8
0
100
AcDbCircle
10
13.782806436222705
20
14.050633840156459
30
0
40
25.499999999999709
210
-0
220
0
230
1
100
AcDbArc
50
285.78773391907714
51
290.21226608092314
0
SPLINE
5
319
100
AcDbEntity
8
0
100
AcDbSpline
70
0
71
3
72
16
73
12
74
0
42
0.000000001
43
0.0000000001
44
0.0000000001
40
-1
40
-1
40
-1
40
-1
40
-0.75
40
-0.625
40
-0.5
40
-0.375
40
-0.25
40
-0.1875
40
-0.125
40
-0.0625
40
0
40
0
40
0
40
0
10
22.593033663543245
20
-9.8790526643292509
30
0
10
22.694132667085626
20
-9.4667956164310922
30
0
10
22.816157773502535
20
-8.8500054258907213
30
0
10
22.914588720460955
20
-8.0358555763733612
30
0
10
22.954245844579127
20
-7.4311344345074479
30
0
10
22.957559457047733
20
-6.8341578385603263
30
0
10
22.925640898579243
20
-6.3457491032938318
30
0
10
22.878599466000473
20
-5.9615049156058415
30
0
10
22.827586378206984
20
-5.6786338833052294
30
0
10
22.762564555659722
20
-5.4007581044034509
30
0
10
22.70896200538969
20
-5.219770460015285
30
0
10
22.669388308221222
20
-5.1342211839699248
30
0
0
LINE
5
320
100
AcDbEntity
8
0
100
AcDbLine
10
22.669388308221219
20
-5.1342211839699257
30
0
11
22.346538753740486
21
-4.4362943377665491
31
0
0
ARC
5
321
100
AcDbEntity
8
0
100
AcDbCircle
10
23.787350752633593
20
-3.7697982508720855
30
0
40
1.5874999999999961
210
0
220
0
230
1
100
AcDbArc
50
119.31023005582182
51
204.82448989026952
0
ARC
5
322
100
AcDbEntity
8
0
100
AcDbCircle
10
13.782806436222705
20
14.050633840156459
30
0
40
18.849199999999744
210
-0
220
0
230
1
100
AcDbArc
50
299.31023005582256
51
300.68976994417847
0
ARC
5
323
100
AcDbEntity
8
0
100
AcDbCircle
10
24.213481175263752
20
-3.5237717366566756
30
0
40
1.5875000000000004
210
0
220
-0
230
1
100
AcDbArc
50
35.175510109730496
51
120.68976994417962
0
LINE
5
324
100
AcDbEntity
8
0
100
AcDbLine
10
25.511089717483838
20
-2.6092399869850356
30
0
11
25.954087319038749
21
-3.2377993258675408
31
0
0
SPLINE
5
325
100
AcDbEntity
8
0
100
AcDbSpline
70
0
71
3
72
16
73
12
74
0
42
0.000000001
43
0.0000000001
44
0.0000000001
40
0
40
0
40
0
40
0
40
0.0625
40
0.125
40
0.1875
40
0.25
40
0.375
40
0.5
40
0.625
40
0.75
40
1
40
1
40
1
40
1
10
25.954087319038749
20
-3.2377993258675408
30
0
10
26.008388316785144
20
-3.3148457909597662
30
0
10
26.138327502022186
20
-3.4517603113533797
30
0
10
26.346461383719646
20
-3.6470110040885393
30
0
10
26.565928222798728
20
-3.8326252615129475
30
0
10
26.875178202816883
20
-4.0654818004884721
30
0
10
27.282189048796891
20
-4.3373321616727525
30
0
10
27.800845518292071
20
-4.6329481171635649
30
0
10
28.344375396195186
20
-4.9009667859215771
30
0
10
29.098664416397458
20
-5.2227984781241581
30
0
10
29.693834661907541
20
-5.4255157854726654
30
0
10
30.101409240044923
20
-5.5440900040592211
30
0
0
ARC
5
326
100
AcDbEntity
8
0
100
AcDbCircle
10
13.782806436222705
20
14.050633840156459
30
0
40
25.49999999999978
210
-0
220
0
230
1
100
AcDbArc
50
309.78773391907737
51
314.21226608092348
0
SPLINE
5
327
100
AcDbEntity
8
0
100
AcDbSpline
70
0
71
3
72
16
73
12
74
0
42
0.000000001
43
0.0000000001
44
0.0000000001
40
-1
40
-1
40
-1
40
-1
40
-0.75
40
-0.625
40
-0.5
40
-0.375
40
-0.25
40
-0.1875
40
-0.125
40
-0.0625
40
0
40
0
40
0
40
0
10
31.56442985923151
20
-4.2267803216524875
30
0
10
31.489108346942594
20
-3.8090440988457903
30
0
10
31.349712657046901
20
-3.195946139802734
30
0
10
31.108489224778427
20
-2.4121477699954936
30
0
10
30.898755563140345
20
-1.8435775121655591
30
0
10
30.658970442128851
20
-1.29686448700737
30
0
10
30.43115765859438
20
-0.8636633527549229
30
0
10
30.231896980519444
20
-0.53177229483954969
30
0
10
30.07024019178402
20
-0.29410564026470909
30
0
10
29.897817539645754
20
-0.066700242489673281
30
0
10
29.775234866411843
20
0.076838076573491843
30
0
10
29.704286469765236
20
0.13889515636891173
30
0
0
LINE
5
328
100
AcDbEntity
8
0
100
AcDbLine
10
29.704286469765236
20
0.1388951563689117
30
0
11
29.125476303230183
21
0.64516831247682593
31
0
0
ARC
5
329
100
AcDbEntity
8
0
100
AcDbCircle
10
30.17063517912932
20
1.8400738209289491
30
0
40
1.5874999999999932
210
0
220
0
230
1
100
AcDbArc
50
143.31023005582182
51
228.82448989026972
0
ARC
5
330
100
AcDbEntity
8
0
100
AcDbCircle
10
13.782806436222705
20
14.050633840156459
30
0
40
18.849199999999847
210
-0
220
0
230
1
100
AcDbArc
50
323.31023005582284
51
324.68976994417886
0
ARC
5
331
100
AcDbEntity
8
0
100
AcDbCircle
10
30.459856692586808
20
2.2381530830631311
30
0
40
1.5875000000000057
210
0
220
-0
230
1
100
AcDbArc
50
59.175510109730396
51
144.68976994417744
0
LINE
5
332
100
AcDbEntity
8
0
100
AcDbLine
10
31.273307508282528
20
3.601404351334681
30
0
11
31.933664070400589
21
3.207370179786817
31
0
0
SPLINE
5
333
100
AcDbEntity
8
0
100
AcDbSpline
70
0
71
3
72
16
73
12
74
0
42
0.000000001
43
0.0000000001
44
0.0000000001
40
0
40
0
40
0
40
0
40
0.0625
40
0.125
40
0.1875
40
0.25
40
0.375
40
0.5
40
0.625
40
0.75
40
1
40
1
40
1
40
1
10
31.933664070400589
20
3.207370179786817
30
0
10
32.014608120809733
20
3.1590709371134573
30
0
10
32.18900162566608
20
3.0868443269298416
30
0
10
32.458556999193604
20
2.9931296198320361
30
0
10
32.73454605310932
20
2.9128277634817499
30
0
10
33.11177125461208
20
2.825886028762107
30
0
10
33.594165667495531
20
2.7430845913330772
30
0
10
34.188219770655621
20
2.6839825692997543
30
0
10
34.793772035319492
20
2.6602088498421512
30
0
10
35.613750085596678
20
2.6729979532911168
30
0
10
36.239917716990831
20
2.7298840256947132
30
0
10
36.660484101122066
20
2.7873366026260666
30
0
0
ARC
5
334
100
AcDbEntity
8
0
100
AcDbCircle
10
13.782806436222705
20
14.050633840156459
30
0
40
25.499999999999901
210
-0
220
0
230
1
100
AcDbArc
50
333.78773391907754
51
338.21226608092371
0
SPLINE
5
335
100
AcDbEntity
8
0
100
AcDbSpline
70
0
71
3
72
16
73
12
74
0
42
0.000000001
43
0.0000000001
44
0.0000000001
40
-1
40
-1
40
-1
40
-1
40
-0.75
40
-0.625
40
-0.5
40
-0.375
40
-0.25
40
-0.1875
40
-0.125
40
-0.0625
40
0
40
0
40
0
40
0
10
37.461221824104101
20
4.5858229746960291
30
0
10
37.222503569733547
20
4.936807984472841
30
0
10
36.845789864677577
20
5.4402035050809321
30
0
10
36.306621776067779
20
6.058124536453481
30
0
10
35.883762184141148
20
6.4922329473699447
30
0
10
35.442339355451999
20
6.8941507529574562
30
0
10
35.058023246738713
20
7.1972398745748123
30
0
10
34.74099730463324
20
7.4193908236684267
30
0
10
34.49664874233406
20
7.5707583768077091
30
0
10
34.24663870357012
20
7.7083729342675813
30
0
10
34.076271565203072
20
7.7896428486349221
30
0
10
33.986216091404479
20
7.8174774993129761
30
0
0
LINE
5
336
100
AcDbEntity
8
0
100
AcDbLine
10
33.986216091404479
20
7.8174774993129761
30
0
11
33.251526848934311
21
8.0445577372871231
31
0
0
ARC
5
337
100
AcDbEntity
8
0
100
AcDbCircle
10
33.720315137226223
20
9.5612626495097732
30
0
40
1.587499999999995
210
0
220
0
230
1
100
AcDbArc
50
167.31023005582085
51
252.82448989026949
0
ARC
5
338
100
AcDbEntity
8
0
100
AcDbCircle
10
13.782806436222705
20
14.050633840156459
30
0
40
18.849199999999993
210
-0
220
0
230
1
100
AcDbArc
50
347.31023005582301
51
348.68976994417909
0
ARC
5
339
100
AcDbEntity
8
0
100
AcDbCircle
10
33.822618714339278
20
10.042563138703196
30
0
40
1.5875000000000039
210
0
220
-0
230
1
100
AcDbArc
50
83.175510109730396
51
168.68976994417724
0
LINE
5
340
100
AcDbEntity
8
0
100
AcDbLine
10
34.011258767508174
20
11.618815396541532
30
0
11
34.774792641448137
21
11.52743848027699
31
0
0
CIRCLE
5
341
100
AcDbEntity
8
0
100
AcDbCircle
10
13.782806436222705
20
14.050633840156459
30
0
40
1.9999999999999374
210
-0
220
0
230
1
0
ENDSEC
0
SECTION
2
OBJECTS
0
DICTIONARY
5
C
100
AcDbDictionary
3
ACAD_GROUP
350
D
3
ACAD_MLINESTYLE
350
17
0
DICTIONARY
5
D
100
AcDbDictionary
0
DICTIONARY
5
1A
330
C
100
AcDbDictionary
0
DICTIONARY
5
17
100
AcDbDictionary
0
ENDSEC
0
EOF
