0
SECTION
2
HEADER
9
$INSUNITS
70
4
9
$ACADVER
1
AC1014
9
$HANDSEED
5
FFFF
0
ENDSEC
0
SECTION
2
TABLES
0
TABLE
2
VPORT
5
8
100
AcDbSymbolTable
0
ENDTAB
0
TABLE
2
LTYPE
5
5
100
AcDbSymbolTable
0
LTYPE
5
14
100
AcDbSymbolTableRecord
100
AcDbLinetypeTableRecord
2
BYBLOCK
70
0
0
LTYPE
5
15
100
AcDbSymbolTableRecord
100
AcDbLinetypeTableRecord
2
BYLAYER
70
0
0
ENDTAB
0
TABLE
2
LAYER
5
2
100
AcDbSymbolTable
70
2
0
LAYER
5
50
100
AcDbSymbolTableRecord
100
AcDbLayerTableRecord
2
0
70
0
6
CONTINUOUS
0
ENDTAB
0
TABLE
2
STYLE
5
3
100
AcDbSymbolTable
70
1
0
STYLE
5
11
100
AcDbSymbolTableRecord
100
AcDbTextStyleTableRecord
2
STANDARD
70
0
0
ENDTAB
0
TABLE
2
VIEW
5
6
100
AcDbSymbolTable
70
0
0
ENDTAB
0
TABLE
2
UCS
5
7
100
AcDbSymbolTable
70
0
0
ENDTAB
0
TABLE
2
APPID
5
9
100
AcDbSymbolTable
70
2
0
APPID
5
12
100
AcDbSymbolTableRecord
100
AcDbRegAppTableRecord
2
ACAD
70
0
0
ENDTAB
0
TABLE
2
DIMSTYLE
5
A
100
AcDbSymbolTable
70
1
0
ENDTAB
0
TABLE
2
BLOCK_RECORD
5
1
100
AcDbSymbolTable
70
1
0
BLOCK_RECORD
5
1F
100
AcDbSymbolTableRecord
100
AcDbBlockTableRecord
2
*MODEL_SPACE
0
BLOCK_RECORD
5
1B
100
AcDbSymbolTableRecord
100
AcDbBlockTableRecord
2
*PAPER_SPACE
0
ENDTAB
0
ENDSEC
0
SECTION
2
BLOCKS
0
BLOCK
5
20
100
AcDbEntity
100
AcDbBlockBegin
2
*MODEL_SPACE
0
ENDBLK
5
21
100
AcDbEntity
100
AcDbBlockEnd
0
BLOCK
5
1C
100
AcDbEntity
100
AcDbBlockBegin
2
*PAPER_SPACE
0
ENDBLK
5
1D
100
AcDbEntity
100
AcDbBlockEnd
0
ENDSEC
0
SECTION
2
ENTITIES
0
LWPOLYLINE
5
100
100
AcDbEntity
8
0
100
AcDbPolyline
90
8
70
1
43
0.0
10
-1.9825411154020645e-15
20
-4.9999999999999982
10
-1.0880185641326534e-13
20
-275.00000000000006
42
0.41421356237309498
10
4.999999999999889
20
-280.00000000000006
10
364.99999999999989
20
-280.00000000000006
42
0.41421356237309503
10
369.99999999999989
20
-275.00000000000006
10
370
20
-5
42
0.41421356237309503
10
365
20
0
10
5
20
0
42
0.41421356237309503
0
LWPOLYLINE
5
101
100
AcDbEntity
8
0
100
AcDbPolyline
90
4
70
1
43
0.0
10
132.35877854974603
20
-16.484967273230101
10
132.35877854974603
20
-13.484967273230099
10
137.35877854974603
20
-13.484967273230099
10
137.35877854974603
20
-16.484967273230097
0
LWPOLYLINE
5
102
100
AcDbEntity
8
0
100
AcDbPolyline
90
4
70
1
43
0.0
10
318.55388049917889
20
-171.93840452415739
10
318.55388049917889
20
-176.93840452415739
10
303.55388049917883
20
-176.93840452415739
10
303.55388049917883
20
-171.93840452415739
0
LWPOLYLINE
5
103
100
AcDbEntity
8
0
100
AcDbPolyline
90
4
70
1
43
0.0
10
308.60253503916397
20
-34.159137943855008
10
308.60253503916397
20
-31.159137943855004
10
313.60253503916397
20
-31.159137943855004
10
313.60253503916397
20
-34.159137943855008
0
LWPOLYLINE
5
104
100
AcDbEntity
8
0
100
AcDbPolyline
90
4
70
1
43
0.0
10
308.60253503916397
20
-41.159137943855015
10
308.60253503916397
20
-38.159137943855008
10
313.60253503916397
20
-38.159137943855008
10
313.60253503916397
20
-41.159137943855015
0
LWPOLYLINE
5
105
100
AcDbEntity
8
0
100
AcDbPolyline
90
4
70
1
43
0.0
10
315.12611962706677
20
-74.859497151537568
10
315.12611962706677
20
-79.859497151537568
10
300.12611962706677
20
-79.859497151537568
10
300.12611962706677
20
-74.859497151537568
0
LWPOLYLINE
5
106
100
AcDbEntity
8
0
100
AcDbPolyline
90
4
70
1
43
0.0
10
348.35926265092144
20
-238.75922169058438
10
348.35926265092144
20
-233.75922169058438
10
351.35926265092144
20
-233.75922169058438
10
351.35926265092144
20
-238.75922169058438
0
LWPOLYLINE
5
107
100
AcDbEntity
8
0
100
AcDbPolyline
90
4
70
1
43
0.0
10
341.35926265092144
20
-238.75922169058438
10
341.35926265092144
20
-233.75922169058435
10
344.35926265092144
20
-233.75922169058435
10
344.35926265092144
20
-238.75922169058438
0
LWPOLYLINE
5
108
100
AcDbEntity
8
0
100
AcDbPolyline
90
4
70
1
43
0.0
10
258.60110707245821
20
-38.363134190895259
10
258.60110707245821
20
-23.363134190895245
10
268.60110707245821
20
-23.363134190895259
10
268.60110707245821
20
-38.363134190895259
0
LWPOLYLINE
5
109
100
AcDbEntity
8
0
100
AcDbPolyline
90
4
70
1
43
0.0
10
132.35877854974603
20
-23.48496727323009
10
132.35877854974603
20
-20.48496727323009
10
137.35877854974603
20
-20.48496727323009
10
137.35877854974603
20
-23.48496727323009
0
LWPOLYLINE
5
110
100
AcDbEntity
8
0
100
AcDbPolyline
90
4
70
1
43
0.0
10
277.49999999999994
20
-269.5
42
0.99999999999999989
10
277.49999999999994
20
-266.5
10
202.49999999999997
20
-266.5
42
0.99999999999999989
10
202.49999999999997
20
-269.5
0
LWPOLYLINE
5
111
100
AcDbEntity
8
0
100
AcDbPolyline
90
4
70
1
43
0.0
10
277.49999999999994
20
-240
42
0.99999999999999989
10
277.49999999999994
20
-237.00000000000003
10
202.49999999999989
20
-236.99999999999994
42
0.99999999999999989
10
202.49999999999989
20
-240.00000000000003
0
LWPOLYLINE
5
112
100
AcDbEntity
8
0
100
AcDbPolyline
90
12
70
1
43
0.0
10
50
20
-225.00000000000003
10
50
20
-55
42
-0.41421356237309503
10
55
20
-50
10
274.99999999999994
20
-50
42
-0.4142135623730992
10
280.00000000000006
20
-55
10
280.00000000000006
20
-213
42
0.41421356237309503
10
285.00000000000006
20
-218
10
329.99999999999989
20
-218.00000000000006
42
-0.41421356237309293
10
334.99999999999994
20
-223
10
335
20
-225
42
-0.41421356237310125
10
329.99999999999994
20
-230.00000000000003
10
55
20
-230.00000000000003
42
-0.41421356237309503
0
CIRCLE
5
113
100
AcDbEntity
8
0
100
AcDbCircle
10
50
20
-274
30
0
40
1.5691817131535959
210
0
220
0
230
1
0
CIRCLE
5
114
100
AcDbEntity
8
0
100
AcDbCircle
10
50
20
-6.0000000000000053
30
0
40
1.4999999999999969
210
0
220
0
230
1
0
CIRCLE
5
115
100
AcDbEntity
8
0
100
AcDbCircle
10
305.75686002485492
20
-273.93462541398071
30
0
40
1.500000000000024
210
0
220
0
230
1
0
CIRCLE
5
116
100
AcDbEntity
8
0
100
AcDbCircle
10
305.75686002485492
20
-6.0068181106920466
30
0
40
1.3224677739097721
210
0
220
0
230
1
0
CIRCLE
5
117
100
AcDbEntity
8
0
100
AcDbCircle
10
284
20
-135.00000000000006
30
0
40
0.99999999999999822
210
0
220
0
230
1
0
CIRCLE
5
118
100
AcDbEntity
8
0
100
AcDbCircle
10
-24.999999999999996
20
-32.999999999999993
30
0
40
1.5000000000000009
210
0
220
0
230
-1
0
CIRCLE
5
119
100
AcDbEntity
8
0
100
AcDbCircle
10
-25
20
-75
30
0
40
1.500000000000004
210
0
220
0
230
-1
0
CIRCLE
5
120
100
AcDbEntity
8
0
100
AcDbCircle
10
-43.52833019461788
20
-36.357190156281206
30
0
40
3.5000000000000142
210
0
220
0
230
-1
0
CIRCLE
5
121
100
AcDbEntity
8
0
100
AcDbCircle
10
-283.85225258144339
20
-253.25000000000003
30
0
40
3.5000000000000209
210
0
220
0
230
-1
0
CIRCLE
5
122
100
AcDbEntity
8
0
100
AcDbCircle
10
-355.99999999999989
20
-147.50000000000003
30
0
40
1.5000000000000853
210
0
220
0
230
-1
0
CIRCLE
5
123
100
AcDbEntity
8
0
100
AcDbCircle
10
-355.99999999999989
20
-132.5
30
0
40
1.5000000000000853
210
0
220
0
230
-1
0
CIRCLE
5
124
100
AcDbEntity
8
0
100
AcDbCircle
10
284
20
-145.00000000000006
30
0
40
0.99999999999999822
210
0
220
0
230
1
0
CIRCLE
5
125
100
AcDbEntity
8
0
100
AcDbCircle
10
285.75686072557124
20
-6.0015239013463013
30
0
40
1.5000000000000235
210
0
220
0
230
1
0
CIRCLE
5
126
100
AcDbEntity
8
0
100
AcDbCircle
10
285.75692444622683
20
-273.98538810429335
30
0
40
1.3573188292118845
210
0
220
0
230
1
0
CIRCLE
5
127
100
AcDbEntity
8
0
100
AcDbCircle
10
30.000000000000004
20
-6.0000000000000053
30
0
40
1.5000000000000009
210
0
220
0
230
1
0
CIRCLE
5
128
100
AcDbEntity
8
0
100
AcDbCircle
10
30.000000000000004
20
-274
30
0
40
1.5000000000000009
210
0
220
0
230
1
0
LWPOLYLINE
5
129
100
AcDbEntity
8
0
100
AcDbPolyline
90
8
70
1
43
0.0
10
-1.9825411154020645e-15
20
-4.9999999999999982
10
-1.0880185641326534e-13
20
-275.00000000000006
42
0.41421356237309498
10
4.9999999999998899
20
-280.00000000000006
10
364.99999999999989
20
-280.00000000000006
42
0.41421356237309503
10
369.99999999999989
20
-275.00000000000006
10
370
20
-5
42
0.41421356237309503
10
365
20
1.1220392388709538e-30
10
5
20
0
42
0.41421356237309503
0
CIRCLE
5
130
100
AcDbEntity
8
0
100
AcDbCircle
10
50
20
-274
30
0
40
1.5691817131535959
210
0
220
-0
230
1
0
CIRCLE
5
131
100
AcDbEntity
8
0
100
AcDbCircle
10
50
20
-6.0000000000000053
30
0
40
1.4999999999999969
210
0
220
-0
230
1
0
CIRCLE
5
132
100
AcDbEntity
8
0
100
AcDbCircle
10
305.75686002485492
20
-273.93462541398071
30
0
40
1.500000000000024
210
0
220
-0
230
1
0
CIRCLE
5
133
100
AcDbEntity
8
0
100
AcDbCircle
10
305.75686002485492
20
-6.0068181106920466
30
0
40
1.3224677739097721
210
0
220
-0
230
1
0
CIRCLE
5
134
100
AcDbEntity
8
0
100
AcDbCircle
10
284
20
-135.00000000000006
30
0
40
0.99999999999999822
210
0
220
-0
230
1
0
CIRCLE
5
135
100
AcDbEntity
8
0
100
AcDbCircle
10
24.999999999999996
20
-32.999999999999993
30
0
40
1.5000000000000009
210
0
220
0
230
1
0
CIRCLE
5
136
100
AcDbEntity
8
0
100
AcDbCircle
10
25
20
-75
30
0
40
1.500000000000004
210
0
220
0
230
1
0
LWPOLYLINE
5
137
100
AcDbEntity
8
0
100
AcDbPolyline
90
4
70
1
43
0.0
10
132.35877854974603
20
-16.484967273230101
10
132.35877854974603
20
-13.484967273230099
10
137.35877854974603
20
-13.484967273230099
10
137.35877854974603
20
-16.484967273230097
0
LWPOLYLINE
5
138
100
AcDbEntity
8
0
100
AcDbPolyline
90
4
70
1
43
0.0
10
318.55388049917889
20
-171.93840452415739
10
318.55388049917889
20
-176.93840452415739
10
303.55388049917883
20
-176.93840452415739
10
303.55388049917883
20
-171.93840452415739
0
LWPOLYLINE
5
139
100
AcDbEntity
8
0
100
AcDbPolyline
90
4
70
1
43
0.0
10
308.60253503916397
20
-34.159137943855008
10
308.60253503916397
20
-31.159137943855004
10
313.60253503916397
20
-31.159137943855004
10
313.60253503916397
20
-34.159137943855008
0
LWPOLYLINE
5
140
100
AcDbEntity
8
0
100
AcDbPolyline
90
4
70
1
43
0.0
10
308.60253503916397
20
-41.159137943855015
10
308.60253503916397
20
-38.159137943855008
10
313.60253503916397
20
-38.159137943855008
10
313.60253503916397
20
-41.159137943855015
0
LWPOLYLINE
5
141
100
AcDbEntity
8
0
100
AcDbPolyline
90
4
70
1
43
0.0
10
315.12611962706677
20
-74.859497151537568
10
315.12611962706677
20
-79.859497151537568
10
300.12611962706677
20
-79.859497151537568
10
300.12611962706677
20
-74.859497151537568
0
LWPOLYLINE
5
142
100
AcDbEntity
8
0
100
AcDbPolyline
90
4
70
1
43
0.0
10
348.35926265092144
20
-238.75922169058438
10
348.35926265092144
20
-233.75922169058438
10
351.35926265092144
20
-233.75922169058438
10
351.35926265092144
20
-238.75922169058438
0
LWPOLYLINE
5
143
100
AcDbEntity
8
0
100
AcDbPolyline
90
4
70
1
43
0.0
10
341.35926265092144
20
-238.75922169058438
10
341.35926265092144
20
-233.75922169058435
10
344.35926265092144
20
-233.75922169058435
10
344.35926265092144
20
-238.75922169058438
0
LWPOLYLINE
5
144
100
AcDbEntity
8
0
100
AcDbPolyline
90
4
70
1
43
0.0
10
258.60110707245821
20
-38.363134190895259
10
258.60110707245821
20
-23.363134190895245
10
268.60110707245821
20
-23.363134190895259
10
268.60110707245821
20
-38.363134190895259
0
LWPOLYLINE
5
145
100
AcDbEntity
8
0
100
AcDbPolyline
90
4
70
1
43
0.0
10
132.35877854974603
20
-23.48496727323009
10
132.35877854974603
20
-20.48496727323009
10
137.35877854974603
20
-20.48496727323009
10
137.35877854974603
20
-23.48496727323009
0
CIRCLE
5
146
100
AcDbEntity
8
0
100
AcDbCircle
10
43.52833019461788
20
-36.357190156281206
30
0
40
3.5000000000000142
210
0
220
0
230
1
0
CIRCLE
5
147
100
AcDbEntity
8
0
100
AcDbCircle
10
283.85225258144339
20
-253.25000000000003
30
0
40
3.5000000000000204
210
0
220
0
230
1
0
LWPOLYLINE
5
148
100
AcDbEntity
8
0
100
AcDbPolyline
90
4
70
1
43
0.0
10
277.49999999999994
20
-269.5
42
0.99999999999999989
10
277.49999999999994
20
-266.5
10
202.49999999999997
20
-266.5
42
0.99999999999999989
10
202.49999999999997
20
-269.5
0
LWPOLYLINE
5
149
100
AcDbEntity
8
0
100
AcDbPolyline
90
4
70
1
43
0.0
10
277.49999999999994
20
-240
42
0.99999999999999989
10
277.49999999999994
20
-237.00000000000003
10
202.49999999999989
20
-236.99999999999994
42
0.99999999999999989
10
202.49999999999989
20
-240.00000000000003
0
CIRCLE
5
150
100
AcDbEntity
8
0
100
AcDbCircle
10
355.99999999999989
20
-147.50000000000003
30
0
40
1.5000000000000853
210
0
220
0
230
1
0
CIRCLE
5
151
100
AcDbEntity
8
0
100
AcDbCircle
10
355.99999999999989
20
-132.5
30
0
40
1.5000000000000853
210
0
220
0
230
1
0
LWPOLYLINE
5
152
100
AcDbEntity
8
0
100
AcDbPolyline
90
12
70
1
43
0.0
10
50
20
-225.00000000000003
10
50
20
-55
42
-0.41421356237309503
10
55
20
-50
10
274.99999999999994
20
-49.999999999999993
42
-0.41421356237309553
10
280.00000000000006
20
-55
10
280.00000000000006
20
-213
42
0.41421356237309503
10
285.00000000000006
20
-218
10
329.99999999999994
20
-218
42
-0.41421356237308671
10
334.99999999999994
20
-223
10
335
20
-225
42
-0.41421356237309709
10
329.99999999999989
20
-230.00000000000003
10
55
20
-230
42
-0.41421356237309243
0
CIRCLE
5
153
100
AcDbEntity
8
0
100
AcDbCircle
10
284
20
-145.00000000000006
30
0
40
0.99999999999999822
210
0
220
-0
230
1
0
CIRCLE
5
154
100
AcDbEntity
8
0
100
AcDbCircle
10
285.75686072557124
20
-6.0015239013463013
30
0
40
1.5000000000000235
210
0
220
-0
230
1
0
CIRCLE
5
155
100
AcDbEntity
8
0
100
AcDbCircle
10
285.75692444622683
20
-273.98538810429335
30
0
40
1.3573188292118845
210
0
220
-0
230
1
0
CIRCLE
5
156
100
AcDbEntity
8
0
100
AcDbCircle
10
30.000000000000004
20
-6.0000000000000053
30
0
40
1.5000000000000009
210
0
220
-0
230
1
0
CIRCLE
5
157
100
AcDbEntity
8
0
100
AcDbCircle
10
30.000000000000004
20
-274
30
0
40
1.5000000000000009
210
0
220
-0
230
1
0
ENDSEC
0
SECTION
2
OBJECTS
0
DICTIONARY
5
C
100
AcDbDictionary
3
ACAD_GROUP
350
D
3
ACAD_MLINESTYLE
350
17
0
DICTIONARY
5
D
100
AcDbDictionary
0
DICTIONARY
5
1A
330
C
100
AcDbDictionary
0
DICTIONARY
5
17
100
AcDbDictionary
0
ENDSEC
0
EOF
